<?xml version="1.0" encoding="utf-8"?>
<!-- Generator: Adobe Illustrator 23.0.1, SVG Export Plug-In . SVG Version: 6.00 Build 0)  -->
<svg version="1.1" id="Layer_1" xmlns="http://www.w3.org/2000/svg" xmlns:xlink="http://www.w3.org/1999/xlink" x="0px" y="0px"
	 viewBox="0 0 1322 1401" style="enable-background:new 0 0 1322 1401;" xml:space="preserve">
<style type="text/css">
	.st0{fill:#B12B5E;}
	.st1{fill:#C7BABC;}
	.st2{fill:#A39999;}
	.st3{fill:#E6DDD1;}
	.st4{fill:#7EC15B;}
	.st5{fill:#7E1E45;}
	.st6{fill:#701749;}
	.st7{fill:#B7C453;}
	.st8{fill:#506847;}
	.st9{fill:#519B2A;}
	.st10{fill:#E5DDD1;}
	.st11{fill:#519A2A;}
	.st12{fill:#E5DCD0;}
	.st13{fill:#B7C353;}
	.st14{fill:#746941;}
	.st15{fill:#509A2A;}
	.st16{fill:#E4DCD0;}
	.st17{fill:#B6C353;}
	.st18{fill:#50992A;}
	.st19{fill:#509829;}
	.st20{fill:#E3DACE;}
	.st21{fill:#7DBF5A;}
	.st22{fill:#509929;}
	.st23{fill:#7C1E44;}
	.st24{fill:#4F9829;}
	.st25{fill:#B6C153;}
	.st26{fill:#B6C253;}
	.st27{fill:#7C1D44;}
	.st28{fill:#736841;}
	.st29{fill:#315020;}
	.st30{fill:#4E9629;}
	.st31{fill:#726640;}
	.st32{fill:#4F6645;}
	.st33{fill:#791D42;}
	.st34{fill:#4C9228;}
	.st35{fill:#4D9328;}
	.st36{fill:#4D9228;}
	.st37{fill:#7BB957;}
	.st38{fill:#504F52;}
	.st39{fill:#B5BE53;}
	.st40{fill:#7CBC58;}
	.st41{fill:#AFB952;}
	.st42{fill:#2D4A1D;}
	.st43{fill:#4A8E26;}
	.st44{fill:#427E22;}
	.st45{fill:#386B1D;}
	.st46{fill:#ACA2A4;}
	.st47{fill:#274019;}
	.st48{fill:#410F23;}
	.st49{fill:#4A4A4D;}
	.st50{fill:#4C4B4E;}
	.st51{fill:#4B4B4E;}
	.st52{fill:#4B4B4D;}
	.st53{fill:#4E4D50;}
	.st54{fill:#4C4C4F;}
	.st55{fill:#4F4E51;}
	.st56{fill:#4C4C4E;}
	.st57{fill:#515053;}
	.st58{fill:#525154;}
	.st59{fill:#585759;}
	.st60{fill:#3C3C3E;}
	.st61{fill:#3D3C3E;}
	.st62{fill:#3E3E40;}
	.st63{fill:#3F3E40;}
	.st64{fill:#3D3D3F;}
	.st65{fill:#3F3F41;}
	.st66{fill:#3E3E3F;}
	.st67{fill:#3F3F40;}
	.st68{fill:#424143;}
	.st69{fill:#424243;}
	.st70{fill:#424244;}
	.st71{fill:#4B4A4B;}
	.st72{fill:#434344;}
	.st73{fill:#4B494B;}
	.st74{fill:#444345;}
	.st75{fill:#4A484A;}
	.st76{fill:#514D4F;}
	.st77{fill:#555755;}
	.st78{fill:#575956;}
	.st79{fill:#585957;}
	.st80{fill:#585A58;}
	.st81{fill:#5B5D5A;}
	.st82{fill:#626360;}
	.st83{fill:#5E5F5C;}
	.st84{fill:#5E5F5D;}
	.st85{fill:#61625F;}
	.st86{fill:#575856;}
	.st87{fill:#D3B8B6;}
	.st88{fill:#020101;}
	.st89{fill:#272323;}
	.st90{fill:#232321;}
	.st91{fill:#272322;}
	.st92{fill:#CCD060;}
	.st93{fill:#545654;}
	.st94{fill:#60615E;}
	.st95{fill:#5C5D5B;}
	.st96{fill:#595B59;}
	.st97{fill:#5A5C59;}
	.st98{fill:#5F605D;}
	.st99{fill:#575957;}
	.st100{fill:#646562;}
	.st101{fill:#5C5E5B;}
	.st102{fill:#61615F;}
	.st103{fill:#686965;}
	.st104{fill:#565755;}
	.st105{fill:#5D5F5C;}
	.st106{fill:#60615F;}
	.st107{fill:#595B58;}
	.st108{fill:#72716E;}
	.st109{fill:#5C5D5A;}
	.st110{fill:#636461;}
	.st111{fill:#6E6E6A;}
	.st112{fill:#616260;}
	.st113{fill:#686865;}
</style>
<g>
	<g>
		<path d="M1320.5,649.68c-3.87-22.18-11.15-43.34-18.34-64.61c-16.48-48.75-37.93-95.09-65.14-138.77c-1.9-3.05-3.5-6.29-5.33-9.39
			c-6.26-10.56-12.22-21.31-18.94-31.56c-5.69-8.66-12.25-16.76-18.49-25.05c-17.74-23.6-38.61-43.69-63.94-59.24
			c-21.34-13.11-43.22-25.09-65.93-35.6c-26.35-12.19-53.36-22.48-81.44-30.11c-16.31-4.43-32.12-3.16-48.08,0.62
			c-1.44,0.34-2.67,1.6-3.99,2.44c0.88,1.09,1.62,2.33,2.65,3.24c8.31,7.21,16.26,14.92,25.09,21.42
			c26.87,19.79,45.81,45.47,58.66,76.03c4.75,11.29,7.85,22.74,6.9,35.14c-0.69,9.06-0.85,18.17-1.33,27.25
			c-1.25,23.43-2.25,46.88-3.92,70.28c-1.02,14.3-2.3,28.67-4.86,42.75c-4.11,22.64-8.75,45.24-14.31,67.57
			c-8.42,33.78-22.67,65.54-35.81,97.64c-4.66,11.39-12.54,20.62-24.03,26.06c-1.52,0.72-3.47,0.54-5.21,0.78
			c-0.23-1.79-0.94-3.67-0.61-5.34c1.19-5.93,3.85-11.25,8.24-15.46c4.42-4.25,9.18-8.16,13.62-12.4c1.59-1.52,4.07-3.84,3.77-5.31
			c-1.83-9.02-2.9-18.48-11.46-24.58c-4.81-3.43-9.07-7.62-13.63-11.41c-2.92-2.43-2.85-4.94-0.45-7.65c2.94-3.33,5.76-6.78,8.81-10
			c5.06-5.34,5.68-9.4,2.92-16.14c-1.74-4.25-5.45-5.58-8.97-7.52c-4.21-2.31-8.61-4.54-12.2-7.65c-4.12-3.58-4.44-8.67-1.39-13.2
			c1.98-2.94,4.46-5.62,7.05-8.05c7.11-6.66,14.4-13.12,21.61-19.69c1.77-1.62,3.32-3.36,1.84-6c-3.94-7.06-13.12-11.66-21.04-10.18
			c-6.89,1.29-13.5-0.03-19.96-1.94c-6.35-1.87-8.55-6.14-7.44-12.79c0.24-1.45,0.83-2.84,1.15-4.28c1.7-7.82,3.62-15.61,4.98-23.49
			c1.29-7.47,4.15-13.62,10.86-17.77c5-3.09,5.39-6.02,1.9-10.79c-2.28-3.12-5.49-4.68-9.33-4.43c-5.9,0.38-12.1-0.04-17.6,1.7
			c-11.17,3.54-20.34,0.96-28.74-6.48c-1.74-1.54-3.61-2.95-5.51-4.3c-5.29-3.76-6.64-8.8-5.59-15.03
			c1.26-7.52,4.69-13.95,8.85-20.17c3.26-4.88,2.81-7.31-2.03-10.49c-1.51-0.99-3.67-1.92-5.29-1.61
			c-3.85,0.72-8.11,1.39-11.24,3.51c-15.27,10.3-30.25,21.02-45.25,31.71c-2.92,2.08-5.29,4.92-8.21,7
			c-11.31,8.08-20.63,4.83-24.31-8.56c-0.86-3.11-2.58-4.77-5.46-5.23c-10.32-1.63-17.6-0.87-23.41,9.31
			c-4.62,8.09-9.02,16.31-13.23,24.61c-4.16,8.19-6.95,16.73-5.02,26.18c0.59,2.87,0.72,5.85,0.98,8.78
			c0.33,3.88-1.44,5.25-4.73,3.39c-2.56-1.44-4.97-3.25-7.16-5.21c-2.52-2.25-4.72-4.87-7.08-7.31c-5.36-5.56-11.61-5.93-17.51-1.03
			c-4.09,3.39-6.89,7.77-7.32,12.97c-0.84,10.32-1.68,20.7-1.43,31.02c0.28,11.69,3.02,23.05,8.23,33.65
			c2.51,5.11,2.35,9.85,0.15,15.21c-2.21,5.39-2.91,11.39-4.51,17.06c-0.72,2.56-2.02,4.96-3.06,7.43c-1.6-1.77-3.46-3.37-4.75-5.34
			c-1.88-2.9-4-4.84-7.73-4.35c-3.39,0.45-4.17,2.98-5.18,5.64c-4.38,11.59-6.34,23.71-7.14,35.93
			c-1.38,21.02,2.54,40.91,14.81,58.56c3.2,4.59,3.43,8.94-0.85,14.03c-5.67-4.18-11.38-8.4-17.1-12.61
			c-4.39-3.23-5.9-7.54-4.9-12.83c2.18-11.46,0.96-22.66-2.13-33.83c-6.38-23.09-18.03-42.16-39.76-53.95
			c-1.76-0.96-3.23-3.24-3.94-5.22c-6-16.79-9.08-34.26-12.11-51.77c-4.73-27.26-9.42-54.51-10.54-82.22
			c-0.67-16.51-1.2-33.03-1.24-49.55c-0.05-20.14,0.73-40.28,0.66-60.42c-0.03-8.74,1.89-16.75,5.66-24.47
			c1.12-2.29,2.4-4.49,3.43-6.82c11.59-26.09,28.53-47.83,51.64-64.79c12.27-9,24.14-18.56,36.13-27.94
			c1.06-0.83,1.65-2.26,2.46-3.41c-1.22-0.66-2.38-1.56-3.69-1.93c-4.13-1.17-8.31-2.15-12.47-3.21l-30.53,1.37
			c-10.28,2.41-20.7,4.31-30.84,7.19c-40.27,11.45-78.63,27.64-115.44,47.53c-19.85,10.72-38.67,23.09-54.11,39.65
			c-13.12,14.07-26.1,28.47-37.42,43.98c-17.71,24.27-34.49,49.25-48.93,75.7c-6.69,12.26-14.96,23.76-20.69,36.44
			c-12.8,28.33-24.69,57.08-36.46,85.86c-6.34,15.51-10.02,31.85-11.41,48.59c-0.26,3.19-1.67,7.74,1.8,9.38
			c3.83,1.82,7.68-0.96,11.03-3.28c0.17-0.12,0.33-0.27,0.47-0.43c7.08-8.61,14.38-17.04,21.16-25.87
			c7.26-9.45,14.77-18.62,24.67-25.41c6.17-4.23,11.24-3.94,16.7,1.09c4.34,4.01,8.09,8.65,12.15,12.96
			c5.41,5.72,6.59,12.78,5.68,20.11c-0.94,7.53-2.4,15.02-4.16,22.4c-7.87,33.12-15.78,66.22-23.94,99.26
			c-6.14,24.84-11.99,49.77-21.54,73.63c-1.39,3.47-2.09,7.36-2.32,11.1c-0.41,6.88-0.36,7.29,6.98,5.94
			c7.39-1.36,13.16-5.31,17.25-11.87c4.26-6.82,8.97-13.36,13.53-19.98c4.51-6.53,10.9-10.52,18.23-13.15
			c5.77-2.07,11.71-3.77,17.3-6.26c5.74-2.56,11.57-2.61,17.46-1.79c4.37,0.61,8.65,1.92,12.92,3.1
			c12.75,3.51,19.79,12.29,22.72,24.84c3.17,13.57,2.2,27.34,2.06,41.07c-0.03,3.48-1.62,5.8-5.86,5.93
			c-7.17,0.22-14.33,1.43-21.49,1.45c-8.96,0.02-15.69,3.51-21.38,10.32c-5.67,6.78-6.92,13.62-3.06,21.63
			c2.85,5.9,5.29,12,7.83,18.04c2.22,5.29,1.43,10.35-1.49,15.15c-1.1,1.81-2.5,3.45-3.48,5.32c-1.82,3.5-4.34,4.27-7.88,2.7
			c-5.82-2.58-12.09-2.92-18.12-1.82c-12.47,2.27-24.88,4.95-37.18,7.99c-8.52,2.1-10.28,5.38-8.27,13.89
			c0.56,2.35,2.14,4.59,3.66,6.57c8.92,11.69,14.37,24.78,16.82,39.28c1.2,7.12-0.98,12.51-6.71,16.44
			c-4.53,3.11-9.29,5.92-14.11,8.57c-9.46,5.2-19.08,10.14-28.56,15.3c-5.55,3.03-5.73,3.92-4.38,10.13
			c1.82,8.39,5.01,16.1,10.12,23.06c3.26,4.43,6.19,9.12,9.01,13.85c1.39,2.33,2.65,4.91,3.19,7.53
			c1.44,7.05-3.92,12.94-10.98,12.33c-4.01-0.35-8.06-0.64-12-1.41c-8.32-1.63-16.54-3.78-24.87-5.32
			c-14.07-2.61-18.29,1.88-14.67,15.64c1.83,6.96,4.49,13.7,6.37,20.66c1.65,6.11,2.83,12.36,4.02,18.58
			c0.73,3.78-0.94,6.62-4.31,8.4c-5.8,3.07-11.65,6.07-17.45,9.15c-2.58,1.37-4.43,1.05-6.7-1.15c-2.68-2.61-6.04-4.58-9.28-6.53
			c-5.26-3.16-10.76-5.93-16-9.13c-8.79-5.36-18.34-7.59-28.53-7.33c-5.14,0.13-6.49,1.03-7.19,6.1c-0.69,5.02-0.6,10.14-0.85,15.22
			c-0.32,6.34-0.53,12.69-0.99,19.02c-0.29,4.07-2.77,6.52-6.62,7.62c-7.8,2.22-15,1.82-21.36-4.05c-3.42-3.16-7.19-5.96-10.96-8.71
			c-6.7-4.9-13.7-9.24-21.9-11.31c-7.65-1.93-10.48-0.67-13.08,6.83c-3.02,8.69-4.46,17.62-3.99,26.89
			c0.34,6.64-1.08,8.38-7.41,9.78c-6.62,1.46-13.29,2.84-20.01,3.64c-2.16,0.26-4.96-0.91-6.75-2.33
			c-5.15-4.07-9.8-8.78-14.91-12.91c-6.25-5.05-12.34-10.54-19.28-14.45c-8.93-5.02-13.15-1.17-14.46,6.36
			c-1.49,8.54-2.68,17.14-3.6,25.75c-0.64,6.05-1.9,8.43-7.71,10.21c-3.63,1.11-7.42,1.77-11.18,2.37c-3.57,0.58-6.49-0.7-9.2-3.24
			c-13.43-12.6-29.02-22.15-45.42-30.16c-9.64-4.71-16.71-1.94-16.07,10.7c0.4,7.83,0.36,15.69,0.43,23.53
			c0.06,6.42-2.06,9.02-8.23,9.92c-3.56,0.52-7.16,0.83-10.75,0.97c-6.27,0.24-11.03-2.08-15.48-6.96
			c-8.67-9.51-19.51-16.36-31.61-20.79c-10.69-3.92-15.85-0.52-20.08,10.12c-0.54,1.36-0.47,2.97-1.06,4.31
			c-2.28,5.21-4.52,10.46-7.16,15.49c-1.65,3.13-4.65,4.65-8.28,5.27c-6.59,1.12-12.02-1.44-17.3-4.76
			c-15.52-9.79-32.49-16.53-49.44-23.25c-8.95-3.55-15.19,2.21-13.37,11.66c0.6,3.12,1.24,6.24,1.63,9.39
			c0.84,6.89,0.47,7.4-6.16,8.02c-5.7,0.53-11.41,0.91-17.13,1.21c-14.83,0.79-10.75,2.23-22.42-8.06
			c-4.11-3.63-8.34-7.34-13.08-9.99c-7.58-4.24-13.91-2.06-18.26,5.46c-1.7,2.93-3.13,6.01-4.69,9.03
			c-2.53,4.92-6.62,7.89-12.05,8.26c-9.92,0.67-19.87,1.01-29.81,1.27c-5.19,0.14-9.55-1.57-12.06-6.66
			c-0.62-1.27-1.81-2.47-3.04-3.19c-7.74-4.5-15.76-8.34-24.9-8.9c-5.74-0.35-9.17,2-11.06,7.5c-0.55,1.6-1.04,3.25-1.3,4.92
			c-1.09,6.99-4.5,12.22-11.03,15.27c-1.53,0.71-2.94,1.67-4.4,2.52c-1.24,1.74-1.25,3.46,0.04,5.18
			c5.64,6.69,13.29,9.77,21.55,11.22c12.74,2.23,25.54,4.21,38.36,5.85c15.54,1.98,31.11,3.85,46.72,5.14
			c22.38,1.85,44.83,2.95,67.22,4.72c17.54,1.38,35.01,4.08,52.56,4.78c30.46,1.23,60.97,1.91,91.46,1.82
			c32.87-0.1,65.73-1.38,98.6-2.09c17.16-0.37,34.33-0.64,51.5-0.88c37.73-0.53,75.47-0.78,113.19-1.61
			c26.07-0.58,52.1-1.33,77.11-10.78c9.18-3.47,19.41-4.27,29.23-5.88c19.99-3.28,38.87-10.39,58.13-16.22
			c28.91-8.74,56.73-20.02,83.18-34.6c12.26-6.75,24.46-13.53,38.34-16.49c1.01-0.22,2.01-0.66,2.92-1.18
			c11.11-6.4,21.89-2.2,28.38,5.6c8.13,9.76,16.12,19.65,23.8,29.76c5.9,7.76,5.29,17.98-1.56,23.53
			c-8.01,6.49-10.61,15.61-13.26,24.72c-1.38,4.73,1.38,8.9,6.23,9.13c10.08,0.49,19.96-0.81,28.09-7.62
			c4.38-3.67,8.41-7.76,12.49-11.76c6.25-6.13,13.79-8.48,22.09-6.25c6.26,1.68,12.43,4.2,18.17,7.25
			c8.46,4.49,16.86,8.73,26.53,9.93c2.67,0.33,5.48,1.21,7.77,2.59c4.49,2.72,8.82,5.78,12.93,9.06c6.1,4.86,12.48,9.1,20.63,8.33
			c5.01-0.47,9.89-2.13,14.87-3.03c2.43-0.44,3.76-1.62,4.11-4.01c0.83-5.75,1.19-11.37-2.94-16.26
			c-4.23-5.01-8.43-10.04-12.47-15.2c-0.79-1.01-1.46-2.97-1-3.88c0.48-0.94,2.53-1.78,3.68-1.56c3.07,0.59,6.24,1.37,8.98,2.82
			c5.23,2.78,10.1,6.21,15.27,9.11c5.55,3.12,9.78,2.5,14.53-1.66c0.96-0.84,1.77-1.91,2.84-2.53c2.36-1.38,4.99,0,4.94,2.72
			c-0.03,1.62-0.65,3.34-1.39,4.82c-1.33,2.64-3.17,5.03-4.39,7.72c-1.01,2.24-2.36,5.43,1.06,6.5c7.14,2.23,14.39,3.42,21.38-1.05
			c4.27-2.73,8.7-5.28,13.27-7.46c8.28-3.94,14.47-2.39,20.04,4.91c1.91,2.5,3.32,5.39,4.79,8.2c1.57,3,2.85,6.15,4.41,9.16
			c2.86,5.51,4.07,6.13,9.24,2.41c5.79-4.17,11.17-8.98,16.35-13.91c4.07-3.88,8.15-7.13,13.92-8.25
			c7.07-1.36,13.42,0.52,19.58,3.36c7.12,3.28,13.97,7.13,21.07,10.45c4.59,2.14,9.34,4.03,14.17,5.52
			c4.57,1.41,8.38,0.26,9.41-2.93c2.6-8.09,5.07-16.45,0.36-24.58c-4.88-8.42-10.21-16.58-15.35-24.85
			c-6.15-9.9-14.33-17.74-24.25-23.8c-1.63-0.99-3.22-2.05-4.79-3.14c-6.37-4.41-9.44-10.34-9.66-18.25
			c-0.34-12.35,3.88-23.35,9.38-33.9c5.59-10.73,11.18-21.34,13.74-33.32c1.14-5.35,3.34-5.74,8.2-3.03
			c4.37,2.44,8.89,5.1,13.68,6.21c13.54,3.13,26.9,1.71,39.79-3.61c2.15-0.89,4.3-1.82,6.54-2.43c3.62-1,6.04,1.06,8.16,3.64
			c2.21,2.67,1.18,5.2-0.45,7.57c-1.19,1.74-2.63,3.32-4.04,4.89c-4.1,4.57-8.34,9.02-12.31,13.7c-1.47,1.72-2.89,3.81-3.41,5.96
			c-1.84,7.64,0.46,14.16,6.49,19.17c6.67,5.55,13.64,10.75,20.22,16.4c3.48,2.98,3.19,4.3-0.85,6.55
			c-3.14,1.75-6.47,3.14-9.76,4.61c-6.18,2.78-11.08,7-14.56,12.82c-7.11,11.94-8.54,25.1-7.88,38.6c0.21,4.32,2.44,6.02,6.8,5.56
			c2.18-0.23,4.51-1.14,6.3-2.42c3.26-2.33,6.19-5.12,9.21-7.78c7.2-6.32,15.34-7.69,24.26-4.48c15.58,5.6,29.95,12.96,39.37,27.43
			c1.27,1.94,2.81,3.71,4.26,5.53c3.41,4.28,6.03,5.25,10.93,3.77c4.8-1.46,9.38-3.27,9.51-9.47c0.11-5.28,2.96-8.88,7.49-10.9
			c7.33-3.27,14.76-6.37,22.31-9.07c11.67-4.17,23.16-3.49,34.58,1.59c4.97,2.21,10.42,3.49,15.76,4.72
			c4.82,1.11,5.3,0.12,4.59-4.77c-2.3-15.84-12.5-25.95-24.73-34.6c-9.11-6.45-19.25-9.55-30.42-7.75c-4.98,0.8-9.8,2.55-14.72,3.78
			c-6.58,1.65-10.16,0.24-14.01-5.41c-4.35-6.38-6.84-13.49-8.77-20.94c-4.62-17.82-8.81-35.69-9.74-54.16
			c-0.44-8.66-0.51-17.38-1.64-25.95c-1.68-12.8,0.86-24.55,8.16-34.93c8.17-11.62,12.18-24.51,13.99-38.33
			c2.02-15.48,3.7-31.01,6.19-46.42c1.82-11.24,5.32-22.21,6.92-33.47c1.15-8.07,2.95-15.72,6.39-23.04
			c3.51-7.47,6.95-14.98,10.56-22.41c4.61-9.48,6.99-19.41,7.07-29.99c0.09-11.39-3.51-22.09-5.62-33.07
			c-3.51-18.25-9.26-35.63-20.47-50.82c-0.9-1.22-1.18-2.89-1.74-4.36c1.62-0.24,3.29-0.86,4.85-0.66
			c5.23,0.66,10.4,1.88,15.64,2.41c17.09,1.72,32.33,7.86,45.77,18.56c10.93,8.7,22.14,17.07,32.85,26.03
			c14.25,11.93,27.2,24.68,29.92,44.69c1.38,10.19,5.55,19.96,4.15,30.6c-0.66,5.01-1.04,10.13-0.83,15.17
			c0.5,12.24,1.62,24.46,2.1,36.7c0.32,8.25-0.09,16.53-0.03,24.79c0.03,3.62-0.3,7.41,2.19,10.64
			c11.54-9.37,13.31-10.92,15.49-24.58c3.56-22.28,6.58-44.67,8.89-67.12c2.03-19.74,2.3-39.67,4.31-59.41
			c1.04-10.21,3.64-20.37,6.55-30.25c2.75-9.34,8.92-16.7,18.48-19.58c8.02-2.41,16.44-3.78,24.79-4.7
			c3.76-0.41,7.92,0.96,11.62,2.28c5.96,2.13,11.59,5.24,17.56,7.32c9.66,3.36,16.82,9.54,22.27,17.98
			c4.37,6.76,8.79,13.5,13.12,20.29c4.01,6.28,9.91,10.39,16.18,14.01c2.05,1.18,4.56,1.43,4.48-1.87
			c-0.19-7.38,0.59-15.19-1.56-22.02c-6.01-19.02-10.34-38.36-13.85-57.93c-6.33-35.33-12.72-70.65-18.64-106.05
			c-2.15-12.89-3.04-25.99-4.49-38.99c-0.49-4.44,0.96-8.41,3.35-12.01c4.97-7.5,11.19-13.78,18.65-18.85
			c4.11-2.8,8.49-3.35,12.46-0.36c4.88,3.67,10.1,7.32,13.79,12.06c11.17,14.37,21.65,29.28,32.43,43.95
			c1.12,1.53,2.37,2.99,3.73,4.31c1.67,1.62,3.01,1.48,4.57-0.61C1320.9,666.92,1322.07,658.67,1320.5,649.68z M528.03,1203.11
			c-5.77-0.46-12.92-5.44-13.21-9.19c-0.22-2.83,7.68-11.78,11.47-12.42c1.22-0.21,3.52,0.9,3.95,1.97
			c1.8,4.43,3.08,9.06,4.15,12.38C534.31,1201.41,532.13,1203.44,528.03,1203.11z M677.85,1250.3c-3.27,3.76-6.23,8.02-11.23,9.42
			c-2.41-5.47-4.63-10.91-7.19-16.18c-1.4-2.88-1.44-5.48,1.09-7.32c1.2-0.87,3.93-1.29,4.91-0.54c4.33,3.32,8.37,7.04,12.27,10.86
			C678.39,1247.22,678.48,1249.58,677.85,1250.3z M708.94,1195.21c-0.22,3.81-1.75,5-4.69,2.72c-9.99-7.75-21.51-5.51-32.5-5.15
			c-14.88,0.48-29.61-0.23-44.19-2.96c-10.42-1.95-20.15-1.11-29.41,4.22c-1.82,1.04-3.81,1.82-5.8,2.5
			c-4.86,1.67-7.55,0.35-7.69-4.73c-0.17-6.06,0.09-12.28,1.31-18.19c1.89-9.08,4.73-17.97,7.22-26.93
			c2.24-8.03,2.27-8.02,13.62-7.12c12.15,1.86,27.03-0.31,41.98-1.2c12.26-0.73,24.59-0.54,36.89-0.51c4.98,0.01,6.41,1.38,6.62,6.5
			c0.36,8.81,3.58,16.36,8.7,23.38C706.94,1175.87,709.53,1185.12,708.94,1195.21z M801.03,712.96c-0.06,4.41-1.9,7.41-6.49,8.94
			c-6.26,2.09-10.3,7.23-14.47,12.03c-0.83,0.96-1.36,2.22-2.32,3c-1.01,0.82-2.36,1.22-3.56,1.8c-0.33-1.16-1.01-2.34-0.92-3.46
			c0.31-3.98,1.1-7.93,1.3-11.91c0.72-14.46,1.25-28.92,1.89-43.38c0.08-1.79-0.07-3.87,0.76-5.31c4.15-7.24,9.92-13.09,16.51-18.19
			c2.74-2.12,4.45-0.86,5.33,1.64c0.89,2.56,1.37,5.33,1.57,8.05l0.43,23.4C801.06,697.36,801.13,705.16,801.03,712.96z"/>
	</g>
</g>
<path class="st0" d="M711.89,1132.53c1.11-2.28,2.15-4.6,3.34-6.85c5.65-10.63,5.8-21.53,1.43-32.54
	c-4.63-11.65-8.74-23.42-10.23-35.95c-0.12-1.03-0.3-2.21-0.87-3.01c-0.8-1.11-1.95-2.61-3.04-2.68c-1.1-0.08-2.9,1.14-3.33,2.21
	c-0.92,2.29-1.43,4.84-1.61,7.32c-0.87,12.2,0.88,24.03,4.77,35.67c1.38,4.12,1.69,8.71,1.79,13.1c0.13,5.4-2.5,8.69-7.67,10.35
	c-2.39,0.77-4.96,1.36-7.45,1.35c-17.23-0.06-34.06,3.27-51.04,5.48c-9.19,1.19-18.62,0.92-27.93,0.74
	c-5.23-0.1-7.08-2.77-6.79-7.91c0.08-1.47,0.31-2.97,0.74-4.37c7.62-24.68,4.08-48.49-5.23-71.97c-2.41-6.08-4.12-12.44-6.03-18.72
	c-0.48-1.59-0.68-3.34-0.64-5.01c0.1-4.07,2.06-5.21,5.82-3.41c2.1,1,4,2.44,6.14,3.34c5.95,2.49,9.89,0.1,9.56-6.24
	c-0.18-3.42-1.01-7.38-2.98-10.04c-6.91-9.36-14.39-18.3-21.76-27.32c-3.08-3.77-6.55-7.23-9.61-11.01
	c-2.77-3.41-6.53-5.13-10.53-5.14c-8.24-0.02-16.47,0.69-24.71,1.17c-0.81,0.05-1.77,0.31-2.37,0.81c-1.06,0.89-2.25,1.93-2.64,3.14
	c-0.17,0.51,1.42,2.12,2.44,2.39c3.86,1.02,7.79,2.26,11.72,2.38c8.19,0.26,14.76,3.26,19.83,9.66c0.39,0.5,0.76,1.03,1.2,1.48
	c7.9,8.06,11.44,16.25,6.88,28.3c-4.41,11.65-2.23,24.24,3.13,35.85c7.36,15.93,9.91,32.79,9.05,50.17
	c-0.5,10.1-5.64,18.53-11.21,26.6c-14.02,20.3-33.72,33.04-56.32,41.77c-7.2,2.78-13.87,6.12-19.37,11.77
	c-10.86,11.18-11.87,19.88-3.26,32.68c-4.75,7.09-9.07,14.6-17.9,17.56c-2.18,0.73-4.26,2.12-6.48,0.18
	c-6.9-7.91-13.67-15.95-20.75-23.71c-7.62-8.35-16.49-14.92-27.67-17.81c-2.21-3.5-4.17-7.14-6.62-10.5
	c-3.75-5.14-0.16-10.28,0.36-15.41c10.62,4.34,21.65,5.28,32.91,3.77c10.42-1.4,17.84-7.87,23.73-15.79
	c7.33-9.84,10.3-21.07,8.35-33.54c-0.77-4.92-3.41-8.22-6.89-10.96c-4.85-3.83-8.08-8.53-9.97-14.36c-0.41-1.26-2.14-3.06-3.07-2.95
	c-1.28,0.15-2.86,1.66-3.45,2.97c-2.27,5.01-1.49,9.97,1.29,14.58c1.75,2.9,3.77,5.64,5.65,8.47c2.85,4.29,3.61,8.82,2.06,13.85
	c-4.95,16-22.5,27.87-42.09,21.71c-3.83-1.2-7.72-2.24-11.6-3.26c-8.56-2.25-16.83-0.33-24.97,2.11c-4.98,1.5-7.55,5.17-7.78,10.44
	c-0.33,7.56,1.67,13.67,9.06,17.39c2.25,1.13,4.23,3.61,5.39,5.94c2.36,4.72,0.57,7.95-4.31,9.92c-6.27,2.54-12.52,5.16-18.57,8.17
	c-45.46,22.62-91.72,43.11-141.73,53.6c-15.55,3.26-31.28,5.67-46.89,8.65c-11.22,2.14-22.38,4.59-33.58,6.88
	c-1.03,0.21-2.11,0.28-3.16,0.33c-27.96,1.35-55.92,2.7-83.88,4c-3.38,0.16-6.78-0.01-10.17-0.03c-1.54-1.72-2.54-3.85-4.45-5.3
	c-1.78-1.35-3.15-3.59-2.59-5.48c1.37-4.65-0.17-9.48,0.5-13.55c1.13-6.84,0.06-13.46,0.58-20.14c0.39-5.04,2.71-8.23,7.22-10.09
	c8.05-1.68,16.09-3.44,24.15-5.03c18.89-3.74,37.74-7.73,56.73-10.92c6.53-1.1,12.69-2.84,18.91-4.89
	c4.15-1.37,8.72-1.68,13.14-1.96c24.47-1.56,46.63-10.43,68.11-21.4c7.93-4.05,15.62-8.57,23.35-13.01
	c23.23-13.35,39.96-32.94,54.65-55.01c12.07-18.14,19.73-37.84,25.6-58.5c7.58-26.66,17.98-52.11,33.1-75.43
	c10.85-16.72,21.56-33.57,33.21-49.72c6.26-8.68,14.39-16.03,21.68-23.96c0.43-0.47,0.92-0.89,1.43-1.26
	c5.01-3.71,7.57-2.7,8.18,3.68c0.79,8.21,0.91,16.49,1.73,24.7c0.99,9.88,1.95,19.8,3.87,29.52c1,5.06,3.76,9.87,6.31,14.46
	c0.93,1.67,3.61,3.41,5.4,3.32c2.59-0.13,2.99-2.94,3.2-5.45c1.19-14.54,2.41-29.08,3.82-43.6c1.02-10.51,2.43-20.99,3.5-31.5
	c0.27-2.67-0.27-5.41-0.17-8.1c0.55-14.72,6.9-27.9,11.58-41.45c3.15-9.12,10.86-15.23,18.36-20.7
	c16.11-11.74,32.44-23.23,49.19-34.02c14.79-9.52,31.68-12.72,49.1-13.46c8.87-0.38,17.73-1.04,26.59-1.68
	c3.54-0.25,8.29,2.81,10.24,6.89c2.18,4.55,1.84,7.76-1.2,11c-0.87,0.93-1.77,1.83-2.7,2.71c-13.7,13.05-15.65,32.35-5.08,48.19
	c2.22,3.33,4.23,6.96,5.49,10.73c4.12,12.29,6.59,24.94,7.09,37.94c0.29,7.7-1.99,14.65-6.08,21.03c-2.75,4.28-5.45,8.65-8.66,12.58
	c-9.35,11.43-10.88,37.45,3.63,49.51c4.23,3.52,7.99,7.61,11.9,11.5c8.14,8.1,17.72,9.18,28.22,5.9c2.22-0.69,4.43-1.44,6.65-2.16
	c2.15-0.96,4.15-0.27,6.11,0.59c7.38,3.21,13.56,0.86,19.33-3.96c6.33-5.29,10.61-11.77,13.76-19.47
	c3.52-8.59,9.58-15.92,13.85-24.23c3.81-7.42,7.15-15.01,9.01-23.03c2.27-9.76,5.38-19,9.55-28.16
	c4.59-10.08,12.95-14.54,22.19-17.47c6.29-1.99,3.03,3.85,3.41,6.51c-1.6,18.66-5.96,36.76-11.17,54.67
	c-5.93,20.39-9.83,41.14-12.21,62.25c-2.31,20.48-3.19,40.99-2.04,61.55c0.41,7.37,1.52,14.74,2.87,22
	c2.38,12.76,10.67,21.88,19.7,30.43c1.69,1.6,3.51,3.12,4.95,4.94c3.32,4.18,4.88,8.8,3.32,14.24
	c-4.15,14.49-8.46,28.88-16.53,41.85c-5.25,8.44-7.4,17.95-8.56,27.72c-0.44,0.44-0.93,0.8-1.49,1.07
	c-1.43,0.47-3.01,0.69-4.29,0.06c-8.12-4.01-16.89-1.27-25.25-2.56c1.82-10.23,0.03-19.89-4.63-29.09
	c-0.47-1.68-0.25-3.32,0.16-4.98c2.03-8.14,1.45-15.85-3.81-22.77C712.8,1136.64,712.35,1134.58,711.89,1132.53z"/>
<path class="st0" d="M756.39,630.58c-0.61-17.08-1.31-33.17,6.68-48.09c0.51-0.95,0.25-2.3,0.35-3.46
	c-1.16,0.18-2.45,0.08-3.46,0.57c-10.41,5.05-17.44,13.91-24.83,22.33c-8.97,10.23-15.26,21.86-17.7,35.32
	c-0.67,3.69-0.97,7.69-0.3,11.34c2.01,10.86,5.13,21.4,12.35,30.19c1.34,1.64,2.64,3.32,3.89,5.03c3.02,4.15,4.22,8.73,2.73,13.74
	c-2.03,6.85-3.25,14.02-7.86,19.89c-1.15,1.47-1.9,3.33-2.52,5.12c-3.78,10.92-10.95,19.89-16.98,29.51
	c-0.59,0.94-1.84,1.74-2.94,2.06c-7.28,2.11-14.61,4.08-21.92,6.08c-0.58,0.16-1.54,0.42-1.75,0.16c-2.99-3.68-6.68-7.1-8.49-11.32
	c-1.15-2.68-0.03-6.77,1.06-9.89c3.19-9.16,6.78-18.19,10.42-27.18c1.02-2.52,2.41-5.04,4.18-7.09c6.42-7.44,8.77-16.3,9.46-25.77
	c0.31-4.23,0.25-8.48,0.4-12.72c0.23-6.33-1.24-12.25-4.65-17.57c-3.95-6.18-4.35-12.91-2.67-19.62c2.32-9.23,5.37-18.29,8.07-27.43
	c1.48-5,4.66-8.43,9.33-10.65c7.4-3.52,13.31-8.94,19.04-14.68c8.25-8.27,9.85-19.1,11.27-29.74c1.27-9.53,5.07-17.27,11.76-24
	c7.47-7.52,14.65-15.33,21.88-23.08c4.44-4.76,7.11-10.15,7.71-16.95c1.08-12.32,6.07-14.88,16.81-8.85
	c9.16,5.14,18.69,6.28,28.85,4.61c9.17-1.51,18.37-2.85,27.58-4.16c1.43-0.2,3.09-0.27,4.38,0.25c13.46,5.4,25.04,12.7,27.96,28.48
	c1.11,6.03,2.02,12.1,3.44,18.06c2.06,8.63,3.96,17.36,6.89,25.71c6.99,19.93,11.48,40.31,12.57,61.38
	c1.05,20.09,1.41,40.21,2.69,60.28c1.09,17.07,2.26,34.21,4.96,51.08c1.47,9.2,2.27,18.42,3.51,27.61
	c0.54,3.98,0.57,8.13,1.76,11.91c3.57,11.38,3.7,22.79,2.17,34.52c-1.72,13.2-2.81,26.49-3.89,39.77
	c-0.62,7.59-0.87,15.22-0.92,22.83c-0.11,15.69,7.87,26.82,20.49,35.14c1.04,0.69,2.3,1.12,3.53,1.42c2.97,0.73,6.13,1.14,8.05-1.87
	c1.8-2.82,0.13-5.25-1.76-7.42c-1.67-1.92-3.19-3.98-5.02-5.72c-6.69-6.36-11.01-13.97-12.31-23.13
	c-1.52-10.71-2.56-21.45-0.44-32.23c0.12-0.62,0.22-1.26,0.37-1.87c1.85-7.6,4.82-9.13,11.88-5.51c5.56,2.85,10.11,6.98,13.02,12.68
	c8.74,17.08,15.46,34.91,18.92,53.81c2.77,15.15-0.59,29.14-8.05,42.69c-5.48,9.95-10.02,20.59-13.5,31.4
	c-2.15,6.67-1.26,14.26-2.18,21.38c-3.37,26.01-6.82,52.01-10.45,77.98c-2.14,15.28-10.27,27.19-22.03,36.75
	c-9.79,7.96-20.8,13.88-32.6,18.29c-1.59,0.6-3.55,0.22-5.33,0.29c0.14-1.76-0.14-3.69,0.5-5.26c1.11-2.73,2.73-5.26,4.21-7.83
	c8.17-14.19,12.54-29.6,14.59-45.72c1.77-13.84,3.55-27.69,4.86-41.58c2-21.16-0.79-41.4-11.99-60.04
	c-4.82-8.02-7.92-16.78-9.82-26.06c-2.17-10.57-5.51-20.89-7.7-31.46c-1.67-8.05-2.58-16.28-3.42-24.47
	c-1.15-11.15-2.15-22.32-2.78-33.5c-0.43-7.57-0.15-15.18-0.15-22.78c0-11.23,0.1-22.45,0.02-33.68c-0.03-4.22-0.4-8.45-0.69-12.66
	c-1.35-19.63-1.87-39.36-4.35-58.85c-2.05-16.11-6.62-31.88-9.75-47.86c-3.49-17.82-11.39-33.6-21.42-48.51
	c-4.52-6.72-10.48-10.04-18.66-9.97c-17.79,0.16-33.98,4.74-47.34,16.93C764.16,620.72,760.83,625.43,756.39,630.58z"/>
<path class="st1" d="M1067.22,410.38c-8.99-25.61-19.53-50.54-31.93-75.26c1.22,0.75,2.68,1.27,3.62,2.28
	c32.49,34.96,62.92,71.58,89.96,110.97c17.53,25.55,33.82,51.86,47.84,79.47c14.04,27.65,25.36,56.38,30.38,87.22
	c4.38,26.88,8.29,53.84,12.97,80.67c4.97,28.53,10.63,56.95,15.93,85.43c1.97,10.59,3.76,21.22,5.58,31.84
	c0.21,1.24-0.15,2.59,0.11,3.81c0.72,3.43-1.63,5.31-3.91,6.52c-0.99,0.52-3.36-0.93-4.78-1.93c-12.03-8.48-24.76-15.57-39.07-19.37
	c-13.92-3.7-27.92-4.64-41.99-0.64c-11.72,3.33-20.27,10-24.61,21.83c-2.62,7.14-6.04,13.99-9.28,20.89
	c-0.5,1.07-1.94,1.71-2.94,2.55c-0.18-1.19-0.63-2.41-0.49-3.56c1.25-10.7,2.77-21.36,3.87-32.07c1.05-10.29,1.99-20.62,2.45-30.95
	c0.59-13.12,1.31-26.29,0.79-39.38c-1.17-29.79-2.31-59.61-4.84-89.31c-4.32-50.59-12.26-100.67-23.69-150.17
	c-2.38-10.29-4.64-20.61-6.96-30.92c0.25-0.16,0.49-0.32,0.74-0.49c2.37-0.44,5.36,0.09,6.11-3.18c0.73-3.15-1.69-4.94-3.51-6.9
	c-3.48-3.74-2.6,0.3-3.13,1.8c-0.4,1.16-0.7,2.43-2.36,2.26c-3.99-13.1-7.98-26.21-11.97-39.31
	C1076.34,417.73,1072.66,413.75,1067.22,410.38z"/>
<path class="st1" d="M569.93,306.48c-0.94,1.78-1.8,3.61-2.82,5.35c-16.87,28.56-30.24,58.74-41.45,89.9
	c-18.02,50.1-31.62,101.44-41.34,153.75c-4.82,25.96-8.74,52.11-12.27,78.28c-3.39,25.11-6.66,50.31-8.32,75.57
	c-1.62,24.71-1.17,49.55-1.58,74.34c-0.1,6.21-0.02,12.43-1.24,18.91c-0.52-0.79-1.23-1.52-1.52-2.39
	c-2.43-7.23-5.34-14.35-7.04-21.75c-3.25-14.14-12.75-21.47-25.78-25.25c-16.73-4.85-33.32-2.9-49.19,3.17
	c-9.81,3.75-18.84,9.54-28.28,14.3c-1.55,0.78-3.41,0.94-5.13,1.39c-0.4-1.94-1.49-4.03-1.1-5.8c4.46-20.45,8.6-41,13.87-61.25
	c9-34.61,17.62-69.26,25.17-104.24c5.91-27.38,11.58-55.03,23.89-80.78c14.7-30.73,32.27-59.61,52-87.29
	c21.55-30.23,45.14-58.82,70.27-86.11c12.51-13.57,25.83-26.39,38.81-39.53c0.55-0.55,1.27-0.93,1.92-1.38
	C569.17,305.94,569.55,306.21,569.93,306.48z"/>
<path class="st2" d="M1045.31,383.47c20.4,49.35,34.19,100.66,44.14,152.98c5.49,28.86,9.74,57.99,13.51,87.13
	c2.95,22.83,5.19,45.83,6.16,68.82c1.25,29.43,1.69,58.95,0.98,88.39c-0.48,20.01-2.14,40.12-6.57,59.82
	c-1.44,6.39-2.13,12.93-3.39,19.37c-0.96,4.89-2.22,5.06-6.16,1.84c-18.05-14.74-35.98-29.63-54.34-43.97
	c-11.94-9.33-25.14-16.57-40.37-19.27c-11.74-2.08-23.49-2.52-35.38-1.28c-6.52,0.68-13.14,0.67-19.7,0.45
	c-5.87-0.19-7.86-2.48-7.95-8.43c-0.15-10.33-0.11-20.66-0.15-31c5.22-5.03,11.1-9.33,17.42-12.64
	c20.91-10.94,34.41-27.82,43.95-49.2c7.69-17.22,14.67-34.73,22.38-51.93c8.46-18.87,11.3-39.01,14.88-59.02
	c4.19-23.39,7.19-47,8.27-70.69c0.84-18.57,3.1-37.11,1.23-55.85c-1.32-13.24-1.25-26.69,0.35-40.01c1.08-8.96-1.16-17.72-1.53-26.6
	C1042.91,389.21,1041.17,385.57,1045.31,383.47z"/>
<path class="st2" d="M603.97,694.35c-7.66,25.35,2.28,46.67,16.18,67.43c-10.21-0.42-19.63-0.91-29.05-1.18
	c-15.45-0.44-29.5,4.05-42.97,11.51c-22.9,12.68-43.85,28.11-64.62,43.88c-1.94,1.47-4.32,2.35-6.5,3.5
	c-0.83-2.47-2.1-4.88-2.44-7.41c-3.23-24.03-2.95-48.24-2.03-72.32c1.45-37.78,5.62-75.37,10.79-112.85
	c5.98-43.39,13.73-86.45,24.46-128.91c5.39-21.31,11.97-42.32,18.02-63.46c3.75-6.78,6.39-13.94,7.59-21.62
	c6.36-16.15,12.72-32.29,19.08-48.44c0.77-0.39,1.4-0.23,1.89,0.46c2.05,4.7,1.44,9.62,0.82,14.41c-3.18,24.79-6.18,49.62-6.6,74.63
	c-0.21,12.47,1.44,24.93,2.35,37.38c0.88,12.03,1.65,24.06,3.16,36.06c0.87,6.96,2.35,13.78,3.63,20.62
	c2.26,12.08,3.41,24.31,5.65,36.39c6.67,35.92,17.18,70.36,37.82,101.01C603.05,688.18,604.27,691.01,603.97,694.35z"/>
<path class="st3" d="M1280.61,618.36c-8.31-4.63-16.27-10.11-25.01-13.69c-13.09-5.36-17.51-1.43-23.57,5.68
	c-3.02,3.54-5.97,7.15-9.09,10.6c-0.73,0.81-2.02,1.12-3.05,1.65c-0.4-0.91-0.98-1.78-1.16-2.73c-1.46-7.67-2.56-15.42-4.29-23.02
	c-6.72-29.54-18.91-57-32.9-83.65c-19.55-37.23-43.1-71.93-68.49-105.39c-19.08-25.14-39.25-49.38-61.02-72.26
	c-3.94-4.14-8.14-8.09-11.69-12.55c-2.14-2.69-3.64-6.05-4.77-9.34c-1.72-4.98-2.87-10.15-4.26-15.23
	c-0.53-1.37-0.45-2.56,1.01-3.33c5.33-0.21,9.05,3.43,13.07,5.92c23.82,14.75,48.29,28.39,72.17,43.03
	c13.07,8.01,24.24,18.61,34.93,29.51c19.97,20.35,36.86,43.31,53.94,66.04c18.02,23.99,32.7,49.95,44.65,77.57
	c13.21,30.51,22.89,62.06,30.29,94.39C1281.9,613.79,1283.58,616.41,1280.61,618.36z"/>
<path class="st3" d="M576.2,266.42c-1.97,6.22-3.62,12.58-6.05,18.62c-1.46,3.62-3.58,7.34-6.37,10
	c-31.28,29.88-60.71,61.46-87.56,95.36c-25.53,32.23-49.4,65.63-68.68,102.07c-13.4,25.32-24.68,51.47-29.64,79.95
	c-0.26,1.51-1.36,2.88-2.08,4.32c-1.25-0.97-2.72-1.76-3.72-2.95c-3.66-4.37-7.01-9.01-10.78-13.28c-3.47-3.93-7.96-4.64-13.19-4.02
	c-8.73,1.03-16.03,5.17-23.38,9.37c-5.69,3.24-11.31,6.59-16.96,9.9c-1.53-1.71-0.91-3.66-0.3-5.39
	c5.44-15.5,9.55-31.51,17.27-46.16c1.55-2.94,2.63-6.37,6.51-7.23c1.93,0.34,2.53,2.1,3.55,3.4c1.26,1.58,2.67,2.82,4.86,2.21
	c2.44-0.69,3.17-2.65,3.3-4.9c0.21-3.78,0.05-7.56,0.42-11.55c-3.08,0.95-4.31,4.35-7.54,3.89c-0.48-0.41-0.81-0.91-1.01-1.51
	c0.95-8.29,5.64-14.99,9.75-21.8c15.65-25.92,31.52-51.68,48.71-76.65c16.72-24.3,34.7-47.47,54.68-69.17
	c16.14-17.53,36.17-29.91,55.55-43.04c8.1-5.49,17.66-9.1,26.59-13.49c1.9-0.93,3.94-1.58,6.14-1.38c1.72,0.26,2.83,1.24,3.4,2.86
	c1.34,5.02,4.25,4.69,7.36,1.85c1.95-1.78,3.47-4.07,5.01-6.43c-2.24-0.31-4.33,0.93-6.37-0.1c-0.89-0.53-1.38-1.26-1.17-2.33
	c0.91-1.84,2.6-2.64,4.37-3.34c6.82-2.66,13.64-5.29,20.28-8.4C571.31,266.06,573.67,264.58,576.2,266.42z"/>
<path class="st0" d="M757.8,736.78c-1.2,8.08-4.75,15.3-8.5,22.39c-4.12,7.79-4.07,7.64,1.98,13.87c1.55,1.6,2.29,4.39,2.58,6.73
	c0.51,4.12,1.8,7.33,6.08,8.63c1.2,5.3,2.94,10.36,6.34,14.72c-6.25,7.44-11.74,15.28-13.07,25.26c-0.28,2.06-0.4,4.14-0.6,6.22
	c-3.16,5.29-5.63,10.78-5.16,17.16c-3.66,2.11-7.17,4.53-11,6.29c-17.22,7.89-27.59,21.49-32.36,39.37
	c-3.1,11.62-5.65,23.45-7.55,35.32c-2.23,13.88-8.65,25.29-18.99,34.27c-4.13,3.59-9.86,5.56-15.14,7.53
	c-3.92,1.46-8.22,0.68-11.2-2.57c-5.85-6.37-11.74-12.75-16.94-19.64c-3.15-4.18-3.76-9.51-1.3-14.51c2.24-4.54,4.85-8.9,7.29-13.33
	c2.49,2.32,2.53,5.43,2.78,8.47c-0.12,2.54-1.56,4.74-1.9,7.23c-0.44,3.22-0.54,6.56,3.09,8c3.48,1.38,6.01-0.39,7.79-3.41
	c0.73-1.25,1.2-2.68,2.54-3.49c4.41-0.51,8.83,0.27,13.23-0.28c2.39,0.07,3.55,2.02,5.12,3.36c4.72,4.04,8.31,3.15,10.66-2.59
	c1.14-2.78,0.95-5.81,1.67-8.67c0.88-6.77,0.13-13.56,0.32-20.33c0.25-9.03-5.84-14.07-11.43-19.54c-0.85-9.69,3.01-18.69,4.08-28.1
	c0.55-4.83,1.65-9.59,2.81-14.31c2.29-9.36,6.4-12.2,15.98-11.35c1.67,0.15,3.3,0.88,5.01,0.33c2.28-0.46,4.52-1.14,6.88-1.12
	c3.12,0.71,5.36-0.84,7.14-3.06c3.62-4.52,6.27-9.58,7.29-15.33c1.18-6.68-2.66-10.14-9.29-8.41c-4.33,1.13-8.13,3.56-12.19,5.36
	c-2.55,1.14-5.31,2.44-7.69,0.07c-2.74-2.74-0.68-5.47,0.65-8.09c2.57-5.04,6.51-9.32,8.54-14.88c-2.26-1.18-3.31,0.46-4.4,1.47
	c-9.05,8.41-15.49,18.51-18.66,30.46c-5.12,19.27-9.01,38.75-8.95,58.82c0.01,1.9-0.02,3.83-1.18,5.5
	c-1.07,1.01-2.37,0.83-3.65,0.72c-2.84-0.17-5.68-0.2-8.53-0.01c-1.55,0.1-3.18,0.78-4.5-0.66c-1.76-13.38-3.35-26.78-5.35-40.12
	c-1.05-7-4.1-13.27-8.61-18.82c-1.45-1.78-2.68-3.81-3.68-5.88c-3.66-7.6-5.09-13.5,2.92-21.87c0.88-0.92,1.53-2.08,2.51-2.86
	c10.77-8.57,10.01-25.8-0.39-35.1c-1.88-1.68-3.65-3.48-5.48-5.22c-0.9-4.3,0.73-7.45,5.1-7.72c5.98-0.37,8.19-3.35,8.01-8.9
	c-0.02-0.62,0.54-1.1,1.08-1.46c8.78,8.78,17.43,17.7,26.4,26.28c4.58,4.38,7.3,3.76,12.32-0.19c1.89-1.49,4.97-1.72,7.56-1.99
	c2.71-0.28,5.5,0.3,8.22,0.08c1.58-0.13,3.52-0.67,4.56-1.74c4.48-4.58,9.23-8.89,13.63-13.56c6.52-6.92,9.96-14.97,13.63-23.2
	c0.25-0.57,0.52-1.14,0.78-1.71c2.31,2.02,4.26,4.12,7.96,1.88c3.09-1.87,6.23-0.21,8.23,2.56
	C754.37,733.16,756.42,734.67,757.8,736.78z"/>
<path class="st4" d="M11.92,1271.48c-17.39,0.19-34.78,0.34-52.17,0.59c-11.03,0.16-22.05,0.7-33.08,0.64
	c-34.57-0.19-69.15-0.21-103.71-1.02c-29.03-0.68-58.05-2.16-87.05-3.74c-16.09-0.87-32.11-2.93-48.19-3.98
	c-16.7-1.09-33.44-1.48-50.14-2.43c-4.97-0.28-9.89-1.42-14.83-2.16c-0.01-0.67-0.03-1.34-0.04-2c3.74-0.67,7.45-1.67,11.21-1.97
	c17.14-1.34,34.28-2.77,51.44-3.62c26.3-1.3,52.61-2.2,78.93-3.18c30.53-1.14,61.08-1.8,91.59-3.41c19.04-1,38.06-2.91,56.99-5.23
	c26.29-3.22,52.48-7.2,78.71-10.85c0.83-0.12,1.68-0.13,2.52-0.19c-0.92,4.72,3.46,7.24,4.74,11.18c1.96,6.04,1.84,12,1.31,17.94
	c-0.57,6.47,0.88,9.23,7.5,10.84C9.32,1269.32,11.64,1268.74,11.92,1271.48z"/>
<path class="st3" d="M815.24,1065.64c-18.23-0.39-33.2-7.74-44.73-21.73c-5.51-6.68-10.23-14.02-15.41-20.97
	c-2.57-3.45-2.75-6.79-0.84-10.63c5.36-10.76,7.97-22.22,8.24-34.23c0.03-1.26,0.18-2.56,0.51-3.77c1.34-4.97,3.47-5.91,7.66-2.92
	c6.53,4.65,12.52,10.15,19.33,14.31c13.34,8.14,28.13,11.9,43.7,10.39c5.9-0.57,11.95-2.99,17.23-5.85
	c9.28-5.04,18.08-10.98,26.98-16.71c8.17-5.27,10.47-4.53,12.07,4.89c1.69,9.96,3.3,19.95,1.7,30.14
	c-0.99,6.32-3.81,11.78-8.03,16.28c-10.44,11.13-21.32,21.85-34.37,30.02C838.87,1061.38,827.81,1065.83,815.24,1065.64z"/>
<path class="st0" d="M1280.61,618.36c-1.22-5.91-2.46-11.82-3.66-17.73c-3.85-19.05-10.71-37.18-16.67-55.61
	c-5.1-15.75-13-30.18-19.39-45.31c-8.68-20.55-21.04-38.88-34.07-56.63c-15.23-20.76-31.28-41.03-48.27-60.37
	c-10.79-12.28-23.44-23.12-36.24-33.38c-8.48-6.8-18.69-11.45-28.14-17.04c-9.45-5.6-18.94-11.13-28.36-16.78
	c-11.04-6.61-22.02-13.32-33.03-19.98c-1.42-0.39-2.92-0.66-3.59-2.26c-1.65-3.21-3.4-6.36-4.9-9.64c-1.01-2.2,0.06-3.37,2.35-2.85
	c2.05,0.47,4.01,1.33,5.99,2.1c19.26,7.47,37.16,17.52,54.34,28.91c16.78,11.14,33.75,22.01,50.19,33.64
	c14.58,10.31,26.85,23.27,38.97,36.36c41.72,45.05,68.79,98.89,93.1,154.41c11.59,26.46,19.62,54.13,27.65,81.8
	c0.29,1.02,1.03,2.14,0.81,3.02c-0.43,1.69-1.04,3.67-2.28,4.68c-0.83,0.68-3.14,0.36-4.31-0.33
	C1287.49,623.25,1284.09,620.73,1280.61,618.36z"/>
<path class="st3" d="M826.54,1131.74c-6.85,0.74-12.43-1.78-17.74-5.73c-14.87-11.07-27.89-23.99-39.5-38.4
	c-7.96-9.89-10.85-21.32-10.6-33.74c0.02-1.11,0.54-2.92,1.21-3.13c0.93-0.29,2.43,0.4,3.34,1.11c4.65,3.65,8.88,7.91,13.81,11.11
	c22.98,14.92,46.77,16.46,70.53,2.27c10.3-6.15,19.66-13.87,29.42-20.91c1.37-0.99,2.48-2.41,3.95-3.16
	c2.26-1.16,4.74-1.92,7.12-2.84c0.73,2.53,2.48,5.27,2.01,7.57c-2.03,10.11-4.12,20.27-7.25,30.07
	c-5.09,15.97-14.2,29.77-25.83,41.73C848.76,1126.18,839.34,1132.98,826.54,1131.74z"/>
<path class="st3" d="M825.22,984.06c-13.52-0.26-24.87-6.24-35.49-13.86c-4.98-3.57-9.63-7.61-14.29-11.61
	c-3.76-3.23-5.55-7.04-4.08-12.35c2.82-10.18,5.11-20.5,7.72-30.74c0.41-1.6,1.15-3.2,2.09-4.56c1.5-2.17,3.58-3.02,6.01-1.35
	c2.08,1.43,4.17,2.88,6.11,4.5c11.52,9.63,24.6,12.4,38.56,7.22c8.86-3.28,17.35-7.83,25.53-12.63c8.8-5.17,10.09-5.06,12.38,5.18
	c1.93,8.65,3.44,17.4,5.16,26.11c0.37,1.87,0.74,3.74,1.26,5.57c2.58,9.09,2.28,10.56-5.61,15.87
	c-9.14,6.15-18.43,12.07-27.84,17.79C835.99,983.31,832.46,984.01,825.22,984.06z"/>
<path class="st5" d="M603.97,694.35c-2.19-3.58-4.5-7.09-6.54-10.75c-5.28-9.43-11.19-18.6-15.44-28.48
	c-4.67-10.83-7.92-22.28-11.49-33.55c-2.68-8.44-5.49-16.92-7.17-25.59c-2.48-12.82-3.91-25.84-5.99-38.74
	c-1.21-7.49-3.06-14.88-4.19-22.38c-1.32-8.76-2.42-17.58-3.17-26.41c-0.78-9.27-0.91-18.59-1.54-27.87
	c-0.53-7.79-1.58-15.54-2.01-23.34c-0.21-3.75,0.77-7.56,0.73-11.33c-0.18-15.07,2.27-29.91,3.74-44.84
	c1.2-12.18,1.89-24.4,2.81-36.6c-0.37-1.97,0.76-3.6,1.26-5.37c4.31-8.79,8.62-17.58,12.93-26.37c1.16-0.28,1.79-0.04,1.28,1.31
	c-1.91,7.37-4.11,14.68-5.65,22.13c-2.24,10.82-2.55,21.71-1.29,32.8c1.22,10.7,1.29,21.56,1.5,32.35
	c0.28,14.43-0.35,28.91,0.44,43.31c1.01,18.35,3.21,36.63,4.6,54.96c1.56,20.51,4.8,40.76,9.14,60.82
	c6.99,32.33,15.19,64.31,27.93,94.97c1.06,2.54,1.05,5.78,0.72,8.59C606.14,687.48,604.87,690.89,603.97,694.35z"/>
<path class="st5" d="M1045.31,383.47c-0.25,2.47-0.88,4.97-0.67,7.4c0.94,10.91,2.26,21.66,1.41,32.79
	c-1,13.23,0.5,26.64,0.56,39.98c0.03,7.79-0.66,15.59-0.99,23.39c-0.1,2.33-0.21,4.67-0.15,6.99c0.47,16.97-1.26,33.79-3.46,50.58
	c-2.11,16.1-3.86,32.27-6.61,48.26c-2.42,14.09-4.4,28.38-9.61,41.84c-2.96,7.66-6.89,14.99-9.37,22.78
	c-5.48,17.2-15.12,32.46-21.93,49.01c-4.05,9.84-10.5,17.87-17.89,25.13c-4.31,4.24-9.58,7.53-14.58,11.01
	c-5.89,4.1-11.9,8.03-17.99,11.84c-2.48,1.55-5.29,2.58-7.95,3.85c-3.1-12.21-2.6-14.88,8.8-18.18
	c16.93-4.89,26.4-16.76,33.63-31.47c19.07-38.77,33.07-79.3,41.47-121.69c3.65-18.44,7.23-36.93,9.83-55.54
	c2.22-15.88,3.1-31.96,4.4-47.96c1.27-15.57,2.29-31.17,3.48-46.75c0.84-10.95,2.01-21.89,2.61-32.85
	c0.67-12.17-1.8-23.99-5.09-35.64c-0.46-1.63-0.86-3.27-1.28-4.9c-0.47-1.34,0.14-1.6,1.31-1.31
	C1038.6,369.18,1041.96,376.32,1045.31,383.47z"/>
<path class="st0" d="M331.92,517.32c-1.38,1.53-3.26,2.85-4.05,4.64c-4.06,9.26-8.11,18.54-11.65,28
	c-3.16,8.46-5.65,17.18-8.43,25.78c-2.38,2.81-4.85,0.67-6.78-0.41c-0.75-0.42-0.55-3.43-0.05-5.04
	c14.15-45.5,33.65-88.65,57.69-129.76c14.12-24.16,28.89-47.91,46.99-69.38c19.04-22.58,39.37-44.02,64.28-60.09
	c22.76-14.69,46.41-28.03,70-41.38c11.72-6.63,24.25-11.78,37.91-15.66c-0.6,4.51-1.12,8.45-1.64,12.38
	c-10.45,4.27-20.9,8.54-31.34,12.81c-1.96,3.75-5.77,3.93-9.23,4.79c-7.61,3.63-15.09,7.56-22.86,10.82
	c-13.47,5.65-23.99,15.66-35.89,23.62c-3.84,2.57-7.45,5.48-11.18,8.22c-15.2,11.16-26.23,26.26-38.25,40.43
	c-13.7,16.15-26.13,33.21-37.35,51.21c-9.18,14.71-19.49,28.72-28.63,43.45c-8.47,13.65-16.07,27.84-24,41.83
	c-0.82,1.45-1.2,3.15-1.79,4.73c-0.81,1.85-0.28,3.96-1.07,5.82C334.18,515.58,333.6,516.92,331.92,517.32z"/>
<path class="st4" d="M515.51,1216.02c9.66,2.38,19.25,3.51,29.38,2.7c14.46-1.15,28.6,2.17,42.17,7.3c5.51,2.08,10.97,4.53,16,7.56
	c5.91,3.55,6.84,7.81,3.82,12.73c-3.83,6.24-9.86,8.47-15.24,5.3c-3.81-2.24-7.78-3.5-12.08-2.83c-1.68,0.26-3.93,1.35-4.53,2.69
	c-0.55,1.24,0.32,3.65,1.34,4.93c2.09,2.64,4.71,4.87,7.08,7.28c1.19,1.21,2.72,2.28,3.38,3.74c0.89,1.94,2.08,4.76,1.29,6.17
	c-0.77,1.4-3.9,2.23-5.91,2.08c-11.18-0.85-21.43-4.96-31.01-10.49c-8.27-4.78-16.85-7.44-26.44-7.74
	c-8.84-0.28-17.65-1.46-26.47-2.31c-1.67-0.16-3.33-0.56-4.96-0.99c-6.48-1.7-7.35-2.87-7.38-9.73c0-1.06,0.06-2.12,0.1-3.18
	c0.07-2.2,0.48-4.77,2.34-5.69c6.73-3.33,11.1-10.68,19.33-11.36c2.64-0.22,4.38-1.4,4.99-4.06
	C513.11,1218.41,514.03,1217.02,515.51,1216.02z"/>
<path class="st3" d="M782.91,888.97c1.83-13.01,3.19-24.51,5.15-35.92c1.38-8.09,4.4-9.76,11.99-6.64
	c16.45,6.76,32.47,6.07,48.42-1.52c5.87-2.8,7.58-1.87,8.66,4.32c1.99,11.41,3.93,22.84,5.82,34.27c0.74,4.46-0.54,6.39-4.51,8.61
	c-3.48,1.95-6.78,4.25-10.08,6.5c-8.23,5.61-16.55,10.89-26.61,12.84c-6.84,1.32-13.18,0-18.77-3.45
	c-5.9-3.64-11.35-8.11-16.56-12.71C784.43,893.54,783.67,890.42,782.91,888.97z"/>
<path class="st6" d="M891.1,1203.06c-3.76-3.79-7.53-7.59-11.29-11.38c-0.64-1.34-1.53-2.73-1.25-4.19
	c1.45-7.56-0.3-14.66-2.75-21.7c-0.43-1.22-0.19-2.51,0.15-3.74c6.26-6.5,8.92-14.19,7.91-23.21c-0.33-2.94-0.01-5.94-0.27-8.89
	c-0.38-4.24,1.88-5.95,5.56-7.17c7.21-2.4,14.33-5.07,21.41-7.85c5.34-2.09,6.79-1.57,7.68,4.13c0.97,6.25,2.01,12.54,2.21,18.84
	c0.64,19.55,4.1,38.61,8.98,57.47c-0.22,0.59-0.52,1.5-1.01,1.5c-7.67,0-14.48,5.57-22.49,3.37c-3.15-0.86-6.21-0.45-9.02,1.45
	C895.2,1202.84,893.38,1204.03,891.1,1203.06z"/>
<path class="st4" d="M752.48,1196.84c0.31-0.09,0.62-0.16,0.94-0.21c0.08,5.3,0.18,10.61,0.23,15.91
	c0.09,10.94,5.04,18.93,14.37,24.54c5.26,3.16,10.54,6.41,15.29,10.26c7.32,5.94,6.78,12.22-1.12,17.38
	c-1.91,1.25-4.14,2.4-6.35,2.71c-11.59,1.64-23.1,2.31-34.15-3.02c-5.92-2.86-11.9-2.49-17.63,0.93c-3.12,1.86-6.25,3.79-10.08,1.68
	c-4.97-2.74-9.12-6.33-10.95-11.83c-0.45-1.33,0.28-3.35,1.03-4.73c1.63-2.97,3.35-5.97,5.52-8.54
	c7.61-8.99,11.04-19.37,11.22-31.01c0.02-1.4,0.61-2.79,0.93-4.19c2.97,1.99,0.54,6.81,3.77,8.15c3.2,1.32,5.59-2.34,8.7-2.83
	c2.67-0.42,4.91,0.44,7.24,1.55c6.08,2.9,8.94,1,9.36-5.81C751.03,1204.1,749.73,1200.15,752.48,1196.84z"/>
<path class="st5" d="M773.08,876.98c-0.16-1.87-0.32-3.74-0.54-6.25c-8.17,3.47-17.14,5.84-21.2,13.53
	c-4.25,8.05-9.01,16.16-10.39,25.63c-1.68,11.57-6.64,21.95-11.86,32.42c-4.6,9.24-11.51,17.05-14.89,27.06
	c-2.84,8.39-9.54,14.31-17.29,18.52c-5.47,2.97-11.27,3.49-16.92-0.15c-1.21-0.78-2.75-1.05-4.14-1.55
	c23.26-12.01,32.79-32.81,37.13-57.2c2-11.2,4.57-22.35,7.77-33.27c1.63-5.57,4.96-10.71,7.99-15.77c2.43-4.05,6.26-6.55,10.69-8.59
	c6.12-2.82,11.74-6.7,17.68-9.91c2.95-1.59,6.08-2.98,9.28-3.95c3.78-1.15,7.19,0.71,7.44,4.55
	C774.16,866.99,773.38,872,773.08,876.98z"/>
<path class="st7" d="M11.92,1271.48c-0.76-0.31-1.65-1.05-2.27-0.86c-5.84,1.77-8.27-3.7-12.28-5.75c-0.34-0.17-0.22-1.68,0.01-2.48
	c1.06-3.6,1.35-7.09,1.31-10.97c-0.05-4.6-0.68-8.79-2.11-12.98c-0.43-1.25-1.25-2.63-2.3-3.34c-3.84-2.6-3.9-2.5-0.19-6.16
	c21.46-4.36,42.92-8.73,64.38-13.07c1.01-0.2,2.09-0.1,3.14-0.14c-0.92,1.12-1.68,2.44-2.78,3.34c-2.73,2.23-3.01,5.18-2.82,8.32
	c0.11,1.86,1.1,4.27,0.28,5.46c-1.82,2.63-1.41,3.35,1.52,3.73c0.35,0.05,0.5,1.61,0.75,2.47c-3.25,0.55-1.33,3.8-2.8,5.34
	c-2.03,2.12-2.14,3.45,1.06,5.13c2.75,1.44,0.81,4.06-0.54,5.98c-2.39,3.38-2.23,7.15,1.15,8.61c3.29,1.42,2.94,3.68,2.94,6.19
	c-9.02,0.16-18.03,0.27-27.05,0.48C26.18,1270.95,19.05,1271.24,11.92,1271.48z"/>
<path class="st8" d="M934.81,1211.82c2.09,5.06,4.22,10.1,6.27,15.17c4.72,11.64,13.59,16.77,25.87,16.63
	c0.85-0.01,1.7-0.02,2.54,0.01c2.34,0.08,5.43-0.02,5.55,2.84c0.08,1.8-1.74,4.35-3.43,5.43c-7.95,5.05-16.62,7.29-26.03,4.94
	c-6.44-1.61-12.63-2.74-19.19,0.32c-2.49,1.16-6.36,0.52-9.19-0.47c-7.57-2.66-14.86-6.1-22.38-8.94
	c-4.54-1.71-9.41-2.57-13.89-4.39c-3.63-1.48-7.31-3.37-10.23-5.92c-3.31-2.88-2.65-5.51,1.25-7.34c2.66-1.25,5.52-2.12,8.34-3
	c4.84-1.51,9.74-2.84,14.59-4.34c3.43-1.07,6.32-2.7,5.73-7.08c0.41-0.49,0.91-1.09,1.49-1.1c8.9-0.19,17.54-3.46,26.52-2.25
	C930.81,1212.64,932.78,1212.34,934.81,1211.82z"/>
<path class="st3" d="M822.57,840.15c-10.44-0.83-18.39-5.12-24.04-13.24c-2.07-2.97-2.47-6.22-1.54-10.14
	c1.83-7.76,2.44-15.81,3.97-23.65c1.01-5.14,2.36-10.3,4.3-15.14c1.52-3.79,3.56-3.94,6.02-0.61c6.2,8.41,14.55,12.8,24.75,13.4
	c4.99,0.29,10.06-0.48,15.08-0.89c6.06-0.49,8.83,1.83,8,7.9c-1.11,8.12-2.76,16.17-4.46,24.19c-1.13,5.36-4.56,8.89-9.79,10.72
	c-5.58,1.95-11.08,4.14-16.66,6.1C826.22,839.46,824.12,839.78,822.57,840.15z"/>
<path class="st8" d="M620.67,1200.3c10.78,0,21.56,0.12,32.34-0.04c6.33-0.1,12.66-0.85,18.99-0.93
	c13.75-0.19,24.5,5.42,32.18,16.98c1.99,3,2.72,5.64,0.4,8.64c-3.87,5.02-7.73,10.05-11.61,15.07c-2.05,2.66-3.99,2.45-6.22,0.02
	c-6.73-7.34-13.58-14.57-20.39-21.83c-0.87-0.93-1.65-1.98-2.66-2.72c-2.68-1.95-4.57-1.43-6.16,1.51
	c-6.81,12.52-9.64,13.24-21.36,5.36c-2.11-1.42-4.1-3.07-6.35-4.21c-3.57-1.82-7.38-2.4-10.66,0.56c-2.1,1.9-4.05,2.01-6.3,0.66
	c-3.27-1.96-6.57-3.88-9.77-5.95c-2.71-1.75-2.91-3.73-0.58-6.24C606.8,1202.54,614,1199.26,620.67,1200.3z"/>
<path class="st3" d="M857.2,757.92c0,1.43,0.02,3.12,0,4.82c-0.17,12.88-12.13,21.38-23.92,15.96c-7.76-3.56-14.81-8.93-21.59-14.24
	c-2-1.56-2.84-5.72-2.73-8.63c0.27-7.34,1.22-14.67,2.21-21.96c0.56-4.13,3.52-6.43,7.55-6.35c10.46,0.2,20.68-0.67,30.25-5.33
	c2.46-1.2,3.68,0.25,4.19,2.26c0.93,3.66,1.86,7.37,2.25,11.12C856.2,742.91,856.62,750.29,857.2,757.92z"/>
<path class="st4" d="M744.88,707.31c0.46-4.39,0.73-8.82,1.43-13.18c1.57-9.77-3.08-17.56-8.94-24.13
	c-7.75-8.68-9.94-18.34-8.22-29.24c2.25-14.3,9.89-25.73,20.54-36.38c-0.1,1.99,0.06,3.36-0.27,4.6
	c-4.34,16.34-1.3,31.79,5.57,46.77c0.69,1.51,1.7,2.93,2.79,4.2c5.47,6.34,7.89,13.96,8.64,22.03c1.13,12.03-0.03,23.94-3.55,35.56
	c-2.49-3.75-5.11-6.6-10.51-5.59C749.29,712.52,746.47,710.34,744.88,707.31z"/>
<path class="st9" d="M687.07,527.92c0.31-4.12,0.22-8.41,1.04-12.52c1.26-6.34,3.53-6.73,8.46-2.66
	c6.65,5.5,13.62,10.62,20.47,15.87c0.83,0.64,1.81,1.1,2.74,1.59c8.42,4.4,9.18,5.65,8.32,14.86c-1.06,11.29-4.42,21.53-13.61,29.02
	c-0.66,0.53-1.25,1.14-1.92,1.66c-8.58,6.64-13.5,5.76-17.46-4.33c-2.82-7.2-4.51-14.93-5.92-22.57
	C687.92,542.01,687.74,534.99,687.07,527.92z"/>
<path class="st9" d="M951.37,264.27c12.48-1.68,23.42,0.76,34.38,2.69c5.61,0.99,11.22,2.12,16.69,3.69
	c2.21,0.64,4.64,2.2,5.94,4.05c7.01,9.99,11.06,21.27,12.82,33.26c0.97,6.64,1.12,13.41,1.4,20.13c0.05,1.23-1.06,2.5-1.64,3.76
	c-1-0.71-2.14-1.29-2.97-2.16c-5.23-5.46-10.43-10.95-15.57-16.49c-5.46-5.89-10.54-12.18-16.34-17.7
	c-9.02-8.58-18.53-16.65-27.82-24.95C956.23,268.74,954.23,266.88,951.37,264.27z"/>
<path class="st9" d="M650.93,239.19c-12.85,11.66-25.49,21.88-36.61,33.56c-11.17,11.73-20.81,24.9-32.06,37.16
	c1.26-9.59,2.18-19.23,3.88-28.74c1.44-8.05,3.98-15.89,5.64-23.9c1.33-6.42,5.29-10.1,11.3-11.36c11.14-2.34,22.38-4.25,33.58-6.31
	c2.07-0.38,4.16-0.85,6.25-0.91C645.3,238.62,647.7,238.97,650.93,239.19z"/>
<path class="st4" d="M622.35,741.8c-7.71-13.75-11.14-28.07-6.73-43.77c2.22-7.91,4.54-15.96,5.24-24.09
	c1.17-13.59-1.91-26.82-6-39.76c-0.82-2.58-1.66-5.15-1.56-8.72c1.76,1.4,3.86,2.53,5.22,4.25c9.43,11.92,16.23,25.15,19.25,40.17
	c1.37,6.79-0.65,13.33-3.16,19.18c-5.98,13.93-3.14,26.37,4.22,38.57c-2.43,4.5-4.98,8.91-10.8,9.52
	C625.07,737.46,624.35,740.39,622.35,741.8z"/>
<path class="st9" d="M770.58,478.97c-0.86,2.21-1.55,5.67-3.37,8.39c-6.5,9.71-14.67,17.95-23.73,25.31
	c-0.49,0.4-1.04,0.73-1.59,1.03c-3.86,2.09-6.42,1.52-7.04-2.81c-0.97-6.81-1.88-13.98-0.79-20.67
	c2.33-14.35,9.09-27.16,16.65-39.47c0.71-1.16,2.01-1.96,3.03-2.93c0.87,1.1,2.03,2.08,2.55,3.32c1.12,2.71,1.51,5.79,2.93,8.3
	c1.52,2.69,3.68,5.12,5.93,7.27C768.41,469.82,770.07,473.49,770.58,478.97z"/>
<path class="st4" d="M642.09,934.2c-0.61-3.24-1.22-6.47-1.83-9.71c3.81-7,7.62-14,11.43-20.99c5.75-4.86,11.8-8.53,19.69-5.04
	c6.09,4.58,9.55,11.1,12.21,17.91c1.46,3.75,0.51,7.9-1.85,11.43c-0.62,0.58-1.32,1.15-2.15,1.21c-7.9,0.63-8.92,7.03-10.76,12.75
	c-4.68,2.09-9.34,2.21-13.99-0.12C651.63,937.37,648.17,933.54,642.09,934.2z"/>
<path class="st10" d="M828.95,715.11c-7.97-0.18-13.16-3.51-14.89-11.24c-1.32-5.9-1.22-12.15-1.33-18.26
	c-0.05-2.84,2.1-4.9,4.96-4.81c8.19,0.26,15.98-1.43,23.67-3.96c2.78-0.91,4.62,0.25,5.29,2.97c2.16,8.82,4.32,17.64,6.24,26.51
	c0.84,3.89-1.7,6.08-5.08,6.83c-4.93,1.1-9.96,1.69-14.95,2.51"/>
<path class="st9" d="M662.93,651.24c0.28-3.16,0.24-6.39,0.92-9.47c0.81-3.67,3.54-4.74,5.97-2.05c5.93,6.58,11.4,13.58,16.92,20.52
	c0.87,1.09,1.34,2.73,1.45,4.16c0.74,9.62-0.09,19.08-4.72,27.72c-1.07,1.99-3.68,4.34-5.59,4.34c-1.74,0-4-2.67-5.12-4.68
	C668.35,683.91,663.88,667.13,662.93,651.24z"/>
<path class="st11" d="M1110.18,966.98c-1.49-14.69-2.98-28.94-4.36-43.2c-0.59-6.09-1.19-12.2-1.28-18.31
	c-0.1-6.18-1.18-12.08-2.64-18.09c-1.73-7.13,1.64-13.23,6.64-18.23c2.3-2.3,4.17-1.79,4.84,1.54c1.04,5.15,1.76,10.4,2.07,15.65
	c0.64,10.86,1.72,21.77,1.16,32.59c-0.78,14.91-1.19,29.96-5.1,44.55C1111.2,964.63,1110.66,965.74,1110.18,966.98z"/>
<path class="st9" d="M818.54,469.31c-2.94-0.24-5.97-0.11-8.8-0.8c-5.23-1.27-6.49-4.56-3.38-8.9c1.82-2.54,4.07-4.93,6.57-6.78
	c8.49-6.26,17.08-12.39,25.82-18.29c4.99-3.37,6.86-2.35,6.52,3.62c-0.4,6.91-1.34,13.81-2.37,20.67c-0.58,3.87-3.29,6.47-6.99,7.43
	"/>
<path class="st6" d="M554.91,1201.65c-4.43-0.74-6.31-4.11-7.28-7.84c-0.89-3.43-1.2-7.05-1.43-10.6c-0.4-6.32,1.34-11.32,7.8-14.28
	c5.53-2.54,10.55-6.15,15.9-9.1c1.13-0.63,3.5-1.05,3.93-0.5c0.88,1.13,1.24,3.02,1.09,4.53c-1.02,10.02-2.22,20.03-3.37,30.04
	C566.8,1198.17,560.38,1198.9,554.91,1201.65z"/>
<path class="st9" d="M349.28,934.91c1.16-1.49,1.97-3.67,3.32-4.08c9.66-2.97,19.37-5.8,29.19-8.17c3.37-0.81,4.71,1.27,3.27,4.61
	c-1.32,3.09-3.04,6.07-4.99,8.81c-5.63,7.92-11.37,15.76-17.28,23.48c-2.5,3.27-4.69,3.13-6.02-0.6
	C354.02,951.22,351.85,943.28,349.28,934.91z"/>
<path class="st11" d="M456.69,912.64c0-5.58,0-11.16,0-16.74c0-16.54,0.06-33.09-0.05-49.63c-0.03-4-0.76-7.99-0.89-12
	c-0.21-6.57,1.56-9.36,5.7-9.57c4.19-0.21,8.77,3.86,9.22,8.84c0.35,3.77,0.41,7.7-0.25,11.4c-2.1,11.85-4.73,23.59-6.88,35.43
	c-1.56,8.6-2.64,17.29-4.03,25.93c-0.35,2.2-1.08,4.33-1.63,6.49C457.49,912.74,457.09,912.69,456.69,912.64z"/>
<path class="st9" d="M406.44,860.92c1.25-1.41,2.25-3.37,3.84-4.15c2.41-1.17,5.18-1.76,7.86-2.17c6.61-1.02,13.2-2.28,19.97-0.99
	c4.77,0.91,6.36,2.78,3.67,6.72c-4.49,6.56-9.91,12.47-14.98,18.63c-0.39,0.47-1.09,0.66-1.55,1.09c-9.56,8.83-9.15,5.71-13.47-3.48
	C409.56,871.84,408.35,866.64,406.44,860.92z"/>
<path class="st11" d="M922.35,674.81c0.33-2.41,0.47-5.18,1.11-7.83c1.03-4.26,3.53-5.14,6.99-2.49
	c6.37,4.88,12.66,9.86,18.95,14.85c3.19,2.53,3.55,3.85,0.5,6.62c-5.77,5.26-11.79,10.26-18,14.99c-3.18,2.42-4.97,1.7-6.05-2.13
	c-1.14-4.04-1.8-8.24-2.4-12.41C922.9,682.67,922.71,678.87,922.35,674.81z"/>
<path class="st12" d="M824.59,640.9c0.21-0.02,0.42-0.04,0.63-0.06c10.95-0.75,14.69,2.43,16.46,13.4c0.71,4.43-0.77,7.58-4.5,9.48
	c-4.11,2.1-8.45,3.78-12.75,5.47c-2.9,1.14-5.43,0.11-7.29-2.22c-4.29-5.4-6.92-11.51-7.52-18.44c-0.32-3.72,0.87-6.16,4.97-6.54
	c3.34-0.31,6.66-0.79,9.98-1.19C824.58,640.82,824.59,640.86,824.59,640.9z"/>
<path class="st13" d="M752.48,1196.84c0.01,4.66,0.2,9.33-0.06,13.97c-0.09,1.61-1.15,4.42-1.96,4.5c-2.79,0.24-4.77,4.34-8.51,1
	c-4.97-4.43-6.27-4.04-11.79-0.6c-6.12,3.82-7.94,2.82-8.28-4.57c-0.07-1.48-0.11-2.96-0.16-4.44c0.22-3.84,0.43-7.67,0.65-11.51
	c3-2.56,6.01-3.62,9.71-0.99c0.99,0.71,3.34,0.63,4.39-0.09c2.58-1.75,4.66-0.94,7.13,0.04
	C746.46,1195.31,749.51,1195.97,752.48,1196.84z"/>
<path class="st14" d="M934.81,1211.82c-0.47,2.78-1.61,4.44-4.71,2.83c-4.78-2.48-9.36-1.87-13.9,0.75
	c-1.06,0.61-3.01,1.48-3.45,1.07c-3.92-3.7-8.17,0.17-12.14-0.78c-3.17-4.21-6.34-8.42-9.51-12.63c0.58-0.27,1.26-0.41,1.71-0.81
	c4.82-4.33,10.16-5.69,16.33-3.15c0.91,0.38,2.32,0.47,3.13,0.02c5.37-2.99,11.27-3.35,17.17-3.77
	C931.23,1200.84,933.02,1206.33,934.81,1211.82z"/>
<path class="st15" d="M183.03,1157.07c0.03-5.05-0.99-9.65,3.16-11.99c3.76-2.12,7.29,0.55,10.64,2.27
	c6.56,3.37,13.06,6.87,19.64,10.22c2.12,1.08,2.31,2.35,0.68,3.84c-1.23,1.12-2.63,2.13-4.11,2.89c-7.43,3.84-15.43,5.63-23.7,6.37
	c-3.34,0.3-5.18-1.14-5.43-4.59C183.65,1162.71,183.25,1159.35,183.03,1157.07z"/>
<path class="st13" d="M622.35,741.8c0.01-2.82,0.37-6.24,3.73-6.07c5.29,0.26,7.37-3.51,10.33-6.39c0.7-0.68,1.62-1.15,2.44-1.71
	c3.58,5.03,7.16,10.05,10.75,15.08c0.27,1.21,0.65,2.4,0.79,3.62c0.49,4.02-2.22,7.63-5.86,7.93c-6.77,0.55-6.77,0.55-9.13,6.53
	C629.48,755.52,625.86,748.7,622.35,741.8z"/>
<path class="st11" d="M333.16,1023.06c-2.6,8.24-4.93,16.59-7.91,24.7c-1.71,4.66-3.46,4.84-6.55,0.79
	c-3.32-4.34-5.88-9.25-8.97-13.79c-2.24-3.29-1.85-6.12,1.46-8.01c5.28-3.02,10.64-6.02,16.26-8.29
	C331.25,1016.93,333.03,1018.85,333.16,1023.06z"/>
<path class="st16" d="M772.8,663.42c-3.16-3.98-5.72-7.03-8.03-10.25c-0.45-0.62-0.15-1.98,0.13-2.9
	c2.7-8.66,7.39-16.12,13.91-22.41c2.3-2.22,5.45-3.61,8.06-1.78c1.91,1.34,3.48,4.39,3.59,6.75c0.15,3.2-0.43,7.02-2.14,9.62
	C783.6,649.65,778.13,656.33,772.8,663.42z"/>
<path class="st17" d="M744.88,707.31c3.86,1.46,7.11,4.21,12.04,2.72c3.62-1.1,5.25,1.55,5.95,7.51
	c-1.69,6.41-3.38,12.83-5.08,19.25c-2.45-0.01-4.15-0.63-5.26-3.34c-1.86-4.59-4.89-5.17-8.99-2.36c-4.05,2.77-5.55,1.81-6.85-4.41
	C739.42,720.22,742.15,713.76,744.88,707.31z"/>
<path class="st13" d="M515.51,1216.02c-0.16,0.61-0.42,1.22-0.46,1.84c-0.41,5.98-2.97,9.35-9.55,8.1c-0.74-0.14-2,0.09-2.36,0.61
	c-4.42,6.4-13.54,7.3-17.08,14.68c-2.44-5.13-4.89-10.27-7.33-15.4c4.6-1.94,9.24-3.81,13.79-5.86c0.88-0.39,1.9-1.36,2.09-2.23
	c1.06-4.84,5.09-6.95,8.49-9.66C507.24,1210.74,511.37,1213.38,515.51,1216.02z"/>
<path class="st15" d="M270.52,1096.12c4.83,1.01,8.53,1.91,12.28,2.53c2.91,0.49,5.88,0.62,8.82,0.93c5.3,0.56,6.8,3.22,3.7,7.67
	c-2.64,3.79-5.97,7.12-9.2,10.46c-1.9,1.97-4.17,3.58-6.33,5.29c-2.1,1.66-4.21,1.55-5.01-1.15c-2.23-7.49-4.25-15.05-6.06-22.66
	C268.49,1098.25,270.06,1096.87,270.52,1096.12z"/>
<path class="st15" d="M110.16,1191.16c-5.62-0.7-6.74-1.8-5.72-7.09c0.83-4.32,1.81-8.68,3.36-12.78c1.58-4.19,3.17-4.84,6.68-2.51
	c5.23,3.47,10.27,7.33,14.92,11.54c2.73,2.46,2.25,4.5-1.09,5.65C122.36,1188.01,116.21,1189.46,110.16,1191.16z"/>
<path class="st18" d="M-58.81,1221.54c-6.82-0.54-7.22-0.62-8.34-7.37c-0.6-3.66-0.42-7.5-0.15-11.22c0.19-2.53,1.91-3.89,4.45-2.41
	c6.73,3.93,13.54,7.74,19.97,12.11c3.47,2.36,2.99,4.14-1.24,5.41C-48.92,1219.51-53.9,1220.4-58.81,1221.54z"/>
<path class="st19" d="M1312.03,659.79c-3.84-3.99-7.3-7.64-10.82-11.23c-3.22-3.28-4.37-10.57-2.21-14.52
	c1.76-3.21,6.22-4.33,9.24-2.04c1.45,1.1,2.76,2.67,3.56,4.31C1314,640.79,1314.04,654.07,1312.03,659.79z"/>
<path class="st20" d="M815.49,630.55c-7.54-0.56-13.01-3.66-17.08-9.35c-1.46-2.03-1.07-3.35,0.88-4.69
	c6.18-4.23,20.71-1.62,24.92,4.54c2.8,4.1,2.13,6.46-2.54,8.05C819.48,629.84,817.17,630.17,815.49,630.55z"/>
<path class="st21" d="M426.1,1183.56c-13.94,0.25-11.89,1.13-14.05-10.86c-0.65-3.6-2.66-6.11-6.13-7.38
	c-1.37-0.5-2.87-0.83-4.08-1.59c-3.23-2.03-3.3-5.13,0.06-6.88c4.94-2.58,10.2-3.81,15.66-1.34c1.02,4.89,2.75,9.87,0.34,14.69
	c-0.87,1.73,0.39,1.43,0.85,2.05C421.46,1175.84,424.01,1179.55,426.1,1183.56z"/>
<path class="st22" d="M24.74,1206.09c-11.53,0.31-11.1-1.47-6.75-11.23c3.81-8.55,5.61-8.94,12.7-3c2.57,2.15,4.89,4.63,7.1,7.16
	c1.85,2.11,1.17,4.21-1.37,4.89C32.61,1204.94,28.64,1205.39,24.74,1206.09z"/>
<path class="st22" d="M285.62,608.7c0.42-7.94,0.88-15.72,4.06-22.92c1.74-3.95,6.21-5.55,9.45-3.85c3.36,1.76,4.59,6.06,2.66,9.9
	C298.19,598.97,291.89,603.62,285.62,608.7z"/>
<path class="st23" d="M781.04,816.44c-1.04,4.29-1.82,8.66-3.18,12.85c-1.32,4.04-4.54,5.78-8.32,5.21
	c-4.04-0.6-5.73-3.15-4.59-7.15c1.77-6.24,4.96-11.68,10.01-15.81c1.31-1.08,3.45-2.25,4.83-1.9c2.54,0.64,1.37,3,0.98,4.81"/>
<path class="st22" d="M1258.31,854.71c-0.28,0.57-0.8,1.62-1.32,2.68c-0.99-0.56-2.13-0.97-2.95-1.71
	c-5.2-4.69-10.19-9.56-11.99-16.69c-1.33-5.27,0.37-8.48,4.82-9.13c2.89-0.42,5.21,0.65,6.05,3.42c1.89,6.25,3.49,12.59,5.17,18.91
	C1258.26,852.79,1258.21,853.44,1258.31,854.71z"/>
<path class="st18" d="M345.73,784.6c-2.92,4.78-5.06,8.89-7.78,12.57c-2.24,3.03-5.02,5.72-7.88,8.2c-1.02,0.88-2.98,0.66-4.51,0.95
	c0.17-1.15,0.16-2.37,0.55-3.44c1.78-4.96,3.57-9.93,5.58-14.79c0.95-2.3,2.54-4.33,3.64-6.59c1.36-2.79,3.62-4.02,6.13-2.4
	C343.29,780.27,344.32,782.7,345.73,784.6z"/>
<path class="st18" d="M914.18,564.14c-0.03-7.84,0.75-8.62,7.72-8.69c1.91-0.02,3.83-0.14,5.72,0.07c4.46,0.5,6.33,4.25,3.48,7.66
	c-2.69,3.22-5.91,6.07-9.24,8.64c-3.42,2.64-5.57,1.71-7-2.46c-0.2-0.6-0.34-1.23-0.4-1.86
	C914.3,566.04,914.21,564.56,914.18,564.14z"/>
<path class="st24" d="M-150.58,1228.39c-0.84,0-1.69,0-2.53,0c-7.16-0.02-8.04-1.39-4.78-7.63c0.68-1.3,1.59-2.49,2.4-3.72
	c1.83-2.78,4.14-3.47,6.97-1.52c3.64,2.51,7.34,4.95,10.84,7.65c2.19,1.69,1.66,3.39-0.98,3.88c-3.92,0.73-7.91,1.13-11.86,1.67
	C-150.54,1228.61-150.56,1228.5-150.58,1228.39z"/>
<path class="st22" d="M903.82,479.34c3.4,0.13,5.04,2,3.84,5.07c-2.15,5.46-4.79,10.73-7.33,16.04c-0.89,1.86-2.74,2.57-4,0.81
	c-3.09-4.28-3.31-9.34-2.64-14.36c0.64-4.81,4.75-5.97,8.52-7.33C902.78,479.36,903.44,479.38,903.82,479.34z"/>
<path class="st25" d="M426.1,1183.56c-2.98-1.35-4.96-3.52-6.25-6.58c-0.89-2.11-3-3.84-3.45-5.97c-0.43-2.05,0.76-4.4,0.87-6.64
	c0.08-1.63-0.63-3.3-0.61-4.95c0.01-1.31,0.59-2.61,0.91-3.92c2.16,0.97,4.32,1.94,6.48,2.91c-0.07,3.03,0.21,6.13-0.32,9.08
	c-0.4,2.22-0.07,3.59,1.18,5.53c2.24,3.48,3.64,7.51,5.39,11.31C428.9,1184.07,427.5,1183.82,426.1,1183.56z"/>
<path class="st26" d="M711.89,1132.53c9.04,9.96,11.99,20.98,5.87,33.59c-1.24-2.08-2.48-4.16-3.71-6.24
	c-0.86-6.77-4.44-12.82-5.17-19.63C709.88,1137.68,710.89,1135.1,711.89,1132.53z"/>
<path class="st19" d="M466.73,1280.98c-0.8-1.27-2.13-2.45-2.25-3.75c-0.48-5.05,9.47-14.53,14.36-13.94
	c4.15,0.5,5.79,3.69,3.42,7.17C478.69,1275.71,473.47,1278.71,466.73,1280.98z"/>
<path class="st27" d="M794.67,768.25c-0.2,7.54-4.12,11.27-10.98,10.46c-4.53-0.54-6.05-3.53-3.08-6.87
	c2.77-3.12,6.01-5.89,9.35-8.41c3.09-2.33,4.34-1.57,4.7,2.3C794.73,766.56,794.67,767.41,794.67,768.25z"/>
<path class="st28" d="M875.97,1162.03c4.99,9.4,6.1,19.3,3.85,29.64c-2.09-1.78-4.17-3.55-6.26-5.33
	c-2.97-6.09-2.13-12.74-2.76-19.17C872.52,1165.46,874.24,1163.75,875.97,1162.03z"/>
<path class="st29" d="M993.69,1242.1c2.79,0.88,4.92,1.24,6.76,2.18c5.03,2.6,10.04,5.3,14.83,8.31c1.34,0.84,1.94,2.88,2.88,4.37
	c-1.57-0.11-3.22,0.03-4.69-0.41c-1.99-0.6-3.81-1.77-5.78-2.47c-3.93-1.4-7.91-2.66-11.87-3.96c-0.99-0.33-2.29-0.31-2.94-0.96
	c-1.2-1.2-2.93-2.9-2.75-4.16C990.29,1243.8,992.61,1242.91,993.69,1242.1z"/>
<path class="st17" d="M672,901c-4-2-7-2-12.8-0.3c-2.2,1.3-4.99,1.9-7.52,2.8c0.6-4.28,1.19-8.56,1.79-12.85
	c1.18-0.31,2.35-0.63,3.53-0.94c4-0.71,7-0.71,10.04,0c0.75,0.29,1.5,0.58,2.25,0.86c2.65,1.8,1.95,4.7,2.37,7.24
	C671.65,898.51,672.46,900.48,672,901z"/>
<path class="st30" d="M607.63,1291.94c-4.69,0.13-8.65-2.03-8.83-4.68c-0.14-2.09,0.46-4.79,1.79-6.23c0.93-1,3.7-0.58,5.59-0.32
	c1.15,0.16,2.51,0.97,3.17,1.91c1.22,1.76,3.18,4.27,2.66,5.65C611.31,1290.14,608.56,1291.23,607.63,1291.94z"/>
<path class="st31" d="M554.91,1201.65c4.29-5.27,10.81-5.78,16.64-7.77c4.32,9.99-0.45,10.82-8.27,9.83
	C560.45,1203.36,557.7,1202.36,554.91,1201.65z"/>
<path class="st32" d="M870.8,1167.17c4.03,5.94,2.44,12.69,2.76,19.17c-0.86-0.58-1.74-1.12-2.57-1.73
	C862.05,1178.02,860.99,1175.72,870.8,1167.17z"/>
<path class="st33" d="M651.96,722.26c2.89,1.73,5.69,3.66,8.71,5.13c5.54,2.71,5.62,2.63,3.49,8.52c-0.43,1.19-0.96,2.34-1.58,3.83
	c-6.24-3.73-8.41-10.4-12.08-15.89C650.11,722.52,650.77,722.14,651.96,722.26z"/>
<path class="st34" d="M-241.1,1233.97c-2.12-0.75-5.18-1.6-7.99-2.96c-1.02-0.5-2.19-2.42-1.95-3.34c0.29-1.13,1.98-2.65,3.1-2.67
	c4.82-0.12,9.17,1.52,12.62,5c1.44,1.45,0.8,2.78-0.98,3.35C-237.49,1233.73-238.8,1233.69-241.1,1233.97z"/>
<path class="st35" d="M797.54,1270.87c3.43,0.14,9.57,6.36,9.29,8.74c-0.08,0.71-0.9,1.94-1.28,1.9c-2.39-0.24-5.21-0.12-6.98-1.38
	c-1.79-1.28-2.92-3.92-3.52-6.18C794.81,1273.1,796.88,1271.64,797.54,1270.87z"/>
<path class="st36" d="M920.65,624.46c0.01-3.61,1.66-5.43,4.76-5.25c2.93,0.17,5.52,2.68,5.32,5.16c-0.2,2.43-3.56,5.98-5.76,6.08
	C922.62,630.56,920.64,627.82,920.65,624.46z"/>
<path class="st37" d="M762.81,788.98c2.49,0.3,5.08,0.28,7.46,0.98c4.56,1.35,5.2,3.78,2.16,7.34c-0.94,1.1-2.18,1.95-3.28,2.91
	C764.45,797.92,761.78,794.49,762.81,788.98z"/>
<path class="st38" d="M1067.22,410.38c2.91,1.7,6.33,2.9,8.6,5.23c2.9,2.99,2.04,4.59-2.03,6.58c-0.75,0.37-1.13,1.49-1.68,2.27
	C1070.47,419.77,1068.85,415.07,1067.22,410.38z"/>
<path class="st39" d="M762.81,788.98c2.11,3.74,4.22,7.49,6.33,11.23c-0.96,0.97-1.91,1.94-2.87,2.92
	c-5.44-3.03-7.55-7.92-6.34-14.72C760.89,788.6,761.85,788.79,762.81,788.98z"/>
<path class="st40" d="M708.87,1140.25c0.3,1.21,0.24,3.18,0.96,3.52c6.08,2.86,4.31,8.21,4.39,12.97c0.02,1.05-0.11,2.1-0.18,3.14
	C709.59,1154.06,705.67,1148.09,708.87,1140.25z"/>
<path class="st41" d="M747.44,851.76c-3-7.07-1.74-11.26,5.16-17.16c0,0,0.12,0.43,0.12,0.43c-0.5,5.09-0.31,10.31-2.71,15.06
	C749.16,850.65,748.3,851.21,747.44,851.76z"/>
<path class="st40" d="M750.01,850.09c-0.46-5.27-0.09-10.38,2.71-15.06c0.5,1.75,1.04,3.48,1.48,5.24
	C755.8,846.59,755.79,846.59,750.01,850.09z"/>
<path class="st42" d="M941.8,1272.54c-2.11,1.42-3.88,2.94-4.13,2.72c-1.57-1.36-2.9-3.05-4-4.82c-0.12-0.2,2.21-2.5,2.55-2.3
	C937.98,1269.12,939.47,1270.61,941.8,1272.54z"/>
<path class="st2" d="M533.41,412.91c0.34,0.72,1.15,1.59,0.96,2.13c-2.19,6.31-4.5,12.57-6.88,18.81c-0.15,0.38-1.1,0.46-1.68,0.68
	C528.35,427.33,530.88,420.12,533.41,412.91z"/>
<path class="st43" d="M-320.57,1235.35c-2.72,1.04-4.42,2.33-5.42,1.91c-1.39-0.58-2.26-2.43-3.35-3.73
	c1.23-0.8,2.67-2.46,3.65-2.22C-324.17,1231.68-322.97,1233.34-320.57,1235.35z"/>
<path class="st44" d="M729.92,1281.55c-1.4-1.68-2.91-2.98-2.71-3.34c0.79-1.44,2.04-2.69,3.35-3.72c0.17-0.13,2.52,1.7,2.38,2.1
	C732.4,1278.14,731.26,1279.49,729.92,1281.55z"/>
<path class="st45" d="M-422.11,1242.84c-1.62-2.75-2.37-3.8-2.81-4.96c-0.08-0.22,1.47-1.38,1.55-1.31c0.97,0.88,2,1.8,2.58,2.94
	C-420.54,1239.97-421.32,1240.97-422.11,1242.84z"/>
<path class="st46" d="M1084.06,463.77c0.43-0.92,0.86-1.84,1.29-2.77c3.98,2.7,3.27,5.91,1,9.28c0,0-0.14-0.01-0.14-0.01
	C1085.5,468.11,1084.78,465.94,1084.06,463.77z"/>
<path class="st5" d="M569.16,334.03c-0.43-0.44-0.85-0.87-1.28-1.31c0.91-1.84,1.81-3.68,2.72-5.51c0.43,0.18,0.86,0.36,1.29,0.54
	C570.98,329.85,570.07,331.94,569.16,334.03z"/>
<path class="st5" d="M1035.25,362.03c-0.44,0.44-0.87,0.87-1.31,1.31c-0.88-2.15-1.77-4.29-2.65-6.44c0.43-0.19,0.85-0.37,1.28-0.56
	C1033.46,358.24,1034.36,360.14,1035.25,362.03z"/>
<path class="st47" d="M860.36,1247.99c-0.65-1.17-1.37-1.88-1.25-2.41c0.13-0.56,1.05-0.94,1.62-1.39c0.42,0.58,1.13,1.16,1.15,1.75
	C861.9,1246.46,861.13,1247,860.36,1247.99z"/>
<path class="st3" d="M1029.2,293.27c1.2,0.75,2.39,1.51,3.59,2.26c-0.49,0.97-0.98,1.94-1.47,2.91
	C1030.61,296.71,1029.91,294.99,1029.2,293.27z"/>
<path class="st48" d="M651.96,722.26c-0.49,0.53-0.98,1.06-1.47,1.6c-0.44-1.14-0.88-2.27-1.32-3.41
	C650.11,721.05,651.04,721.65,651.96,722.26z"/>
<path class="st2" d="M554.95,359.1c-0.42,1.79-0.84,3.58-1.26,5.37c-0.4,0-0.8,0.01-1.2,0.02
	C553.31,362.68,554.13,360.89,554.95,359.1z"/>
<path class="st49" d="M1155.25,609.61c3.57,3.78,7.39,7.37,10.62,11.43c2.02,2.53,1.05,5.6-0.45,8.37
	c-1.31,2.42-3.34,3.02-5.85,2.84c-3.79-0.27-5.67-2.04-5.79-6.07c-0.16-5.28-0.04-10.56-0.04-15.84
	C1154.24,610.09,1154.74,609.85,1155.25,609.61z"/>
<path class="st50" d="M1198.27,729.87c5.31,5.12,8.59,10.13,10.01,16.18c0.98,4.16-0.57,6.82-3.77,7.24
	c-3.98,0.52-7.27-1.89-7.15-5.98C1197.52,741.83,1196.69,736.19,1198.27,729.87z"/>
<path class="st49" d="M1132.52,514.73c3.08,2.14,6.32,4.1,9.2,6.48c2.81,2.32,2.92,8.31,0.56,11.04c-2.89,3.33-8.3,2.31-9.37-2.18
	c-1.14-4.79-1.32-9.82-1.92-14.74C1131.5,515.13,1132.01,514.93,1132.52,514.73z"/>
<path class="st51" d="M1148.69,775.35c1.79,4.37,3.97,8.63,5.24,13.14c1.07,3.79-1.91,7.54-5.32,7.79c-4.1,0.3-6.74-2.1-5.84-6.06
	c1.14-5.01,2.97-9.87,4.5-14.8C1147.74,775.4,1148.21,775.38,1148.69,775.35z"/>
<path class="st52" d="M1139.88,655.99c1.98,3.17,4.45,6.14,5.76,9.56c0.89,2.32,0.87,5.59-0.13,7.8c-0.61,1.34-4,2.25-5.89,1.92
	c-1.39-0.24-3.41-2.86-3.35-4.33c0.22-4.97,1.24-9.91,1.96-14.86C1138.78,656.04,1139.33,656.01,1139.88,655.99z"/>
<path class="st50" d="M1119.62,569.26c3.99,4.52,9.5,6.17,9.01,12.51c-0.23,2.96-0.67,5.49-4.49,5.56
	c-3.64,0.07-5.61-1.31-5.64-5.16C1118.46,578.28,1119.14,574.4,1119.62,569.26z"/>
<path class="st53" d="M1086.36,470.29c-0.33-3.09-0.67-6.18-1-9.28c0-2.23,0-4.47,0-8.19c3.66,3.78,6.93,6.4,9.1,9.74
	c1.05,1.62,0.8,5.04-0.23,6.86C1092.4,472.63,1089.16,471.33,1086.36,470.29z"/>
<path class="st50" d="M1229.4,799.19c-3.49-0.01-5.35-1.46-5.58-4.83c-0.24-3.48,2.64-10.78,3.29-10.03
	c2.53,2.93,5.13,6.02,6.66,9.52C1235.19,797.09,1232.85,799.32,1229.4,799.19z"/>
<path class="st54" d="M1157.11,567.65c0.51-2.11,1.02-4.23,1.53-6.35c1.74,1.63,3.76,3.06,5.14,4.96c1.03,1.41,1.49,3.39,1.72,5.18
	c0.27,2.13,0.1,4.32-3.01,4.38c-2.65,0.05-4.57-0.79-4.87-3.68"/>
<path class="st55" d="M1163.63,695.08c1.29,3.41,3.35,6.76,3.65,10.26c0.32,3.74-2.23,5.6-4.87,5c-2.96-0.68-3.95-2.65-2.96-6.49
	c0.74-2.85,1.77-5.63,2.67-8.45C1162.63,695.3,1163.13,695.19,1163.63,695.08z"/>
<path class="st56" d="M1181.17,589.08c2.44,3.13,4.87,5.78,6.68,8.81c0.69,1.15,0.5,3.58-0.3,4.66c-0.78,1.04-2.85,1.27-4.41,1.51
	c-0.62,0.1-1.95-0.71-1.99-1.16C1180.86,598.49,1177.95,594.05,1181.17,589.08z"/>
<path class="st38" d="M1205.63,655.22c1.77,2.72,3.53,5.45,5.33,8.16c1.48,2.24,0.98,4.01-1.34,5.16c-2.47,1.22-5.71-0.05-5.95-2.66
	c-0.31-3.4,0.15-6.87,0.27-10.31C1204.51,655.44,1205.07,655.33,1205.63,655.22z"/>
<path class="st57" d="M1149.9,733.08c1.9,3.29,3.53,5.3,4.24,7.6c0.55,1.77,0.2,3.98-0.37,5.81c-0.14,0.44-3.48,0.72-4.01,0.03
	c-1.14-1.47-1.92-3.62-1.89-5.48C1147.9,738.84,1148.93,736.64,1149.9,733.08z"/>
<path class="st58" d="M1097.89,494.7c1.36,2.03,2.83,3.99,4.02,6.11c0.57,1.02,0.79,2.34,0.84,3.54c0.08,2.04-0.51,3.83-3.02,3.88
	c-2.34,0.05-3.37-1.31-3.37-3.55c0-3.26,0-6.51,0-9.77C1096.88,494.84,1097.39,494.77,1097.89,494.7z"/>
<path class="st58" d="M1125.2,472.46c2.25,2.85,4.7,5.58,6.59,8.65c0.5,0.82-0.33,3.45-1.25,3.94c-1.8,0.97-3.78,0.23-4.37-2.12
	c-0.8-3.19-1.43-6.42-2.14-9.64C1124.43,473.02,1124.82,472.74,1125.2,472.46z"/>
<path class="st59" d="M1182.1,775.09c0-1.05-0.11-2.12,0.02-3.15c0.28-2.26,1.77-2.44,2.96-1.02c1.31,1.54,2.58,3.5,2.86,5.42
	c0.2,1.4-1,4.11-2,4.34c-2.25,0.51-3.92-1.02-3.89-3.68c0.01-0.63,0-1.26,0-1.9C1182.07,775.09,1182.08,775.09,1182.1,775.09z"/>
<path class="st58" d="M1176.99,666.81c0.87,3.07,1.9,6.11,2.49,9.23c0.15,0.82-0.99,2.58-1.72,2.68c-0.9,0.13-2.72-0.9-2.84-1.64
	C1174.37,673.73,1173.33,670.2,1176.99,666.81z"/>
<path class="st49" d="M443.01,569.45c0,5.03-0.1,10.06,0.03,15.08c0.09,3.37-0.96,5.93-4.4,6.71c-2.49,0.57-5.04,0.62-6.88-1.88
	c-2.09-2.84-2.72-7.04-0.67-9.45c3.26-3.85,6.87-7.39,10.34-11.07C441.95,569.05,442.48,569.25,443.01,569.45z"/>
<path class="st50" d="M397.99,689.52c0.56,1.53,1.25,2.6,1.29,3.69c0.17,4.41,0.3,8.84,0.16,13.26c-0.13,4.14-3.13,6.53-7.14,6.04
	c-3.23-0.39-4.8-3.03-3.85-7.19C389.84,699.26,393.17,694.27,397.99,689.52z"/>
<path class="st49" d="M465.87,474.51c-0.78,5.25-1.08,10.63-2.49,15.7c-1.1,3.96-6.66,4.28-9.17,0.97
	c-2.04-2.69-1.94-8.47,0.61-10.58c3-2.49,6.38-4.51,9.6-6.73C464.91,474.08,465.39,474.3,465.87,474.51z"/>
<path class="st51" d="M449.53,734.8c1.5,4.73,3.16,9.43,4.44,14.22c0.7,2.62,0.04,5.05-2.93,6.16c-3.11,1.17-6.03,0.21-7.34-2.87
	c-0.7-1.64-1.24-3.83-0.73-5.41c1.34-4.14,3.3-8.08,5.01-12.1C448.49,734.8,449.01,734.8,449.53,734.8z"/>
<path class="st52" d="M458.35,615.18c0.76,5.04,1.76,10.06,2.2,15.14c0.26,3-1.7,4.51-4.82,4.5c-2.89-0.01-5.07-0.93-5.34-4.07
	c-0.16-1.85-0.33-4.01,0.44-5.58c1.72-3.51,4.02-6.73,6.08-10.07C457.39,615.13,457.87,615.16,458.35,615.18z"/>
<path class="st50" d="M476.93,528.64c0.57,4.34,1.13,7.57,1.39,10.83c0.23,2.79,0.16,6.01-3.21,6.69c-1.9,0.38-5.18-0.26-6.01-1.59
	c-1.63-2.61-1.94-6.11,0.45-8.82C471.49,533.55,473.77,531.66,476.93,528.64z"/>
<path class="st51" d="M511.75,413.32c-0.48,5.03-0.73,9.87-1.56,14.62c-0.19,1.05-2.59,2.6-3.7,2.4c-1.77-0.33-4.09-1.59-4.73-3.08
	c-0.68-1.59-0.37-4.49,0.73-5.77C504.99,418.58,508.25,416.31,511.75,413.32z"/>
<path class="st50" d="M369.62,753.8c-1.1,1.26-2.18,3.5-3.9,4.19c-1.6,0.64-4.88,0.28-5.59-0.82c-0.98-1.53-0.79-4.35-0.11-6.26
	c0.82-2.28,2.68-4.18,4.1-6.25c1.19-1.73,2.48-1.65,3.14,0.23C368.17,747.43,368.68,750.11,369.62,753.8z"/>
<path class="st54" d="M439.26,527.08c-0.08,1.67,0.04,3.39-0.29,5.01c-0.52,2.55-2.52,3.02-4.82,2.96c-2.64-0.07-2.83-1.82-3-3.86
	c-0.39-4.58,2.88-7.19,5.41-10.16c0.19-0.22,2.32,0.52,2.42,1.04c0.33,1.61,0.12,3.33,0.12,5
	C439.16,527.08,439.21,527.08,439.26,527.08z"/>
<path class="st55" d="M434.2,653.26c1.28,4.04,2.21,6.64,2.91,9.29c0.59,2.22,1.52,4.84-1.15,6.23c-1.24,0.65-4.09,0.74-4.47,0.07
	c-1.17-2.04-2.37-4.73-1.96-6.85C430.07,659.3,432.17,656.89,434.2,653.26z"/>
<path class="st56" d="M415.66,548.55c3.16,4.62,0.36,8.92-0.04,13.16c-0.06,0.67-2.86,1.76-4.1,1.46c-1.26-0.31-2.93-2.05-3.01-3.25
	c-0.11-1.69,0.78-3.67,1.79-5.16C411.79,552.57,413.77,550.7,415.66,548.55z"/>
<path class="st38" d="M392.68,614.81c0.2,3.25,0.71,6.52,0.45,9.73c-0.1,1.23-1.78,2.98-3.03,3.29c-1.32,0.33-3.56-0.37-4.33-1.41
	c-0.66-0.89-0.18-3.09,0.47-4.38c1.3-2.57,3.06-4.91,4.63-7.35C391.47,614.74,392.08,614.78,392.68,614.81z"/>
<path class="st57" d="M446.84,692.52c0.91,3.29,1.98,5.58,2.05,7.9c0.05,1.8-0.73,4.03-1.95,5.31c-0.67,0.7-3.95,0.32-4.36-0.47
	c-0.73-1.39-0.63-3.63-0.04-5.19C443.43,697.7,445.03,695.6,446.84,692.52z"/>
<path class="st58" d="M500.37,454.21c0,3.29,0.02,6.58-0.01,9.87c-0.02,2.31-1.33,3.8-3.49,3.23c-1.18-0.31-2.97-2.45-2.73-3.24
	c1.07-3.57,2.76-6.94,4.22-10.39C499.03,453.86,499.7,454.03,500.37,454.21z"/>
<path class="st57" d="M378.63,684.5c-0.7,4.66-1.21,7.89-1.68,11.13c-0.34,2.35-1.37,4.37-4,3.6c-2.88-0.85-1.9-3.47-1.16-5.28
	C373.07,690.82,373.83,687.2,378.63,684.5z"/>
<path class="st55" d="M528.14,370.61c-0.88,2.72-1.74,5.45-2.65,8.16c-0.74,2.19-2.65,3.22-4.35,2.05c-1.03-0.71-1.77-3.73-1.12-4.6
	c1.87-2.53,4.49-4.51,6.82-6.7C527.27,369.89,527.71,370.25,528.14,370.61z"/>
<path class="st58" d="M472.31,432.89c-0.56,3.05-1.07,6.11-1.71,9.13c-0.5,2.36-2.29,2.99-4.33,2.39c-2.64-0.77-2.23-3-1.21-4.57
	c1.77-2.71,4-5.12,6.04-7.65C471.5,432.43,471.9,432.66,472.31,432.89z"/>
<path class="st59" d="M414.68,732.77c0,2.2,0.34,3.32-0.07,3.83c-1.05,1.31-2.37,3.24-3.69,3.32c-2.59,0.16-2.48-2.29-2.3-4.2
	c0.07-0.81,0.27-1.8,0.79-2.35c1.31-1.4,2.83-2.59,4.27-3.87C414.15,731.01,414.61,732.52,414.68,732.77z"/>
<path class="st58" d="M422.99,631.8c-0.81,2.01-1.52,4.07-2.55,5.97c-0.16,0.29-2.58-0.16-2.59-0.36c-0.14-2.22-0.06-4.45,0.06-6.68
	c0.03-0.6,0.29-1.28,0.66-1.75c0.72-0.9,1.59-1.68,2.4-2.51"/>
<path class="st60" d="M1101.06,793.69c-0.74,5.23-2.03,7.32-5.57,7.96c-5.11,0.92-7.53-0.99-9.46-5.92
	c-1.41-3.59-0.65-6.64,0.58-9.79c1.31-3.35,2.69-6.7,4.44-9.83c1.59-2.83,3.17-2.83,4.34,0.21
	C1097.58,782,1099.2,787.89,1101.06,793.69z"/>
<path class="st60" d="M1090.47,682.62c4.37,8.81,7.95,16.4,8.57,24.9c0.14,1.92-1.19,5.36-2.42,5.65c-2.32,0.54-5.76,0.09-7.44-1.41
	c-1.99-1.76-3.89-5.23-3.58-7.67C1086.49,697.31,1088.55,690.67,1090.47,682.62z"/>
<path class="st60" d="M996.51,784.71c1.15-4.87,2.26-9.76,3.52-14.6c0.16-0.61,1.13-1.44,1.67-1.4c0.6,0.05,1.38,0.86,1.67,1.52
	c1.77,4.02,3.71,8.01,5.06,12.18c1.74,5.4-0.51,9.58-5.05,10.31c-4.39,0.7-6.08-0.72-6.34-5.36"/>
<path class="st61" d="M1051.83,468.03c4.53,4.2,8.23,7.34,11.57,10.82c2.32,2.42,1.74,5.4,0.48,8.28c-1.16,2.66-3.06,3.83-5.97,3.65
	c-3.82-0.23-5.9-1.92-6.04-5.8C1051.68,479.58,1051.83,474.16,1051.83,468.03z"/>
<path class="st62" d="M1059.99,565.49c3.9,4.95,5.67,9.69,5.68,14.76c0.01,2.19-1.41,4.77-2.98,6.41c-0.74,0.77-3.76,0.3-5.06-0.6
	c-2.3-1.61-3.43-4.04-2.21-7.17C1057.02,574.8,1058.28,570.57,1059.99,565.49z"/>
<path class="st63" d="M1035.98,725.25c1.84,4.18,3.77,8.33,5.44,12.57c0.43,1.09,0.36,2.6-0.01,3.74c-0.9,2.72-2.93,3.93-5.86,3.78
	c-3.04-0.15-4.28-2.09-4.01-4.62c0.56-5.15,1.57-10.26,2.4-15.39C1034.62,725.31,1035.3,725.28,1035.98,725.25z"/>
<path class="st64" d="M1049.4,514.48c2.26,4.74,6.89,8.31,6.54,14.34c-0.24,4-1.62,5.27-5.43,5.28c-3.53,0.01-5.18-1.9-4.83-5.12
	c0.53-4.85,1.52-9.66,2.31-14.48C1048.45,514.49,1048.93,514.49,1049.4,514.48z"/>
<path class="st65" d="M958.97,763.57c0.42,5.27,1.14,9.62,0.93,13.93c-0.09,1.96-1.62,4.84-3.22,5.48c-1.95,0.78-5.28,0.42-6.9-0.87
	c-2.3-1.82-0.87-4.56,0.71-6.73C953.08,771.85,955.59,768.29,958.97,763.57z"/>
<path class="st66" d="M988.48,726.33c1.97,6.31,1.38,12.18,0.75,17.89c-0.15,1.35-3.31,3.22-5.16,3.31
	c-2.62,0.13-4.02-2.23-3.54-4.93c0.36-2.05,0.96-4.14,1.91-5.98C984.14,733.32,986.19,730.19,988.48,726.33z"/>
<path class="st67" d="M1048.85,630.82c3.55,4.98,6.72,9.42,5.6,15.33c-0.25,1.31-1.46,3.06-2.61,3.43c-2.06,0.67-4.07,0.09-5.04-2.5
	C1044.72,641.49,1046.15,636.47,1048.85,630.82z"/>
<path class="st65" d="M1049.05,789.66c-0.64,1.16-1.46,3.65-3.15,5.19c-0.71,0.64-3.43-0.49-4.92-1.35c-0.73-0.42-1.26-2.22-1-3.15
	c0.84-3.03,1.92-6.03,3.26-8.88c0.39-0.82,1.97-1.41,3.02-1.44c0.55-0.02,1.45,1.33,1.66,2.19
	C1048.4,784.25,1048.57,786.36,1049.05,789.66z"/>
<path class="st68" d="M1050.89,691.55c0.49-4.59,0.79-7.94,1.27-11.26c0.09-0.65,0.9-1.19,1.37-1.79c0.62,0.5,1.69,0.93,1.78,1.52
	c0.59,3.7,1.24,7.43,1.26,11.15c0.01,1.1-1.93,2.22-2.97,3.33C1052.48,693.28,1051.36,692.06,1050.89,691.55z"/>
<path class="st69" d="M1102.79,749.87c0.02,3.3-1.04,4.84-4.15,4.56c-2.84-0.25-3.53-1.47-2.77-4.16c0.56-1.99,0.45-4.15,0.9-6.18
	c0.19-0.87,1.28-2.33,1.58-2.24c1.04,0.31,2.4,0.98,2.77,1.88C1101.98,745.83,1102.35,748.13,1102.79,749.87z"/>
<path class="st70" d="M1095.08,622.42c-1.13,1.86-1.82,3.01-2.52,4.16c-1.28-0.84-3.5-1.54-3.66-2.56
	c-0.46-2.95-0.13-6.02,0.02-9.04c0.01-0.21,1.53-0.63,1.61-0.5C1092.1,617.06,1093.56,619.71,1095.08,622.42z"/>
<path class="st71" d="M1040.72,598.75c-0.13,2.77-0.08,5.57-0.5,8.31c-0.11,0.71-1.66,1.2-2.54,1.79c-0.45-0.95-1.42-2-1.25-2.82
	c0.53-2.56,1.48-5.02,2.27-7.52C1039.37,598.59,1040.05,598.67,1040.72,598.75z"/>
<path class="st72" d="M1013.68,695.66c0,3.66,0.11,6.05-0.06,8.43c-0.06,0.9-0.61,2.3-1.23,2.49c-0.79,0.23-2.27-0.28-2.73-0.96
	c-0.58-0.86-0.91-2.44-0.49-3.3C1010.15,700.33,1011.64,698.59,1013.68,695.66z"/>
<path class="st73" d="M1071.43,530.05c1.41-1.53,2.28-2.47,3.16-3.41c0.91,1.7,2.03,3.33,2.59,5.13c0.15,0.48-1.43,1.49-2.21,2.26
	C1073.91,532.83,1072.85,531.64,1071.43,530.05z"/>
<path class="st60" d="M1056.37,443.48c0.59,2.01,1.42,3.99,1.65,6.04c0.09,0.78-1.17,1.71-1.81,2.58c-0.87-0.92-2.45-1.83-2.45-2.75
	c0-1.89,0.84-3.78,1.33-5.67C1055.51,443.62,1055.94,443.55,1056.37,443.48z"/>
<path class="st60" d="M490.53,753.35c1.9-6,3.73-12.03,5.75-17.99c0.63-1.87,2.53-3.19,3.62-0.87c3.14,6.69,8.47,12.9,5.51,21.25
	c-1.49,4.19-3.97,5.78-8.8,5.16C492.81,760.41,491.43,758.49,490.53,753.35z"/>
<path class="st60" d="M501.57,643.51c1.54,6.3,3.41,12.55,4.49,18.93c0.62,3.65-1.04,7.37-4.28,9.26c-1.9,1.11-4.98,1.28-7.09,0.56
	c-1.21-0.42-2.25-3.49-2.13-5.29C493.14,658.44,496.84,650.9,501.57,643.51z"/>
<path class="st60" d="M594.86,743.13c-0.54,4.19,0.7,7.61-3.34,8.73c-3.17,0.88-7.24-0.54-8.01-3.35c-0.64-2.31-0.74-5.09-0.07-7.37
	c1.18-3.99,3.09-7.77,4.79-11.6c0.3-0.67,1.05-1.14,1.59-1.71c0.66,0.66,1.71,1.22,1.91,1.99
	C592.99,734.68,594.05,739.57,594.86,743.13z"/>
<path class="st61" d="M539.83,426.87c0,6.07-0.1,10.9,0.04,15.73c0.09,3.24-0.54,6.09-3.94,7.06c-2.64,0.75-5.58,0.99-7.38-1.9
	c-1.88-3.01-3.05-6.45-0.49-9.4C531.32,434.6,535.18,431.35,539.83,426.87z"/>
<path class="st62" d="M531.48,524.34c1.88,5.49,3.52,9.8,4.81,14.22c1.11,3.79-1.41,7.63-4.89,7.94c-3.14,0.28-5.51-2.16-5.55-6.21
	C525.81,534.89,527.89,530.13,531.48,524.34z"/>
<path class="st63" d="M557.71,684.6c0.83,4.73,1.96,9.43,2.4,14.2c0.4,4.36-1.2,5.9-4.76,5.76c-3.73-0.14-6.3-3.11-5.14-6.99
	c1.35-4.52,3.58-8.78,5.43-13.16C556.33,684.47,557.02,684.54,557.71,684.6z"/>
<path class="st64" d="M545.85,486.19c-0.85,2.17-1.12,5-2.68,6.38c-2.97,2.65-8.4,0.02-8.24-4.09c0.12-2.9,1.66-5.88,3.06-8.56
	c1.07-2.03,2.93-3.64,4.43-5.44c0.76,2.32,1.63,4.61,2.22,6.97"/>
<path class="st67" d="M542.84,589.43c2.15,5.98,4.06,10.56,2.32,15.88c-0.88,2.69-2.22,3.79-4.98,3.72
	c-3.22-0.09-2.9-2.45-3.16-4.48C536.28,599.01,539.63,595.06,542.84,589.43z"/>
<path class="st65" d="M542.68,748.5c0.4-2.86,0.58-5.18,1.12-7.41c0.19-0.78,1.22-1.79,1.96-1.88c0.82-0.1,2.24,0.52,2.55,1.21
	c1.36,3.07,2.8,6.21,3.4,9.48c0.22,1.22-1.51,3.57-2.84,4.07c-1.3,0.49-3.67-0.29-4.78-1.34
	C543.03,751.62,542.99,749.54,542.68,748.5z"/>
<path class="st68" d="M540.76,650.86c-0.51,0.52-1.66,1.7-2.82,2.88c-1.02-1.15-2.91-2.31-2.9-3.45c0.05-3.73,0.72-7.45,1.34-11.15
	c0.09-0.55,1.22-1.3,1.83-1.27c0.48,0.02,1.21,1.07,1.3,1.74C539.98,642.94,540.27,646.28,540.76,650.86z"/>
<path class="st69" d="M488.56,709.9c0.82-2.97,1.29-5.24,2.14-7.36c0.29-0.74,1.6-1.55,2.35-1.47c0.68,0.07,1.6,1.22,1.79,2.04
	c0.46,2.02,0.7,4.13,0.77,6.21c0.05,1.3,0.07,3.24-0.68,3.76c-1,0.7-3.09,0.84-4.12,0.23C489.63,712.62,489.12,710.82,488.56,709.9z
	"/>
<path class="st70" d="M500.59,585.66c-0.21,0.3-2.18-0.12-2.19-0.27c-0.15-2.65-0.16-5.3-0.08-7.96c0.02-0.58,0.38-1.29,0.81-1.69
	c0.86-0.79,1.87-1.39,2.83-2.08c0.63,1.01,1.36,1.98,1.85,3.06c0.24,0.53,0.04,1.25,0.04,1.89"/>
<path class="st74" d="M486.56,791.13c0.81,3.66,1.43,6.29,1.95,8.92c0.46,2.3-0.66,3.63-2.86,3.99c-2.62,0.43-3.19-1.22-3.22-3.39
	C482.37,797.2,483.34,794.22,486.56,791.13z"/>
<path class="st75" d="M549.84,560.24c0.37-0.64,0.86-1.49,1.35-2.34c0.68,0.65,1.69,1.17,1.98,1.96c0.73,1.97,1.25,4.05,1.6,6.12
	c0.1,0.59-0.72,1.92-1.04,1.89c-0.87-0.07-2.24-0.49-2.45-1.1C550.59,564.8,550.33,562.67,549.84,560.24z"/>
<path class="st76" d="M577.88,654.66c2.19,3.15,3.66,4.89,4.64,6.86c0.42,0.85,0.13,2.42-0.43,3.28c-0.45,0.71-2.2,1.44-2.62,1.13
	c-0.81-0.6-1.42-1.88-1.52-2.94C577.72,660.75,577.88,658.47,577.88,654.66z"/>
<path class="st73" d="M520.29,490.19c-1.57,1.29-2.65,2.17-3.73,3.06c-0.75-1.02-2.29-2.24-2.09-3.01c0.41-1.6,1.75-2.95,2.71-4.41
	C518.04,487.05,518.91,488.26,520.29,490.19z"/>
<path class="st60" d="M544.32,402.95c0.44,1.77,1.21,3.54,1.18,5.29c-0.02,1.04-1.34,2.04-2.07,3.06c-0.76-0.95-2.22-1.97-2.13-2.84
	c0.2-1.99,1.16-3.9,1.81-5.84C543.5,402.74,543.91,402.85,544.32,402.95z"/>
<path class="st77" d="M1234.38,588.32c0.03,5.38-2.02,8.22-5.38,9.03c-3.86,0.93-6.63-0.67-6.32-4.6c0.5-6.21,1.85-12.36,3.03-18.49
	c0.08-0.4,2.51-0.83,2.57-0.69C1230.59,578.9,1232.75,584.29,1234.38,588.32z"/>
<path class="st77" d="M1209.35,487.24c7.72-0.09,16.04,7.36,16.13,14.44c0.03,2.39,0.12,4.88-2.95,5.48
	c-2.77,0.54-5.64,0.69-7.28-2.26c-1.11-2.01-2.01-4.17-2.71-6.36C1211.35,494.8,1210.4,491,1209.35,487.24z"/>
<path class="st77" d="M1244.23,535.67c6.06,4.47,9.89,9.21,12.45,14.62c0.88,1.85-0.34,5.5-1.81,7.36c-0.96,1.2-4.2,1.06-6.3,0.74
	c-2.87-0.43-3.04-2.94-3.15-5.43C1245.18,547.61,1244.7,542.27,1244.23,535.67z"/>
<path class="st78" d="M1091.15,358.78c2.99,1.47,3.88,5.01,2.4,7.56c-1.31,2.24-4.48,2.91-7.2,0.45
	c-6.22-5.63-11.4-12.41-17.52-18.15C1076.18,352.2,1083.82,355.17,1091.15,358.78z"/>
<path class="st79" d="M1169.33,412.6c6.06,1.63,10.07,4,12.79,7.72c1.41,1.93,1.69,4.99,1.66,7.53c-0.01,0.9-2.4,2.51-3.73,2.52
	c-3.12,0.04-5.68-1.64-6.75-4.71C1171.95,421.78,1170.89,417.78,1169.33,412.6z"/>
<path class="st79" d="M1044.45,313.59c5.81-0.49,10.51,1.69,14.94,4.13c2.7,1.48,3.27,6.31,1.56,7.7c-1.67,1.36-6.93,0.54-8.67-1.59
	C1049.69,320.64,1047.28,317.31,1044.45,313.59z"/>
<path class="st80" d="M1163.83,454.53c4.1,1.43,6.87,2.32,9.57,3.37c2.74,1.07,3.97,3.35,3.13,6.04c-0.47,1.5-1.93,3.26-3.34,3.75
	c-2.69,0.93-4.99-0.46-6.03-3.14C1166,461.61,1165.14,458.53,1163.83,454.53z"/>
<path class="st81" d="M1106.35,378.42c4.13,1.44,7.58,2.25,10.58,3.9c1,0.55,0.85,3.22,1.22,4.92c-1.51,0.3-3.64,1.37-4.43,0.75
	C1110.87,385.73,1107.6,383.6,1106.35,378.42z"/>
<path class="st82" d="M1133.59,413.08c3.55,0.37,7.87,5.93,7.41,8.93c-0.45,2.91-3.17,2.88-4.15,1.66
	c-2.02-2.52-3.23-5.71-4.55-8.72C1132.12,414.54,1133.23,413.57,1133.59,413.08z"/>
<path class="st83" d="M1137.22,382.05c-2.86-1.28-5.17-1.71-6.55-3.09c-1.47-1.47-2.04-3.83-3.01-5.8c1.92,0.22,4.08-0.04,5.7,0.78
	c1.95,0.99,3.61,2.75,5.03,4.48C1138.76,378.88,1137.77,380.45,1137.22,382.05z"/>
<path class="st84" d="M1195.99,452.82c4.02-1.1,6.73,0.62,8.8,2.84c0.94,1.01,0.52,3.3,0.72,5c-1.65-0.29-3.84-0.02-4.83-0.98
	C1198.82,457.88,1197.65,455.36,1195.99,452.82z"/>
<path class="st85" d="M1214.36,523.24c2.19,1.52,4.2,2.42,5.45,3.95c0.89,1.08,0.75,3.01,1.07,4.56c-1.75-0.05-3.96,0.54-5.12-0.31
	c-1.54-1.13-2.45-3.31-3.2-5.21C1212.33,525.67,1213.54,524.53,1214.36,523.24z"/>
<path class="st77" d="M378.07,553.22c-0.08,8.57-0.92,9.83-4.76,9.84c-4.35,0.01-7.94-3.26-6.94-7.7
	c1.27-5.61,3.88-10.93,6.03-16.32c0.01-0.03,2.37,0.43,2.51,0.96C376.3,545.24,377.45,550.54,378.07,553.22z"/>
<path class="st77" d="M380.27,472.96c-3.52,0.1-5.08-1.32-5.26-4.87c-0.19-3.75,1.27-6.74,3.73-9.05c2.57-2.41,5.68-4.31,8.72-6.14
	c1.78-1.07,3.65-0.64,2.99,1.95c-1.24,4.86-2.73,9.68-4.42,14.41C385.12,471.83,383.09,473.36,380.27,472.96z"/>
<path class="st86" d="M331.92,517.32c0.45-1.14,0.91-2.28,1.36-3.41c0.68-1.36,1.29-2.77,2.64-3.65c2.18-2.28,4.3-4.62,6.58-6.79
	c0.63-0.6,1.78-0.66,2.69-0.97c0.17,0.78,0.53,1.57,0.48,2.34c-0.33,4.6-1.03,9.2-1.05,13.8c-0.02,3.74-1.89,5.43-5.11,6.05
	c-3.11,0.59-5.33-0.74-6.42-3.77C332.67,519.73,332.31,518.52,331.92,517.32z"/>
<path class="st78" d="M527.14,318.72c-3.94,4.35-7.63,8.98-11.91,12.97c-3.32,3.09-6.77,2.78-8.23,0.2
	c-1.66-2.93-0.29-6.28,3.59-8.11c5.07-2.39,10.23-4.56,15.36-6.83C526.34,317.54,526.74,318.13,527.14,318.72z"/>
<path class="st79" d="M431.25,378.24c-1.53,5.04-2.66,8.81-3.84,12.57c-0.25,0.79-0.59,1.6-1.08,2.25
	c-2.16,2.83-6.19,3.95-8.28,2.18c-2.77-2.35-2.35-5.32-0.66-7.95C420.34,382.73,424.71,380.05,431.25,378.24z"/>
<path class="st79" d="M546.37,280.62c3.03-0.65,6.05-1.3,10.26-2.21c-3.37,4.47-5.6,8.27-8.68,11.18c-1.57,1.49-4.65,1.86-7.04,1.86
	c-2.62,0-2.31-2.47-2.25-4.38C539.04,282.31,542.09,280.73,546.37,280.62z"/>
<path class="st80" d="M436.98,420.04c-1.52,4.35-2.42,7.28-3.56,10.11c-1.08,2.66-3.34,4.08-6.03,3.15
	c-1.42-0.49-2.88-2.25-3.35-3.74c-0.85-2.69,0.37-4.97,3.11-6.05C429.84,422.45,432.62,421.57,436.98,420.04z"/>
<path class="st81" d="M494.55,346.79c-3.14,2.47-6.12,4.96-9.29,7.18c-0.47,0.33-2.45-0.39-2.63-0.97
	c-0.41-1.32-0.65-3.84-0.07-4.14c3.32-1.7,6.89-2.92,10.41-4.2C493.12,344.6,493.64,345.54,494.55,346.79z"/>
<path class="st82" d="M461.63,391.13c-1.02-2.09-1.94-3.17-2.01-4.31c-0.17-2.64,3.64-7.34,6.33-7.96c0.65-0.15,2.11,0.59,2.1,0.62
	c-0.7,2.56-1.29,5.19-2.4,7.58C465.04,388.37,463.54,389.26,461.63,391.13z"/>
<path class="st83" d="M473.04,339.36c-0.42,4.03-6.16,8.27-9.5,7.27c-0.69-0.21-1.44-2.97-1.17-3.16c2.85-2.01,5.88-3.8,8.96-5.46
	C471.62,337.85,472.63,339.02,473.04,339.36z"/>
<path class="st84" d="M404.26,418.91c-1.34,2.07-2.39,4.43-4.12,6.09c-1.09,1.05-3.8,1.96-4.71,1.35c-2.22-1.49-1.22-4.05,0.46-5.3
	c2.18-1.63,4.89-2.54,7.38-3.76C403.6,417.84,403.93,418.37,404.26,418.91z"/>
<path class="st85" d="M388.31,490.21c-0.52,4.99-4.17,8.48-6.91,7.79c-0.84-0.21-1.96-1.62-1.95-2.47c0.02-2.84,4.52-6.43,7.14-5.91
	C387.55,489.8,388.47,490.27,388.31,490.21z"/>
<path class="st3" d="M546.37,280.62c-3.08,1.54-6.53,2.64-7.72,6.45c-1.01-1.02-2.01-2.04-3.02-3.06c3.07-1.6,6.15-3.19,9.22-4.79
	C545.36,279.69,545.87,280.16,546.37,280.62z"/>
<path class="st87" d="M335.92,510.26c-0.88,1.22-1.76,2.43-2.65,3.65c0.8-1.86,1.6-3.73,2.41-5.59
	C335.76,508.96,335.84,509.61,335.92,510.26z"/>
<path d="M670.94,898.41c-0.55-2.61-1.09-5.22-1.64-7.83c0-21.91,3.54-43.3,9.14-64.42c3.42-12.88,10.51-23.47,20.07-32.48
	c1.79-1.69,4.13-4.91,6.92-2.48c2.51,2.19-0.38,4.63-1.56,6.65c-2.65,4.57-5.72,8.91-8.29,13.52c-0.79,1.42-1.24,3.85-0.54,5.09
	c1.17,2.09,3.31,0.82,5.03-0.04c3.22-1.61,6.38-3.35,9.68-4.77c2.3-0.99,4.75-1.92,7.21-2.18c5.08-0.55,8.83,2.77,8.51,7.83
	c-0.54,8.57-4.31,15.85-10.38,21.82c-1.53,1.51-3.79,3.12-5.95,0.38c-0.44-3.26,2.15-5.37,3.07-8.11c0.98-2.93,3.76-6.42,1.32-8.81
	c-2.69-2.64-5.88,0.61-8.45,2.13c-8.04,4.73-8.15,5.63-2.92,13.09c0.72,1.04,1.5,2.08,0.83,3.46c-2,0-4.02,0.16-6.01-0.03
	c-9.38-0.93-12.36,0.96-14.26,10.18c-2.39,11.58-4.4,23.24-6.56,34.88c-0.42,2.27-0.72,4.57-1.08,6.85
	C676.18,896.87,675.81,899.42,670.94,898.41z"/>
<path class="st88" d="M668.82,941.76c-1.5-9.64,2.28-14,12.29-14.22c4.33,0.08,5.29,2.83,5.13,6.46c-0.61,3.45-0.54,7.2-1.96,10.28
	c-2.77,6.03-8.1,6.49-12.58,1.57C670.59,944.63,669.77,943.13,668.82,941.76z"/>
<path class="st21" d="M703,841.28c-1.87-2-3.68-4.06-5.63-5.98c-2.49-2.46-2.5-5.09,0.19-6.99c4.45-3.13,9.05-6.17,13.95-8.51
	c3.67-1.75,5.94,0.38,4.56,4.33c-1.84,5.29-4.58,10.27-6.93,15.39C707.1,840.1,705.05,840.69,703,841.28z"/>
<path class="st13" d="M686.23,934.01c-1.71-2.15-3.42-4.31-5.13-6.46c0.36-1.64,1.05-3.29,1.01-4.93c-0.06-2.9,0.26-6.26-1.06-8.59
	c-3.14-5.53-7.37-10.44-11.02-15.67c4.52,0.51,4.25-2.76,5.05-5.19c3.13,2.4,6.33,4.71,9.33,7.27c0.86,0.74,1.53,2.16,1.59,3.3
	c0.51,9.58,0.87,19.17,1.2,28.77C687.23,932.99,686.57,933.5,686.23,934.01z"/>
<path class="st88" d="M642.09,934.2c7.28-2.88,10.3-1.12,12.74,7.44c-1.04,4.22-2.44,8.5-7.59,8.62c-2.37,0.06-5.76-1.06-6.97-2.82
	c-2.72-3.94-1.79-8.36,1.09-12.22C641.6,934.88,641.84,934.54,642.09,934.2z"/>
<path class="st89" d="M736.21,827.93c2.49,0.27,3.82,0.18,4.97,0.59c2.57,0.92,3.07,4.38,1,6.15c-2.33,1.99-10.18,1.2-11.69-1.4
	c-0.44-0.76-0.08-2.82,0.56-3.2C732.92,828.94,735.13,828.35,736.21,827.93z"/>
<path class="st90" d="M733.8,825.59c-2.92,0.03-3.47-1.56-2.76-3.71c0.98-3,6.12-6,9.21-4.99c1.37,0.45,2.87,2.3,3.15,3.73
	c0.19,1.02-1.32,3.03-2.51,3.51C738.61,825.04,736.03,825.17,733.8,825.59z"/>
<path class="st91" d="M728.97,835.93c3.32,1.83,6.23,2.81,8.17,4.76c1,1,0.27,3.73,0.32,5.68c-1.56,0.03-3.63,0.7-4.59-0.04
	c-2.43-1.89-4.47-4.34-6.38-6.8C726.27,839.24,727.84,837.55,728.97,835.93z"/>
<path class="st92" d="M667.05,889.71c-3.35,0-6.7,0-10.04,0C660.35,889.71,663.7,889.71,667.05,889.71z"/>
<path class="st93" d="M825.65,1008.16c1.49,2.9,2.4,4.49,3.16,6.15c2.62,5.76,5.16,11.56,7.77,17.33c1.98,4.39,0.59,7.77-4.26,10.19
	c-3.94,1.96-8.72,0.57-9.86-3.74c-1.06-3.97-1.11-8.34-0.84-12.48C821.96,1020.08,823.06,1014.61,825.65,1008.16z"/>
<path class="st93" d="M774.21,1040.04c1.88-6.07,3.28-11.55,5.3-16.8c1.29-3.35,3.2-3.43,4.69-0.36c2.2,4.53,4.65,9.16,5.51,14.01
	c0.53,2.99-1.02,6.93-2.87,9.61c-1.87,2.71-6.01,3.32-8.56,1.3C776.21,1046.15,775.54,1042.73,774.21,1040.04z"/>
<path class="st77" d="M859.72,1031.18c0.05,9.02-0.63,10.1-4.79,10.14c-4.79,0.05-7.25-2.58-7.03-7.63
	c0.05-1.25,0.17-2.58,0.62-3.72c1.48-3.71,3.06-7.39,4.75-11.01c0.37-0.79,1.35-1.31,2.04-1.95c0.49,0.62,1.26,1.17,1.44,1.86
	C858,1023.75,859.13,1028.66,859.72,1031.18z"/>
<path class="st94" d="M884.97,1007.07c-0.08,1.69,0.11,2.46-0.18,2.93c-0.91,1.49-1.99,2.87-3.01,4.29
	c-0.7-1.34-1.66-2.62-2.05-4.05c-0.54-2.01-0.83-4.14-0.87-6.22c-0.02-1.08,0.76-2.17,1.17-3.26c1.2,0.64,2.86,1,3.49,2
	C884.48,1004.28,884.71,1006.24,884.97,1007.07z"/>
<path class="st84" d="M807.18,1045.82c0.47-0.84,1.21-2.17,1.95-3.51c1.31,0.82,2.88,1.4,3.86,2.51c0.91,1.04,1.43,2.58,1.7,3.99
	c0.42,2.2,0.1,4.28-2.56,4.96c-2.94,0.76-3.59-1.41-4.18-3.47C807.59,1049.12,807.51,1047.86,807.18,1045.82z"/>
<path class="st95" d="M776.3,988.49c0.7,3.21,1.29,6.45,2.15,9.62c0.73,2.7-1.42,2.96-2.81,3.01c-0.95,0.03-2.8-1.49-2.76-2.24
	c0.17-3.48,0.85-6.93,1.35-10.39C774.92,988.48,775.61,988.48,776.3,988.49z"/>
<path class="st96" d="M865.26,995.55c0.69,2.57,1.51,5.11,2.03,7.71c0.39,1.94-0.52,3.23-2.62,3.46c-2.43,0.27-2.94-1.36-2.74-3.15
	c0.31-2.75,0.95-5.45,1.45-8.18C864.01,995.44,864.63,995.49,865.26,995.55z"/>
<path class="st97" d="M851.13,1008.53c-2.13,1.94-3.39,4.05-4.73,4.11c-3.18,0.13-2.25-2.79-2.33-4.68
	c-0.07-1.78-0.38-4.39,2.49-3.77C848,1004.5,849.08,1006.5,851.13,1008.53z"/>
<path class="st79" d="M766.64,1011.98c0,3.16,0.28,5.67-0.15,8.06c-0.15,0.85-1.96,1.81-3.1,1.93c-0.62,0.07-2-1.51-2.03-2.37
	C761.27,1016.31,762.37,1013.55,766.64,1011.98z"/>
<path class="st98" d="M804.79,1009.18c-0.21,2.05,0,3.15-0.45,3.63c-0.73,0.79-1.93,1.65-2.86,1.57c-0.7-0.06-1.51-1.45-1.85-2.4
	c-0.24-0.68,0.11-1.65,0.41-2.41c0.7-1.75,1.53-3.45,2.3-5.17C803.32,1006.29,804.29,1008.19,804.79,1009.18z"/>
<path class="st77" d="M832.41,1092.91c3.03,4.38,6.39,8.59,8.99,13.21c1.77,3.15-0.35,7.29-3.71,8.93c-3.76,1.84-7.11,0.52-7.4-3.64
	c-0.4-5.94,0.07-11.93,0.17-17.9C831.11,1093.32,831.76,1093.12,832.41,1092.91z"/>
<path class="st99" d="M862.16,1069.95c4.43,1.97,8.57,3.85,12.75,5.63c2.05,0.87,2.31,2.03,1.21,3.9
	c-2.89,4.91-6.56,5.19-10.32,0.78C863.27,1077.29,861.8,1074.05,862.16,1069.95z"/>
<path class="st99" d="M789.66,1081.11c0,2.89,0.29,5.81-0.11,8.64c-0.23,1.59-1.3,3.76-2.57,4.3c-1.31,0.55-4.25-0.05-4.82-1.07
	c-0.97-1.74-1.56-4.75-0.66-6.25c1.5-2.53,4.28-4.3,6.52-6.38C788.56,1080.6,789.11,1080.86,789.66,1081.11z"/>
<path class="st94" d="M810.48,1095.76c0.56,3.55,0.86,6.28,1.44,8.94c0.57,2.6-0.84,3.84-2.91,3.6c-1.05-0.12-2.83-2.32-2.63-3.18
	C807.09,1102.07,806.54,1098.32,810.48,1095.76z"/>
<path class="st94" d="M840.55,1080.14c2.43,2.55,4.25,4.11,5.56,6.02c0.5,0.72,0.24,2.7-0.42,3.3c-0.91,0.84-2.55,1.27-3.82,1.17
	c-0.52-0.04-1.15-1.92-1.26-3C840.41,1085.64,840.55,1083.62,840.55,1080.14z"/>
<path class="st100" d="M776.33,1074.73c-1.73,1.25-3.01,2.18-4.29,3.1c-0.64-1.11-1.77-2.2-1.82-3.34c-0.11-2.38,1.3-4.09,3.81-3.63
	C774.81,1071,775.28,1072.88,776.33,1074.73z"/>
<path class="st101" d="M807.45,1088.22c-1.93,1.81-2.96,3.38-4.35,3.82c-0.63,0.2-1.97-1.83-2.99-2.86c1.25-1.2,2.38-2.61,3.84-3.46
	C804.35,1085.5,805.74,1086.97,807.45,1088.22z"/>
<path class="st102" d="M857.23,1093.01c1.5,1.19,3.55,2.1,4.34,3.65c0.67,1.31-0.1,3.37-0.23,5.1c-1.03-1-2.27-1.86-3.03-3.04
	c-0.88-1.37-1.34-3.02-1.99-4.54C856.62,1093.79,856.92,1093.4,857.23,1093.01z"/>
<path class="st103" d="M874.36,1056.85c1.51,1.06,3.21,1.93,4.46,3.24c0.67,0.7,0.56,2.13,0.8,3.24c-1.3-0.18-3.07,0.1-3.79-0.65
	c-1.2-1.24-1.73-3.12-2.55-4.74C873.64,1057.58,874,1057.22,874.36,1056.85z"/>
<path class="st104" d="M826.48,950.43c1.61,6.72,3.67,13.38,4.69,20.18c0.71,4.74-1.29,6.15-5.81,5.7
	c-3.95-0.39-6.28-3.23-5.34-6.97c0.83-3.26,2.26-6.36,3.14-9.6c0.82-3.02,1.26-6.13,1.87-9.2C825.52,950.5,826,950.47,826.48,950.43
	z"/>
<path class="st79" d="M808.33,947.45c0,2.11,0.23,4.25-0.05,6.32c-0.52,3.78-3.8,6.33-6.97,5.7c-3.5-0.69-5.38-3.94-3.65-7.92
	c1.8-4.15,4.48-7.94,6.95-11.78c0.46-0.71,1.74-0.9,2.65-1.32c0.37,0.89,1,1.77,1.07,2.69"/>
<path class="st80" d="M848.04,935.37c0.48,2.03,1.18,4.04,1.39,6.1c0.45,4.57-0.57,5.36-5.79,4.9c0.64-4.09,1.28-8.17,1.92-12.26
	C847.01,933.3,847.36,934.66,848.04,935.37z"/>
<path class="st94" d="M790.92,926.35c-0.26,2.81-0.19,5.72-0.96,8.39c-0.27,0.93-2.63,1.25-4.03,1.85c-0.4-1.46-1.56-3.33-1.04-4.31
	c1.23-2.32,3.26-4.21,4.97-6.28C790.21,926.12,790.57,926.23,790.92,926.35z"/>
<path class="st85" d="M867.12,937.23c2.23,2.34,4.55,4.72,4,8.41c-0.14,0.92-1.33,1.69-2.04,2.52c-0.61-0.71-1.55-1.33-1.75-2.15
	c-0.69-2.76-1.12-5.58-1.64-8.39C866.16,937.5,866.64,937.37,867.12,937.23z"/>
<path class="st94" d="M848.04,935.37c-0.83-0.42-1.65-0.84-2.48-1.26c0-1.23,0-2.46,0-3.69c0.38-0.09,0.76-0.18,1.15-0.28
	C847.15,931.88,847.59,933.63,848.04,935.37z"/>
<path class="st79" d="M803.13,870.81c1.24,5.87,2.11,10.61,3.28,15.27c0.68,2.74,1.19,5.1-2.54,5.74c-3.63,0.62-6.73-1.34-6.89-4.75
	C796.72,881.45,798.18,876.29,803.13,870.81z"/>
<path class="st78" d="M829.57,873.77c2.63,4.34,4.64,7.26,6.24,10.39c1.99,3.92,1.26,7.78-1.99,9.46c-1.7,0.88-4.21,1.23-5.94,0.63
	c-0.97-0.34-1.71-3.19-1.48-4.77C827.06,884.72,828.26,880.02,829.57,873.77z"/>
<path class="st77" d="M848.65,851.53c3.46,4.94,4.72,8.95,4.75,13.46c0.02,2.72-0.57,4.36-3.79,4.34c-3.29-0.02-3.21-2.14-2.97-4.24
	C847.11,861.04,847.82,857.01,848.65,851.53z"/>
<path class="st77" d="M834.23,817.87c0.04,6.16-5.76,9.79-9.78,7.34c-1.03-0.62-2.08-2.46-1.92-3.56
	c0.84-5.79,2.01-11.53,3.28-17.25c0.08-0.38,2.7-0.71,2.8-0.49C830.76,808.93,832.72,814.02,834.23,817.87z"/>
<path class="st105" d="M810.86,811.57c-0.26,2.34-2.39,3.22-4.23,2.14c-0.92-0.54-1.55-2.99-1.11-4.11c1.36-3.49,3.95-6.5,5.51-9.91
	C810.74,803.62,811.29,807.65,810.86,811.57z"/>
<path class="st82" d="M851.64,804.81c-1.15,1.37-1.76,2.09-2.37,2.81c-0.88-1.42-1.84-2.8-2.55-4.3c-0.13-0.27,0.8-1.03,1.24-1.57
	C849.09,802.69,850.22,803.63,851.64,804.81z"/>
<path class="st85" d="M820.81,743.96c0.1,3.48,0.31,6.97,0.2,10.45c-0.02,0.77-1.19,2.12-1.83,2.12c-1.01-0.01-2.48-0.67-2.94-1.5
	c-2.57-4.61,0.5-7.81,2.83-11.15C819.65,743.9,820.23,743.93,820.81,743.96z"/>
<path class="st106" d="M848.07,741.66c0.8,1.92,2.04,3.79,2.26,5.77c0.24,2.11-0.59,4.4-3.5,4.08c-2.54-0.29-2.71-2.27-2.37-4.3
	c0.31-1.86,0.74-3.7,1.12-5.55C846.4,740.91,847.23,740.91,848.07,741.66z"/>
<path class="st107" d="M835.57,759.79c0.78,1.87,1.9,3.69,2.18,5.63c0.11,0.78-1.63,1.82-2.53,2.74c-0.75-0.77-2.14-1.55-2.14-2.32
	c0.01-2.01,0.62-4.01,1-6.02C834.59,759.81,835.08,759.8,835.57,759.79z"/>
<path class="st108" d="M848.07,741.66c-0.83,0-1.66,0.01-2.49,0.01c0.21-1.1,0.42-2.2,0.63-3.29
	C846.83,739.47,847.45,740.57,848.07,741.66z"/>
<path class="st109" d="M833.33,690.87c3.43,4.19,5.36,8.03,4.65,12.67c-0.22,1.45-1.21,3.13-2.37,3.97c-1,0.72-2.75,0.39-4.18,0.52
	c-0.07-1.16-0.32-2.34-0.17-3.47C831.84,700.26,832.55,695.99,833.33,690.87z"/>
<path class="st110" d="M822.57,687.59c0.38,2.22,0.93,4.42,1.03,6.65c0.03,0.75-1.07,1.56-1.65,2.34c-0.65-0.77-1.88-1.57-1.85-2.31
	c0.1-2.21,0.69-4.41,1.09-6.61C821.65,687.64,822.11,687.62,822.57,687.59z"/>
<path class="st83" d="M826.53,654.29c1.21-2.28,2.11-3.96,3.01-5.65c0.97,2.14,2.18,4.22,2.76,6.47c0.15,0.61-1.63,1.71-2.52,2.58
	C828.8,656.66,827.82,655.64,826.53,654.29z"/>
<path class="st111" d="M823.61,654.6c-1.36,0.75-2.74,1.84-3.03,1.6c-1.15-0.93-2.23-2.18-2.74-3.53c-0.19-0.49,1.29-1.61,2.01-2.44
	C820.83,651.37,821.82,652.52,823.61,654.6z"/>
<path class="st98" d="M779.26,648.95c-1.99,1.34-3.33,2.36-4.81,3.09c-0.18,0.09-1.78-1.77-1.6-2.08c0.84-1.45,2.07-2.67,3.17-3.98
	C776.83,646.73,777.65,647.48,779.26,648.95z"/>
<path class="st112" d="M785.21,640.95c-1.78,1.12-2.96,1.96-4.25,2.56c-0.18,0.08-1.44-1.38-1.32-1.57c0.8-1.29,1.84-2.43,2.8-3.61
	C783.1,638.96,783.77,639.59,785.21,640.95z"/>
<path class="st113" d="M815.87,623.92c-2.02,1.02-3.09,2.04-3.92,1.87c-1.15-0.24-2.11-1.38-3.15-2.13c0.85-0.66,1.73-1.9,2.54-1.86
	C812.54,621.86,813.69,622.83,815.87,623.92z"/>
</svg>
