<?xml version="1.0" encoding="utf-8"?>
<!-- Generator: Adobe Illustrator 16.0.0, SVG Export Plug-In . SVG Version: 6.00 Build 0)  -->
<!DOCTYPE svg PUBLIC "-//W3C//DTD SVG 1.1//EN" "http://www.w3.org/Graphics/SVG/1.1/DTD/svg11.dtd">
<svg version="1.1" id="Layer_1" xmlns="http://www.w3.org/2000/svg" xmlns:xlink="http://www.w3.org/1999/xlink" x="0px" y="0px"
	 width="403.215px" height="505.201px" viewBox="0 0 403.215 505.201" enable-background="new 0 0 403.215 505.201"
	 xml:space="preserve">
<g>
	<g>
		<path fill-rule="evenodd" clip-rule="evenodd" d="M402.741,157.875c-0.796-3.544-1.299-7.155-2.39-10.633
			c-2.326-7.416-4.919-14.739-7.624-22.025c-1.98-5.335-3.962-10.678-6.376-15.828c-1.914-4.085-4.222-7.985-6.329-11.981
			c-1.709-3.241-2.991-6.698-4.908-9.835c-1.974-3.229-4.224-6.283-5.975-9.655c-1.314-2.533-2.557-5.135-4.163-7.479
			c-4.42-6.455-9.059-12.751-14.088-18.761c-3.547-4.237-7.422-8.137-11.806-11.444c-6.92-5.22-14.407-9.581-22.09-13.589
			c-4.139-2.159-8.345-4.181-12.604-6.101c-5.124-2.31-10.299-4.482-15.588-6.376c-5.41-1.938-10.891-3.684-16.545-4.729
			c-3.499-0.647-7.046-1.114-10.654-0.588c-2.319,0.338-2.422,2.305-3.051,3.817c-0.533,1.28,0.366,2.275,1.348,3.019
			c3.384,2.56,6.858,4.993,10.136,7.704c4.4,3.639,8.272,7.721,11.495,12.432c3.089,4.516,5.431,9.421,7.602,14.418
			c1.622,3.735,2.523,7.596,2.249,11.718c-0.254,3.795-0.398,7.6-0.482,11.402c-0.074,3.328-0.351,6.645-0.453,9.965
			c-0.142,4.55-0.553,9.08-0.775,13.623c-0.099,2.004-0.264,4.008-0.488,6.001c-0.354,3.144-0.737,6.287-1.197,9.417
			c-0.3,2.04-0.508,4.09-0.892,6.125c-0.753,3.995-1.86,7.908-2.65,11.885c-1.417,7.127-3.046,14.177-5.533,21.023
			c-2.298,6.326-4.799,12.57-7.239,18.839c-1.396,3.583-2.696,7.206-4.781,10.481c-2.038,3.202-4.74,5.568-8.272,7.008
			c-0.983,0.4-1.246-0.062-1.317-0.836c-0.042-0.458-0.003-0.926,0.097-1.407c0.831-4.02,3.801-6.471,6.563-9.076
			c1.365-1.287,3.811-1.754,2.956-4.599c-0.861-2.869-1.332-5.905-3.97-7.818c-1.941-1.409-3.798-2.898-5.519-4.574
			c-0.915-0.891-0.798-1.704-0.126-2.585c1.221-1.604,2.574-3.089,4.005-4.514c1.959-1.95,1.219-6.276-1.235-7.547
			c-1.501-0.777-3.152-1.23-4.575-2.179c-3.12-2.081-4.002-4.809-1.137-7.78c0.7-0.726,1.345-1.491,2.104-2.179
			c2.547-2.308,5.057-4.655,7.669-6.892c1.237-1.06,1.359-1.967,0.137-2.963c-0.463-0.377-0.852-0.844-1.277-1.266
			c-1.33-1.317-2.866-2.233-4.801-1.974c-2.839,0.38-5.635,0.277-8.384-0.507c-2.38-0.679-3.951-2.289-3.114-5.16
			c0.887-3.04,1.946-6.064,2.155-9.24c0.236-3.617,1.592-6.428,4.881-8.172c0.426-0.226,0.887-0.541,0.913-1.151
			c0.063-1.451-1.287-3.488-2.765-3.845c-2.857-0.69-5.739-0.269-8.518,0.388c-2.997,0.708-5.834,0.969-8.481-0.911
			c-1.429-1.014-2.775-2.143-4.197-3.167c-2.111-1.522-2.434-3.497-2.021-5.967c0.477-2.86,1.868-5.193,3.401-7.52
			c0.456-0.692,1.138-1.408,0.487-2.308c-0.9-1.247-1.996-2.142-3.686-2.158c-2.098-0.019-3.696,1.131-5.274,2.195
			c-6.35,4.283-12.896,8.3-18.498,13.614c-1.261,1.195-2.876,2.06-4.671,1.818c-2.872-0.387-4.227-1.919-4.863-4.815
			c-0.107-0.489,0.059-1.212-0.663-1.517c-2.876-1.212-7.415-1.309-9.627,2.229c-1.865,2.983-3.409,6.14-5.126,9.2
			c-2.542,4.527-2.963,9.226-1.836,14.178c0.123,0.538-0.092,1.04-0.478,1.386c-0.379,0.341-0.812,0.084-1.201-0.109
			c-2.241-1.12-3.873-2.95-5.495-4.776c-1.504-1.693-3.554-2.367-5.622-1.175c-1.749,1.009-3.043,2.505-3.493,4.5
			c-0.982,4.362-1.132,8.767-0.79,13.241c0.339,4.433,1.377,8.637,3.2,12.652c0.76,1.674,0.869,3.155,0.027,4.875
			c-0.823,1.682-1.328,3.513-1.553,5.433c-0.14,1.188-0.16,2.457-0.862,3.576c-0.589,0.938-0.95,1.049-1.495,0.014
			c-0.377-0.716-0.814-1.407-1.287-2.065c-1.127-1.568-3.54-1.371-4.188,0.406c-1.675,4.583-2.616,9.345-2.874,14.206
			c-0.171,3.237-0.183,6.499,0.445,9.716c0.661,3.385,1.69,6.639,3.412,9.648c0.763,1.333,1.568,2.645,2.271,4.008
			c0.333,0.647,0.03,1.311-0.589,1.608c-0.615,0.295-0.851-0.289-1.141-0.739c-1.741-2.697-4.015-4.841-6.735-6.553
			c-2.063-1.298-4.278-2.379-6.062-4.096c-2.711-2.611-4.157-5.967-5.286-9.429c-2.338-7.169-4.452-14.411-6.771-21.586
			c-1.475-4.564-2.69-9.189-3.551-13.897c-0.909-4.972-1.512-10.002-2.463-14.965c-1.047-5.463-1.668-10.973-2.078-16.502
			c-0.24-3.231-0.438-6.483-0.477-9.721c-0.053-4.382-0.282-8.76-0.274-13.141c0.01-5.541-0.136-11.082,0.198-16.623
			c0.163-2.71,0.033-5.438,0.026-8.158c-0.004-1.456,0.23-2.869,0.715-4.238c1.342-3.788,3.139-7.365,5.051-10.888
			c3.111-5.731,6.925-10.904,11.8-15.294c2.854-2.57,5.909-4.853,9.016-7.091c2.897-2.087,6.134-3.687,8.714-6.238
			c0.975-0.965,0.776-1.628-0.039-2.461c-1.075-1.098-2.453-1.654-3.816-2.247h-9.36c-1.169,0.24-2.372,0.123-3.546,0.329
			c-5.17,0.905-10.22,2.293-15.219,3.865c-9.056,2.846-17.848,6.374-26.463,10.353c-6.651,3.072-13.138,6.447-19.345,10.348
			c-7.039,4.424-13.13,9.922-18.4,16.328c-3.607,4.384-7.447,8.579-10.806,13.164c-3.877,5.293-6.961,11.107-10.866,16.395
			c-3.282,4.443-5.373,9.634-8.348,14.285c-1.963,3.069-3.81,6.21-5.401,9.481c-2.536,5.214-4.922,10.501-7.126,15.865
			c-3.147,7.656-6.492,15.244-8.745,23.23c-1.249,4.428-2.23,8.93-2.134,13.581c0.04,1.923,0.712,2.433,2.586,2.046
			c0.394-0.081,0.765-0.23,1.136-0.38c1.585-0.641,2.682-1.864,3.691-3.164c2.6-3.349,5.208-6.692,7.876-9.985
			c2.143-2.644,4.423-5.173,7.261-7.107c2.381-1.622,4.161-1.515,6.301,0.382c1.89,1.676,3.556,3.568,5.042,5.611
			c0.922,1.267,1.343,2.708,1.375,4.272c0.051,2.539-0.409,5.016-0.915,7.484c-2.842,13.876-6.441,27.572-9.898,41.301
			c-2.265,8.997-4.354,18.042-7.861,26.678c-0.737,1.814-1.077,3.779-0.941,5.761c0.093,1.369,0.43,1.621,1.747,1.463
			c3.486-0.417,6.327-1.876,8.117-5.05c1.517-2.689,3.427-5.112,5.25-7.594c1.628-2.217,3.845-3.584,6.375-4.489
			c2.41-0.862,4.818-1.729,7.212-2.632c1.058-0.399,2.142-0.597,3.28-0.62c2.483-0.05,4.825,0.648,7.175,1.288
			c4.407,1.2,7.112,4.102,8.319,8.466c0.192,0.696,0.315,1.404,0.445,2.112c0.845,4.599,0.481,9.239,0.474,13.867
			c0,0.12-0.022,0.239-0.039,0.358c-0.131,0.936-0.56,1.49-1.599,1.611c-2.819,0.328-5.654,0.584-8.477,0.632
			c-3.295,0.056-5.767,1.306-7.92,3.755c-2.475,2.814-2.964,5.676-1.246,9.024c1.093,2.131,2.033,4.346,2.855,6.604
			c0.664,1.822,0.4,3.54-0.554,5.184c-0.301,0.519-0.657,1.004-0.99,1.503c-1.331,1.995-1.34,2.021-3.571,1.261
			c-2.098-0.716-4.256-0.872-6.396-0.5c-3.742,0.65-7.449,1.496-11.167,2.281c-1.566,0.331-3.096,0.802-4.606,1.337
			c-0.92,0.326-1.493,0.928-1.585,1.907c-0.199,2.114-0.017,4.068,1.438,5.859c3.431,4.224,5.335,9.151,6.272,14.485
			c0.461,2.626-0.42,4.625-2.615,6.079c-3.039,2.013-6.216,3.785-9.493,5.377c-2.34,1.137-4.599,2.424-6.854,3.714
			c-0.986,0.563-1.812,1.323-1.55,2.583c0.651,3.139,1.414,6.233,3.329,8.924c1.507,2.116,2.91,4.308,4.289,6.513
			c1.083,1.731,1.405,3.614,0.854,5.526c-0.875,3.034-1.848,6.042-2.817,9.049c-0.226,0.698-0.547,1.357-1.167,1.774
			c-4.017,2.702-8.025,5.425-12.677,6.972c-1.789,0.595-3.507,1.344-5.186,2.199C0.697,341.29,0.188,341.726,0,342.48v3.6
			c0.173,0.919,0.623,1.695,1.167,2.446c1.207,1.665,2.734,3.026,4.194,4.444c2.723,2.646,4.882,5.72,6.81,8.949
			c1.113,1.865,1.74,3.942,1.661,6.176c-0.115,3.286,0.189,6.546,0.646,9.796c0.156,1.111,0.074,2.236,0.046,3.355
			c-0.016,0.603-0.286,1.084-0.809,1.389c-1.998,1.164-3.353,2.935-4.583,4.825c-0.501,0.772-1.036,1.516-1.669,2.191
			c-2.111,2.249-4.088,4.593-5.45,7.404c-0.644,1.329-0.967,2.654-0.3,4.024c0.893,1.834,1.857,3.638,3.114,5.255
			c1.202,1.548,2.729,2.656,4.575,3.369c2.247,0.866,4.31,2.108,6.301,3.446c1.178,0.791,2.05,1.9,2.597,3.231
			c0.775,1.888,1.488,3.797,2.172,5.72c0.617,1.73,0.614,3.432,0.003,5.163c-0.733,2.074-1.582,4.104-2.341,6.168
			c-1.504,4.085-1.508,8.129,0.494,12.084c0.647,1.278,1.633,2.1,3,2.582c3.427,1.209,6.901,1.987,10.571,1.769
			c2.271-0.135,4.191,0.784,5.542,2.581c2.435,3.237,5.061,6.291,7.995,9.083c0.814,0.774,1.287,1.726,1.425,2.837
			c0.51,4.083,1.017,8.163,1.013,12.295c-0.002,1.871,0.241,3.746,0.645,5.588c0.221,1.009,0.742,1.766,1.755,2.102
			c2.203,0.732,4.397,1.086,6.688,0.247c2.776-1.017,5.641-1.789,8.295-3.139c1.874-0.953,3.788-1.053,5.793-0.265
			c2.641,1.038,5.321,1.979,7.972,2.998c1.257,0.483,2.177,1.294,2.75,2.524c0.66,1.417,1.51,2.727,2.37,4.029
			c3.042,4.612,6.61,8.839,9.775,13.359c0.455,0.65,1.107,0.862,1.782,1.093h2.64c1.135-0.228,2.251-0.487,3.111-1.357
			c1.18-1.193,2.408-2.336,3.504-3.615c1.455-1.7,2.664-3.604,4.314-5.142c1.041-0.971,2.241-1.537,3.664-1.554
			c2.359-0.027,4.721-0.065,7.078,0.008c2.713,0.085,5.137,0.792,7.058,2.978c1.335,1.52,2.954,2.815,4.635,3.973
			c2.591,1.785,5.1,3.727,8.157,4.71h2.88c0.031-0.192,0.173-0.205,0.333-0.244c3.405-0.838,6.054-2.463,7.707-5.841
			c1.235-2.524,3.429-4.423,6.072-5.691c1.624-0.78,3.416-0.897,5.073-1.521c1.906-0.718,3.875-0.634,5.842-0.223
			c2.425,0.506,4.831,1.135,7.278,1.493c5.411,0.792,10.777,1.757,16.033,3.301c1.037,0.305,2.312,0.747,3.109-0.404
			c1.749-2.522,3.854-4.882,4.238-8.123c0.191-1.621,1.259-2.28,2.714-2.684c4.749-1.318,9.544-2.472,14.23-4.023
			c2.018-0.667,4.071-1.688,6.234-1.188c2.373,0.548,4.763,1.018,7.141,1.54c2.749,0.604,5.463,1.309,8.281-0.11
			c2.406-1.211,4.84-2.205,6.304-4.692c1.525-2.592,3.364-4.972,5.43-7.167c2.409-2.56,5.429-4.41,7.963-6.811
			c2.13-2.017,4.3-3.983,6.465-5.959c1.336-1.221,2.981-1.713,4.624-1.495c1.801,0.239,3.539,0.207,5.245-0.221
			c2.628-0.657,4.125-2.669,5.273-4.944c0.603-1.195,1.592-2.488,1.142-3.8c-0.814-2.373-0.326-4.301,1.104-6.215
			c1.047-1.4,0.908-2.107-0.484-3.159c-0.668-0.504-1.368-0.984-2.226-1.2c-1.888-0.475-3.798-0.069-5.689-0.223
			c-1.653-0.135-3.079,0.258-4.55,1.144c-4.257,2.562-8.49,5.103-11.895,8.823c-0.88,0.962-2.032,1.698-3.129,2.437
			c-3.062,2.062-6.058,4.18-8.354,7.146c-0.87,1.124-1.984,2.039-3.344,2.518c-3.19,1.122-6.388,2.233-9.615,3.245
			c-4.194,1.316-8.512,2.057-12.877,2.537c-2.061,0.227-4.127,0.429-6.169,0.771c-3.128,0.522-6.272,0.877-9.43,1.138
			c-1.536,0.126-3.086,0.113-4.619,0.266c-3.624,0.361-7.242,0.783-10.862,1.183c-1.635,0.18-3.274,0.329-4.903,0.555
			c-3.126,0.432-6.247,0.905-9.369,1.365c-2.428,0.357-4.854,0.726-7.283,1.08c-2.507,0.365-5.018,1.013-7.524,1.006
			c-3.202-0.01-6.38,0.36-9.609,0.156c-4.587-0.289-9.199-0.241-13.801-0.521c-3.583-0.217-7.183-0.2-10.735-0.775
			c-3.217-0.521-6.467-0.96-9.612-1.781c-7.821-2.04-15.241-5.135-22.311-9.059c-7.056-3.915-13.265-8.837-18.333-15.171
			c-4.389-5.485-7.74-11.524-10.08-18.138c-1.602-4.528-2.565-9.309-4.871-13.555c-2.511-4.624-3.021-9.647-3.527-14.712
			c-0.199-1.986-0.486-3.964-0.661-5.952c-0.146-1.65-0.34-3.321-0.227-4.964c0.114-1.651,0.539-3.287,0.901-4.913
			c0.799-3.582,1.167-7.271,2.41-10.741c1.381-3.855,4.181-5.735,7.657-5.812c2.908-0.064,5.27,1.552,7.085,3.788
			c2.779,3.424,5.521,6.88,8.209,10.375c1.979,2.572,2.481,5.639,0.464,8.465c-0.582,0.815-1.564,1.332-2.231,2.101
			c-2.007,2.309-2.716,5.241-3.642,8.047c-0.5,1.513,0.675,3.294,2.247,3.363c3.507,0.154,7.032-0.082,9.938-2.297
			c2.131-1.624,3.992-3.602,5.967-5.428c1.673-1.548,3.757-2.348,5.918-2.236c3.23,0.165,6.187,1.429,8.986,3.097
			c2.921,1.74,5.971,3.143,9.444,3.589c2.381,0.306,4.551,1.384,6.451,2.953c1.324,1.094,2.545,2.314,4.014,3.238
			c4.009,2.521,7.999,1.135,11.993-0.009c0.172-0.05,0.423-0.197,0.446-0.332c0.36-2.086,0.863-4.258-0.367-6.169
			c-1.458-2.267-2.973-4.523-5.046-6.32c-0.285-0.247-0.554-0.585-0.675-0.935c-0.256-0.74,0.056-1.296,0.847-1.334
			c0.607-0.029,1.213-0.012,1.856,0.158c2.734,0.719,4.831,2.548,7.189,3.916c1.36,0.788,2.714,1.469,4.358,0.942
			c1.018-0.325,1.733-1.034,2.446-1.771c0.452-0.467,1.044-0.914,1.654-0.514c0.57,0.373,0.813,0.919,0.591,1.8
			c-0.414,1.64-1.521,2.852-2.203,4.308c-0.403,0.863-0.731,1.976,0.555,2.319c3.112,0.831,6.178,1.155,8.979-1.13
			c1.587-1.294,3.51-2.18,5.45-2.744c2.331-0.679,4.546,0.05,6.601,3.054c1.383,2.021,2.046,4.405,3.278,6.505
			c0.477,0.812,0.967,1.485,2.032,0.98c2.728-1.295,5-3.213,7.022-5.402c0.666-0.721,1.246-1.54,2.042-2.112
			c3.432-2.464,7.022-1.946,10.579-0.363c4.538,2.021,8.723,4.809,13.577,6.149c2.092,0.578,3.273,0.021,3.86-1.999
			c0.973-3.353,1.214-6.617-0.853-9.72c-0.96-1.441-1.736-3.004-2.676-4.46c-3.221-4.992-6.652-9.794-12-12.799
			c-1.618-0.91-3.153-1.962-4.044-3.646c-1.438-2.717-1.195-5.613-0.595-8.474c0.707-3.376,2.094-6.497,3.743-9.524
			c1.994-3.66,3.847-7.381,4.542-11.574c0.304-1.83,1.297-2.132,2.852-1.094c0.802,0.535,1.566,1.176,2.441,1.543
			c4.534,1.905,9.209,1.795,13.932,0.837c2.128-0.431,4.051-1.441,6.108-2.069c1.497-0.457,2.646-0.092,3.566,1.279
			c0.767,1.145,0.299,2.185-0.485,3.084c-1.48,1.695-3.016,3.343-4.523,5.014c-1.757,1.947-3.6,3.845-2.812,6.857
			c0.43,1.64,1.044,3.133,2.419,4.229c2.688,2.145,5.354,4.318,8.037,6.471c1.007,0.808,0.669,1.544-0.203,2.07
			c-0.986,0.596-2.043,1.103-3.119,1.518c-3.069,1.181-5.358,3.148-6.915,6.092c-2.215,4.19-2.562,8.703-2.58,13.289
			c-0.003,0.607,0.105,1.295,0.615,1.817c0.891,0.911,2.995,0.967,4.202-0.01c1.252-1.015,2.421-2.132,3.668-3.152
			c1.932-1.581,4.003-2.599,6.671-2.225c2.704,0.38,5.058,1.583,7.48,2.657c2.098,0.931,4.081,2.029,5.8,3.614
			c2.226,2.053,3.915,4.54,5.795,6.87c0.994,1.232,2.078,1.664,3.593,1.312c2.862-0.664,3.453-1.336,3.936-4.177
			c0.208-1.225,0.785-2.329,1.933-3.044c3.439-2.14,7.216-3.486,11.088-4.513c3.684-0.978,7.312-0.667,10.799,1.076
			c2.076,1.038,4.409,1.36,6.632,1.983c1.3,0.365,1.935-0.149,1.66-1.295c-0.458-1.905-0.792-3.881-1.771-5.601
			c-2.644-4.646-6.616-7.859-11.396-10.093c-1.834-0.857-3.881-1.231-5.877-1.154c-2.627,0.102-5.134,1.018-7.645,1.775
			c-2.088,0.631-3.812-0.344-4.816-1.756c-1.638-2.303-2.65-4.842-3.408-7.533c-2.549-9.059-4.039-18.27-4.225-27.692
			c-0.022-1.13-0.051-2.3-0.232-3.417c-0.592-3.636,0.109-7.051,1.56-10.354c0.905-2.065,2.469-3.746,3.49-5.74
			c1.726-3.366,2.618-6.97,3.185-10.714c0.719-4.751,1.198-9.528,1.845-14.285c0.445-3.278,1.002-6.523,1.688-9.757
			c0.456-2.155,1.269-4.213,1.515-6.433c0.209-1.877,0.222-3.833,0.989-5.599c1.533-3.53,3-7.104,4.784-10.507
			c2.874-5.481,4.038-11.173,2.806-17.269c-0.973-4.81-1.952-9.625-3.276-14.353c-1.345-4.805-3.582-9.186-6.639-13.145
			c-0.314-0.408-0.619-1.062,0.253-1.187c0.776-0.11,1.599-0.064,2.38,0.052c2.846,0.421,5.687,0.88,8.522,1.365
			c2.907,0.497,5.644,1.51,8.249,2.879c3.287,1.728,6.091,4.136,9.039,6.353c5.066,3.809,10.039,7.722,14.397,12.335
			c1.32,1.398,2.861,2.681,3.575,4.589c1.272,3.404,1.896,6.984,2.891,10.462c0.82,2.866,1.134,5.755,0.674,8.688
			c-0.424,2.701-0.382,5.432-0.143,8.097c0.367,4.082,0.505,8.176,0.884,12.253c0.319,3.438-0.675,6.88,0.009,10.317
			c0.103,0.514,0.124,1.289,0.442,1.461c0.598,0.322,0.85-0.519,1.285-0.814c0.256-0.175,0.497-0.386,0.727-0.576
			c1.523-1.26,2.763-2.762,3.292-4.71c1.039-3.826,1.601-7.741,2.202-11.656c0.796-5.184,1.31-10.397,1.864-15.605
			c0.358-3.369,0.608-6.758,0.715-10.144c0.121-3.872,0.471-7.724,0.728-11.584c0.272-4.096,0.952-8.104,2.19-12.012
			c1.197-3.783,3.236-6.868,7.086-8.451c2.356-0.969,4.856-1.233,7.332-1.667c2.666-0.468,5.158-0.235,7.604,1.023
			c1.668,0.858,3.467,1.467,5.219,2.158c2.425,0.956,4.77,2.066,6.571,4c2.289,2.455,3.934,5.387,5.64,8.239
			c1.973,3.297,4.446,5.986,7.853,7.792c0.729,0.386,1.585,0.397,1.593-0.487c0.024-2.719,0.455-5.493-0.397-8.151
			c-1.782-5.555-3.417-11.135-4.376-16.908c-0.774-4.665-1.669-9.313-2.64-13.942c-0.876-4.176-1.63-8.372-2.376-12.571
			c-0.604-3.407-1.184-6.817-1.729-10.235c-0.657-4.113-1.229-8.238-1.866-12.354c-0.399-2.579-0.942-5.149-1.119-7.744
			c-0.156-2.314-0.48-4.688,0.818-6.913c1.953-3.349,4.579-5.988,7.822-8.061c1.333-0.853,2.618-0.857,4.033-0.104
			c3.332,1.775,5.65,4.624,7.843,7.523c3.13,4.14,5.983,8.487,9.029,12.692c0.683,0.942,1.225,2.038,2.22,2.728
			c0.457,0.316,1.009,0.857,1.489,0.079c0.727-1.176,1.512-2.321,1.954-3.66C403.483,162.407,403.256,160.167,402.741,157.875z
			 M104.038,367.023c-1.459-0.3-2.671-0.93-3.772-1.901c-1.263-1.113-0.909-2.237-0.116-3.11c0.945-1.039,1.972-1.996,3.159-2.819
			c1.068-0.74,1.597-0.255,2,0.484c0.873,1.604,1.172,3.407,1.489,4.936C106.824,366.734,105.872,367.399,104.038,367.023z
			 M160.726,385.189c-1.096,1.044-2.015,2.281-3.353,3.056c-0.565,0.327-0.958,0.53-1.173-0.479
			c-0.409-1.923-1.319-3.684-2.225-5.427c-0.196-0.376-0.477-0.733-0.398-1.066c0.041-1.104,0.554-1.706,1.388-2.139
			c0.824-0.428,1.214,0.19,1.694,0.609c1.333,1.163,2.648,2.35,3.994,3.499C161.411,383.889,161.511,384.442,160.726,385.189z
			 M172.195,365.457c-0.669,0.336-1.366-0.057-1.846-0.451c-2.044-1.684-4.406-2.001-6.934-1.896
			c-3.137,0.129-6.282,0.315-9.416,0.216c-4.224-0.134-8.433-0.451-12.6-1.348c-3.735-0.804-7.342-0.167-10.694,1.8
			c-0.947,0.556-2.023,0.938-3.086,1.232c-0.924,0.256-1.703-0.897-1.882-2.191c-0.529-3.821,0.695-7.368,1.583-10.968
			c0.544-2.204,1.238-4.371,1.788-6.573c0.551-2.209,1.421-2.676,3.692-2.321c2.996,0.467,6.014,0.747,9.064,0.276
			c1.517-0.234,3.072-0.092,4.62-0.225c5.782-0.494,11.584-0.658,17.391-0.525c1.51,0.034,2.396,0.627,2.408,2.015
			c0.032,3.745,1.526,6.883,3.638,9.841c1.838,2.574,2.669,5.484,2.64,8.644c0,0.279,0.035,0.564-0.007,0.838
			C172.466,364.377,172.884,365.112,172.195,365.457z M207.557,174.527c-0.39,2.998,0.126,6.021-0.434,8.998
			c-0.183,0.966-0.581,1.719-1.6,2.056c-3.023,1-4.967,3.302-6.804,5.722c-0.046,0.061-0.058,0.151-0.11,0.204
			c-0.407,0.419-0.898,1.113-1.403,0.882c-0.56-0.256-0.479-1.081-0.361-1.711c0.734-3.923,0.899-7.819,0.055-11.78
			c-0.401-1.882-0.188-3.884,0.146-5.813c0.414-2.389,0.719-4.793,2.378-6.78c1.568-1.879,3.182-3.687,5.219-5.068
			c0.999-0.678,1.702-0.387,1.988,0.832c0.194,0.827,0.474,1.672,0.456,2.503c-0.031,1.475,0.503,2.904,0.514,4.381
			C207.601,170.812,207.794,172.697,207.557,174.527z"/>
	</g>
</g>
<g>
	<path fill-rule="evenodd" clip-rule="evenodd" fill="#2C2C34" d="M58.782,464.166c-1.761-0.989-3.166-2.438-4.723-3.688
		c-0.793-0.637-1.486-1.398-2.224-2.103c-0.06-1.125,0.777-1.799,1.36-2.568c1.64-2.165,1.697-1.673-0.392-3.448
		c-3.177-2.699-5.68-5.953-7.583-9.652c-1.846-3.589-3.868-7.091-5.341-10.865c-0.443-1.136-0.523-1.112-1.674-0.491
		c-1.359,0.733-2.74,1.332-4.322,0.716c-0.04-2.725-1.042-5.09-2.694-7.213c0.605-1.129,1.788-1.529,2.779-2.154
		c1.174-0.74,1.208-0.743,0.791-2.089c-0.438-1.414-1.016-2.772-1.625-4.118c-2.508-5.537-4.169-11.281-4.474-17.394
		c-0.117-2.347-0.567-4.682-0.427-7.036c0.124-2.094-0.981-2.646-3.164-2.668c-0.502-0.004-1.01,0.302-1.503-0.045
		c-0.245-1.698-0.813-3.347-0.774-5.089c1.223-0.451,2.43-0.923,3.398-1.854c0.354-0.34,0.751-0.64,0.676-1.188
		c-0.391-2.837,0.167-5.658,0.119-8.487c-0.06-3.595,0.045-7.182,0.431-10.759c0.144-1.337-0.086-1.579-1.449-1.774
		c-1.056-0.151-2.164-0.035-3.133-0.62c0.323-1.48,0.646-2.961,0.97-4.441c0.887-0.479,1.795-0.195,2.699-0.078
		c1.479,0.193,1.549,0.101,1.728-1.331c0.637-5.124,1.565-10.188,3.205-15.102c0.856-2.564,0.958-2.144-1.511-3.218
		c-0.938-0.408-2.031-0.498-2.788-1.298c0.336-1.078,0.672-2.157,1.009-3.236c0.492-0.23,0.933-0.01,1.377,0.161
		c0.892,0.344,1.77,0.724,2.663,1.065c1.301,0.499,1.458,0.412,1.885-0.888c0.92-2.801,1.75-5.622,2.267-8.532
		c0.313-1.763,0.767-3.5,1.143-5.253c0.316-1.476,0.306-1.438-1.106-2.124c-0.771-0.375-1.734-0.387-2.301-1.164
		c0.722-2.433,1.446-4.864,2.164-7.299c0.112-0.38,0.197-0.769,0.295-1.152c1.1-0.408,2.02,0.201,2.963,0.566
		c0.699,0.271,1.093,0.185,1.382-0.559c1.969-5.053,4.422-9.893,6.555-14.874c0.778-1.818,0.71-1.795-0.674-3.288
		c-0.649-0.7-1.644-1.123-1.878-2.183c1.021-2.226,2.443-4.22,3.663-6.331c0.106-0.183,0.357-0.282,0.542-0.421
		c0.719-0.233,1.102,0.31,1.537,0.69c0.935,0.818,0.92,0.824,1.513-0.217c1.405-2.464,2.635-5.024,4.146-7.432
		c1.131-1.801,2.314-3.561,3.903-4.985c0.79-0.709,0.703-1.246,0.085-2.011c-0.414-0.512-1.237-0.856-1.013-1.756
		c1.515-2.596,3.391-4.913,5.469-7.071c0.119-0.124,0.344-0.146,0.519-0.215c0.903-0.141,1.205,0.651,1.646,1.14
		c0.801,0.887,1.471,1.888,2.188,2.846c0.518,0.692,0.88,0.649,1.498,0.061c0.812-0.775,1.363-1.895,2.595-2.174
		c0.153,2.763,0.306,5.525,0.459,8.289c-0.101,0.428-0.225,0.842-0.507,1.198c-2.084,2.631-3.937,5.437-6.15,7.974
		c-2.005,2.297-3.647,4.851-4.888,7.651c-1.087,2.455-1.149,5.047-0.982,7.653c0.066,1.043,0.473,2.028,1.061,2.902
		c0.892,1.327,1.762,2.702,2.892,3.82c2.773,2.744,5.019,5.898,7.354,8.993c2.363,3.132,4.886,6.124,8.077,8.482
		c2.301,1.701,4.103,3.908,5.968,6.045c1.001,1.146,2.043,2.248,3.286,3.142c0.457,0.328,0.936,0.616,1.467,0.806
		c1.015,0.361,1.891,0.079,2.648-0.627c0.734-0.686,0.785-1.467,0.433-2.402c-3.081-8.191-5.125-16.652-6.381-25.302
		c-0.562-3.874-0.861-7.779-0.872-11.7c-0.004-1.802,0.441-3.442,1.522-4.945c1.387-1.928,3.237-2.634,5.512-2.425
		c0.837,0.077,1.678,0.139,2.513,0.123c1.289-0.025,1.917-1.077,1.404-2.257c-0.293-0.673-0.752-1.243-1.308-1.698
		c-3.198-2.614-4.053-6.271-4.612-10.096c-0.394-2.692-0.162-5.342,0.362-7.977c0.255-1.283-0.333-2.145-1.178-2.954
		c-0.327-0.313-0.644-0.263-0.978-0.067c-1.627,0.953-3.622,1.256-4.819,2.992c-0.551,0.798-1.619,0.731-2.551,0.642
		c0.079-2.109,0.152-4.219,0.242-6.328c0.021-0.507,0.097-1.011,0.148-1.516c0.305-0.485,0.805-0.674,1.318-0.742
		c1.137-0.151,1.836-0.849,2.465-1.729c1.929-2.699,3.801-5.445,6.275-7.706c1.594-1.457,3.282-2.804,4.863-4.276
		c0.497-0.463,1.099-0.808,1.752-1.021c1.295-0.422,2.074,0.135,1.909,1.482c-0.6,4.913-0.077,9.71,1.101,14.501
		c0.917,3.728,3.01,6.763,5.168,9.793c0.486,0.682,1.204,1.149,2.003,1.685c0.212-0.67-0.103-1.155-0.27-1.651
		c-0.704-2.082-1.547-4.137-1.825-6.327c-0.453-3.575-0.663-7.161-0.001-10.749c0.326-1.768,0.448-3.564,0.614-5.356
		c0.307-3.308,1.442-6.381,3.114-9.251c0.359-0.618,0.897-1.001,1.588-1.192c0.695-0.191,1.401-0.332,2.105-0.48
		c2.3-0.485,4.058,1.406,3.441,3.719c-0.959,3.595-1.788,7.207-2.27,10.911c-0.874,6.72-0.382,13.225,2.336,19.507
		c1.142,2.638,1.931,5.417,3.301,7.972c1.337,2.49,3.167,4.495,5.424,6.154c0.512,0.376,1.082,0.692,1.466,1.222
		c0.072,0.104,0.217,0.157,0.229,0.31c-0.018-0.189-0.222-0.248-0.285-0.408c-1.29-2.564-1.84-5.355-2.473-8.116
		c-0.776-3.39-0.825-6.9-1.709-10.28c-0.313-1.199-0.061-2.476,0.043-3.7c0.504-5.937,1.363-11.811,2.721-17.63
		c0.51-2.185,1.552-3.952,2.57-5.84c1.504-2.787,6.08-2.511,7.712-0.196c1.401,1.988,2.028,4.09,0.968,6.526
		c-2.079,4.776-2.985,9.847-3.501,15c-0.195,1.946-0.425,3.894-0.446,5.849c-0.082,7.601,1.199,15.035,2.93,22.396
		c1.143,4.861,2.298,9.726,4.102,14.404c0.405,1.052,0.981,1.884,1.906,2.528c2.021,1.411,4.124,2.672,6.439,3.669
		c-0.983-1.718-1.691-3.534-2.542-5.282c-1.474-3.027-2.299-6.208-2.443-9.568c-0.017-0.396-0.062-0.812,0.349-1.074
		c1.782,1.392,3.256,3.265,5.691,3.633c0.405,0.558,0.624,1.197,0.815,1.849c0.886,3.016,3.845,5.356,7.811,5.113
		c3.583-0.221,6.85-1.303,10.133-2.521c0.139,0.003,0.253,0.059,0.343,0.164c0.752,1.726,1.126,3.573,1.725,5.351
		c1.164,3.453,2.838,6.69,4.146,10.08c0.389,1.008,0.792,2.017,0.976,3.08c0.646,3.732,2.986,6.564,5.024,9.559
		c0.174,0.256,0.406,0.566,0.778,0.408c0.425-0.181,0.33-0.61,0.29-0.947c-0.273-2.3-0.519-4.602-0.778-6.902
		c-0.317-2.818-0.382-5.65-0.623-8.473c-0.315-3.696-0.577-7.398-1.001-11.083c-0.448-3.891-0.842-7.777-0.709-11.7
		c-0.02-0.879,0.041-1.746,0.389-2.569c0.689-1.143,0.646-2.456,0.798-3.707c0.42-3.449,0.633-6.924,1.2-10.356
		c1.085-6.575,4.173-11.936,9.655-15.831c0.946-0.672,1.745-1.534,2.755-2.118c0.436-0.251,0.867-0.646,1.411-0.208
		c-0.43,4.958-1.49,9.805-2.782,14.592c-1.552,5.748-3.274,11.453-4.302,17.329c-0.649,3.707-1.19,7.43-1.601,11.177
		c-0.738,6.743-1.202,13.504-0.872,20.27c0.231,4.734,0.47,9.527,2.336,14.022c0.76,1.829,1.888,3.399,3.189,4.866
		c1.74,1.963,3.859,3.566,5.431,5.682c1.156,1.554,1.253,3.309,0.731,5.126c-1.35,4.712-2.644,9.464-5.17,13.71
		c-1.792,3.011-3.258,6.12-3.776,9.585c-0.584,3.91-0.829,7.864,0.134,11.746c0.846,3.409,3.475,5.26,6.368,6.893
		c2.062,1.165,4.15,2.369,5.607,4.351c1.051,1.429,0.891,2.748-0.268,4.078c-1.611,1.851-3.755,2.253-5.999,2.485
		c-3.815,0.396-7.497,0.08-11.039-1.616c-2.144-1.027-4.321-0.729-6.365,0.583c-2.646,1.697-4.156,1.022-6.949-2.163
		c-1.446-1.648-1.252-2.206-0.134-4.151c1.504-2.616,3.76-4.744,4.792-7.67c0.655-1.857,0.965-3.766,1.17-5.691
		c0.319-2.999,0.503-6.013,0.77-9.019c0.369-4.16-1.218-7.696-3.435-11.055c-0.809-1.225-1.645-2.44-2.068-3.885
		c-0.583-1.985,0.049-3.766,0.842-5.524c0.95-2.108,2.277-4.049,2.942-6.279c1.021-3.425,0.552-6.758-0.808-10.014
		c-1.814-4.345-3.168-8.817-3.747-13.511c-0.102-0.825-0.376-1.773-1.42-1.8c-1.006-0.026-1.452,0.881-1.616,1.673
		c-0.557,2.679-0.404,5.404-0.16,8.101c0.299,3.302,1.708,6.362,2.328,9.591c0.56,2.917,0.315,4.992-1.871,6.272
		c-1.126,0.658-2.421,0.936-3.659,0.922c-6.635-0.074-13.113,1.125-19.627,2.137c-3.461,0.538-7.006,0.584-10.489,0.104
		c-2.162-0.298-2.77-1.486-2.219-3.618c0.915-3.541,1.766-7.086,1.807-10.775c0.066-6.022-1.352-11.729-3.574-17.279
		c-1.151-2.878-2.331-5.754-2.476-8.922c-0.029-0.637-0.022-1.281,0.521-1.592c0.54-0.308,1.143-0.031,1.69,0.281
		c1.16,0.663,2.207,1.579,3.676,1.551c1.571-0.03,2.184-0.667,2.333-2.248c0.238-2.511-1.184-4.301-2.517-6.135
		c-2.788-3.833-6.078-7.246-9.137-10.853c-1.325-1.562-2.525-3.27-4.769-3.471c-2.346-0.209-4.705-0.191-7.055,0.004
		c-0.986,0.082-1.968,0.229-2.945,0.387c-0.505,0.081-1.021,0.188-1.415,0.57c-0.653,0.636-0.769,1.193,0.177,1.677
		c1.413,0.723,2.971,1.12,4.487,1.051c3.916-0.18,6.554,1.748,8.692,4.721c0.788,1.096,1.511,2.253,2.409,3.251
		c0.978,1.087,0.941,2.234,0.533,3.453c-0.861,2.578-1.4,5.18-1.483,7.932c-0.112,3.747,0.992,7.118,2.437,10.475
		c1.599,3.716,2.348,7.633,2.686,11.668c0.274,3.284,0.442,6.51-0.778,9.651c-1.432,3.688-3.68,6.857-6.279,9.79
		c-5.493,6.197-12.569,9.899-20.172,12.795c-3.43,1.307-6.056,3.673-7.879,6.84c-1.971,3.425-0.803,7.59,2.542,10.155
		c2.514,1.928,5.383,2.565,8.42,2.95c2.039,0.258,4.035,0.064,6.06-0.002c6.469-0.209,12.613,1.289,18.542,3.805
		c1.178,0.5,2.285,1.092,3.371,1.775c3.29,2.067,2.066,4.931-0.266,6.627c-1.532,1.115-2.987,1.111-4.573-0.06
		c-1.293-0.954-2.914-1.095-4.481-0.854c-1.535,0.234-1.995,1.627-0.943,2.772c1.027,1.119,2.138,2.16,3.212,3.236
		c0.254,0.255,0.585,0.47,0.745,0.774c0.442,0.84,1.375,1.579,0.783,2.697c-0.609,1.148-1.755,0.887-2.679,0.758
		c-4.193-0.581-8.098-2.07-11.728-4.205c-2.922-1.719-6.021-2.533-9.39-2.751c-4.033-0.261-8.1-0.307-12.072-1.185
		c-2.31-0.511-2.797-1.175-2.786-3.541c0.014-3.096-1.448-5.562-3.354-7.82c-2.358-2.794-4.648-5.658-7.164-8.306
		c-3.789-3.988-8.103-7.075-13.986-6.962c-2.605,0.051-2.81-0.168-3.096-2.89c-0.22-2.1-0.884-3.814-3.304-4.171
		c-0.263-0.038-0.501-0.239-0.752-0.362c-0.547-0.266-0.924-0.73-0.933-1.3c-0.01-0.626,0.399-1.097,0.988-1.383
		c2.401-1.165,4.842-1.41,7.203-0.016c3.134,1.851,6.601,2.358,10.097,2.407c6.982,0.097,11.771-3.723,14.498-10.088
		c1.277-2.979,1.562-6.152,0.976-9.352c-0.324-1.765-1.675-2.873-2.958-3.943c-1.607-1.343-2.772-2.923-3.278-4.979
		c-0.151-0.612-0.153-1.388-1.166-1.37c-0.933,0.017-1.194,0.633-1.456,1.329c-1.022,2.712-0.096,5.056,1.61,7.065
		c3.265,3.848,2.526,7.05-0.169,10.665c-3.247,4.355-8.569,5.972-13.836,4.271c-2.664-0.861-5.311-1.674-8.164-1.482
		c-2.157,0.145-4.261,0.544-6.267,1.329c-0.949,0.371-1.708,1.113-1.955,2.139c-0.712,2.963-0.325,6.357,2.953,8.025
		c2.897,1.476,3.303,3.524,1.414,6.142c-3.25,4.501-4.737,9.68-5.813,15.016c-0.833,4.131-1.563,8.302-1.41,12.516
		c0.21,5.826,0.901,11.611,1.75,17.393c0.893,6.091,3.996,11.385,5.583,17.208c2.134,7.834,6.068,14.773,10.96,21.187
		c3.306,4.332,7.213,8.153,11.484,11.46c6.585,5.098,13.623,9.529,21.643,12.178c2.946,0.973,5.531,2.881,8.551,3.68
		c5.789,1.532,11.536,3.18,17.625,3.316c4.832,0.108,9.651,0.754,14.479,1.123c2.695,0.206,5.394,0.375,8.095,0.482
		c1.591,0.062,3.162,0.332,4.768,0.272c4.37-0.163,8.68-0.828,13.011-1.356c5.516-0.672,10.899-2.107,16.417-2.707
		c2.252-0.245,4.532,0.009,6.809-0.229c2.414-0.252,4.797-0.588,7.157-1.141c2.092-0.489,4.209-0.901,6.362-0.808
		c4.194,0.183,8.195-0.826,12.222-1.768c2.778-0.65,5.674-0.621,8.443-1.362c6.415-1.718,12.817-3.486,19.036-5.828
		c2.782-1.048,5.244-2.665,7.262-4.927c1.286-1.442,2.927-2.423,4.778-3.146c0.338,0.803-0.26,1.269-0.604,1.704
		c-1.356,1.713-2.754,3.397-4.206,5.029c-2.345,2.636-5.411,4.191-8.634,5.409c-4.726,1.787-9.454,3.59-14.27,5.11
		c-7.535,2.381-15.106,4.715-22.848,6.309c-3.729,0.769-7.32,2.123-11.125,2.512c-2.724,0.278-5.453,0.499-8.175,0.788
		c-1.93,0.204-3.852,0.478-5.777,0.721c-3.022,0.476-6.045,0.944-9.076,1.367c-1.392,0.195-2.781,0.155-4.172,0.187
		c-1.835,0.042-2.094,0.29-2.124,2.023c-1.964,0.04-3.76,0.827-5.629,1.285c-0.437,0.106-0.837,0.22-1.268,0.042
		c-0.054-0.243,0.026-0.474,0.064-0.709c0.181-1.121-0.172-1.55-1.327-1.558c-2.161-0.017-4.305,0.269-6.455,0.427
		c-4.432,0.325-8.861,0.316-13.279-0.155c-1.52-0.163-3.032-0.139-4.548-0.135c-2,0.005-3.992-0.047-5.981-0.284
		c-1.455-0.173-1.74,0.072-2.013,1.513c-0.067,0.354-0.1,0.714-0.347,1.004c-1.864,0.178-3.728,0.379-5.593,0.007
		c-0.714-0.694-0.925-1.667-1.349-2.516c-0.43-0.861-1.03-1.338-1.967-1.561c-5.054-1.197-10.129-2.294-15.209-3.369
		c-4.233-0.896-8.333-2.21-12.309-3.925c-1.821-0.786-2.167-0.566-2.696,1.334c-0.167,0.597-0.153,1.297-0.805,1.666
		c-2.412-0.608-4.712-1.508-6.916-2.658c-0.325-0.939,0.346-1.663,0.568-2.478c0.379-1.39,0.391-1.486-0.797-2.257
		c-4.865-3.156-9.649-6.422-13.951-10.336c-0.449-0.408-0.779-0.439-1.201,0.027c-0.698,0.771-1.363,1.567-1.957,2.421
		C59.454,463.647,59.291,464.088,58.782,464.166z"/>
	<path fill-rule="evenodd" clip-rule="evenodd" fill="#2C2C34" d="M251.975,237.796c0.237,2.535,1.107,4.851,2.427,7.011
		c0.231,1.107-0.223,2.134-0.402,3.186c-0.242,1.415-0.148,2.755,0.305,4.127c1.602,4.854,2.45,9.827,2.406,14.961
		c-0.057,6.595-0.006,13.19-0.016,19.785c-0.01,6.197-0.479,12.367-1.118,18.527c-0.061,0.592-0.151,1.186,0.03,1.982
		c1.031-1.142,1.585-2.375,1.965-3.692c0.901-3.121,1.386-6.316,1.688-9.548c0.636-6.802,1.487-13.577,2.552-20.325
		c0.225-1.422,0.432-2.849,0.736-4.252c1.119-5.149,1.074-10.305,0.276-15.49c-0.185-1.193-0.645-2.415-0.146-3.65
		c1.762-0.668,2.043-1.484,1.115-3.175c-0.13-0.235-0.181-0.513-0.268-0.772c0.277-0.248,0.602-0.132,0.914-0.119
		c2.556,0.103,4.777-0.677,6.633-2.471c0.444-0.43,0.787-1.034,1.518-1.071c1.999,6.796,1.235,13.168-2.415,19.336
		c-2.158,3.646-4.054,7.503-5.072,11.682c-0.397,1.628-0.157,3.322-0.328,4.99c-0.288,2.804-0.789,5.572-1.108,8.368
		c-0.327,2.872-0.743,5.735-1.102,8.604c-0.429,3.422-0.785,6.853-1.272,10.266c-0.363,2.545-0.74,5.104-1.365,7.593
		c-1.332,5.3-4.688,9.215-8.967,12.421c-3.401,2.548-7.169,4.432-11.093,6.019c-0.365,0.147-0.76,0.262-1.149,0.298
		c-1.031,0.096-1.351-0.38-1.04-1.371c0.436-1.389,1.241-2.588,1.959-3.819c2.704-4.635,4.315-9.654,5.134-14.909
		c0.772-4.969,1.41-9.966,1.89-14.972c0.626-6.535,1.114-13.093-1.354-19.432c-0.868-2.23-1.82-4.408-3.028-6.484
		c-2.105-3.618-3.213-7.576-3.995-11.678c-0.846-4.44-2.545-8.688-3.172-13.187c-0.258-1.844-0.608-3.702-0.593-5.551
		c0.038-4.473-0.738-8.855-1.154-13.279c-0.249-2.644-0.103-5.333,0.036-8.009c0.114-2.205,0.734-4.419,0.156-6.646
		c-0.059-0.227-0.04-0.478-0.032-0.717c0.142-4.627-0.373-9.232-0.511-13.851c-0.106-3.57-0.521-7.131-0.684-10.701
		c-0.414-9.093-2.521-17.873-4.606-26.684c-1.58-6.679-4.577-12.608-8.448-18.155c-1.361-1.951-3.392-2.957-5.831-3.024
		c-4.658-0.128-9.114,0.811-13.297,2.805c-4.411,2.103-7.663,5.516-9.978,9.773c-2.849,5.238-4.394,10.88-4.897,16.819
		c-0.289,3.398-0.585,6.797-0.98,10.184c-0.166,1.428-0.846,2.641-2.241,3.327c-4.115,2.024-8.188,4.128-12.17,6.405
		c-0.191,0.109-0.458,0.086-0.69,0.125c-0.412-0.538-0.128-1.084,0.02-1.602c0.807-2.807,1.79-5.554,2.757-8.31
		c1.733-4.939,3.521-9.867,4.517-15.034c0.17-0.883,0.094-1.647-0.343-2.416c-0.336-0.592-0.672-1.185-1.078-1.73
		c-2.777-3.741-4.06-7.924-3.809-12.586c0.068-1.26,0.331-2.463,0.855-3.594c1.069-2.304,3.715-2.804,5.565-1.082
		c0.351,0.327,0.713,0.65,1.012,1.023c0.61,0.762,1.006,0.541,1.386-0.216c1.202-2.396,2.453-4.768,3.582-7.198
		c0.978-2.105,1.931-4.219,3.129-6.209c0.357-0.593,0.414-1.166,0.198-1.828c-0.657-2.019-1.142-4.082-1.452-6.184
		c-0.185-1.249-0.165-2.469,0.384-3.643c0.896-1.916,2.904-2.658,4.823-1.754c1.225,0.577,2.133,1.536,3.002,2.536
		c0.793,0.913,0.856,0.907,1.609,0.009c2.105-2.513,4.157-5.072,6.394-7.47c0.54-0.579,0.581-1.149,0.378-1.866
		c-0.701-2.473-1.118-4.997-1.082-7.572c0.019-1.337,0.301-2.633,1.171-3.709c1.479-1.831,3.692-2.133,5.502-0.638
		c1.33,1.101,2.472,2.424,2.946,4.142c0.243,0.882,0.558,0.969,1.324,0.533c1.837-1.044,3.573-2.282,5.649-2.879
		c1.23-0.354,2.438-0.491,3.65-0.063c0.771,0.272,1.233,0.094,1.689-0.609c1.691-2.61,3.978-3.181,6.707-1.74
		c0.992,0.524,1.903,1.178,2.814,1.83c0.872,0.625,1.24,1.422,0.909,2.498c-0.188,0.611-0.265,1.262-0.559,1.833
		c-0.518,1.003-0.414,1.978,0.229,2.829c1.674,2.214,2.425,4.752,2.77,7.446c0.1,0.778,0.316,1.204,1.28,1.09
		c1.303-0.155,2.283,0.619,2.807,2.144c0.546,1.587,0.778,3.265,1.236,4.882c0.158,0.559-0.089,1.012-0.554,1.352
		c-0.39,0.285-0.814,0.505-1.245,0.719c-1.527,0.759-1.58,0.839-1.389,2.482c0.222,1.909,0.629,3.787,0.996,5.67
		c0.162,0.826,0.497,1.251,1.441,1.18c3.618-0.274,6.075,4.288,4.936,7.506c-0.463,1.308-1.562,2.019-2.829,2.397
		c-1.005,0.301-1.352,0.888-1.168,1.875c0.243,1.3,0.206,2.628,0.401,3.936c0.098,0.659,0.36,0.945,1.022,1.089
		c2.41,0.526,3.45,1.949,3.285,4.372c-0.03,0.439-0.071,0.875-0.037,1.317c0.147,1.894-0.496,3.382-2.257,4.255
		c-0.87,0.431-1.139,1.065-1.069,2.04c0.33,4.661,0.506,9.332,0.985,13.983c0.155,1.51,0.704,2.422,2.21,3.017
		c3.276,1.296,5.197,4.762,4.709,8.226c-0.268,1.906-1.471,3.445-2.762,4.674c-1.523,1.448-1.672,2.881-1.403,4.814
		c0.924,6.653,1.439,13.341,1.37,20.074c-0.041,4.038,0.407,8.057,1.119,12.04c0.419,2.345,1.242,4.548,2.265,6.683
		C251.485,236.534,251.751,237.155,251.975,237.796z"/>
	<path fill-rule="evenodd" clip-rule="evenodd" fill="#32323B" d="M294.363,48.031c1.025,2.047,2.133,4.059,3.062,6.149
		c3.282,7.383,6.151,14.927,8.604,22.627c3.315,10.408,6.054,20.969,8.364,31.642c1.593,7.357,2.927,14.761,4.133,22.193
		c0.965,5.944,1.775,11.907,2.556,17.874c0.545,4.165,0.818,8.366,1.243,12.547c0.604,5.931,0.905,11.88,1.246,17.831
		c0.46,8.019,0.48,16.036,0.393,24.054c-0.045,4.209-0.354,8.421-0.706,12.619c-0.642,7.666-1.68,15.28-3.384,22.792
		c-0.307,1.352-0.87,1.476-1.965,0.472c-7.805-7.154-15.989-13.829-24.877-19.603c-4.375-2.842-9.179-4.442-14.396-4.947
		c-2.838-0.274-5.662-0.188-8.489-0.17c-2.379,0.015-4.755,0.307-7.134,0.441c-0.872,0.049-1.736-0.007-2.609-0.203
		c-1.469-0.33-2.182-1.017-2.158-2.521c0.025-1.669,0.137-3.353,0.149-5.007c0.022-2.765-0.059-5.562-0.502-8.317
		c-0.146-0.898-0.347-1.806-0.331-2.706c0.014-0.867,0.488-1.548,1.33-1.972c1.639-0.825,3.351-1.449,5.075-2.06
		c3.592-1.274,6.066-3.833,7.978-7.029c4.088-6.832,7.021-14.186,9.806-21.608c2.753-7.337,5.06-14.814,6.815-22.45
		c1.483-6.448,2.647-12.961,3.777-19.481c0.854-4.919,1.555-9.861,2.088-14.82c0.4-3.708,0.656-7.436,0.814-11.173
		c0.233-5.55,0.428-11.101,1.055-16.644c0.605-5.357,1.451-10.745,1.041-16.174c-0.341-4.494-1.449-8.839-2.937-13.088
		c-0.127-0.364-0.235-0.735-0.354-1.104C294.155,48.14,294.259,48.085,294.363,48.031z"/>
	<path fill-rule="evenodd" clip-rule="evenodd" fill="#32323B" d="M121,37.15c-0.615,1.786-1.212,3.538-1.822,5.286
		c-1.893,5.425-2.437,11.054-2.003,16.716c0.497,6.486,0.764,12.967,0.646,19.463c-0.069,3.796,0.139,7.583,0.304,11.365
		c0.232,5.352,0.657,10.701,1.183,16.034c1.066,10.81,2.603,21.544,5.153,32.129c1.909,7.923,4.091,15.761,6.672,23.482
		c1.578,4.721,3.517,9.314,6.348,13.459c0.81,1.186,1.797,2.248,3.078,2.954c1.023,0.563,1.235,1.31,0.856,2.396
		c-0.782,2.244-1.674,4.436-2.028,6.836c-0.542,3.681,0.434,6.915,2.298,9.993c0.477,0.788,1.017,1.516,1.682,2.162
		c0.462,0.449,0.883,1.003,0.47,1.691c-0.378,0.629-1.017,0.53-1.617,0.418c-2.734-0.512-5.507-0.657-8.269-0.917
		c-1.831-0.173-3.657-0.186-5.488-0.225c-6.539-0.138-12.345,2.01-17.953,5.233c-8.509,4.891-16.307,10.763-24.091,16.677
		c-0.35,0.266-0.777,0.707-1.268,0.428c-0.465-0.264-0.598-0.794-0.676-1.335c-1.408-9.72-0.964-19.504-0.902-29.265
		c0.032-4.998,0.526-9.998,0.936-14.986c0.387-4.701,0.88-9.395,1.433-14.079c0.558-4.719,1.277-9.418,1.872-14.133
		c1.329-10.54,3.217-20.987,5.345-31.387c1.908-9.327,4.149-18.58,6.767-27.74c1.748-6.117,3.596-12.202,5.699-18.205
		c2.709-7.734,5.597-15.399,9.063-22.837c1.769-3.796,3.583-7.562,5.722-11.166C120.521,37.409,120.542,37.125,121,37.15z"/>
	<path fill-rule="evenodd" clip-rule="evenodd" fill="#4A4A59" d="M295.215,40.218c0.707-0.292,1.102,0.199,1.354,0.471
		c2.56,2.772,5.07,5.591,7.576,8.413c1.793,2.019,3.553,4.068,5.336,6.096c3.117,3.543,6.076,7.217,8.99,10.926
		c5.631,7.166,10.97,14.543,15.963,22.168c4.019,6.138,7.817,12.409,11.353,18.84c4.597,8.364,8.589,16.994,11.456,26.108
		c1.591,5.059,2.819,10.197,3.299,15.517c0.2,2.218,1.11,4.358,1.426,6.596c0.458,3.246,0.955,6.487,1.386,9.737
		c0.566,4.27,1.261,8.519,2.054,12.751c1.228,6.56,2.489,13.114,3.717,19.675c0.923,4.93,1.819,9.865,2.719,14.8
		c0.667,3.654,1.366,7.306,1.508,11.029c0.018,0.456-0.072,1.004-0.638,1.313c-0.548,0.3-0.905,0.04-1.286-0.244
		c-5.026-3.749-10.369-6.896-16.513-8.44c-6.249-1.571-12.44-1.812-18.468,0.993c-3.054,1.421-4.962,3.808-6.195,6.894
		c-1.133,2.833-2.444,5.596-3.695,8.382c-0.167,0.374-0.328,0.969-0.897,0.716c-0.392-0.175-0.445-0.622-0.353-1.131
		c0.745-4.047,1.194-8.133,1.594-12.229c0.544-5.581,0.777-11.171,1.01-16.771c0.183-4.393,0.234-8.783,0.119-13.163
		c-0.118-4.494-0.205-8.995-0.444-13.486c-0.247-4.635-0.552-9.269-0.968-13.891c-0.475-5.281-1.024-10.558-1.682-15.819
		c-0.602-4.82-1.423-9.612-2.086-14.425c-0.854-6.187-1.978-12.326-3.176-18.451c-1.685-8.614-3.727-17.146-6.041-25.612
		c-1.473-5.384-3.086-10.728-4.9-16.005c-2.746-7.987-5.71-15.885-9.402-23.504C297.997,45.726,296.375,43.123,295.215,40.218z"/>
	<path fill-rule="evenodd" clip-rule="evenodd" fill="#4A4A59" d="M79.503,216.398c-0.633-0.073-0.82-0.603-0.969-1.064
		c-0.998-3.089-2.011-6.176-2.921-9.292c-1.261-4.315-4.363-6.67-8.391-8.054c-5.533-1.902-11.092-1.468-16.646-0.075
		c-4.677,1.172-8.823,3.522-12.967,5.875c-0.069,0.039-0.14,0.081-0.196,0.136c-0.632,0.619-1.345,1.452-2.246,0.902
		c-0.959-0.586-0.536-1.651-0.407-2.613c0.787-5.894,2.271-11.635,3.753-17.375c2.353-9.111,4.78-18.203,7.161-27.306
		c1.561-5.967,2.201-12.153,3.859-18.068c1.88-6.704,2.796-13.64,5.158-20.214c2.652-7.38,5.99-14.427,9.815-21.271
		c3.312-5.928,6.958-11.636,10.81-17.216c4.253-6.16,8.725-12.159,13.44-17.977c4.023-4.964,8.179-9.81,12.409-14.601
		c5.712-6.469,11.861-12.505,17.944-18.609c0.264-0.265,0.555-0.764,0.973-0.42c0.408,0.335-0.022,0.756-0.205,1.06
		c-2.497,4.156-4.846,8.396-6.947,12.761c-3.595,7.47-6.795,15.106-9.585,22.922c-4.583,12.839-8.354,25.912-11.508,39.165
		c-1.92,8.07-3.557,16.2-5.004,24.373c-1.019,5.758-1.91,11.535-2.789,17.312c-0.708,4.651-1.129,9.344-1.74,14.011
		c-0.7,5.34-1.273,10.689-1.691,16.06c-0.274,3.522-0.518,7.043-0.732,10.569c-0.4,6.574-0.559,13.151-0.395,19.727
		c0.069,2.787,0.177,5.575,0.187,8.364C79.675,215.778,79.787,216.115,79.503,216.398z"/>
	<path fill-rule="evenodd" clip-rule="evenodd" fill="#5D5D71" d="M292.03,19.66c1.604,0.4,3.187,1.124,4.787,1.787
		c9.302,3.854,17.589,9.46,25.875,15.058c4.121,2.784,8.438,5.279,12.348,8.375c2.24,1.773,4.408,3.631,6.458,5.621
		c3.69,3.584,7.298,7.255,10.649,11.157c3.012,3.506,5.797,7.197,8.406,11.018c4.328,6.337,8.156,12.969,11.816,19.709
		c4.725,8.701,8.962,17.627,12.641,26.814c3.008,7.509,5.564,15.174,7.659,22.994c0.611,2.281,1.45,4.5,2.004,6.804
		c0.14,0.582,0.243,1.09-0.278,1.518c-0.592,0.486-1.015,0.041-1.479-0.258c-4.116-2.649-8.027-5.635-12.464-7.764
		c-1.739-0.834-3.523-1.554-5.523-1.634c-2.136-0.085-3.536,1.084-4.871,2.484c-1.451,1.522-2.798,3.13-4.039,4.829
		c-0.23,0.314-0.559,0.488-0.941,0.349c-0.379-0.138-0.461-0.513-0.51-0.867c-0.42-3.084-0.938-6.146-1.64-9.186
		c-1.084-4.7-2.582-9.26-4.311-13.749c-2.162-5.617-4.699-11.069-7.481-16.404c-3.235-6.205-6.753-12.247-10.521-18.147
		c-5.231-8.19-10.833-16.123-16.727-23.842c-3.406-4.461-6.918-8.845-10.589-13.102c-3.891-4.51-7.805-8.99-11.872-13.343
		c-1.576-1.688-3.265-3.27-4.777-5.019c-1.054-1.219-1.069-2.78-1.404-4.21c-0.792-3.373-2.007-6.556-3.756-9.542
		c-0.218-0.372-0.51-0.758-0.31-1.221C291.323,19.564,291.671,19.724,292.03,19.66z"/>
	<path fill-rule="evenodd" clip-rule="evenodd" fill="#5D5D71" d="M124.294,9.369c0.313,0.079,0.756-0.208,0.941,0.257
		c0.151,0.382-0.106,0.656-0.311,0.966c-2.126,3.232-3.614,6.729-4.488,10.51c-0.43,1.857-1.656,3.225-3.074,4.51
		c-2.22,2.012-4.283,4.199-6.385,6.337c-3.078,3.131-6.221,6.204-9.175,9.449c-4.349,4.776-8.646,9.6-12.758,14.59
		c-6.209,7.537-12.1,15.299-17.619,23.355c-4.337,6.33-8.411,12.806-12.062,19.558c-3.375,6.241-6.267,12.688-8.562,19.392
		c-1.25,3.65-2.313,7.367-2.852,11.213c-0.085,0.61-0.084,1.526-0.87,1.704c-0.814,0.184-1.057-0.677-1.436-1.204
		c-1.342-1.867-2.6-3.802-4.362-5.322c-2.116-1.824-4.478-1.289-6.822-0.658c-3.809,1.024-6.934,3.399-10.294,5.303
		c-1.374,0.778-2.696,1.647-4.064,2.437c-0.491,0.284-1.051,0.803-1.621,0.29c-0.46-0.415-0.266-1.02-0.09-1.565
		c1.082-3.34,2.062-6.717,3.25-10.019c2.219-6.166,4.671-12.245,7.403-18.203c2.346-5.115,4.849-10.155,7.528-15.105
		c3.387-6.257,7.05-12.348,10.874-18.349c3.401-5.337,7.124-10.433,11.083-15.361c1.067-1.328,2.208-2.599,3.362-3.854
		c3.293-3.579,6.722-7.021,10.295-10.327c5.372-4.969,11.343-9.068,17.681-12.696c5.519-3.16,10.888-6.577,16.45-9.667
		c5.235-2.907,10.708-5.255,16.361-7.204C123.195,9.528,123.703,9.24,124.294,9.369z"/>
	<path fill-rule="evenodd" clip-rule="evenodd" fill="#E3DEE5" d="M129.208,274.699c-4.425-2.87-7.438-6.819-9.128-11.813
		c-0.922-2.723-1.941-5.413-2.903-8.123c-1.724-4.855-1.412-9.833-0.907-14.829c0.404-3.99,1.294-7.874,2.415-11.715
		c0.489-1.675-1.07-3.28-2.797-3.129c-2.589,0.227-4.206,1.418-5.049,3.93c-0.864,2.577-1.814,5.082-1.938,7.863
		c-0.102,2.305-0.659,4.585-0.867,6.89c-0.447,4.94,0.375,9.707,2.141,14.331c0.3,0.786,0.77,1.572,0.441,2.757
		c-1.198-1.066-2.374-1.892-3.262-3.07c-5.422-7.195-6.677-15.385-5.788-24.094c0.036-0.353,0.351-0.756-0.21-1.036
		c-0.436-0.217-0.798-0.203-1.239-0.011c-1.242,0.54-2.121,1.543-3.163,2.341c-3.927,3.007-7.069,6.728-9.707,10.852
		c-1.011,1.581-2.587,1.478-3.953,2.053c-0.704-1.31-0.116-2.682,0.061-3.925c0.696-4.883,2.699-9.409,4.382-14.004
		c0.948-2.588,3.252-4.254,5.24-6.017c5.927-5.256,12.776-9.253,19.282-13.712c3.876-2.656,8.317-4.029,12.951-4.812
		c4.378-0.74,8.797-0.747,13.208-0.972c1.986-0.101,3.968-0.422,5.932-0.76c1.536-0.265,2.872,0.741,3.021,2.366
		c0.173,1.895-1.046,3.105-2.056,4.43c-1.084,1.421-2.697,2.277-3.808,3.712c-0.998,1.29-1.73,2.715-1.76,4.215
		c-0.083,4.074-0.699,8.254,2.303,11.83c2.032,2.42,2.717,5.547,3.348,8.568c0.711,3.409,1.32,6.838,1.28,10.37
		c-0.04,3.565-1.752,6.354-3.602,9.161c-1.379,2.093-3.097,3.977-3.898,6.437c-0.761,2.334-0.743,4.699-0.617,7.106
		c0.253,4.845,3.784,7.55,6.782,10.616c0.139,0.143,0.267,0.294,0.4,0.441c-0.21,5.204,1.875,9.731,4.182,14.193
		c0.432,0.835,0.879,1.663,1.484,2.806c-3.351-1.639-6.256-3.327-8.906-5.434c-0.252-0.2-0.364-0.609-0.483-0.942
		c-3.292-9.165-5.419-18.585-6.755-28.241c-1.257-9.088-0.368-17.914,2.008-26.671c0.395-1.456,0.999-2.858,1.555-4.267
		c0.869-2.201,0.129-4.125-1.192-5.792c-1.293-1.634-3.134-1.901-5.121-1.364c-0.745,0.201-1.273,0.591-1.666,1.248
		c-0.573,0.96-1.106,1.965-1.819,2.814c-0.806,0.961-0.576,2.114-0.863,3.165c-1.738,6.353-2.429,12.861-2.982,19.4
		c-0.192,2.271,0.779,4.293,0.95,6.484c0.38,4.875,1.614,9.585,3.261,14.185C129.406,274.667,129.348,274.728,129.208,274.699z"/>
	<path fill-rule="evenodd" clip-rule="evenodd" fill="#E3DEE5" d="M251.975,237.796c-2.313-3.379-3.302-7.206-3.819-11.201
		c-0.565-4.368-0.704-8.752-0.731-13.154c-0.038-6.079-0.692-12.12-1.555-18.134c-0.126-0.875,0.036-1.386,0.674-2.059
		c1.816-1.919,3.853-3.78,3.8-6.78c-0.055-3.098-1.94-5.883-4.866-6.903c-1.271-0.443-1.932-1.071-2.084-2.496
		c-0.551-5.168-0.676-10.364-1.131-15.537c-0.08-0.909,0.718-1.094,1.261-1.39c1.674-0.912,2.362-2.021,2.149-3.859
		c-0.057-0.495,0.026-0.944,0.09-1.416c0.323-2.408-1.043-4.072-3.473-4.137c-0.681-0.019-0.854-0.192-0.888-0.867
		c-0.091-1.753-0.277-3.502-0.453-5.25c-0.064-0.644,0.061-0.968,0.796-1.16c2.307-0.601,3.502-1.829,3.603-3.487
		c0.148-2.434-1.296-5.009-3.258-5.823c-0.653-0.271-1.367-0.389-1.993-0.144c-1.049,0.412-1.17-0.134-1.33-0.947
		c-0.474-2.39-0.94-4.777-1.243-7.198c-0.116-0.925,0.205-1.35,1.017-1.57c0.191-0.052,0.382-0.119,0.566-0.192
		c1.801-0.715,1.948-1.03,1.454-2.893c-0.286-1.081-0.516-2.175-0.792-3.259c-0.601-2.358-1.707-2.95-3.967-2.064
		c-0.18-1.021-0.382-2.024-0.529-3.036c-0.318-2.177-1.088-4.142-2.447-5.901c-0.746-0.966-0.926-2.049-0.277-3.248
		c0.389-0.718,0.499-1.59,0.716-2.397c0.195-0.729-0.313-1.131-0.798-1.47c-0.882-0.615-1.788-1.201-2.72-1.737
		c-2.854-1.641-5.271-0.932-6.783,1.968c-0.2,0.383-0.263,0.844-0.91,0.551c-2.647-1.198-4.989-0.181-7.267,1.094
		c-1.35,0.755-2.661,1.577-4.166,2.474c-0.035-1.951-0.974-3.343-2.092-4.676c-1.106-1.318-2.396-2.183-4.163-1.762
		c-1.681,0.401-2.476,1.731-2.77,3.296c-0.598,3.182,0.03,6.28,0.956,9.312c0.246,0.806,0.118,1.265-0.451,1.868
		c-2.662,2.819-5.099,5.836-7.637,8.971c-0.828-1.311-1.744-2.483-2.971-3.378c-1.137-0.829-2.328-1.29-3.68-0.62
		c-1.39,0.688-2.058,1.909-2.05,3.41c0.015,2.823,0.763,5.517,1.642,8.177c0.13,0.395,0.362,0.739,0.058,1.228
		c-2.857,4.591-4.695,9.704-7.358,14.396c-0.174,0.308-0.328,0.627-0.565,1.084c-0.61-0.687-1.138-1.309-1.694-1.905
		c-2.068-2.217-4.827-1.637-5.733,1.299c-0.971,3.146-0.726,6.299,0.25,9.434c0.687,2.206,1.695,4.222,3.143,6.01
		c1.323,1.635,1.584,3.314,1.072,5.432c-1.486,6.146-3.701,12.04-5.789,17.982c-0.646,1.837-1.237,3.699-1.6,5.622
		c-0.683,1.062-2,1.416-2.688,2.536c-0.769,1.252-1.448,2.458-1.395,3.993c0.042,1.218,0.077,2.438-0.198,3.658
		c-0.15,0.667-0.31,1.168-1.002,1.433c-0.727,0.278-1.318,0.097-1.841-0.393c-1.558-1.46-2.058-3.404-2.474-5.4
		c-0.425-2.036,0.08-3.663,1.57-5.194c1.176-1.208,1.481-2.933,1.637-4.625c0.246-2.687,1.49-4.945,3.14-7.011
		c2.099-2.628,2.676-5.735,2.768-8.97c0.046-1.625,0.388-3.227,0.263-4.864c-0.167-2.192-0.615-4.271-1.827-6.167
		c-1.522-2.384-1.641-4.969-0.934-7.663c0.999-3.807,1.949-7.629,3.491-11.263c0.503-1.186,1.452-2.053,2.613-2.619
		c4.233-2.062,7.676-5.033,9.938-9.161c1.192-2.176,1.371-4.742,1.814-7.174c0.33-1.808,0.607-3.525,1.757-5.132
		c3.004-4.198,6.292-8.133,9.847-11.867c1.741-1.829,3.456-3.74,3.923-6.35c0.212-1.183,0.212-2.394,0.547-3.576
		c0.71-2.506,2.27-2.658,4.175-1.897c1.534,0.612,2.957,1.522,4.513,2.056c2.621,0.9,5.321,0.92,8.066,0.433
		c1.534-0.272,3.116-0.331,4.677-0.501c1.828-0.199,3.619-0.504,5.387-0.995c1.805-0.5,3.227,0.498,4.571,1.396
		c0.553,0.37,1.085,0.806,1.699,1.033c3.605,1.331,5.004,4.37,6.056,7.695c1.26,3.981,1.173,8.231,2.412,12.21
		c0.917,2.943,1.983,5.84,2.92,8.778c1.357,4.259,2.264,8.615,2.848,13.051c0.504,3.832,0.825,7.665,0.977,11.53
		c0.169,4.322,0.329,8.644,0.483,12.966c0.117,3.282,0.286,6.566,0.466,9.847c0.211,3.85,0.5,7.704,0.979,11.527
		c0.272,2.172,0.996,4.286,1.507,6.429c0.072,0.303,0.132,0.621,0.121,0.93c-0.148,4.507,0.698,8.867,1.762,13.221
		c0.708,2.901,0.497,5.878,0.092,8.827c-0.304,2.206-0.646,4.409-0.874,6.623c-0.364,3.519-0.742,7.042-0.938,10.572
		C251.88,232.111,251.985,234.957,251.975,237.796z"/>
	<path fill-rule="evenodd" clip-rule="evenodd" fill="#E3DEE5" d="M82.903,255.739c1.377-0.374,2.491-0.994,3.564-2.086
		c1.214-1.233,3.26-1.364,4.75-2.537c0.126,0.438,0.118,0.871,0.303,0.982c1.749,1.054,1.296,2.558,1.028,4.138
		c-0.708,4.176-0.256,8.283,1.078,12.288c0.611,1.836,1.962,3.17,3.283,4.51c0.418,0.424,0.859,0.843,1.191,1.331
		c0.524,0.771,0.711,1.634,0.118,2.457c-0.532,0.738-1.292,0.728-2.149,0.663c-1.765-0.132-3.564-0.561-5.27,0.412
		c-1.816,1.035-3.083,2.578-3.232,4.597c-0.475,6.417,0.344,12.759,1.57,19.047c1.339,6.867,3.062,13.634,5.63,20.158
		c0.343,0.871,0.104,1.57-0.445,2.204c-0.734,0.848-1.682,1.199-2.796,0.994c-0.68-0.126-1.268-0.47-1.82-0.877
		c-1.326-0.979-2.502-2.123-3.549-3.386c-2.255-2.718-4.751-5.174-7.563-7.317c-1.955-1.49-3.516-3.381-4.979-5.331
		c-3.261-4.348-6.673-8.568-10.286-12.629c-3.55-3.989-3.182-8.503-1.451-13.037c1.042-2.729,2.693-5.175,4.647-7.367
		c2.584-2.899,4.66-6.185,7.104-9.188c0.539,1.644,0.477,3.379,0.738,5.066c0.44,2.851,1.542,5.407,3.062,7.803
		c0.391,0.615,1.025,1.172,1.887,0.909c0.882-0.27,0.996-0.997,1.11-1.842c0.61-4.517,0.521-9.085,1.118-13.608
		c0.336-2.548,0.73-5.092,1.006-7.648C82.583,256.144,82.65,255.907,82.903,255.739z"/>
	<path fill-rule="evenodd" clip-rule="evenodd" fill="#A0A0AB" d="M211.777,315.388c-6.14-0.294-11.889-3.053-16.298-8.621
		c-1.997-2.521-3.79-5.175-5.662-7.779c-0.797-1.109-0.863-2.18-0.279-3.39c2.038-4.216,3.201-8.643,3.203-13.357
		c0-0.639,0.252-1.291,0.456-1.914c0.424-1.299,1.139-1.583,2.202-0.779c1.971,1.49,3.797,3.186,5.838,4.569
		c5.64,3.824,11.909,5.59,18.717,5.049c3.013-0.239,5.616-1.774,8.166-3.317c3.007-1.819,5.978-3.688,8.873-5.687
		c2.08-1.436,3.214-0.852,3.722,1.671c0.655,3.257,0.875,6.56,0.948,9.867c0.071,3.201-1.144,6.03-3.284,8.307
		c-3.902,4.151-7.953,8.162-12.831,11.225C221.596,313.712,217.404,315.37,211.777,315.388z"/>
	<path fill-rule="evenodd" clip-rule="evenodd" fill="#E3DEE5" d="M148.511,259.906c0.875-2.141,2.131-4.123,2.571-6.446
		c0.498-2.627,0.671-5.227,0.162-7.893c-0.406-2.125-0.522-4.305-0.763-6.461c-0.509-4.558-1.485-8.834-4.56-12.585
		c-1.875-2.287-2.937-5.27-0.973-8.311c1.016-1.573,2.593-2.587,3.828-3.939c0.765-1.126,1.908-1.81,3.025-2.495
		c3.561-2.183,7.26-4.024,11.482-4.579c4.933-0.648,9.568,0.274,13.531,3.23c4.239,3.163,7.097,7.384,8.125,12.709
		c0.627,3.246-0.188,6.119-2.132,8.68c-1.605,2.115-3.571,3.873-5.889,5.205c-0.661,0.379-1.342,0.748-2.103,0.842
		c-2.38,0.295-3.785,1.776-4.626,3.857c-0.702,1.739-1.292,3.523-1.661,5.374c-0.955,4.779-1.855,9.572-3.401,14.209
		c-0.379,1.135-0.82,2.251-1.601,3.19c-0.353,0.157-0.625-0.04-0.864-0.241c-1.142-0.96-2.32-0.749-3.408,0.004
		c-1.221,0.845-1.89,2.02-1.621,3.585c0.081,0.472,0.486,0.987-0.133,1.399c-1.773,0.26-3.535,0.386-5.223-0.415
		c-0.273-0.182-0.46-0.444-0.536-0.75c-0.389-1.564-1.454-2.352-2.97-2.643c-0.155-0.03-0.287-0.122-0.411-0.223
		C147.221,263.409,147.733,261.654,148.511,259.906z"/>
	<path fill-rule="evenodd" clip-rule="evenodd" fill="#2D2D35" d="M152.179,268.529c1.764,0.704,3.603,0.58,5.439,0.493
		c0.608-0.146,0.692,0.422,0.938,0.724c1.627,1.99,3.572,1.771,4.681-0.555c0.549-1.151,0.799-2.332,0.293-3.584
		c-0.144-0.355-0.326-0.743-0.094-1.146c2.67-5.501,3.506-11.506,4.768-17.392c0.42-1.961,0.948-3.893,1.763-5.715
		c0.944-2.11,2.426-3.661,4.93-3.83c0.118-0.008,0.234-0.05,0.35-0.082c7.117-1.907,11.203-10.464,8.485-17.272
		c-2.475-6.2-6.608-10.484-13.087-12.237c-5.555-1.502-10.752-0.159-15.74,2.4c-2.175,1.116-4.158,2.511-6.128,3.936
		c-0.084-0.774,0.623-1.071,0.972-1.575c3.123-4.509,2.779-9.553-0.863-13.796c-1.861-2.168-3.585-4.455-5.377-6.682
		c-0.796-0.989-0.963-2.203-0.635-3.292c0.662-2.203,1.346-4.429,2.582-6.406c1.009-1.615,1.797-1.647,3.243-0.355
		c1.894,1.693,2.878,3.948,3.631,6.241c1.347,4.105,2.71,8.216,3.233,12.554c0.276,2.29,2.154,3.26,4.063,3.96
		c2.64,0.968,5.387,0.946,8.123,0.475c1.213-0.209,2.374-2.03,2.406-3.653c0.03-1.511-0.008-3.022,0.007-4.534
		c0.02-1.994,1.021-3.395,2.744-4.282c5.531-2.846,11.202-5.384,17.004-7.625c0.746-0.288,1.499-0.524,2.211,0.204
		c0.684,0.698,0.5,1.376,0.254,2.185c-0.937,3.083-2.67,5.79-3.999,8.687c-0.481,1.05-1.003,2.084-1.444,3.151
		c-1.007,2.437-0.577,3.934,1.565,5.471c0.751,0.539,1.096,1.262,1.095,2.141c-0.007,3.856,1.563,3.542,4.058,4.056
		c0.23,0.047,0.482-0.019,0.718,0.013c1.069,0.144,2.297,0.198,2.78,1.309c0.485,1.116-0.614,1.706-1.268,2.342
		c-2.535,2.467-4.772,5.125-6.004,8.515c-0.92,2.531-0.996,5.056-0.037,7.57c0.489,1.283,0.063,2.108-0.994,2.845
		c-2.724,1.9-5.797,3.178-8.617,4.898c-4.169,2.544-6.911,6.253-8.646,10.794c-1.871,4.897-2.768,10.022-3.549,15.154
		c-0.833,5.471-3.135,10.063-7.3,13.698c-1.973,1.722-4.329,2.67-6.916,2.921c-1.445,0.141-2.554-0.745-3.583-1.656
		c-2.369-2.099-4.384-4.51-5.983-7.229c-1.451-2.464-0.633-4.877,0.6-7.143c0.91-1.673,2-3.247,3.005-4.867
		c0.155-0.25,0.332-0.45,0.653-0.452c0.133,0.938-0.412,1.766-0.432,2.682c-0.021,0.919-0.023,1.829,0.469,2.656
		c0.028,0.406-0.323,0.526-0.566,0.699c-1.041,0.737-1.418,1.794-1.483,3.002c-0.074,1.385,0.513,2.277,1.66,2.565
		c1.37,0.345,2.655-0.232,3.225-1.42C151.636,269.564,151.592,268.885,152.179,268.529z"/>
	<path fill-rule="evenodd" clip-rule="evenodd" fill="#221F2D" d="M264.034,387.612c-1.423,0.241-3.011-0.404-4.624-0.801
		c-1.221-0.3-2.494-0.369-3.498,0.218c-2.515,1.468-4.785,0.557-7.065-0.417c-3.912-1.671-7.753-3.501-11.947-4.441
		c-1.425-0.319-2.743-1.016-3.626-2.344c-0.796-1.197-0.672-1.91,0.681-2.52c2.403-1.082,4.973-1.668,7.483-2.43
		c0.723-0.219,1.456-0.424,2.146-0.724c1.322-0.574,1.65-1.401,0.927-2.679c-0.583-1.029-1.313-1.993-2.084-2.895
		c-2.959-3.462-6.386-6.434-9.896-9.313c-1.854-1.521-2.022-2.427-0.567-4.128c1.251-1.463,2.627-2.788,3.977-4.143
		c2.38-2.386,2.977-5.279,2.5-8.476c-0.197-1.318-0.123-2.631-0.089-3.941c0.027-1.024,0.895-1.405,1.715-1.577
		c3.027-0.637,5.847-1.799,8.605-3.163c1.836-0.907,2.646-0.432,2.841,1.638c0.424,4.503,0.764,9.014,1.22,13.513
		c0.746,7.35,2.508,14.469,5.061,21.393c1.019,2.762,1.985,5.539,3.535,8.085c1.772,2.913,4.542,3.646,7.629,3.854
		c0.95,0.064,1.91-0.155,2.852,0.17c1.379,0.478,1.656,1.566,0.519,2.477C270.002,386.828,267.309,387.667,264.034,387.612z"/>
	<path fill-rule="evenodd" clip-rule="evenodd" fill="#A0A0AB" d="M216.776,340.291c-3.276,0.476-5.704-1.512-8.178-3.408
		c-3.414-2.617-6.521-5.579-9.408-8.744c-2.865-3.141-5.878-6.237-7.022-10.547c-0.619-2.33-0.979-4.694-0.884-7.111
		c0.04-1.014,0.588-1.167,1.318-0.619c2.007,1.509,3.757,3.311,5.873,4.72c5.222,3.477,10.974,4.73,17.074,4.078
		c4.868-0.52,9.052-2.986,13.052-5.697c3.381-2.292,6.389-5.064,9.669-7.483c1.555-1.146,2.204-0.742,2.472,1.154
		c0.425,3.018-0.554,5.818-1.316,8.612c-1.932,7.071-5.189,13.445-10.295,18.827c-2.153,2.271-4.378,4.371-7.339,5.513
		C220.237,340.185,218.609,340.438,216.776,340.291z"/>
	<path fill-rule="evenodd" clip-rule="evenodd" fill="#A0A0AB" d="M216.462,284.655c-4.75-0.113-8.823-2.105-12.667-4.683
		c-2.189-1.469-4.103-3.294-6.171-4.918c-2.14-1.679-1.802-3.789-1.288-5.97c0.856-3.635,1.522-7.322,2.855-10.83
		c1.009-2.655,2.16-2.367,3.829-1.1c1.805,1.371,3.474,2.908,5.652,3.738c3.538,1.35,7.04,1.243,10.579,0.03
		c3.573-1.226,6.884-2.931,9.931-5.164c0.466-0.342,1.01-0.612,1.558-0.802c0.726-0.252,1.249-0.022,1.621,0.744
		c0.97,2.003,1.244,4.177,1.619,6.316c0.505,2.883,0.93,5.784,1.771,8.59c0.749,2.498,0.602,3.484-1.478,4.965
		c-3.976,2.83-8.023,5.564-12.374,7.801C220.211,284.242,218.423,284.819,216.462,284.655z"/>
	<path fill-rule="evenodd" clip-rule="evenodd" fill="#A0A0AB" d="M204.844,232.341c0.883-0.177,1.658,0.231,2.388,0.539
		c2.802,1.183,5.695,1.657,8.728,1.623c3.042-0.035,5.865-0.842,8.618-2.022c0.072-0.031,0.129-0.096,0.2-0.131
		c2.715-1.349,3.272-0.97,3.728,2.092c0.522,3.514,1.239,6.999,1.84,10.502c0.159,0.929,0.26,1.877,0.275,2.818
		c0.012,0.708-0.137,1.542-0.877,1.8c-2.503,0.875-4.28,2.839-6.477,4.164c-2.883,1.739-5.824,3.454-9.247,3.74
		c-2.33,0.195-4.545-0.492-6.551-1.814c-2.293-1.513-4.465-3.16-6.305-5.2c-0.504-0.559-0.694-1.235-0.568-2.113
		c0.568-3.962,0.977-7.947,1.504-11.916c0.132-0.992,0.309-1.999,0.813-2.911C203.346,232.73,203.834,232.107,204.844,232.341z"/>
	<path fill-rule="evenodd" clip-rule="evenodd" fill="#A0A0AB" d="M215.533,230.415c-4.146-0.144-8.89-3.035-9.938-6.605
		c-0.328-1.119,0.177-1.945,0.396-2.827c0.617-2.488,0.771-5.026,1.121-7.542c0.291-2.09,0.712-4.154,1.498-6.107
		c0.22-0.546,0.488-1.321,1.299-1.403c0.774-0.078,1.123,0.59,1.467,1.07c1.446,2.022,3.356,3.417,5.683,4.178
		c2.74,0.896,5.554,0.879,8.375,0.35c0.678-0.127,1.387-0.27,2.06-0.2c1.094,0.114,1.88,1.409,1.683,2.956
		c-0.381,2.983-0.788,5.966-1.514,8.894c-0.659,2.663-2.448,4.024-4.987,4.891C220.174,228.923,217.75,229.993,215.533,230.415z"/>
	<path fill-rule="evenodd" clip-rule="evenodd" fill="#AD9BC4" d="M180.909,277.93c-0.059,0.872-0.117,1.743-0.176,2.615
		c-0.55,1.839-1.625,3.362-2.958,4.695c-1.748,1.748-3.377,3.629-5.382,5.101c-0.572,0.42-1.078,1.128-1.973,0.783
		c-0.071-0.021-0.14-0.049-0.207-0.082c-0.427-0.253-0.493-0.707-0.607-1.123c-0.873-3.208-1.313-6.489-1.639-9.789
		c-0.036-0.37,0.007-0.716,0.248-1.017c0.088-0.889,0.773-1.438,1.228-2.108c2.356-3.479,3.524-7.396,4.318-11.459
		c1.043-5.339,1.758-10.761,3.848-15.84c1.616-3.929,3.932-7.191,8.389-8.254c0.869,0.534,0.473,1.279,0.248,1.917
		c-0.838,2.375-1.707,4.738-2.385,7.167c-1.223,4.375-1.607,8.876-2.057,13.37c-0.343,3.431-0.125,6.871-0.276,10.301
		C181.473,275.453,181.458,276.747,180.909,277.93z"/>
	<path fill-rule="evenodd" clip-rule="evenodd" fill="#221F2D" d="M139.922,365.778c2.396,0.604,5.443,0.214,8.456,0.318
		c2.094,0.073,4.271-0.059,6.412-0.238c4.941-0.414,9.871-0.328,13.758,3.491c1.129,1.11,2.123,2.367,2.887,3.779
		c0.327,0.604,0.15,1.169-0.17,1.699c-1.446,2.391-3.077,4.638-5.104,6.583c-0.594,0.57-1.068,0.522-1.634-0.035
		c-2.868-2.824-5.573-5.797-8.174-8.867c-0.543-0.642-1.109-1.334-2.075-1.208c-0.95,0.124-1.044,0.995-1.285,1.691
		c-1.103,3.183-3.301,4.074-6.208,2.414c-1.239-0.708-2.373-1.597-3.562-2.393c-1.758-1.176-2.964-1.141-4.634,0.205
		c-0.703,0.566-1.424,0.537-2.109,0.142c-1.377-0.795-2.719-1.653-4.052-2.521c-0.822-0.534-0.972-1.097-0.165-1.892
		C134.237,367.002,136.435,365.638,139.922,365.778z"/>
	<path fill-rule="evenodd" clip-rule="evenodd" fill="#E0DBE2" d="M262.677,250.418c0.368,3.329,0.939,6.624,1.047,9.996
		c0.146,4.53-0.836,8.888-1.53,13.295c-1.107,7.018-2.021,14.06-2.678,21.133c-0.296,3.192-0.805,6.34-1.748,9.406
		c-0.488,1.584-1.293,2.979-2.758,4.324c0.163-1.986,0.271-3.703,0.449-5.414c1.34-12.951,1.022-25.94,0.84-38.922
		c-0.062-4.419-1.213-8.68-2.605-12.863c-0.474-1.421-0.1-2.843,0.112-4.25c0.118-0.784,0.392-1.545,0.596-2.317
		c1.764,2.118,3.633,4.097,6.201,5.29C261.297,250.419,262.014,250.153,262.677,250.418z"/>
	<path fill-rule="evenodd" clip-rule="evenodd" fill="#A0A0AB" d="M216.292,187.92c2.985,0.068,5.843-0.454,8.552-1.762
		c1.389-0.67,1.709-0.485,2.202,0.985c0.629,1.875,0.766,3.853,0.896,5.779c0.199,2.959,0.664,5.909,0.538,8.888
		c-0.05,1.184-0.223,2.368-0.854,3.37c-0.964,1.531-2.649,1.934-4.246,2.416c-3.003,0.906-5.269-0.756-7.557-2.247
		c-1.406-0.917-2.721-1.975-4.133-2.882c-1.315-0.845-1.322-2.228-1.409-3.463c-0.205-2.921,0.058-5.838,0.81-8.679
		c0.458-1.729,1.45-2.391,3.283-2.403C215.014,187.917,215.653,187.92,216.292,187.92z"/>
	<path fill-rule="evenodd" clip-rule="evenodd" fill="#E3DEE5" d="M272.589,242.81c-1.646,1.759-3.432,3.261-5.916,3.731
		c-1.079,0.204-2.104,0.238-3.148-0.07c-0.087-0.154-0.175-0.31-0.262-0.464c-0.268-0.685-0.868-1.045-1.418-1.455
		c-2.456-1.575-3.781-3.98-4.533-6.66c-1.086-3.868-1.091-7.869-0.972-11.854c0.031-1.04,0.158-2.125,0.501-3.099
		c0.869-2.469,2.236-2.89,4.53-1.941c2.086,0.862,3.737,2.476,4.766,4.529C268.905,231.054,271.27,236.739,272.589,242.81z"/>
	<path fill-rule="evenodd" clip-rule="evenodd" fill="#CA2928" d="M164.397,111.816c-0.1-1.438,0.101-2.834,0.465-4.225
		c0.167-0.64,0.326-1.284,1.009-1.475c0.713-0.2,1.295,0.181,1.787,0.7c1.696,1.786,3.485,3.48,5.561,4.808
		c1.615,1.032,3.364,1.852,5.005,2.846c1.533,0.927,1.79,2.028,1.612,3.799c-0.22,2.202-0.447,4.369-1.239,6.46
		c-1.348,3.558-3.861,5.991-7.225,7.599c-1.178,0.563-2.526-0.31-3.483-1.974c-1.438-2.504-2.037-5.271-2.494-8.056
		C164.826,118.832,164.475,115.333,164.397,111.816z"/>
	<path fill-rule="evenodd" clip-rule="evenodd" fill="#CA2928" d="M181.641,102.544c0.067-4.634,1.406-8.371,3.029-12.007
		c1.075-2.409,2.305-4.751,3.72-6.988c0.298-0.47,0.641-1.092,1.144-1.07c0.48,0.021,0.658,0.725,0.84,1.204
		c0.581,1.526,0.771,3.176,1.801,4.567c0.592,0.8,1.469,1.201,2.052,1.942c1.951,2.485,2.232,4.405,0.31,7.348
		c-2.495,3.818-5.647,7.114-9.393,9.775c-1.551,1.102-2.549,0.708-2.966-1.121C181.862,104.811,181.55,103.417,181.641,102.544z"/>
	<path fill-rule="evenodd" clip-rule="evenodd" fill="#221F2D" d="M180.909,277.93c0.416-8.712,0.153-17.482,2.202-26.056
		c0.725-3.033,1.763-5.967,2.895-8.869c0.208-0.532,0.456-1.038-0.008-1.554c2.615-1.731,5.133-3.65,8.195-4.562
		c1.492-0.445,2.416,0.194,2.862,1.655c0.549,1.8-0.003,3.561-0.1,5.333c-0.03,0.538-0.13,1.099-0.17,1.652
		c-0.078,0.077-0.151,0.158-0.223,0.241l0.01-0.003c-1.492,0.196-2.33,1.424-3.453,2.2c-6.184,4.27-9.41,10.232-10.274,17.639
		c-0.45,3.854-0.668,7.736-1.385,11.559C181.391,277.531,181.407,277.898,180.909,277.93z"/>
	<path fill-rule="evenodd" clip-rule="evenodd" fill="#A0A0AB" d="M211.69,175.106c-0.085-4.277-0.203-4.78,4.101-4.75
		c2.338,0.016,4.619-0.732,6.829-1.495c0.956-0.33,1.519,0.12,1.712,0.754c1.088,3.578,2.154,7.168,2.476,10.925
		c0.084,0.974-0.501,1.58-1.229,1.819c-3.021,0.993-6.122,1.315-9.29,0.786c-2.667-0.445-3.789-2.646-4.376-4.901
		C211.597,177.031,211.717,175.805,211.69,175.106z"/>
	<path fill-rule="evenodd" clip-rule="evenodd" fill="#E2DDE4" d="M23.567,389.35c1.15-0.227,2.206-0.469,3.471-0.047
		c1.256,0.419,1.443,1.061,1.464,2.13c0.093,4.554,0.389,9.096,1.216,13.58c0.735,3.982,2.053,7.789,3.739,11.467
		c0.716,1.562,1.339,3.153,1.87,4.789c0.243,0.749,0.046,1.031-0.589,1.382c-1.217,0.672-2.369,1.463-3.548,2.203
		c-2.404-2.496-3.978-5.354-4.346-8.893c-0.309-2.974-0.957-5.911-1.377-8.875c-0.248-1.747-0.356-3.515-0.505-5.274
		c-0.299-3.548-0.49-7.107-1.186-10.612C23.655,390.593,23.634,389.967,23.567,389.35z"/>
	<path fill-rule="evenodd" clip-rule="evenodd" fill="#E2DDE4" d="M33.884,432.066c1.768,0.253,3.312-0.359,4.728-1.316
		c0.718-0.485,1.003-0.412,1.331,0.427c1.862,4.76,4.287,9.249,6.849,13.657c1.841,3.168,4.315,5.819,7.186,8.097
		c0.399,0.316,0.788,0.646,1.202,0.987c-1.31,1.419-2.475,2.828-3.343,4.458c-1.474-1.276-2.945-2.561-4.015-4.215
		c-0.98-1.516-2.572-2.444-3.611-3.933c-1.04-1.488-2.293-2.789-3.063-4.505c-1.777-3.96-4.417-7.445-6.438-11.278
		C34.312,433.693,34.06,432.895,33.884,432.066z"/>
	<path fill-rule="evenodd" clip-rule="evenodd" fill="#221F2D" d="M168.216,279.113c0.34,4.03,1.013,8.006,1.998,11.929
		c-0.968,1.179-2.469,1.196-3.748,1.646c-3.019,1.062-6.136,1.611-9.327,0.914c-2.704-0.592-4.31-2.45-5.167-4.969
		c-0.224-0.656-0.674-1.291-0.538-2.054c3.096,0.718,5.989-0.069,8.779-1.301c2.878-1.27,5.306-3.163,7.221-5.683
		C167.628,279.34,167.854,279.109,168.216,279.113z"/>
	<path fill-rule="evenodd" clip-rule="evenodd" fill="#CA2928" d="M164.911,166.066c-0.376,3.138-0.274,6.39-2.198,9.17
		c-1.139,1.646-2.699,1.59-3.558-0.186c-1.831-3.783-2.929-7.785-3.387-11.956c-0.253-2.304-0.805-4.6-0.258-6.942
		c0.162-0.694,0.167-1.517,0.938-1.779c0.723-0.246,1.245,0.323,1.735,0.805c1.952,1.918,3.808,3.908,5.323,6.212
		C164.455,162.834,165.021,164.323,164.911,166.066z"/>
	<path fill-rule="evenodd" clip-rule="evenodd" fill="#E2DDE4" d="M83.954,478.572c0.256-0.921,0.469-1.856,0.78-2.759
		c0.269-0.782,0.66-1.526,1.721-1.023c8.296,3.94,17.367,5.053,26.162,7.172c0.311,0.074,0.621,0.198,0.934,0.208
		c3.096,0.094,4.045,2.304,4.739,4.772c-2.214-0.235-4.434-0.434-6.643-0.715c-4.544-0.579-9.009-1.562-13.226-3.363
		C93.753,480.869,88.76,480.054,83.954,478.572z"/>
	<path fill-rule="evenodd" clip-rule="evenodd" fill="#221F2D" d="M111.322,358.67c-0.209-1.632,0.584-3.231,2.83-4.354
		c2.047-1.022,3.888-2.472,5.966-3.491c0.574-0.281,1.198-0.73,1.771-0.234c0.536,0.462,0.288,1.199,0.201,1.815
		c-0.462,3.255-1.071,6.49-1.138,9.793c-0.023,1.168,0.165,2.291,0.468,3.409c0.246,0.906,0.1,1.502-1.025,1.671
		c-2.442,0.365-4.755-0.015-6.933-1.097c-0.986-0.49-1.361-1.554-1.604-2.563C111.525,362.231,111.368,360.809,111.322,358.67z"/>
	<path fill-rule="evenodd" clip-rule="evenodd" fill="#E3DEE5" d="M22.835,359.579c1.454,0.136,2.906,0.287,4.362,0.399
		c0.514,0.04,0.71,0.258,0.648,0.758c-0.633,5.1-0.353,10.241-0.695,15.355c-0.111,1.654-0.226,3.337,0.12,4.996
		c0.132,0.634-0.021,1.092-0.66,1.48c-1.207,0.734-2.147,2.012-3.817,1.692c-0.801-2.397-1.189-4.88-1.427-7.382
		c-0.473-5.001,0.977-9.91,0.753-14.909C22.085,361.186,22.317,360.292,22.835,359.579z"/>
	<path fill-rule="evenodd" clip-rule="evenodd" fill="#CA2928" d="M214.067,90.713c-1.667,0.016-3.087,0.095-4.405-0.651
		c-1.056-0.597-1.363-1.334-0.77-2.438c0.99-1.843,2.673-2.995,4.256-4.21c2.743-2.105,5.583-4.085,8.522-5.914
		c0.548-0.34,1.144-0.821,1.8-0.5c0.718,0.35,0.425,1.127,0.443,1.736c0.081,2.662-0.354,5.285-0.762,7.894
		c-0.385,2.459-2.519,3.077-4.516,3.555C217.075,90.559,215.473,90.958,214.067,90.713z"/>
	<path fill-rule="evenodd" clip-rule="evenodd" fill="#CA2928" d="M37.421,266.094c-0.135-0.852,0.207-1.3,1.004-1.64
		c3.557-1.515,7.283-2.409,11.068-3.071c1.288-0.226,1.76,0.581,1.154,1.851c-1.362,2.852-3.238,5.378-5.114,7.896
		c-1.174,1.575-2.425,3.096-3.657,4.628c-0.685,0.851-1.357,0.726-1.776-0.212C38.753,272.523,37.941,269.342,37.421,266.094z"/>
	<path fill-rule="evenodd" clip-rule="evenodd" fill="#E2DDE4" d="M58.782,464.166c0.812-1.387,1.882-2.572,2.909-3.797
		c0.389-0.463,0.631-0.441,1.043-0.056c4.566,4.284,9.766,7.718,15.01,11.084c0.546,0.351,0.675,0.654,0.446,1.244
		c-0.418,1.078-0.771,2.181-1.152,3.272c-2.859-1.098-5.455-2.688-8.034-4.307c-3.248-2.04-6.322-4.33-9.43-6.571
		C59.263,464.812,59.044,464.459,58.782,464.166z"/>
	<path fill-rule="evenodd" clip-rule="evenodd" fill="#CA2928" d="M68.35,235.158c0.999,0.159,1.984,0.237,2.965,0.329
		c0.906,0.084,1.262,0.791,0.992,1.733c-0.646,2.247-2.265,3.852-3.708,5.552c-1.363,1.605-3.012,2.927-4.677,4.214
		c-0.84,0.648-1.498,0.662-2.091-0.42c-1.373-2.504-2.255-5.181-2.977-7.918c-0.227-0.861,0.1-1.543,0.962-1.925
		c1.785-0.79,3.695-1.065,5.603-1.25C66.398,235.377,67.389,235.348,68.35,235.158z"/>
	<path fill-rule="evenodd" clip-rule="evenodd" fill="#CA2928" d="M18.245,400.697c-0.072,1.375,0.083,2.837-0.219,4.304
		c-0.256,1.249-0.844,1.808-2.124,1.537c-2.4-0.507-4.671-1.371-6.729-2.718c-1.459-0.955-1.751-2.674-0.582-4.013
		c2.386-2.734,4.795-5.441,6.813-8.473c0.563-0.846,1.073-0.193,1.398,0.263c0.849,1.191,0.881,2.657,1.187,4.024
		C18.359,397.266,18.218,398.943,18.245,400.697z"/>
	<path fill-rule="evenodd" clip-rule="evenodd" fill="#A0A0AB" d="M217.008,155.28c3.593-0.001,4.941,1.203,5.472,4.542
		c0.426,2.685,0.09,3.347-2.448,4.578c-1.188,0.577-2.402,1.108-3.631,1.598s-2.478,0.029-3.271-1.031
		c-1.358-1.815-2.272-3.861-2.58-6.062c-0.313-2.238-0.327-2.905,2.703-3.333C214.604,155.382,216.011,155.42,217.008,155.28z"/>
	<path fill-rule="evenodd" clip-rule="evenodd" fill="#E2DDE4" d="M44.881,285.353c0.721,0.688,1.363,1.494,2.18,2.037
		c1.425,0.946,1.377,1.977,0.746,3.409c-2.299,5.216-4.887,10.305-6.881,15.652c-0.224,0.601-0.507,0.538-0.989,0.32
		c-1.089-0.49-2.188-0.978-3.404-1.082c2.067-6.751,4.552-13.334,7.866-19.583C44.538,285.844,44.719,285.604,44.881,285.353z"/>
	<path fill-rule="evenodd" clip-rule="evenodd" fill="#E3DEE5" d="M34.074,314.141c1.365,0.436,3.18,0.616,3.83,1.708
		c0.62,1.039-0.366,2.633-0.639,3.983c-0.835,4.136-1.676,8.269-3.133,12.249c-0.287,0.783-0.519,0.983-1.325,0.627
		c-1.525-0.676-3.104-1.229-4.661-1.833C29.817,325.188,31.666,319.565,34.074,314.141z"/>
	<path fill-rule="evenodd" clip-rule="evenodd" fill="#E2DDE4" d="M27.138,334.111c1.701,0.425,3.271,1.208,4.916,1.787
		c0.625,0.22,0.512,0.55,0.343,1c-1.918,5.096-2.922,10.406-3.721,15.769c-0.145,0.969,0.219,2.323-0.555,2.803
		c-0.631,0.392-1.821-0.13-2.765-0.229c-0.515-0.054-1.034-0.07-1.55-0.104c0.645-2.641,0.971-5.336,1.406-8.014
		c0.673-4.151,0.512-8.413,1.674-12.496C26.936,334.446,27.052,334.283,27.138,334.111z"/>
	<path fill-rule="evenodd" clip-rule="evenodd" fill="#CA2928" d="M252.973,168.065c0.137-0.87,0.219-2.102,0.543-3.268
		c0.352-1.267,1.468-1.597,2.376-0.652c2.242,2.334,4.869,4.135,7.562,5.877c0.83,0.537,0.962,1.255,0.197,2.062
		c-2.217,2.341-4.704,4.348-7.359,6.164c-0.882,0.604-1.446,0.406-1.855-0.542c-0.585-1.354-0.697-2.819-0.946-4.238
		C253.197,171.801,253.154,170.091,252.973,168.065z"/>
	<path fill-rule="evenodd" clip-rule="evenodd" fill="#A0A0AB" d="M200.481,149.517c2.188,0.012,3.18,1.705,2.966,3.58
		c-0.36,3.151-2.474,5.252-4.252,7.542c-1.141,1.468-2.535,2.739-3.811,4.103c-0.568,0.607-1.245,1.163-2.069,0.766
		c-0.929-0.448-0.883-1.592-0.765-2.31c0.738-4.464,2.435-8.534,5.516-11.931C198.861,150.39,199.717,149.563,200.481,149.517z"/>
	<path fill-rule="evenodd" clip-rule="evenodd" fill="#CA2928" d="M18.94,344.047c-0.374,2.583-1.016,5.49-1.831,8.361
		c-0.171,0.603-0.332,1.209-0.533,1.801c-0.403,1.188-1.052,1.375-1.86,0.445c-1.813-2.086-3.64-4.168-5.317-6.361
		c-1.784-2.333-1.692-2.346,1.012-3.613c1.961-0.92,3.887-1.922,5.779-2.976c1.823-1.015,2.339-0.823,2.745,1.248
		C18.979,343.183,18.94,343.43,18.94,344.047z"/>
	<path fill-rule="evenodd" clip-rule="evenodd" fill="#E0DBE2" d="M123.881,486.936c0.009-0.439-0.003-0.88,0.03-1.316
		c0.092-1.214,0.771-1.747,1.952-1.59c2.659,0.355,5.329,0.362,8.009,0.338c2.029-0.019,4.059,0.27,6.09,0.386
		c4.879,0.278,9.742,0.023,14.597-0.464c0.593-0.06,1.197-0.023,1.785-0.107c0.762-0.109,1.477-0.073,1.914,0.634
		c0.493,0.796,0.076,1.441-0.49,2.018c-0.193,0.121-0.389,0.352-0.58,0.348c-2.579-0.056-5.163,0.21-7.737-0.132
		c-0.35-0.047-0.705-0.082-1.057-0.082c-3.547-0.006-7.096,0.027-10.643-0.012c-4.048-0.045-8.095-0.146-12.143-0.239
		C125.016,486.703,124.444,486.763,123.881,486.936z"/>
	<path fill-rule="evenodd" clip-rule="evenodd" fill="#CA2928" d="M29.167,444.48c-1.417-0.054-3.664-0.838-5.829-1.907
		c-0.823-0.406-1.12-1.033-0.764-1.913c0.896-2.217,1.744-4.453,2.706-6.641c0.708-1.61,1.629-1.647,2.599-0.169
		c1.595,2.431,3.124,4.895,4.236,7.604C33.154,443.981,32.875,444.48,29.167,444.48z"/>
	<path fill-rule="evenodd" clip-rule="evenodd" fill="#CA2928" d="M30.957,298.877c-0.662,2.594-1.112,5.348-2.117,7.952
		c-0.311,0.806-0.655,1.601-1.03,2.378c-0.519,1.073-1.069,1.173-1.84,0.241c-1.202-1.452-2.325-2.97-3.175-4.667
		c-0.159-0.317-0.319-0.634-0.478-0.951c-1.023-2.055-0.926-2.232,1.008-3.617c1.784-1.278,3.758-2.111,5.813-2.797
		C30.274,297.037,30.927,297.534,30.957,298.877z"/>
	<path fill-rule="evenodd" clip-rule="evenodd" fill="#CA2928" d="M102.006,491.801c-0.213,2.032-1.185,3.696-2.643,5.092
		c-0.474,0.453-1.056,0.481-1.609,0.07c-2.875-2.135-4.901-4.989-6.606-8.063c-0.529-0.955,0.395-1.46,1.235-1.433
		c2.292,0.076,4.481,0.675,6.583,1.591c0.683,0.297,1.39,0.55,2.04,0.905C101.695,490.341,102.189,490.893,102.006,491.801z"/>
	<path fill-rule="evenodd" clip-rule="evenodd" fill="#E0DBE2" d="M59.256,262.891c0.502,1.081,2.082,1.817,1.891,2.854
		c-0.184,0.998-1.511,1.759-2.262,2.683c-2.708,3.331-4.534,7.196-6.558,10.941c-0.202,0.375-0.412,0.746-0.632,1.145
		c-0.965-0.582-1.542-1.587-2.609-1.913c0.347-1.471,1.494-2.448,2.305-3.617c2.527-3.643,4.776-7.459,7.166-11.188
		C58.762,263.477,59.021,263.191,59.256,262.891z"/>
	<path fill-rule="evenodd" clip-rule="evenodd" fill="#E2DDE4" d="M73.17,257.477c-0.903,0.892-1.864,1.734-2.688,2.694
		c-0.534,0.622-0.778,0.644-1.306-0.005c-1.154-1.416-2.058-3.035-3.44-4.264c-0.141-0.125-0.327-0.199-0.492-0.298
		c0.086-1.238,1.202-1.705,1.914-2.438c0.919-0.946,2.009-1.725,3.018-2.583c0.508-0.433,1.154-0.765,1.704-0.407
		c0.521,0.339,0.739,1.021,0.856,1.703c0.255,1.486,0.207,2.979,0.234,4.472C72.978,256.727,73.101,257.102,73.17,257.477z"/>
	<path fill-rule="evenodd" clip-rule="evenodd" fill="#CA2928" d="M54.721,472.667c-0.001-0.279-0.004-0.558,0-0.837
		c0.023-1.748,0.759-2.248,2.245-1.384c2.632,1.53,4.714,3.67,6.482,6.133c0.775,1.081-0.392,1.325-0.811,1.428
		c-1.758,0.432-3.573,0.727-5.386,0.513c-0.843-0.1-1.589-0.55-1.836-1.572C55.074,475.534,54.635,474.146,54.721,472.667z"/>
	<path fill-rule="evenodd" clip-rule="evenodd" fill="#A0A0AB" d="M209.876,145.392c2.303,0.407,4.775,0.428,6.278,2.719
		c0.909,1.385,0.712,2.022-0.818,2.682c-3.68,1.584-7.275-0.122-9.245-3.149c-0.448-0.689-0.072-1.147,0.489-1.46
		C207.59,145.621,208.686,145.353,209.876,145.392z"/>
	<path fill-rule="evenodd" clip-rule="evenodd" fill="#221F2D" d="M195.794,228.24c-1.957-0.006-2.687-1.001-2.097-2.84
		c0.787-2.455,2.168-4.516,4.112-6.2c0.459-0.397,0.975-0.785,1.612-0.407c0.593,0.353,0.408,0.882,0.345,1.474
		c-0.215,2.021-0.52,4.016-1.129,5.957C198.203,227.607,197.302,228.358,195.794,228.24z"/>
	<path fill-rule="evenodd" clip-rule="evenodd" fill="#CA2928" d="M139.731,493.212c2.067,0.236,4.137,0.453,6.201,0.721
		c0.84,0.108,1.061,0.681,0.617,1.346c-0.772,1.158-1.775,2.131-2.797,3.072c-0.716,0.66-1.458,0.766-2.326,0.161
		c-1.522-1.058-3.072-2.074-4.325-3.46c-0.731-0.808-0.587-1.375,0.408-1.574C138.238,493.331,138.99,493.297,139.731,493.212z"/>
	<path fill-rule="evenodd" clip-rule="evenodd" fill="#CA2928" d="M253.461,123.122c1.114,0.08,2.57-0.42,3.197,1.188
		c0.608,1.559-0.808,2.161-1.579,3.03c-0.71,0.8-1.489,1.538-2.369,2.169c-1.112,0.797-1.838,0.66-2.377-0.619
		c-0.584-1.384-0.624-2.87-0.438-4.324c0.107-0.835,0.764-1.378,1.666-1.437C252.157,123.09,252.76,123.122,253.461,123.122z"/>
	<path fill-rule="evenodd" clip-rule="evenodd" fill="#CA2928" d="M246.053,94.56c1.376,0.012,1.776,0.467,1.377,1.805
		c-0.677,2.269-1.842,4.334-2.925,6.422c-0.325,0.627-1.062,0.769-1.472-0.043c-0.965-1.907-1.264-3.943-0.829-6.035
		C242.398,95.771,244.736,94.548,246.053,94.56z"/>
	<path fill-rule="evenodd" clip-rule="evenodd" fill="#A0A0AB" d="M189.36,176.495c-0.114-1.546,0.332-3.062,1.129-4.491
		c0.465-0.832,1.339-0.947,1.849-0.152c1.232,1.917,1.933,3.972,1.343,6.296c-0.327,1.289-1.188,1.842-2.83,1.593
		c-1.11-0.169-1.486-1.02-1.492-2.064C189.358,177.318,189.36,176.96,189.36,176.495z"/>
	<path fill-rule="evenodd" clip-rule="evenodd" fill="#CA2928" d="M80.4,394.985c0.108-2.343,4.16-5.683,6.055-4.992
		c1.422,0.519,1.627,1.141,0.772,2.435c-1.221,1.847-2.962,3.028-5.019,3.732C81.046,396.56,80.351,396.049,80.4,394.985z"/>
	<path fill-rule="evenodd" clip-rule="evenodd" fill="#221F2D" d="M204.961,202.622c-0.006,3.36-1.525,4.963-4.178,4.732
		c-0.692-0.06-1.406-0.265-1.726-0.892c-0.35-0.686,0.062-1.349,0.559-1.824c1.23-1.178,2.485-2.335,3.788-3.433
		c0.72-0.607,1.265-0.263,1.485,0.572C204.988,202.155,204.957,202.566,204.961,202.622z"/>
	<path fill-rule="evenodd" clip-rule="evenodd" fill="#CA2928" d="M279.847,381.863c2.988,0.811,5.51,2.202,7.925,3.79
		c0.612,0.402,1.784,0.798,1.29,1.693c-0.477,0.865-1.45,0.08-2.071-0.221c-2.28-1.104-4.559-2.13-7.11-2.49
		c-0.811-0.114-1.621-0.67-1.417-1.736C278.615,382.105,279.354,381.997,279.847,381.863z"/>
	<path fill-rule="evenodd" clip-rule="evenodd" fill="#E0DBE2" d="M164.665,485.506c-0.771-1.236-0.399-2.238,0.993-2.225
		c4.626,0.048,9.125-0.977,13.687-1.464c0.224-0.024,0.461,0.071,0.692,0.111c-3.422,0.861-6.611,2.54-10.114,3.061
		C168.192,485.247,166.409,485.225,164.665,485.506z"/>
	<path fill-rule="evenodd" clip-rule="evenodd" fill="#CA2928" d="M188.477,486.259c1.175-0.162,2.373,0.09,3.535,0.493
		c0.415,0.145,0.958,0.255,0.947,0.908c-0.011,0.617-0.444,1.03-0.895,1.152c-2.37,0.646-4.686,0.436-6.891-0.691
		c-0.328-0.167-0.418-0.472-0.361-0.814c0.074-0.436,0.36-0.693,0.77-0.812C186.506,486.229,187.452,486.191,188.477,486.259z"/>
	<path fill-rule="evenodd" clip-rule="evenodd" fill="#CA2928" d="M131.04,398.159c0-1.281,0.667-2.146,1.664-2.158
		c1.499-0.018,3.648,1.725,3.616,2.932c-0.028,1.03-1.003,1.7-2.565,1.614C131.748,400.438,130.882,399.452,131.04,398.159z"/>
	<path fill-rule="evenodd" clip-rule="evenodd" fill="#CA2928" d="M208.235,396.959c-1.115,0.026-2.907-1.213-3.21-2.273
		c-0.194-0.685-0.105-1.311,0.526-1.808c0.63-0.495,1.103-0.11,1.61,0.175c0.92,0.516,1.587,1.283,2.101,2.185
		C209.828,396.229,209.399,396.932,208.235,396.959z"/>
	<path fill-rule="evenodd" clip-rule="evenodd" fill="#CA2928" d="M256.241,148.947c0.022,0.896-1.369,2.435-2.248,2.489
		c-0.886,0.054-1.854-1.079-1.705-2.271c0.114-0.916,0.23-2.053,1.634-2.046C254.909,147.124,256.222,148.151,256.241,148.947z"/>
	<path fill-rule="evenodd" clip-rule="evenodd" fill="#CA2928" d="M234.312,476.887c-0.637,0.035-1.569-0.176-1.406-0.991
		c0.202-1.014,1.214-1.424,2.299-1.423c0.743,0,1.533,0.11,1.39,1.006C236.419,476.57,235.488,476.909,234.312,476.887z"/>
	<path fill-rule="evenodd" clip-rule="evenodd" fill="#CA2928" d="M258.698,394.284c-1.181-0.112-1.416-1.062-1.54-1.944
		c-0.052-0.361,0.261-0.925,0.923-0.867c0.735,0.064,1.854,1.316,1.753,2.004C259.754,394.018,259.305,394.337,258.698,394.284z"/>
	<path fill-rule="evenodd" clip-rule="evenodd" fill="#2C2C34" d="M261.845,244.551c0.773,0.192,1.819,0.119,1.418,1.455
		C262.526,245.778,262.021,245.324,261.845,244.551z"/>
	<path fill-rule="evenodd" clip-rule="evenodd" fill="#2C2C34" d="M196.562,245.771c0.074-0.08,0.148-0.16,0.223-0.241
		C196.711,245.61,196.637,245.69,196.562,245.771z"/>
	<path fill-rule="evenodd" clip-rule="evenodd" fill="#E2DDE4" d="M117.405,328.899c-0.015,1.918-1.378,3.584-3.031,3.902
		c-1.587,0.306-3.54-0.728-3.961-2.399c-2.317-9.175-7.095-17.325-10.672-25.975c-1.603-3.875-3.655-7.524-5.316-11.363
		c-0.69-1.594-1.225-3.224-0.915-4.99c0.301-1.714,1.828-3.34,3.416-3.644c1.871-0.358,3.375,0.367,4.312,1.924
		c1.368,2.271,2.116,4.831,2.618,7.407c0.462,2.375,1.153,4.661,2.119,6.847c2.291,5.185,4.648,10.342,7.071,15.466
		c1.82,3.85,2.708,8.013,4.223,11.962C117.392,328.362,117.382,328.741,117.405,328.899z"/>
	<path fill-rule="evenodd" clip-rule="evenodd" fill="#E2DDE4" d="M170.42,291.124c1.408-0.376,2.375-1.417,3.367-2.356
		c2.618-2.479,5.283-4.933,6.946-8.223c-0.197,7.015,1.118,13.912,1.602,20.873c0.313,4.497,0.512,9.001,1.023,13.482
		c0.163,1.427,0.337,2.853,0.561,4.271c0.08,0.505,0.062,0.84-0.483,1.034c-0.499,0.178-0.794,0.065-1.087-0.391
		c-1.508-2.343-3.242-4.542-4.462-7.07c-0.407-0.844-0.536-1.752-0.75-2.64c-0.782-3.241-2.223-6.227-3.575-9.245
		c-1.308-2.918-2.161-5.991-3.141-9.021C170.35,291.623,170.417,291.363,170.42,291.124z"/>
	<path fill-rule="evenodd" clip-rule="evenodd" fill="#E2DDE4" d="M100.403,377.195c-0.04,1.355-0.421,2.566-1.775,3.133
		c-1.345,0.562-2.426,0.03-3.45-0.938c-3.551-3.358-6.136-7.443-8.778-11.487c-0.808-1.234-0.581-2.558-0.033-3.786
		c0.507-1.141,2.741-1.208,4.187-0.198c0.801,0.56,1.4,1.318,1.882,2.149c1.817,3.132,3.98,5.978,6.7,8.39
		C99.937,375.168,100.459,376.058,100.403,377.195z"/>
	<path fill-rule="evenodd" clip-rule="evenodd" fill="#E2DDE4" d="M100.248,342.951c2.044-0.014,3.154,1.99,2.098,3.827
		c-0.627,1.092-1.54,1.976-2.517,2.712c-3.179,2.394-5.915,5.235-8.612,8.131c-0.592,0.637-1.272,1.186-1.859,1.842
		c-0.838,0.937-1.955,1.14-3.034,0.442c-1.084-0.701-1.296-1.776-0.828-2.955c0.175-0.439,0.414-0.876,0.711-1.242
		c2.305-2.839,4.316-5.937,7.381-8.098c1.564-1.104,3.066-2.298,4.42-3.672C98.6,343.339,99.338,342.909,100.248,342.951z"/>
	<path fill-rule="evenodd" clip-rule="evenodd" fill="#E0DBE2" d="M105.92,380.009c3.926,1.107,8.243,1.305,11.787,3.809
		c1.394,0.985,2.658,2.168,3.911,3.336c0.663,0.618,0.855,1.461,0.309,2.291c-0.544,0.825-1.338,0.929-2.224,0.636
		c-1.369-0.453-2.438-1.383-3.445-2.339c-1.922-1.825-4.239-2.923-6.674-3.803c-1.553-0.562-2.995-1.313-4.377-2.189
		c-0.422-0.268-0.91-0.646-0.636-1.265C104.806,379.956,105.352,380.025,105.92,380.009z"/>
	<path fill-rule="evenodd" clip-rule="evenodd" fill="#E0DBE2" d="M112.188,375.808c3.748,0.538,7.888,0.272,11.635,2.185
		c0.283,0.145,0.586,0.261,0.843,0.442c0.45,0.319,0.76,0.742,0.541,1.326c-0.21,0.561-0.703,0.78-1.249,0.74
		c-0.752-0.055-1.548-0.071-2.237-0.335c-2.834-1.081-5.837-1.263-8.787-1.58c-2.239-0.241-4.534,0.041-6.804,0.088
		c-0.716,0.015-1.591,0.146-1.735-0.814c-0.151-1.012,0.741-1.206,1.481-1.371C107.868,376.046,109.9,375.942,112.188,375.808z"/>
	<path fill-rule="evenodd" clip-rule="evenodd" fill="#E2DDE4" d="M109.996,341.865c-2.139,0.033-4.124-1.867-4.168-3.992
		c-0.03-1.427,2.223-3.387,3.935-3.424c2.366-0.051,4.09,1.501,4.128,3.719C113.926,340.209,112.218,341.831,109.996,341.865z"/>
	<path fill-rule="evenodd" clip-rule="evenodd" fill="#E3DEE5" d="M129.396,274.529c0.167,0.081,0.198,0.212,0.137,0.376
		c-0.108-0.069-0.216-0.138-0.324-0.207C129.271,274.643,129.333,274.586,129.396,274.529z"/>
	<path fill-rule="evenodd" clip-rule="evenodd" d="M170.178,230.461c0.388,0.493,0.243,0.755-0.353,0.646
		c-0.974-0.178-1.967-0.125-2.93-0.261c-2.152-0.303-3.46,0.638-3.897,2.65c-0.905,4.169-1.642,8.375-2.435,12.568
		c-0.339,1.793-0.639,3.594-0.972,5.388c-0.104,0.561-0.4,0.832-1.047,0.81c-0.654-0.021-0.846-0.433-0.843-0.882
		c0.027-3.206-0.132-6.407,0.377-9.611c0.343-2.156,0.387-4.369,0.813-6.521c1.042-5.265,1.732-10.653,4.346-15.452
		c1.613-2.962,3.697-5.617,6.407-7.703c0.51-0.392,1.163-0.711,1.722-0.244c0.549,0.458,0.248,1.113-0.054,1.617
		c-1.152,1.924-2.343,3.827-3.515,5.739c-0.242,0.395-0.529,0.778-0.68,1.207c-0.139,0.394-0.261,0.9,0.173,1.204
		c0.4,0.279,0.774,0.451,1.378,0.183c1.974-0.877,3.746-2.182,5.89-2.705c3.032-0.739,4.729,0.617,4.208,3.655
		c-0.487,2.843-1.82,5.336-3.902,7.386c-0.605,0.595-1.356,0.539-2.106,0.463c-0.015-0.001-0.003-0.255-0.004-0.392
		c-0.122-0.626,0.311-1.052,0.595-1.505c0.838-1.337,1.335-2.795,1.646-4.325c0.27-1.326-0.207-1.744-1.461-1.326
		c-1.929,0.643-3.528,1.82-5.023,3.144c-0.788,0.698-0.745,1.307-0.046,2.178C169.027,229.077,169.918,229.511,170.178,230.461z"/>
	<path fill-rule="evenodd" clip-rule="evenodd" d="M163.436,264.462c0.885,1.749,0.918,3.459-0.055,5.22
		c-1.245,2.253-3.7,2.375-5.159,0.196c-0.194-0.29-0.24-0.686-0.604-0.855c-0.727-3.12,0.098-4.771,2.688-5.635
		C161.686,262.927,162.529,263.709,163.436,264.462z"/>
	<path fill-rule="evenodd" clip-rule="evenodd" fill="#CA2928" d="M170.178,230.461c-0.661-0.637-1.342-1.253-1.979-1.914
		c-0.957-0.993-0.909-1.853,0.182-2.715c1.607-1.27,3.232-2.509,5.228-3.155c0.521-0.168,0.965-0.329,1.447,0.023
		c0.516,0.378,0.456,0.935,0.354,1.424c-0.46,2.209-1.307,4.26-2.656,6.084C171.917,230.524,171.05,230.516,170.178,230.461z"/>
	<path fill-rule="evenodd" clip-rule="evenodd" d="M152.179,268.529c-0.346,1.206-0.461,2.509-1.863,3.134
		c-2.176,0.969-4.207-0.306-4.156-2.671c0.038-1.732,0.761-3.029,2.389-3.748C150.507,265.144,151.283,265.846,152.179,268.529z"/>
	<path fill-rule="evenodd" clip-rule="evenodd" fill="#E2DDE4" d="M173.198,203.436c0.073-0.973,0.157-2.287,0.278-3.597
		c0.079-0.861,0.575-1.414,1.324-1.855c2.011-1.184,4.25-1.792,6.39-2.647c0.764-0.305,1.478-0.356,2.103,0.268
		c0.608,0.608,0.635,1.329,0.377,2.107c-0.777,2.347-1.528,4.703-1.83,7.17c-0.096,0.79-0.144,1.585-0.198,2.379
		c-0.102,1.468-1.016,2.367-2.458,2.401C176.053,209.736,173.145,206.879,173.198,203.436z"/>
	<path fill-rule="evenodd" clip-rule="evenodd" fill="#E0DBE2" d="M185.162,207.324c1.85,0.01,2.608,1.099,2.06,2.493
		c-0.421,1.071-0.829,2.158-1.368,3.17c-0.602,1.13-1.628,1.371-2.735,0.737c-1.043-0.598-1.701-1.547-2.14-2.637
		c-0.2-0.497-0.143-1.043,0.216-1.472C182.324,208.267,183.884,207.717,185.162,207.324z"/>
	<path fill-rule="evenodd" clip-rule="evenodd" fill="#E0DBE2" d="M184.759,217.336c-0.021-0.813,0.289-1.279,0.866-1.466
		c1.397-0.454,2.798-0.919,4.229-1.243c1.137-0.258,1.772,0.611,1.245,1.668c-0.887,1.784-2.376,3.169-3.326,4.935
		c-0.427,0.794-1.622,0.552-1.999-0.407C185.313,219.648,185.057,218.392,184.759,217.336z"/>
	<path fill-rule="evenodd" clip-rule="evenodd" fill="#CA2928" d="M225.955,390.33c-0.781-0.662-0.803-3.417,0.008-4.381
		c0.639-0.758,1.479-0.896,2.123-0.353"/>
	<path fill-rule="evenodd" clip-rule="evenodd" fill="#CA2928" d="M178.531,398.572c-0.401-1.041,0.161-3.146,1.058-3.788
		c0.579-0.414,1.198-0.542,1.879-0.114c0.678,0.426,0.476,1.001,0.378,1.575c-0.175,1.039-0.673,1.927-1.348,2.714
		C179.756,399.825,178.949,399.659,178.531,398.572z"/>
</g>
<path fill-rule="evenodd" clip-rule="evenodd" fill="#CA2928" d="M273.301,448.477c0.744,0,1.533,0.11,1.391,1.006
	c-0.176,1.092-1.105,1.431-2.283,1.408"/>
</svg>
