<?xml version="1.0" encoding="utf-8"?>
<!-- Generator: Adobe Illustrator 16.0.0, SVG Export Plug-In . SVG Version: 6.00 Build 0)  -->
<!DOCTYPE svg PUBLIC "-//W3C//DTD SVG 1.1//EN" "http://www.w3.org/Graphics/SVG/1.1/DTD/svg11.dtd">
<svg version="1.1" id="Layer_1" xmlns="http://www.w3.org/2000/svg" xmlns:xlink="http://www.w3.org/1999/xlink" x="0px" y="0px"
	 width="670.082px" height="406.857px" viewBox="0 0 670.082 406.857" enable-background="new 0 0 670.082 406.857"
	 xml:space="preserve">
<g>
	<g>
		<path fill="#040303" d="M664.884,138.043c-0.741-2.113-1.609-4.179-2.276-6.32c-4.757-15.277-11.84-29.562-19.646-43.403
			c-5.557-9.849-11.043-19.805-18.064-28.825c-7.178-9.218-14.798-17.771-24.767-24.115c-11.379-7.242-23.346-13.283-35.765-18.463
			c-8.278-3.453-16.706-6.501-25.576-8.068c-3.056-0.54-6.15-1.082-9.291-0.79c-2.303,0.214-3.796,1.415-4.567,3.641
			c-0.776,2.24,0.306,3.676,1.869,4.978c1.108,0.921,2.283,1.753,3.458,2.586c3.526,2.501,6.935,5.167,10.042,8.167
			c7.103,6.857,11.749,15.286,15.393,24.353c1.49,3.71,2.211,7.522,1.849,11.494c-0.785,8.594-0.719,17.227-1.315,25.835
			c-0.884,12.772-2.349,25.416-4.829,38.005c-3.337,16.93-9.478,32.85-16.025,48.671c-1.35,3.259-3.02,6.408-5.893,8.63
			c-1.245,0.964-2.858,3.081-4.143,1.819c-1.207-1.188,0.336-3.3,1.444-4.643c1.627-1.971,3.417-3.83,5.475-5.361
			c1.94-1.444,2.348-3.197,1.837-5.481c-0.804-3.594-2.519-6.382-5.591-8.59c-4.815-3.46-4.771-4.221-0.863-8.456
			c3.625-3.928,2.87-7.804-1.983-10.171c-1.077-0.525-2.2-0.959-3.18-1.674c-2.693-1.967-2.968-3.908-0.898-6.482
			c0.451-0.562,0.965-1.069,1.479-1.571c2.521-2.456,5.227-4.707,7.808-7.095c1.831-1.695,1.928-2.853,0.304-4.695
			c-2.102-2.381-4.628-3.651-7.883-2.957c-1.949,0.415-3.836-0.051-5.686-0.519c-3.075-0.778-4.047-2.487-3.217-5.521
			c0.653-2.389,1.602-4.72,1.736-7.214c0.188-3.467,1.402-6.275,4.229-8.482c2.286-1.787,1.66-4.989-1.007-6.205
			c-0.965-0.439-1.995-0.564-3.043-0.574c-2.575-0.024-5.12,0.334-7.591,0.98c-2.545,0.665-4.739,0.112-6.809-1.33
			c-1.246-0.869-2.432-1.823-3.65-2.728c-1.88-1.395-2.443-3.247-2.104-5.498c0.368-2.443,1.506-4.527,2.837-6.547
			c0.799-1.211,1.64-2.464,0.646-3.968c-0.964-1.462-2.354-2.04-4.095-2.036c-2.207,0.005-4.018,1.009-5.753,2.162
			c-6.189,4.113-12.482,8.069-18.03,13.097c-3.817,3.46-7.069,2.531-8.791-2.233c-0.312-0.86-0.655-1.581-1.552-1.998
			c-3.281-1.525-8.062-0.284-10.1,2.72c-1.529,2.254-2.688,4.722-4.01,7.097c-2.635,4.736-4.359,9.611-3.155,15.131
			c0.115,0.529,0.205,1.204-0.412,1.488c-0.582,0.269-1.07-0.188-1.501-0.534c-1.436-1.156-2.592-2.613-4.009-3.788
			c-2.59-2.148-5.882-1.919-8.179,0.528c-1.309,1.393-1.979,3.094-2.303,4.932c-1.226,6.972-1.08,13.951,1.362,20.587
			c1.503,4.083,2.375,7.846,0.353,11.902c-0.386,0.772-0.387,1.709-0.549,2.574c-0.144,0.757-0.104,1.621-0.896,2.062
			c-0.422,0.056-0.628-0.208-0.844-0.436c-2.768-2.917-5.198-2.408-6.561,1.381c-1.117,3.108-1.723,6.343-2.01,9.607
			c-0.754,8.571-0.428,16.974,4.528,24.51c0.354,0.54,0.828,1.103,0.619,2.217c-2.563-3.899-6.136-6.125-9.802-8.304
			c-2.875-1.709-4.941-4.248-6.356-7.317c-2.255-4.89-3.638-10.075-5.205-15.194c-2.878-9.398-5.851-18.743-7.513-28.501
			c-2.148-12.626-4.073-25.26-4.361-38.066c-0.271-12.072-0.126-24.153-0.021-36.23c0.015-1.759,0.414-3.505,1.072-5.147
			c2.418-6.033,5.374-11.775,9.194-17.062c5.254-7.27,12.228-12.574,19.647-17.379c1.749-1.133,3.522-2.239,4.893-3.833
			c1.451-1.691,1.154-3.175-0.699-4.399c-0.972-0.641-2.139-0.545-3.149-0.997H409.92c-1.125,1.027-2.625,0.831-3.949,1.137
			c-18.397,4.246-35.654,11.395-52.191,20.395c-7.26,3.951-14.002,8.625-19.745,14.593c-4.977,5.171-9.703,10.617-13.907,16.407
			c-6.271,8.635-12.115,17.573-17.5,26.821c-5.622,9.658-11.079,19.365-15.271,29.746c-3.398,8.416-7.173,16.689-9.542,25.487
			c-1.119,4.155-2.035,8.354-1.894,12.699c0.058,1.789,0.493,2.106,2.209,1.705c2.08-0.486,3.426-1.941,4.675-3.534
			c2.507-3.199,5.009-6.402,7.55-9.574c2.201-2.748,4.532-5.384,7.458-7.395c2.758-1.895,4.621-1.775,7.041,0.521
			c1.445,1.371,2.771,2.875,4.078,4.38c1.579,1.817,2.329,3.917,2.214,6.383c-0.1,2.162-0.399,4.284-0.831,6.387
			c-2.737,13.335-6.102,26.522-9.472,39.706c-2.462,9.632-4.526,19.385-8.396,28.617c-0.632,1.506-0.8,3.24-0.978,4.894
			c-0.184,1.705,0.374,2.136,2.085,1.868c3.57-0.559,6.08-2.521,7.809-5.688c3.435-6.297,7.966-11.347,15.408-12.88
			c0.156-0.032,0.32-0.067,0.458-0.141c4.096-2.172,8.258-1.707,12.549-0.566c5.696,1.514,8.668,5.225,9.657,10.869
			c0.828,4.736,0.467,9.496,0.475,14.25c0.003,1.434-0.641,2.16-2.174,2.232c-2.7,0.125-5.396,0.586-8.09,0.574
			c-3.301-0.015-5.772,1.25-7.896,3.719c-2.232,2.594-2.802,5.235-1.245,8.353c0.996,1.994,1.787,4.09,2.716,6.118
			c1.097,2.396,0.886,4.631-0.665,6.757c-0.423,0.58-0.839,1.173-1.188,1.799c-0.611,1.099-1.389,1.38-2.579,0.859
			c-1.861-0.813-3.87-1.13-5.86-0.847c-5.682,0.812-11.306,1.935-16.805,3.617c-1.078,0.329-1.364,1.051-1.528,2.131
			c-0.405,2.658,0.916,4.568,2.371,6.514c2.979,3.982,4.533,8.56,5.394,13.4c0.485,2.727-0.44,4.855-2.803,6.332
			c-1.149,0.717-2.275,1.48-3.463,2.129c-4.197,2.289-8.416,4.541-12.63,6.799c-1.043,0.559-1.957,1.229-1.626,2.586
			c0.715,2.938,1.331,5.916,3.162,8.451c1.121,1.553,2.176,3.154,3.198,4.774c0.72,1.141,1.569,2.215,2.007,3.519
			c1.016,3.017-0.807,5.477-3.938,5.26c-4.161-0.287-8.243-1.046-12.257-2.172c-1.707-0.479-3.421-0.732-5.205-0.507
			c-1.426,0.18-2.11,0.959-2.262,2.34c-0.08,0.723-0.013,1.418,0.103,2.132c0.553,3.411,1.929,6.58,2.875,9.875
			c0.617,2.149,1.226,4.286,1.326,6.553c0.064,1.457-0.445,2.406-1.687,3.149c-1.922,1.149-3.926,2.126-5.925,3.127
			c-1.429,0.715-2.466,0.694-3.492-0.64c-0.74-0.961-1.911-1.424-2.984-1.954c-2.148-1.062-4.262-2.17-6.249-3.532
			c-2.285-1.567-4.919-2.271-7.642-2.587c-5.255-0.615-5.831-0.107-5.987,5.144c-0.088,2.945-0.07,5.896-0.232,8.837
			c-0.157,2.854-1.088,3.686-3.931,4.218c-2.624,0.493-4.855-0.038-6.865-1.859c-1.476-1.338-3.112-2.505-4.724-3.685
			c-2.334-1.706-4.839-3.097-7.667-3.826c-2.752-0.711-3.782-0.222-4.767,2.495c-1.151,3.179-1.764,6.452-1.558,9.864
			c0.169,2.813-0.424,3.585-3.135,4.154c-2.341,0.492-4.707,0.871-7.057,1.318c-1.017,0.192-1.847-0.033-2.631-0.759
			c-1.76-1.627-3.569-3.2-5.387-4.764c-2.239-1.926-4.357-4.021-6.96-5.472c-3.518-1.961-5.295-1.179-6.235,2.727
			c-0.712,2.957-1.125,5.955-1.172,9.009c-0.038,2.464-0.668,3.244-2.981,4.019c-1.521,0.509-3.079,0.85-4.695,0.868
			c-1,0.013-1.887-0.249-2.625-0.96c-4.943-4.765-10.796-8.211-16.803-11.384c-4.526-2.39-6.866-0.751-6.624,4.351
			c0.132,2.791,0.197,5.587,0.216,8.381c0.016,2.303-0.914,3.347-3.221,3.687c-1.184,0.175-2.385,0.248-3.582,0.31
			c-2.511,0.126-4.463-0.643-6.284-2.646c-3.309-3.642-7.464-6.319-12.147-7.876c-3.907-1.297-5.369-0.157-7.177,3.511
			c-0.311,0.63-0.424,1.376-0.538,2.083c-0.354,2.196-1.489,4.033-2.676,5.836c-0.679,1.03-1.632,1.645-2.925,1.878
			c-2.466,0.443-4.55-0.389-6.539-1.656c-5.894-3.762-12.369-6.307-18.814-8.88c-3.361-1.342-5.733,0.896-5.025,4.462
			c0.28,1.407,0.537,2.818,0.791,4.229c0.25,1.395-0.346,2.135-1.755,2.233c-2.146,0.151-4.328,0.228-6.424,0.562
			c-4.129,0.66-7.283-0.57-9.899-3.738c-1.064-1.288-2.452-2.29-3.968-3.059c-3.151-1.595-5.531-0.884-7.246,2.188
			c-0.622,1.115-1.188,2.261-1.77,3.396c-0.784,1.529-2.049,2.5-3.699,2.786c-4.345,0.755-8.727,0.983-13.123,0.51
			c-1.333-0.144-2.422-0.729-3.074-1.993c-0.573-1.112-1.53-1.841-2.651-2.332c-1.68-0.735-3.339-1.554-5.079-2.112
			c-4.698-1.508-6.74-0.449-7.758,4.39c-0.782,3.722-3.267,5.411-6.463,6.573v1.44c0.278,0.152,0.641,0.239,0.823,0.47
			c1.906,2.406,4.591,3.333,7.425,4.045c3.967,0.995,8.016,1.447,12.059,1.954c7.207,0.902,14.354,2.354,21.653,2.416
			c6.066,0.052,12.129,0.276,18.148,1.012c11.734,1.436,23.483,2.6,35.31,2.914c13.975,0.374,27.95,0.32,41.919-0.124
			c8.703-0.275,17.405-0.487,26.11-0.563c12.371-0.109,24.743-0.146,37.113-0.327c9.991-0.146,19.979-0.443,29.962-0.903
			c4.975-0.229,9.819-0.975,14.537-2.684c3.222-1.167,6.593-1.949,9.997-2.418c13.876-1.913,26.882-6.874,39.955-11.518
			c9.642-3.425,18.47-8.677,27.498-13.428c2.792-1.47,5.486-2.268,8.624-2.323c3.286-0.059,5.986,0.895,8.04,3.368
			c3.055,3.679,6.032,7.424,8.926,11.229c2.021,2.657,2.061,6.457-0.188,8.336c-3.015,2.519-4.296,5.829-5.317,9.375
			c-0.604,2.096,0.208,3.699,2.279,3.811c3.886,0.208,7.671-0.32,10.757-3.038c1.558-1.372,3.041-2.829,4.522-4.283
			c1.805-1.769,3.957-2.654,6.468-2.562c3.194,0.119,6.028,1.379,8.731,2.966c2.836,1.665,5.752,3.151,9.051,3.598
			c3.218,0.437,5.867,1.914,8.218,4.06c0.528,0.481,1.09,0.93,1.64,1.389c4.102,3.432,8.532,2.124,12.947,0.879
			c0.359-0.101,0.686-0.424,0.717-0.878c0.143-2.126,0.657-4.279-0.791-6.229c-1.426-1.918-2.686-3.961-4.49-5.575
			c-0.592-0.529-1.3-1.141-0.772-2.025c0.504-0.85,1.458-0.608,2.188-0.428c1.633,0.405,3.131,1.171,4.549,2.086
			c1.207,0.779,2.396,1.593,3.653,2.283c2.313,1.27,3.688,1.077,5.655-0.664c0.298-0.264,0.541-0.607,0.872-0.812
			c0.413-0.253,0.937-0.396,1.358-0.078c0.438,0.329,0.732,0.756,0.573,1.418c-0.245,1.024-0.688,1.946-1.222,2.839
			c-0.408,0.684-0.895,1.338-1.189,2.067c-0.317,0.785-0.334,1.651,0.717,1.94c2.732,0.752,5.486,1.285,8.047-0.512
			c1.577-1.107,3.26-2.021,4.999-2.813c2.953-1.348,5.303-0.729,7.439,1.789c0.841,0.991,1.377,2.146,1.922,3.302
			c0.543,1.154,1.049,2.328,1.64,3.457c0.999,1.908,1.484,2.068,3.363,0.922c2.322-1.417,4.486-3.05,6.205-5.197
			c1.933-2.414,4.457-3.655,7.527-3.419c1.893,0.146,3.745,0.678,5.473,1.575c2.547,1.325,5.143,2.56,7.692,3.875
			c1.637,0.846,3.367,1.443,5.109,1.993c1.657,0.523,3.226,0.185,3.607-0.95c0.992-2.94,1.994-6.036,0.39-9.01
			c-4.065-7.532-8.304-14.967-16.133-19.389c-0.346-0.195-0.653-0.457-0.982-0.683c-2.364-1.612-3.414-3.895-3.482-6.712
			c-0.086-3.504,0.871-6.763,2.262-9.921c2.303-5.228,5.568-10.037,6.619-15.812c0.295-1.618,1.357-1.825,2.9-0.664
			c2.248,1.692,4.79,2.502,7.521,2.753c2.389,0.219,4.789,0.19,7.167-0.211c1.975-0.333,3.861-0.959,5.715-1.699
			c0.662-0.266,1.314-0.571,1.996-0.776c1.426-0.427,2.495,0.178,3.322,1.296c0.814,1.101,0.456,2.16-0.315,3.061
			c-1.923,2.237-3.869,4.456-5.878,6.614c-1.939,2.083-2.073,4.399-1.048,6.876c0.487,1.174,1.203,2.182,2.288,2.985
			c2.431,1.803,4.801,3.692,7.108,5.648c1.644,1.393,1.545,1.977-0.282,2.962c-0.838,0.451-1.721,0.829-2.604,1.188
			c-3.338,1.355-5.709,3.654-7.219,6.95c-1.702,3.723-2.019,7.67-2.179,11.655c-0.049,1.214,0.099,2.53,1.377,3.073
			c1.238,0.525,2.529,0.271,3.599-0.612c1.226-1.016,2.396-2.099,3.623-3.112c2.054-1.696,4.392-2.795,7.065-2.096
			c5.133,1.341,9.994,3.298,13.818,7.195c1.795,1.828,3.239,3.944,4.828,5.94c1.093,1.372,2.443,1.689,4.004,1.149
			c1.573-0.544,3.344-1.012,3.419-3.154c0.083-2.364,1.359-3.813,3.376-4.788c3.306-1.597,6.69-2.955,10.291-3.764
			c3.304-0.741,6.518-0.529,9.593,0.858c2.125,0.959,4.352,1.532,6.591,2.082c2.247,0.551,2.541,0.178,2.144-2.055
			c-1.069-5.992-5.02-9.825-9.752-13.015c-4.189-2.824-8.769-3.589-13.653-2.014c-0.904,0.292-1.824,0.539-2.743,0.778
			c-2.605,0.684-3.974,0.151-5.481-2.084c-1.767-2.618-2.685-5.553-3.439-8.591c-1.54-6.189-2.992-12.363-3.391-18.779
			c-0.191-3.082-0.266-6.185-0.671-9.269c-0.66-5.01-0.235-9.964,2.842-14.188c3.658-5.023,4.986-10.739,5.763-16.725
			c0.754-5.825,1.281-11.679,2.269-17.478c0.747-4.387,2.481-8.561,2.703-13.055c0.079-1.609,0.681-3.1,1.336-4.545
			c1.549-3.413,3.123-6.814,4.725-10.203c2.151-4.558,3.174-9.265,2.443-14.345c-0.374-2.612-1.06-5.142-1.55-7.72
			c-1.473-7.729-3.653-15.188-8.63-21.521c-0.204-0.26-0.2-0.595-0.025-0.898c0.237-0.274,0.562-0.244,0.873-0.25
			c2.413-0.049,4.715,0.723,7.09,0.973c4.396,0.462,8.704,1.46,12.406,3.923c8.984,5.978,17.54,12.509,24.769,20.609
			c0.963,1.079,1.588,2.37,1.946,3.792c0.859,3.395,1.866,6.756,2.591,10.179c0.421,1.988,0.702,3.988,0.404,6.131
			c-0.561,4.032-0.289,8.126-0.02,12.193c0.341,5.146,1.14,10.271,0.451,15.457c-0.248,1.868-0.021,3.77,0.725,5.766
			c2.617-1.86,4.783-3.793,5.479-7.011c0.536-2.491,1.05-4.979,1.484-7.491c2.218-12.799,2.819-25.743,3.635-38.669
			c0.312-4.938,0.981-9.8,2.538-14.521c1.585-4.808,4.75-7.848,9.736-8.887c1.559-0.324,3.146-0.508,4.711-0.807
			c2.426-0.462,4.728-0.211,6.981,0.859c2.082,0.988,4.2,1.929,6.372,2.695c3.548,1.256,6.157,3.576,8.166,6.672
			c1.691,2.609,3.375,5.228,5.067,7.838c1.48,2.28,3.667,3.758,5.952,5.082c1.097,0.635,1.798,0.289,1.814-0.871
			c0.045-3.019,0.264-6.053-0.825-8.985c-2.029-5.472-3.247-11.157-4.312-16.877c-2.409-12.972-5.092-25.896-7.033-38.951
			c-0.854-5.735-1.764-11.464-2.475-17.218c-0.281-2.274-0.251-4.622,1.086-6.711c1.918-2.997,4.346-5.481,7.295-7.469
			c1.563-1.054,3.121-1.066,4.715-0.108c1.937,1.165,3.559,2.689,5.036,4.385c4.521,5.184,8.054,11.095,12.181,16.568
			c0.383,0.508,0.756,1.029,1.187,1.493c0.808,0.868,1.581,1.012,2.217-0.208c0.712-1.368,1.437-2.73,2.154-4.095v-3.84
			C669.621,152.271,667.37,145.13,664.884,138.043z M370.922,367.133c-2.287-0.387-4.717-2.192-4.722-3.511
			c-0.005-1.043,2.917-4.151,4.272-4.608c0.937-0.315,1.303,0.305,1.691,0.919c0.535,0.845,1.374,3.999,1.352,5.033
			C373.475,366.759,372.673,367.429,370.922,367.133z M427.665,385.007c-1.264,1.297-2.341,2.817-4.424,3.589l-2.155-8.98
			c0.592-0.576,1.272-0.75,1.926-0.189c1.572,1.352,3.108,2.744,4.646,4.135C428.165,384.018,428.15,384.509,427.665,385.007z
			 M438.861,365.383c-0.928,0.55-1.768-0.376-2.552-0.894c-1.372-0.907-2.872-1.327-4.519-1.312
			c-3.03,0.027-6.059,0.062-9.089,0.177c-5.433,0.205-10.783-0.655-16.134-1.471c-3.031-0.462-5.848,0.247-8.537,1.617
			c-0.779,0.396-1.547,0.834-2.362,1.14c-2.048,0.767-2.719,0.321-3.118-1.767c-0.412-2.157-0.127-4.289,0.354-6.347
			c0.904-3.868,2.029-7.686,3.093-11.516c0.548-1.975,0.731-2.089,2.844-1.969c2.7,0.153,5.386,0.62,8.099,0.461
			c4.205-0.245,8.408-0.538,12.611-0.832c3.67-0.256,7.343-0.11,11.014-0.089c1.914,0.011,2.305,0.483,2.466,2.435
			c0.261,3.167,1.271,6.006,3.186,8.591c1.979,2.674,3.149,5.699,3.074,9.212C439.079,363.615,439.793,364.829,438.861,365.383z
			 M474.129,181.957c-0.029,1.898-0.655,3.414-2.832,4.112c-2.346,0.753-3.811,2.795-5.352,4.631
			c-0.539,0.642-0.855,1.569-2.182,1.669c-0.396-2.193,0.433-4.184,0.446-6.232c0.014-2.072-0.057-4.114-0.36-6.176
			c-1.103-7.479,0.716-13.881,7.133-18.489c1.349-0.969,1.825-0.828,2.376,0.758c0.604,1.747,0.604,3.598,0.748,5.391
			C474.489,172.39,474.203,177.178,474.129,181.957z"/>
	</g>
</g>
<g>
	<path fill="#2D2D35" d="M300.548,314.504c1.259-2.848,1.945-5.881,2.872-8.836c0.201-0.137,0.429-0.24,0.666-0.216
		c3.26,0.346,3.292,0.359,4.555-2.81c1.445-3.623,3.312-7.053,4.797-10.657c1.227-2.979,1.283-2.965-1.103-5.269
		c-0.354-0.341-0.615-0.722-0.826-1.151c1.107-1.879,2.218-3.756,3.32-5.638c0.28-0.478,0.544-0.956,1.146-1.088
		c2.253,0.614,3.217-0.587,4.172-2.476c1.686-3.328,3.508-6.644,6.082-9.394c1.28-1.366-0.142-2.553,0.138-3.8
		c0.225-2.037,1.787-3.277,2.962-4.689c0.802-0.963,1.15-2.531,2.793-2.64c1.558-0.302,1.962,1.045,2.63,1.919
		c1.545,2.02,1.512,2.045,3.574,0.491c0.438-0.329,0.847-0.744,1.48-0.534c0.117,2.758,0.756,5.482,0.498,8.262
		c-0.916,2.896-3.016,5.023-4.83,7.318c-1.684,2.131-3.565,4.125-4.872,6.518c-4.348,7.961-3.057,12.568,1.999,17.533
		c2.295,2.253,4.151,4.859,6.041,7.43c2.615,3.561,5.521,6.811,8.931,9.64c2.272,1.886,4.349,4.008,6.22,6.306
		c0.924,1.134,2.025,2.038,3.246,2.811c1.006,0.636,2.088,0.923,3.124,0.111c1.056-0.824,0.597-1.863,0.248-2.849
		c-2.79-7.856-4.734-15.93-6.015-24.157c-0.662-4.262-0.992-8.564-0.787-12.891c0.199-4.253,2.938-6.854,7.222-6.975
		c1.146-0.031,2.687,0.521,3.308-0.721c0.719-1.438-0.828-2.259-1.627-3.156c-4.142-4.66-4.381-10.26-3.984-16.026
		c0.043-0.636,0.244-1.259,0.242-1.899c-0.002-2.251-0.895-2.803-2.97-1.869c-1.026,0.463-1.979,1.022-2.839,1.762
		c-0.996,0.855-2.094,1.484-3.492,1.021c0.446-2.705,0.512-5.431,0.44-8.164c2.974-1.073,4.595-3.577,6.256-6.002
		c2.347-3.424,5.659-5.844,8.706-8.536c0.768-0.677,1.753-1.316,2.84-0.826c1.133,0.511,1.117,1.691,1.098,2.721
		c-0.091,4.812,0.082,9.58,1.539,14.236c1.137,3.642,3.159,6.682,5.771,9.686c0.312-1.107-0.112-1.747-0.353-2.387
		c-1.945-5.172-1.938-10.502-1.197-15.854c0.611-4.404,0.681-8.932,2.994-12.988c1.058-1.853,2.416-2.882,4.502-3.088
		c2.529-0.253,4.17,1.328,3.853,3.885c-0.228,1.826-0.782,3.595-1.257,5.369c-3.282,12.278-0.477,23.564,5.572,34.32
		c0.51,0.903,1.107,1.768,1.857,2.496c0.743,0.725,1.535,1.395,2.725,2.12c-1.056-4.058-1.828-7.911-2.576-11.769
		c-1.586-8.172-0.229-16.078,1.406-23.998c0.543-2.631,0.849-5.336,2.592-7.641c2.162-2.859,4.246-3.724,6.902-2.434
		c2.475,1.203,3.94,4.595,3.082,7.357c-0.806,2.594-1.77,5.131-2.438,7.775c-3.011,11.891-1.655,23.648,1.01,35.359
		c0.938,4.129,2.079,8.211,3.271,12.28c0.945,3.228,2.676,5.554,5.651,7.023c0.854,0.421,1.585,1.065,2.724,1.482
		c-1.52-3.221-3.145-6.215-3.896-9.538c-0.349-1.537-0.858-3.119,0.219-4.604c0.573-0.087,1.13-0.044,1.562,0.382
		c1.204,1.188,2.717,1.842,4.243,2.475c0.103,0.123,0.24,0.234,0.293,0.379c2.175,5.896,5.47,6.312,11.868,5.349
		c2.141-0.322,4.129-1.229,6.124-2.056c0.272-0.008,0.498,0.093,0.68,0.295c1.81,6.975,5.492,13.268,7.34,20.235
		c0.763,2.874,2.52,5.2,4.742,7.698c0.205-2.877-0.373-5.217-0.537-7.585c-0.596-8.598-1.186-17.196-2.271-25.751
		c-0.191-1.516-0.138-3.029-0.016-4.544c-0.009-2.278,0.025-4.554,0.963-6.697c0.862-3.088,0.865-6.295,1.292-9.44
		c1.115-8.229,5.37-14.363,12.215-18.846c0.595-0.389,1.206-0.853,1.96-0.306c-0.16,4.897-1.438,9.603-2.649,14.296
		c-1.473,5.705-3.229,11.339-4.24,17.156c-0.776,4.464-1.456,8.936-1.851,13.461c-0.504,5.8-1.075,11.595-0.83,17.413
		c0.181,4.284,0.572,8.583,1.584,12.764c0.662,2.744,2.061,5.195,4.096,7.211c1.409,1.396,2.65,2.94,4.175,4.243
		c1.993,1.704,2.573,3.983,1.881,6.524c-1.494,5.48-3.335,10.798-6.313,15.717c-2.003,3.307-2.797,7.124-3.017,10.971
		c-0.144,2.533-0.234,5.094,0.386,7.625c0.613,2.504,1.738,4.621,3.92,6.069c1.595,1.059,3.234,2.049,4.836,3.1
		c0.664,0.438,1.313,0.909,1.906,1.438c1.19,1.056,2.643,2.178,2.086,3.955c-0.607,1.939-2.259,3.11-4.233,3.476
		c-4.778,0.883-9.519,0.999-14.033-1.275c-1.987-1.002-3.881-0.509-5.712,0.495c-3.041,1.669-3.562,1.598-6.029-0.851
		c-0.396-0.396-0.791-0.793-1.176-1.2c-0.945-0.999-1.021-2.162-0.434-3.319c0.502-0.989,1.06-1.995,1.789-2.822
		c2.983-3.387,4.394-7.406,4.564-11.809c0.105-2.713,0.438-5.401,0.646-8.098c0.338-4.423-1.227-8.13-3.5-11.694
		c-0.258-0.402-0.492-0.823-0.776-1.208c-1.682-2.278-1.774-4.688-0.591-7.192c0.615-1.302,1.249-2.595,1.925-3.865
		c2.06-3.874,2.521-7.862,0.865-11.992c-1.812-4.522-3.359-9.12-4.062-13.966c-0.057-0.395-0.148-0.784-0.238-1.172
		c-0.166-0.715-0.622-1.098-1.355-1.114c-0.739-0.019-1.189,0.383-1.425,1.054c-0.317,0.906-0.485,1.825-0.544,2.803
		c-0.292,4.868,0.816,9.498,2.254,14.082c0.144,0.457,0.311,0.906,0.428,1.37c0.904,3.583-0.509,5.829-4.133,6.732
		c-0.944,0.235-1.872,0.376-2.836,0.347c-5.372-0.16-10.632,0.73-15.885,1.697c-3.944,0.727-7.933,0.872-11.919,0.663
		c-2.932-0.153-3.697-1.384-3.021-4.252c0.822-3.488,1.591-6.952,1.603-10.603c0.017-5.854-1.352-11.353-3.404-16.761
		c-1.016-2.673-2.297-5.295-2.43-8.222c-0.118-2.599,0.365-2.875,2.715-1.728c0.646,0.314,1.27,0.689,1.938,0.946
		c1.918,0.735,3.362-0.19,3.473-2.249c0.086-1.572-0.525-2.945-1.327-4.271c-2.076-3.439-4.849-6.323-7.462-9.325
		c-1.519-1.742-2.924-3.582-4.594-5.201c-0.92-0.892-1.969-1.536-3.141-1.563c-3.262-0.074-6.55-0.465-9.779,0.375
		c-0.31,0.08-0.636,0.113-0.926,0.235c-0.523,0.222-1.006,0.505-1.027,1.185c-0.022,0.69,0.437,1.031,0.981,1.196
		c1.217,0.368,2.431,0.777,3.731,0.767c3.682-0.032,6.688,1.219,8.697,4.48c0.582,0.945,1.331,1.794,2.061,2.639
		c1.326,1.537,1.552,3.149,0.863,5.098c-1.502,4.251-1.438,8.631-0.461,12.973c0.381,1.695,1.168,3.303,1.812,4.935
		c1.355,3.432,2.236,6.95,2.49,10.655c0.156,2.297,0.56,4.536,0.185,6.881c-0.653,4.101-2.728,7.466-5.104,10.688
		c-3.914,5.31-9.053,9.185-14.863,12.176c-2.122,1.093-4.35,2.024-6.609,2.795c-3.326,1.137-5.837,3.325-7.922,5.981
		c-1.887,2.403-2.02,5.271-1.352,8.188c-1.144-0.031-1.486-1.092-2.176-1.703c-1.012-0.898-2.205-1.619-3.443-0.856
		c-1.35,0.829-1.01,2.31-0.409,3.438c2.219,4.171,4.96,7.975,8.455,11.188c0.944,0.868,2.056,1.372,3.216,0.436
		c1.16-0.935,1.197-2.208,0.618-3.472c-0.646-1.409-1.96-2.281-2.945-3.42c-0.692-0.801-1.846-1.392-1.459-2.772
		c0.519-0.157,0.94,0.044,1.315,0.371c2.275,1.981,5.078,2.438,7.926,2.955c2.4,0.438,4.721,0.066,7.088,0.023
		c5.615-0.104,11.057,1.071,16.276,3.182c1.698,0.688,3.465,1.251,4.972,2.323c1.271,0.906,2.309,1.985,1.93,3.788
		c-0.326,1.563-1.926,3.232-3.543,3.542c-0.881,0.168-1.742,0.125-2.507-0.469c-0.702-0.549-1.534-0.824-2.386-1.069
		c-2.822-0.812-4,0.059-4.036,3.017c-1.812,0.055-2.742-1.433-3.918-2.378c-3.513-2.825-7.676-3.39-12.252-4.048
		c0.769,1.441,1.862,1.812,2.856,2.111c3.34,1.012,6.25,2.72,8.813,5.061c0.117,0.107,0.249,0.198,0.377,0.292
		c2.172,1.583,2.64,1.467,4.129-1.027c2.132,0.781,3.3,2.656,4.704,4.235c0.514,0.576,0.838,1.418,0.366,2.232
		c-0.554,0.958-1.538,0.814-2.371,0.677c-4.201-0.698-8.248-1.919-11.896-4.169c-3.149-1.944-6.564-2.825-10.213-2.943
		c-3.664-0.119-7.312-0.42-10.927-1.019c-2.616-0.435-3.237-1.158-3.224-3.847c0.012-2.183-0.629-4.16-1.917-5.812
		c-2.941-3.771-5.951-7.495-9.339-10.889c-3.871-3.881-8.416-6.297-14.022-6.259c-1.321,0.009-1.88-0.614-2.091-1.787
		c-0.126-0.704-0.355-1.396-0.409-2.104c-0.111-1.496-1.013-2.276-2.298-2.764c-0.372-0.143-0.786-0.209-1.117-0.413
		c-1.391-0.859-1.362-2.171,0.106-2.909c1.962-0.986,4.13-1.173,6.004-0.14c3.324,1.832,6.906,2.542,10.557,2.676
		c4.97,0.183,9.215-1.653,12.315-5.687c3.021-3.929,4.078-8.428,3.564-13.303c-0.174-1.658-1.074-3.017-2.389-4.018
		c-1.889-1.438-3.409-3.09-3.891-5.514c-0.131-0.664-0.541-1.252-1.229-1.317c-0.849-0.082-1.251,0.597-1.497,1.303
		c-0.87,2.489-0.322,4.891,1.329,6.703c3.985,4.373,2.621,8.678-1.131,12.419c-3.528,3.518-7.81,4.113-12.408,2.884
		c-2.623-0.701-5.159-1.575-7.95-1.489c-2.034,0.062-3.962,0.458-5.857,1.085c-1.763,0.581-2.89,1.807-2.957,4.104
		c-0.093,3.166,0.859,5.463,3.801,6.779c1.052,0.471,1.003,1.163,0.364,1.885c-2.622,2.959-5.684,5.447-9.227,7.123
		c-3.093,1.463-6.224,2.825-9.249,4.452c-4.502,2.423-9.224,4.414-14,6.227c-8.882,3.37-17.91,6.301-27.18,8.44
		c-5.585,1.289-11.255,2.12-16.895,3.111c-3.699,0.65-7.199,2.072-10.912,2.653c-0.711,0.11-1.413,0.238-2.13,0.253
		c-7.334,0.155-14.642,0.841-21.975,1.116c-9.729,0.366-19.459,0.58-29.187,0.906c-11,0.368-21.998,0.189-32.991,0.46
		c-7.936,0.194-15.875,0.616-23.804,0.321c-7.025-0.26-14.062-0.118-21.069-0.521c-4.232-0.244-8.461-0.109-12.676-0.395
		c-6.284-0.423-12.613-0.367-18.856-1.037c-10.318-1.106-20.626-1.889-31.007-1.877c-3.084,0.003-6.173-0.58-9.252-0.957
		c-0.666-0.081-1.411-0.189-2.064-1.074c2.833-0.507,5.466-1.175,8.214-1.231c7.736-0.162,15.435-1.038,23.185-1.134
		c3.085-0.038,6.238-0.001,9.309-0.397c5.315-0.687,10.683-0.013,15.978-0.824c3.665,0.695,7.368,0.737,11.08,0.67
		c0.807-0.017,1.589-0.034,2.178-0.697c2.158,0.188,4.248-0.593,6.403-0.446c1.317,1.472,3.156,1.559,4.867,1.53
		c6.298-0.101,12.587-0.492,18.873-0.924c1.741-0.12,1.702-1.686,2.507-2.56c2.666-0.16,5.33-0.334,7.941-0.965
		c0.278-0.066,0.61,0.086,0.917,0.138c-0.102,2.341,0.009,2.437,2.312,2.229c6.191-0.558,12.367-1.241,18.528-2.071
		c2.853-0.384,3.006-0.592,2.016-3.286c2.381-0.486,4.775-0.864,7.213-0.888c1.494,2.503,3.627,2.784,6.34,2.26
		c4.623-0.895,9.35-1.157,13.998-1.956c3.668-0.629,3.67-0.616,3.645-4.3c-0.003-0.408,0.074-0.793,0.318-1.131
		c1.839-0.384,3.648-0.921,5.533-1.07c0.261,0.304,0.524,0.601,0.696,0.971c1.555,3.346,1.553,3.327,5.263,2.614
		c5.101-0.979,10.153-2.214,15.283-3.029c1.896-0.302,3.193-0.9,3.143-3.067c-0.007-0.316,0.25-0.578,0.44-0.836
		c1.968-0.711,3.417-2.632,5.758-2.469c0.657,0.282,0.968,0.873,1.062,1.494c0.367,2.429,1.82,2.481,3.823,2.07
		c5.7-1.171,11.204-2.979,16.733-4.739c2.862-0.913,4.959-2.154,4.349-5.626c1.429-0.613,2.857-1.227,4.286-1.838
		c0.38,0.191,0.594,0.535,0.737,0.906c0.599,1.553,1.484,1.513,2.792,0.73c5.831-3.483,11.353-7.417,16.941-11.264
		c2.282-1.57,1.107-2.813,0.226-4.284c1.074-0.889,2.046-1.845,2.874-2.997c0.593-0.827,1.22-1.875,2.531-1.821
		c2.538,1.068,4.21-0.144,6.028-1.862c4.87-4.605,6.629-10.757,8.716-16.748C304.174,315.95,301.792,315.56,300.548,314.504z"/>
	<path fill="#2D2D35" d="M518.804,237.479c0.077,2.045,0.493,4.002,1.479,5.819c0.33,0.608,0.723,1.22,0.521,1.978
		c0.315,0.389,0.519,0.847,0.43,1.33c-0.636,3.441,0.493,6.64,1.338,9.875c0.933,3.574,1.331,7.221,1.354,10.899
		c0.045,6.866,0.139,13.735-0.024,20.599c-0.142,5.883-0.688,11.756-0.994,17.657c1.438-2.19,1.963-4.7,2.233-7.206
		c1.161-10.714,2.52-21.391,4.316-32.023c0.712-4.215,0.403-8.596-0.285-12.887c-0.198-1.235-1.017-2.152-1.313-3.308
		c3.071-0.328,3.071-0.328,3.008-3.397c0.163-0.287,0.405-0.537,0.725-0.545c3.103-0.09,5.21-2.354,7.812-3.535
		c0.433,2.264,1.006,4.498,1.073,6.826c0.103,3.508-0.659,6.791-2.264,9.906c-1.9,3.691-3.791,7.391-5.404,11.223
		c-0.527,1.254-0.979,2.506-1,3.906c-0.073,4.785-1.036,9.476-1.596,14.209c-0.383,3.232-0.854,6.457-1.24,9.689
		c-0.584,4.892-1.062,9.812-2.114,14.621c-1.12,5.124-4.308,9.014-8.311,12.25c-2.932,2.371-6.187,4.232-9.631,5.758
		c-0.872,0.387-1.776,0.718-2.691,0.984c-0.525,0.153-1.181,0.228-1.55-0.301c-0.346-0.493-0.177-1.082,0.092-1.596
		c0.223-0.424,0.474-0.831,0.72-1.241c3.277-5.475,5.405-11.364,6.203-17.696c0.807-6.386,1.518-12.775,2.061-19.197
		c0.587-6.952-0.629-13.372-4-19.297c-3.068-5.396-4.127-11.342-5.748-17.164c-1.263-4.535-2.203-9.116-2.78-13.778
		c-0.106-0.866-0.091-1.756-0.067-2.634c0.086-3.279-0.542-6.493-0.821-9.736c-0.375-4.361-0.466-8.772,0.142-13.145
		c0.101-0.719,0.288-1.461,0.116-2.137c-0.682-2.683-0.281-5.407-0.433-8.108c-0.335-5.96-0.673-11.921-0.979-17.884
		c-0.513-9.99-2.729-19.668-5.235-29.303c-1.556-5.97-4.458-11.282-8.026-16.21c-1.484-2.05-3.88-3.079-6.525-2.951
		c-5.501,0.266-10.702,1.597-15.351,4.673c-3.923,2.597-6.55,6.274-8.395,10.52c-2.668,6.142-3.87,12.606-3.987,19.286
		c-0.031,1.753-0.399,3.478-0.598,5.212c-0.157,1.385-0.878,2.734-2.304,3.464c-3.838,1.966-7.764,3.764-11.479,5.964
		c-0.354,0.21-0.747,0.27-1.153,0.154c-0.684-2.607,0.636-4.848,1.47-7.109c1.856-5.034,3.427-10.146,4.886-15.304
		c0.687-2.426,0.425-4.5-1.166-6.513c-1.924-2.435-2.851-5.348-3.479-8.348c-0.523-2.497-0.281-4.948,0.722-7.29
		c1.105-2.581,3.274-3.22,5.665-1.735c2.111,1.312,2.133,1.323,3.257-0.904c1.731-3.427,3.391-6.892,5.175-10.292
		c0.716-1.363,0.863-2.663,0.445-4.146c-0.585-2.072-1.215-4.148-1.109-6.354c0.08-1.686,0.47-3.195,2.121-4.011
		c1.691-0.836,3.249-0.43,4.729,0.61c2.886,2.026,2.706,1.825,5.183-0.583c3.618-3.52,5.355-7.34,3.567-12.355
		c-0.495-1.389-0.149-2.861,0.345-4.239c1.179-3.283,4.468-4.158,7.103-1.886c0.912,0.786,1.805,1.639,2.247,2.774
		c0.585,1.505,1.469,1.45,2.603,0.701c2.463-1.627,5.087-2.666,8.125-2.341c1.098,0.117,1.667-0.792,2.374-1.43
		c1.979-1.783,4.221-1.942,6.608-0.512c3.164,1.896,3.646,2.795,2.894,5.966c-0.301,1.268-0.167,2.389,0.546,3.428
		c1.205,1.755,1.85,3.717,2.21,5.783c0.207,1.183,0.588,1.967,1.971,2.317c2.739,0.693,2.629,3.328,3.191,5.413
		c0.431,1.592,0.11,3.05-1.492,3.916c-1.094,0.59-1.299,1.505-1.172,2.634c0.145,1.275,0.452,2.52,0.636,3.785
		c0.208,1.438,0.859,2.208,2.405,2.486c2.62,0.47,3.779,2.434,4.327,4.873c0.515,2.286-0.53,3.818-2.263,5.123
		c-2.598,1.955-2.398,5.32,0.369,7.03c3.014,1.862,3.677,6.917,0.995,9.345c-1.433,1.296-1.784,2.59-1.714,4.396
		c0.152,3.915,0.525,7.809,0.849,11.708c0.129,1.562,0.9,2.559,2.288,3.378c4.81,2.841,5.881,8.037,2.39,12.386
		c-1.772,2.209-2.187,4.344-1.756,7.078c0.908,5.766,1.166,11.599,1.104,17.446c-0.043,4.242,0.503,8.453,1.128,12.643
		C516.349,231.901,517.735,234.644,518.804,237.479z"/>
	<path fill="#32323B" d="M561.965,49.992c2.134,3.482,3.42,7.082,4.881,10.594c6.086,14.631,10.188,29.877,13.749,45.269
		c2.079,8.987,3.695,18.078,5.059,27.21c1.126,7.55,2.149,15.106,2.891,22.707c0.579,5.94,1.096,11.878,1.501,17.834
		c0.229,3.35,0.087,6.704,0.413,10.027c0.478,4.862,0.522,9.729,0.36,14.587c-0.24,7.236-0.482,14.47-1.293,21.685
		c-0.668,5.938-1.384,11.85-2.856,17.646c-0.573,2.258-0.83,2.327-2.461,0.823c-7.28-6.713-14.985-12.892-23.207-18.42
		c-5.857-3.938-12.272-6.048-19.371-5.868c-3.824,0.096-7.664-0.288-11.473,0.438c-0.839,0.16-1.74,0.094-2.612-0.156
		c-2.021-0.579-2.422-1.043-2.438-3.207c-0.016-1.839-0.018-3.68,0.048-5.518c0.104-3.043-0.312-6.05-0.697-9.047
		c-0.173-1.343,0.206-2.194,1.312-2.732c1.361-0.662,2.742-1.322,4.18-1.783c3.577-1.147,6.222-3.318,8.27-6.487
		c3.757-5.813,6.343-12.173,8.865-18.549c3.493-8.829,6.417-17.86,8.422-27.156c1.626-7.542,3.157-15.102,4.233-22.75
		c0.809-5.75,1.593-11.491,1.989-17.295c0.152-2.222,0.348-4.448,0.354-6.671c0.021-5.905,0.688-11.75,1.365-17.602
		c0.56-4.839,0.854-9.712,0.503-14.576c-0.235-3.258-1.052-6.439-2.074-9.552C561.753,51.073,561.523,50.718,561.965,49.992z"/>
	<path fill="#32323B" d="M386.979,39.025c-0.912,3.252-1.938,6.084-2.521,9.051c-0.716,3.656-0.665,7.343-0.422,10.982
		c0.547,8.22,0.252,16.446,0.516,24.661c0.234,7.313,0.755,14.627,1.439,21.913c1.274,13.562,3.422,26.989,7.116,40.128
		c2.591,9.211,4.953,18.505,9.593,26.994c1.165,2.131,2.454,4.125,4.577,5.41c1.127,0.682,1.123,1.517,0.736,2.649
		c-0.925,2.703-2.043,5.327-2.007,8.318c0.047,3.869,1.361,7.154,3.747,10.101c0.423,0.522,1.312,0.931,0.814,1.777
		c-0.512,0.873-1.358,0.467-2.155,0.369c-4.658-0.576-9.321-1.34-14.024-1.135c-5.648,0.247-10.912,1.83-15.889,4.658
		c-8.561,4.867-16.529,10.554-24.275,16.586c-0.252,0.195-0.543,0.34-0.812,0.51c-1.432,0.9-1.669,0.822-2.074-0.752
		c-0.597-2.323-0.816-4.732-0.855-7.088c-0.142-8.555-0.287-17.12,0.033-25.664c0.188-4.985,0.535-9.995,1.201-14.973
		c0.452-3.38,0.655-6.804,1.046-10.202c0.691-6.001,1.415-11.993,2.324-17.968c0.888-5.819,1.888-11.614,2.899-17.411
		c1.398-8.003,3.088-15.94,4.988-23.834c2.539-10.542,5.465-20.977,9-31.231c3.775-10.951,7.967-21.731,13.413-31.982
		C385.713,40.281,385.838,39.507,386.979,39.025z"/>
	<path fill="#4A4A59" d="M562.604,40.413c1.32,0.639,2.222,1.883,3.186,2.969c6.353,7.155,12.712,14.302,18.645,21.82
		c8.369,10.606,16.081,21.659,23.075,33.219c2.938,4.854,5.763,9.779,8.261,14.858c4.868,9.898,9.108,20.067,10.961,31.035
		c1.378,8.157,2.87,16.294,3.955,24.501c1.232,9.32,3.3,18.497,5.008,27.735c1.391,7.518,2.748,15.038,4.063,22.567
		c0.232,1.327,0.233,2.7,0.261,4.056c0.029,1.428-0.729,1.857-1.982,1.049c-1.608-1.039-3.162-2.156-4.787-3.179
		c-5.935-3.731-12.37-6.043-19.359-6.299c-4.588-0.168-9.077,0.823-12.938,3.573c-1.577,1.123-2.692,2.671-3.454,4.5
		c-1.258,3.021-2.629,5.994-3.973,8.979c-0.184,0.405-0.328,0.934-0.946,0.893c-0.618-0.289-0.419-0.754-0.357-1.235
		c0.668-5.289,1.552-10.565,1.898-15.876c0.327-5.008,0.716-10.025,0.66-15.059c-0.066-5.996,0.178-12.006-0.151-17.986
		c-0.447-8.102-0.843-16.211-1.681-24.296c-0.632-6.096-1.268-12.192-2.123-18.257c-1.012-7.171-2.128-14.333-3.429-21.457
		c-2.189-12.003-4.979-23.871-8.453-35.575c-4.026-13.568-8.701-26.879-15.322-39.438c-0.447-0.847-0.831-1.728-1.25-2.589
		C562.28,40.74,562.299,40.607,562.604,40.413z"/>
	<path fill="#4A4A59" d="M346.425,216.292c-0.913-0.42-1.096-0.917-1.271-1.471c-0.932-2.971-1.988-5.905-2.825-8.901
		c-0.905-3.241-2.955-5.45-5.86-6.891c-2.886-1.431-5.944-2.133-9.218-2.268c-8.627-0.354-16.072,2.844-23.154,7.275
		c-0.661,0.413-1.195,1.252-2.076,0.701c-0.914-0.569-0.663-1.573-0.531-2.412c0.666-4.249,1.507-8.463,2.562-12.636
		c2.949-11.671,6.317-23.232,9.077-34.953c1.042-4.422,1.579-8.958,2.74-13.334c2.693-10.151,4.232-20.639,8.753-30.269
		c4.386-9.344,9.367-18.339,15.157-26.897c7.344-10.855,15.314-21.214,23.877-31.134c6.789-7.865,13.951-15.369,21.359-22.646
		c0.442-0.435,0.812-0.995,1.487-1.091c0.521,0.552,0.05,0.905-0.175,1.286c-6.612,11.256-11.889,23.117-16.284,35.402
		c-6.871,19.196-11.885,38.88-15.677,58.884c-1.838,9.697-3.325,19.457-4.523,29.26c-0.89,7.269-1.779,14.532-2.406,21.83
		c-0.492,5.721-0.717,11.447-1.018,17.175c-0.225,4.31-0.281,8.61-0.271,12.913c0.007,2.782,0.548,5.554,0.367,8.353
		C346.48,215.002,346.462,215.539,346.425,216.292z"/>
	<path fill="#5C5C70" d="M557.949,19.971c1.049-0.574,1.915,0.082,2.755,0.399c5.919,2.238,11.564,5.056,16.886,8.472
		c7.26,4.66,14.591,9.233,21.604,14.245c9.691,6.926,17.672,15.658,24.841,25.124c5.702,7.531,10.435,15.672,14.935,23.966
		c6.909,12.732,12.863,25.875,17.326,39.664c1.719,5.31,3.203,10.696,4.792,16.047c0.114,0.382,0.249,0.762,0.317,1.153
		c0.099,0.563,0.119,1.138-0.471,1.483c-0.518,0.303-0.899-0.052-1.296-0.311c-2.742-1.79-5.477-3.593-8.231-5.363
		c-2.154-1.383-4.41-2.553-6.825-3.449c-2.969-1.101-5.479-0.621-7.58,1.77c-1.212,1.379-2.392,2.786-3.61,4.158
		c-0.4,0.452-0.711,1.214-1.502,0.927c-0.604-0.219-0.593-0.881-0.664-1.436c-1.821-14.245-7.361-27.195-13.982-39.74
		c-9.547-18.087-21.392-34.627-34.297-50.437c-5.908-7.236-12.139-14.188-18.647-20.888c-0.97-0.997-1.602-2.09-1.886-3.507
		c-0.818-4.088-2.229-7.98-4.351-11.593C557.954,20.473,557.984,20.209,557.949,19.971z"/>
	<path fill="#5C5C70" d="M391.695,9.82c0.082,1.083-0.606,1.635-0.985,2.306c-1.501,2.661-2.721,5.427-3.385,8.419
		c-0.394,1.771-1.255,3.255-2.567,4.507c-5.322,5.081-10.562,10.253-15.566,15.644c-10.877,11.716-20.986,24.056-30.084,37.222
		c-5.73,8.294-11.129,16.786-15.523,25.865c-3.901,8.061-7.324,16.319-8.786,25.244c-0.051,0.313-0.148,0.622-0.253,0.922
		c-0.489,1.401-1.027,1.533-1.922,0.382c-1.029-1.322-1.918-2.756-2.966-4.062c-1.917-2.39-4.25-3.354-7.409-2.519
		c-2.759,0.729-5.21,1.993-7.63,3.387c-2.353,1.355-4.667,2.778-6.996,4.177c-0.677,0.406-1.435,1.153-2.157,0.588
		c-0.809-0.632-0.287-1.618-0.023-2.441c1.755-5.472,3.613-10.908,5.74-16.249c7.305-18.343,16.736-35.542,28.011-51.729
		c3.333-4.786,7.163-9.181,11.096-13.504c4.694-5.161,9.898-9.728,15.234-14.171c3.395-2.827,7.312-4.869,11.08-7.115
		c6.858-4.089,13.6-8.39,20.768-11.949c3.871-1.922,7.895-3.463,11.945-4.941C390.068,9.527,390.85,9.316,391.695,9.82z"/>
	<path fill="#E1DDE4" d="M412.762,284.171c-0.427,2.637,0.459,5.043,1.354,7.434c1.01,2.695,2.376,5.229,4.007,8.305
		c-3.471-1.597-6.277-3.275-8.816-5.376c-0.492-0.408-0.66-1.255-0.894-1.927c-2.994-8.629-4.954-17.479-6.315-26.521
		c-1.25-8.307-0.584-16.404,1.143-24.508c0.533-2.506,1.438-4.895,2.369-7.28c1.373-3.522-1.56-7.541-5.193-7.237
		c-1.26,0.105-2.281,0.561-2.973,1.713c-1.14,1.899-2.223,3.717-2.668,6.023c-0.76,3.92-1.485,7.84-2.135,11.781
		c-1.443,8.759,0.44,17.132,2.68,25.486c0.201,0.754,0.724,1.431,0.582,2.451c-3.41-2.078-6.055-4.719-7.633-8.307
		c-2.318-5.27-4.511-10.607-5.477-16.314c-0.674-3.978,0.041-7.975,0.486-11.939c0.338-3.021,1.115-5.962,1.924-8.891
		c0.795-2.877-0.577-4.237-3.479-3.748c-1.856,0.314-2.988,1.17-3.709,2.899c-1.173,2.815-2.283,5.612-2.313,8.734
		c-0.013,1.271-0.193,2.558-0.438,3.809c-1.097,5.556-0.59,10.966,1.312,16.275c0.35,0.975,0.621,1.978,0.904,2.974
		c0.035,0.125-0.078,0.293-0.186,0.648c-1.204-0.709-2.178-1.59-3.009-2.621c-3.953-4.915-5.671-10.651-6.132-16.842
		c-0.18-2.397-0.088-4.789,0.107-7.186c0.117-1.434-0.353-1.744-1.648-1.146c-0.573,0.264-1.115,0.632-1.604,1.033
		c-3.96,3.269-7.711,6.748-10.426,11.164c-1.108,1.803-2.576,2.719-4.672,2.662c-0.196-3.822,0.888-7.396,2.125-10.938
		c0.131-0.377,0.366-0.727,0.44-1.108c1.357-7.08,6.278-11.448,11.762-15.336c4.425-3.138,8.973-6.101,13.426-9.2
		c6.236-4.342,13.268-6.015,20.727-6.354c4.135-0.189,8.293-0.191,12.364-1.026c1.188-0.244,2.072-0.032,2.75,0.846
		c0.784,1.018,0.91,2.172,0.321,3.375c-0.9,1.836-2.271,3.299-3.83,4.541c-2.426,1.934-3.617,4.36-3.523,7.455
		c0.045,1.438-0.002,2.877,0.012,4.316c0.019,1.629,0.344,3.236,1.355,4.502c3.126,3.9,4.041,8.586,4.932,13.291
		c0.236,1.25,0.404,2.516,0.543,3.779c0.482,4.375-0.332,8.412-3.108,11.955c-0.835,1.063-1.508,2.252-2.313,3.342
		c-3.047,4.123-3.219,8.686-2.029,13.429c0.498,1.994,1.839,3.511,3.236,4.942c1.061,1.087,2.164,2.129,3.25,3.189
		c0.158,0.198,0.354,0.379,0.33,0.667C412.707,283.649,412.734,283.911,412.762,284.171z"/>
	<path fill="#E0DBE2" d="M518.804,237.479c-1.714-1.506-2.23-3.64-2.833-5.676c-1.418-4.794-1.739-9.765-1.767-14.715
		c-0.036-6.972-0.459-13.899-1.488-20.79c-0.215-1.439,0.038-2.466,1.146-3.586c1.481-1.499,3.006-3.151,3.183-5.47
		c0.261-3.409-1.407-6.24-4.717-7.575c-1.477-0.595-2.039-1.397-2.2-2.961c-0.494-4.775-0.673-9.567-1.041-14.348
		c-0.08-1.044,0.226-1.601,1.069-2.134c2.191-1.383,3.22-5.279,2.065-7.553c-0.546-1.078-1.438-1.827-2.613-1.853
		c-1.214-0.027-1.467-0.57-1.475-1.604c-0.008-0.875-0.106-1.759-0.266-2.621c-0.333-1.819-0.179-3.066,2.051-3.714
		c1.966-0.572,2.495-2.374,1.996-4.534c-0.614-2.657-2.305-4.581-4.364-4.312c-1.742,0.228-1.997-0.45-2.218-1.828
		c-0.304-1.891-0.723-3.762-0.967-5.668c-0.149-1.171-0.032-1.868,1.273-2.371c2.239-0.861,2.188-0.99,1.568-3.405
		c-0.198-0.774-0.372-1.554-0.576-2.326c-0.714-2.688-1.313-3.109-3.985-2.805c-0.378-0.801-0.438-1.678-0.578-2.539
		c-0.338-2.071-0.914-4.051-2.24-5.742c-0.908-1.16-1.057-2.333-0.49-3.792c1.116-2.872,1.022-2.911-1.521-4.613
		c-0.466-0.311-0.933-0.621-1.421-0.892c-2.479-1.376-4.703-0.933-6.255,1.383c-0.59,0.881-0.957,1.385-2.204,0.963
		c-2.104-0.712-4.102,0.09-5.96,1.101c-1.456,0.792-2.863,1.676-4.521,2.653c-0.231-2.192-1.303-3.734-2.647-5.102
		c-2.224-2.263-5.191-1.618-6.266,1.356c-0.945,2.622-0.504,5.329,0.254,7.791c0.77,2.497,0.26,4.087-1.518,5.852
		c-2.137,2.121-3.936,4.581-6.044,7.089c-0.94-1.247-1.771-2.401-2.922-3.247c-1.183-0.868-2.439-1.27-3.806-0.598
		c-1.346,0.662-1.929,1.867-1.954,3.336c-0.043,2.514,0.553,4.926,1.356,7.271c0.425,1.241,0.234,2.171-0.381,3.325
		c-2.033,3.804-3.864,7.714-5.812,11.563c-0.426,0.841-0.708,1.79-1.474,2.45c-0.769-0.362-1.125-1.112-1.68-1.661
		c-2.169-2.152-4.812-1.535-5.728,1.439c-0.894,2.903-0.727,5.829,0.111,8.746c0.717,2.494,1.821,4.773,3.446,6.792
		c1.247,1.549,1.447,3.174,0.973,5.142c-1.202,4.981-2.878,9.801-4.585,14.617c-1.015,2.857-2.142,5.68-2.663,8.687
		c-0.045,0.067-0.075,0.153-0.135,0.197c-3.227,2.372-4.538,5.535-4.195,9.525c0.067,0.788-0.031,2.018-1.277,2.318
		c-1.258,0.303-1.914-0.53-2.513-1.41c-1.299-1.912-1.77-4.08-1.792-6.341c-0.01-0.972,0.405-1.871,1.115-2.573
		c1.44-1.423,2.016-3.211,2.221-5.158c0.258-2.44,1.155-4.604,2.706-6.51c2.201-2.706,3.158-5.856,3.178-9.302
		c0.013-2.367,0.711-4.699,0.062-7.112c-0.417-1.554-0.814-3.072-1.664-4.449c-1.323-2.144-1.561-4.408-0.987-6.868
		c0.814-3.495,1.888-6.906,2.971-10.32c0.643-2.02,1.821-3.511,3.749-4.407c3.032-1.411,5.346-3.706,7.61-6.092
		c2.351-2.477,3.105-5.644,3.385-8.767c0.373-4.178,2.412-7.349,4.951-10.352c2.68-3.168,5.434-6.276,8.206-9.363
		c1.661-1.849,2.694-3.908,2.798-6.429c0.032-0.782,0.253-1.578,0.511-2.325c0.585-1.692,1.554-2.165,3.306-1.782
		c0.867,0.19,1.701,0.461,2.444,0.933c3.118,1.98,6.556,2.417,10.104,1.927c3.622-0.5,7.31-0.582,10.852-1.649
		c1.614-0.486,2.939,0.409,4.257,1.153c0.621,0.351,1.149,0.918,1.805,1.154c3.541,1.273,5.133,4.161,6.144,7.451
		c0.604,1.966,1.091,4.005,1.305,6.045c0.394,3.762,1.311,7.375,2.635,10.89c2.598,6.896,4.107,14.014,4.806,21.348
		c0.596,6.273,0.661,12.561,0.969,18.842c0.318,6.511,0.576,13.026,1.127,19.531c0.283,3.339,0.923,6.546,1.766,9.739
		c0.521,1.975,0.162,3.965,0.372,5.945c0.15,1.424,0.178,2.911,0.617,4.23c1.748,5.233,1.532,10.504,0.724,15.834
		C519.111,222.354,518.638,229.897,518.804,237.479z"/>
	<path fill="#E1DDE4" d="M349.471,255.886c1.399-0.511,2.655-1.092,3.817-2.201c1.147-1.095,2.938-1.515,4.44-2.227
		c1.77,1.277,1.99,2.893,1.594,4.998c-0.77,4.066-0.262,8.109,1.054,12.042c0.577,1.726,1.808,2.987,2.993,4.284
		c0.482,0.527,1.018,1.017,1.451,1.583c0.515,0.672,0.684,1.463,0.287,2.254c-0.42,0.835-1.189,0.973-2.045,0.896
		c-0.637-0.057-1.274-0.091-1.914-0.104c-4.5-0.096-6.845,2.134-6.937,6.6c-0.192,9.438,1.617,18.584,4.019,27.644
		c0.86,3.243,1.856,6.444,3.098,9.563c0.421,1.059,0.501,2.011-0.373,2.861c-0.956,0.931-2.089,1.178-3.303,0.645
		c-0.647-0.283-1.342-0.646-1.791-1.168c-4.811-5.563-10.896-9.856-15.533-15.579c-3.066-3.781-5.781-7.851-9.244-11.31
		c-0.337-0.337-0.579-0.766-0.899-1.122c-3.645-4.05-3.27-8.594-1.545-13.245c0.781-2.105,1.983-4.05,3.41-5.754
		c2.874-3.432,5.441-7.094,8.257-10.562c0.822,1.685,0.479,3.56,0.868,5.326c0.558,2.516,1.427,4.866,2.822,7.028
		c0.493,0.767,1.054,1.435,2.096,1.171c1.003-0.253,0.886-1.111,1.056-1.896c0.629-2.896,0.455-5.85,0.711-8.769
		C348.242,264.5,348.725,260.181,349.471,255.886z"/>
	<path fill="#9FA0AA" d="M508.241,289.933c0.562,4.447-1.021,8.091-4.142,11.224c-3.949,3.968-7.968,7.821-12.812,10.727
		c-10.229,6.13-21.665,4.142-29.119-5.183c-1.891-2.365-3.581-4.891-5.386-7.325c-0.949-1.28-1.069-2.558-0.365-4.022
		c1.924-4,3.006-8.203,3.07-12.683c0.018-1.188-0.066-2.808,1.396-3.297c1.283-0.429,2.224,0.743,3.049,1.528
		c4.85,4.604,10.582,7.308,17.182,8.215c4.144,0.568,8.104,0.096,11.78-2.081c3.296-1.952,6.625-3.847,9.742-6.08
		c0.454-0.325,0.917-0.646,1.403-0.919c1.886-1.062,2.7-0.751,3.261,1.388c0.523,2.001,0.824,4.054,0.933,6.124
		C508.275,288.34,508.241,289.138,508.241,289.933z"/>
	<path fill="#E1DDE4" d="M415.075,260.606c0.179-0.528,0.271-1.108,0.549-1.58c2.539-4.297,3.124-8.91,2.396-13.781
		c-0.598-4.003-0.791-8.062-1.812-12.005c-0.55-2.121-1.477-4.028-2.848-5.729c-0.551-0.681-1.061-1.381-1.45-2.178
		c-1.904-3.876-1.41-6.488,1.802-9.363c1.008-0.902,1.998-1.824,2.996-2.738c10.688-10.071,27.74-8.594,33.846,5.344
		c2.098,4.787,2.608,9.396-0.851,13.755c-2.113,2.664-4.667,4.871-7.991,5.841c-2.297,0.67-3.701,2.081-4.547,4.202
		c-0.979,2.456-1.626,5.003-2.113,7.601c-0.736,3.926-1.587,7.827-2.93,11.598c-0.418,1.177-0.766,2.498-2.277,2.835
		c-4.098-0.323-4.638,0.116-5.193,4.247c-0.056,0.404-0.193,0.748-0.565,0.968c-1.838,0.642-3.59,0.278-5.312-0.44
		c-0.996-1.545-2.02-3.062-3.867-3.732C413.68,263.788,413.995,262.183,415.075,260.606z"/>
	<path fill="#2D2D35" d="M418.645,268.688c1.823,0.306,3.651,0.572,5.51,0.549c0.416-0.348,0.731-0.062,1.021,0.191
		c1.006,0.881,2.017,2.174,3.449,0.971c1.416-1.188,2.026-2.81,1.348-4.695c-0.185-0.514-0.549-0.979-0.368-1.576
		c1.179,0.127,1.157-0.921,1.449-1.568c1.484-3.304,2.045-6.873,2.885-10.359c0.782-3.256,1.17-6.602,2.367-9.76
		c0.997-2.627,2.539-4.318,5.529-4.977c7.025-1.544,11.352-10.164,8.822-16.849c-2.309-6.104-6.215-10.521-12.587-12.455
		c-4.63-1.407-9.135-0.87-13.577,0.917c-2.754,1.107-5.209,2.736-7.786,4.154c-0.093-0.515,0.151-0.906,0.407-1.328
		c2.359-3.912,1.919-7.771-0.372-11.511c-1.417-2.316-3.269-4.323-5.064-6.339c-2.081-2.337-2.878-4.683-1.188-7.577
		c0.678-1.163,1.031-2.511,1.666-3.704c0.893-1.678,1.729-1.761,3.197-0.494c1.955,1.689,2.889,3.994,3.733,6.319
		c1.363,3.746,2.67,7.564,3.116,11.505c0.379,3.353,2.565,4.458,5.115,5.208c2.111,0.621,4.329,0.871,6.592,0.197
		c1.847-0.549,2.753-1.273,2.885-3.212c0.092-1.353,0.052-2.716,0.022-4.075c-0.054-2.484,0.988-4.317,3.215-5.421
		c5.146-2.553,10.372-4.933,15.723-7.03c0.517-0.203,1.055-0.408,1.601-0.47c1.549-0.175,2.233,0.629,1.831,2.17
		c-0.344,1.317-0.978,2.523-1.559,3.752c-1.431,3.026-3.187,5.894-4.188,9.132c-0.582,1.882-0.197,3.353,1.354,4.414
		c1.193,0.813,1.619,1.84,1.687,3.215c0.103,2.136,0.932,2.973,3.069,3.185c0.953,0.095,1.905,0.085,2.817,0.457
		c1.473,0.601,1.779,1.515,0.763,2.724c-0.77,0.914-1.722,1.674-2.509,2.574c-2.736,3.13-4.82,6.54-4.659,10.93
		c0.039,1.06,0.206,2.08,0.59,3.033c0.52,1.292,0.047,2.146-0.974,2.859c-1.835,1.283-3.736,2.459-5.783,3.374
		c-6.861,3.063-10.675,8.505-12.582,15.618c-1.384,5.162-1.862,10.51-3.335,15.625c-1.586,5.505-4.771,9.83-10.276,12.133
		c-2.955,1.236-5.328,0.679-7.461-1.768c-1.572-1.804-3.258-3.5-4.559-5.524c-1.398-2.179-1.712-4.431-0.457-6.782
		c1.107-2.078,1.887-4.383,3.952-5.811c-0.072,1.574-0.681,3.178,0.25,4.697c-0.07,0.857-0.783,1.353-1.156,2.038
		c-0.89,1.64-0.707,3.146,0.571,3.737c1.578,0.73,2.555-0.068,3.201-1.475C418.107,269.247,418.257,268.877,418.645,268.688z"/>
	<path fill="#221F2D" d="M530.775,387.371c-1.41,0.247-2.9-0.171-4.329-0.627c-1.24-0.396-2.435-0.444-3.476,0.172
		c-2.638,1.56-5.13,0.686-7.537-0.381c-2.407-1.068-4.827-2.104-7.276-3.069c-1.48-0.584-2.963-1.173-4.562-1.395
		c-0.465-0.064-0.96-0.188-1.353-0.431c-1.152-0.705-2.562-1.426-2.471-2.954c0.087-1.441,1.646-1.548,2.718-1.92
		c2.333-0.81,4.721-1.461,7.059-2.256c2.369-0.807,2.727-2.135,1.188-4.125c-3.289-4.259-7.296-7.796-11.39-11.236
		c-1.809-1.521-1.847-1.955-0.547-3.886c1.044-1.551,2.417-2.762,3.706-4.062c2.502-2.523,3.456-5.49,2.669-8.964
		c-0.162-0.718-0.208-1.421-0.195-2.139c0.032-2.147,0.402-2.655,2.482-3.148c2.498-0.591,4.859-1.518,7.155-2.652
		c2.726-1.35,3.533-0.835,3.788,2.191c0.459,5.465,0.719,10.963,1.526,16.377c0.979,6.542,2.733,12.933,5.177,19.105
		c0.906,2.294,1.656,4.64,3.033,6.749c1.235,1.894,2.937,2.912,5.028,3.312c1.475,0.281,2.95,0.688,4.494,0.528
		c0.738-0.074,1.46,0.072,1.756,0.917c0.351,1.001-0.36,1.449-1.021,1.917C536.154,386.99,533.621,387.507,530.775,387.371z"/>
	<path fill="#9FA0AA" d="M483.614,340.321c-2.498,0.241-4.605-0.698-6.613-2.187c-5.619-4.165-10.526-9.039-14.907-14.477
		c-2.834-3.52-3.873-7.614-4.077-12.001c-0.03-0.676-0.306-1.607,0.548-1.912c0.754-0.271,1.325,0.44,1.81,0.942
		c1.735,1.797,3.712,3.268,5.867,4.509c8.287,4.771,16.606,4.967,25.034,0.303c4.292-2.375,8.087-5.403,11.821-8.531
		c0.306-0.256,0.624-0.498,0.955-0.719c0.831-0.551,1.631-1.699,2.656-1.178c1.209,0.616,0.974,2.121,0.888,3.23
		c-0.204,2.622-0.862,5.182-1.604,7.706c-2.37,8.062-6.423,15.095-12.756,20.71C490.509,339.135,487.392,340.583,483.614,340.321z"
		/>
	<path fill="#9FA0AA" d="M483.54,284.667c-3.649,0.082-6.689-1.113-9.607-2.63c-3.635-1.89-6.757-4.504-9.784-7.229
		c-1.148-1.033-1.699-2.26-1.379-3.845c0.82-4.058,1.653-8.11,2.945-12.053c0.173-0.527,0.343-1.079,0.642-1.538
		c0.644-0.991,1.479-1.396,2.629-0.688c0.82,0.506,1.548,1.112,2.286,1.724c4.198,3.478,8.93,4.36,14.123,2.782
		c3.541-1.076,6.763-2.814,9.839-4.842c0.465-0.308,0.906-0.656,1.396-0.92c1.596-0.859,2.286-0.646,2.865,1.109
		c0.801,2.423,1.176,4.953,1.582,7.468c0.382,2.36,0.775,4.728,1.579,6.979c0.671,1.883,0.153,3.271-1.372,4.387
		c-4.189,3.062-8.494,5.949-13.146,8.273C486.625,284.397,485.002,284.833,483.54,284.667z"/>
	<path fill="#9FA0AA" d="M467.325,248.342c0.602-4.526,1.087-8.634,1.709-12.72c0.495-3.26,1.719-3.995,4.791-2.745
		c6.133,2.493,12.104,2.188,18.044-0.601c2.228-1.045,2.897-0.738,3.318,1.586c0.735,4.07,1.416,8.154,2.017,12.246
		c0.41,2.787,0.315,2.771-2.285,4.176c-0.836,0.449-1.604,1.048-2.348,1.646c-2.191,1.764-4.63,3.114-7.162,4.295
		c-4.167,1.942-8.201,1.668-11.972-1.002c-1.622-1.148-3.173-2.416-4.654-3.74C467.766,250.573,466.941,249.462,467.325,248.342z"/>
	<path fill="#9FA0AA" d="M495.871,214.663c-0.381,2.969-0.749,6.05-1.628,9.038c-0.551,1.876-1.715,3.175-3.571,3.897
		c-2.15,0.838-4.28,1.725-6.497,2.383c-4.129,1.226-9.704-1.338-11.461-5.274c-0.297-0.667-0.619-1.351-0.386-2.071
		c1.378-4.271,1.134-8.826,2.346-13.123c0.044-0.154,0.052-0.318,0.107-0.468c0.413-1.104,0.538-2.589,1.761-2.95
		c1.181-0.35,1.592,1.1,2.261,1.813c3.014,3.224,6.741,4.323,11.029,3.887c0.951-0.097,1.907-0.147,2.857-0.254
		C495.213,211.258,495.952,211.949,495.871,214.663z"/>
	<path fill="#AB9AC3" d="M437.242,290.899l-0.214,0.002l-0.202-0.072c-1.934-3.438-2.48-7.12-1.964-10.994
		c0.256-0.85,0.314-1.631,0.993-2.477c2.906-3.627,3.976-8.064,4.822-12.541c0.987-5.223,1.73-10.512,3.855-15.439
		c1.521-3.523,3.612-6.561,7.595-7.68c0.291-0.082,0.612-0.059,0.92-0.082c0.854,0.902,0.284,1.82-0.043,2.676
		c-2.479,6.48-3.624,13.203-4.071,20.111c-0.193,3.017-0.509,6.016-0.385,9.043c0.021,0.473,0.049,0.973-0.455,1.267
		c-0.717,1.974-0.356,4.072-0.705,6.089c-1.246,4.411-4.928,6.85-7.985,9.777C438.854,291.104,438.066,291.505,437.242,290.899z"/>
	<path fill="#E0DBE2" d="M527.858,250.213c1.098,0.208,1.682,0.735,1.854,1.976c0.824,5.883,1.039,11.711-0.077,17.621
		c-1.675,8.863-2.693,17.832-3.543,26.814c-0.241,2.555-0.785,5.049-1.509,7.503c-0.447,1.515-1.157,2.893-2.542,4.165
		c-0.411-1.819,0.052-3.276,0.196-4.726c1.162-11.634,0.969-23.302,0.955-34.966c-0.005-3.524-0.188-7.029-0.932-10.48
		c-0.353-1.637-0.679-3.299-1.253-4.864c-0.861-2.351-0.917-4.659-0.24-7.034c0.084-0.295,0.026-0.63,0.034-0.945
		c1.021-0.215,1.271,0.717,1.798,1.221C524.17,247.998,525.637,249.636,527.858,250.213z"/>
	<path fill="#221F2D" d="M398.531,369.768c2.691-3.113,5.721-4.34,9.968-3.752c4.3,0.596,8.743,0.447,13.127-0.065
		c4.789-0.562,9.422-0.183,13.277,3.196c1.134,0.993,2.059,2.198,2.897,3.45c0.466,0.694,0.658,1.484,0.151,2.251
		c-1.318,1.993-2.582,4.034-4.255,5.758c-1.313,1.353-1.57,1.351-2.926,0.02c-2.392-2.345-4.789-4.686-6.872-7.322
		c-0.396-0.499-0.87-0.938-1.344-1.368c-1.357-1.231-1.876-1.127-2.603,0.496c-0.195,0.438-0.361,0.889-0.575,1.315
		c-1.31,2.621-3.134,3.206-5.672,1.729c-1.308-0.761-2.576-1.605-3.771-2.53c-1.474-1.142-2.924-1.251-4.362-0.101
		c-0.979,0.783-1.89,0.685-2.871,0.122C401.201,372.106,399.582,371.395,398.531,369.768z"/>
	<path fill="#9FA0AA" d="M495.28,200.126c0,0.726,0.007,0.966,0,1.205c-0.152,4.878-4.657,7.885-9.193,6.018
		c-2.975-1.227-5.442-3.312-7.983-5.242c-0.575-0.438-0.844-1.098-0.921-1.873c-0.317-3.207-0.153-6.385,0.566-9.518
		c0.456-1.981,1.299-2.703,3.391-2.683c3.711,0.037,7.335-0.261,10.728-1.923c1.328-0.651,1.787,0.255,1.986,1.231
		c0.385,1.865,0.754,3.751,0.884,5.645C494.911,195.529,495.039,198.074,495.28,200.126z"/>
	<path fill="#E1DDE4" d="M539.401,242.735c-2.203,2.701-4.998,4.166-8.535,4.08c-0.891-1.157-1.959-2.063-3.15-2.951
		c-1.865-1.387-2.975-3.496-3.594-5.771c-1.229-4.517-1.18-9.122-0.816-13.733c0.119-1.516,0.835-2.666,2.356-3.277
		c1.051-0.422,1.98-0.448,2.944,0.166c1.841,1.174,3.396,2.584,4.413,4.578C535.776,231.229,537.899,236.862,539.401,242.735z"/>
	<path fill="#C62827" d="M431.088,112.001c-0.161-1.463,0.188-2.871,0.522-4.256c0.42-1.732,1.354-1.99,2.766-0.853
		c0.433,0.348,0.812,0.768,1.196,1.172c2.227,2.334,4.853,4.126,7.694,5.609c3.328,1.735,3.445,1.989,3.214,5.707
		c-0.259,4.135-1.506,7.806-4.686,10.63c-0.652,0.579-1.346,1.127-2.08,1.595c-2.364,1.507-3.658,1.199-5.103-1.236
		c-0.816-1.376-1.318-2.881-1.713-4.442C431.744,121.351,431.478,116.667,431.088,112.001z"/>
	<path fill="#C62827" d="M456.185,82.641c0.272,0.176,0.381,0.205,0.399,0.264c1.081,3.171,2.566,6.02,5.033,8.449
		c1.537,1.512,1.167,3.759,0.082,5.578c-2.525,4.231-5.955,7.668-9.895,10.581c-1.402,1.039-2.413,0.503-2.906-1.371
		c-0.704-2.669-0.677-5.354-0.037-8.036c1.271-5.338,3.665-10.178,6.569-14.789C455.592,83.064,455.892,82.899,456.185,82.641z"/>
	<path fill="#221F2D" d="M448.094,274.712c-0.512-10.465,0.476-20.721,4.245-30.593c0.311-0.812,0.797-1.577,0.709-2.504
		c2.27-2.005,4.839-3.517,7.684-4.526c1.634-0.58,2.46-0.099,3.032,1.559c0.153,0.443,0.395,0.928,0.345,1.362
		c-0.224,1.927-0.199,3.896-0.889,5.749c-5.581,3.001-9.729,7.307-12.034,13.272c-1.243,3.218-1.526,6.614-1.977,10.001
		C448.958,270.923,449.371,273.007,448.094,274.712z"/>
	<path fill="#9FA0AA" d="M478.42,174.867c0.066-4.178,0.068-4.148,4.362-4.462c1.996-0.146,3.921-0.696,5.841-1.253
		c1.892-0.548,2.21-0.37,2.779,1.492c0.886,2.9,1.668,5.831,2.044,8.846c0.263,2.111-0.186,2.732-2.213,3.275
		c-2.498,0.669-5.061,0.781-7.613,0.56c-2.535-0.22-4.405-2.2-4.944-5.119C478.474,177.114,478.499,175.981,478.42,174.867z"/>
	<path fill="#221F2D" d="M434.862,279.834c0.653,3.665,1.31,7.33,1.964,10.995c-0.137,0.277-0.202,0.715-0.42,0.811
		c-4.011,1.775-8.209,2.693-12.568,1.987c-2.914-0.472-5.068-3.422-5.27-6.601c5.64,0.066,10.507-1.723,14.381-5.944
		C433.466,280.519,433.938,279.808,434.862,279.834z"/>
	<path fill="#C62827" d="M431.61,166.22c-0.061,2.581-0.394,4.619-0.94,6.63c-0.258,0.944-0.682,1.808-1.262,2.566
		c-1.24,1.621-2.544,1.522-3.485-0.318c-1.575-3.081-2.587-6.369-3.073-9.786c-0.423-2.973-1.24-5.938-0.531-8.988
		c0.479-2.063,1.153-2.35,2.631-0.974c1.812,1.691,3.482,3.513,4.936,5.54C431.146,162.653,431.913,164.512,431.61,166.22z"/>
	<path fill="#221F2D" d="M378.264,359.233c-0.57-2.241,0.506-3.691,2.764-4.843c2.037-1.037,3.873-2.504,5.94-3.528
		c1.472-0.729,1.878-0.479,1.808,1.18c-0.073,1.738-0.264,3.488-0.594,5.195c-0.521,2.693-0.557,5.381-0.066,8.054
		c0.232,1.267-0.146,1.841-1.367,1.909c-1.836,0.104-3.68,0.095-5.432-0.531c-2.215-0.79-2.646-2.809-3.027-4.775
		C378.139,361.125,378.264,360.302,378.264,359.233z"/>
	<path fill="#D8D6DD" d="M300.548,314.504c3.131,0.227,4.244,1.853,3.204,4.662c-1.079,2.914-2.185,5.819-3.201,8.755
		c-0.595,1.72-1.825,2.981-2.896,4.355c-1.078,1.382-2.21,2.729-3.402,4.013c-2.207,2.376-3.093,2.449-5.651,0.646
		c-0.595-0.771-0.056-1.328,0.372-1.894c3.141-4.148,5.764-8.641,8.484-13.06C298.868,319.691,299.767,317.101,300.548,314.504z"/>
	<path fill="#D8D6DD" d="M258.216,357.501c1.317,3.373,0.967,4.29-2.192,5.428c-6.682,2.406-13.456,4.478-20.43,5.901
		c-1.649,0.336-2.177-0.178-2.511-1.545c-0.245-1.003-0.553-1.99-0.833-2.983c0.548-1.012,1.567-1.029,2.495-1.074
		C242.942,362.841,250.72,360.751,258.216,357.501z"/>
	<path fill="#C62827" d="M490.625,80.821c0.011,1.844-0.418,3.639-0.641,5.456c-0.211,1.723-1.172,2.875-2.862,3.482
		c-2.924,1.048-5.928,1.153-8.973,0.972c-0.652-0.039-1.253-0.282-1.798-0.616c-0.954-0.586-1.312-1.381-0.645-2.407
		c0.521-0.799,1.026-1.61,1.784-2.228c3.406-2.776,6.956-5.35,10.668-7.701c0.202-0.128,0.403-0.263,0.619-0.363
		c1.339-0.622,1.741-0.414,1.837,1.009C490.668,79.22,490.625,80.021,490.625,80.821z"/>
	<path fill="#D8D6DD" d="M226.491,366.771c0.023,0.793,0.086,1.589,0.061,2.381c-0.04,1.223-0.681,1.815-1.932,1.965
		c-6.326,0.754-12.476,2.457-18.744,3.533c-0.548,0.094-1.104,0.159-1.643,0.297c-1,0.254-1.531-0.17-1.682-1.126
		c-0.199-1.26-0.877-2.399-0.885-3.701c6.155-1.193,12.386-1.976,18.502-3.382c1.034-0.238,2.101-0.229,3.067,0.095
		C224.372,367.211,225.412,367.081,226.491,366.771z"/>
	<path fill="#E0DBE2" d="M361.762,369.693c0.629,1.622,2.016,2.622,3.158,3.817c0.659,0.688,1.425,1.28,1.871,2.151
		c0.755,1.476,0.396,3.413-0.809,4.351c-1.219,0.951-2.623,0.759-4.047-0.598c-2.668-2.54-4.879-5.452-6.877-8.534
		c-0.562-0.867-1.091-1.758-1.695-2.595c-0.771-1.07-0.756-2.234-0.502-3.429c0.23-1.092,0.92-1.579,2.06-1.556
		c1.358,0.029,2.483,0.475,3.347,1.538c0.545,0.673,1.092,1.344,1.639,2.017C360.318,367.938,360.967,368.863,361.762,369.693z"/>
	<path fill="#D8D6DD" d="M196.133,371.19c0.193,1.017,0.419,2.028,0.571,3.053c0.252,1.696-0.021,2.189-1.722,2.502
		c-3.055,0.558-6.127,1.031-9.204,1.461c-3.156,0.441-6.331,0.754-9.488,1.186c-3.082,0.422-3.675,0.046-4.458-3.073
		c2.372-1.014,4.953-1.054,7.427-1.586C184.877,373.52,190.508,372.367,196.133,371.19z"/>
	<path fill="#C62827" d="M315.981,261.545c1.644,0.015,1.983,0.464,1.398,1.787c-1.137,2.571-2.811,4.821-4.464,7.071
		c-1.274,1.734-2.588,3.447-3.975,5.093c-1.056,1.254-1.646,1.207-2.251-0.226c-1.183-2.795-2.034-5.705-2.419-8.729
		c-0.106-0.829,0.001-1.598,0.927-1.982C308.747,263.079,312.447,262.153,315.981,261.545z"/>
	<path fill="#C62827" d="M339.08,236.812c-0.088,1.01-0.428,1.826-0.928,2.545c-2.012,2.892-4.422,5.398-7.225,7.547
		c-1.077,0.824-1.795,0.787-2.458-0.443c-1.291-2.396-2.104-4.964-2.818-7.572c-0.288-1.052,0.17-1.744,1.072-2.091
		c0.956-0.368,1.964-0.644,2.974-0.819c2.646-0.461,5.299-0.814,8.001-0.381C338.557,235.733,338.971,236.116,339.08,236.812z"/>
	<path fill="#E0DBE2" d="M311.51,285.567c0.077,0.021,0.17,0.02,0.229,0.063c3.887,2.916,3.903,2.925,1.881,7.338
		c-2.121,4.631-4.272,9.248-6.172,14.009c-1.46-0.475-2.745-0.892-4.029-1.31C305.346,298.658,308.035,291.954,311.51,285.567z"/>
	<path fill="#9FA0AA" d="M482.483,155.527c0.51-0.106,0.588-0.132,0.667-0.138c4.124-0.327,6.239,1.597,6.34,5.792
		c0.029,1.25-0.649,2.184-1.68,2.718c-1.555,0.807-3.173,1.512-4.813,2.125c-1.146,0.427-2.173,0.083-2.974-0.924
		c-1.588-1.996-2.447-4.285-2.807-6.775c-0.187-1.289,0.343-2.099,1.659-2.494C480.214,155.429,481.581,155.671,482.483,155.527z"/>
	<path fill="#C62827" d="M519.794,168.69c0.085-1.073-0.049-2.45,0.489-3.738c0.552-1.32,1.363-1.633,2.364-0.638
		c2.229,2.216,4.769,3.992,7.38,5.694c1.056,0.688,1.04,1.457,0.187,2.358c-2.042,2.156-4.295,4.061-6.761,5.703
		c-1.4,0.934-2.145,0.646-2.537-1.067C520.309,174.362,519.948,171.676,519.794,168.69z"/>
	<path fill="#D8D6DD" d="M283.197,341.753c3.153,2.257,3.176,2.374,0.239,4.546c-5.568,4.115-11.28,8.017-17.271,11.497
		c-2.496,1.45-2.609,1.419-3.455-1.449c-0.067-0.229-0.139-0.456-0.208-0.684c3.441-2.284,7.24-3.941,10.716-6.178
		C276.777,347.195,280.171,344.718,283.197,341.753z"/>
	<path fill="#9FA0AA" d="M470.181,152.744c-0.133,1.408-0.42,2.804-1.266,4.015c-1.969,2.821-4.104,5.503-6.619,7.865
		c-0.646,0.606-1.312,1.345-2.276,0.811c-0.814-0.451-0.771-1.413-0.661-2.166c0.708-4.866,2.656-9.157,6.18-12.648
		c0.893-0.885,1.994-1.356,3.274-0.782C470.071,150.405,469.936,151.655,470.181,152.744z"/>
	<path fill="#C62827" d="M254.534,349.991c-0.406,1.468-1.445,1.952-2.445,2.413c-2.63,1.211-5.407,1.873-8.292,2.145
		c-1.378,0.13-2.212-0.408-2.287-1.774c-0.108-1.988-0.201-3.991-0.08-5.976c0.116-1.896,1.113-2.474,2.96-1.913
		c0.756,0.229,1.49,0.566,2.192,0.936C249.24,347.215,251.697,348.972,254.534,349.991z"/>
	<path fill="#D8D6DD" d="M164.62,377.205c1.817,0.028,1.302,1.467,1.435,2.455c0.165,1.216-0.848,1.18-1.597,1.265
		c-6.264,0.717-12.531,1.401-18.796,2.1c-1.11,0.124-2.225,0.228-3.327,0.406c-1.229,0.201-1.434-0.641-1.727-1.505
		c-0.384-1.131,0.38-1.348,1.156-1.593C149.449,379.776,157.046,378.577,164.62,377.205z"/>
	<path fill="#D8D6DD" d="M132.906,381.161c0.32,3.096,0.215,3.175-2.691,3.309c-5.014,0.231-10.029,0.479-15.037,0.818
		c-2.486,0.169-4.929-0.14-7.39-0.311c-1.343-0.093-1.243-0.947-1.128-1.864C115.442,382.918,124.185,382.193,132.906,381.161z"/>
	<path fill="#C62827" d="M297.621,299.389c-0.788,3.178-1.377,6.639-2.976,9.803c-0.478,0.944-1.026,1.124-1.818,0.325
		c-1.882-1.896-3.128-4.202-4.248-6.587c-0.37-0.786,0.051-1.387,0.627-1.881c1.968-1.688,4.235-2.828,6.737-3.45
		C297.177,297.292,297.645,297.806,297.621,299.389z"/>
	<path fill="#C62827" d="M274.528,326.517c0.189,0.044,0.423,0.093,0.653,0.153c2.312,0.613,4.656,0.968,7.049,1.115
		c1.945,0.12,2.466,1.047,1.452,2.676c-1.617,2.598-3.931,4.566-6.357,6.392c-0.708,0.532-1.247,0.188-1.487-0.516
		c-0.98-2.861-1.791-5.771-2.293-8.759C273.438,326.949,273.747,326.499,274.528,326.517z"/>
	<path fill="#C62827" d="M213.986,362.007c-2.15,0.002-2.408-0.237-2.354-2.033c0.058-1.935,0.645-3.737,1.399-5.503
		c0.479-1.121,1.19-1.376,2.263-0.776c2.091,1.168,4.061,2.491,5.661,4.298c1.053,1.188,0.958,1.843-0.598,2.43
		C218.21,361.231,216.014,361.958,213.986,362.007z"/>
	<path fill="#D8D6DD" d="M326.368,263.173c0.211,1.051,1.371,1.521,1.608,2.729c-4.199,4.017-6.587,9.328-9.349,14.382
		c-1.214,0.014-1.564-1.39-2.652-1.442c-0.215-0.52,0.051-0.902,0.342-1.295c3.165-4.268,5.948-8.781,8.708-13.312
		C325.318,263.753,325.474,262.954,326.368,263.173z"/>
	<path fill="#C62827" d="M146.79,369.303c0-0.545-0.003-0.705,0-0.864c0.076-3.073,0.561-3.37,3.35-1.997
		c2.011,0.989,3.918,2.16,5.649,3.586c1.633,1.344,1.545,1.839-0.389,2.487c-1.822,0.61-3.682,1.022-5.629,0.976
		c-1.981-0.048-2.392-0.315-2.761-2.192C146.855,370.519,146.832,369.714,146.79,369.303z"/>
	<path fill="#E0DBE2" d="M339.809,257.72c-0.524,0.463-1.066,0.907-1.57,1.393c-0.506,0.486-0.973,1.014-1.53,1.602
		c-1.995-1.229-2.526-3.79-4.583-4.869c-0.046-0.4-0.059-0.789,0.251-1.117c1.426-1.506,2.888-2.982,4.622-4.134
		c1.32-0.877,2.014-0.581,2.385,0.96C339.872,253.581,339.764,255.658,339.809,257.72z"/>
	<path fill="#9FA0AA" d="M476.749,145.439c1.823,0.112,3.76,0.542,5.392,1.779c0.753,0.571,1.412,1.394,1.188,2.453
		c-0.216,1.025-1.227,1.198-2.033,1.444c-2.842,0.867-6.008-0.229-7.858-2.642c-1.062-1.384-0.888-1.986,0.775-2.617
		c0.372-0.141,0.758-0.262,1.147-0.329C475.749,145.46,476.154,145.473,476.749,145.439z"/>
	<path fill="#C62827" d="M181.538,367.668c-4.579,0.402-3.765-0.781-2.582-3.699c1.45-3.575,2.024-3.674,5.019-1.366
		c0.764,0.59,1.452,1.237,2.063,1.964c1.404,1.667,1.187,2.3-0.982,2.846C183.896,367.704,182.706,367.78,181.538,367.668z"/>
	<path fill="#221F2D" d="M462.566,228.022c-1.891-0.032-2.664-0.812-2.144-2.359c0.793-2.357,2.028-4.502,3.911-6.206
		c0.508-0.459,1.066-0.746,1.734-0.418c0.639,0.313,0.559,0.974,0.453,1.479c-0.388,1.86-0.397,3.799-1.168,5.584
		C464.791,227.407,463.947,228.224,462.566,228.022z"/>
	<path fill="#C62827" d="M516.548,126.293c-0.008-2.379,0.51-2.938,2.61-2.999c0.871-0.024,1.754-0.079,2.612,0.029
		c1.703,0.214,2.345,1.609,1.258,2.864c-1.033,1.191-2.198,2.293-3.429,3.282c-1.296,1.041-2.067,0.733-2.627-0.854
		c-0.155-0.446-0.269-0.913-0.351-1.378C516.555,126.848,516.559,126.448,516.548,126.293z"/>
	<path fill="#C62827" d="M116.131,376.269c-0.645,0-0.883,0.016-1.12-0.003c-0.991-0.07-2.339,0.441-2.81-0.65
		c-0.398-0.927,0.472-1.922,1.017-2.789c1.381-2.2,1.802-2.326,3.927-0.972c1.131,0.722,2.228,1.517,3.252,2.381
		c0.884,0.747,0.723,1.271-0.439,1.582C118.576,376.188,117.156,376.307,116.131,376.269z"/>
	<path fill="#C62827" d="M512.557,94.635c1.309-0.063,1.967,0.643,1.567,1.942c-0.654,2.138-1.637,4.155-2.761,6.086
		c-0.478,0.819-1.195,0.832-1.654-0.052c-0.91-1.755-1.179-3.649-0.771-5.576C509.166,95.966,511.236,94.699,512.557,94.635z"/>
	<path fill="#9FA0AA" d="M456.082,176.363c-0.027-1.466,0.37-2.835,1.058-4.105c0.589-1.088,1.349-1.223,1.98-0.255
		c1.14,1.746,1.858,3.628,1.38,5.824c-0.312,1.425-1.084,2.066-2.488,1.994c-1.254-0.064-1.847-0.852-1.928-2.502
		C456.069,177.001,456.082,176.682,456.082,176.363z"/>
	<path fill="#C62827" d="M354.467,391.577c-0.137,0.285-0.257,0.681-0.488,0.993c-1.264,1.702-2.862,2.959-4.895,3.646
		c-0.66,0.226-1.287,0.277-1.746-0.294c-0.388-0.483-0.23-1.054,0.023-1.579c0.934-1.927,2.257-3.474,4.316-4.229
		C352.898,389.667,354.471,390.487,354.467,391.577z"/>
	<path fill="#221F2D" d="M471.809,202.848c-0.392,2.807-1.289,4.633-4.037,4.514c-0.877-0.036-1.588-0.346-1.934-1.139
		c-0.324-0.744,0.366-1.146,0.788-1.58c0.941-0.971,1.916-1.909,2.884-2.853c0.473-0.459,0.981-0.861,1.681-0.454
		C471.742,201.66,471.828,202.21,471.809,202.848z"/>
	<path fill="#C62827" d="M555.617,387.515c-0.832,0.455-1.511-0.148-2.18-0.474c-2.013-0.977-4.016-1.946-6.28-2.19
		c-0.572-0.062-1.063-0.319-1.462-0.743c-0.293-0.312-0.424-0.681-0.316-1.095c0.135-0.522,0.533-0.788,1.037-0.846
		c0.307-0.035,0.646-0.014,0.938,0.084c2.893,0.969,5.572,2.354,8.021,4.173C555.71,386.673,555.858,387.045,555.617,387.515z"/>
	<path fill="#C62827" d="M400.58,400.707c-1.635,0.005-2.684-0.896-2.719-2.334c-0.033-1.388,0.728-2.327,1.836-2.27
		c1.279,0.067,3.421,1.907,3.402,2.925C403.084,399.948,401.951,400.704,400.58,400.707z"/>
	<path fill="#D8D6DD" d="M100.256,383.559c0.183,1.149-0.631,1.367-1.438,1.367c-3.987-0.001-8.006,0.213-11.82-1.34
		C91.418,383.578,95.837,383.568,100.256,383.559z"/>
	<path fill="#C62827" d="M82.246,378.299c-1.653-0.029-2.804-0.301-3.823-0.996c-0.482-0.329-0.856-0.746-0.649-1.395
		c0.19-0.599,0.663-0.938,1.253-0.938c1.742,0.003,3.272,0.661,4.562,1.792c0.646,0.567,0.457,1.16-0.362,1.413
		C82.781,378.314,82.288,378.295,82.246,378.299z"/>
	<path fill="#C62827" d="M476.175,395.891c0.01,0.75-0.398,1.033-1.026,1.094c-0.838,0.078-1.547-0.244-2.188-0.732
		c-1.176-0.896-1.584-2.28-0.81-3.032c1.106-1.076,1.861,0.064,2.609,0.616C475.45,394.344,476.004,395.041,476.175,395.891z"/>
	<path fill="#C62827" d="M520.856,147.313c1.147,0.054,2.032,0.952,1.947,1.978c-0.08,0.983-1.354,2.292-2.181,2.242
		c-0.826-0.049-1.638-1.292-1.562-2.389C519.141,148.01,519.869,147.267,520.856,147.313z"/>
	<path fill="#C62827" d="M49.809,379.712c-0.926-0.022-1.502-0.505-1.569-1.416c-0.047-0.656,0.443-1.043,1.058-1.012
		c0.848,0.043,1.554,0.426,1.583,1.401C50.901,379.348,50.44,379.65,49.809,379.712z"/>
	<path fill="#C62827" d="M526.46,393.288c-0.008,0.562-0.268,1.021-0.776,1.028c-0.882,0.013-1.446-0.48-1.521-1.413
		c-0.046-0.569-0.055-1.182,0.753-1.122C525.829,391.847,526.189,392.559,526.46,393.288z"/>
	<path fill="#32323B" d="M561.476,48.967c-0.022,0.056-0.046,0.111-0.068,0.167c-0.059-0.077-0.115-0.155-0.173-0.233
		c0.049-0.03,0.115-0.096,0.141-0.082C561.421,48.844,561.444,48.915,561.476,48.967z"/>
	<path fill="#2D2D35" d="M412.68,283.388c-0.273-0.142-0.309-0.4-0.332-0.666C412.643,282.851,412.768,283.067,412.68,283.388z"/>
	<path fill="#E1DDE4" d="M360.156,289.308c-0.051-2.272,1.402-4.257,3.418-4.779c1.853-0.479,3.769,0.328,4.73,2.375
		c0.912,1.939,1.778,3.988,2.139,6.08c0.91,5.291,3.187,10.051,5.473,14.782c3.062,6.344,5.83,12.784,7.893,19.521
		c0.185,0.604,0.309,1.252,0.312,1.88c0.006,1.763-1.277,3.302-2.921,3.61c-1.702,0.319-3.35-0.579-4.006-2.302
		c-0.426-1.111-0.709-2.279-1.047-3.426c-2.322-7.857-6.557-14.9-9.598-22.45c-1.553-3.855-3.601-7.469-5.266-11.267
		C360.695,291.995,360.333,290.627,360.156,289.308z"/>
	<path fill="#E1DDE4" d="M437.242,290.899c1.208-0.086,2.031-0.844,2.835-1.633c2.672-2.619,5.442-5.152,7.312-8.466
		c0.049,7.917,1.482,15.724,1.888,23.611c0.241,4.703,0.61,9.394,1.315,14.055c0.087,0.572,0.443,1.334-0.384,1.676
		c-0.804,0.333-1.101-0.366-1.47-0.878c-2.339-3.243-4.476-6.538-5.305-10.592c-0.558-2.726-2.024-5.188-3.096-7.768
		C438.997,297.671,437.606,294.44,437.242,290.899z"/>
	<path fill="#E0DBE2" d="M367.436,343.003c1.442-0.008,2.594,1.757,1.815,3.487c-0.573,1.275-1.578,2.25-2.659,3.032
		c-3.779,2.735-6.711,6.347-10.051,9.533c-1.391,1.328-2.453,1.621-3.551,0.825c-1.141-0.825-1.354-2.284-0.199-3.822
		c2.094-2.794,4.059-5.715,6.893-7.883c1.709-1.306,3.471-2.554,4.977-4.112C365.287,343.415,366.074,343.031,367.436,343.003z"/>
	<path fill="#D8D6DD" d="M388.805,387.366c0.073,0.932,0.43,1.946-0.613,2.596c-1.053,0.654-2.037,0.204-2.893-0.394
		c-2.336-1.633-4.355-3.681-7.049-4.853c-1.523-0.663-3.221-0.921-4.602-1.926c-0.317-0.231-0.713-0.355-1.047-0.568
		c-0.596-0.376-1.437-0.734-1.154-1.581c0.305-0.907,1.23-0.583,1.875-0.451c5.154,1.048,10.322,2.08,14.168,6.159
		c0.373,0.396,0.867,0.675,1.307,1.008L388.805,387.366z"/>
	<path fill="#D8D6DD" d="M378.611,375.776c3.539,0.623,7.367,0.202,10.884,1.798c0.508,0.229,1.039,0.413,1.534,0.666
		c0.589,0.3,1.146,0.71,0.925,1.47c-0.21,0.716-0.838,0.92-1.53,0.848c-0.554-0.059-1.119-0.118-1.648-0.282
		c-4.937-1.532-9.993-1.827-15.118-1.592c-0.871,0.04-2.25,0.499-2.419-0.783c-0.184-1.396,1.262-1.404,2.238-1.551
		C375.128,376.102,376.799,375.971,378.611,375.776z"/>
	<path fill="#E0DBE2" d="M376.792,341.858c-2.146,0.024-4.078-1.716-4.213-3.791c-0.103-1.582,2.214-3.561,4.151-3.545
		c2.258,0.018,3.863,1.517,3.912,3.648C380.689,340.243,379.029,341.832,376.792,341.858z"/>
	<path fill="#040303" d="M437.058,230.542c-0.109,0.639-0.509,0.666-1.055,0.573c-5.538-0.942-5.892,0.291-6.852,5.215
		c-0.896,4.604-1.637,9.239-2.599,13.83c-0.147,0.712,0.22,2.313-1.33,2.062c-1.169-0.188-0.804-1.392-0.812-2.214
		c-0.09-8.58,1.353-16.948,3.561-25.207c1.232-4.612,3.873-8.37,7.224-11.651c0.72-0.705,1.725-2.094,2.772-1.221
		c1.095,0.911-0.219,2.004-0.737,2.912c-0.948,1.66-1.984,3.271-2.98,4.903c-0.388,0.635-0.708,1.332-0.06,1.938
		c0.563,0.525,1.193,0.164,1.772-0.125c1.284-0.644,2.575-1.271,3.855-1.92c1.017-0.516,2.074-0.828,3.225-0.732
		c1.396,0.117,2.411,1.029,2.454,2.431c0.11,3.584-1.529,6.444-3.985,8.875c-0.543,0.537-1.39,0.88-2.114,0.056
		c0.182-1.773,1.49-3.119,1.833-4.838c0.335-1.687-0.073-2.095-1.674-1.595c-0.604,0.188-1.155,0.501-1.693,0.837
		c-2.969,1.852-3.096,2.487-1.044,5.213C436.962,230.076,437.033,230.304,437.058,230.542z"/>
	<path fill="#040303" d="M429.603,264.127c1.713,2.237,1.798,3.556,0.376,5.83c-1.229,1.972-2.834,2.183-4.544,0.636
		c-0.466-0.422-0.592-1.156-1.28-1.355c-0.283-1.812-0.346-3.551,1.239-4.907C426.71,263.201,427.943,263.115,429.603,264.127z"/>
	<path fill="#C62827" d="M437.058,230.542c-3.626-2.855-3.594-3.63,0.182-6.182c0.935-0.631,1.92-1.139,2.981-1.477
		c1.532-0.484,2.129,0.004,1.836,1.617c-0.388,2.133-1.162,4.126-2.657,5.768C438.618,230.36,437.838,230.452,437.058,230.542z"/>
	<path fill="#040303" d="M418.645,268.688c-0.314,2.826-2.338,4.195-4.403,2.981c-1.608-0.944-1.861-3.201-0.529-4.989
		c0.427-0.572,0.979-1.031,1.613-1.375C417.891,265.633,418.456,266.208,418.645,268.688z"/>
	<path fill="#E0DBE2" d="M448.309,209.157c-2.844,1.056-5.207,0.292-7.283-1.818c-0.603-0.609-0.938-1.249-1.02-2.072
		c-0.182-1.835,0.141-3.651,0.237-5.475c0.04-0.739,0.542-1.285,1.198-1.682c2.127-1.292,4.465-2.092,6.823-2.773
		c1.71-0.494,2.718,0.688,2.101,2.526c-1.172,3.489-1.822,7.066-2.232,10.703c-0.023,0.219,0.062,0.447,0.098,0.672L448.309,209.157
		z"/>
	<path fill="#D8D6DD" d="M448.309,209.157c0,0-0.08,0.078-0.078,0.08c1.01-0.79,2.104-1.461,3.341-1.78
		c1.85-0.479,2.969,0.719,2.371,2.524c-0.349,1.047-0.771,2.095-1.328,3.045c-0.695,1.187-1.662,1.352-2.837,0.682
		C448.003,212.696,447.463,211.021,448.309,209.157z"/>
	<path fill="#D8D6DD" d="M451.525,217.401c0.051-0.248,0.058-0.578,0.187-0.854c0.374-0.801,4.922-2.246,5.702-1.814
		c0.702,0.389,0.771,1.088,0.418,1.649c-1.051,1.679-2.136,3.347-3.344,4.912c-0.604,0.782-1.596,0.487-2.039-0.608
		C452.036,219.663,451.838,218.552,451.525,217.401z"/>
</g>
<path fill="#C62827" d="M446.098,400.753c-0.66,0.356-1.1,0.126-1.444-0.402c-0.458-0.706-0.501-1.484-0.365-2.279
	c0.248-1.456,1.286-2.46,2.312-2.122c1.466,0.481,0.806,1.679,0.663,2.598C447.133,399.395,446.771,400.208,446.098,400.753z"/>
<path fill="#C62827" d="M493.551,386.791c-0.528-1.804,0.153-2.821,0.919-3.675c0.734-0.236,1.504,0.062,1.855,1.046"/>
<path fill="#C62827" d="M14.309,380.927c-0.926-0.022-1.502-0.505-1.569-1.416c-0.047-0.656,0.443-1.043,1.058-1.012
	c0.848,0.043,1.554,0.426,1.583,1.401C15.401,380.562,14.94,380.865,14.309,380.927z"/>
</svg>
