<svg id="Layer_1" data-name="Layer 1" xmlns="http://www.w3.org/2000/svg" viewBox="0 0 1070.74 1342.05"><title>curled transparent</title><path d="M223.09,634.85c-1.81-7.83.44-15.12,3.28-22.15,6.13-15.14,10.4-30.84,14.44-46.61,6.62-25.82,13.21-51.64,19.5-77.54,4-16.53,7.59-33.18,11.07-49.83,1.47-7,2.35-14.17,3.19-21.3.77-6.56-2.06-12.09-6.26-16.78s-8.68-8.86-13.11-13.21c-3.52-3.45-9.4-3.51-13.94-.71-7.25,4.48-13,10.6-18.45,17.06-2.29,2.73-4.71,5.36-6.81,8.22-6.49,8.84-13.53,17.25-20.63,25.59-3.39,4-7.9,5.74-14.15,5.07-.09-3.88-.72-8-.14-11.91A208.28,208.28,0,0,1,186,405.06c3-10.66,6.63-21.16,10.57-31.52,4.9-12.9,10.22-25.64,15.64-38.33,5.23-12.22,10.47-24.47,16.37-36.38,4.55-9.21,10.12-17.91,15.23-26.85,3.93-6.85,7.63-13.84,11.8-20.54,5.94-9.53,12.25-18.82,18.33-28.26,6-9.26,11.56-18.77,17.85-27.8,5.06-7.27,10.85-14,16.44-20.92,6-7.39,11.93-14.84,18.26-21.94a198.24,198.24,0,0,1,16.05-16.1,234.13,234.13,0,0,1,21.35-17.48c17.45-12.21,36.33-22,55.58-31,24.18-11.32,48.85-21.5,74.44-29.15A362.68,362.68,0,0,1,538,48.08c12.58-2.09,25.57-2.2,38.18,1.39,1.5.42,3.08.53,4.59.89,2.61.63,3.12,2.15,1.13,3.89-4.18,3.66-8.38,7.29-12.77,10.68C558,73.52,546.64,81.81,535.58,90.5c-15.54,12.2-27.36,27.58-36.51,44.95-5,9.45-9.33,19.26-13.47,29.11-1.44,3.45-1.63,7.5-1.92,11.32-.31,4.11,0,8.27-.08,12.41-.19,19.5-.52,39-.58,58.5,0,9.94.29,19.88.62,29.82.29,8.52.46,17.08,1.33,25.55,1.37,13.39,3.11,26.74,5,40.06s4.14,26.53,6.41,39.77a319.09,319.09,0,0,0,10.07,41.07c1.07,3.44,3.28,4.73,6,6.5,8.16,5.36,16.69,10.42,22,19.17,1.87,3.11,4.29,5.92,5.89,9.15,3.2,6.48,6.52,13,8.81,19.8a94.63,94.63,0,0,1,4.37,20,53.83,53.83,0,0,1-.68,17.65c-1.66,7.18,1.38,11.57,6.43,15.32,4.66,3.47,9.63,6.5,14.44,9.76a4.88,4.88,0,0,1,.93,1.15c3.73-3.61,4.75-8,1.3-13.11a85.8,85.8,0,0,1-13.51-31.89c-2-10.52-2.07-21.06-1.13-31.7a123.14,123.14,0,0,1,7-32.54c.88-2.35,1.79-4.47,4.65-4.77,3.07-.32,5.5.49,7.1,3.46,1.32,2.42,3,4.62,4.59,6.92l1.17.07c1-2.51,2.63-4.95,2.88-7.53a69.51,69.51,0,0,1,6.14-22.11c1.69-3.76-.39-7.41-1.92-10.79a98.05,98.05,0,0,1-8-31.57,127.44,127.44,0,0,1,1.42-33.57A19.54,19.54,0,0,1,598,317.22c4.1-1.86,10,.24,13.13,4,4.14,4.9,8.52,9.66,14.41,12.56,1,.48,2.81.72,3.36.18a4.7,4.7,0,0,0,1-3.64c-2-11.48-2.63-22.79,3.19-33.5,5.12-9.41,10.13-18.9,15.46-28.2,5.43-9.47,17.58-9.6,25.3-6,1.19.57,1.74,3,2.1,4.72,1.18,5.39,5.78,11.16,11.71,11.84,5.57.64,9.82-1.69,13.79-4.89,6.44-5.18,12.54-10.8,19.13-15.77,6.22-4.69,12.86-8.83,19.38-13.11,5.9-3.87,11.76-7.87,17.9-11.34,5.71-3.21,11.18-1.83,15.47,3.1,1.48,1.69,1.89,3.4.62,5.4-1.79,2.81-3.45,5.69-5.27,8.47a34.55,34.55,0,0,0-5.37,18.32A10.83,10.83,0,0,0,768,279c3.54,2.6,6.85,5.49,10.3,8.21,7.47,5.87,15.61,6.11,24.57,3.81,7.37-1.89,15.09-2.9,22.72-1,3.79.93,7.51,6.36,7.12,10.14a4.8,4.8,0,0,1-2.32,3.07c-8.68,4.68-11.94,12.17-13.07,21.69-1,8.28-3.47,16.41-5.65,24.52-2.12,7.84,2.21,12.14,8.47,13.76,6.51,1.69,13.06,2.54,19.85,1.38,6-1,11.16,1,15.31,5.5,1.22,1.33,2.51,2.61,3.83,3.83,2.15,2,2,4.12,0,5.9-5.17,4.78-10.64,9.23-15.72,14.09a171.3,171.3,0,0,0-13.9,14.5c-3.56,4.34-2.53,9.58,1.27,13.77a25.73,25.73,0,0,0,11.88,7.23c6.94,2.12,10.3,7.09,10.89,13.68.24,2.73-1.44,6.06-3.18,8.43-3.09,4.22-6.93,7.88-10.36,11.86-2.29,2.66-2.26,4.81.33,7.07,4.72,4.13,9.53,8.18,14.47,12,5.93,4.63,8.12,11.17,9.79,18.05.34,1.41.21,3,.79,4.28,1.38,3.12-.11,5.2-2.39,6.74a74.68,74.68,0,0,0-17.8,16.81,24.14,24.14,0,0,0-5.4,14.38c0,2.95,1.26,4,3.87,2.66a70.8,70.8,0,0,0,11.91-7.28c9.42-7.54,14.22-18.24,18.55-29.1,6.16-15.41,12.27-30.84,18.14-46.35,7.05-18.64,13.4-37.48,17.07-57.17,2.17-11.61,5.37-23,7.78-34.61,1.5-7.22,2.47-14.56,3.56-21.87q1.68-11.28,3.11-22.61c.57-4.57,1-9.16,1.34-13.76.72-10.7,1.33-21.41,1.94-32.12.46-8.2.91-16.4,1.26-24.6.48-11.28.88-22.56,1.29-33.84.24-7,1.07-14,.44-20.88a63.75,63.75,0,0,0-4.41-17.09c-5.75-14.64-12.59-28.79-21.49-41.84a147.13,147.13,0,0,0-26.42-29.45c-9.35-7.94-18.57-16-27.9-24-3.57-3.06-7.3-5.94-10.9-9a22.61,22.61,0,0,1-2.31-2.65c1.21-.87,2.32-2.19,3.67-2.51,3-.72,6.18-.87,9.25-1.4,4.7-.8,9.35-2.15,14.07-2.49a50.84,50.84,0,0,1,12.73.81,280.19,280.19,0,0,1,47,13.21c11.76,4.38,23.47,9,34.93,14.06,13.5,6,26.88,12.35,40,19.08,20.48,10.49,40.31,22.18,58.68,36.05a162.67,162.67,0,0,1,31.35,30.57q18.84,24.56,37.27,49.41c2.59,3.48,4.44,7.51,6.65,11.28,5.63,9.59,11.41,19.1,16.86,28.79,4.48,8,8.56,16.16,12.84,24.25,5.69,10.77,11.87,21.32,17,32.37,6.64,14.41,12.9,29,18.46,43.9Q1209.1,406,1219.45,438c3,9.13,4.28,18.79,6.49,28.18,1.43,6.1,2.28,12.22-.08,18.19a78.86,78.86,0,0,1-5.1,9.6c-1.27,2.24-3,.87-3.89-.11a69.35,69.35,0,0,1-6.18-7.5c-8.87-12.33-17.38-24.93-26.58-37-4.93-6.47-10.53-12.55-18-16.42-3.69-1.91-7-2-10.59.25a62.22,62.22,0,0,0-20.94,21.57c-3.33,5.72-2.43,11.89-2.14,17.88.27,5.7,1.52,11.35,2.39,17,1.45,9.47,2.94,18.93,4.41,28.39,1.72,11,3.35,22,5.18,33,1.21,7.28,2.74,14.5,4.1,21.75,2,10.82,4,21.66,6.08,32.48,2.13,11,4,22.08,6.68,33,2.43,10.07,5.76,19.91,8.55,29.89a36.56,36.56,0,0,1,1.26,8c.21,4.23.07,8.49,0,12.74,0,3.38-1.58,4.38-4.47,2.74-7.19-4.05-13.53-9-17.88-16.25-3.58-6-7.73-11.6-11.31-17.57-5.73-9.55-14-15.71-24.36-19.36a97,97,0,0,1-14.07-5.84c-7.14-3.87-14.49-3.56-22-2.18a122.51,122.51,0,0,0-14.87,3.33c-10,3.14-16.21,10.27-19.77,19.91a105.58,105.58,0,0,0-6.37,28.83c-.62,8.37-1.32,16.73-1.88,25.11-.7,10.49-1.18,21-2,31.48-.67,8.87-1.44,17.75-2.57,26.57-1.45,11.36-3.09,22.71-5.06,34a146.79,146.79,0,0,1-5.23,22c-1.22,3.62-4.53,6.61-7.17,9.65-1.44,1.67-3.45,2.85-5.57,4.54a49.83,49.83,0,0,1-1.42-18.05c.57-5.76.07-11.62,0-17.43,0-.51-.3-1-.33-1.52-.65-13.89-1.43-27.78-1.84-41.68-.13-4.36,1.2-8.77,1-13.12a94,94,0,0,0-2-16.12c-1.76-8.2-4-16.32-6.19-24.41A25.83,25.83,0,0,0,989.27,692c-3.43-3.44-6.4-7.37-10-10.53q-15.93-13.76-32.27-27c-5.48-4.47-11.12-8.81-17-12.72a76.7,76.7,0,0,0-34.69-12.91c-6-.63-11.87-2.07-17.83-3a20.47,20.47,0,0,0-4.76,0c-.8.06-2,.37-2.24.92a3.17,3.17,0,0,0,.53,2.43c3.58,5.85,7.59,11.47,10.78,17.52,5.26,10,8,20.89,10.32,31.88,1.82,8.52,4.2,17,5.57,25.54a65.15,65.15,0,0,1-5.42,38.52c-5.11,10.93-10.21,21.86-15.06,32.91-1.26,2.89-1.65,6.19-2.28,9.34-1.35,6.82-2.62,13.65-3.88,20.49-1.72,9.4-3.56,18.79-5,28.23s-2.71,19.21-3.82,28.85-2,19.36-5.86,28.3c-3,6.92-6.94,13.43-10.65,20A52.57,52.57,0,0,0,839.05,930c-1.34,10.27.86,20.28,1.35,30.41.17,3.46.28,6.94.69,10.38,1.2,10.05,2,20.18,4,30.08a291.82,291.82,0,0,0,8.27,31.57c1.56,4.94,4.45,9.62,7.49,13.89,2.36,3.33,6.22,5.31,12.24,3.37,4-1.3,8.14-2.46,12.28-3.41,10.91-2.5,21-.12,30.42,5.57a75.26,75.26,0,0,1,20.43,18.53c3.9,5,5.41,11.15,6.81,17.24,1.36,5.93.66,6.76-5.16,5.11q-9.69-2.76-19.19-6.19a42,42,0,0,0-25.87-1.33c-10.21,2.81-20.26,6.24-29.29,12a10.79,10.79,0,0,0-5.18,9.45,7.89,7.89,0,0,1-4.91,7.67c-4.49,2.14-9.13,4.15-13.58.29a31.08,31.08,0,0,1-5.53-6.79c-8.84-13.86-21.81-22-37-27.18-3.62-1.22-7.35-2.93-11-2.93a23,23,0,0,0-11.53,3c-5.12,3.14-9.48,7.52-14.2,11.32-3.51,2.83-9.18,3-11.37.12a8.5,8.5,0,0,1-1.67-4.84c0-12.19,1-24.19,6.88-35.29a33.79,33.79,0,0,1,18.14-16,72.71,72.71,0,0,0,8.18-3.87c3-1.64,3.3-3.49.75-5.65-5.9-5-11.74-10.13-18.06-14.54-6.13-4.28-9.71-9.87-10-17.05a16,16,0,0,1,3.19-9.48c4-5.27,8.81-9.9,13.27-14.82a39.13,39.13,0,0,0,4.06-4.79c1.52-2.33,2.51-4.89.53-7.56-2.59-3.5-5.48-4.59-9.3-3.34-5.41,1.78-10.68,4.1-16.2,5.38-12.33,2.86-24.68,3.2-36.6-2a48.42,48.42,0,0,1-6.9-4.13c-4.22-2.76-6.75-2-7.61,3-1.93,11.17-6.86,21.12-12.2,30.89-4.36,8-8,16.22-9.84,25.11-1.56,7.54-2.57,15.44,1.76,22.29,2.36,3.74,6.28,6.62,9.85,9.43,4.57,3.6,9.81,6.38,14.15,10.2a57.79,57.79,0,0,1,9.25,11c5.83,8.6,11.32,17.43,16.91,26.18,4.42,6.92,4.37,14.34,2.31,22-2.4,8.85-4.89,10.59-13.53,7-11.35-4.66-22.24-10.42-33.45-15.43-6.93-3.1-14.17-4.94-21.79-2.28-4.68,1.64-8.21,4.63-11.41,8.43a58.23,58.23,0,0,1-18.92,14.77c-2.51,1.24-4.11-.13-5.13-2.14-1.85-3.61-3.46-7.34-5.2-11-2.29-4.83-4.81-9.51-9.31-12.68-5.1-3.6-10.43-3.42-15.78-.62-3.87,2-7.92,3.84-11.42,6.4-6.36,4.65-13.25,4.5-20.36,3.08-5.44-1.09-6.3-3.75-3.4-8.69,1.82-3.1,3.24-6.44,4.94-9.61a3.15,3.15,0,0,0-1.52-4.71c-1.12-.45-3,.61-4.38,1.36-2.5,1.39-4.79,3.16-7.27,4.58-2.7,1.54-5.39.4-7.7-.88-5.91-3.28-11.52-7.09-17.51-10.19a25.38,25.38,0,0,0-9-2.2c-2.81-.28-3.86,1.94-2.37,4.42a25.43,25.43,0,0,0,2.06,2.38c4.33,5.37,9.06,10.47,12.81,16.22,3.14,4.8,1.87,10.54.85,15.92-.12.6-1.15,1.3-1.87,1.46-5.47,1.22-10.92,2.71-16.47,3.37-8.05,1-14.82-2.73-20.33-8-7.28-7-15.58-11.42-25.49-12.83-8.25-1.17-15.26-5.16-22.28-9.24-7.26-4.22-15-7.53-23.42-7.8a21.75,21.75,0,0,0-15.86,6.15c-5.2,4.92-10.32,10-15.88,14.47-4.27,3.45-9.64,4.75-15.11,5.25-2.82.26-5.65.44-8.47.65-5.67.42-10.47-4.08-8-10.65s4.07-13.83,9-19.36c1.87-2.1,4.42-3.65,6.05-5.9,5.35-7.38,4.14-15.59-1.16-22.48-7.12-9.27-14.42-18.4-21.77-27.49-4.86-6-11.16-10.36-19-10.14-9.42.26-17.05,5.48-20.14,15.56-2.55,8.3-4,16.94-5.83,25.46-1.23,5.9-3,11.86-3,17.8,0,8.32,1.44,16.65,2.28,25,.43,4.27,1.05,8.52,1.29,12.8.47,8,1.91,15.89,5.56,22.9,6.89,13.19,10.6,27.46,15.46,41.36a162.79,162.79,0,0,0,26.79,48.3c13.49,16.87,30,30,48.82,40.36a247.18,247.18,0,0,0,51.86,21.9,214.15,214.15,0,0,0,29.25,6.06c10.57,1.47,21.29,2,32,2.63,12.12.66,24.26,1,36.39,1.29,8.51.19,17.05.39,25.55-.08,6.74-.37,13.43-1.74,20.13-2.71,6.5-.94,13-1.94,19.47-2.91,6.8-1,13.59-2.08,20.41-3,6-.8,12-1.4,18-2.11,6.75-.79,13.48-1.62,20.23-2.38,3-.33,6-.58,9.08-.79,6.5-.46,13-.65,19.5-1.35,7.35-.79,14.65-2.06,22-3.06q7.92-1.06,15.85-2A184.73,184.73,0,0,0,787,1265.63c4.83-1.83,9.81-3.49,14.23-6.06,3-1.72,4.88-5.15,7.59-7.42,6.48-5.43,13.15-10.65,19.77-15.92,2.61-2.08,5.65-3.74,7.85-6.17,9.09-10,20.49-16.76,31.88-23.63a18.56,18.56,0,0,1,11.29-2.85c5.14.33,10.38,0,15.42.79,2.65.44,5,2.71,7.43,4.32,2.19,1.46,2.08,3.46.84,5.51-.81,1.34-1.71,2.62-2.55,3.93-2.49,3.93-3.36,8.19-1.68,12.57,1.79,4.64-1,8.16-2.71,11.74-2.89,5.9-6.71,11.45-13.71,12.8-4.52.86-9.28.68-13.93.7-4.06,0-8,.58-11.23,3-4.15,3.19-7.86,7-11.84,10.4-7.44,6.45-15.16,12.61-22.34,19.35a147.8,147.8,0,0,0-13.45,15c-3.12,3.86-5.46,8.35-8.5,12.3-3.7,4.8-9.39,6.66-14.59,9.34-7.52,3.88-14.79,1.84-22.19.24-6.29-1.36-12.52-3.3-18.88-3.93-4.09-.4-8.49.74-12.56,1.86-14,3.82-27.89,8-41.86,11.91-3.84,1.08-6.45,3-7,7.21-1.08,8.58-6.61,14.9-11.34,21.55-2.15,3-5.51,1.59-8.37.91-6.35-1.51-12.63-3.39-19-4.73-7.22-1.51-14.54-2.55-21.8-3.89q-10.42-1.9-20.8-4c-5.38-1.08-10.65-1.2-15.93.71-4.66,1.68-9.59,2.69-14.12,4.65a31.62,31.62,0,0,0-15.66,15.31c-5.36,10.67-14.52,14.49-25.42,15-3.11.15-6.54-1.83-9.46-3.47a145.34,145.34,0,0,1-30.63-23.28,15.47,15.47,0,0,0-8.85-4,248.52,248.52,0,0,0-27.56-.69c-5.6.19-9.24,4.55-12.5,8.7-5.78,7.35-11.24,15.06-19,20.44-4.09,2.83-9,4-13.87,1.3a10.58,10.58,0,0,1-3-3.05q-13.44-18.42-26.77-36.9a33.94,33.94,0,0,1-3.81-6.42,16.12,16.12,0,0,0-10.29-9.62c-7.08-2.37-14.07-5-21-7.77-5.42-2.15-10.29-.63-15.34,1.33-8.4,3.26-16.8,6.58-25.41,9.18-5,1.52-10.14-.42-14.85-2.49a4.79,4.79,0,0,1-2.08-3.29c-.82-5.47-1.49-11-2-16.47-1-10.86-1.56-21.76-2.74-32.6a12.5,12.5,0,0,0-3.6-6.71,217.11,217.11,0,0,1-21.53-24.69,16.23,16.23,0,0,0-14.09-7,68.29,68.29,0,0,1-30-5.21,11.85,11.85,0,0,1-5.42-4,33.94,33.94,0,0,1-4.9-14.64c-1-8.93,1.71-16.94,5-25a102.83,102.83,0,0,0,5-15.34c.55-2.35-.17-5.19-.94-7.6-1.84-5.72-3.93-11.37-6.16-17-2.48-6.23-7.81-9.66-13.41-12.61-4.3-2.27-8.8-4.17-13.16-6.33-6.05-3-10.12-7.92-13.23-13.77-1.22-2.3-2.45-4.59-3.8-6.82a9.23,9.23,0,0,1-.13-9.57c3.21-6,6.57-11.78,11.4-16.77,4.34-4.47,7.63-9.93,11.7-14.67,2.41-2.82,5.49-5.05,8.19-7.63,1-.94,2.4-2.07,2.51-3.22a59.66,59.66,0,0,0,.07-10.18c-.49-7-1.94-14-1.68-21,.42-10.79-2.42-20.25-9-28.6-5-6.33-10.18-12.5-15.42-18.61-3-3.53-6.3-6.82-9.49-10.19-4-4.2-4.45-9.38-3.69-14.67a6.14,6.14,0,0,1,3.2-3.82c5.52-2.63,11.32-4.69,16.83-7.33,7.38-3.55,14.61-7.4,21.87-11.21,1.92-1,3.56-2.59,5.53-3.49,5.35-2.45,7.48-7.07,9-12.3A149.11,149.11,0,0,1,218,904.05c3.66-9.11,1.62-16.95-3.92-24.6-4.33-6-8.65-12.07-11.87-18.66-2.74-5.59-4.09-11.91-5.57-18-.28-1.2,1.32-3.57,2.66-4.33,8.78-5,17.78-9.59,26.59-14.52,6.71-3.75,13.57-7.36,19.77-11.85,5-3.61,6.8-9,5.59-15.54-1.76-9.6-4.39-18.84-9.15-27.34a146.56,146.56,0,0,0-9.43-14.31c-3.14-4.34-1.92-9.09-1.63-13.71.06-1,1.8-2.34,3-2.66q14-3.71,28-7a160.8,160.8,0,0,1,16.2-3.15c6.12-.79,12.06.52,17.87,2.59,1.13.4,3.3.24,3.88-.52a69.05,69.05,0,0,0,7-10.63c3.25-6.39.53-12.35-2.09-18.22-2.37-5.31-4.81-10.59-7-16a13.81,13.81,0,0,1,1.64-14,51.86,51.86,0,0,1,10.17-10.68c2.73-2,6.65-2.87,10.14-3.26,7.21-.81,14.48-.95,21.72-1.41a34,34,0,0,0,6.23-.71c2.89-.74,3.09-3.43,3.2-5.77.18-3.92-.12-7.86.08-11.78a107,107,0,0,0-2-28.64c-2.58-11.66-8.59-20.61-20.57-24.53-7.26-2.38-14.54-4.78-22.25-4.27a44.57,44.57,0,0,0-11.15,2.52c-6.78,2.28-13.46,4.85-20.12,7.44-7.51,2.91-12.76,8.44-17.08,15.05-3.92,6-8,11.9-12,17.88-4.77,7.18-11.85,10.18-20.06,11.16C225.07,634.71,224.24,634.75,223.09,634.85Zm613,618.81-1-.92c-4.07,2.94-8.64,5.4-12.1,8.94a54.35,54.35,0,0,1-21.41,13.83q-16.46,5.64-33.18,10.53c-7.46,2.18-15.06,3.9-22.67,5.46-6.72,1.38-13.68,1.75-20.29,3.48a106.3,106.3,0,0,1-26,3.64c-5.12.06-10.4.16-15.3,1.42-12.5,3.23-25.13,4.32-38,4.33-4.35,0-8.72.89-13,1.63-5.84,1-11.6,2.43-17.44,3.33-8.14,1.26-16.33,2.29-24.51,3.26-7.89.94-15.78,1.89-23.7,2.44-3.86.27-7.77-.29-11.66-.56-8.8-.61-17.59-1.26-26.39-1.89-11.94-.86-23.86-2-35.82-2.46-8.62-.32-17.12-1.07-25.44-3.31-9.2-2.47-18.48-4.74-27.51-7.74-5.79-1.91-11.05-5.38-16.8-7.45a178.38,178.38,0,0,1-33.4-16c-13.39-8.25-26.45-16.85-37.38-28.29-5.32-5.56-10.95-10.92-15.57-17A274.7,274.7,0,0,1,320,1204.24a129.26,129.26,0,0,1-13.17-31.9c-4.19-15.5-12.87-29.55-14.69-45.82-1-9.23-2.42-18.41-3.44-27.64-.48-4.39-.6-8.83-.66-13.25-.1-6.5-.56-13.07.16-19.49.88-7.93,2.82-15.74,4.27-23.6a87.77,87.77,0,0,1,14.21-34.94c4.89-7,3.92-12.18-3.57-16.16-9.37-5-9.29-12.42-8.49-20.08a7.86,7.86,0,0,1,5.42-6.8A103.35,103.35,0,0,1,316.37,961c7.18-.88,14.07,1,20.85,3.44a33.27,33.27,0,0,0,20.26,1,32.6,32.6,0,0,0,20.74-16.35c2.28-4.09,4.63-8.63,2.75-13.6a41.48,41.48,0,0,0-4.79-9.58c-4.29-6-7.51-12-4.71-19.57.73-2,1.49-3.59,4.13-3.5s2.42,2.26,2.83,3.79a23.54,23.54,0,0,0,8.66,12.95c5.48,4.18,8.66,9.49,8.62,16.6,0,8.82-1.61,17.26-6.24,24.87-4.83,7.93-11.07,14.4-19.89,18-6.43,2.61-13.07,2.63-19.9,2.35a48.12,48.12,0,0,1-21.57-5.55c-6-3.29-12.24-4.19-18.51-.89-1.68.89-4,2.57-4.06,4s2.3,2.95,3.73,4.3a5,5,0,0,0,2,.64,8.58,8.58,0,0,1,6.65,7.44c.23,1.54.39,3.1.68,4.63,1.2,6.19,1.46,6.55,7.71,6.37,15.82-.46,27.43,7.78,37.62,18.47,6.72,7,12.82,14.68,19.08,22.16,5,6,9.16,12.55,8.75,20.76-.35,7.18,2.81,8.59,7.67,9.24,11,1.45,22.05,2.35,33.1,3.27,6.28.52,12.43,1.47,18.08,4.33,8.62,4.37,16.91,9.5,26.42,11.79a91.39,91.39,0,0,0,13.82,2.29c3.45.28,5.12-2.68,3.49-5.7a25.91,25.91,0,0,0-3.8-5.32c-2.73-3-5.81-5.61-8.45-8.65-1-1.13-1.95-3.39-1.45-4.41a6.49,6.49,0,0,1,4.29-3.08,17.63,17.63,0,0,1,12.25,2.73c1.89,1.2,4.67,2.33,6.61,1.82a15.47,15.47,0,0,0,9.46-7.26c1.92-3.24,1.84-7.56-1.16-9.84a60,60,0,0,0-11.91-7.24,115.45,115.45,0,0,0-49.2-10.31c-5.44.1-10.89.27-16.31,0-10.36-.58-19.63-3.87-26.57-12.06-4.66-5.49-6.42-11.88-4-18.71,3.81-10.56,12-17.19,21.76-21.87,8.61-4.1,17.65-7.37,26-11.89a109.68,109.68,0,0,0,19-13.1,97.24,97.24,0,0,0,20.55-24.14c5-8.38,8.68-17.12,8.06-27.13-.32-5.23-.75-10.46-1.26-15.67-1-10.24-4.23-19.82-8.14-29.29a58.47,58.47,0,0,1-.62-45.14,7.51,7.51,0,0,0-1.41-8.19c-2.4-2.71-4.33-5.84-6.47-8.78-5.71-7.84-12.66-13-23.11-12.64-3.78.15-7.68-1.49-11.46-2.55-.9-.25-2.26-1.58-2.14-2.18a6.08,6.08,0,0,1,2.12-3.18,5.34,5.34,0,0,1,3-.82c8.19-.47,16.38-1.1,24.58-1.19,3.6,0,7.21,1,9.78,4.1,2.74,3.31,5.64,6.49,8.44,9.76,6.2,7.24,12.64,14.3,18.48,21.83a65.45,65.45,0,0,1,8.27,14.08c1.32,3.08,1.31,7.38-1.77,9.64-2.92,2.14-6.52,1.47-9.65-.77a34.4,34.4,0,0,0-5.21-2.82c-2.77-1.32-4.8-.19-4.9,2.8a15.87,15.87,0,0,0,.45,5.25c2.42,7.71,4.83,15.42,7.61,23,4.65,12.71,7.78,25.67,8.15,39.26.29,10.8-2.07,21.17-4.65,31.51-1.77,7.09.71,9.92,7.32,10.32a136.08,136.08,0,0,0,35-1.87,213.28,213.28,0,0,1,41.47-4.39,45.25,45.25,0,0,0,6.55-.64c5.27-.78,10.27-4.9,10.42-9.32a38.31,38.31,0,0,0-1.2-12.1c-3.89-13-6.91-26.14-5.59-39.84a19.89,19.89,0,0,1,2.57-7.48,2.48,2.48,0,0,1,4.41-.22,8.42,8.42,0,0,1,1.78,3.86,132.52,132.52,0,0,0,9.85,35.61c3.67,8.77,5.15,17.77,2.16,26.84-1.91,5.79-5.1,11.16-7.81,16.68-3.15,6.43-3.94,12.89-.22,19.34,2.65,4.59,5.64,9,8.25,13.61,4.17,7.37,5,15.46,4.33,23.71s-1.68,16.66-2.46,25a40.22,40.22,0,0,1-5.89,18.19c-3.3,5.17-6.66,10.31-10.28,15.24-1.91,2.61-2,5.14-.27,7.41a59.59,59.59,0,0,0,7.05,7.52c4.28,4,8.76,3.2,13.25.25,4.76-3.12,10-4.11,15.19-1.78a54.59,54.59,0,0,0,30.14,4.69c4.6-.6,9.37-.65,13.29-3.8,5.1-4.11,9-8.22,2.59-14.74a72.37,72.37,0,0,0-13.5-10.32c-6-3.72-12-7.21-15.28-13.9-4.74-9.77-3.46-20.19-2.74-30.38.42-5.9,2.18-11.83,4.15-17.46,1.7-4.85,4.4-9.38,6.93-13.9,5.77-10.34,8.89-21.68,12.6-32.8,2.87-8.59,1.28-15.75-5.67-21.77a89.6,89.6,0,0,1-9.53-9.56,66.7,66.7,0,0,1-7.59-10.65,43.57,43.57,0,0,1-5.22-18.13c-.67-8.76-2-17.49-2.36-26.26-.32-8,.21-16.06.56-24.08.25-6,.59-12,1.28-17.91,1.32-11.39,2.47-22.84,4.52-34.11,2.24-12.23,5.36-24.3,8.21-36.41,2.46-10.4,5.31-20.7,7.56-31.13,1.83-8.43,3.29-17,4.39-25.51a67.82,67.82,0,0,0,0-14c-.23-3-3.59-5.31-6.06-4.47a69.51,69.51,0,0,0-10,4.19c-6.6,3.48-13.12,7.13-19.57,10.89-2.68,1.57-5.84,3.09-7.47,5.51a92.78,92.78,0,0,0-9.56,17.37c-5.28,13.4-6.84,27.77-9.66,41.8a75.72,75.72,0,0,1-18,36.44,50.24,50.24,0,0,1-29.51,16.44c-6.19,1-12.79,1-18-3.32-5.66-4.72-11-9.83-16.31-15-5.74-5.55-9.9-11.77-10.71-20.24-.86-9-.55-17.58,4.07-25.49,2.66-4.56,5.81-8.87,8.91-13.17,5.75-8,9.32-16.61,8.2-26.6-.88-7.87-1.74-15.78-3.3-23.53-1.92-9.51-5.16-18.56-11.24-26.45a17,17,0,0,1-3.13-8.29,136.88,136.88,0,0,1-.67-18A17.36,17.36,0,0,1,532,616.52c3.37-3.6,7-6.91,10.37-10.54.94-1,1.84-2.82,1.61-4.05a25.88,25.88,0,0,0-2.86-8c-.95-1.61-3-2.67-4.65-3.75a6.4,6.4,0,0,0-3.46-1.24c-3,.17-6,.89-9,1.1-10.17.71-20.36,1.15-30.52,2A78.3,78.3,0,0,0,464,600.31a180.82,180.82,0,0,0-20.68,12.74c-13.25,9.21-26.32,18.67-39.31,28.23-8.19,6-14.33,13.58-17.25,23.64-4.09,14.08-10.86,27.48-9.12,42.9.55,4.79-.58,9.8-1.13,14.69-1.21,10.68-2.67,21.32-3.78,32-1,10-1.79,20-2.53,30.08-.16,2.19-.64,4.41-2.89,4.52a6.54,6.54,0,0,1-5-2.3A56,56,0,0,1,356.84,776c-4-10.28-4-21.27-5-32-.8-7.95-.91-16-1.37-24a41.56,41.56,0,0,0-.65-5c-.79-4.24-3.33-5.44-6.65-2.61A158.11,158.11,0,0,0,329,725.92a138.72,138.72,0,0,0-13,16.07c-11.94,17.77-23.73,35.66-35.17,53.76a188.06,188.06,0,0,0-18.36,37.83c-4.28,12.11-7.94,24.43-12.09,36.59-5.12,15-10.52,29.92-15.67,44.92-2.59,7.55-5.57,15.07-7.12,22.85-2,10-2.58,20.27-4,30.39-1.14,7.92-2.43,15.84-4.12,23.66-1.87,8.65-5,17-4.19,26.15.25,2.78-.43,5.64-.63,8.47-.42,6-1.64,12.05-1,17.94,1.17,11.37,3.46,22.62,5.09,34,1.36,9.39,2.52,18.81,3.64,28.24.62,5.2.85,10.44,1.5,15.64.87,7,1.93,14,3,21,.75,4.92,1.46,9.87,2.51,14.73,1.55,7.18,6.46,12.48,10.63,18.17,2.68,3.67,5.6,7.1,6.07,12.06.39,4.07,1.07,8.42,2.9,12,4.32,8.4,9.44,16.39,14.16,24.59,2.22,3.86,4.09,7.92,6.45,11.69,1.49,2.37,3.67,4.29,5.38,6.54a158.42,158.42,0,0,0,26.26,27.26c12,9.67,24.38,18.89,37.12,27.53,8,5.4,16.74,9.68,25.42,13.9,10,4.86,20.85,7.39,31.68,10,9.13,2.19,17.95,5.71,26.85,8.81,9.45,3.3,19,5.93,29.05,6.83,5.8.51,11.54,1.73,17.34,2.41a76.71,76.71,0,0,0,11.33.62c5.66-.17,11.3-1.11,16.95-1.12,11.11,0,22.22.4,33.33.55,6.79.09,13.59,0,20.39,0,.85,0,1.69.09,2.54.07,8.49-.15,17.16.72,25.42-.75s16.66-3.42,25.13-4.51c5.42-.69,11-1.55,16-3.48,11.75-4.45,23.93-6.2,36.29-7.26,5.12-.44,10.32-.45,15.34-1.4,11-2.08,22-4.22,32.83-7.08,18.63-4.93,37.22-10.09,55.63-15.79,13.55-4.19,26.86-9.23,40.16-14.22,9.07-3.4,17.52-8,24-15.55,3.74-4.36,7.29-8.89,10.83-13.41A11.64,11.64,0,0,0,836.08,1253.66ZM662.66,449.86c.77-1.06,1.39-1.82,1.91-2.65A56.7,56.7,0,0,1,688,426.13a76.89,76.89,0,0,1,35.15-7.54c6.43.12,11.89,2.64,15.45,7.68,8.18,11.55,15.66,23.65,19.53,37.4s7,27.53,10.22,41.36a171.85,171.85,0,0,1,3.18,18.43c.75,6.46.87,13,1.37,19.49.8,10.46,1.78,20.9,2.48,31.36.43,6.43.47,12.87.68,19.31.21,6.22.51,12.44.62,18.67.1,5.86,0,11.72,0,17.59,0,9.15-.28,18.32.15,27.46.44,9.4,1.56,18.77,2.44,28.16.6,6.45.73,13,2.09,19.33,2.91,13.47,6.61,26.77,9.73,40.19,2.17,9.34,6.37,17.71,10.78,26.11,8.1,15.4,12.7,31.66,10.57,49.37-.94,7.9-1.15,15.9-2,23.82-1.1,10.37-2.41,20.73-3.8,31.07a115.12,115.12,0,0,1-11,35.53c-2.47,5-5.28,9.9-7.75,14.93-1.3,2.66-.09,4.12,2.87,3.75a12,12,0,0,0,3-.84c10.22-4.2,20-9.13,29-15.72s16.12-14.26,20.88-24.2,5.52-20.6,7-31.18c.79-5.59,1.33-11.2,2-16.8.78-6.21,1.64-12.4,2.43-18.61.71-5.49,1.4-11,2-16.48q1.57-13.85,3.08-27.72a30.06,30.06,0,0,1,.43-4c2.74-11.11,8-21.18,13.45-31.08,5.91-10.79,9.9-21.74,9.17-34.32A102.79,102.79,0,0,0,878,682.69c-3.15-9.65-6.87-19.12-10.72-28.52-2.46-6-5.19-11.93-10.43-16.22-3.76-3.08-7.7-5.62-12.76-5.91-2-.11-3.36.61-3.86,2.46a90.75,90.75,0,0,0-2.32,10c-1.65,10.94-.64,21.81,1.48,32.56,1.38,7,5.29,12.81,10.12,18a85.58,85.58,0,0,1,7.92,9.34,6.34,6.34,0,0,1,.38,5.27c-.48,1.1-2.7,1.78-4.23,2-4.52.68-7.92-1.86-11.29-4.39a42,42,0,0,1-13.26-16c-5.26-11.42-3.17-23.64-3.06-35.53.08-9.19,1.47-18.36,2.38-27.53.57-5.82,1-11.68,2.07-17.43,1.66-9.12,1.81-18.25-.6-27.13a117.12,117.12,0,0,1-4.06-31.29,17,17,0,0,0-.47-3.39c-1.52-7.32-3.49-14.57-4.49-22-1.13-8.41-1.48-16.93-2-25.42-.54-8.83-.92-17.67-1.29-26.51-.47-11.38-.62-22.78-1.35-34.15-.76-11.69-1.48-23.45-3.28-35-1.7-10.82-4.54-21.5-7.37-32.11-2-7.29-5.24-14.24-7-21.56-2.6-10.79-4-21.87-6.64-32.64-1.77-7.18-5-14.07-11.7-18.22a160.38,160.38,0,0,0-14.89-7.89,8.49,8.49,0,0,0-4.68-.41c-5.25.73-10.46,1.77-15.71,2.53-4.13.6-8.33.75-12.44,1.47-7.21,1.25-14.35,1.21-21.26-1.19-4.08-1.42-7.84-3.76-11.86-5.42-5.31-2.2-9.75-1.4-11.15,5-.69,3.14-.93,6.37-1.53,9.54-1.25,6.66-5.55,11.56-9.93,16.29-6.18,6.67-12.43,13.31-19,19.6-7.54,7.23-11.21,15.91-12.42,26.19-.75,6.42-2,13.18-4.83,18.88-5.54,11.05-15,18.48-25.87,24.38-2.93,1.59-6.15,4.37-7.23,7.34-3.71,10.19-6.69,20.68-9.65,31.13a22.16,22.16,0,0,0,2.6,18.4,31.32,31.32,0,0,1,5,18.09c-.19,5.76-.87,11.51-1.2,17.27a29.56,29.56,0,0,1-5.46,16,80.17,80.17,0,0,0-12,22.85c-1.28,4-1.79,8.55-4,12-3,4.61-2.33,9.62-3.33,14.43a3.41,3.41,0,0,0,.62,2.6c2.83,3.18,5.81,6.22,8.61,9.18a39.26,39.26,0,0,1,4.41-1.76c6.58-1.77,13.19-3.4,19.77-5.19a4.24,4.24,0,0,0,2.12-1.68c2.36-3.45,4.57-7,6.92-10.46.84-1.25,2.18-2.21,2.84-3.53,4.08-8.15,8.12-16.34,12-24.59a109.27,109.27,0,0,0,4.14-10.66c1.93-5.55,3.56-11.28.26-16.8-2-3.28-4.68-6.1-6.9-9.23a61.34,61.34,0,0,1-9.51-22.42c-1.07-4.85-2-9.93-1.68-14.82.29-4.52,1.95-9.07,3.66-13.34a89.47,89.47,0,0,1,7.21-14.38c2.77-4.39,6.33-8.29,9.61-12.34,5.68-7,11.44-13.91,19.58-18.28q4.05-2.18,8.09-4.36c-3.67,8.82-7.72,17-8.22,26.22S662.66,440.31,662.66,449.86ZM938.14,174.5l-.8.39c.29,1,.56,1.9.88,2.84,4.52,13.28,8.22,26.73,7.93,40.91-.14,6.39-.79,12.78-1.23,19.17q-.61,9-1.29,17.91c-.83,10.77-1.8,21.53-2.49,32.31-.43,6.63-.47,13.29-.68,19.94,0,.21,0,.42,0,.64-.84,8-1.65,16-2.54,24-.82,7.47-1.5,15-2.66,22.4-1.67,10.68-3.63,21.31-5.64,31.94-2.12,11.22-4.17,22.47-6.74,33.59A471.5,471.5,0,0,1,904.81,480c-7.43,19.77-15.2,39.36-26.1,57.55-5,8.28-11.32,14.92-20.55,18.44-4.74,1.81-9.39,3.85-14.09,5.76a5.39,5.39,0,0,0-3.55,5.4c.18,3.94,1,7.85,1.36,11.79.47,5.87.91,11.75,1,17.63.09,4.52-.49,9-.51,13.57a5.69,5.69,0,0,0,4.33,5.85,20.6,20.6,0,0,0,6.2.71c6.62-.29,13.22-1.18,19.83-1.13,9.58.06,19.18.4,28.72,1.26a68,68,0,0,1,33,12.23c13.49,9.4,26.65,19.31,39.64,29.4,8.76,6.81,16.95,14.34,25.47,21.47a37.13,37.13,0,0,0,4.89,3l1.67-4.86a4.56,4.56,0,0,0,.18-.6c1.84-9.59,4-19.13,5.43-28.78s2.47-19.08,3.2-28.66c.92-11.85,1.88-23.74,1.87-35.62,0-21.89-.71-43.79-1.17-65.69-.11-5.48-.38-11-.64-16.44-.15-3.14-.35-6.29-.65-9.43-.81-8.44-1.7-16.86-2.51-25.3-.68-7.09-1.13-14.21-2-21.27-1.1-9.11-2.49-18.18-3.76-27.26-1.29-9.3-2.37-18.62-3.93-27.87-1.87-11.17-4-22.29-6.27-33.39-2.77-13.73-5.35-27.52-8.71-41.11q-6.55-26.57-14.27-52.83c-3.91-13.31-8.39-26.48-13.11-39.54-4-11.11-8.58-22-13.22-32.91C944.11,185.61,941,180.12,938.14,174.5ZM941,153.28l-.55.66c.38.8.75,1.61,1.14,2.41,5,10.2,10.25,20.25,14.79,30.63,5.44,12.44,10.65,25,15.22,37.8q8,22.4,14.66,45.25C991,286.26,995,302.66,999,319.08c2.71,11.19,4.85,22.53,7.09,33.83,1.65,8.36,3.07,16.76,4.54,25.16s3.05,17,4.33,25.52c1.25,8.36,2.17,16.76,3.27,25.14,1,7.86,2.24,15.69,3.1,23.57.83,7.71,1.3,15.46,2,23.19.82,9.6,1.79,19.19,2.5,28.8.59,8.09,1,16.18,1.28,24.28.31,7.71.72,15.42.61,23.13-.25,17.22-.59,34.46-1.3,51.67-.44,10.89-1.41,21.77-2.53,32.62-.92,9-2.44,18-3.58,26.93-.11.9.57,1.89.88,2.84.76-.54,1.89-.9,2.23-1.64,3.44-7.34,7.19-14.58,10-22.17,3.85-10.51,10.93-17.26,21.34-20.75a69.55,69.55,0,0,1,28.66-3.29,94.49,94.49,0,0,1,36,10.4c8.24,4.34,16.07,9.47,24.09,14.25,3.52-1.93,4.83-5.15,4.11-9.35-.35-2.05-.36-4.17-.72-6.23-2.29-13.1-4.55-26.21-7-39.29-2-10.62-4.16-21.2-6.22-31.8-1.76-9.07-3.56-18.14-5.2-27.24s-3.25-18.44-4.7-27.68c-1.32-8.44-2.41-16.92-3.61-25.38-.73-5.16-1.29-10.35-2.22-15.48-1.46-8.06-3.56-16-4.68-24.12a215,215,0,0,0-7.66-33.66,344.47,344.47,0,0,0-25.13-59.94c-5-9.38-9.78-18.87-15.31-27.91-9.49-15.51-19.16-30.93-29.39-46-9.42-13.84-19.53-27.24-29.63-40.61-6.8-9-14-17.68-21.21-26.36s-14.58-17.32-22-25.83c-6-6.81-12.1-13.46-18.25-20.09A17.29,17.29,0,0,0,941,153.28Zm-463-7.5-.57-.29a4.82,4.82,0,0,0-.78.92c-6.17,12.27-12.91,24.29-18.32,36.88-7.41,17.23-14.15,34.77-20.54,52.41C427.53,264,419.54,293,412.37,322.18c-3,12.19-5.86,24.42-8.31,36.72-3.06,15.39-5.7,30.87-8.4,46.33-2,11.47-4,23-5.66,34.49-1.32,9-2.18,18-3.27,27-1.25,10.36-2.62,20.71-3.76,31.09-1,9.05-1.91,18.12-2.53,27.2-.82,12.08-1.73,24.17-1.86,36.26-.18,16.94.23,33.89.58,50.83.13,6.3.67,12.59,1.31,18.86.28,2.74,1.27,5.41,2,8.53,2-1.25,3.16-1.9,4.25-2.7,12.07-8.88,23.95-18,36.26-26.59,8.6-6,17.79-11.12,26.7-16.66,12-7.44,24.55-12.91,38.94-13.91a156.25,156.25,0,0,1,29.58.73c2.62.31,5.28.35,8.31.53-.44-.71-.63-1.05-.85-1.37-5.13-7.61-10.06-15.33-13.14-24.05-2.56-7.22-5.45-14.39-5.35-22.23.13-9.55,2.31-18.77,4.69-28,.81-3.11,2-6.22.74-9.6-3.71-9.78-7.6-19.51-10.87-29.45a498.39,498.39,0,0,1-16.31-60.63c-3.12-16-6.14-32-8.76-48.14-1.54-9.48-2.34-19.09-3.24-28.66-1-10.64-1.83-21.31-2.56-32-.57-8.19-1.19-16.4-1.25-24.6-.16-23.46.2-46.92-1.85-70.35a91.87,91.87,0,0,1,.63-19,172.1,172.1,0,0,1,4.1-21.06C473.92,156.41,476.14,151.14,478,145.78Zm-1.72-21-.93-.83a12.81,12.81,0,0,0-2.17,1.49c-10.86,11-21.9,21.87-32.46,33.16-11.35,12.13-22.34,24.6-33.3,37.08-6.56,7.47-13,15.06-19.05,22.94-9.13,11.89-17.84,24.09-26.75,36.15a489,489,0,0,0-38.21,60.65c-10,18.82-19.08,38.13-24.62,58.84-2.14,8-3.62,16.19-5.6,24.24-2.24,9.16-5,18.21-7,27.4-2.93,13.07-5.09,26.31-8.22,39.32-3.95,16.42-8.66,32.66-12.82,49q-7.14,28-13.83,56.18a146.19,146.19,0,0,0-2.7,16,6,6,0,0,0,1.51,4.45c.6.59,2.82,0,4-.59,2.19-1.16,4.09-2.85,6.21-4.15,14.09-8.63,29.12-14.94,45.67-16.42,11.2-1,22.48-.47,33,4.38,8,3.7,14.73,9,17.69,17.63,3,8.92,5.6,18,8.5,27,.39,1.21,1.48,2.2,2.45,3.59,0-8.16-.07-15.61,0-23.07.14-12.06.25-24.13.65-36.19.46-14,1.18-28,1.9-42,.28-5.45.74-10.89,1.31-16.31.73-6.85,1.7-13.68,2.47-20.52.72-6.34,1.19-12.71,2-19,1.13-8.78,2.5-17.53,3.74-26.3,1.31-9.29,2.42-18.61,3.91-27.87,2-12.11,4-24.22,6.38-36.25,3.2-16.08,6.33-32.2,10.3-48.1,5.38-21.51,11.15-42.94,17.47-64.2,4.78-16.09,10.2-32,16.2-47.7q10.08-26.3,21.82-51.94C460.74,152.1,467,142,472.69,131.53,473.9,129.3,475.08,127.06,476.28,124.83ZM930,99.1l-.62.77a28.68,28.68,0,0,0,1.44,3.53,94.16,94.16,0,0,1,9.71,24.84c1,4.48,1.29,9.27,5,12.86,4,3.92,7.79,8,11.57,12.17,7.93,8.7,16,17.34,23.65,26.25,8.61,10,17.09,20.08,25.29,30.4,9.33,11.75,18.59,23.58,27.32,35.78,9.62,13.43,19,27.06,27.76,41.07,9.62,15.43,18.65,31.24,27.44,47.15,4.92,8.92,9.13,18.26,13.15,27.62,4.67,10.86,9.24,21.79,13,33a215.54,215.54,0,0,1,10,44.6c.1.85.9,2.17,1.54,2.28a3.61,3.61,0,0,0,2.59-1.28c4.52-5,8.89-10.18,13.43-15.19,3.65-4,8.53-4.51,13.38-3.49,7.7,1.61,14.6,5.29,21.18,9.53,7.75,5,15.48,10,23.48,15.22a16.1,16.1,0,0,1,2.61-2.82c1.4-.94,1.48-1.76,1-3.34-6.09-19.27-11.81-38.65-18.13-57.84-7.44-22.63-17.4-44.24-27.82-65.62-5.05-10.38-10.41-20.65-16.21-30.63-8.86-15.28-17.67-30.63-27.53-45.26a379.87,379.87,0,0,0-27-34.84c-8.26-9.62-17.5-18.42-26.57-27.32a120,120,0,0,0-14.39-12.15c-11.44-8.12-23-16.1-34.81-23.68-15.91-10.21-31.89-20.35-48.25-29.8-8.41-4.86-17.69-8.25-26.64-12.15A40.71,40.71,0,0,0,930,99.1Zm-446.44-27c-10.57,4.41-21.2,8.12-31.13,13.18-14.26,7.27-28.09,15.38-42,23.39-10.88,6.29-21.57,12.93-32.3,19.47-14.7,8.95-27,20.87-39.42,32.55-7,6.56-13.37,13.8-19.76,21A223.58,223.58,0,0,0,303.79,200c-9.08,12.67-18.15,25.4-26.4,38.61C267.92,253.74,259,269.26,250.5,285c-6.5,12-12.33,24.36-17.84,36.83-6,13.66-11.6,27.54-16.95,41.49-3.88,10.12-7.08,20.51-10.46,30.43l6.28,2.4c4.88-2.93,10.18-6.43,15.76-9.4,6.85-3.65,13.8-7.18,21-10.13,3.2-1.31,7.05-1.46,10.6-1.44,6.3,0,9.66,4.9,13.17,9.14,2.52,3,4.55,6.47,7,9.6.62.81,1.94,1.73,2.75,1.57s1.44-1.58,1.76-2.58c.44-1.37.37-2.9.76-4.29,3.12-11.06,5.88-22.25,9.55-33.13,7.21-21.36,17.46-41.38,28.85-60.75,7.58-12.89,15.84-25.4,24.28-37.75,8.23-12,16.89-23.76,25.72-35.35,7.72-10.13,15.83-20,24-29.77,7.71-9.26,15.62-18.37,23.59-27.41,5.15-5.85,10.44-11.61,15.9-17.17,10.64-10.83,21.26-21.68,32.27-32.14,4.24-4,7.24-8.34,8.68-14C479.46,91.75,484,82.89,483.55,72.05Zm34.18,369.74-.72.69.3.75c3.08,8,6.27,16,7.13,24.69.43,4.34,1.26,8.64,1.89,13,.42,3,1.33,6,1.09,8.91-.34,4.07-1.55,8.08-2.38,12.11-1.61,7.72-3.14,15.45-4.83,23.15a33.16,33.16,0,0,0,1.08,18.46c2.81,7.84,5.19,15.9,10.08,22.91,3.71,5.33,7,10.84,12,15.23S554,591,554.64,598.43c.54,6.84.45,13.72-5.14,19.13a67.29,67.29,0,0,0-7.89,9c-5.34,7.43-1.77,16.15,3.07,22.81,3.59,4.93,7.14,9.78,8.38,15.84s2.34,12.25,3.19,18.42c1.32,9.67,3.94,19.31,2.45,29.15-.86,5.69-1.86,11.64-4.28,16.76-3.36,7.09-8.23,13.45-12.26,20.23-4.16,7-6.85,14.5-1.69,22a159.19,159.19,0,0,0,13.84,16.66c5,5.43,10.91,6.56,18.14,3.93,10.07-3.65,16.51-11,22.3-19.35,5.44-7.85,7-17,8.6-26.12,2.23-12.57,4.36-25.13,8.9-37.17,5.37-14.23,14.47-24.91,28.15-31.79,6-3,11.79-6.61,17.58-10.11,3.62-2.19,4.14-3.65,2.71-7.57-3-8.27-1.85-16.11,1.78-23.88s9.52-14,15.52-20c1.2-1.21,2.55-3.44,2.17-4.72s-2.66-2.53-4.33-3c-2.88-.79-5.94-.9-8.91-1.39-4.42-.72-7-3.21-6.71-7.57.28-4.57-1.57-7.51-5.15-9.92-2.95-2-3.47-4-2-7.2,2-4.19,4.44-8.18,6.11-12.47,2.49-6.36,4.73-12.84,6.59-19.41,2-7.06,3.54-14.27,5.09-21.45a66.22,66.22,0,0,0,1.87-12,115.9,115.9,0,0,0-.67-18.64c-.87-6.41-2.26-12.88-7-17.94-5.3-5.68-7.16-13.11-9.32-20.16-2.76-9-2.83-18.41-1.41-27.76.51-3.31,1.24-6.58,1.87-9.88a116.88,116.88,0,0,0-11.4,13c-4.85,6.36-7.21,13.84-9.2,21.48A33.3,33.3,0,0,0,638.5,482c2,3.76,5.38,6.75,7.65,10.39,3.69,5.9,7.75,11.77,6.34,19.42-.61,3.28-.65,6.67-1.37,9.92a103.48,103.48,0,0,1-3.84,14c-2,5.23-4.57,10.21-6.95,15.27-2.89,6.14-4.89,12.79-10.46,17.36a29.23,29.23,0,0,0-3.49,4.21c-2.82,3.43-5,7.63-10.09,8.2-.56,2.65-1.89,4.65-4.72,4.7-3.46,0-7-.75-10.36-.33-2.69.33-6.49-.72-7.57,3.69-.19.8-1.95,1.58-3.07,1.72a10.1,10.1,0,0,1-9-3.26c-3.59-3.68-7.66-6.89-11.38-10.45-4-3.84-8.07-7.69-11.76-11.84a88.1,88.1,0,0,1-8.5-11.21A131.93,131.93,0,0,1,541,537.88a57.41,57.41,0,0,1-3.82-13.13c-1-5.55,1.61-10.59,3.11-15.77,1.1-3.76,2.12-7.55,3.17-11.33,1.68-6-.14-11.56-1.82-17.23a91.67,91.67,0,0,0-15.38-29.66C523.8,447.49,520.61,444.76,517.73,441.79ZM718.85,884.46c15,0,26.12-4.38,36.54-10.91,12.59-7.9,23.06-18.24,33.26-28.88,6.21-6.47,9.84-14.23,9.66-23.33-.12-6.4-.59-12.81-1.3-19.17A44.66,44.66,0,0,0,794.46,792c-1.34-3.64-2.91-4.18-6.3-2.11-8.69,5.28-17.42,10.56-25.82,16.29-12.42,8.48-26.06,10.69-40.44,8-11.38-2.14-22.21-6.23-31.65-13.22-5-3.72-9.76-7.84-14.75-11.61-2.83-2.13-5-1.43-5.79,2.11a95,95,0,0,0-1.9,13.56A64,64,0,0,1,661,829.44c-2.88,5.63-2.18,10,1.67,14.48.54.63,1,1.37,1.47,2,5.84,7.36,11.26,15.11,17.62,22C692.3,879.34,706.15,883.71,718.85,884.46Zm139.51,192.25c7.67-.3,14.56-2.4,20.55-7,1.26-1,2.58-3,2.44-4.36-.26-2.56-2.82-3-5.07-3.2-3.67-.27-7.37-.2-11-.72-5.42-.76-10.5-2.79-13.32-7.73a154.81,154.81,0,0,1-8.53-17.58,233.55,233.55,0,0,1-16.37-68.53c-.9-9.91-1.71-19.82-2.57-29.73-.48-5.52-2.58-6.82-7.49-4.44-7.4,3.58-14.92,6.73-23,8.46-1.69.36-4,2.29-4.29,3.81a33.12,33.12,0,0,0,.05,10.42c1.24,8.56-.16,16.21-6.37,22.61q-5.75,5.91-11.33,12c-2.87,3.11-2.83,5.6.19,8.62,1.63,1.62,3.51,3,5.19,4.58,7.64,7.19,15.34,14.32,22.82,21.68a36.36,36.36,0,0,1,5.68,7.8c1.91,3.31,1,5.57-2.38,7.06-1.88.81-3.91,1.31-5.88,2-6.78,2.24-13.56,4.46-20.34,6.71a3.47,3.47,0,0,0-2.27,5.05,13,13,0,0,0,3.66,4.15c4.22,3.58,9.81,3.68,14.7,5.56,9.19,3.55,18.25,7.41,27.42,11,4.83,1.91,9.55,2.66,14.74.16,2.73-1.31,6.45-1.1,9.64-.79C849.63,1074.69,854,1075.86,858.36,1076.71ZM731.69,950.65c8.85,0,14.6-1.61,19.47-4.66,10.16-6.34,17.52-15.36,24.35-24.92a100.49,100.49,0,0,0,13.41-26.3c3.77-11.15,8-22.28,6.92-34.45-.31-3.51-2.29-4.89-5.13-2.9-4.86,3.4-9.31,7.4-14.16,10.81-8.76,6.15-17.39,12.57-26.62,17.93-12.16,7.07-25.58,8.54-39.46,6.55-12.52-1.79-23.29-7.33-33.1-15-3.22-2.52-6.12-5.43-9.34-7.94-2-1.53-3.47-.75-3.42,1.72a54.09,54.09,0,0,0,.69,10.36c1.16,5.44,1.89,11.38,4.67,16a121.59,121.59,0,0,0,16,20.78c7.77,8.15,16.27,15.63,24.8,23C717,947,723.65,951.82,731.69,950.65Zm-116.82,60.16.59-.12c-.87-4.38-1.13-9-2.76-13.07-2-4.86-5-9.3-7.72-13.82-4-6.52-6.52-13.42-6.7-21.14-.09-3.92-1.7-6.08-5.39-6.17-9.77-.24-19.55-.4-29.31,0-11.53.48-23,2-34.55,2.31-8.07.24-16.19-.67-24.27-1.18-2.44-.15-3.63.8-4.25,3.13-2.16,8.11-4.49,16.18-6.69,24.28-2.27,8.33-4.43,16.66-3.25,25.47.47,3.51,2.7,6.42,5.24,5.67a32.82,32.82,0,0,0,7.77-3.09,38.36,38.36,0,0,1,28.33-5,199.79,199.79,0,0,0,39.69,3.66c8.14,0,16.27-.41,24.41-.58a7.54,7.54,0,0,1,3.07.44c4,1.73,7.83,3.65,11.78,5.41,2.83,1.26,3.94.55,4-2.43C614.89,1013.36,614.87,1012.08,614.87,1010.81ZM731.42,802.87a23.9,23.9,0,0,0,14.44-3.47q16.56-10,32.73-20.55c5.59-3.68,5.86-6.65,4.15-13.19-2-7.52-3.14-15.24-4.78-22.85a158,158,0,0,0-3.76-15.37c-1.37-4.22-2.75-4.58-6.55-2.52-8.12,4.39-15.95,9.41-24.32,13.24-11.88,5.43-24.21,6.4-36.12-.15-4.07-2.23-7.63-5.39-11.42-8.14-4.53-3.29-8-4.24-10.13,3-3.16,10.62-5.52,21.47-8.37,32.18-1.43,5.37.44,9.43,4.5,12.65,6.46,5.12,12.77,10.47,19.62,15C710.43,798.67,720.34,802.67,731.42,802.87Zm-30.5-139.32c-3.59.35-5.31,1.43-6.3,5.7-1.23,5.25-1.86,10.64-2.64,16-.88,6-1.51,12-2.51,18-.75,4.49-.16,8.49,3.4,11.53,3.89,3.31,7.84,6.59,12,9.52,7.5,5.25,15.58,8,25,5.54,7.91-2,14.75-6.09,21.56-10.31,5.1-3.15,10.1-6.46,15.17-9.67,2-1.28,3-4.73,2.38-7.93-.89-4.48-1.66-9-2.43-13.49-1.3-7.58-2.49-15.19-3.87-22.75-.62-3.37-2.3-4.21-5.68-3-2.53.92-4.94,2.16-7.45,3.13a56.52,56.52,0,0,1-41.87,0C705.44,665,703.17,664.3,700.92,663.55Zm27.48-4.7a6.94,6.94,0,0,0,2.08-.19c7.43-2.62,14.88-5.16,22.21-8a11.71,11.71,0,0,0,7.43-8.33c1.65-7.07,3.17-14.18,4.4-21.32a38.27,38.27,0,0,0,0-9,4.2,4.2,0,0,0-4.47-4,78.17,78.17,0,0,0-10.87,1.17,33.5,33.5,0,0,1-21.08-3.65,30.36,30.36,0,0,1-10.49-9.27c-2.64-3.57-5-3.55-6.62.69a104.7,104.7,0,0,0-4.33,16.47c-1.64,8.14-2.92,16.35-4.29,24.55a7.31,7.31,0,0,0,.17,3C705.27,650.88,717.56,658.42,728.4,658.85ZM526.27,1018.16c-7.81-.3-13.84,3.7-19.12,9.3-1.12,1.2-1.32,2.36.2,3.31,4.3,2.68,8.55,5.45,13,7.83,1,.55,3.13.12,4.18-.64,4.84-3.51,7.6-3.69,12.73-.24,2.67,1.8,5.3,3.67,8,5.45,5.6,3.73,9.58,4.25,13.36.77,2.1-1.93,3.43-4.89,4.58-7.61,1.66-3.93,4.07-4.79,7.08-1.84,2.4,2.36,4.52,5,6.81,7.46,5.59,6,11.16,12.09,16.9,18a3.5,3.5,0,0,0,3.42.1,66.3,66.3,0,0,0,14.26-18.55,4.91,4.91,0,0,0,0-4,42.73,42.73,0,0,0-11.53-13c-9.94-7.44-21.34-6.42-32.62-6.11-5.56.15-11.1,1.06-16.64,1C542.74,1019.27,534.65,1018.6,526.27,1018.16ZM730.49,546.05c-1.59,0-3.18,0-4.77,0-4.76.05-7.86,1.9-8.57,6.54a181.24,181.24,0,0,0-2.08,22.78c-.08,3.19.12,6.94,3.61,9.23,5,3.23,9.67,6.85,14.64,10.06s10.3,5.55,16.45,3.62c5.34-1.67,11-3,12.59-9.58a25.71,25.71,0,0,0,.91-6.79c-.27-7.45-.59-14.91-1.29-22.34a126.14,126.14,0,0,0-2.55-15.66c-.85-3.82-2.14-4.35-5.58-2.65A49,49,0,0,1,730.49,546.05ZM592.74,344c1,9.4,1.73,18.7,3.14,27.89,1.14,7.45,2.77,14.88,6.76,21.53,2.51,4.16,6.06,6.48,9,5.06,8.9-4.25,16-10.57,19-20.11,1.81-5.56,2.25-11.56,3.42-17.34.86-4.28-.28-7.74-3.93-9.93-4.44-2.66-9.35-4.61-13.48-7.65-5.31-3.89-10-8.65-15.07-12.83a6.77,6.77,0,0,0-4.7-1.59c-1,.16-2.08,2.23-2.38,3.61C593.74,336.42,593.32,340.26,592.74,344ZM857.45,82.2l-.09,1.18L872,95.79c2.41,2,4.93,4,7.23,6.14q6.15,5.77,12.08,11.78c3.59,3.63,7,7.45,10.55,11.11s7.11,7.11,10.66,10.66c2.23,2.24,4.53,4.43,6.64,6.78,2.26,2.54,4.31,5.27,6.51,7.86,1.41,1.67,2.32.91,2.6-.82a30.62,30.62,0,0,0,.62-6.53A115,115,0,0,0,927.64,129c-1-5.59-2.37-11.11-3.82-16.61-.43-1.63-1.75-3-2.44-4.6-1.8-4.13-3.07-8.56-5.34-12.4-1.56-2.63-3.24-5.55-7.18-6.19-7.14-1.15-14.18-3-21.28-4.41a132.33,132.33,0,0,0-14.72-2.51C867.76,81.86,862.59,82.2,857.45,82.2ZM557.56,59.15,557.15,58c-2.13-.22-4.3-.79-6.39-.58-6.62.67-13.27,1.38-19.82,2.56-7.85,1.41-15.68,3.05-23.37,5.13-4.24,1.14-8,3.36-8.93,8.57-1,5.5-4.06,10.42-4.36,16.23-.21,4-1.7,7.84-2.35,11.8-.87,5.34-1.48,10.73-2.22,16.1q-.81,5.88-1.66,11.75l.77.35c2.32-2.8,4.69-5.55,6.93-8.41,6.1-7.8,11.84-15.9,18.3-23.38C520.3,90.89,527.2,84.22,534,77.47a82.59,82.59,0,0,1,8.25-6.73C547.3,66.84,552.45,63,557.56,59.15Zm123,499.41a48.85,48.85,0,0,0,3.75-3.71c4.58-5.63,9-11.77,16.08-14.11,5.3-1.74,6.55-5.36,6.8-9.84.42-7.69.6-15.39.65-23.09,0-4.84-.35-9.68-.6-14.51-.17-3.14-.33-6.29-.69-9.41a49.35,49.35,0,0,0-1.29-6.71c-.8-3-2.69-3.74-5.25-2-7.19,4.93-12.67,11.47-17.33,18.73a5.53,5.53,0,0,0-.84,3c.08,3.45.54,6.9.51,10.35,0,4.83-.27,9.67-.62,14.5-.21,3.1-1,6.16-1.13,9.26q-.47,8.88-.48,17.79C680.13,551.86,678,555,680.57,558.56Zm-20.3-293.4c-1.5,1.59-2.66,2.37-3.2,3.45-4.72,9.48-9.84,18.8-13.84,28.58-4.15,10.17-5.8,20.93-2.82,31.87,1.11,4.07,3,6.54,7.81,3.06A98.93,98.93,0,0,0,673.32,306c5.68-8.65,3.68-15.43-2.42-20.66a22.54,22.54,0,0,1-7.68-12.74C662.69,270.21,661.44,268,660.27,265.16Zm58.46,245.47-.27,0a89.31,89.31,0,0,0,1,9.69c1.21,5.9,4.45,11.86,11.59,13a53.45,53.45,0,0,0,23-1.51c4.37-1.18,5.77-4,4.76-8.4-.14-.6-.36-1.19-.5-1.8-1.92-8-3.75-15.92-5.83-23.83-.48-1.82-1.8-3.35-4.26-2.54-8,2.61-16,4.62-24.53,4.27-2.93-.12-4.78,2-4.88,5C718.67,506.6,718.73,508.62,718.73,510.63ZM595.4,488.23l-.93-.21c0-1.27,0-2.54,0-3.81a4.4,4.4,0,0,0-.28-1.22c-3.52-10.67-11.37-18.09-19.31-25.37-2-1.84-4-1-4.57,1.82a40.55,40.55,0,0,0-1.19,10.19c.21,4.87,1.12,9.71,1.79,14.56A92.06,92.06,0,0,0,579.35,512c2.14,4.35,6.26,4.69,9.11.8a11,11,0,0,0,2-3.47C592.23,502.34,593.79,495.27,595.4,488.23ZM452.25,1001.08c.28,3.23.23,6.22.87,9.06.82,3.69,1.5,7.79,5.58,9.55,5.81,2.5,11.8,3.71,18.22,2.42,2.56-.52,2.58-1.75,2.26-3.72-.51-3.17-1.45-6.41-1.19-9.55.7-8.71,2-17.38,2.91-26.09a25.41,25.41,0,0,0-.4-4.89c-1.65.26-3.54.08-4.9.86-6.93,4-13.74,8.13-20.54,12.32a4.5,4.5,0,0,0-1.94,2.54C452.62,996.13,452.5,998.76,452.25,1001.08Zm563.4-214.28.67.12a66.13,66.13,0,0,1,1.35-6.58c4.35-13.88,3.68-28.34,4.91-42.57.48-5.6.09-11.28.06-16.92,0-2.76,0-5.53-.22-8.28s-.7-5.37-1-8.06c-.64-5.06-1.17-10.14-2-15.18-.16-1.08-1.09-2.81-1.78-2.87a5.3,5.3,0,0,0-3.41,1.57,17.36,17.36,0,0,0-5.54,10c-.46,2.69-1.59,5.77-.75,8.07,2.55,7,2.52,14.35,3.18,21.58.68,7.53.88,15.11,1.35,22.67.17,2.93.44,5.86.74,8.78.75,7.12,3.08,14.06,2.45,21.35C1015.49,782.54,1015.65,784.68,1015.65,786.8ZM724.55,288.27c3-.31,5.92-.39,8.78-1a50,50,0,0,0,10.14-2.83c4.23-1.84,5.75-5.62,6-10.16.41-6.77,1.21-13.52,1.69-20.3.15-2.19-.91-3.39-3.3-2.34a16.85,16.85,0,0,0-2.76,1.36c-7.44,5.1-15,10-22.24,15.43A71.7,71.7,0,0,0,712.61,278c-3.7,4.08-2.22,8.14,3.23,9.31A84.37,84.37,0,0,0,724.55,288.27ZM255.65,752.5c.93,4.22,1.5,7.61,2.45,10.89,1.41,4.87,2.86,9.76,4.72,14.47,1.5,3.76,3.05,3.84,5.75.73a71.44,71.44,0,0,0,4.85-6.14c5.58-8,11.19-16,16.51-24.19,1.13-1.74,1.1-4.23,1.61-6.38-2.11-.07-4.35-.65-6.3-.13q-13.33,3.53-26.53,7.66C257.43,749.81,256.55,751.55,255.65,752.5Zm107.51-15.74c1.25-5.36,2.7-10.84,3.76-16.39.57-3,.38-6.07.73-9.1.25-2.1.85-4.16,1.25-6.24.18-1,.18-1.94.37-2.89.71-3.53,1.56-7,2.18-10.56,1.88-10.75,3.75-21.49,5.49-32.26,1-6.46-.61-13-6.56-15.33a6.45,6.45,0,0,0-9,6.27c.45,6.81.91,13.62,1.12,20.44.19,6,0,12.1.05,18.15q0,5.26.17,10.53c.11,3.58.71,7.19.35,10.72A138,138,0,0,0,363.16,736.76Zm-25-65.07a62.14,62.14,0,0,0-7.88.58c-5,1-9.92,2.12-14.8,3.46-2.4.66-3.21,2.86-2.43,5.06,2.45,6.93,5,13.82,7.77,20.62,1.34,3.3,3.18,3.66,5.81,1.25,5.47-5,11-10,16-15.54,2.64-2.92,4.32-6.78,6.09-10.39,1.08-2.23-.35-4-2.51-4.42A63.72,63.72,0,0,0,338.15,671.69ZM205.53,1109.62c-.48-4.56-.81-10.12-1.74-15.58a27.56,27.56,0,0,0-3.15-7.94c-.79-1.49-2.09-1.45-3.15.25a54.76,54.76,0,0,1-4.2,5.82c-4.46,5.4-9,10.74-13.52,16.1-3.19,3.79-2.76,8.88,1.54,11a155.88,155.88,0,0,0,17.47,7.11c3.37,1.17,5.42-.58,5.74-4.13C204.87,1118.4,205.15,1114.52,205.53,1109.62ZM733,459.4c-3.83.37-8.65.63-13.4,1.37a4.51,4.51,0,0,0-4.14,5,33.28,33.28,0,0,0,5.67,17.27c3.46,5.3,6.14,6.34,10.12,4.77,3.28-1.29,6.49-2.75,9.69-4.22,5.21-2.41,8-4.64,6.47-12.3C745.66,462.49,742.44,459.4,733,459.4ZM832.73,481c-1,1.17-2.33,2-2.56,3.05a60.25,60.25,0,0,0-1.72,11.35,61.46,61.46,0,0,0,1.18,11.2,87.38,87.38,0,0,0,2.56,11.83c1.07,3.43,2.44,3.82,5.25,1.58q9.67-7.74,19-15.9c2.56-2.23,2-3.71-.83-5.91-6.39-4.87-12.64-9.92-19-14.85A41.14,41.14,0,0,0,832.73,481ZM207.42,959.74l-.37-.07a11.06,11.06,0,0,0,0-1.91c-1-5.54-2.44-6.07-7.42-3.36-5.39,2.94-10.85,5.79-16.44,8.3-4.51,2-7,3.36-2.15,8.1.22.22.35.52.55.76,4.73,5.73,9.39,11.51,14.23,17.14,2.15,2.49,3.9,2,4.93-1.14.84-2.56,1.66-5.13,2.27-7.75C204.54,973.14,206,966.43,207.42,959.74ZM678.57,481.88c4-4.81,8.13-9.64,12-14.65s7-10.59,5.87-17.6c-.78-4.66-5.76-7.35-9.61-4.49-8.5,6.33-13.16,15.32-16.49,25.1a2.52,2.52,0,0,0,.45,2C673.21,475.33,675.68,478.31,678.57,481.88ZM236.93,1227.19c.74,0,1.49,0,2.23,0,4.08-.07,5.58-2.25,3.65-6-3.92-7.55-8-15-12.25-22.39-2.23-3.86-4.82-3.65-6.63.47-2.6,5.88-4.84,11.91-7.29,17.85a3.46,3.46,0,0,0,1.84,4.89C224.3,1224.88,230.32,1227.1,236.93,1227.19Zm2-385.48c0-4.12-1.42-5.71-3.71-5.14-6.43,1.59-12.55,4.12-17.56,8.42-4.62,4-4.59,3.29-1.73,8.54a28.31,28.31,0,0,0,1.47,3.09c3.14,4.35,6.31,8.68,9.61,12.91,1.15,1.47,2.32,1.12,3.07-.63a70.35,70.35,0,0,0,3.16-7.13C235.36,854.74,237.25,847.64,238.92,841.71ZM403,1341.24c-3.68,0-5.52,1.81-4.2,4.1,4.54,7.89,9.73,15.28,17.08,20.91,2,1.49,3.62,1.2,5.23-.43a22.66,22.66,0,0,0,6.33-11.56c.46-2.34.36-4.82-2.33-6.2A63,63,0,0,0,403,1341.24Zm-101.68-39.69c1,4.44,1.83,8.16,2.57,11.91a4.83,4.83,0,0,0,4.86,4.06,90.14,90.14,0,0,0,14.29-1.27c2.84-.47,3.61-2.66,1.74-4.59-4.64-4.8-9.41-9.48-14.42-13.89-1.65-1.44-4.16-1.9-6.28-2.82C303.14,1297.24,302.18,1299.53,301.34,1301.55ZM714.51,432.46c-3.57,1.06-6.46,1.76-9.22,2.8-1.61.61-2.6,2-1.45,3.79,5.57,8.61,15.63,12.82,25.65,8,2.48-1.19,3.18-3,1.9-5.27-1-1.74-2.25-3.81-3.93-4.58C723.23,435.25,718.69,433.94,714.51,432.46Zm503.73,46.29a2.42,2.42,0,0,0,.61-.85c2.47-7.88.66-15.65-1.28-23.2-1.13-4.44-7.27-6.33-10.79-4.22-3,1.78-3.71,12.86-1.18,15.34C1209.84,470,1213.91,474.31,1218.24,478.75Zm-778,536.57a28,28,0,0,0-.66-3.36,79.94,79.94,0,0,0-3.24-9.66c-1.35-3-2.72-3.31-5.33-1.33a64.44,64.44,0,0,0-8.5,7.39c-2.22,2.41-3,5.66.43,8a44.84,44.84,0,0,0,10.08,5.1C437.56,1023.06,440.29,1020.75,440.28,1015.32Zm132.82,64.1c3.54-3.34,6.91-6.63,10.42-9.76,2.26-2,1.5-3.53-.4-5.16-3.49-3-7-6-10.37-9.13-1.61-1.47-3.14-2.94-5.4-1.32s-3.68,3.85-2.6,6.51C567.18,1066.57,570,1072.44,573.1,1079.42ZM190.71,428.13l1.22.65c2.92-3.06,5.95-6,8.74-9.22a81.08,81.08,0,0,0,7.21-9.16c2.2-3.39,1.28-6.72-1.9-9.19-3.54-2.75-9.23-.6-10.84,4.46A112,112,0,0,0,192.4,418C191.74,421.38,191.27,424.77,190.71,428.13Zm486,225c4.09,0,6.4-1.36,7.36-5.32,1.23-5.12,1.79-10.39,2.92-15.54.39-1.77,1-3.66-.94-4.23-1.23-.36-3.22.47-4.35,1.4A34.64,34.64,0,0,0,671,645.29C669.23,650.42,671.22,653.1,676.69,653.1Zm487.38,19.68.22,0c-.22-1.12-.39-2.25-.68-3.35-1.39-5.41-2.77-10.83-4.23-16.22-1-3.79-3.05-5-6.92-4.52-3.63.49-5.38,2.25-4.79,6.28a23.51,23.51,0,0,0,3.44,9.45c2.87,4.28,6.52,8,10,11.88.29.32,2.12-.37,2.87-1C1164.42,674.86,1164.07,673.62,1164.07,672.78ZM230.38,625.56c1.92-.16,3.89.27,4.85-.52a54.74,54.74,0,0,0,8-7.94,99.41,99.41,0,0,0,6.54-9.76c1.46-2.32,2.12-4.87.55-7.39-1.31-2.1-3.53-3.82-5.78-2.75a10.93,10.93,0,0,0-4.78,5.19C236.47,609.74,233.67,617.28,230.38,625.56Zm288,732.63c4.61,6.64,10.19,10.35,16.16,13.53a2.59,2.59,0,0,0,2.24-.62c3.09-2.95,6.19-5.9,9-9.1a2,2,0,0,0-1.31-3.48c-5.66-.81-11.34-1.59-17-1.88C524.81,1356.5,522.09,1357.52,518.41,1358.19ZM829.28,374c-1.49,0-3,0-4.45,0-2.68.12-4.57,1.66-4.68,4.18A39.88,39.88,0,0,0,821,388.5c.86,3.82,3.72,4.91,6.34,2.69a103.45,103.45,0,0,0,9.85-9.33,5.26,5.26,0,0,0,.74-4.72c-.67-1.39-2.6-2.42-4.2-3C832.39,373.63,830.76,374,829.28,374Zm-19.57-75.83c-3.47,0-9.54,3.49-10,5.92a24.45,24.45,0,0,0,2.16,15.68c.83,1.7,3.19,2,3.95.45,2.74-5.69,5.5-11.39,7.77-17.28C814.94,299.42,813.64,298.17,809.71,298.19Zm-440,797.55c.15,3.37,2.32,3.8,4.31,3.3a22.89,22.89,0,0,0,15.28-11.78c.42-.8.38-2.59-.16-3-1.9-1.47-3.79-2.84-6.73-1.84-4.38,1.48-7.09,4.64-9.64,8.08A52.5,52.5,0,0,0,369.66,1095.74ZM700.88,586a5.14,5.14,0,0,0,0-1.57c-.47-1.32-1.06-2.59-1.61-3.88-1.18.53-2.4,1-3.54,1.61a8.92,8.92,0,0,0-2,1.51,88.3,88.3,0,0,0-7.87,8,4.69,4.69,0,0,0,.23,4.56c2.15,2.18,7.22,1.84,10,.25C700.19,594.06,700.57,590.09,700.88,586Zm224.55,489.1c-1.39-1.49-2-2.55-2.93-3.09q-7.95-4.62-16-9a27.13,27.13,0,0,0-4.72-1.53c-2.65-.83-5.23,0-5.84,1.88s1.19,4.69,4,5.07c6.61.89,12.56,3.47,18.4,6.45a13.49,13.49,0,0,0,4.1,1.37C923.15,1076.38,924,1075.69,925.43,1075.11ZM657.64,1337.7c-3.17.4-5.68.56-8.1,1.09a3.67,3.67,0,0,0-2.06,2,2.32,2.32,0,0,0,.79,2.11,24.11,24.11,0,0,0,18.44,1.91c1-.27,2-1.95,2.14-3.07.08-.71-1.38-2-2.36-2.31C663.4,1338.63,660.22,1338.19,657.64,1337.7ZM512,1110.7a26.87,26.87,0,0,0,4.07-.82,3.93,3.93,0,0,0,2.53-5.1c-.74-2.87-7.44-6.86-10.34-6.26a4.19,4.19,0,0,0-1.82,1.09c-2.18,2.06-2.26,4.64-1.33,7.23C506.24,1110.09,509.32,1110.09,512,1110.7Zm60.12-561.53L554.41,539c4.67,7.23,7.65,14.69,14,20.12ZM710.19,1101c.49-.28,1.93-.65,2.46-1.55a3.49,3.49,0,0,0-.47-3.14,32.55,32.55,0,0,0-5.65-5.72c-.95-.7-3.44-.82-4-.15a6.14,6.14,0,0,0-1.28,4.67C701.79,1098,706.48,1101,710.19,1101ZM830.93,437.74c-2.81-.25-4,1.89-4.43,5.3-.42,3,2,6.15,4.37,6.15s6.3-4.22,6.21-6.63C837,440.56,833.43,437.75,830.93,437.74Zm-48.5,869.09c-4.24,0-7.92,2.28-7.51,4,.54,2.24,2.43,2.47,4.43,2.41,3-.09,6-1.92,5.5-3.8C784.49,1308.15,782.85,1307.24,782.43,1306.83ZM844.89,1094c.38-.5,1.52-1.36,1.75-2.42.43-2-3-5.55-4.95-5.08a3.8,3.8,0,0,0-2.35,2.64C839.11,1091.66,841.65,1094.05,844.89,1094Zm-210.06,5.21c3-.22,4.46-1.37,4.14-3.6a4.18,4.18,0,0,0-2.35-2.69c-1.43-.52-4.2,2.55-3.74,4.2C633.15,1098.07,634.38,1098.75,634.83,1099.21Zm131.42-37.36c-.76,1.51-1.62,2.43-1.45,3.07a3,3,0,0,0,2.09,1.56c.36.07,1.44-1.21,1.38-1.79C768.18,1063.92,767.3,1063.24,766.25,1061.85ZM883.6,1236c-.79,1.09-1.73,1.86-1.61,2.37a2.36,2.36,0,0,0,1.84,1.41,2.29,2.29,0,0,0,1.68-1.56C885.55,1237.68,884.54,1237.05,883.6,1236Z" transform="translate(-156.59 -46.62)"/><path d="M615.21,659.32c1.79-3.51,3.73-6.93,5.29-10.52a31.59,31.59,0,0,0,2-7.17c.51-3.07-1.71-4.87-4.4-3.42a162.63,162.63,0,0,0-14.34,8.63c-3,2-3,4.52-.35,7.11,2,2,4.28,3.68,6.44,5.51-.28.4-.55.81-.82,1.21-3.16-.21-6.35-.2-9.46-.67-4.41-.67-8.38,1.22-9.43,5.47-1.74,7-3.15,14.17-4.52,21.29-1.81,9.39-3.4,18.82-5.27,28.19-.15.77-1.72,1.69-2.67,1.72a3,3,0,0,1-2.15-1.92c-.15-6.36-.29-12.74,0-19.09a144.71,144.71,0,0,1,1.8-15.23c1.13-7.18,2.34-14.36,3.82-21.48,2-9.65,3.92-19.37,8.89-28.08,4.49-7.86,9.83-15.06,17.13-20.55,1.11-.82,3.05-.53,4.6-.76-.07,1.47.34,3.21-.3,4.35-2.91,5.16-6.12,10.14-9.23,15.18-.16.27-.52.47-.58.74-.35,1.84-1.5,4.17-.78,5.43,1.34,2.37,3.6.71,5.47-.15,4.62-2.12,9.11-4.68,13.93-6.19,7.86-2.46,12.55,1.75,11.09,9.78a36.5,36.5,0,0,1-8.89,17.92C619.79,659.61,619.48,659.62,615.21,659.32Z" transform="translate(-156.59 -46.62)"/><path d="M584.19,768.24a41.82,41.82,0,0,1-4.27-1.73c-3.21-1.75-6.32-7.81-5.82-11.12a11.86,11.86,0,0,1,8.95-9.22c5.08-.95,9.12,3.41,9.44,9.57a13.07,13.07,0,0,1-4.32,10.31C587.11,767,585.56,767.51,584.19,768.24Z" transform="translate(-156.59 -46.62)"/><path d="M552.12,769.06c-4.76,0-7.33-2.54-7.34-7.26,0-5.85,3.54-10.57,8-10.58,3.85,0,8.1,4.82,8,9C560.53,765.57,557.12,769.06,552.12,769.06Z" transform="translate(-156.59 -46.62)"/></svg>