<svg id="Layer_1" data-name="Layer 1" xmlns="http://www.w3.org/2000/svg" viewBox="0 0 1777.6 1080.61"><title>straight transparent</title><path d="M950,148.23c3.17-1.17,4.79-2,6.51-2.35,6-1.18,12-2.3,18.08-3.23,11.87-1.81,23.16,1.38,34.42,4.35,27.15,7.18,53,17.77,78.42,29.61a646.7,646.7,0,0,1,63.18,34.18c26,15.81,47.26,36.43,65.29,60.67,5.7,7.66,11.22,15.45,17.09,23,7.89,10.11,13.48,21.55,19.68,32.66,2.79,5,6,9.77,8.87,14.7,3.88,6.56,7.9,13.06,11.48,19.79q10.44,19.67,20.44,39.55c10.36,20.48,18.12,42,25.78,63.61,6.16,17.37,11.86,34.91,17.22,52.54a196.12,196.12,0,0,1,5.47,25.46c1.44,8.86-1.4,16.7-7.46,23.67-3.19-.75-4.86-3.11-6.56-5.53-7.33-10.41-14.62-20.84-22.08-31.16-5.71-7.91-11.64-15.67-19.41-21.77a51,51,0,0,0-4.72-3.22,10.36,10.36,0,0,0-12,.13,63.71,63.71,0,0,0-20.13,20.86c-3.36,5.65-3.2,11.92-2.38,18,5.93,43.85,13,87.51,22,130.84q5.24,25.17,10.79,50.29a78.46,78.46,0,0,0,3.51,10.89c3.07,8,2.67,16.24,2.47,24.49-.08,3.22-1.82,4.23-4.65,2.65-6.34-3.52-12.22-7.68-16.25-13.94q-6.73-10.42-13.47-20.85a42.27,42.27,0,0,0-21.34-17.29c-6-2.18-11.79-4.76-17.57-7.4a28.13,28.13,0,0,0-17.35-2.12c-5,.93-10,1.74-15,2.86-11.77,2.67-19.24,10.15-23.32,21.3-4.85,13.28-6.57,27.08-7.41,41.1-2.25,37.38-4.29,74.79-11.34,111.67-1.34,7-2,14.44-7.17,20.08-2.7,2.94-5.72,5.58-9.08,8.82-2.85-5.87-2.56-11.41-2.35-17,.25-6.31.17-12.64.08-19-.3-18.8-3.79-37.53-.93-56.45.64-4.22-.6-8.84-1.55-13.15-1.73-7.86-4.19-15.56-5.78-23.45-1.78-8.86-7.4-15.08-13.34-21.17-13.66-14-29.38-25.61-44.82-37.53-9.13-7.06-18.63-13.6-30-16.25-11.1-2.6-22.44-4.17-33.69-6.07-1.33-.23-2.79.28-4.56.49.26,1.23.18,2.18.62,2.75,12.81,16.58,18.63,36,22.54,56.12,1.41,7.27,2.93,14.52,4.18,21.82,2.23,13-.64,25.21-6.09,37-4.54,9.81-9.16,19.59-13.39,29.53a67,67,0,0,0-3.38,12.17c-1.21,5.57-1.78,11.29-3.22,16.79-3.6,13.77-5.45,27.8-7.17,41.89q-2.19,17.94-5.09,35.8a65,65,0,0,1-11.56,27.3,48.67,48.67,0,0,0-9.11,32.4c1.12,15.83,1.91,31.71,4,47.42,2.25,16.78,6,33.36,12.28,49.19a46.46,46.46,0,0,0,5.39,9.32c2.81,4,6.75,5.57,11.63,4.24,3.06-.83,6.15-1.56,9.18-2.5,11.55-3.59,22.69-2.55,33,3.65,11.42,6.86,21.61,15.15,26.44,28.2,1.52,4.11,2.23,8.51,3.55,13.7-2.7,0-4.58.38-6.24-.07-5.71-1.56-11.57-2.9-17-5.24-9.6-4.16-19.36-5-29.17-2-8.46,2.64-16.66,6.17-24.88,9.53-5.34,2.18-8.44,6.24-8.75,12.18s-5,7.23-9.47,8.77-7.73,0-10.52-3.51c-4.07-5.15-8-10.45-12.52-15.21-10.12-10.74-23.39-15.79-37.26-19.38-5.42-1.4-10.59.26-15,3.47-3.43,2.46-6.46,5.47-9.77,8.11-2.79,2.23-5.44,4.69-9.49,4.57-3.21-.09-5.25-1.3-6-4.45a12.27,12.27,0,0,1-.68-3.08c.29-11,1.11-22,5.81-32.25a34.35,34.35,0,0,1,18.68-18.15,76.3,76.3,0,0,0,9.13-4.46c2.24-1.29,2.63-3.27.57-5.22-1.38-1.31-2.8-2.58-4.29-3.77-5.3-4.24-10.67-8.38-15.94-12.66-9.64-7.81-10.51-18-2.33-27.53,3.46-4,7.11-7.85,10.62-11.82a63.5,63.5,0,0,0,4.39-5.43c1.59-2.25,2-4.76.27-7.1s-4.17-4.49-7.53-3.76a43.35,43.35,0,0,0-7.19,2.48,68.11,68.11,0,0,1-39.27,3.9,35.69,35.69,0,0,1-14.38-6.4c-4.41-3.12-7.14-2.19-8.16,3.14-2.28,11.89-8,22.27-13.43,32.82s-9.85,21.6-9.67,33.87c.12,7.75,3,14,9.52,18.38.35.23.68.52,1.05.72,21,11.44,32.43,31.12,43.57,51,4.57,8.15,2.32,16.49-.28,24.58-.49,1.53-3,3-4.81,3.36a12.38,12.38,0,0,1-6.77-.94c-10.47-4.61-20.77-9.59-31.23-14.21a74.29,74.29,0,0,0-12-4.08c-9.7-2.44-17.09,1.42-23.75,8.41a112.4,112.4,0,0,1-15.94,13.49c-5,3.63-6.5,3-9.31-2.42-1.56-3-2.82-6.17-4.39-9.18a53.5,53.5,0,0,0-4.82-8.19c-5.65-7.3-11.8-8.79-20.16-4.86a80.72,80.72,0,0,0-12.19,6.82c-7.06,5-14.44,3.84-21.95,1.91-2.21-.56-2.94-2.42-2.32-4.52a20.61,20.61,0,0,1,1.92-4c1-1.86,2.22-3.62,3.14-5.53,2.08-4.34,2.1-6.94,0-8-3.1-1.54-4.55,1.2-6.4,2.78-4.61,3.91-8.65,4.49-14,1.59-3.53-1.91-6.72-4.49-10.3-6.31a104.07,104.07,0,0,0-13.36-5.69c-1.19-.41-3.71.48-4.28,1.51s.34,3.21,1.24,4.39c3.87,5,7.94,9.9,12,14.76,4.34,5.16,3.37,11.15,2.57,17-.16,1.16-2.12,2.59-3.5,3a124.79,124.79,0,0,1-15.49,3.29c-5.48.7-10.44-1.51-14.95-4.43a61.46,61.46,0,0,1-6.94-5.56c-6.19-5.42-13.06-9.27-21.39-10.4-8.77-1.18-16.38-5.41-24.12-9.44a91.14,91.14,0,0,0-18.17-7.32c-8.32-2.25-15.91.09-22.2,6.19-4,3.84-7.86,7.75-12,11.37-8.22,7.17-18.29,8.56-28.61,8-5.2-.28-7.6-4.61-6.08-9.71,2.78-9.38,5.94-18.37,14.05-25.05,5.91-4.87,6.35-14.68,1.19-21.61-8.1-10.87-16.64-21.43-25.4-31.78a21.09,21.09,0,0,0-27.05-4.72,10.84,10.84,0,0,1-2.89,1.3c-15.61,3.33-28.89,11.78-42.9,18.82-17,8.56-34.38,16.74-52.27,23.22-23.31,8.44-47.18,15.43-71,22.3-10.34,3-21.26,3.9-31.83,6.17a226.11,226.11,0,0,0-23.35,6.21,119.23,119.23,0,0,1-33.06,6c-22.07.84-44.13,1.91-66.2,2.28-31,.51-61.92.43-92.88.71-12.3.11-24.6.49-36.89.74-28.85.6-57.69,1.48-86.54,1.7q-42.29.32-84.58-.51a630.33,630.33,0,0,1-71.68-5.57,499.74,499.74,0,0,0-62.83-4.45c-17.22-.14-34.22-2.78-51.21-5.36-12.37-1.89-24.77-3.63-37.12-5.65a55.43,55.43,0,0,1-10.4-2.92,32.13,32.13,0,0,1-7.84-4.14c-7.27-5.45-7.24-8.17.46-12.71,5.32-3.14,8.75-7.24,9.68-13.37a17.28,17.28,0,0,1,.5-1.84c3-11.26,6.59-13.92,17.81-11.07,6.49,1.64,12.62,4.85,18.73,7.73a11.43,11.43,0,0,1,4.3,4.54,10.25,10.25,0,0,0,9.48,5.41c11-.23,22-.57,33-1.35,4.65-.33,8.22-3.25,10.47-7.47,1.79-3.37,3.4-6.86,5.36-10.12,4-6.7,9.8-8.79,16.82-5.35a39,39,0,0,1,11.79,8.43c7.53,8.4,16,12.56,27.49,10.1,4.93-1.06,10.13-.74,15.19-1.29,5.64-.61,6.43-1.72,5.6-7.48-.45-3.15-1.08-6.27-1.8-9.37-1-4.23-.44-8.09,2.83-11.13s7.12-2.49,10.76-1c16.68,6.87,33.45,13.51,49,22.93a41,41,0,0,0,12.21,5c5.8,1.27,11.17-.48,14.13-6.06,2.55-4.83,4.51-10,6.61-15,1.05-2.53,1.45-5.38,2.76-7.74,4.06-7.34,9-9.32,17-6.84a54.27,54.27,0,0,1,9.91,4.27c9.52,5.24,18.49,11.25,25.77,19.5a11,11,0,0,0,5.13,3.49,41.72,41.72,0,0,0,21.36-.7c4.38-1.23,5.56-4.9,5.5-9-.09-6.78-.27-13.57-.43-20.35,0-1.28-.19-2.55-.21-3.82-.21-10.91,5.22-14.67,15.49-10.56a59.44,59.44,0,0,1,8.48,4.34c13.48,8,27.17,15.81,38.46,27a8.18,8.18,0,0,0,2.06,1.48c4.66,2.37,19.65-.33,22.76-4.59,1.49-2.06,1.94-5,2.33-7.7,1.13-7.54,1.94-15.12,3-22.67a21.71,21.71,0,0,1,1.19-4.29c2.17-6.32,5.65-8.29,11.72-5.51a63.89,63.89,0,0,1,13.35,8.48c7.58,6.14,14.89,12.64,22,19.26,3,2.74,5.88,3.62,9.79,2.7,5.37-1.26,10.86-2,16.26-3.1,8.29-1.71,9.64-3.35,9.17-11.58a65.33,65.33,0,0,1,3.85-25c2.69-7.91,5.49-9.21,13.46-7.15,8.18,2.13,15.18,6.48,21.86,11.43a131.65,131.65,0,0,1,11,8.71c6.43,5.91,13.7,5.92,21.44,3.72,4.58-1.29,6.38-4.78,6.66-9.09.35-5.7.31-11.43.54-17.15.21-5.08.32-10.17.91-15.21s2.19-6.21,7-6.36a51,51,0,0,1,29.13,7.55c4.69,2.89,9.62,5.38,14.31,8.27a105,105,0,0,1,10.92,7.5c1.91,1.53,3.5,2.18,5.69,1,6.2-3.24,12.43-6.43,18.6-9.71a6.69,6.69,0,0,0,3.7-7.46c-1-5.84-1.86-11.72-3.36-17.43-1.71-6.56-4.23-12.9-6-19.45a46.86,46.86,0,0,1-1.87-11.83c0-5.12,1.87-7,7-7a78.41,78.41,0,0,1,13.19,1.38c10.88,1.78,21.72,3.75,32.57,5.66,7.47,1.31,9.59-3.75,10.62-8.89.79-3.9-.63-7.54-2.79-10.84-3.84-5.86-7.53-11.82-11.58-17.53-4.8-6.79-6.55-14.63-8.41-22.46-.79-3.29,1.21-5.19,3.78-6.6,5.76-3.16,11.59-6.2,17.34-9.38,8.52-4.73,17.05-9.47,25.48-14.35,6.92-4,9.25-10.23,7.75-17.91-2.49-12.83-6.69-25-14.74-35.5-3.53-4.62-6.39-9.25-5.81-15.59.35-3.74,1.42-6,5.08-6.94,4.71-1.21,9.36-2.7,14.12-3.76,7.44-1.64,15-2.92,22.42-4.53a39.91,39.91,0,0,1,21.93,1c4.77,1.64,5.15,1.4,7.92-2.52,1.23-1.73,2.38-3.52,3.51-5.31,3-4.77,3.94-9.81,1.68-15.14-2.48-5.86-4.74-11.83-7.62-17.49-4.45-8.77-2.77-16.06,3.63-23.25a25.87,25.87,0,0,1,20-9.3c7.18-.14,14.36-.89,21.52-1.53,4.9-.44,6.09-1.51,6.14-6.21.14-12.66,1-25.33-1.27-37.92C461.84,668.29,454,658.36,439,654.69c-3.29-.81-6.57-1.79-9.91-2.28C423,651.52,417,651.48,411,654c-5.65,2.38-11.55,4.18-17.33,6.28-7.53,2.76-14.08,6.85-18.67,13.66-4.38,6.51-9.08,12.81-13.25,19.45-5.35,8.52-13,12.24-23.63,12.53-.29-2.36-1.12-4.65-.7-6.69a102.65,102.65,0,0,1,4.28-15.87c7-18.27,11.92-37.12,16.53-56.07q14.64-60.21,28.86-120.52c1.49-6.33,1.72-13,2.25-19.51a16,16,0,0,0-3.76-11.86A184,184,0,0,0,372,460.28c-5.89-5.58-11-5.74-17.73-.89-9.55,6.86-17.21,15.57-24,25.19-4.1,5.83-9,11.14-13.54,16.65a93.71,93.71,0,0,1-7.49,8.64c-3.3,3.12-7.25,5.11-13,3.88,0-4.26-.44-8.65,0-13a177.65,177.65,0,0,1,13-50.29c11.11-26.82,22.41-53.57,34.21-80.09,4.12-9.25,10-17.72,15-26.56,4.83-8.48,9.31-17.17,14.47-25.43,7.19-11.5,15.41-22.37,22.23-34.07,13.9-23.83,32.35-44,50.25-64.67,16.48-19,36.86-33.09,58.77-45,37-20.13,75.6-36.49,116.19-47.86a277.47,277.47,0,0,1,37.22-7.9A86.91,86.91,0,0,1,696,122a11.25,11.25,0,0,1,2,1.26c-.86,1.24-1.43,2.62-2.45,3.44-8.77,7-17.36,14.23-26.48,20.73-17.56,12.52-33.77,26.27-46,44.3-9,13.24-16,27.51-22,42.23a38.22,38.22,0,0,0-2.52,13.63c-.38,23.57-.66,47.13-.45,70.7.15,18.22.28,36.5,1.85,54.63,1.67,19.36,4.79,38.61,7.71,57.84,2.06,13.6,4.57,27.15,7.41,40.6a230.64,230.64,0,0,0,6.86,23.8,9.81,9.81,0,0,0,4.25,5c14.64,8,24.8,19.91,32.21,34.74,8.6,17.24,12.09,35.09,8.93,54.16a10.21,10.21,0,0,0,3.36,9.74c5.78,5.34,11.81,10.26,19.27,13.61,3.83-4,3.31-8.15.91-12.66-3.58-6.72-7.44-13.35-10.25-20.39-6.15-15.4-5.92-31.6-3.93-47.68,1.11-9,3.75-17.77,6-26.59.7-2.78,1.69-5.74,5.53-6.11s5.89,1.74,7.64,4.61c1.08,1.77,2.21,3.51,3.41,5.4,3.86-1.9,4.12-5.32,4.45-8.28a59,59,0,0,1,5.4-19.5c1.66-3.42,1.12-6.57-.32-9.78a109.08,109.08,0,0,1-8-25.39c-2.41-13.52-1.93-27,0-40.46.78-5.6,3.08-10.55,7.63-14.23,6-4.87,12-4.44,17.51,1.05,3.73,3.75,7.59,7.38,11.58,10.84,1.52,1.31,3.58,2,5.76,3.14.72-1.71,1.54-2.8,1.57-3.92a27.34,27.34,0,0,0-.55-6.31,41.2,41.2,0,0,1,3.76-27.79c4.65-9.05,9.4-18.06,14.47-26.88,5.47-9.54,12.86-10.75,23.64-8.7,2.74.52,4.28,2.08,4.75,5.11,1.71,11,12.6,17.34,24.08,8.81,2.88-2.14,5.48-4.67,8.2-7,14.35-12.39,30.5-22.24,46.33-32.49a20.93,20.93,0,0,1,10.13-2.94c2.41-.1,5.27,1.42,7.28,3,3.5,2.8,3.55,4.28,1.09,8.15-3.53,5.55-7.14,10.95-8.72,17.55-2,8.21-1.21,15.08,6.68,19.91,3,1.88,5.75,4.34,8.64,6.48,6,4.45,12.53,5.27,19.88,3.77a146.14,146.14,0,0,1,22-2.5c5.35-.26,8.63,2.8,10.41,7.72,1,2.8.73,5-2,6.47-.37.2-.68.5-1,.71-7.36,4.13-10.08,11-11.48,18.82-1.38,7.68-3.24,15.28-4.91,22.91-.27,1.24-.66,2.46-.94,3.7-1.43,6.38.78,11,7,13,6.45,2.09,13.12,3.31,20,2.18A21,21,0,0,1,974.58,446c1.79,2.93,0,4.73-2,6.51-7.24,6.54-14.53,13-21.67,19.64a45.12,45.12,0,0,0-6.26,7.13c-3.68,5.28-3.12,9.56,1.16,14.35,3.39,3.79,7.81,5.77,12.41,7.42a14.4,14.4,0,0,1,9.57,10.18,11.74,11.74,0,0,1-3,12.23c-3.19,3.4-6.37,6.82-9.29,10.45-3.07,3.81-3,5.41.45,8.69a109.29,109.29,0,0,0,12.17,10.19c8.81,6.07,10.64,15.4,12.35,24.85.49,2.69-1.5,4.14-3.32,5.71q-7,6-13.76,12.26c-4,3.7-6.36,8.45-8,13.53-1,3.09-.83,4,.83,8.18,7.43-1.77,13.13-6.3,18.26-11.65,5.66-5.9,9.55-13,12.46-20.55,9.8-25.3,19.7-50.56,28.83-76.1,3.83-10.72,6.07-22,8.63-33.18,3.5-15.27,7-30.56,9.76-46,2.31-13.11,3.91-26.38,5-39.65,1.69-20.87,2.74-41.8,3.92-62.72.59-10.57.84-21.16,1.31-31.74.2-4.43.52-8.86.83-13.29.73-10.4-1.78-20.11-5.76-29.65-8.21-19.7-17.87-38.52-32.36-54.39a242.18,242.18,0,0,0-18.36-17.59c-9-8-18.31-15.73-27.53-23.53C958,154.56,954.71,152,950,148.23ZM-355.95,1147l-.19,1.73c4.55,2.43,9.68,2.67,14.64,2.94,18.41,1,36.86,1.47,55.27,2.63,15,1,30,2.93,45,3.85q32.7,2,65.45,3.11c26.49.89,53,1.72,79.49,1.86,31.38.17,62.77-.31,94.15-.74,27.8-.39,55.6-.81,83.38-1.75,27.15-.92,54.27-2.66,81.41-3.75,14.67-.59,29.26-1.28,43.29-6.21a44.78,44.78,0,0,1,6.83-1.55c12.94-2.31,25.94-4.34,38.85-6.88,52.08-10.25,100.28-31.11,147.59-54.37,6.82-3.35,13.8-6.37,20.76-9.43,4.29-1.88,5.87-4.86,3.82-9-1.15-2.34-3-5-5.17-6.08-7.86-4-9.93-10.42-9.31-18.52.37-4.77,2.58-7.92,7.1-9.47,10.27-3.54,20.62-4.57,31.13-1,2.21.75,4.42,1.5,6.65,2.16A33.17,33.17,0,0,0,495.37,1015a16.26,16.26,0,0,0-1.95-14.53c-1.74-2.66-3.73-5.17-5.4-7.87A16.73,16.73,0,0,1,486.23,978c.89-2.71,2.41-4.53,6.19-3,1.3,8.14,6.86,13.79,12.86,19.33a15.7,15.7,0,0,1,4.57,8c3.39,17.77-5.84,37.21-21.49,46.1-10.42,5.93-21.64,5-32.71,3.14-4.9-.83-9.57-3.28-14.2-5.31-6.26-2.72-12.38-2.74-18.38.45-3.74,2-3.69,5-.07,7.18a7.83,7.83,0,0,0,2.33,1c4.82,1,7.1,4.23,7.76,8.89.24,1.68.49,3.36.89,5,1,4.2,1.72,5.06,6.06,4.82,16.1-.88,28,7.14,38.4,18,6.85,7.21,13.1,15,19.52,22.61,5.32,6.3,9.25,13.23,8.66,21.89-.28,4.08,1.9,6.36,5.5,7.48a35.46,35.46,0,0,0,6.8,1.49c9.05.91,18.1,2,27.17,2.36a53.48,53.48,0,0,1,25.32,7.36c9.22,5.35,19.05,9.34,29.72,10.76,2.81.38,6.4,1.5,8.06-1.82s-.9-6-3.08-8.33c-2.91-3.09-6.17-5.88-8.88-9.12a6.34,6.34,0,0,1-1.17-5.07c.33-1.13,2.5-2.21,4-2.44a17.61,17.61,0,0,1,11.61,2.32c5.73,3.23,9,2.72,13.54-1.6,5.78-5.47,5.64-11.49-1.05-15.78a85.8,85.8,0,0,0-14.82-7.16c-14.14-5.61-28.9-8.9-44.07-7.84a93,93,0,0,1-24.52-1.62,30.67,30.67,0,0,1-16.8-9.69c-6.93-7.41-7.91-16.39-2.38-25A41.89,41.89,0,0,1,541.2,1056c3.13-1.3,6.29-2.53,9.43-3.82,20.81-8.59,38.73-21,51.91-39.56,7.24-10.21,12.64-21.06,12-34.09-.73-14.92-3-29.46-9.38-43.16a52.54,52.54,0,0,1-4.77-22.82,59.84,59.84,0,0,1,3.35-20.59c1.59-4.31,1.46-8.18-1.73-11.84-2.64-3-5.06-6.27-7.4-9.54-5.06-7.12-11.9-10.34-20.6-10.58-3.94-.12-7.88-1.37-11.74-2.41a3.58,3.58,0,0,1-2.2-2.57c0-1,1.18-2.09,2.11-2.79a5.63,5.63,0,0,1,3-1c8.23-.47,16.48-1.13,24.72-1.13a13.43,13.43,0,0,1,10.49,5.24c2.81,3.45,5.93,6.64,8.73,10.1,7.61,9.36,15.37,18.62,22.51,28.35,2.07,2.82,2.94,7,3.09,10.65.2,4.9-3.46,7.29-8.18,5.89-2.39-.71-4.51-2.32-6.86-3.27a66.33,66.33,0,0,0-6.77-1.83c.5,4.94.36,8.79,1.35,12.33,1.75,6.32,4,12.5,6.36,18.63,5.5,14.41,9.29,29.21,8.19,44.68-.64,9-2.78,17.94-4.44,26.87-1.26,6.73.73,10.16,7.41,10.21a228.33,228.33,0,0,0,28.54-1.16c16.58-2,33-5.31,49.83-5.13a22.83,22.83,0,0,0,6.84-1.27c5.68-1.76,8.66-5.29,8.27-11.26a70.6,70.6,0,0,0-3-15.47c-3.14-10.47-4.88-21.07-4-32a23.29,23.29,0,0,1,2.21-8.43c1.43-2.83,4.48-2.5,5.87.36a10.72,10.72,0,0,1,.75,3.06c1.92,13.08,6,25.51,10.89,37.76a35.41,35.41,0,0,1-1.84,31.27c-2.22,4.1-4.17,8.36-6,12.63-2.57,5.88-1.77,11.54,1.54,17,2.33,3.79,4.57,7.64,6.85,11.47a34.81,34.81,0,0,1,5.15,20.66c-.62,8.87-1.46,17.72-2,26.59-.7,11.22-5,20.86-12.15,29.41a38.37,38.37,0,0,0-4.74,7.53,6.87,6.87,0,0,0-.66,4.72c1.92,5.49,6.06,9,11.16,11.6,3.93,2,7-.27,10.06-2,5.36-3,11-3.64,16.47-1,10.81,5.21,22.07,5.13,33.51,3.56a16.42,16.42,0,0,0,6-1.87c10-5.86,11.22-11.62,2.16-19-4.57-3.73-9.76-6.74-14.8-9.85-7.23-4.46-12.49-10.36-13.46-19a129.77,129.77,0,0,1-.85-19c.36-10.28,2.66-20.31,8-29.11,7.85-12.85,12.51-26.85,16.58-41.14,2-7,.52-13-4.74-18-3.51-3.37-6.89-6.86-10.33-10.3-6.63-6.65-11.2-14.54-12.49-23.83-1.55-11.08-3.19-22.26-3.31-33.41-.16-13.94,1-27.9,1.93-41.84a293.17,293.17,0,0,1,9.91-58.77c6.54-23.71,12.81-47.44,15.14-72a26.61,26.61,0,0,0-.34-8.12c-1.12-5-3.62-6.39-8.29-4.77a59.42,59.42,0,0,0-9.18,4.3c-5.38,3-10.41,6.74-16,9a26.21,26.21,0,0,0-13.86,12.44c-2.45,4.67-5.09,9.42-6.43,14.46-2.94,11-5.29,22.23-7.53,33.43s-5.12,21.86-11.31,31.51c-8.84,13.78-20.47,23.68-37,26.72-7.66,1.41-14.86.33-20.81-5.09a220.71,220.71,0,0,1-16.42-15.94c-3-3.4-5.86-7.59-7-11.89-3.33-12.58-2.27-24.77,5.92-35.66,2.93-3.89,5.6-8,8.25-12.09a35.64,35.64,0,0,0,5.94-19.78c0-9.86-1.86-19.36-3.93-28.89-1.87-8.61-4.91-16.64-10.33-23.69a20.83,20.83,0,0,1-4.08-12.5c-.07-2.76.16-5.54-.06-8.28-.81-10.07,2.25-18.37,10.72-24.34a20.84,20.84,0,0,0,2.73-2.67c3.65-3.75,4-6.18,1.57-11.4a11.76,11.76,0,0,0-10.87-6.72c-8.45.58-16.9,1.11-25.36,1.44-19.87.78-38.57,5.26-55.15,16.8-5.75,4-11.68,7.74-17.37,11.82-10.34,7.4-20.75,14.73-30.76,22.56-6.34,5-12.1,10.67-14.77,18.72-2.46,7.45-5.37,14.75-7.55,22.28a86.05,86.05,0,0,0-3.07,16.15c-.64,7.15.13,14.46-.84,21.54-2.45,17.82-5.15,35.59-5.68,53.61a66.27,66.27,0,0,1-1.35,11.32,5.56,5.56,0,0,1-2.91,3.54c-.95.39-2.73-.63-3.82-1.44a7.33,7.33,0,0,1-2.18-3.08c-2.26-5.68-5.53-11.25-6.34-17.15-2-14.43-2.8-29-4.11-43.56-.4-4.49.24-9.3-4-13.35a62.75,62.75,0,0,0-6.31,4.18C443.29,796,434,808,425.71,821c-6.17,9.64-12,19.51-18.66,28.84a242.85,242.85,0,0,0-32,61.26c-4.91,14.22-9,28.7-13.9,42.93-3.49,10.21-7.24,20.38-13.19,29.52-3.71,5.69-7.48,11.33-11.23,17-9.9,15-21.54,28.39-36.16,39-14.12,10.28-29.39,18.64-45.12,26.13-18.88,9-38.4,15.91-59.53,17.34-4.21.28-8.59.4-12.56,1.67-6.84,2.19-13.56,4.37-20.76,5.39-8.77,1.25-17.32,3.94-26,5.58-17.93,3.37-36,5.88-53.84,9.76-49.16,10.7-98.53,19.95-148.65,24.76-19.42,1.86-38.82,4.24-58.29,5.24-32.2,1.65-64.46,2.14-96.68,3.54-38.61,1.67-77.19,3.72-115.78,5.77C-343.11,1145-349.52,1146.2-355.95,1147ZM777.15,520.72c4.57-5.26,7.92-9.94,12.08-13.74,13.17-12,29.18-16.56,46.72-17,8.74-.19,14.94,3.42,19.66,10.57a147.6,147.6,0,0,1,21,47.37c5.55,23.1,10.69,46.17,11.91,70,.88,17.33,2,34.66,3,52,.38,7,1.26,14,.68,20.92-1.19,14.2-1.73,28.3.24,42.47A152.29,152.29,0,0,1,894,751.65a143.07,143.07,0,0,0,4.31,33.3c2.21,8.62,4.89,17.15,6.54,25.87a102.13,102.13,0,0,0,11.5,30.8c8,14.34,12.56,29.82,11.53,46.29-1,16.66-3.11,33.26-4.93,49.87-2.08,19-7.2,37-17.28,53.37a25.6,25.6,0,0,0-2.71,5.72c-.37,1.19.08,2.63.2,4.61a56.11,56.11,0,0,0,6.11-1.68c12.41-5.1,24.14-11.31,34.29-20.33,9-8,15.56-17.37,18.44-29A175.23,175.23,0,0,0,965,932.29c1.69-12.15,3.35-24.3,4.78-36.49,1.91-16.17,3.54-32.37,5.42-48.55a29.15,29.15,0,0,1,2.1-8.59c3.95-8.68,7.9-17.39,12.49-25.73,6.42-11.69,10.08-24,8.08-37.22-3.18-21.15-10.48-41-20.6-59.84a25.75,25.75,0,0,0-12.74-11.14c-6.81-3-9.31-1.75-10.89,5.39-2.47,11.13-1.68,22.29-.27,33.5,1.2,9.5,5.47,17.24,12.1,23.91,1.65,1.65,3.21,3.38,4.73,5.15,2.14,2.49,4,5.21,2.12,8.59-1.23,2.26-5.38,2.53-9.4.9a10.52,10.52,0,0,1-1.75-.76C949,773.41,941,763,940.73,747.65c-.4-22.52,1.69-44.82,4.91-67.08a65.87,65.87,0,0,0-1.78-29,57.92,57.92,0,0,1-1.78-8.06c-1.88-12.08-2.17-24.28-4.73-36.41-4.53-21.35-3.71-43.36-5.05-65.1-1-16.69-1.49-33.42-2.64-50.1a195.65,195.65,0,0,0-12.54-56.23A137.31,137.31,0,0,1,910,406.76a110.18,110.18,0,0,0-6-22.61c-4.41-11.72-15.58-15.42-25.91-19.78-1.21-.51-2.92,0-4.37.24-10,1.45-20.05,3.1-30.11,4.37a39.36,39.36,0,0,1-25-5.12c-10.63-6.05-15.61-3.29-16.66,9a25.67,25.67,0,0,1-6.59,15.49c-5.82,6.45-11.43,13.18-17.85,19-10.18,9.23-16.68,19.82-17.84,33.91-.6,7.24-2,14.81-6.89,20.88-6.18,7.66-13.08,14.53-22.11,18.82a17.94,17.94,0,0,0-10.1,11.6q-4,13.73-7.91,27.48c-1.84,6.46-.7,12.43,2.4,18.38,2,3.87,3.93,8.17,4.34,12.43.65,6.87.15,13.87-.09,20.81a36.66,36.66,0,0,1-8,21.73c-5.3,6.79-8.26,14.7-11,22.7-1.18,3.38-2.39,6.76-3.56,10.14-2.7,7.76-5.14,15.45,3.51,21.4a17.25,17.25,0,0,1,2.82,3.2c7.81-2.21,15.3-4.31,22.77-6.47,1.17-.33,2.92-.66,3.28-1.48,2.41-5.56,7.87-9.23,10.09-14.44C744.46,616,752,604.62,756.1,591.64c2.39-7.57,1.86-14.21-3.61-20.08-5.94-6.37-9.28-14.08-11.91-22.18-2.84-8.77-4.13-17.68-1.52-26.74,5.7-19.71,18.72-34.37,33.57-47.61a32.42,32.42,0,0,1,13.88-7.31C776.7,484.7,775.93,502,777.15,520.72Zm342.43,234.11c.64-2.23,1-3.41,1.31-4.61,7.81-32.05,9.74-64.8,10.88-97.58.51-14.8-.53-29.66-.69-44.49a619.53,619.53,0,0,0-3.86-62.7c-2.6-23.32-4.86-46.71-8.27-69.92a1017.62,1017.62,0,0,0-21.43-106.4c-9.33-36.16-20.69-71.63-35.82-105.83-1.2-2.71-2.55-5.36-3.9-8-1.23-2.39-2.55-4.73-4.46-8.23a13.84,13.84,0,0,0,0,2.78c9.16,23.46,8.7,47.58,5.35,72-1.46,10.67-2.12,21.46-2.79,32.22-.74,11.83-.74,23.72-1.65,35.53-1.81,23.43-5.8,46.56-9.87,69.7A529.36,529.36,0,0,1,1012.9,569c-6,14.52-12.24,28.88-20.76,42.15-5.35,8.34-12.43,14.26-22,17.2A78.89,78.89,0,0,0,959,633.14c-2.72,1.33-3.72,3.54-3.36,6.77.8,7.14,1.35,14.32,1.66,21.5.25,5.92-.05,11.86,0,17.78.08,6.45,1.8,8.53,8.2,8.7a167.91,167.91,0,0,0,19.68-.6,129.43,129.43,0,0,1,34.78,1.3c15.42,2.76,28.49,10.51,41,19.52a603.09,603.09,0,0,1,54.29,44A32.69,32.69,0,0,0,1119.58,754.83ZM1056.91,225l-1.17.89c.45,1.08.82,2.19,1.35,3.22,2.24,4.33,4.63,8.59,6.78,13,14,28.42,24.78,58,34,88.29a935,935,0,0,1,25.81,108.06c6.29,35,11.26,70.17,14.49,105.57,1.74,19.16,3.12,38.38,3.79,57.61.94,27.33,1.33,54.71-1,82-1.41,16.64-3.62,33.2-5.41,49.8-.13,1.19.29,2.43.64,5.08a51,51,0,0,0,2.85-4.48c3.49-7.72,7-15.43,10.33-23.23a29.82,29.82,0,0,1,13.7-15.3c10.44-5.59,21.68-7.09,33.27-6.37,16.84,1,32.29,6.52,46.58,15.37,5,3.11,10,6.34,14.84,9.46,3.65-1.79,5.08-4.5,4.55-8.32-.26-1.89-.13-3.83-.46-5.7q-5.32-30-10.78-60c-3.59-19.57-7.53-39.08-10.88-58.69-2.74-16.05-4.73-32.22-7.29-48.3-1.06-6.68-2.86-13.23-4.11-19.89-1.56-8.3-2.41-16.77-4.4-25-6.26-25.89-16.6-50.22-28.82-73.82-18.67-36.08-40.8-69.94-64.95-102.53-20.21-27.26-42.26-53-65.07-78.11C1062.83,230.58,1059.8,227.83,1056.91,225ZM591.73,219.3c-.8.5-1.28.64-1.46.94-1.61,2.74-3.26,5.45-4.72,8.27-13.82,26.59-24.7,54.41-34.4,82.7s-17.77,57-24.72,86.1A1210.78,1210.78,0,0,0,504,519c-2.13,15.93-3.93,31.91-5.55,47.9-1.72,17-3.65,34.07-4.39,51.16-.83,19.28-.75,38.63-.46,57.93.15,10.12,1.57,20.23,2.51,30.33.11,1.15.86,2.23,1.63,4.12,2.3-1.46,4.28-2.53,6-3.85,18-13.45,35.68-27.38,55.26-38.58,9.56-5.47,18.92-11.34,29.65-14.42,11.59-3.34,23.44-3.32,35.33-2.69,5.41.29,10.8.83,16.94,1.31-.84-1.62-1.28-2.53-1.78-3.41-3.25-5.7-6.95-11.19-9.66-17.13-5.59-12.27-9.51-24.94-6.16-38.72,1.34-5.55,2.46-11.15,3.64-16.73.78-3.72,1.32-7.3-.16-11.16-4.47-11.67-9-23.35-12.75-35.24-16.91-53-25.06-107.5-28.34-162.82-1-17.34-1-34.74-1.37-52.11-.21-9.12.36-18.32-.64-27.35-2.47-22.27-1.33-44,7.27-65A20.68,20.68,0,0,0,591.73,219.3ZM591,194.88a49.21,49.21,0,0,0-4.53,3.53c-15.6,16.19-31.46,32.13-46.66,48.68a792.5,792.5,0,0,0-79.38,102.43,508.22,508.22,0,0,0-35.5,64.6c-11.73,25.26-15.41,52.76-23,79.15a4.58,4.58,0,0,0-.1.63c-4.64,27.39-11.71,54.21-18.78,81-6.09,23.14-11.63,46.42-17.3,69.67a84.18,84.18,0,0,0-2,12.52,6.88,6.88,0,0,0,1.66,4.91c.56.56,2.93-.64,4.46-1.12.37-.11.61-.59,1-.81,19.22-12,39.49-20.46,62.77-19.24a54.6,54.6,0,0,1,24.28,6.69,29.48,29.48,0,0,1,14.68,18.37c2.15,7.75,4.81,15.36,7.35,23a20,20,0,0,0,2.18,3.71,5.3,5.3,0,0,0,1.22-3.55c-.26-7.83-.94-15.66-.75-23.48.48-20.74,1-41.49,2.13-62.21.75-14.13,2.07-28.26,3.78-42.32,3.29-27.08,6.48-54.19,10.71-81.13a1058.54,1058.54,0,0,1,29.33-132c15-51.63,33.22-101.95,60.91-148.38C589.94,198.61,590.13,197.42,591,194.88Zm728.33,318.3c-4.49-15-8.53-29.52-13.14-43.82-12.33-38.26-28.77-74.76-48.31-109.82-9.38-16.83-19.65-33.2-30.11-49.39-9-13.89-19.61-26.58-31-38.62-12.55-13.27-25-26.78-40.1-37.07-22.62-15.36-45.5-30.4-68.83-44.66-11.32-6.92-23.89-11.81-36-17.46-2.1-1-4.58-1.14-7.94-1.92a42.35,42.35,0,0,0,1.64,4.09,92.5,92.5,0,0,1,10.74,29.07,19.23,19.23,0,0,0,5.57,10.4,838.89,838.89,0,0,1,64.66,74.28c27.67,35.77,53.43,72.82,74.61,112.9,18.12,34.27,33.36,69.52,38.3,108.44.15,1.21,1.14,2.31,2,4,4.55-5.26,8.6-9.82,12.52-14.5,5.64-6.75,12.67-8.28,20.56-5.07a131.66,131.66,0,0,1,17.09,8.34c7.83,4.62,15.32,9.81,23.1,14.86ZM326.4,467.43c8.21-4.86,16-9.59,23.9-14.13a51.32,51.32,0,0,1,18.4-6.67c5.47-.79,10.13.05,13.79,4.25,3.33,3.83,6.38,7.89,9.59,11.83,1.26,1.55,2.59,3,4.37,5.11a10.89,10.89,0,0,0,1.49-2.32c.74-3.08,1.39-6.18,2.06-9.28,6.2-28.67,18.11-55.07,32.19-80.59,15.81-28.67,34.48-55.45,54.3-81.45a930.69,930.69,0,0,1,98.2-109.06c2.93-2.8,5-6.83,6.59-10.64a102.51,102.51,0,0,0,4.87-15.09c1.22-4.79,2.76-9.63,1.67-15.33-6.5,2.47-12.67,4.67-18.72,7.14-18.72,7.65-35.91,18.19-53.21,28.49-24.23,14.42-48.46,28.63-68.75,48.85-16.72,16.67-32.8,33.78-46.32,53.09-34.2,48.9-61.88,101.25-82,157.52-3,8.52-5.72,17.17-8.59,25.83Zm443.78,27.64c-11,10.56-18,22.36-20.3,36.56-1.45,9-.12,18.07,5.68,25.38,2.89,3.65,5.42,7.45,8.09,11.22,3.88,5.48,4.16,11.21,3.39,17.53-1.22,10-2.86,19.7-8.47,28.32a13.44,13.44,0,0,0-1.35,3.55c-3.59,11.85-11.11,21.24-19.13,30.25-2.15,2.42-5.33,3.92-7.53,6.31-1.75,1.9-3.5,3-6,2.83a81,81,0,0,0-8.22-.38c-2.85.15-5.9-.09-7.75,3.12-1.67,2.89-4.64,3-7.3,1.85a22.76,22.76,0,0,1-6.28-4.19c-9.74-9.1-19.48-18.14-27.49-29-4.68-6.34-9.11-12.72-12.3-19.88-2.43-5.44-4.05-11.29-3.15-17.29.59-3.93,2.49-7.63,3.37-11.54,1.39-6.14,4.06-12.58,3.28-18.52-2.05-15.61-9.6-29.19-19.33-41.46-1.63-2-3.93-3.56-6.58-5.91.21,1.67.21,2.29.36,2.86,2.5,9.39,5.44,18.68,7.36,28.18,1.32,6.51,2.94,13.16,1.24,20-2.08,8.41-3.88,16.88-5.63,25.37-1.67,8.09-2.89,16.2-.16,24.36,5.39,16.08,12.83,30.76,26,42.1,3.21,2.74,6.19,7,7,11,1.65,8.19,1.12,16.5-6.15,22.64-1.12.94-1.84,2.34-2.92,3.34-7.18,6.62-7.72,13.77-2.52,23.66,1,1.86,2.5,3.43,3.48,5.29,2.55,4.83,5.61,9.54,7.2,14.69,1.85,6,2.52,12.41,3.4,18.69,1.11,8,2.79,16,2.64,23.92a51.06,51.06,0,0,1-9.76,29.71c-4,5.44-7,11.57-10.17,17.55a14.44,14.44,0,0,0,.55,14.66c4.76,7.8,10.44,14.93,17.76,20.59a12,12,0,0,0,10.18,2.37c5.49-1.12,10.67-3.12,14.89-6.78,10.07-8.72,16.87-19.38,19.31-32.76,2.28-12.48,4.59-25,7.83-37.26,4.86-18.35,15.55-32.25,33.29-40.24a111.09,111.09,0,0,0,13.78-7.92c4.77-3,5.06-3.84,3.39-9.42a29.72,29.72,0,0,1,1.15-20.5c2.95-7.2,7.57-13.19,13-18.68,2.31-2.36,4.46-4.87,6.73-7.37-1.31-1.45-1.87-2.66-2.73-2.92a64.06,64.06,0,0,0-8.55-1.93c-6.24-1-9.79-2.24-9.84-9.87a10.36,10.36,0,0,0-3.17-6.48c-4.9-4.76-5.49-6.14-2.44-11.85a103.54,103.54,0,0,0,9.05-21.59c1.54-5.71,3.47-11.34,4.73-17.12,2.58-11.75,5.74-23.49,4.68-35.69-.77-8.84-1.9-17.7-8-24.88-5.54-6.51-7.86-14.5-9.65-22.53a65.88,65.88,0,0,1,.06-29.63A24.1,24.1,0,0,0,770.18,495.07ZM913.41,887.8c-.88-6.48-1.43-13-2.7-19.43-1.87-9.47-3.58-10-11.55-4.93q-13.68,8.7-27.51,17.12c-9.69,5.91-20.3,6.9-31.27,5.35a80.55,80.55,0,0,1-45.08-21.55c-2.33-2.2-4.95-5.7-8.6-4.14-3.47,1.49-3.43,5.67-3.46,9a78,78,0,0,1-8,33.06c-1.83,3.83-1.87,7.28.67,10.73,5,6.82,9.73,13.9,15.07,20.47,11.58,14.27,26.55,21.95,45.15,22.23,12.56.19,23.62-4.2,34-10.72,12-7.49,21.9-17.31,31.79-27.23C910.26,909.38,914.25,899.62,913.41,887.8Zm59.71,260.32.09-.47c.85,0,1.71,0,2.55,0A32.71,32.71,0,0,0,994,1141c1.17-.91,2.53-3.25,2.11-4.12-.67-1.41-2.63-2.51-4.27-3.06s-3.36-.15-5.06-.18c-11.11-.24-19.81-4.39-24-15.31-3.9-10.07-7.9-20.12-11.29-30.36-7-21.08-9.14-43-10.67-65-.34-4.85-.67-9.72-1.48-14.51s-2.61-5.52-7.17-3.81c-7.72,2.89-15.45,5.75-23.21,8.52-3.21,1.14-4.94,3.11-4.66,6.63.24,2.94.35,5.9.67,8.84.93,8.48-1,16-7.28,22.08-2.44,2.36-4.87,4.74-7.2,7.21-7.59,8.09-7.52,9.46,1,16.51,9.34,7.69,18.31,15.75,25.86,25.27a31.94,31.94,0,0,1,3.27,4.68c2,3.79,1.31,5.95-2.59,7.58-2.72,1.14-5.64,1.81-8.47,2.71-5.24,1.69-10.55,3.18-15.68,5.17-4.85,1.88-5.6,5.19-1.64,8.52,2.82,2.37,6.51,3.85,10,5.19,6.32,2.42,12.84,4.29,19.18,6.66,4.76,1.78,9.29,4.17,14,6,4.37,1.64,8.9,3.08,13.55.69,4.41-2.27,8.94-2.09,13.62-.87C966.06,1146.89,969.61,1147.42,973.12,1148.12Zm-192.7-209c-.56,3-1.08,4.34-1,5.7.33,11.88,3,23,10.6,32.57,11.58,14.45,25,26.91,39.34,38.64,9.68,7.91,28.71,7.13,36.52,1.32a111.57,111.57,0,0,0,15.21-13.31c17.63-19,26.47-42.07,30-67.35.4-2.87.73-6.86-3.75-9.34-4,3.07-8.12,6.36-12.37,9.4-9.29,6.63-18.41,13.57-28.09,19.59-14,8.7-29.42,10.15-45.34,7-13-2.62-24-9.27-33.77-18C785.74,943.49,783.63,941.83,780.42,939.15ZM729,1089.56c1.78-11.66,0-21.35-5.9-29.82-5.72-8.17-9.88-16.7-10.16-26.83-.09-3.06-2-4.53-4.84-4.88a24.24,24.24,0,0,0-3.81-.16c-15,.47-30,1-45,1.41-9.89.25-19.73,2.08-29.71.4-4.25-.71-8.73-.12-13.72-.12-3.38,13.18-7,26-9.85,39-1,4.59-.62,9.61-.18,14.37.39,4.1,2.73,5.23,6.74,3.92a39.67,39.67,0,0,0,7-3c8.93-5,18.34-5.8,28.29-4.15a194.14,194.14,0,0,0,23.86,2.86c12.05.47,24.14.24,36.2.06,5.49-.07,10.45,1,15,4.2C724.45,1087.94,726.49,1088.46,729,1089.56ZM847.4,874.16c5.58.6,11.62-2,17.26-5.47,9.54-5.9,19-11.91,28.32-18.19,6-4,6.63-6.75,4.61-13.51-.54-1.83-1-3.67-1.41-5.53-1.95-9.52-3.63-19.1-5.84-28.55-2.13-9.08-3.74-9.53-11.36-4.46-8.31,5.52-17,10.29-26.62,13.26-14,4.33-26.72,2-38-7.48a47.65,47.65,0,0,0-4.46-3.56c-4.55-3-7.08-2.15-9.29,3a23.87,23.87,0,0,0-1.23,3.6q-3.69,15.09-7.31,30.19a9.82,9.82,0,0,0,3.84,10.71c8,6.2,15.9,12.66,24.39,18.15A48.37,48.37,0,0,0,847.4,874.16ZM883.74,773.9c-.11-1-.24-2.88-.55-4.76-1.59-9.36-3.25-18.72-4.83-28.09-1.37-8.19-2.65-8.92-10.34-5.44-11.71,5.3-23.84,7.16-36.46,4.25-4.31-1-8.43-2.75-12.69-4-5.35-1.58-7.32-.58-9.29,4.53a16.27,16.27,0,0,0-1,3.66c-1.44,10.88-2.68,21.79-4.29,32.64-.52,3.56.37,6.5,2.86,8.57,5.52,4.59,11.06,9.27,17.13,13a24.92,24.92,0,0,0,18.86,3.19c9.54-2.07,17.59-7,25.52-12.35,3.84-2.58,7.72-5.12,11.75-7.4C883.28,780.11,884,777.76,883.74,773.9ZM829.31,664.58c-5.2,4.24-5.75,9.5-6.71,14.36-2,10.13-3.63,20.34-5.18,30.55a10.38,10.38,0,0,0,1,5.46c4.9,10.78,21.15,17.95,30.35,14.09,5.65-2.37,11.48-4.31,17.25-6.37a14.7,14.7,0,0,0,9.69-10.91c1.14-4.49,2-9.07,2.78-13.65a71.91,71.91,0,0,0,1.27-11.93c0-5.25-1.9-6.63-7.07-6.25-2.74.2-5.51.27-8.23.63-12.19,1.63-22.5-1.85-30.73-11.13C832.39,667.9,831,666.4,829.31,664.58ZM620.82,1100.47c4.26,4.6,9.13,7.15,14.09,9.42a5.26,5.26,0,0,0,4.57-.69c4.64-3.82,8.89-2.78,13.32.24q5.24,3.58,10.72,6.81c2.72,1.61,5.94,2.08,8.39,0a23.38,23.38,0,0,0,5.66-7.31c2.8-5.68,4.93-6.18,9.11-1.46,4.49,5.07,8.88,10.23,13.48,15.19,3.25,3.51,6.78,6.75,10.26,10.19,7.1-5.66,11.6-12.31,15.81-19.18a5.17,5.17,0,0,0-.31-6c-5.76-8.83-13-15.87-23.91-17.22-6.85-.86-13.86-.35-20.8-.4-11.64-.1-23.33.55-34.89-.43C635.76,1088.78,627.75,1092,620.82,1100.47Zm251.94-489a29,29,0,0,0-3.19,1c-8.83,4.15-18.16,5.35-27.82,5.16-6.2-.13-8.63,1.57-9.89,6.8a68.09,68.09,0,0,0-1.44,25.86,8.72,8.72,0,0,0,3,5.3A209.56,209.56,0,0,0,851.82,668c6.95,4.07,13.92,2.27,20.52-1.49,5.73-3.26,6.08-9.06,5.84-14.46-.49-10.76-1.61-21.49-2.77-32.21C875.12,617.09,873.74,614.45,872.76,611.43ZM707.64,415.05l-.49.17c1.8,12.09,3.35,24.22,5.53,36.24a45.84,45.84,0,0,0,4.77,13c3.39,6.36,7,7.14,13,3.37C739,462.44,745,455,747.27,444.94c.92-4.1,1.22-8.34,1.75-12.53.68-5.44-.75-8.24-5.53-10.85-1.86-1-3.8-1.87-5.66-2.88a87.62,87.62,0,0,1-20.07-15.42c-1.46-1.46-4-2.79-5.83-2.59-1.16.13-2.4,3.14-2.88,5A85.68,85.68,0,0,0,707.64,415.05Zm335-191.68c.59-4,1-6.68,1.34-9.34.91-7.52-1.28-14.73-3-21.82-1.78-7.32-4.86-14.33-7.54-21.4-.67-1.74-2.05-3.21-3-4.85-2.08-3.56-5.18-5-9.23-5.64-10.4-1.75-20.67-4.26-31.07-6a34,34,0,0,0-16.68.83C998.56,175.27,1019.89,198.83,1042.62,223.37ZM603,199.43l1.65.93c6.5-8.48,12.66-17.24,19.58-25.37a287.05,287.05,0,0,1,22.61-24c7.8-7.27,16.51-13.57,24.82-20.29l-.51-1.59c-2.63-.06-5.27-.25-7.89-.13a50.47,50.47,0,0,0-6.91.91c-11.22,2.09-22.47,4-33.6,6.47a12.18,12.18,0,0,0-9.76,9.8c-1.8,8.2-4.18,16.28-5.71,24.52C605.53,180.18,604.42,189.83,603,199.43ZM818.07,544.19a83.81,83.81,0,0,0-14.3,12.63c-4.64,5.3-7.38,10.66-6.84,18.24.59,8.36-.75,16.85-1.23,25.29-.49,8.63-1,17.27-1.4,25.91,0,.9.46,1.82,1.07,4,2.24-2.46,3.78-4,5.2-5.73,4-4.7,7.73-10,13.74-11.94,6.64-2.17,7.81-7,7.93-12.77.11-5.08.47-10.17.29-15.24q-.57-16.15-1.7-32.29C820.67,550,819.3,547.69,818.07,544.19ZM775.24,336.86a19.94,19.94,0,0,0-2.78,2.57c-7.64,12.06-13.88,24.77-17.27,38.7a43.13,43.13,0,0,0,0,22c1.43,5.17,4,6.25,8.31,3.14a62.29,62.29,0,0,0,9.65-8.22c5.39-5.94,10.87-11.92,15.38-18.52,5.13-7.5,3.25-15-3.3-20.23-4-3.23-6-7.53-7.25-12.36A72.28,72.28,0,0,0,775.24,336.86Zm58.48,245.95h-.2c.22,2.94.07,6,.72,8.82,1.48,6.51,4.58,12.15,11.88,13.19a51.69,51.69,0,0,0,22.58-1.56c4.25-1.3,5.66-3,4.79-7.57-1.68-8.67-3.92-17.24-6-25.83-.67-2.73-2.55-3.76-5.3-2.87-7.48,2.39-15,4-23,3.91-3.76-.07-5.17,1.73-5.43,5.56C833.6,578.57,833.72,580.69,833.72,582.81ZM709.75,560c-.7-2.93-.65-7.44-2.74-10.47a186.35,186.35,0,0,0-16.1-19.44c-2.8-3-5.58-2.08-6.08,2a86.41,86.41,0,0,0-.19,13.75,97.08,97.08,0,0,0,7.87,33.72c1.24,3,1.85,7.2,6.13,7.19s5.63-3.94,7.25-7.11a15.1,15.1,0,0,0,1.4-4.19C708.13,570.68,708.82,565.89,709.75,560ZM595.61,1048.25a40,40,0,0,0-5.88,2.09c-4.26,2.34-8.19,5.42-12.64,7.26-9.55,3.94-10.93,11.29-9.45,20.16a60,60,0,0,0,1.65,8A10.22,10.22,0,0,0,572,1090c4.3,4,16.67,4.9,22.49,1.56C589.84,1077.51,595.92,1063.44,595.61,1048.25ZM865.55,322.19c-2.59,1.05-4.47,1.43-5.91,2.45-9.51,6.72-19,13.48-28.32,20.48-2.12,1.59-3.58,4.11-5.15,6.34s-.76,4.15,1.2,5.5A10.89,10.89,0,0,0,832,358.9c8.73,1,17.36.49,25.64-2.77a9.23,9.23,0,0,0,6.1-6.83C865.45,340.81,866.6,332.27,865.55,322.19ZM1131,856c5.52-12.22,4.84-24.47,5.88-36.37,1.43-16.48.67-33-1.16-49.45-.35-3.15-.61-6.33-1.24-9.42s-2.8-4-5-1.68c-5.31,5.59-8.6,12-6.49,20,.86,3.27,2.06,6.5,2.41,9.83.7,6.73.82,13.51,1.39,20.26C1128.11,824.51,1129.53,839.84,1131,856ZM477.34,803.63l1.81.14c1.49-8.38,3-16.76,4.48-25.15,2.44-13.88,5-27.76,7.22-41.67.77-4.73,2.15-9.45.55-14.39s-5.9-8.51-10.15-7.65c-3.38.68-4.57,3.25-4.38,9.22.44,13.94,1,27.88,1.21,41.83.11,6.27-.57,12.55-.71,18.84S477.34,797.35,477.34,803.63Zm-98,48.8c1.64-.67,2.14-.72,2.39-1a169.93,169.93,0,0,0,24-33.48c.7-1.31.68-3,1.2-5.51-13.13.9-24.45,4.39-35.91,9.36A78.06,78.06,0,0,0,379.35,852.43Zm58.49-76.3a61,61,0,0,0,17-14.4,65.71,65.71,0,0,0,7.95-11.39c2.3-4.27,1-5.9-3.74-6.7-6.78-1.15-13.42-.07-20,1a41.07,41.07,0,0,0-7.93,2.12c-2.68,1-4,3-2.91,6,1.72,5,3.16,10.08,5.08,15C434.33,770.6,436.16,773.15,437.84,776.13ZM845.38,530.85c-3.54.44-7.1.78-10.62,1.36-3.2.54-4.76,2.62-4.42,5.86a35.21,35.21,0,0,0,7.76,19,6.11,6.11,0,0,0,7.34,2.12,123,123,0,0,0,12.75-5.49c4.22-2.24,5.29-5.17,4-10.07C858.9,530.52,857.22,530.59,845.38,530.85ZM943,567.12c1.17,7.46,2,14.4,3.43,21.21.94,4.51,3.16,5.32,6.77,2.49,6.15-4.83,12-10,17.93-15.15,2.22-1.92,2.15-4-.25-5.83-6.68-5.19-13.3-10.45-20-15.57-2.92-2.22-5.18-1.58-6.19,2.11S943.52,563.83,943,567.12ZM240.13,1049.43c-4.5-2.27-8.25-4.08-11.91-6s-7.33-4.2-11-6.24a25.06,25.06,0,0,0-4.06-1.74c-5.85-2-8.64-.36-8.92,5.67a112.35,112.35,0,0,0,.38,14.56c.35,4.35,1.64,5.23,6.32,5a56.19,56.19,0,0,0,23.05-6.29C236.08,1053.21,237.8,1051.31,240.13,1049.43Zm553-496.23c6.55-7,12.7-13.63,16.75-21.8,1.23-2.48,1.47-5.61,1.57-8.47s-.58-5.57-3.58-6.84-5.91-.29-8.13,1.87a51.2,51.2,0,0,0-14.44,24.12ZM343.64,942.33c6-9.69,7.72-19.73,9.82-29.61.3-1.4-.58-3.05-1.06-5.2-8.66,1.84-15.9,4.93-21.78,10.72-.86.84-1.51,2.91-1.08,3.88C332.81,929.42,336.43,936.55,343.64,942.33Zm-54.51,43.8c1.91,10.48,3.61,19.76,8.3,29.27,7.88-5.69,14.61-11.29,19.25-19,2.42-4,1-6.15-3.73-6.83L294.85,987Zm-163.75,93.55c9.26,1.89,22.1-1.49,26.92-6.91-5.4-7.15-12.35-12.15-21.1-15.85A36.36,36.36,0,0,0,125.38,1079.68Zm-144.15,26.17a69.2,69.2,0,0,0-26.32-16.31c-2.82,6.83-2.23,13-.09,19.08a4.62,4.62,0,0,0,3.41,2.32A41.12,41.12,0,0,0-18.77,1105.85Zm837.06-597.5c1.19,4.37,4.07,6.83,7.26,8.92a17.74,17.74,0,0,0,18.05,1.39c3.38-1.54,4.09-3.48,2.12-6.52-1.11-1.72-2.65-3.68-4.43-4.32a60.14,60.14,0,0,0-12.79-3.17A12,12,0,0,0,818.29,508.35ZM1333,549.93a15.59,15.59,0,0,0,.94-1.88c2.28-7.23-.33-14.25-1.17-21.3-.21-1.75-2.32-3.53-4-4.77-2.54-1.94-6.86-1-8.51,1.4-2.19,3.22-1.32,12,1.38,14.76C1325.39,541.9,1329,545.71,1333,549.93ZM555,1085.22a107.55,107.55,0,0,0-3.49-10.94c-1.47-3.51-3.22-3.84-6.44-1.49a46.06,46.06,0,0,0-7.48,6.74c-2.86,3.26-2.7,6.16.76,8.67a29.73,29.73,0,0,0,9.48,4.66C552.74,1094.2,555,1092,555,1085.22Zm-519.88,8.6c8.75,3.6,20.56,2.08,24.69-2.59-2.92-5.54-7.75-9.19-12.84-12.59-2.26-1.52-4.22-.86-5.32,1.26C39.39,1084.33,37.42,1088.93,35.15,1093.82ZM687.64,1150a30.68,30.68,0,0,0,12.52-12c-4.58-4.12-8.86-8.15-13.34-11.94-2.36-2-5-1.55-6.23,1.21a8.56,8.56,0,0,0-.23,5.92C682.42,1138.73,685,1144,687.64,1150ZM307,498.82c5.4-5.57,12.1-9.53,15.63-16.5,2-4,1-8.49-2.58-10.37-3.06-1.62-7.81.15-9.45,4A49.58,49.58,0,0,0,307,498.82ZM802,700a7.8,7.8,0,0,0-2.15-.7,4.35,4.35,0,0,0-2.37.67,33.84,33.84,0,0,0-11.89,18.29c-.86,3.42,1,5.69,4.52,6.25,3.78.61,7-.72,8.33-4.24A52.52,52.52,0,0,0,802,700Zm475.12,47.91,1.4-.43c.11-1.8.66-3.71.26-5.4-1.51-6.35-3.11-12.7-5.22-18.87-.5-1.47-3.16-3.11-4.77-3.06a8,8,0,0,0-5.63,3c-1,1.41-.62,4.07-.14,6C1265.07,737.37,1271.42,742.39,1277.09,747.91ZM344.75,697.19c3-.59,4.85-.41,5.88-1.26,6.4-5.31,11-12.11,14.85-19.37,1.47-2.75-.15-6.19-2.82-7.51s-4.89-.63-6.5,2.73C352.36,679.7,348.94,687.8,344.75,697.19ZM945.09,445.58c-8.87-.77-11.16,1.09-10,10.63a17.16,17.16,0,0,0,.88,3.68c1.36,3.84,3.47,4.75,6.59,2.28a72.49,72.49,0,0,0,9.59-9.11c2.66-3.08,1-6.75-3.05-7.43A19,19,0,0,0,945.09,445.58ZM-138.84,1117.71a55.21,55.21,0,0,0,24.82-1.63c-5.24-5.42-10-9-15.67-11.38a4.3,4.3,0,0,0-3.81,1.21C-136.13,1109.12-138.77,1112.47-138.84,1117.71ZM914,381.3a88.62,88.62,0,0,0,2.53,9.17c.87,2.35,3.2,2.61,4.25.52,2.83-5.63,5.38-11.42,7.83-17.23,1.15-2.75-.79-3.89-3.13-4.24C920,368.7,914.12,373.9,914,381.3ZM504.8,1157c-4.86-4.19-6.18-4.87-9.8-2.07s-6.43,6.54-9.21,10.17c-.73,1-.48,3.34.24,4.49.48.75,2.8,1,4,.55C496.51,1167.71,502,1164.05,504.8,1157ZM814.17,651.38c-6.33,4-11.89,7.93-14.67,14.77,5.23,3.48,9.12,3.66,12.54.89C815.65,664.13,816.66,658.52,814.17,651.38Zm225.56,497c-1-2.46-1.12-3.88-1.88-4.45a69.85,69.85,0,0,0-21.75-11.26c-2.22-.66-4.35-.19-5,2.38-.61,2.27,1,3.49,2.79,4.38a17.23,17.23,0,0,0,2.41.72l15.4,5.38C1033.93,1146.34,1036.18,1147.15,1039.73,1148.4ZM628.26,1182c1-.64,3.81-1.47,4.9-3.31,1.56-2.63-1-4.57-3-6.14a15.62,15.62,0,0,0-2.64-1.7c-1.91-.93-4.19-2.09-5.78-.07a9.89,9.89,0,0,0-2,5.63C619.71,1179.83,622.8,1182,628.26,1182ZM687,620.49l-15.74-8.77-.87.85,12.29,18.66Zm-900.18,501.3c-3.59-4.93-8.34-6.32-13.41-6.7-1.11-.08-2.71,1.18-3.37,2.26-.4.66.24,2.46,1,3.21C-225.76,1123.86-218.41,1124.53-213.19,1121.79Zm1041.82,47.37a100.1,100.1,0,0,0-7.33-7.12,4.05,4.05,0,0,0-3.83-.22,4.87,4.87,0,0,0-1.42,3.77c.26,3.71,5.82,7.5,9.38,6.44C826.4,1171.74,827.1,1170.58,828.63,1169.16ZM951.49,514.34c.11-2.54-2.39-4.93-5.33-5.08-2.6-.13-4.45,1.75-4.69,4.79s1.73,6.14,3.89,6.41C947.78,520.77,951.36,517.19,951.49,514.34Zm9.69,649.51c.3-3-2.26-6.07-4.4-5.76-.88.12-2.27,1.41-2.27,2.18,0,2.39,1,4.63,3.69,4.94C959.25,1165.33,960.44,1164.21,961.18,1163.85Zm-1261.24-39.22c-2.49-1.57-4-2.91-5.71-3.4-.61-.18-2.38,1.56-2.61,2.64-.42,1.92,2,4.06,4.07,3.62C-303.13,1127.24-302.15,1126.09-300.06,1124.63Zm1054.83,43.25c-1.39-1.64-2-3.08-2.85-3.24-2.18-.41-3.57,1-3.68,3.12,0,.86,1.34,2.61,1.67,2.52A28,28,0,0,0,754.77,1167.88Zm-1154.22-38.7c-1.34-1.28-1.86-3.25-4-1.87a1.64,1.64,0,0,0-.46,1.54C-403.12,1130.73-401.84,1131.21-399.45,1129.18Zm1280.56,9.3c1-1.07,1.95-1.8,1.84-2.06a9.14,9.14,0,0,0-1.71-2.06c-.42.37-1.21.78-1.18,1.12A13.91,13.91,0,0,0,881.11,1138.48Z" transform="translate(435.29 -118.03)"/><path d="M727.23,681.37a37.67,37.67,0,0,1-2.18,6c-2.37,4.25-5,8.34-7.58,12.49a9.52,9.52,0,0,0-1.58,2.73c-.25,1.34-.5,3.22.21,4s2.76.73,3.89.26c3.51-1.47,6.8-3.48,10.3-5a27.82,27.82,0,0,1,7.82-2.34c4.94-.51,8.13,2.47,8,7.5-.17,8.95-4.23,16.26-10.51,22.36-1,1-2.86,1.08-5.39,2,2.85-7.82,8.25-13.72,6.27-22.43a55.15,55.15,0,0,0-6.28,1.7,28.79,28.79,0,0,0-5.59,3c-8.82,6-11.73,8.57-2.41,15.83.57.44.78,1.34,1.43,2.52-3.26-.26-5.94-.56-8.62-.69-6.7-.32-9.3,1.44-10.84,8s-2.69,13.26-4,19.91c-1.45,7.7-2.81,15.4-4.25,23.1a21.43,21.43,0,0,1-1.14,4.28c-.27.64-1.24,1.49-1.78,1.42-.9-.13-2.25-.75-2.46-1.45a18.57,18.57,0,0,1-.47-5c-.21-20.45,3.26-40.4,7.77-60.26a73.78,73.78,0,0,1,18.14-34.42c2.71-2.93,5.53-5.73,9.54-6.62Z" transform="translate(435.29 -118.03)"/><path d="M707.51,827.17c.16,5.54-4.26,11.85-8.43,12-4.58.22-10.19-6-10.17-11.32,0-5.06,5.19-10.22,10.29-10.27C703.55,817.58,707.35,822,707.51,827.17Z" transform="translate(435.29 -118.03)"/><path d="M666.86,840.51c-4.54-.06-7.36-3-7.29-7.67.08-5.69,3.93-10.34,8.31-10.07,3.88.25,7.64,4.57,7.64,8.77A8.68,8.68,0,0,1,666.86,840.51Z" transform="translate(435.29 -118.03)"/></svg>