<svg id="Layer_1" data-name="Layer 1" xmlns="http://www.w3.org/2000/svg" viewBox="0 0 1070.98 1342.73"><defs><style>.cls-1{fill:#b02b5e;}.cls-2{fill:#c6b9bb;}.cls-3{fill:#a29898;}.cls-4{fill:#e5dcd0;}.cls-5{fill:#7ec05b;}.cls-6{fill:#7e1e45;}.cls-7{fill:#701749;}.cls-8{fill:#506847;}.cls-9{fill:#519a2a;}.cls-10{fill:#b6c353;}.cls-11{fill:#746941;}.cls-12{fill:#335321;}.cls-13{fill:#48484b;}.cls-14{fill:#3b3b3d;}.cls-15{fill:#535553;}.cls-16{fill:#1f231f;}</style></defs><title>curled</title><path d="M1207.48,459.37c-2.25-9.38-3.46-19.07-6.43-28.2q-10.41-32-22.17-63.63c-5.29-14.25-11.16-28.32-17.48-42.14-4.6-10-10.45-19.52-15.58-29.33-4-7.72-7.48-15.74-11.74-23.31-4.92-8.75-10.56-17.09-15.67-25.74-3.85-6.52-6.74-13.7-11.15-19.79-12.17-16.82-24.84-33.28-37.47-49.76A163.91,163.91,0,0,0,1038.54,147a342.65,342.65,0,0,0-52.46-32.68c-18.7-9.48-37.53-18.84-56.87-26.89-17.68-7.36-36-13.38-54.3-19-8.79-2.71-18.22-3.47-27.43-4.56-3.51-.41-7.22.62-10.81,1.16-5.2.79-10.39,1.61-15.53,2.69-1.12.23-2,1.59-3,2.44a23.89,23.89,0,0,0,2.29,2.61c3.73,3.15,7.57,6.18,11.28,9.36,7.78,6.64,15.36,13.52,23.28,20a157.31,157.31,0,0,1,30.92,33.47c8.11,11.93,14.23,24.88,20,38a66.71,66.71,0,0,1,5.91,31.77c-.62,9.12-.9,18.27-1.31,27.4-.44,9.56-.82,19.13-1.29,28.68q-.9,18.26-1.92,36.5c-.31,5.21-.72,10.42-1.31,15.61-.94,8.24-2.06,16.46-3.14,24.69-.7,5.34-1.17,10.73-2.26,16-2.24,10.74-5.15,21.35-7.21,32.12-3.6,18.75-7.79,37.33-14.48,55.24-6.22,16.63-12.53,33.24-19.18,49.7a288.91,288.91,0,0,1-13.08,28.64c-4.75,8.84-12.48,14.85-21.88,18.65-2.44,1-3.09-.3-3.4-2.07a10,10,0,0,1,.2-3.76c2.25-10.7,10-17.38,17.55-24.32,3.56-3.29,10-4.51,7.78-12-2.26-7.74-3.67-15.69-10.59-21.09-5-3.9-9.78-8.07-14.65-12.13-2.63-2.19-2.1-4.6-.21-6.82,3.39-4,6.85-7.92,10.45-11.72,5.21-5.47,3.45-16.91-3.29-20.27-4-2-8.31-3.51-12.08-5.88-8.34-5.26-10.52-12.53-3.13-20.38,1.83-1.95,3.71-3.87,5.68-5.68,6.81-6.24,13.66-12.42,20.51-18.61,3.4-3.08,3.23-5.31.42-7.66-1.3-1.09-2.41-2.39-3.62-3.58-3.47-3.38-7.43-5.82-12.46-5.17a59.48,59.48,0,0,1-22.59-1.29c-6.67-1.69-9.93-7.05-8.27-13.59,2.08-8.24,4.73-16.44,5.73-24.82,1.13-9.42,4.43-16.79,12.87-21.56,1.12-.64,2.42-2.05,2.51-3.19.33-4-3.34-9.14-7.33-10.08-7.59-1.81-15.23-.72-22.6,1.09-8.67,2.13-16.7,2.3-24-3.67q-4.92-4-10.08-7.75c-5.38-3.89-5.72-9-4.83-15.11,1.14-7.75,5.06-13.94,9-20.29,1-1.59,1.85-4.33,1.16-5.73a10.3,10.3,0,0,0-9.47-6c-5.69-.13-10,3-14.29,5.9-16.88,11.34-34.23,22.06-49.12,36.14-3.32,3.13-7.59,5.45-12.4,4.7-7.78-1.22-11-4.8-12.76-12.87-.3-1.37-1-3.29-2-3.77-7.67-3.57-20-3.55-25.34,6-6.07,10.91-12.2,21.83-17.48,33.12-2.1,4.5-2.58,10-2.74,15.09-.15,4.69,1.14,9.42,1.72,14.14.35,2.79-1.68,4.15-4.29,3-6.1-2.77-10-8.11-14.82-12.43a19.5,19.5,0,0,0-8.17-4.65c-7.57-1.69-15.39,7.61-16.6,15.05a131.77,131.77,0,0,0-1.45,34.08c1.08,11,3.4,21.49,8,31.51,2.09,4.59,3.29,8.89.65,14.1-2.26,4.46-2.77,9.79-4.07,14.72-.85,3.25-1.5,6.58-2.65,9.72-.79,2.18-2.36,2.14-3.61.12-1.14-1.82-2.18-3.69-3.29-5.53-1.62-2.65-4.25-3.86-7-2.89A8.33,8.33,0,0,0,550,425c-5.45,14.16-7.65,28.92-7.79,44.06-.09,10.59.64,21.1,4.65,30.91,3.39,8.27,7.9,16.07,12,24,1.27,2.49.73,7.91-1.73,9.72-.71.52-3.21-.81-4.51-1.79-5.48-4.07-10.88-8.25-16.15-12.59a6.34,6.34,0,0,1-2.33-4.12c0-4.27.74-8.52.93-12.79.17-4.11.51-8.3-.1-12.33a122,122,0,0,0-4.29-19.81,140.56,140.56,0,0,0-8.35-19c-1.73-3.46-4.38-6.44-6.42-9.76-5.33-8.66-13.8-13.72-22-19-2.56-1.67-5-2.78-5.79-6.16-3.06-12.53-6.8-24.91-9.45-37.52-2.51-11.91-4.13-24-5.85-36.08-2.28-15.9-4.5-31.81-6.3-47.77-.95-8.44-1.06-17-1.34-25.49-.34-10.56-.64-21.13-.62-31.7,0-14.6.43-29.21.58-43.81.09-8.81-.06-17.63.06-26.44a18.77,18.77,0,0,1,1-7c4.58-10.68,9-21.46,14.31-31.8,9-17.63,21.07-33,36.69-45.35,10.55-8.32,21.39-16.26,32-24.47,4.84-3.75,9.54-7.69,14.2-11.67,2-1.69,1.5-3.45-1-3.87-8.67-1.48-17.36-2.83-26-4.23-10.4,1.43-20.71,1.93-30.52,4.4-16.93,4.28-33.82,9.05-50.24,15-17.75,6.38-35,14.08-52.37,21.59a326.46,326.46,0,0,0-50.85,27.33,224,224,0,0,0-22.57,16.85A271.1,271.1,0,0,0,308,145.56c-6.42,6.93-12.19,14.46-18.16,21.8-5.56,6.83-11.33,13.53-16.4,20.72-5.85,8.29-11,17.08-16.53,25.6-5.71,8.77-11.73,17.35-17.25,26.24-4.37,7.05-8.12,14.47-12.23,21.67-5.69,10-11.95,19.63-17,29.88-6.63,13.35-12.64,27-18.4,40.79-6.85,16.38-13.49,32.87-19.59,49.54-5.76,15.74-9.76,32-9.9,48.89,0,6.27,1.45,5.64,6.59,4.58,5.51-1.15,8.73-5.27,12-9.39,6.66-8.45,13.42-16.83,20.1-25.27,6.19-7.83,12.82-15.17,21.29-20.63,4.79-3.09,10.21-3.15,14.26.51,4.59,4.14,8.89,8.6,13.14,13.09,5.87,6.2,7.36,13.9,6.15,22-1.26,8.43-3.13,16.78-5,25.11-3.42,15.43-6.84,30.85-10.58,46.2-5.66,23.19-11.58,46.31-17.44,69.45-4.48,17.72-9.33,35.3-16.18,52.31-2.26,5.62-4,11.76-2.3,18.1.11.4.15.81.22,1.22a4.24,4.24,0,0,1,.46-.1c6.79-.58,13.68-1.73,18.29-7,4.84-5.56,8.67-12,12.89-18.08,5.68-8.19,11.4-16.3,21.4-19.84,6.35-2.25,12.6-4.78,19-6.85,3.77-1.22,7.87-2.82,11.62-2.4a116.09,116.09,0,0,1,23.14,4.82c4.24,1.39,8.25,4.63,11.41,8,7.48,7.84,8.8,18.23,9.51,28.39a267,267,0,0,1,0,28,7.82,7.82,0,0,1-3.12,5.57c-1.74,1.09-4.43.71-6.72.85-7.12.46-14.26.65-21.34,1.39-3.17.33-6.78,1-9.22,2.81a54.81,54.81,0,0,0-10.8,10.82c-2.69,3.54-4,8-2.17,12.56,2.42,6,4.91,11.88,7.41,17.79s5.36,11.66,2.07,18a77.07,77.07,0,0,1-7,10.79c-.57.76-2.72,1-3.84.56-5.76-2-11.63-3.35-17.71-2.63a121.88,121.88,0,0,0-13.34,2.51q-15.71,3.67-31.33,7.69c-1.08.28-2.62,1.57-2.71,2.51-.43,4.59-1.6,9.31,1.42,13.62,3.25,4.63,6.72,9.15,9.43,14.09,4.71,8.58,7.45,17.86,9.25,27.52,1.23,6.63-.45,12.07-5.46,15.74-6.18,4.51-13.06,8.07-19.76,11.82-9,5-18.07,9.69-27,14.75-1.26.71-2.71,2.89-2.49,4.11.86,4.69,1.66,9.63,3.79,13.82a193.94,193.94,0,0,0,12.78,21.3c5.54,8.13,9.15,16.21,4.93,26.19-2.06,4.87-3,10.19-4.79,15.19-1.14,3.17-2.12,7.13-4.52,9A134.3,134.3,0,0,1,170,934c-8.44,4.3-17.43,7.51-26.07,11.42-5.55,2.51-7.8,10.42-4.46,15.55a84,84,0,0,0,7.07,9c6.37,7.36,13.09,14.42,19.23,22,5,6.14,9.28,13.06,10,21.1,1.13,12.54,1.37,25.16,2.06,37.74.17,3.09-.41,5.41-3.74,6.61a9.91,9.91,0,0,0-3.82,3.14c-4.35,5.28-8.56,10.68-12.82,16-3.23,4-6.87,7.84-9.57,12.22-2.36,3.82-6.05,7.61-5,12.58.76,3.49,2.63,6.81,4.38,10,2.94,5.38,6.25,10.55,12,13.49,4.9,2.5,9.88,4.85,14.76,7.4,5.64,3,11,6.32,13.52,12.61,2.26,5.68,4.52,11.39,6.32,17.23a15.66,15.66,0,0,1,.42,8.08,124.41,124.41,0,0,1-5.77,17.73c-4.24,10-5.49,20.11-1.78,30.51,1.47,4.12,3.13,8.32,7.66,10,9.79,3.58,19.8,5.91,30.4,5.22,5.87-.39,10.57,2.6,14.35,6.84q11.05,12.4,21.85,25c1.17,1.37,2.49,3,2.73,4.72,1.27,9,2.33,18.11,3.25,27.19.79,7.78,1.23,15.6,2,23.37.14,1.29,1.1,3.33,2,3.55,4.85,1.19,10.18,3.46,14.68,2.43,8.78-2,17.06-6.1,25.67-9,3.78-1.25,8.21-2.89,11.76-2,8.38,2.06,16.37,5.66,24.6,8.37a16.19,16.19,0,0,1,10.32,9.7,31.73,31.73,0,0,0,3.35,5.85q11.63,16.2,23.38,32.31c2,2.75,3.7,6,6.37,7.88a11.33,11.33,0,0,0,14.16-1.15c6.85-6.19,12.87-13.33,19-20.27,3.7-4.17,7.25-8.72,13.24-8.85a234.61,234.61,0,0,1,26.26.72,17.57,17.57,0,0,1,9.81,4.42c8.43,7.94,17.23,15.35,27.26,21.14,3.93,2.26,8.36,5.22,12.53,5.17,10.86-.15,20-4.17,25.38-14.85a31.62,31.62,0,0,1,15.75-15.38c4.29-1.84,8.89-2.93,13.29-4.53a30.46,30.46,0,0,1,15.53-1.18c11.59,1.91,23.15,4,34.64,6.37,9.43,1.94,18.74,4.46,28.13,6.61,2.82.65,6.15,2.2,8.31-.81,4.76-6.62,10.28-12.94,11.39-21.49.53-4.11,2.9-6.26,6.69-7.33,14.16-4,28.29-8.16,42.49-12,4-1.08,8.2-2.2,12.16-1.79,6.39.65,12.65,2.56,19,3.94,7.43,1.63,14.71,3.56,22.27-.23,6.4-3.2,12.64-6,16.78-12.46s8.8-13.16,14.27-18.7c7.32-7.4,15.7-13.74,23.53-20.65,5.35-4.73,10.19-10.12,15.94-14.29,3-2.17,7.39-2.77,11.26-3.3,4.57-.61,9.37.22,13.86-.65,7-1.35,10.88-6.91,13.86-12.8,1.63-3.2,3.75-7.34,3-10.34-1.71-6.39-.65-11.44,3.16-16.51,2.68-3.57,2.34-5.41-1.19-8.15-1.75-1.36-3.84-3-5.85-3.16-9.91-.56-19.71-2.88-29.35,3.37-10.65,6.9-21.39,13.43-30.13,22.82a43.33,43.33,0,0,1-8.09,6.23c-8,5.26-15.64,10.93-21.79,18.48a22,22,0,0,1-8.28,6.39,237.39,237.39,0,0,1-63.21,16.48c-11.26,1.26-22.5,2.62-33.77,3.8-11,1.16-22,2.15-33,3.21-6.74.65-13.51,1.08-20.22,2-9.85,1.3-19.64,3-29.46,4.38-9.54,1.36-19.15,2.3-28.64,3.93a170.56,170.56,0,0,1-36.81,1.86c-12.74-.58-25.49-.82-38.24-1.33-7.12-.29-14.28-.43-21.34-1.35-10.53-1.37-21.17-2.62-31.42-5.26a251.24,251.24,0,0,1-59-23.89c-19-10.48-35.59-23.62-49.2-40.56A164.72,164.72,0,0,1,308.4,1170c-4.32-12-7.57-24.5-13-35.94-6-12.67-7.95-25.87-9.3-39.42-.52-5.27-1.32-10.51-1.8-15.79a79.49,79.49,0,0,1-.6-12.88c.32-4.38,1.5-8.72,2.43-13,2.07-9.52,3.76-19.16,6.48-28.5,2.9-9.94,10.49-15.33,20.06-15.64,8-.26,14.33,4.23,19.27,10.4,7.12,8.89,14.12,17.88,21.21,26.79,5.27,6.64,7,15.2,1.66,22.71-1.67,2.33-4.28,4-6.22,6.12-5.3,5.92-6.93,13.58-9.41,20.8-1.39,4,1.51,8.85,5.7,9.1,9.21.54,18.5-.17,26.19-5.76,5.74-4.18,10.7-9.45,15.85-14.39a21.66,21.66,0,0,1,15.91-6.28c8.59.31,16.46,3.72,23.9,8.1,6.78,4,13.66,7.8,21.7,8.92,10,1.39,18.41,5.85,25.76,12.93,5.33,5.13,11.94,8.84,19.76,7.94,5.79-.66,11.48-2.25,17.19-3.51.63-.14,1.57-.73,1.64-1.22.84-5.62,2.43-11.49-1.29-16.58-4.15-5.7-8.79-11-13.21-16.53a9.55,9.55,0,0,1-1.6-2.25c-.86-2.16.08-3.56,2.29-3.71a9.85,9.85,0,0,1,4.86.62c6.45,3.29,12.8,6.77,19.11,10.31,3.66,2,7.4,4.13,11.57,2.28,2.48-1.1,4.4-3.39,6.76-4.84,1.18-.72,3-1.36,4.11-.91s1.8,2.33,1.82,3.59a10,10,0,0,1-1.53,4.26c-1.51,2.91-3.3,5.67-4.73,8.61-1.1,2.28-1.6,5,1.68,5.79,8.29,2.06,16.29,2.79,23.88-3.09a44.25,44.25,0,0,1,14.45-7.29c6.62-1.91,12.3.35,17.26,8,3.53,5.47,6.05,11.59,8.92,17.48,1.44,3,3.43,3.75,6.28,2.09,6.92-4,13.43-8.56,18.39-15.06a23.57,23.57,0,0,1,4.84-4.5c9-6.64,18.49-5.15,27.79-1,12.14,5.4,23.37,12.79,36.3,16.49,5.3,1.51,8.49-.11,10.06-5.25,2.76-9,3.24-17.76-2.2-26.09-2.46-3.77-4.63-7.73-7-11.54-8.45-13.32-17.67-25.86-31.69-34.14a32.78,32.78,0,0,1-10.69-9.63c-4.47-6.82-3.48-14.83-1.89-22.4,1.91-9,5.63-17.43,10.08-25.56,5.31-9.7,10.18-19.6,12-30.74.8-4.83,3.38-5.5,7.64-2.66,2,1.37,4,3.06,6.21,4,12,5,24.53,5,37,2.21,5.63-1.27,11-3.72,16.49-5.56,3.72-1.24,7.25.06,9.46,3.59,1.83,2.93.71,5.65-1.29,7.95-4,4.59-8.14,9-12.22,13.54-4.7,5.18-9.5,10.31-7.33,18.25,1.17,4.3,2.77,8.22,6.52,11.13,7.14,5.53,14.14,11.26,21.06,17.07,2.62,2.2,2.39,4-.5,5.66a68.74,68.74,0,0,1-8.32,3.94,33.76,33.76,0,0,0-18.17,16c-5.87,11.09-6.87,23.08-6.89,35.27a8.49,8.49,0,0,0,1.62,4.8c2.23,3,8,2.74,11.54-.15,4.67-3.8,9.07-8,14.07-11.3,3.7-2.44,8.13-4.07,12.83-2.55,5.72,1.84,11.43,3.71,17.07,5.74a53.94,53.94,0,0,1,27,20.64,83.09,83.09,0,0,0,7.53,9.5c3.07,3.32,6.87,3.41,11,1.76,5.19-2.1,7.94-3.67,8.42-10a12.68,12.68,0,0,1,4.93-8.36c8.84-6.07,19-9.46,29.31-12.16a41.73,41.73,0,0,1,28.73,2.67c5.61,2.56,11.84,3.83,17.86,5.43,3.38.89,5-.38,4.23-3.28-1.35-5.12-2.54-10.43-4.87-15.13-4.9-9.88-13.3-16.63-22.37-22.55-9.43-6.17-19.66-8.54-30.78-6.1-4.18.93-8.32,2.13-12.43,3.36-5.14,1.54-10.54.31-12.81-3.79-3.1-5.59-6.47-11.24-8.28-17.3-5.93-19.89-10.46-40.12-11.57-60.93-.67-12.74-1.25-25.5-1.19-38.24,0-8.09,3.73-15.3,8.34-21.81a63.44,63.44,0,0,0,10.54-22.36c1.77-7.62,2.76-15.43,3.9-23.18,1.39-9.44,2.46-18.92,3.88-28.34,1.33-8.77,2.87-17.5,4.45-26.22q2.08-11.54,4.49-23a50.71,50.71,0,0,1,2.73-10c5.33-12.17,11.28-24.09,16.34-36.36A58.18,58.18,0,0,0,878.7,696c-1.57-7.23-3-14.5-4.52-21.73-2.54-11.71-5-23.49-10.76-34.14-3.36-6.21-7.37-12.07-11-18.12a3,3,0,0,1-.46-2.35,2.77,2.77,0,0,1,2.17-.92,37.65,37.65,0,0,1,5.62.4c5.83.87,11.61,2,17.46,2.69a71.92,71.92,0,0,1,31,10.93c7,4.52,13.72,9.52,20.28,14.67,8.83,6.93,17.56,14,26,21.41a173.31,173.31,0,0,1,16.44,16.53,33.69,33.69,0,0,1,6.36,11.36c2.54,7.88,4.45,16,6.23,24.08a93.6,93.6,0,0,1,2.08,15.36c.18,3.58-1.14,7.22-1.07,10.83.18,9.14.8,18.27,1.18,27.4.46,11.26.92,22.52,1.26,33.78.15,5.2-.07,10.41.08,15.61.05,1.51.81,3,1.24,4.51l3.45-2.5a8.62,8.62,0,0,0,1.7-1.33c2.56-3.19,6-6.06,7.43-9.71,5.36-13.31,6.32-27.63,8.37-41.66,1.17-8,1.79-16.13,2.61-24.2.88-8.71,1.8-17.42,2.51-26.14.58-7.11.84-14.24,1.32-21.35.59-8.77,1.19-17.54,1.91-26.29a108.61,108.61,0,0,1,6.28-28.21c3.31-9.17,9-16.22,18.1-19.56,6-2.2,12.58-2.87,18.91-4.2a29.27,29.27,0,0,1,20.45,2.79,94.79,94.79,0,0,0,13.3,5.47c10.35,3.65,18.62,9.75,24.31,19.3,3.2,5.37,6.93,10.43,10.1,15.83,4.72,8,11.39,13.86,19.43,18.29,1.82,1,4,.8,4-1.3.26-5.9.63-12-.39-17.72-1.22-6.89-4.08-13.47-5.77-20.3q-4.15-16.87-7.68-33.92c-2.23-10.79-4.08-21.65-6.14-32.47-1.76-9.31-3.71-18.58-5.33-27.9-1.87-10.68-3.49-21.4-5.19-32.11s-3.38-21.43-5-32.15c-1.09-7-2.59-14.09-3-21.18-.35-5.62-1.18-11.42,1.66-16.95,4.89-9.52,12.32-16.57,21-22.49q5.14-3.54,11-.45c7.43,3.9,13,9.89,17.94,16.3,9.16,11.92,17.67,24.35,26.49,36.53a75.87,75.87,0,0,0,6.34,8c.7.72,3.41.88,3.77.34a51.66,51.66,0,0,0,5.25-9.66C1209.65,471.5,1208.94,465.45,1207.48,459.37Zm-792.94,555a45.34,45.34,0,0,1-10.21-5.22c-3.43-2.37-2.31-5.66-.19-7.91,2.55-2.71,5.74-4.8,8.43-7.4,2.53-2.44,4.39-.88,5.22,1.15,1.84,4.5,3.09,9.25,4,12.22C421.74,1013.84,419.06,1016,414.54,1014.4Zm150.57,48.17c-3,2.65-5.82,5.55-8.88,8.14-1.37,1.15-2.47,1.73-3.33-1.17-1.46-5-3.9-9.61-5.91-14.4-.43-1-.79-2.08-1.53-4,1.35-1.4,2.59-3.4,4.38-4.27,1-.47,3.16.63,4.35,1.58,3.66,2.94,7.09,6.17,10.64,9.24C566.66,1059.24,567.23,1060.71,565.11,1062.57ZM596.37,1006c-.24,1.48-.6,2.94-.91,4.41-1.66-.39-3.72-.3-4.91-1.27-5.47-4.43-11.72-5.28-18.43-5-8.43.33-16.91,1-25.31.52-11.07-.67-22.1-2.2-33.11-3.68-10.06-1.36-19.52-.3-28.42,4.92a34.47,34.47,0,0,1-8.19,3.28c-2.44.68-4.53-2.39-5-5.81-1.41-10.14,1.85-19.56,4.2-29.12,1.46-6,3.24-11.82,4.78-17.76,1.41-5.49,3.55-6.42,9.45-5.94,8.2.66,16.46.63,24.69.7,4,0,8-.47,11.94-.59,15.39-.46,30.79-.91,46.18-1.26,4-.09,6.37,1.64,6.4,5.31.08,9.95,4.06,18.27,9.66,26.13a37.83,37.83,0,0,1,7,22.95A13.69,13.69,0,0,1,596.37,1006Zm93-503.72c-.21,8.27-.74,16.53-1.23,24.79a5.89,5.89,0,0,1-4.24,5.76c-8,2.64-13.16,8.76-18,15.17-.06.08,0,.24-.1.28-1.32.93-2.66,1.85-4,2.77a28.21,28.21,0,0,1-.69-5c.24-7.44.55-14.89,1-22.32.2-3.29,1.13-6.54,1.22-9.83.2-7.84.07-15.69.16-23.54a6.77,6.77,0,0,1,.74-3.52c4.7-7.15,10-13.76,17.2-18.61,2.84-1.92,4.87-1.19,5.41,2.22l1.92,18.25C689,493.28,689.47,497.8,689.35,502.3Z" transform="translate(-137.86 -39.14)"/><path class="cls-1" d="M644.46,442.59c-1.51-18.53-1.73-36.63,8.76-53l-.8-.77c-3.8,2.06-8,3.63-11.33,6.26-11.54,9.06-20.72,20.34-28.52,32.67-2.46,3.89-3.82,8.54-5.31,13-1.34,4-3,8.16-3,12.27-.11,6.66,1.4,13.18,3.48,19.63,2.93,9.05,8.08,16.57,13.9,23.89,3.15,3.95,3.49,9,2.07,13.74a115.22,115.22,0,0,1-5.47,14.88c-3.79,8.36-7.93,16.57-12.05,24.79-.72,1.42-2.17,2.45-3.08,3.8-2.31,3.4-4.46,6.9-6.8,10.28a4.85,4.85,0,0,1-2.41,1.73q-11.45,3.42-23,6.62a2.52,2.52,0,0,1-2-.71c-2.47-2.54-4.89-5.13-7.18-7.83a3.86,3.86,0,0,1-.91-2.82c1-4.84.34-9.86,3.27-14.51,2.26-3.57,2.48-8.35,4.28-12.28,3.14-6.83,6.27-13.76,10.38-20a43.8,43.8,0,0,0,7.4-22,160.55,160.55,0,0,0-.06-20.46,21.08,21.08,0,0,0-3.15-9.71c-4.74-7.25-5.56-14.75-3.08-22.83,2.93-9.55,5.54-19.23,9.07-28.57,1.12-3,4.34-5.75,7.28-7.35,10.79-5.85,20.23-13.24,25.74-24.23,2.87-5.72,4.15-12.51,4.9-19,1.2-10.35,5-19,12.48-26.29,7.92-7.77,15.46-15.94,22.91-24.16a23.52,23.52,0,0,0,6.28-15,29.25,29.25,0,0,1,2-8.8c1.26-3.33,5.71-4.34,10.09-2.56a59.49,59.49,0,0,1,6.16,3c8.65,4.73,17.8,5.3,27.35,3.72,6-1,12.08-1.31,18.1-2.11,3.3-.43,6.53-1.38,9.83-1.84a8.65,8.65,0,0,1,4.73.4c5.53,2.73,11.3,5.23,16.26,8.82,5.76,4.17,8.84,10.68,10.41,17.48,2.48,10.76,4,21.75,6.59,32.47,1.78,7.36,5.19,14.33,7.06,21.68,3.06,12,6,24.09,7.95,36.3,1.64,10.13,2.06,20.47,2.65,30.73.66,11.28.83,22.58,1.35,33.86.55,12.2,1.05,24.42,2,36.61,1,12.92,2.27,25.78,6,38.32,1.27,4.22.33,9.05,1,13.52,1.11,7.83,3.18,15.56,3.88,23.42a172.65,172.65,0,0,1,.17,23.53c-.27,5.93-1.56,11.81-2.17,17.74-1,9.28-2.33,18.59-2.38,27.89-.06,11.7-2.25,23.7,3,35,4.28,9.26,10.95,16.23,20.33,20.32a11,11,0,0,0,6.19.25c2.8-.56,4-4.34,2.19-6.92A46.78,46.78,0,0,0,833,690c-9-8.43-13.23-18.88-13.58-31.07-.17-5.8-.75-11.62-.52-17.4a58.46,58.46,0,0,1,2.19-12.61c1-3.75,3.34-4.76,7.05-3.65a27.09,27.09,0,0,1,16.75,13.83,196.62,196.62,0,0,1,18.94,53.23c3.06,15.42-.35,29.61-7.92,43.39-5.44,9.91-9.57,20.61-13.53,31.24-1.52,4.07-.82,8.93-1.31,13.42-.82,7.38-1.76,14.75-2.7,22.12-1,7.67-2,15.34-3,23s-2,15.34-3.09,23c-1,7.35-2,14.71-3.33,22-1.65,8.81-5.85,16.47-11.61,23.31-11.34,13.47-26.37,21.36-42.23,28a10.42,10.42,0,0,1-3.34.77c-2.54.15-3.64-1.19-2.53-3.48,2.29-4.68,4.92-9.2,7.28-13.86a123.35,123.35,0,0,0,12.36-41.16c1.41-11.63,3-23.24,4.38-34.87.4-3.34.51-6.71.68-10.07.25-4.85.73-9.71.59-14.54A89,89,0,0,0,782.15,762a96,96,0,0,1-10.49-27.74c-2.38-10.89-5.54-21.61-7.79-32.52-1.53-7.46-2.25-15.09-3-22.68-1-9.59-2-19.2-2.47-28.83-.43-9.14-.06-18.32-.16-27.48q-.2-17.5-.59-35c-.1-4.53-.42-9.05-.64-13.58-.43-8.74-.89-17.47-1.27-26.21-1.18-27.18-6.14-53.7-12.77-80.05-4.44-17.66-12.21-33.48-22.46-48.23a18.62,18.62,0,0,0-15.33-8.05A75.89,75.89,0,0,0,669.78,419a57,57,0,0,0-23.63,21.08C645.6,440.9,645,441.74,644.46,442.59Z" transform="translate(-137.86 -39.14)"/><path class="cls-2" d="M955.77,224.31c-3.17-8.2-6.17-16.47-9.53-24.6-4.18-10.08-8.49-20.11-13-30-3.27-7.13-7-14-10.53-21.05a7.11,7.11,0,0,1-.38-1.93c.65.18,1.5.15,1.92.56,3.24,3.11,6.51,6.21,9.54,9.52,4.59,5,9,10.17,13.46,15.34,8.28,9.69,16.66,19.29,24.68,29.19,9.42,11.62,18.91,23.22,27.63,35.36,11.75,16.36,23.34,32.87,34,50,11.24,18,21.76,36.53,31.75,55.28a294.5,294.5,0,0,1,22,53.68c3.89,12.88,7,25.91,8.2,39.4.53,6,2.73,11.84,3.81,17.82,1.23,6.84,2.08,13.75,3,20.63,1.12,7.92,2,15.88,3.32,23.77,1.7,10.19,3.71,20.34,5.61,30.5q3.18,16.92,6.42,33.82c1.9,10.06,3.83,20.11,5.68,30.17,2,10.69,3.89,21.38,5.65,32.1a33,33,0,0,1,0,7.63c-.18,2.4-4.64,4.38-6.64,3.12-6.72-4.24-13.25-8.84-20.24-12.59a94.9,94.9,0,0,0-37.47-11c-11.58-1-22.52.44-33.08,5.22-8.33,3.78-13.38,10.3-16.66,18.72-2.95,7.57-6.57,14.89-10,22.27-.34.73-1.45,1.11-2.21,1.66-.34-.94-1.07-1.92-1-2.8,1.38-11.13,3.08-22.22,4.29-33.36,1-8.74,1.6-17.54,1.91-26.33q.93-26.13,1.28-52.27c.11-7.49-.3-15-.6-22.47-.34-8.19-.73-16.39-1.28-24.57-.75-11.07-1.56-22.14-2.56-33.19-.9-10-1.89-19.94-3.2-29.86-1.93-14.5-4.08-29-6.33-43.44-2.21-14.22-4.4-28.46-7.08-42.6-2.38-12.56-5.17-25.06-8.23-37.48-4.45-18-9.09-35.93-14.06-53.78-2.87-10.3-6.56-20.36-9.86-30.54a12.26,12.26,0,0,1-.3-1.83c1.78-.21,1.95,1.27,2.4,2.36.66,1.56,1,3.23,1.71,4.77a2.07,2.07,0,0,0,2.54,1.37c1.34-.32,1.43-1.41,1.39-2.51C963.61,226.85,958.86,223.33,955.77,224.31Z" transform="translate(-137.86 -39.14)"/><path class="cls-2" d="M229.72,580.65c1.57-8.37,2.66-16.18,4.54-23.8,5.65-22.9,11.69-45.7,17.41-68.59,5-19.89,9.74-39.84,14.52-59.78,2.88-12,5.54-24.1,8.45-36.12,3-12.31,5.43-24.81,9.4-36.8a271,271,0,0,1,25.62-55.19c9.35-15.46,18.68-30.95,28.78-45.9,9-13.3,18.81-26,28.62-38.75,8.85-11.45,18.05-22.64,27.36-33.72,5.94-7.07,12.21-13.88,18.6-20.56,13.53-14.14,27.22-28.13,40.85-42.17a8.93,8.93,0,0,1,1.61-1.53,5.16,5.16,0,0,1,1.7-.38c0,.59.24,1.29,0,1.74-1.62,3-3.46,5.86-5,8.88C445,142,437.36,155.9,430.85,170.27c-6.74,14.89-12.91,30.09-18.38,45.49C406,234,399.89,252.37,394.78,271c-6.67,24.33-12.42,48.93-18.15,73.51-3.4,14.58-6.17,29.32-8.89,44-1.82,9.89-3.08,19.89-4.55,29.85-1.72,11.6-3.51,23.19-5,34.82-1.07,8.06-1.74,16.17-2.62,24.26-1.25,11.5-2.64,23-3.76,34.51-.66,6.81-1.1,13.65-1.29,20.48-.53,18.91-1,37.83-1.26,56.74-.11,7.49.4,15,.55,22.48a14.43,14.43,0,0,1-.63,3.11c-.79-.92-1.95-1.72-2.31-2.79-1.89-5.55-3.52-11.19-5.34-16.77-1.56-4.78-2.69-9.81-5-14.21-4.45-8.48-12.29-13-21.14-15.83-9.86-3.14-19.93-3.13-30.12-2-16.08,1.78-30.43,8-44,16.47-1.75,1.09-3.39,2.38-5.23,3.29-1.32.66-3.13,1.49-4.25,1S230.26,581.61,229.72,580.65Z" transform="translate(-137.86 -39.14)"/><path class="cls-3" d="M931.58,193.06c3.12,7.52,6.63,14.9,9.27,22.58,5.64,16.33,11.37,32.66,16,49.27,5.69,20.21,10.53,40.67,15.37,61.11,3.1,13.11,5.75,26.33,8.2,39.57,2,11,3.56,22.18,5.22,33.28,1.75,11.74,3.5,23.47,5,35.24.88,6.73,1.31,13.53,2,20.29,1,10.51,2.13,21,3.16,31.52.3,3.13.5,6.28.64,9.42.26,5.8.52,11.59.64,17.39.46,21.57,1.16,43.14,1.18,64.71,0,11.87-1,23.75-1.87,35.6-.74,9.57-2,19.1-3.15,28.64-.37,3-1.18,5.93-1.74,8.9-1.33,7.07-2.59,14.15-4,21.2a24.79,24.79,0,0,1-1.65,4.19,21.42,21.42,0,0,1-4-2.16c-8.81-7.42-17.28-15.26-26.35-22.34-13-10.1-26.12-20-39.59-29.36a68.06,68.06,0,0,0-32.9-12.25c-9.43-.88-18.92-1.21-28.39-1.27-6.6-.05-13.2.84-19.81,1.13a22,22,0,0,1-6.52-.68c-3.09-.82-4.57-3.21-4.49-6.36.11-4.73.65-9.47.54-14.2-.13-6.06-.72-12.12-1.12-18.18a7.26,7.26,0,0,1,2.75-2.09,30.75,30.75,0,0,0,5-2.84c7.76-6.53,17-10.78,25.27-16.5a51.75,51.75,0,0,0,8-6.83A106.21,106.21,0,0,0,876,527.81c4.26-6.36,7-13.56,10-20.54a105.24,105.24,0,0,1,6.89-13.61c2.78-4.44,4.42-9.38,6.15-14.27,3.3-9.39,7-18.59,11.05-27.7A105.82,105.82,0,0,0,918,425.6c.94-5.87,2.29-11.65,3.6-17.44a65.06,65.06,0,0,0,1.13-6.89c1.42-12.33,3.85-24.5,5.63-36.76.93-6.36.88-12.89,1.63-19.32,1.71-14.67,1.65-29.41,2.17-44.14.26-7.25,1.33-14.56.93-21.83-.6-10.93-.52-21.84-.55-32.77,0-5.83.13-11.65.55-17.48.58-8.28-.82-16.5-1.52-24.74-.24-2.85-.27-5.72-.76-8.56A2.59,2.59,0,0,1,931.58,193.06Z" transform="translate(-137.86 -39.14)"/><path class="cls-3" d="M421.79,222.31c2.13-6,4.06-12.13,6.43-18.06,4.29-10.75,8.85-21.39,13.32-32.06a15.49,15.49,0,0,1,1.25-2.06,2.67,2.67,0,0,1,.73,2.92c-2,7-1.33,14.32-2.15,21.46-1,8.83-2.24,17.64-2.91,26.49-.7,9.4-2.46,18.68-2.49,28.18,0,5.57-.41,11.21-.86,16.81-.37,4.62.28,9.31.57,14,.77,12.26,2.14,24.47,2.48,36.77.19,7,1.84,13.87,2.64,20.82,1.14,9.79,3.18,19.43,4.58,29.17.82,5.73,1.54,11.59,2.59,17.22,2.23,11.85,2.54,24.12,6.65,35.59,4,11.08,6.87,22.49,10.47,33.69,3.92,12.22,10.24,23.25,16.56,34.3a119.81,119.81,0,0,0,8.66,13.71,8.76,8.76,0,0,1,1.49,3.45c-1,7-2.69,13.92-2.94,20.93-.39,10.56,3.71,20.25,8.16,29.58,2.82,5.9,6.57,11.36,9.88,17,.3.51.5,1.07.75,1.6a9.32,9.32,0,0,1-1.81.22c-10.9-.6-21.82-1.91-32.7-1.68-15.2.33-28.94,5.93-41.7,14C422.6,592,413.38,597.07,404.79,603c-12.3,8.54-24.16,17.69-36.25,26.51a27.09,27.09,0,0,1-4.18,2.07,25.65,25.65,0,0,1-1.77-4.79c-3.93-24.87-2.54-50-2.45-75,0-12,1.54-24.07,2.39-36.11.41-5.75.75-11.51,1.32-17.25.72-7.27,1.65-14.51,2.46-21.77.68-6.13,1.23-12.27,2-18.39.93-7.43,2-14.85,3.05-22.27,1.09-7.74,2.11-15.48,3.33-23.19,1.67-10.56,3.36-21.13,5.32-31.65,2.31-12.43,4.83-24.83,7.42-37.21,2-9.53,3.95-19.08,6.44-28.49,5.33-20.15,11-40.21,16.54-60.31.05-.15.29-.25.45-.38,3.6-9.09,6.25-18.53,9.92-27.6C421.41,225.68,421.21,223.91,421.79,222.31Z" transform="translate(-137.86 -39.14)"/><path class="cls-4" d="M1169.13,430.72c-7-4.13-13.74-8.71-21-12.25-4.6-2.24-9.89-3.36-15-4.19-5.35-.87-9.06,2.75-12.33,6.41-3.74,4.2-7.2,8.64-10.9,12.89a2.87,2.87,0,0,1-2.43.82c-.62-.2-1.14-1.36-1.29-2.18-1.55-8.21-2.57-16.54-4.6-24.63-2.62-10.42-5.23-21-9.27-30.88-6.91-17-14.27-33.89-22.66-50.21a509.36,509.36,0,0,0-27.27-46.88c-14.14-21.53-29.13-42.52-44.24-63.41-7.6-10.51-16.08-20.4-24.46-30.32-8.91-10.55-18.11-20.84-27.3-31.15q-7.86-8.84-16.09-17.35c-3.5-3.63-6.5-7.17-7.54-12.52-1.3-6.68-3.84-13.12-5.85-19.67,3.06,0,5.23,2.07,7.63,3.46,7.63,4.38,15,9.22,22.5,13.79,9.05,5.5,18.28,10.71,27.44,16,10.44,6.07,20.73,12.38,31.16,18.44,7.39,4.3,13.36,10.4,19.85,15.82,8.8,7.35,16.53,15.77,24.19,24.28s15.08,17.25,22,26.35c4.5,5.89,8.81,12,13.37,17.8,6.65,8.53,13.2,17.13,19.12,26.18,4.45,6.8,8.92,13.59,13.14,20.55,3,4.89,5.45,10,8.28,15,3,5.25,5.07,11.16,7.69,16.71,4.17,8.8,7.89,17.81,12,26.62a22.19,22.19,0,0,1,2.36,7.22c.29,2.95,2.15,5.27,2.91,8.05,2.76,10,6.77,19.62,9.57,29.6a222.3,222.3,0,0,1,5.9,24.73c.64,4,2.21,7.75,3.13,11.67C1169.47,428.57,1170.24,429.67,1169.13,430.72Z" transform="translate(-137.86 -39.14)"/><path class="cls-4" d="M463.76,77.76c-1.18,3.46-2.44,6.91-3.54,10.4s-1.5,7.38-3.21,10.55a44,44,0,0,1-7.53,9.57c-10.39,10.61-21.13,20.89-31.42,31.61-9.31,9.69-18.46,19.56-27.2,29.76C380,182.29,369.28,195,359.24,208.3c-13.7,18.11-27.12,36.46-39.86,55.26-8.63,12.73-16.07,26.29-23.67,39.7a272.78,272.78,0,0,0-23,52.64c-3,9.66-5.07,19.65-7.65,29.46a14.76,14.76,0,0,1-1.85,3.29,14.85,14.85,0,0,1-3.15-2.3c-3.5-4.36-6.75-8.91-10.28-13.24-4.38-5.4-10.14-5.86-16.56-4.59-10.38,2-18.8,8-27.67,13.11-3.55,2-7,4.2-10.55,6.31-1.24-2.46.3-4.61,1.13-6.59,3.39-8.14,5-16.88,8.25-25,3.73-9.2,7.09-18.63,12.66-27a73,73,0,0,0,5.53-10.73c4.77-10.57,10.09-20.79,16.92-30.2,3.76-5.17,6.14-11.14,9.34-16.65s7.56-10,10.35-15.63c4.67-9.38,11.43-17.35,17.25-26,3.56-5.27,6.64-10.86,10.28-16.08C291,207.92,296,202.24,300.17,196c7-10.4,16-19.25,23.69-29.08a230,230,0,0,1,20.76-22.76A99.25,99.25,0,0,1,360.45,132c5.61-3.57,10.68-8,16.25-11.69,5.12-3.39,9.8-7.4,15-10.76,3.06-2,6.61-2.8,9.85-4.39,8.26-4.07,16.41-8.36,24.75-12.27,7.29-3.42,14.64-6.69,22.14-9.59,4.14-1.61,7.91-4.11,12.3-5.12C461.71,78,462.65,77.28,463.76,77.76Z" transform="translate(-137.86 -39.14)"/><path class="cls-1" d="M537.14,554.25q13.23,13.43,26.48,26.83c3,3,10.34,3.75,11.33.94,1.38-3.95,4.63-3.56,7.28-3.92,3.06-.42,6.26.22,9.4.46a5.37,5.37,0,0,0,6-3.63c.2-.52.53-1.31.92-1.38,5.2-.95,7.3-5.3,10-9,.43-.58.6-1.45,1.15-1.82,6.77-4.52,9.13-11.88,12.22-18.77.73-1.62,1.36-3.27,2-4.91,1.16,0,1.13,1.06,1.48,1.78,1.23,2.56,3.11,3,5.25,1.28,4.47-3.63,8.94-2.39,10.68,3.2.75,2.4,3,2.05,4.39,3.1-2.21,5.83-4.35,11.68-6.65,17.46-1.14,2.87-2.66,5.59-3.84,8.45-2.14,5.18-2,6.49,2.54,9.44,3.1,2,3.91,4.56,3.94,7.94,0,3.58.74,7,5.06,8a4.8,4.8,0,0,1,.91,2.64c.43,5,2.1,9.39,6.11,12.65-5.32,6.36-10.38,12.89-12.18,21.23-.7,3.24-.9,6.6-1.33,9.9a5,5,0,0,1-1.67,2.64c-3.86,3.83-5.35,8.3-3.72,13.62a1.51,1.51,0,0,1-.23,1.49c-6.13,3.42-12.4,6.61-18.37,10.3-10.84,6.7-18,16.46-22.45,28.31-4.57,12.09-7.07,24.66-8.84,37.36-2.16,15.42-8,28.8-19.9,39.19-5.26,4.62-11.54,7.53-18.42,7.63-3.12.05-7-2-9.27-4.31a155,155,0,0,1-16.16-19.5c-4.41-6.45-1.23-13.1,1.93-19.25,1.47-2.86,3.3-5.54,5-8.3,1.37,3.42,1,7.15,2,10.65-.88,2.45-2.57,4.55-2.81,7.29-.38,4.15,1.06,6.91,4.31,7.73a7.11,7.11,0,0,0,8.88-4.56c.49-1.24.54-2.73,1.94-3.46,4.66,1.89,9.39,1.19,14.12.4,1.48.45,1.92,1.86,2.73,2.93,4,5.19,9.2,4.7,12.25-1,1.61-3,1.65-6.24,1.72-9.5,1.72-6.89,1.18-13.81.78-20.8-.44-7.62-3-13.72-9.49-18a7.33,7.33,0,0,1-2.25-2.22,4.44,4.44,0,0,1-.2-2.81c2.51-13.46,4.78-27,7.67-40.35a15.56,15.56,0,0,1,1.79-5.08,9.37,9.37,0,0,1,9.16-4.58c3.17.18,6.3.85,9.5.66,2.54,0,4.36-2.42,7-2.07,1.87,1.69,3.68.93,5.07-.51,5.61-5.82,9.38-12.62,9.77-20.85.21-4.56-2.59-7.08-7.15-7a16.69,16.69,0,0,0-7,1.88c-3.51,1.76-7,3.53-10.55,5.24-1.84.89-3.69,1.28-5.28-.37s-1.06-3.58-.13-5.32c2.67-5,5.78-9.65,8.75-14.42a17.29,17.29,0,0,0,1.72-3c.29-.8.57-1.69-.17-2.38a1.92,1.92,0,0,0-2.37,0,19.68,19.68,0,0,0-4.78,3.68c-8.64,9-15.25,19.19-18.47,31.48a315.32,315.32,0,0,0-8.71,51.39c-.28,3.06,0,6.15-.12,9.23,0,1,0,2.16-1,2.86-4.75-.56-9.5-1.21-14.22.28a1.56,1.56,0,0,1-1.42-.5c-2.15-14.76-4.11-29.55-6.55-44.27-1-6-4.75-10.74-8.33-15.58-4.73-6.41-8.39-15.43-3.11-22.63a69.38,69.38,0,0,1,7.83-9c5.62-5.39,6-12.24,5.29-19.13-.75-7.82-6.58-12.6-12-17.5-.62-.56-1.19-1.17-1.78-1.76.53-1,1.2-2,.78-3.28-.86-2.6,1.08-3.31,2.82-3.53,2.07-.26,4.14-.85,6.29-.57,1.63.21,2.56-.34,3.3-2.1,1-2.38,2.29-4.46.61-7A.94.94,0,0,1,537.14,554.25Z" transform="translate(-137.86 -39.14)"/><path class="cls-5" d="M433.28,1296.11c6.76,1.54,13.48,3.27,20.29,4.56a171.7,171.7,0,0,0,17,2.29c11.5,1,23,1.77,34.53,2.58,7,.49,14.06.87,21.09,1.29s14.3,1.46,21.4,1.13c10.11-.47,20.22-1.61,30.25-3.07,14-2,27.89-4.75,41.87-6.89a97.28,97.28,0,0,1,13.88-.7,146.51,146.51,0,0,0,31.34-4c3.85-.87,7.84-1.82,11.73-1.67,12.19.47,23.88-2,35.62-4.77,7.28-1.69,14.95-1.81,22.14-3.74,19.62-5.27,39.57-9.71,57.84-19,3.83-1.95,7-5.24,10.47-7.86q6.26-4.68,12.6-9.23c.48-.35,1.28-.27,1.93-.39-.14.68-.07,1.51-.45,2-2.76,3.66-5.69,7.2-8.41,10.89-6.84,9.28-16.22,15-26.75,19-13.4,5-26.8,10.15-40.46,14.38-18.31,5.67-36.82,10.76-55.36,15.64-10.82,2.86-21.84,5-32.83,7.12-4.92.93-10,1-15,1.39-12.81,1-25.39,2.87-37.49,7.59-4.57,1.78-9.65,2.3-14.53,3.23-8.56,1.63-17.1,3.65-25.75,4.53-8.42.87-17,.53-25.44.7-.95,0-1.9-.11-2.85-.11-8.71,0-17.41.08-26.12,0-9.72-.11-19.45-.57-29.17-.54-5,0-10,1.15-15,1.08-5.84-.09-11.68-.89-17.52-1.49a48.06,48.06,0,0,1-5.13-1c-1.21-.49-2.83-.39-3.12-2.2s.7-3,2.57-3.75c-1.7-1.33-3.76-2.15-3.84-4.5a2.65,2.65,0,0,1,1.63-2.65c-2.25-.35-3.94-1.25-4.15-3.62-.2-2.15,1.37-2.89,3.35-3.53-2.6-.74-6-.35-5.84-4,.1-3.07,2.88-3.08,5.36-3.38C432.51,1301.19,433.17,1298.59,433.28,1296.11Z" transform="translate(-137.86 -39.14)"/><path class="cls-4" d="M699.74,877.42c-15.65-.78-31.09-8-42.52-23-5.12-6.74-9.93-13.72-15-20.5-2.27-3-2.2-5.94-.63-9.2A80.66,80.66,0,0,0,650,789.4a16.81,16.81,0,0,1,1.22-5c1.11-3.43,3-4.2,5.81-2.11,4.23,3.18,8.28,6.59,12.43,9.88,9.54,7.57,20.51,12,32.31,14.52,15.22,3.26,29.4,1.22,42.42-7.83,7.52-5.23,15.37-10,23.1-14.87,5.76-3.68,9.08-2.37,10,4.44,1.16,8.56,2.08,17.18,2.55,25.81s-2.85,16.16-8.54,22.27c-10.44,11.19-21.36,21.95-34.46,30.14C726.39,873.13,715.28,877.48,699.74,877.42Z" transform="translate(-137.86 -39.14)"/><path class="cls-1" d="M661.92,681.19c-1.24,8.25-2.16,16.56-3.79,24.72-2.23,11.12-5,22.13-7.53,33.19-3.65,16.15-7.74,32.22-10.73,48.48A304.78,304.78,0,0,0,636,822.52c-.88,13.26-1.73,26.61-1.14,39.86.54,12,1,24.37,6.23,35.6a63.11,63.11,0,0,0,8.08,12.58,86.75,86.75,0,0,0,10.42,10.49c6.7,5.91,8.37,12.86,5.62,21.28-3.77,11.52-6.83,23.33-13.14,33.8a76.87,76.87,0,0,0-9.47,22.35c-.73,3.14-1.14,6.35-1.7,9.53a8.49,8.49,0,0,1-8.45-.16c-3-1.69-5.8-3-9-.32a2.75,2.75,0,0,1-3.55-.26c-2.78-2.26-5.58-2.83-8.59-.42a1.12,1.12,0,0,1-1.46-.12c.88-7.21,1.08-14.39-1.4-21.36-1.17-3.29-2.53-6.51-3.81-9.77,4.34-7.27,4-14.54.15-21.89-1.74-3.34-4.37-6.23-5.16-10.05,2.31-5.58,5.18-11,6.8-16.77,2.28-8.18.21-16.12-3-23.86a142.32,142.32,0,0,1-9.78-35.18c-.24-1.82-1.91-4.42-3.46-4.88-2.7-.81-4.34,2.17-4.48,4.19-.49,7.23-1.24,14.62-.27,21.73,1.18,8.61,4.43,16.92,6,25.5,1.35,7.31,1.2,13.14-5.1,16.43a26.06,26.06,0,0,1-9.55,2.53c-6.09.55-12.27.2-18.34.82-8.21.84-16.39,2.05-24.52,3.45-12.4,2.13-24.84,3.16-37.35,1.6-6.75-.85-6.82-5-5.65-9.6,2.66-10.59,5.08-21.18,4.72-32.21-.47-14.7-4.05-28.68-9.51-42.27-3.07-7.65-6.34-15.3-6.44-23.75,0-1.4.38-3.59,1.26-4,1.11-.55,3,.14,4.42.66,3.47,1.26,6.74,3.29,10.3,4s5.32-1.69,5.74-5.46c.74-6.71-2.77-11.74-6.6-16.44-7.95-9.77-16.28-19.22-24.3-28.93-3.51-4.25-6.81-8.91-12.8-9.28a177.13,177.13,0,0,0-18.72.09,43.39,43.39,0,0,0-9.52,1.61c-1.26.35-2.19,1.91-3.27,2.92.94,1,1.74,2.41,2.86,2.75,3.57,1.08,7.3,2.56,10.9,2.41,10.47-.43,17.45,4.8,23.14,12.71a100.94,100.94,0,0,0,6.31,8.56c2.48,2.77,2.58,5.68,1.4,8.78a58.54,58.54,0,0,0-3.64,28.5c.83,6.4,3.26,12.68,5.57,18.78a127.69,127.69,0,0,1,7.79,33.73c1,10.87.43,21.23-4.83,30.86-9.13,16.74-21.7,30.45-38.4,39.79-9.53,5.34-19.79,9.37-29.65,14.13-9.59,4.63-17.67,10.92-21.69,21.25-3.22,8.26-.5,15.15,5.19,21.27-.13,1-.89,1.4-1.62,1.82-3,1.74-5.42,4-6.38,7.51a5.45,5.45,0,0,1-2.37,2.89,53.76,53.76,0,0,1-10.75,5.38,4.51,4.51,0,0,1-4.27-.29c-7-8.09-13.64-16.44-20.95-24.21-7.13-7.58-15.34-13.87-25.68-16.68a5.81,5.81,0,0,1-2.48-3.19,29.21,29.21,0,0,0-6.39-9.74c-.56-.52-1.13-1.19-.71-2,2-3.67,1.36-7.77,1.94-11.68a52.58,52.58,0,0,0,20.35,4.49c6.55.26,12.94.27,19-2.31,11.15-4.72,18.53-13.18,23-24.2a43.51,43.51,0,0,0,2.56-24.66c-.85-4.67-4.38-7.66-7.76-10.45a25,25,0,0,1-8.82-13.3c-.4-1.54-.32-4.22-3-3.46a6.6,6.6,0,0,0-3.84,3.27c-3,7.38.17,13.45,4.38,19.39a42.6,42.6,0,0,1,5,9.56c1.9,5.08-.43,9.76-2.8,14a32.79,32.79,0,0,1-20.93,16.29c-7.58,2-14.78.95-21.82-1.68-11.56-4.33-23.05-3.84-34.36.41-2.41.9-5.16,3.56-5.84,5.95-2.28,8.07-1,16.71,7.85,21.29,7.57,3.9,8.55,9.15,3.57,16.19-7.95,11.23-12.37,23.89-14.74,37.28-1.62,9.14-2.76,18.38-3.85,27.61-1.48,12.42.13,24.75,1.91,37,1.55,10.72,3,21.54,5.8,32s7.74,20.5,11,31a173.17,173.17,0,0,0,25.1,50.59,140.18,140.18,0,0,0,23.42,25.9c6,5.08,11.44,11,17.84,15.54,8.92,6.32,18.49,11.72,27.79,17.51a1.48,1.48,0,0,1,0,.93c-1.78,5.92-1.78,5.93,3.4,9.11,1.12.69,2.16,1.39,2.35,2.8a9.31,9.31,0,0,0,2.63,6,1.24,1.24,0,0,1-.18,2.14c-1.68,1.07-1.87,2.44-.88,4.06s.54,2.6-1.34,3.28c-2.1.76-2.12,1.59-.4,3.06,2.7,2.3,2.81,2.75-.25,4.28-2.54,1.26-3,3.66-4.13,5.71-17.49-3.41-34.74-7.88-50.08-17.19-13.2-8-26.07-16.65-38.41-25.91a270.21,270.21,0,0,1-27.21-24,182.7,182.7,0,0,1-18.34-21.59c-3.44-4.64-5.34-10.39-8.19-15.49-3.51-6.3-7.67-12.26-10.82-18.71a35.41,35.41,0,0,1-2.94-12c-.49-5-3.38-8.46-6.13-12.1-4.42-5.85-9.28-11.52-10.93-18.84-1.34-6-2-12.16-2.8-18.28-1.16-9.34-2-18.73-3.23-28.07-1.74-13.26-3.64-26.5-5.58-39.73-1.43-9.81-3.73-19.56-4.33-29.41-.44-7.22,1.24-14.58,2-21.87a7.26,7.26,0,0,0,.28-1.54c-1.33-11.21,3.62-21.37,5.35-32.06,1.28-7.94,2.55-15.88,3.56-23.86,1.63-12.73,2.46-25.53,7.34-37.71,3.49-8.69,5.62-17.91,8.67-26.78,3-8.58,6.54-16.94,9.46-25.53,4.23-12.43,7.88-25.06,12.2-37.46a206.54,206.54,0,0,1,20.78-42.49Q280.48,760,297.6,734.84c7.53-11,16-21.37,26.93-29.36,3.52-2.57,5.72-1.78,6.66,2.29A43.1,43.1,0,0,1,332,714c1.08,13.19,2.23,26.37,3.15,39.57.64,9.17,3,17.75,8.32,25.28,1.14,1.62,3.55,3.26,5.36,3.25,2.55,0,2.8-2.7,3-5.08q1.41-17.88,3.13-35.74c1.19-12.41,3-24.78,3.7-37.21.7-11.79,1.2-23.48,5.8-34.59,3-7.22,4.88-15,8.6-21.77,4.82-8.82,13.08-14.82,21.14-20.52q22.25-15.75,45.12-30.61a72.35,72.35,0,0,1,31.12-10.9c11.78-1.4,23.67-1.79,35.51-2.7,3-.23,6.15-1.53,9-1a13.92,13.92,0,0,1,7.5,4.48c1.8,2.17,2.54,5.38,3.18,8.27.27,1.22-.57,3.08-1.5,4.11-2.12,2.32-4.62,4.3-6.95,6.44-4.21,3.9-7.51,8.58-7.69,14.33-.32,10.79-2,21.71,5.82,31.39,6.22,7.68,8,17.56,9.79,27.15,1,5.45,1.89,10.91,2.54,16.41,1.39,11.8-2.46,22-9.37,31.47a102.83,102.83,0,0,0-10.25,17.13c-2.76,5.89-2.15,12.47-1.74,18.92.62,9.94,6.35,16.81,13.1,23.2,4.07,3.85,8,7.92,12.27,11.48,7,5.81,15.23,5.8,23.56,3.69,3.42-.87,6.71-2.26,10.06-3.42a2.86,2.86,0,0,1,.87.39c8,6.93,16.76,3,23.56-2.31s11-12.4,13.81-20.48c1.44-4.1,4.72-7.26,6.83-11.06,4.35-7.85,9.27-15.39,12.34-23.94a173.56,173.56,0,0,0,6.36-23.9,29.06,29.06,0,0,1,3.2-8.27,75.24,75.24,0,0,0,4.89-10c2-5.16,6.47-8.42,11.27-10.76,3.7-1.81,7.28-3.92,11.19-5.3C660.28,681.2,661.05,680.75,661.92,681.19Z" transform="translate(-137.86 -39.14)"/><path class="cls-1" d="M1169.13,430.72c-1.05-3.78-2.22-7.53-3.12-11.35-1.17-5-1.94-10-3.22-14.94-2.23-8.55-4.58-17.09-7.14-25.55-1.85-6.1-4-12.11-6.22-18.09-2.51-6.86-5-13.72-7.89-20.44-3.54-8.34-7.36-16.55-11.16-24.78-3.63-7.88-7.1-15.87-11.19-23.51-2.7-5.05-6.38-9.56-9.61-14.33-6.15-9.11-12.1-18.37-18.49-27.31-5.48-7.65-11.41-15-17.23-22.37-7.36-9.36-14.7-18.74-22.28-27.92a157.25,157.25,0,0,0-10.93-11.44c-6.63-6.56-13-13.45-20.15-19.39-6.71-5.58-14.26-10.16-21.49-15.1-3.85-2.64-7.76-5.2-11.75-7.61-2.11-1.27-4.54-2-6.65-3.26-5.1-3.06-10-6.43-15.16-9.43-6.16-3.58-12.56-6.76-18.7-10.38-6.43-3.8-12.65-8-19-11.89-3.58-2.22-7.24-4.29-10.86-6.43-1.66-3.11-3.37-6.2-4.94-9.36a12.48,12.48,0,0,1-.67-3c1.2-.08,2.55-.55,3.58-.16,5.47,2.05,10.91,4.2,16.26,6.54,25.66,11.19,48.3,27.47,71.44,42.87,9.74,6.48,19.69,12.76,28.75,20.11s17.18,15.66,25.41,23.88c14.6,14.57,28,30.27,39.07,47.66,10.84,17,21.11,34.37,31.08,51.89a503.65,503.65,0,0,1,33.55,71.21c7.57,20.07,13.61,40.72,20.29,61.13,1.66,5.06,3,10.2,4.76,15.23,1.12,3.22-2.22,3.3-3.24,5-.17.29-2,0-2.74-.52C1176,435.47,1172.57,433.07,1169.13,430.72Z" transform="translate(-137.86 -39.14)"/><path class="cls-4" d="M713.54,943.6c-8.42,1.23-15.11-3.7-21.32-9.07-8.59-7.43-17.14-15-25-23.18a116.43,116.43,0,0,1-15.72-20.41c-2.78-4.66-3.53-10.63-4.71-16.12-.72-3.35-.61-6.88-.7-10.34-.08-2.68,1.5-3.21,3.38-1.74,4,3.13,7.75,6.65,11.8,9.75,9.65,7.41,20.56,12.41,32.62,13.62,10.8,1.09,21.62.44,31.9-4.21,13.42-6.07,25.12-14.59,36.31-24a113.14,113.14,0,0,1,10.45-7.77c2.42-1.59,4.84-.1,4.71,2.89a112.75,112.75,0,0,1-1.3,15.27,121.41,121.41,0,0,1-11.38,33.06,96.17,96.17,0,0,1-17.8,25.28,122.39,122.39,0,0,1-13,11.57C728.11,942.46,721.34,944,713.54,943.6Z" transform="translate(-137.86 -39.14)"/><path class="cls-4" d="M713.29,796.82A66,66,0,0,1,683,785.69c-6.81-4.5-13.07-9.82-19.48-14.9-4.11-3.26-6.13-7.33-4.67-12.79,2.86-10.7,5.27-21.53,8.39-32.15,2.06-7,5.4-6.34,10.21-3s9.62,7.21,15,9.72c9.61,4.51,19.83,3.79,29.3-.23,8.64-3.66,16.68-8.75,25-13.2,1.27-.67,2.55-1.32,3.84-1.94,2-1,3.88-.64,4.54,1.63,1.63,5.6,3.18,11.23,4.45,16.92,1.68,7.53,2.58,15.27,4.7,22.67,2.39,8.3.8,10-4,13.29-10.61,7.22-21.5,14.09-32.63,20.47C723.26,794.64,718.05,795.34,713.29,796.82Z" transform="translate(-137.86 -39.14)"/><path class="cls-6" d="M491.8,504.67c-6.58-10.72-13.67-21.16-19.56-32.24-4-7.59-6.61-16-9.44-24.17-3.45-10-6.77-20-9.59-30.19-1.84-6.63-2.77-13.52-4-20.31-1.52-8.53-3-17.06-4.36-25.61-1.21-7.64-2.2-15.32-3.31-23-1.45-10-3-20-4.34-30-.32-2.3,0-4.67-.13-7-.79-10.49-2-20.95-2.38-31.44-.33-9.65.23-19.33.4-29,0-1.06,0-2.12.09-3.18q1.23-14.11,2.48-28.24c.47-5.35.84-10.7,1.35-16q1.11-11.53,2.39-23c.4-3.71.91-7.4,1.38-11.1q7.71-16,15.43-31.92l1.22.5c-.51,1.71-.92,3.45-1.57,5.1-4.13,10.5-7.66,21.23-7.94,32.58-.27,10.93.33,21.88.54,32.82q.33,17.63.65,35.25c.21,11.43.17,22.88.7,34.29q.82,18,2.56,35.91c1.44,14.94,2.87,29.9,5.16,44.72,2.4,15.41,5.13,30.83,8.95,45.94,5.49,21.75,12,43.25,18.31,64.77a125.27,125.27,0,0,0,6.32,15.79,13.87,13.87,0,0,1,.84,10.25C493.09,498.93,492.51,501.82,491.8,504.67Z" transform="translate(-137.86 -39.14)"/><path class="cls-6" d="M931.58,193.06c.81,8.68,1.78,17.35,2.35,26,.29,4.51-.12,9.08-.23,13.62,0,1.05-.24,2.1-.24,3.15,0,9.66-.09,19.32,0,29,.09,8.89.66,17.77.54,26.65-.16,11.68-.55,23.36-1.28,35q-1.17,18.89-3.2,37.71c-.7,6.52-2.4,12.93-3.41,19.42-1.1,7-1.84,14.13-2.91,21.17-.68,4.52-1.63,9-2.56,13.48s-1.69,9-3,13.42c-2.54,8.11-5.36,16.14-8.25,24.13-2.21,6.13-4.66,12.18-7.09,18.22-3.73,9.28-7.44,18.5-12.5,27.24-4.06,7-6.2,15.11-10,22.27-2.79,5.2-6.74,9.84-10.6,14.36A72.36,72.36,0,0,1,857.88,549c-5.17,3.87-11,6.83-16.5,10.29-3,1.88-5.79,4.09-8.81,5.93s-6.17,3.39-9.26,5.06c-.41-3.11-.91-6.22-1.21-9.34a5.57,5.57,0,0,1,3.43-6.14c4.44-1.89,8.87-3.82,13.39-5.47,9.58-3.51,16.21-10.25,21.34-18.8,10.87-18.14,19.13-37.51,25.89-57.44,6.68-19.65,12.81-39.52,18.09-59.58,3.86-14.65,6-29.75,8.81-44.68,1.84-10,3.59-20,5-30.07,1.18-8.52,2.07-17.11,2.61-25.7.86-13.68,1.07-27.41,2.05-41.08.9-12.67,2.66-25.28,3.65-37.94.76-9.78,2.13-19.74,1-29.37-1.28-11.36-4.9-22.46-7.52-33.67-.25-1.06-.65-2.08-1-3.12l1.14-.47Q925.81,180.24,931.58,193.06Z" transform="translate(-137.86 -39.14)"/><path class="cls-1" d="M463.76,77.76c-6.86,2.76-13.79,5.36-20.56,8.32-5.9,2.58-11.61,5.6-17.43,8.36-3.93,1.86-7.94,3.52-11.84,5.44-4.84,2.38-9.57,5-14.39,7.4-3.36,1.69-6.83,3.17-10.17,4.9a26.36,26.36,0,0,0-3.57,2.62c-7.85,5.84-15.39,12.17-23.63,17.37a118.68,118.68,0,0,0-19.23,14.69c-5.76,5.55-11.15,11.53-16.38,17.59-7.52,8.7-15,17.43-22,26.56-7.14,9.34-13.66,19.17-20.38,28.82-6.62,9.5-13.47,18.85-19.64,28.62-8,12.74-15.51,25.85-23.28,38.76-3.12,5.18-6.67,10.11-9.55,15.41-4.19,7.71-7.91,15.68-11.92,23.5-1.84,3.6-4,7-5.81,10.65a161.51,161.51,0,0,0-6.8,15.15c-3,8.33-5.58,16.84-8.38,25.25-1.2,3.61-2.53,7.18-3.8,10.77-2.93,3-5.13-1.71-7.87-.75a18.17,18.17,0,0,1,.54-3c5.08-14.47,9.49-29.21,15.46-43.31,8.93-21.08,18.21-42.08,28.73-62.4,9.83-19,21-37.38,32.46-55.43,9-14.16,19.42-27.45,29.36-41a110.59,110.59,0,0,1,8.89-10.23c5.73-6.09,11.42-12.23,17.43-18,16.55-16,34.21-30.52,54.52-41.74,17.92-9.89,35.13-21.1,53.21-30.69C439.29,75.24,451.86,71,464,65.88a9.84,9.84,0,0,1,1.48-.3C464.89,69.77,464.32,73.76,463.76,77.76Z" transform="translate(-137.86 -39.14)"/><path class="cls-5" d="M403.94,1027.86a78.1,78.1,0,0,0,26.58,2.69c7.75-.51,15.67.76,23.47,1.71,11.45,1.38,22.14,5.5,32.46,10.41a22.45,22.45,0,0,1,8.53,7.06c3.11,4.49-.23,9.41-4.5,12.75-4.94,3.86-7,3.64-12.43.2a17.19,17.19,0,0,0-12.08-2.29,5.44,5.44,0,0,0-3.73,2.92c-.42,1.22.35,3.35,1.31,4.46,2.63,3,5.63,5.77,8.48,8.62a9.16,9.16,0,0,1,1.77,1.81c1.21,2.27,3.79,4.14,2.22,7.29s-4.6,2.38-7,2.06a84.15,84.15,0,0,1-31.48-11.3,52.46,52.46,0,0,0-23.66-7.13c-10.24-.67-20.55-1.12-30.66-2.71-7-1.1-10.66-1.54-9.87-11.22a21.59,21.59,0,0,0-.06-2.54c.63-1.22,1.37-2.39,2-3.6.77-1.43,1.8-3,3.32-3.23,4.29-.58,6.71-3.35,9.1-6.49,1.88-2.47,4.76-2.89,7.73-2.91,4.92,0,5.08-.18,5.76-5A3.9,3.9,0,0,1,403.94,1027.86Z" transform="translate(-137.86 -39.14)"/><path class="cls-4" d="M681.11,656.26c3.23,1,5.55,1.44,7.72,2.32,15.35,6.18,30.55,5.51,45.5-1.17,8.51-3.81,9.08-3.58,10.56,5.48,1.76,10.8,3.86,21.54,5.61,32.34.44,2.72.52,5.71-2.4,7.56-5.62,3.57-11.21,7.19-16.85,10.72-7.7,4.83-15.63,9.38-24.86,10.19a27.53,27.53,0,0,1-18.86-5.7,150.92,150.92,0,0,1-15-12.89c-1.23-1.18-1.69-3.83-1.49-5.71,1.07-10.53,2.36-21,3.8-31.54a25.51,25.51,0,0,1,2.41-7.86C678,658.44,679.87,657.41,681.11,656.26Z" transform="translate(-137.86 -39.14)"/><path class="cls-7" d="M778,1014.42l-10.86-10.86a11.24,11.24,0,0,1-.13-5.34c1.44-7.59-.24-14.68-3.11-21.61-.4-1-.93-1.92-.58-3a25.77,25.77,0,0,0,8.35-21.92c-.32-3.56-.34-7.15-.69-10.71s1.59-5.13,4.58-6.19c7.7-2.74,15.41-5.44,23-8.43,5-2,7-1,7.47,4.47.91,9.94,1.61,19.9,2.61,29.82,1.49,14.82,3.52,29.56,8,43.83a11.32,11.32,0,0,1,.25,2.2c-.23,2.33-1.72,2.79-3.6,2.21a10.56,10.56,0,0,0-9.82,1.89c-2.9,2.11-6.31,1.92-9.35.55a8.79,8.79,0,0,0-9.72,1.05C782.57,1013.7,780.8,1015.93,778,1014.42Z" transform="translate(-137.86 -39.14)"/><path class="cls-5" d="M640.89,1027.1c1.45,4.08,2.42,8.41,4.47,12.16,3.06,5.6,8.7,8.48,14,11.79a80.55,80.55,0,0,1,13.73,10.53c6.06,6,2.53,10.49-2.65,14.58-4,3.17-8.88,3.22-13.6,3.84-10.52,1.37-20.44-.49-30.13-4.81-5-2.24-10.25-1.23-14.91,1.85-4.48,3-8.95,3.88-13.25-.2a62.55,62.55,0,0,1-7.07-7.5c-1.7-2.27-1.68-4.83.23-7.41,3-4.08,5.63-8.48,8.58-12.63a40.35,40.35,0,0,0,7.63-22.09,7.4,7.4,0,0,1,.71-2c1.61-.71,1.68.74,2.13,1.57,1.48,2.68,2,2.83,4.64,1.12,1-.64,1.91-1.33,2.91-1.94,3.86-2.37,7.73-2.2,11.08.85,1.88,1.71,3.47,2,5.6.52A4.9,4.9,0,0,1,640.89,1027.1Z" transform="translate(-137.86 -39.14)"/><path class="cls-6" d="M661.92,681.19c-6.26,3.34-12.68,6.42-18.72,10.13a13.7,13.7,0,0,0-6.21,8.75c-.55,2.37-2.18,4.5-3.41,6.69-3.07,5.44-4.42,11.36-5.45,17.48a59.13,59.13,0,0,1-3.88,13.13c-3.34,7.82-7.12,15.45-10.86,23.09-1,2-2.68,3.73-3.77,5.73-4.1,7.54-7.38,15.64-12.34,22.54a34.31,34.31,0,0,1-15.64,12c-6.12,2.39-10.7,1.24-15.47-2.17a5.29,5.29,0,0,1-1-1.47c12.3-6.61,21-16.7,27.2-29,4.75-9.35,6.6-19.6,8.53-29.83,2.5-13.28,4.47-26.74,10.69-39,3.83-7.55,8.6-13.86,17.2-17,5.82-2.15,10.9-6.27,16.4-9.36a46.34,46.34,0,0,1,8-3.71c5.13-1.69,8.41,1.11,8.81,7.28C662.1,678,662,679.6,661.92,681.19Z" transform="translate(-137.86 -39.14)"/><path class="cls-8" d="M823.12,1024.58c3.39,7.32,6.48,14.8,10.25,21.91,2.76,5.21,8,7.25,13.66,8,3.54.46,7.21.15,10.7.81a9.41,9.41,0,0,1,5.12,3.27c.39.48-1.23,3.37-2.54,4.31-9.47,6.79-20,8-31,4.82a19.07,19.07,0,0,0-14.34,1.06c-5.69,2.76-10.86-.22-16-2.16-9.43-3.55-18.81-7.23-28.19-10.9a102.34,102.34,0,0,1-10.35-4.35,9.45,9.45,0,0,1-3.79-4c-1.13-2.33-.21-4.4,2.39-5.27,6.66-2.24,13.34-4.41,20-6.59,1.49-.49,3-.89,4.53-1.33,3.17-.93,5.22-2.69,4.69-6.35a10.23,10.23,0,0,1,10.13-1.16c1.9.82,3.42,1,5-.19,3.67-2.76,7.9-2.62,11.9-1.61C818.1,1025.49,820.55,1026,823.12,1024.58Z" transform="translate(-137.86 -39.14)"/><path class="cls-4" d="M710.09,651.85c-10.69-.43-23.48-7.85-25.82-17.69-.45-1.9.38-4.12.68-6.18,1.26-8.38,2.3-16.82,3.93-25.13a89.19,89.19,0,0,1,4.4-14c1.11-2.95,2.94-2.57,5.05-.56,3.65,3.48,7.16,7.29,11.34,10,6.34,4.09,13.58,5.07,21.1,3.84A67.81,67.81,0,0,1,741.56,601c2.34,0,4.52,1.45,4.51,4.2a101.38,101.38,0,0,1-.67,13.51c-.68,4.87-2,9.65-3.07,14.47-1.24,5.73-4.68,9.43-10.23,11.32-6.58,2.24-13.11,4.64-19.68,6.92A10.48,10.48,0,0,1,710.09,651.85Z" transform="translate(-137.86 -39.14)"/><path class="cls-8" d="M508.2,1011.18c8,.41,16,1.05,24,1.14,5.56.07,11.13-.59,16.69-.94,13.36-.84,26.57-.84,37,9.49a56.77,56.77,0,0,1,7.34,9.81,4.49,4.49,0,0,1-.11,4.07Q586.32,1044,579,1052.9c-.49.6-3,.53-3.65-.14-7.43-7.79-14.61-15.82-22-23.61-1.41-1.48-3.58-2.93-5.46-3-1.07-.05-2.72,2.53-3.34,4.2-3.22,8.84-9.56,11.12-17.53,6-2.83-1.81-5.52-3.84-8.3-5.72-4.93-3.33-7.85-3-12.6.23a6.4,6.4,0,0,1-5.43.45,96.4,96.4,0,0,1-10.75-6.55c-2.28-1.48-2.63-3-.43-5.19C494.74,1014.42,500.56,1010.83,508.2,1011.18Z" transform="translate(-137.86 -39.14)"/><path class="cls-4" d="M711.89,539a49.13,49.13,0,0,0,23.48-4.79c3.39-1.68,4.76-1.1,5.58,2.58a122.77,122.77,0,0,1,2.55,15.56c.7,7.83,1.16,15.71,1.23,23.57a19.19,19.19,0,0,1-2.19,8.85c-2.24,4.17-6.89,5.19-11.08,6.45-8.13,2.46-14.28-2-20.47-6.14-3.6-2.39-7-5.07-10.66-7.41s-3.85-6.1-3.75-9.42a183.6,183.6,0,0,1,2.08-22.7c.72-4.68,3.87-6.52,8.77-6.54Z" transform="translate(-137.86 -39.14)"/><path class="cls-5" d="M632.18,519.3c.39-3.62.34-7.36,1.26-10.84,2.35-8.88-1-16.18-5.78-23.14-1.8-2.6-4.28-4.75-6-7.39-5.46-8.32-6.78-17.49-4.7-27.12a62.87,62.87,0,0,1,16.81-31c1.28-1.32,2.36-2.83,3.31-4-.6,7.18-1.38,14.39-1.77,21.62a48.76,48.76,0,0,0,5,24.24A113.12,113.12,0,0,0,649,477c3.22,4.61,3.84,9.85,4.62,14.94a81.32,81.32,0,0,1,.64,18c-.38,5.31-2,10.51-3.14,15.76-1.09.68-1.46-.24-2-.87-2.22-2.66-3.87-3.23-6.85-2-2,.84-3.78.79-5.22-.76S633.29,521.09,632.18,519.3Z" transform="translate(-137.86 -39.14)"/><path class="cls-9" d="M574.52,335.26c.33-2.08.72-5.73,1.54-9.29.34-1.48,1.46-3.78,2.45-3.9a6.76,6.76,0,0,1,4.94,1.87c7.83,7.93,16.38,14.73,26.74,19.13,3.91,1.66,6.37,6.11,5.92,9.62-.41,3.22-.78,6.44-1.26,9.64-1.83,12.2-8.06,21.47-18.73,27.67-5.38,3.12-9.51,2.11-12-3.82a163.1,163.1,0,0,1-6.73-21.12,89.13,89.13,0,0,1-2-14C575,346.36,574.89,341.61,574.52,335.26Z" transform="translate(-137.86 -39.14)"/><path class="cls-10" d="M433.28,1296.11c.35.48,1.11,1.12,1,1.41-1.22,3.16.26,5,3,6.78-1.49,0-3.09-.33-4.44.1-1.05.34-1.79,1.64-2.66,2.51.82.82,1.51,2,2.5,2.37a30.51,30.51,0,0,0,5.34,1l-5.29,3.58,4.89,4.39c-2.43.51-3.44,2.44-1.36,4.27a28.91,28.91,0,0,0,4,2.6l-3.73,2.68,2.49,3.19a93.38,93.38,0,0,1-27.73-4.93c-9.26-3.14-18.45-6.47-27.67-9.72-1-5,3.3-5.87,6.37-8-1.19-.55-2.33-.77-3-1.45a4.47,4.47,0,0,1-1.3-2.9c0-.53,1.4-1.34,2.24-1.46,1.6-.22,2.57-.14,1.07-2.07-2-2.55-1.26-4.4.88-5.13a61.52,61.52,0,0,0-2.57-7.48,7,7,0,0,0-3.17-2.58c-4.88-2.5-4.76-5.6-1.73-10.21,10.66,4.47,21.31,9,32,13.41C420.65,1291,427,1293.53,433.28,1296.11Z" transform="translate(-137.86 -39.14)"/><path class="cls-9" d="M839,75.13c6.74.44,13.55.4,20.18,1.44,10.82,1.7,21.49,4.31,32.29,6.09,3.35.55,4.29,3.15,5.48,5.07,2.44,3.92,4,8.4,5.88,12.66,1.3,2.92,3,5.75,3.75,8.81,1.21,4.75,1.32,9.8,2.77,14.45,1.91,6.14,1.16,12.15.47,18.24-.23,2.09-1,3.25-2.87,1-2.06-2.53-4-5.13-6.22-7.55s-4.59-4.73-6.92-7.06c-3.34-3.35-6.74-6.64-10-10-3.72-3.84-7.27-7.84-11-11.63s-7.59-7.54-11.57-11.11c-5-4.45-10.1-8.69-15.14-13-2.4-2.06-4.76-4.17-7.13-6.27Z" transform="translate(-137.86 -39.14)"/><path class="cls-9" d="M469.48,122.48q1.83-12.53,3.65-25.06c.84-5.81,1.24-11.73,2.6-17.42a76.54,76.54,0,0,1,5.81-16.77c2.21-4.36,7.32-5.45,11.89-6.47,7.94-1.76,15.86-3.76,23.89-4.95,7-1,14.12-1.06,21.19-1.54.16.42.32.84.47,1.25-2.74,2.48-5.37,5.1-8.25,7.39-5.24,4.17-11.13,7.64-15.85,12.3-9,8.86-17.52,18.16-25.8,27.65-5.21,6-9.58,12.67-14.41,19-1.33,1.74-2.94,3.27-4.42,4.89Z" transform="translate(-137.86 -39.14)"/><path class="cls-5" d="M509.68,553.12a25.86,25.86,0,0,1-2.47-4.48c-2.18-6.66-4.51-13.31-6.08-20.12-.72-3.14-.14-6.72.46-10,1.47-8,3.35-15.83,5-23.76,1-4.76,2.42-9.56,2.36-14.33a84.09,84.09,0,0,0-2.44-17.23c-2.09-9.36-4.67-18.61-7-27.73,1.76,1.48,4.53,3.1,6.32,5.47,3.93,5.19,8,10.46,10.85,16.26,4.17,8.41,8.28,17.09,9,26.64.28,4-1,8.11-2,12.07-1.19,4.7-3,9.25-4.28,13.92-2,7-.07,13.68,2.32,20.16,1.17,3.15,3.11,6,4.7,9-1.12,3.65-4.7,5.3-6.73,8.23a2.7,2.7,0,0,1-2.59.87c-5-.42-5.3-.22-6.77,4.31A1.43,1.43,0,0,1,509.68,553.12Z" transform="translate(-137.86 -39.14)"/><path class="cls-9" d="M620.48,311.74c.3-11.83,3.73-21.91,8.3-31.6,2.9-6.16,6.33-12.07,9.65-18a18.32,18.32,0,0,1,2.92-3.21,21.59,21.59,0,0,1,2.43,3.59c1.72,4,2.88,8.27,5,12,1.31,2.36,4.33,3.71,5.91,6,4.94,7.15,4.72,12.2-1.31,20.68a106,106,0,0,1-21.54,22.42c-6.33,4.9-9.28,3.81-10.53-4C620.84,316.7,620.68,313.76,620.48,311.74Z" transform="translate(-137.86 -39.14)"/><path class="cls-5" d="M557,752.27a1.58,1.58,0,0,1-1.14,1.76c-4.57,1.28-9.13,2.34-13.5-.9a1.63,1.63,0,0,1-1.07-1.1c-1-4.21-3.91-6.25-7.71-7.38a1.71,1.71,0,0,1-.72-.43,13.45,13.45,0,0,1-4-9.19,1.68,1.68,0,0,1,.2-.79l9.78-18.45a1.75,1.75,0,0,1,.35-.46c3.65-3.29,8.25-4.78,12.85-5.62,5.41-1,9.6,1.84,11.91,6.91a14.42,14.42,0,0,0,2.6,4.31c5.27,5.39,5,11.45,2.37,17.8a1.56,1.56,0,0,1-.42.59,5.74,5.74,0,0,1-2.68.72c-6.64,1.1-9.78,5.47-8.79,12.21Z" transform="translate(-137.86 -39.14)"/><path class="cls-4" d="M700,503.76c.14-9.77-.65-11.29,11.35-11.44,5.94-.07,12-2,17.74-3.79,2.7-.83,4.31.16,4.77,2,2.39,9.24,4.48,18.56,6.51,27.89.77,3.52-1.33,5.5-4.48,6.38a52.82,52.82,0,0,1-23.45,1.6c-7-1.2-10.16-6.94-11.47-12.93A81.66,81.66,0,0,1,700,503.76Z" transform="translate(-137.86 -39.14)"/><path class="cls-9" d="M576.08,481.08c-1.05,8.23-.64,16.8-5.77,24.1-3.24,4.62-7.14,4.54-9.56-.44a92.17,92.17,0,0,1-8.91-31.86,168.59,168.59,0,0,1-.57-18.12,6.1,6.1,0,0,1,2.43-4.61c.88-.48,3.37.86,4.44,2q7.23,7.9,14,16.22A17.33,17.33,0,0,1,576.08,481.08Z" transform="translate(-137.86 -39.14)"/><path class="cls-9" d="M997.17,780c0-1.27-.1-2.55,0-3.81.72-8.25-1.48-16.19-2.43-24.27-.75-6.47-.94-13-1.41-19.51q-.93-13.05-1.92-26.09a4.53,4.53,0,0,0-.48-1.79c-4.44-8-.59-18.25,5.14-23.87,2.3-2.25,4.38-1.81,4.87,1.29.83,5.26,1.4,10.58,1.93,15.88s1.15,10.31,1.2,15.46c.07,8.27-.2,16.55-.53,24.81-.28,7.15-.44,14.34-1.4,21.42s-2.8,13.76-4.26,20.63Z" transform="translate(-137.86 -39.14)"/><path class="cls-9" d="M706.49,281.34a89.08,89.08,0,0,1-9.08-1.06c-5.54-1.23-7-5.19-3.21-9.37a68.82,68.82,0,0,1,10.09-9.37c7.31-5.42,14.88-10.49,22.45-15.54,1.34-.9,3.19-1,4.8-1.53.4,1.56,1.23,3.14,1.13,4.66-.49,7-.93,14.05-2,21-1,6.57-6.71,8.16-12,9.46C714.52,280.59,710.18,280.83,706.49,281.34Z" transform="translate(-137.86 -39.14)"/><path class="cls-7" d="M442.21,1013.64c-5-1.43-6.93-5.6-7.41-10-.61-5.58-.3-11.29-.12-16.93a4.45,4.45,0,0,1,2.12-2.84c6.78-4.2,13.6-8.33,20.52-12.3,1.23-.71,3.42-1.27,4.29-.66s1,2.82.88,4.27c-1,9.91-2.11,19.8-3.19,29.69-1.39,2.11-3.84,2.39-5.88,3.35C449.66,1010,445.3,1010.48,442.21,1013.64Z" transform="translate(-137.86 -39.14)"/><path class="cls-9" d="M236.61,746.25c1.44-1.6,2.27-3.43,3.55-3.82,9.78-3,19.6-5.8,29.51-8.31,3.33-.85,4.93,1.69,3,4.88-4.34,7.15-8.92,14.17-13.66,21.06-2.91,4.22-6.3,8.11-9.5,12.12-1.79,2.24-3.83,2.11-4.73-.48C241.93,763.43,239.41,755.05,236.61,746.25Z" transform="translate(-137.86 -39.14)"/><path class="cls-9" d="M344.69,730.34c0-9.15.08-18.29,0-27.43-.08-6.79-.49-13.58-.57-20.37-.11-8.5.08-17-.07-25.49-.08-4.51-.91-9-.79-13.52.05-2.08,1-4.82,2.54-6s4.29-1,6.18-.39c5.94,2,7.54,8.54,6.52,15.05-1.71,10.84-3.61,21.64-5.52,32.45-.62,3.55-1.72,7-2.24,10.6-.72,5-1,10.13-1.67,15.17-.41,3.06-1.24,6.06-1.9,9.08C346.36,723.06,345.54,726.6,344.69,730.34Z" transform="translate(-137.86 -39.14)"/><path class="cls-9" d="M319.75,664.68a60.19,60.19,0,0,1,8,.63c2.16.45,3.71,2.32,2.45,4.46-3,5.09-6,10.3-9.86,14.78-3.58,4.21-8.12,7.63-12.36,11.25-2.52,2.15-4.35,1.79-5.63-1.36-2.75-6.77-5.26-13.63-7.73-20.51-.87-2.43,0-4.6,2.54-5.3,4.81-1.33,9.7-2.45,14.6-3.37A66.79,66.79,0,0,1,319.75,664.68Z" transform="translate(-137.86 -39.14)"/><path class="cls-9" d="M187,1103.78c-.29,3.74-.78,7.62-.84,11.5-.06,3.14-2.33,5.19-5.56,4.09a147.31,147.31,0,0,1-17.92-7.26c-4-2-4.58-6.76-1.74-10.37q9-11.49,18.44-22.7c.38-.45,3.1,0,3.34.66a53.21,53.21,0,0,1,3.27,10.67C186.66,1094.72,186.65,1099.18,187,1103.78Z" transform="translate(-137.86 -39.14)"/><path class="cls-9" d="M814.37,474.12a34.74,34.74,0,0,1,3.7,2.14c6.36,4.95,12.62,10,19,14.91,3,2.33,3.49,3.71.68,6.17-6.23,5.44-12.65,10.67-19,15.94-2.13,1.76-4.1,1.38-4.86-1.3a112.67,112.67,0,0,1-2.71-12.18,63.18,63.18,0,0,1-1.2-11.52,54.49,54.49,0,0,1,1.63-11.1C811.85,476.06,813.34,475.21,814.37,474.12Z" transform="translate(-137.86 -39.14)"/><path class="cls-10" d="M640.89,1027.1c-2.34.65-4.64,1.44-7,1.9-1.17.22-2.83.29-3.65-.36-6-4.73-7.26-4.83-13.84-.38-4.4,3-4.87,2.82-6.71-2.13-.14-.39-.71-.63-1.08-.94q.63-9.23,1.27-18.46a5.19,5.19,0,0,0,1.4-.6c3.27-2.68,5.48-2.57,8.79,0,.79.62,2.82.92,3.34.42,2.4-2.38,4.82-2.51,7.29-.55,3.12,2.48,6.69,1.9,10.2,2Z" transform="translate(-137.86 -39.14)"/><path class="cls-4" d="M717.25,452.39c6.66,0,10.31,3.27,11.67,12,1.1,7.09.16,9-6.38,12.16-3.22,1.56-6.51,3-9.84,4.31s-7,.21-8.52-2.84c-2.6-5.16-5.54-10.39-6.8-15.94-1.39-6.09-.83-7.72,7.15-9C708.12,452.52,711.84,452.66,717.25,452.39Z" transform="translate(-137.86 -39.14)"/><path class="cls-11" d="M823.12,1024.58c-1.71,2.94-3.88,2.44-6.7,1.48-4.23-1.45-8.57-1.86-12.62,1.23-1.62,1.25-3.32,1.81-5.87.18-2-1.28-5.56-.13-8.42,0a5.39,5.39,0,0,0-1.23.3L778,1014.42a56.75,56.75,0,0,0,6.87-3.49c3.12-2.14,5.92-1.8,9.4-.68a12.71,12.71,0,0,0,8.77-.5c3.35-1.65,6.35-3.32,10-1.78,1.9.8,2.94.17,3.88-1.32Q820,1015.61,823.12,1024.58Z" transform="translate(-137.86 -39.14)"/><path class="cls-9" d="M188.88,953.46c-1.61,7-3.36,14.59-5.16,22.21-.38,1.62-.89,3.22-1.43,4.8-1.08,3.18-2.81,3.71-4.93,1.25q-8.43-9.78-16.54-19.82c-1.47-1.81-1.34-3.68,1.12-4.92,7.11-3.59,14.18-7.24,21.26-10.89,2.37-1.22,3.89-.24,4.66,2A41.9,41.9,0,0,1,188.88,953.46Z" transform="translate(-137.86 -39.14)"/><path class="cls-10" d="M509.68,553.12c.15-5.83,1.41-6.75,7.58-5.72a2.48,2.48,0,0,0,1.88-.72c1.92-2.23,3.7-4.6,5.6-6.85.36-.43,1.07-.56,1.62-.84l10.78,15.26a5.09,5.09,0,0,0-.51.7c3.4,3.23.49,6.28-.4,9.29-.21.72-1.67,1.4-2.62,1.5-2.4.24-4.88-.1-7.23.33-.79.15-3.73,0-2.18,2.88.6,1.13.95,3.32-1.74,3.33-3.18-4.42-6.43-8.8-9.52-13.28C511.68,557.16,510.76,555.09,509.68,553.12Z" transform="translate(-137.86 -39.14)"/><path class="cls-9" d="M218,1221.22c-6-2-12-4-17.89-6.21-2-.77-2.87-2.55-1.91-4.87,2.42-5.89,4.64-11.86,7.19-17.7,1.89-4.33,4.51-4.54,6.88-.46,4.2,7.22,8.31,14.51,12,22,1.92,3.92,1.25,6.72-5.91,6.19Z" transform="translate(-137.86 -39.14)"/><path class="cls-10" d="M632.18,519.3c2,1,4,2,6,2.82.84.35,2.13.86,2.68.49,4.63-3.12,7.49-.88,9.94,3,0,.07.2,0,.3.07a37,37,0,0,1-.61,6.18c-1.46,5.56-3.17,11-4.78,16.56-3.26.62-5.26-.22-5.46-4-.05-1-1.58-2.66-2.34-2.62-2,.12-4.12-3.09-5.8,0-1.25,2.3-3.24,3-5.19,2.09-1.21-.57-1.7-2.66-2.52-4.07-.15-.26-.32-.5-.49-.76,1.58-3.21,3.31-6.36,4.69-9.66S631,522.67,632.18,519.3Z" transform="translate(-137.86 -39.14)"/><path class="cls-4" d="M671,437.09c4.17,0,6.45,2.34,7,5.51,1,6.48-1.26,11.8-5.28,16.64-3.85,4.62-7.62,9.31-11.43,14-1.2,1.47-1.92,2-3.18-.27-1.47-2.71-3.76-5-5.59-7.51-.43-.61-.86-1.72-.6-2.25,3.09-6.08,6.07-12.25,9.61-18.07,1.62-2.65,4.34-4.69,6.74-6.79A7.67,7.67,0,0,1,671,437.09Z" transform="translate(-137.86 -39.14)"/><path class="cls-9" d="M221.29,833.85c-3.22,9.33-6.35,18.7-9.73,28-1.26,3.45-3.47.82-4.28-.21a90.69,90.69,0,0,1-8.35-12.1c-4.54-8.26-3.94-9.9,5-14.77a96.16,96.16,0,0,1,11.54-4.88C218.67,828.65,220.54,830.14,221.29,833.85Z" transform="translate(-137.86 -39.14)"/><path class="cls-10" d="M403.94,1027.86c-.63,1.7-1.66,3.36-1.8,5.11-.25,3-1.6,4.58-4.58,4.31-5.84-.53-10.12,1.35-12.27,7.14a2.16,2.16,0,0,1-1.69,1.1c-4.69-.32-7.15,2.34-8.84,6.24-.19.42-.95.6-1.45.89a38.84,38.84,0,0,0-7.47-15.33c4.34-1.55,8.75-2.91,13-4.73,2.3-1,3.22-3.29,4.44-5.59,1.56-2.92,5.22-4.71,8-7Z" transform="translate(-137.86 -39.14)"/><path class="cls-9" d="M384.72,1333.23c7.23,2.55,14.5,5,21.68,7.7,2.93,1.1,3.45,4.06,2.5,6.37a72.09,72.09,0,0,1-6.25,11.39c-1.21,1.89-3.19,2.09-5.19.58-7.43-5.63-12.57-13.13-17.18-21-1.29-2.19.74-4,4.09-4C384.49,1333.9,384.61,1333.56,384.72,1333.23Z" transform="translate(-137.86 -39.14)"/><path class="cls-10" d="M568.3,739.18a89.83,89.83,0,0,0,1.24-9,9.24,9.24,0,0,0-1.18-5,132.79,132.79,0,0,0-8.44-12.28c-2.12-2.69-7.8-3.15-10.92-1.66-3.29,1.58-6.71,2.92-10.07,4.36l2.13-12.75a24.14,24.14,0,0,1,15.44.11c1.19.7,1.1,1.94,1.27,3.07s.14,2.3,1.43,2.56,1.63-1,2-2c.29-.79.52-1.63,1.53-1.82,7.19,4.31,12.15,10,12,19-.09,6.69,0,13.39,0,20.09,0,.78-.76,1.55-1.16,2.32C571.9,743.71,569.73,741.72,568.3,739.18Z" transform="translate(-137.86 -39.14)"/><path class="cls-9" d="M283.54,1295c0-.85,0-1.69,0-2.54.12-4.26,2-5.51,5.71-3.47,7.11,4,12.5,9.78,17.39,16.18,2,2.59-.57,3.66-1.64,3.83a91.17,91.17,0,0,1-15.27,1.31c-1.45,0-3.56-2.29-4.15-4-1.27-3.6-1.76-7.47-2.56-11.23Z" transform="translate(-137.86 -39.14)"/><path class="cls-9" d="M1185.86,448.23c.76-1.81,1.78-4.48,3.19-4.84a10.9,10.9,0,0,1,7.26,1c3.29,1.79,4,5.36,4.16,9,.1,2.49,1,5,.9,7.45a85.53,85.53,0,0,1-1.13,10.2c0,.13-1.53.39-1.8.09-3-3.33-5.7-7-9-10.09-2.56-2.36-4.25-4.71-3.84-7.52" transform="translate(-137.86 -39.14)"/><path class="cls-4" d="M703.63,442.29c-8.57-.62-14.15-4-18.16-10.11-1.29-2-.26-3.14,1.41-4,5.74-2.92,11.48-2.27,17.37-.28,4.07,1.38,7.76,3,8.7,7.62.25,1.23-.57,3.51-1.56,4A51.93,51.93,0,0,1,703.63,442.29Z" transform="translate(-137.86 -39.14)"/><path class="cls-5" d="M310.31,995.15c-.74,0-1.47.1-2.21.1-6.63,0-7.36-.61-8-7.38-.53-5.69-2.17-10.23-8.8-11.51-1.75-.34-3.06-2.93-4.57-4.49,1.53-1.35,2.89-3,4.63-4a14.47,14.47,0,0,1,11.95-1.34c2.57,4.67,2.73,9.67,1.89,14.75a4.15,4.15,0,0,0,.84,3.1C308,987.74,310.72,990.85,310.31,995.15Z" transform="translate(-137.86 -39.14)"/><path class="cls-9" d="M172.45,421.26c.29-2.67.39-5.37.9-8,1-4.9,2-9.8,3.31-14.6a7.08,7.08,0,0,1,7.15-5.55c4.83-.08,8.42,5.09,6,9.32-2,3.56-4.83,6.69-7.44,9.89-1.4,1.72-3.22,3.09-4.66,4.77s-2.55,3.46-3.81,5.19Z" transform="translate(-137.86 -39.14)"/><path class="cls-6" d="M658.17,646.09c-5.4,0-7.32-2.59-5.65-7.65a34.74,34.74,0,0,1,10.91-16.26c1-.86,2.79-.88,4.21-1.28.27,1.38,1,2.82.76,4.13-.78,5.26-1.62,10.52-2.82,15.69C664.72,644.39,662.16,646.4,658.17,646.09Z" transform="translate(-137.86 -39.14)"/><path class="cls-9" d="M1145.89,666.36l-1.32,3.19a18.53,18.53,0,0,1-3.09-2.33c-3.5-4-7.06-8.05-10.21-12.36a13.45,13.45,0,0,1-2.12-6.39c-.46-4.63,1.22-6.52,5.31-6.84s5.92,1.65,6.78,6c1,5,2.63,9.86,3.94,14.8C1145.47,663.53,1145.59,664.68,1145.89,666.36Z" transform="translate(-137.86 -39.14)"/><path class="cls-9" d="M233,595.86c-.6,1.56-.84,3.11-1.68,4.2q-6.71,8.76-13.71,17.28a4.85,4.85,0,0,1-3,1.29c-1.94.23-2.69-.45-1.79-2.6,2.87-6.81,5.56-13.69,8.32-20.54,2.33-5.78,6.82-7.27,10.07-3.26A17.75,17.75,0,0,1,233,595.86Z" transform="translate(-137.86 -39.14)"/><path class="cls-9" d="M509.31,1349.56c5.32.61,10.95,1.13,16.53,2,.69.11,1.83,2.8,1.46,3.28a89.32,89.32,0,0,1-7.62,8.43,4,4,0,0,1-5.9.3c-3.84-3.08-7.75-6.07-11.52-9.23-.69-.58-1.36-2-1.1-2.66s1.61-1.28,2.57-1.49C505.46,1349.86,507.26,1349.79,509.31,1349.56Z" transform="translate(-137.86 -39.14)"/><path class="cls-9" d="M811.15,367c2.92.24,6.79-1.14,8.48,3.12s-2,5.79-4.14,8a62.28,62.28,0,0,1-6.54,5.92c-2.57,2.07-5,1.66-5.83-1.47a37.21,37.21,0,0,1-1.26-11.73c.08-1.38,2.8-2.9,4.6-3.77C807.67,366.54,809.37,367,811.15,367Z" transform="translate(-137.86 -39.14)"/><path class="cls-9" d="M780.58,302.78c-.2-7.37,7.44-13.32,12.83-11.34,1,.36,2.21,2.79,1.86,3.7q-3.56,9-7.86,17.78c-1,2-3.17,2.11-4-.24C782.06,309,781.22,305.11,780.58,302.78Z" transform="translate(-137.86 -39.14)"/><path class="cls-10" d="M310.31,995.15c-2.44-3.78-1.92-9.38-7-11.54-.13-.05-.3-.42-.25-.48,4.1-5.46.49-11.06.31-16.6l8.24,3.34a15.32,15.32,0,0,1-.88,11.28,2,2,0,0,0,.09,1.55c2.78,4.6,5.61,9.16,8.43,13.73Z" transform="translate(-137.86 -39.14)"/><path class="cls-10" d="M599.65,943.66c2.61,4.25,6,8.22,7.64,12.81a23,23,0,0,1-.83,18.28c-.22.47-1.18.58-1.8.85L601,971c-.63-3,.44-5.88.31-8.84-.08-2-.51-3.45-2.44-4.37a5,5,0,0,1-3.13-3.39Q597.68,949.06,599.65,943.66Z" transform="translate(-137.86 -39.14)"/><path class="cls-9" d="M351.72,1088.78c.28-6.27,11.11-15.14,16.17-13.25,3.64,1.37,4.22,3,2,6.34a25.18,25.18,0,0,1-13.35,10C353.44,1092.93,351.59,1091.62,351.72,1088.78Z" transform="translate(-137.86 -39.14)"/><path class="cls-6" d="M682.93,578.83c-.54,8-4.15,12.16-10.93,11.71-1.86-.12-4.69-1.2-5.16-2.53s.83-4,2.09-5.45a49.31,49.31,0,0,1,7.33-6.41,28.37,28.37,0,0,1,4.73-2.4C681.64,575.44,682.28,577.14,682.93,578.83Z" transform="translate(-137.86 -39.14)"/><path class="cls-11" d="M763.28,973.58c5.39,9.46,6.33,19.5,3.82,30l-6.36-5.69a4,4,0,0,1-.41-2.45,32.78,32.78,0,0,0-1.37-13.7,5.65,5.65,0,0,1-.14-3.72Q761,975.78,763.28,973.58Z" transform="translate(-137.86 -39.14)"/><path class="cls-12" d="M881.51,1053c6.74,3.46,13,6.65,19.24,9.93a15.45,15.45,0,0,1,3.87,2.7c.71.71.88,1.95,1.3,3-1,.16-2.24.75-3.09.42-4.71-1.84-9.27-4.06-14-5.83-2.53-1-5.5-.83-7.88-2a7.29,7.29,0,0,1-3.28-4.58C877.5,1055.79,879.89,1054.44,881.51,1053Z" transform="translate(-137.86 -39.14)"/><path class="cls-9" d="M639.19,1330.7a84.24,84.24,0,0,1,8.32,1.69c1.15.33,2,1.67,3,2.55-.92,1-1.68,2.7-2.8,3a23.32,23.32,0,0,1-17.64-1.9,2.6,2.6,0,0,1-1.05-2.26,3.42,3.42,0,0,1,2.07-2C633.55,1331.26,636.07,1331.09,639.19,1330.7Z" transform="translate(-137.86 -39.14)"/><path class="cls-9" d="M486.16,1097.09c0-3.4,1.87-5.66,4.58-5.62,3.92.06,9.5,4.64,9.43,7.74-.05,2.76-2.66,4.43-6.83,4.36C488.64,1103.5,486.13,1101.24,486.16,1097.09Z" transform="translate(-137.86 -39.14)"/><path class="cls-11" d="M442.21,1013.64c.74-3.86,4.46-3.58,7-4.82,3.24-1.6,6.74-2.67,10.13-4,.47,2.24.91,4.48,1.4,6.71.43,1.92.06,3-2.19,3.53C452.87,1016.41,447.56,1015,442.21,1013.64Z" transform="translate(-137.86 -39.14)"/><path class="cls-8" d="M758.82,978c2.3,6.46,3.67,13,1.92,19.87-2.08-1.58-4.23-3.07-6.21-4.76-3.93-3.35-4-5.93-.59-9.81C755.54,981.51,757.19,979.76,758.82,978Z" transform="translate(-137.86 -39.14)"/><path class="cls-6" d="M536.76,532.55c5.34,3,10.7,6,16,9a1.56,1.56,0,0,1,.5,1.39c-.87,2.68-1.82,5.34-2.91,7.93a3.45,3.45,0,0,1-2.38-.57c-4-5.7-7.93-11.51-11.87-17.29Z" transform="translate(-137.86 -39.14)"/><path class="cls-9" d="M691.6,1094c-3.66-.1-8.41-3.25-8.88-6a6.14,6.14,0,0,1,1.37-4.63c.59-.65,3.07-.43,4,.29a32.4,32.4,0,0,1,5.61,5.73,3.42,3.42,0,0,1,.38,3.12C693.54,1093.43,692.1,1093.76,691.6,1094Z" transform="translate(-137.86 -39.14)"/><path class="cls-9" d="M807.71,437.46c.91-4.64,1.87-6.88,4.74-6.75,2.68.11,6.07,2.84,6,5-.07,2.61-4.05,7.17-6,6.28S808.9,438.67,807.71,437.46Z" transform="translate(-137.86 -39.14)"/><path class="cls-10" d="M653.76,615c-4.36-.8-5-4.77-6.22-7.9-.87-2.23-.58-4.91-.8-7.39l5.07,1.27c.22.23.53.47.54.76.24,4.09,2.77,6.61,5.89,8.73Z" transform="translate(-137.86 -39.14)"/><path class="cls-5" d="M658.24,610.44c-5.25-1.73-6.39-3.41-6.43-9.49a43.11,43.11,0,0,1,6.46.65c4.14,1,4.84,4.07,1.84,7.19C659.54,609.38,658.87,609.89,658.24,610.44Z" transform="translate(-137.86 -39.14)"/><path class="cls-5" d="M595.7,954.44c1.75,1.12,3.56,2.17,5.23,3.41a2.82,2.82,0,0,1,1.12,2c-.26,3.73-.71,7.45-1.09,11.18-3-4-5.32-8.32-5.8-13.39A12.62,12.62,0,0,1,595.7,954.44Z" transform="translate(-137.86 -39.14)"/><path class="cls-10" d="M634.63,663.85c-3.21-6.5-.45-13.25,5.62-17.75.21.84.42,1.68.64,2.53a15,15,0,0,0-2.84,10.47,5.59,5.59,0,0,1-.27,2.81Z" transform="translate(-137.86 -39.14)"/><path class="cls-5" d="M637.78,661.91c-1.74-5.35-.37-11.23,3.11-13.28.63,2,1.43,4,1.86,6.12C643.57,658.76,640.56,660.3,637.78,661.91Z" transform="translate(-137.86 -39.14)"/><path class="cls-9" d="M760,1306.88l-3.59-3.38c2.11-1.22,4.1-2.78,6.36-3.57,1.8-.63,4,.24,3.61,2.58C765.9,1305.39,763.4,1306.24,760,1306.88Z" transform="translate(-137.86 -39.14)"/><path class="cls-3" d="M421.79,222.31c-.82,3.64-1.29,7.41-2.53,10.9-2.59,7.29-5.59,14.43-8.41,21.64,2.23-7.15,4.38-14.33,6.72-21.44C418.81,229.65,420.37,226,421.79,222.31Z" transform="translate(-137.86 -39.14)"/><path class="cls-12" d="M825.91,1087.09c-4-.48-4.74-2.91-4.93-5.33-.05-.71,2.47-2.33,2.57-2.23a28.09,28.09,0,0,1,4.46,5.17C828.19,1085,826.43,1086.51,825.91,1087.09Z" transform="translate(-137.86 -39.14)"/><path class="cls-9" d="M617.4,1093.44c-1.56-1.75-3.09-3.09-2.93-3.34a33.86,33.86,0,0,1,3.62-4.26c.83.91,2.5,2,2.34,2.69C620.07,1090,618.81,1091.3,617.4,1093.44Z" transform="translate(-137.86 -39.14)"/><path class="cls-10" d="M528.81,734.61q2.25,4.74,4.49,9.5a3.5,3.5,0,0,1-3.73,2q-.72-5.43-1.46-10.85Z" transform="translate(-137.86 -39.14)"/><path class="cls-10" d="M556.78,703.42l-15.72-.64a.66.66,0,0,1,0-.61c5.24-1.31,10.48-2.42,15.72,0A.78.78,0,0,1,556.78,703.42Z" transform="translate(-137.86 -39.14)"/><path class="cls-12" d="M748.08,1054.92c.86,1.47,1.67,2.27,1.68,3.08,0,.52-1.24,1.53-1.79,1.45a2.47,2.47,0,0,1-1.57-1.81C746.34,1057,747.2,1056.26,748.08,1054.92Z" transform="translate(-137.86 -39.14)"/><path class="cls-9" d="M868.19,1231.44c-1.59.75-2.41,1.48-3.06,1.36s-1.14-1.11-1.7-1.72c.62-.44,1.24-1.24,1.85-1.23S866.69,1230.57,868.19,1231.44Z" transform="translate(-137.86 -39.14)"/><path class="cls-13" d="M1042.15,420.37c3.54,3.83,7,7.78,10.66,11.45,2.64,2.61,2.24,7.75-1.3,11.12-2.34,2.24-6.7,1.72-9.18-1.25a5.74,5.74,0,0,1-1.15-3.35c-.11-6,0-11.95,0-17.93Z" transform="translate(-137.86 -39.14)"/><path class="cls-13" d="M1087.32,541.34c2.76,5.17,5.53,10.34,8.25,15.53a2.75,2.75,0,0,1,.32,1.82c-.61,2.12-.84,4.78-2.27,6.09-1,.9-4,.49-5.56-.4a5.79,5.79,0,0,1-3.13-6.47c.63-3.71.09-7.62.2-11.44a37.43,37.43,0,0,1,.73-4.77Z" transform="translate(-137.86 -39.14)"/><path class="cls-13" d="M1018.56,329.41c.33-1.16.65-2.32,1-3.48.81.61,1.61,1.24,2.44,1.83,2.3,1.61,5.11,2.81,6.77,4.92a13.24,13.24,0,0,1,2.6,7.45,5.46,5.46,0,0,1-4.41,5.68c-4,.95-6.78-1.3-7.41-6.62-.38-3.21-.4-6.47-.58-9.71Z" transform="translate(-137.86 -39.14)"/><path class="cls-13" d="M1035.41,607.86c-4.41-.05-6.16-2.24-5-6.9,1-4.22,2.52-8.34,3.89-12.47.19-.59.85-1,1.29-1.55a7.56,7.56,0,0,1,1.14,1.42c1.68,3.69,3.58,7.31,4.9,11.13C1043,603.57,1039.59,607.9,1035.41,607.86Z" transform="translate(-137.86 -39.14)"/><path class="cls-13" d="M1034.12,481.38c.72,4.7-2.83,6.79-7.21,6-2.9-.52-3.56-3.2-3.37-5.3a116.88,116.88,0,0,1,2.37-13.32c.09-.41,1.59-.92,1.6-.89" transform="translate(-137.86 -39.14)"/><path class="cls-13" d="M1006.83,380.68c3.36,3.19,6.95,5.53,8.86,8.84,1.15,2,.26,5.78-.89,8.19-.52,1.09-4.1,1.41-6,.9-1.22-.34-2.55-2.78-2.61-4.32C1006.07,390,1006.55,385.77,1006.83,380.68Z" transform="translate(-137.86 -39.14)"/><path class="cls-13" d="M983.73,277.38c-.61,4-2.14,5.52-5.67,5.52-3.23,0-4.81-1.89-4.93-5.48-.09-2.86-.58-5.71-.73-8.58a12.68,12.68,0,0,1,.63-3.14,14.22,14.22,0,0,1,2.38,1.53,78.19,78.19,0,0,1,5.8,5.86A26.83,26.83,0,0,1,983.73,277.38Z" transform="translate(-137.86 -39.14)"/><path class="cls-13" d="M1117.4,611.05c-4.4,0-6.6-2.09-6.11-6a47.18,47.18,0,0,1,2-8.16c.17-.57,1.27-.85,2-1.26,2.06,3.72,4.59,7.28,6,11.23C1122.19,609.5,1120.45,611.57,1117.4,611.05Z" transform="translate(-137.86 -39.14)"/><path class="cls-13" d="M1045,379.15c0-1.17-.09-2.34,0-3.5a22.31,22.31,0,0,1,.67-2.83c1,.46,2.36.64,2.9,1.41,2.12,3,5.36,5.49,4.72,9.87-.25,1.75-.21,3.34-2.7,3.34s-5,0-5.56-3.21A34.41,34.41,0,0,1,1045,379.15Z" transform="translate(-137.86 -39.14)"/><path class="cls-13" d="M1068.56,400.46c2.26,2.9,4.82,5.62,6.64,8.78a5.87,5.87,0,0,1-.14,5.31c-.81,1.12-3.4,1.63-5,1.27-1-.23-2-2.47-2.12-3.9-.44-3.75-.43-7.56-.6-11.34Z" transform="translate(-137.86 -39.14)"/><path class="cls-13" d="M1049.59,506.38c2.33,4,7,7,4.93,12.64-.75,2.06-1.79,3.81-4.19,3.21-2-.51-4.51-1-3.51-4.36C1047.93,514.1,1048.68,510.22,1049.59,506.38Z" transform="translate(-137.86 -39.14)"/><path class="cls-13" d="M1090.62,474.75c.27-1.32.48-2.65.81-3.95s.84-2.83,1.27-4.24c.87,1.24,1.77,2.46,2.6,3.72a38,38,0,0,1,3.1,5c.49,1.1.78,3.35.32,3.62a9,9,0,0,1-5.09,1.29c-1-.11-2-1.78-2.72-2.94" transform="translate(-137.86 -39.14)"/><path class="cls-13" d="M1035.4,553.79c.4-2.32.82-5,1.4-7.62,0-.23,1.55-.45,1.6-.34a87.5,87.5,0,0,1,3.93,9.47c.63,2,0,3.69-2.87,3.56-2.44-.11-4.23-.49-4.06-3.45C1035.42,555,1035.4,554.56,1035.4,553.79Z" transform="translate(-137.86 -39.14)"/><path class="cls-13" d="M990.72,315.7c-.57,2.38-.53,4.3-3.62,4.22-2.88-.08-3.52-1.41-3.35-4,.18-2.87,0-5.76.08-8.64,0-.45.22-1.15.53-1.28a1.47,1.47,0,0,1,1.39.3C987.46,309.42,989.08,312.57,990.72,315.7Z" transform="translate(-137.86 -39.14)"/><path class="cls-13" d="M955.77,224.31c.54-.63,1.14-1.86,1.61-1.81,3.29.31,7.49,5.12,7.21,8.33a3.83,3.83,0,0,1-1.82,2.87c-1.52.5-3.18.41-3.87-1.89a74.09,74.09,0,0,0-3.18-7.55Z" transform="translate(-137.86 -39.14)"/><path class="cls-13" d="M1011,282.56c-.14.08,0,0,0,0,3,3.9,6.12,7.76,9,11.78.2.28-1.07,2.29-1.87,2.45-1.72.35-3.8.74-4.34-2.1C1012.94,290.64,1011.9,286.65,1011,282.56Z" transform="translate(-137.86 -39.14)"/><path class="cls-13" d="M1069.81,586.51a1.71,1.71,0,0,1,0-.32c.33-1.47.68-2.94,1-4.42a38.74,38.74,0,0,1,4,4.11,6.4,6.4,0,0,1,.68,3.29c0,1.5.5,3.45-2,3.37-2.21-.06-3.94-.76-3.68-3.51C1069.87,588.2,1069.81,587.35,1069.81,586.51Z" transform="translate(-137.86 -39.14)"/><path class="cls-13" d="M1068.06,488c-1.09,1-2.39,2.68-2.78,2.48-1.22-.6-2.77-1.78-3-2.95a31.66,31.66,0,0,1,0-7.6c0-.47.94-.9,1.45-1.34a5.86,5.86,0,0,1,1,1.25C1065.81,482.29,1066.79,484.81,1068.06,488Z" transform="translate(-137.86 -39.14)"/><path class="cls-13" d="M330.69,379.58c0,6-.12,11.91.05,17.86.09,3.28-1.89,4.94-4.42,5.7-2.8.84-5.82.5-7.44-2.49-2.49-4.59-2.25-7.48,1.37-10.89,3.35-3.14,6.25-6.75,9.35-10.16Z" transform="translate(-137.86 -39.14)"/><path class="cls-13" d="M286.73,501c0,5.12-.36,10.27.13,15.34.3,3.09-.2,5.57-2.74,6.95a8.81,8.81,0,0,1-5.9.73c-1.06-.28-2.05-2.57-2.24-4.06-.68-5.38,2.45-9.55,5.1-13.76a54.24,54.24,0,0,1,4.3-5.31Z" transform="translate(-137.86 -39.14)"/><path class="cls-13" d="M353.28,288.82c-.7,4.28-1.1,8.66-2.25,12.84-.39,1.44-2.47,3-4,3.38a4.75,4.75,0,0,1-5.67-2.82c-2.28-5-1-9.09,3.74-11.84,1.61-.93,3.06-2.15,4.58-3.24l2.69-1.95C352.63,286.36,352.94,287.53,353.28,288.82Z" transform="translate(-137.86 -39.14)"/><path class="cls-13" d="M342,562.07c0,3.47-1.88,4.77-4.81,5-4.07.31-7.61-2-6.92-5.64.94-5.09,3.46-9.89,5.37-14.79,0-.06,1.34.13,1.43.41C338.79,552,340.4,557.05,342,562.07Z" transform="translate(-137.86 -39.14)"/><path class="cls-13" d="M337.7,438.6c.92-1.69,2.59-4.94,4.42-8.11a42.42,42.42,0,0,1,2.94-3.94,44.47,44.47,0,0,1,1.58,4.82,82.28,82.28,0,0,1,1.72,10.28c.25,3.32-2,5.07-5.7,5C339.2,446.6,337.7,444.76,337.7,438.6Z" transform="translate(-137.86 -39.14)"/><path class="cls-13" d="M365,340.05c.27,4.94.58,9.2.7,13.46.07,2.23-.65,4.28-3.28,4.53-2.92.28-6.17.69-6.72-3.53-.39-3-.69-6,2.33-8.23C360.38,344.55,362.42,342.39,365,340.05Z" transform="translate(-137.86 -39.14)"/><path class="cls-13" d="M388.19,236.17a22,22,0,0,1,2.08-3.56c2.19-2.54,4.53-5,6.86-7.39.28-.29,1-.57,1.21-.42.49.38,1.14,1,1.1,1.54a108.2,108.2,0,0,1-1.38,13.24c-.56,2.76-3.37,2.92-5.73,2.49C389.29,241.51,388.47,239.25,388.19,236.17Z" transform="translate(-137.86 -39.14)"/><path class="cls-13" d="M250.82,570.27c-3.78,0-5.8-3.53-3.81-7,1.53-2.68,3.35-5.2,5.12-7.73,1.29-1.83,2.25-.54,2.62.65a46.28,46.28,0,0,1,2,8.17C257.18,568.24,255,570.26,250.82,570.27Z" transform="translate(-137.86 -39.14)"/><path class="cls-13" d="M326.87,338.66c0,.85-.07,1.7,0,2.54.23,2.27-.07,4.53-2.46,5.21-1.56.43-4.55.32-4.91-.47a8.74,8.74,0,0,1-.42-6.27c1-2.54,3.05-4.69,4.82-6.88a2.47,2.47,0,0,1,2.2-.64c.43.14.67,1.32.72,2.06C326.94,335.69,326.87,337.18,326.87,338.66Z" transform="translate(-137.86 -39.14)"/><path class="cls-13" d="M304.39,359.8c-.19,4.15-.23,8.31-.66,12.44-.1,1.07-1.36,2.84-2.13,2.86-1.69,0-4-.34-5-1.46a5.09,5.09,0,0,1-.34-4.81,100.28,100.28,0,0,1,7-9.22Z" transform="translate(-137.86 -39.14)"/><path class="cls-13" d="M322.05,464.65c1.12,4.9,1.79,8.92,3,12.77.82,2.61-.74,3.35-2.4,3.53-1.49.17-3.93-.13-4.47-1.08-1.35-2.36-2.42-5.11-.44-7.94C319.2,469.83,320.37,467.52,322.05,464.65Z" transform="translate(-137.86 -39.14)"/><path class="cls-13" d="M281.11,434.24c.45,4.92-2.52,6-6,5.28-1.13-.23-3-2.36-2.81-2.73,1.94-3.74,4.24-7.3,6.44-10.92.5.52,1.33,1,1.44,1.56C280.63,429.68,280.83,432,281.11,434.24Z" transform="translate(-137.86 -39.14)"/><path class="cls-13" d="M336.64,513.49c-.14,2.24,0,4.59-3.19,4.47-1.32-.05-3.78-.8-3.76-1.09a54.66,54.66,0,0,1,1.33-7.56c.05-.2.58-.25.78-.47,2.51-2.72,2.55-2.74,4,1A25.41,25.41,0,0,1,336.64,513.49Z" transform="translate(-137.86 -39.14)"/><path class="cls-13" d="M381.17,274.61c1.63-3,3.23-6.09,4.93-9.09a1.47,1.47,0,0,1,1.39-.28c.32.15.49.85.5,1.31.05,2.78-.08,5.56.08,8.33.14,2.54-.17,4.26-3.39,4.26S381.7,277,381.17,274.61Z" transform="translate(-137.86 -39.14)"/><path class="cls-13" d="M257.89,508.41c2-3.92,3.69-7.35,5.59-10.65.29-.5,1.63-.39,2.49-.57-.13.73-.29,1.46-.39,2.19-.4,3-.84,5.93-1.14,8.9-.27,2.64-2.08,3.06-4.05,2.63C259.52,510.71,258.88,509.44,257.89,508.41Z" transform="translate(-137.86 -39.14)"/><path class="cls-13" d="M405.87,189.66c2.17-2.41,3.83-4.3,5.56-6.13a4.74,4.74,0,0,1,1.67-1.07,21.55,21.55,0,0,1,2.53-.72,21.11,21.11,0,0,1-.5,2.39,60.44,60.44,0,0,0-2.15,6.51c-.49,2.46-2.08,2.87-3.88,2.31C408.08,192.63,407.38,191.27,405.87,189.66Z" transform="translate(-137.86 -39.14)"/><path class="cls-13" d="M360.84,241.94c-.92,3.92-2,7.81-2.71,11.77-.57,3.31-2.95,2.59-4.79,2.21-.57-.11-1.39-2.84-.9-3.62,2.41-3.83,5.23-7.41,7.9-11.07Z" transform="translate(-137.86 -39.14)"/><path class="cls-13" d="M302,545.73c-.14,2.45,1,5.68-3,5.93-.85.06-2.64-1.46-2.55-2a31,31,0,0,1,2.27-7.07c.34-.76,1.71-1.06,2.61-1.57.24.93.53,1.85.69,2.8A11.9,11.9,0,0,1,302,545.73Z" transform="translate(-137.86 -39.14)"/><path class="cls-13" d="M304.15,447.26a66.64,66.64,0,0,1,1.91-7.13c.37-.94,1.55-1.56,2.36-2.33.61,1.13,1.65,2.23,1.74,3.39a14.61,14.61,0,0,1-.62,5.82,4.54,4.54,0,0,1-2.94,2.63C305.87,449.75,304.83,448,304.15,447.26Z" transform="translate(-137.86 -39.14)"/><path class="cls-14" d="M987.57,606c.29,3,0,6-3.17,7.17s-7.22,1-9.27-1.94c-1.68-2.41-2.93-6.21-2.31-8.93,1.13-5,3.7-9.76,5.84-14.54a4,4,0,0,1,2.44-2c.49-.1,1.63,1.24,1.91,2.12" transform="translate(-137.86 -39.14)"/><path class="cls-14" d="M978.51,495.05c1.76,4,3.76,8,5.21,12.15,1.29,3.7,1.91,7.63,2.94,11.42.7,2.6.43,5.48-1.93,6.26s-5.79.61-7.52-.74a10,10,0,0,1-3.7-10.84c1.54-5.94,2.72-12,4.06-18Z" transform="translate(-137.86 -39.14)"/><path class="cls-14" d="M884.39,594.84c.7-3,2-8.32,3.28-13.66A1.92,1.92,0,0,1,888.9,580a1.77,1.77,0,0,1,1.55.69c2.07,5.32,4.68,10.54,5.86,16.06,1.05,4.91-2.14,7.9-6.82,7.95C885.15,604.72,884.39,603.63,884.39,594.84Z" transform="translate(-137.86 -39.14)"/><path class="cls-14" d="M940.21,278.94c3.56,3.84,7,7.78,10.7,11.48,2.53,2.53,2.24,7.52-1.22,10.95-2.32,2.29-6.73,1.87-9.22-1a5.65,5.65,0,0,1-1.23-3.34c-.12-6,0-12,0-18Z" transform="translate(-137.86 -39.14)"/><path class="cls-14" d="M947.66,376.59c3.21,5.45,6.22,10.68,5.43,17a7.54,7.54,0,0,1-3,5c-1.19.71-4.09.22-5.08-.83-1.4-1.47-2.74-4.18-2.34-6C943.8,386.72,945.83,381.92,947.66,376.59Z" transform="translate(-137.86 -39.14)"/><path class="cls-14" d="M943.72,340.14c-.08,4.47-2,6.18-6.62,5.84-3-.22-4.3-2.56-3.68-6.53s1.24-8,2-11.93c.09-.44,1.17-.68,1.79-1C939.3,331.1,943.69,334.59,943.72,340.14Z" transform="translate(-137.86 -39.14)"/><path class="cls-14" d="M929,550.74c0,4.72-2,6.46-6.5,6.14-2.51-.17-4.18-2.64-3.64-5.85.72-4.31,1.62-8.59,2.55-12.86.16-.72.9-1.32,1.37-2A13.06,13.06,0,0,1,924,538c1.67,3.7,3.32,7.4,4.89,11.15A3.48,3.48,0,0,1,929,550.74Z" transform="translate(-137.86 -39.14)"/><path class="cls-14" d="M846.74,574.7c.23,5.1.59,10.21.64,15.32,0,2.6-1.18,4.88-4.11,5-2.73.13-6.36,1.27-6.93-3.18-.18-1.41.13-3.59,1.07-4.3,4.42-3.35,6-8.54,8.87-12.86C846.31,574.66,846.48,574.7,846.74,574.7Z" transform="translate(-137.86 -39.14)"/><path class="cls-14" d="M877.38,549.54a38.48,38.48,0,0,0,0,4.43c.31,2.66-1,4.48-3.27,5-1.55.37-4.28.2-4.85-.73a7.92,7.92,0,0,1-.82-6c1-2.94,3.17-5.48,4.66-8.29.61-1.15.62-2.61,1.13-3.84.26-.65,1-1.11,1.52-1.65.32.55.86,1.07.93,1.65" transform="translate(-137.86 -39.14)"/><path class="cls-14" d="M938,462c-5,0-4.33-3.76-4.36-6.28,0-3.91,1-7.83,1.78-11.71.58-2,2-.57,2.08-.43,2,4.86,6.11,9,4.47,15.12C941.33,461.1,941,462,938,462Z" transform="translate(-137.86 -39.14)"/><path class="cls-14" d="M936.54,600.45a1.46,1.46,0,0,1,0,.55c-.31,1.32-.4,3.35-1.45,4.49-.82.89-2.43,1.06-3.9,1.35a1.42,1.42,0,0,1-1.37-.55c-1-1.28-3.79-1.62-2.3-4.51,1.37-2.64,1.7-5.79,3-8.5.45-1,2.21-1.47,3.47-1.85.23-.07,1.18,1.47,1.4,2.37C935.82,595.84,936.1,597.93,936.54,600.45Z" transform="translate(-137.86 -39.14)"/><path class="cls-14" d="M944.55,500.54c-.83,2.48.55,6.17-3.44,5.88s-2.5-3.81-2.43-6.06a62.76,62.76,0,0,1,1.18-8.69c.09-.58.64-1.1,1-1.64.63.42,1.68.74,1.82,1.29C943.42,494.45,944,497.63,944.55,500.54Z" transform="translate(-137.86 -39.14)"/><path class="cls-14" d="M990.56,562.55c-.52,1.22-.84,3.37-1.67,3.59a9,9,0,0,1-5.13-.61c-.48-.18-.55-2.06-.44-3.12a49.26,49.26,0,0,1,1.18-7,3.7,3.7,0,0,1,1.92-2.17c.38-.17,1.71.86,2,1.57C989.23,557.2,989.8,559.74,990.56,562.55Z" transform="translate(-137.86 -39.14)"/><path class="cls-14" d="M975.61,427.72a4,4,0,0,1,1.83-1.93,2,2,0,0,1,1.73.88,68,68,0,0,1,2.58,8.9c.16.78-1.11,2.59-1.77,2.62a4.1,4.1,0,0,1-3.27-1.6c-.88-1.81-1.08-3.95-1.57-6" transform="translate(-137.86 -39.14)"/><path class="cls-14" d="M901.93,507.43c-.33,3-.61,6-1,9v0a1.89,1.89,0,0,1-2.6,1.38,7.84,7.84,0,0,1-1.75-.91,2.32,2.32,0,0,1-.56-2.2c1.62-2.61,3.46-5.07,5.22-7.59Z" transform="translate(-137.86 -39.14)"/><path class="cls-14" d="M928.4,412.31c-.29,2.85-.26,4.9-.82,6.77-.2.69-1.79,1-2.75,1.42-.35-.75-1.09-1.55-1-2.22a30.8,30.8,0,0,1,1.54-5.72,12.82,12.82,0,0,1,1.87-2.68Z" transform="translate(-137.86 -39.14)"/><path class="cls-14" d="M946,262.22c-.84.48-2.17,1.69-2.67,1.41a4.65,4.65,0,0,1-2-2.94,9.89,9.89,0,0,1,.53-4,6.79,6.79,0,0,1,1.12-1.8c.6.47,1.52.83,1.72,1.44A56.09,56.09,0,0,1,946,262.22Z" transform="translate(-137.86 -39.14)"/><path class="cls-14" d="M959.16,342.33l2.8-4.54a37.74,37.74,0,0,1,2.64,5.43c.43,1.38.21,3.41-2,2.64C961.32,345.4,960.47,343.74,959.16,342.33Z" transform="translate(-137.86 -39.14)"/><path class="cls-14" d="M378.07,564.73c2-6.12,3.93-12.27,6.06-18.34.94-2.66,2.79-1.89,3.62-.09,2.38,5.13,4.91,10.28,6.46,15.69,1.82,6.29-5.36,12.72-11.51,10.63" transform="translate(-137.86 -39.14)"/><path class="cls-14" d="M389,454.51c1.54,6.46,3.15,12.9,4.61,19.38,1.23,5.48-4.63,11.75-10.14,11-2.61-.36-4.36-3.48-3.61-6.61,1-4,1.76-8.13,3.12-12,1.43-4.08,3.44-8,5.19-11.93Z" transform="translate(-137.86 -39.14)"/><path class="cls-14" d="M427.54,238.25c0,5.9-.12,11.8,0,17.69.09,3.29-1.86,5-4.42,5.74-3,.87-5.92.38-7.61-2.79-2.44-4.57-2-6.8,1.65-10.62,3.18-3.31,6.19-6.77,9.28-10.16Z" transform="translate(-137.86 -39.14)"/><path class="cls-14" d="M482.92,556.53c-.6,2.74.09,6.21-3,7-2.27.58-5.34-.43-7.58-1.61-3.19-1.68-2.68-5.24-1.85-7.92a148,148,0,0,1,5.6-13.88,1.81,1.81,0,0,1,1.43-.94,2.25,2.25,0,0,1,1.49,1.29C480.41,545.8,481.65,551.17,482.92,556.53Z" transform="translate(-137.86 -39.14)"/><path class="cls-14" d="M412.56,350.83c1.95-4.64,3.89-9.28,5.87-13.9.13-.3.52-.48.79-.72a5.27,5.27,0,0,1,.63,1c1.33,4.26,2.49,8.58,4,12.78,1,2.66.47,5-1.57,6.45-1.51,1.06-4.25,1.95-5.59,1.26" transform="translate(-137.86 -39.14)"/><path class="cls-14" d="M426.56,289.44a37.35,37.35,0,0,1,3.38-4.3,49.31,49.31,0,0,1,1.51,5c.66,3.33,1.66,6.72,1.56,10.05s-1.48,5.33-5.33,5.07c-3.43-.23-5.2-1.81-5.24-5.25" transform="translate(-137.86 -39.14)"/><path class="cls-14" d="M437.22,510.4c1.93-4.8,3.84-9.6,5.86-14.36a3,3,0,0,1,1.76.23c1,5.49,2.36,11,2.7,16.51.22,3.58-3.17,3.73-5.84,3.26C438.84,515.54,437.41,513.61,437.22,510.4Z" transform="translate(-137.86 -39.14)"/><path class="cls-14" d="M433.55,412.51c-.34,1.73-.57,3.06-.88,4.37a4.79,4.79,0,0,1-6.8,3.54c-.42-.2-.67-.91-.86-1.43-2.28-6.27,1.74-11,4.12-16.06.08-.17,2.09.11,2.2.46C432.22,406.49,432.89,409.65,433.55,412.51Z" transform="translate(-137.86 -39.14)"/><path class="cls-14" d="M434.38,566.44c-2.85-.17-4.89-4.38-4-8.21.4-1.72.57-3.5,1-5.2a12.09,12.09,0,0,1,1.43-2.5c1.2.74,2.95,1.2,3.49,2.27,1.14,2.29,1.54,4.94,2.46,7.36C440.13,563.71,438.13,566.66,434.38,566.44Z" transform="translate(-137.86 -39.14)"/><path class="cls-14" d="M422.17,459.9c.58-3.07,1.09-6.15,1.81-9.18.14-.6,1.12-1,1.71-1.48.41.59,1.08,1.14,1.18,1.77.51,3.52.94,7.06,1.29,10.6.19,2,0,3.94-2.65,4.14-2.91.22-2.51-2.25-3-3.9a6.69,6.69,0,0,1,0-1.9Z" transform="translate(-137.86 -39.14)"/><path class="cls-14" d="M376.19,521.73c.71-2.73,1.21-5.18,2-7.51.29-.8,1.44-1.29,2.19-1.92.63.78,1.6,1.47,1.81,2.35a45.45,45.45,0,0,1,.83,6.18c.13,1.29.5,3.56.08,3.73a9.77,9.77,0,0,1-5.37.78C377,525.18,376.68,522.94,376.19,521.73Z" transform="translate(-137.86 -39.14)"/><path class="cls-14" d="M391.6,390.19c-.49,1.9-.7,3.95-1.59,5.63a4.14,4.14,0,0,1-3.28,1.59c-.66,0-1.91-1.84-1.76-2.63a68.05,68.05,0,0,1,2.6-8.9c.16-.46,1.36-1.05,1.72-.86a3.75,3.75,0,0,1,1.82,1.93,10.6,10.6,0,0,1,.07,3.14Z" transform="translate(-137.86 -39.14)"/><path class="cls-14" d="M373.51,603c.51.71,1,1.09,1.1,1.56a73.79,73.79,0,0,1,1.49,7.65c.11.95-.3,2.49-1,2.89a5.76,5.76,0,0,1-3.76.48c-.53-.11-1.2-1.68-1.08-2.47A81.81,81.81,0,0,1,372,605C372.2,604.35,372.85,603.86,373.51,603Z" transform="translate(-137.86 -39.14)"/><path class="cls-14" d="M465.49,466.4c1.76,2.52,3.6,5,5.22,7.59a2.3,2.3,0,0,1-.57,2.19,17.79,17.79,0,0,1-3.57,1.62,10,10,0,0,1-.78-2.12c-.38-3-.67-6-1-9Z" transform="translate(-137.86 -39.14)"/><path class="cls-14" d="M437.67,371.29l1.15-2.19a11,11,0,0,1,1.73,2.38,48.6,48.6,0,0,1,2,6.57c.1.44-.82,1.59-1.23,1.57-1-.05-2.61-.43-2.75-1A56.33,56.33,0,0,1,437.67,371.29Z" transform="translate(-137.86 -39.14)"/><path class="cls-14" d="M433.21,221.59c-.39.26-1.27,1.3-2.12,1.27s-2.16-1.2-2.15-1.86a22.63,22.63,0,0,1,1-5.78,2,2,0,0,1,1.6-1c.39,0,.94.91,1,1.47C432.87,217.33,433,219,433.21,221.59Z" transform="translate(-137.86 -39.14)"/><path class="cls-14" d="M407.54,302.19c-1.39,1.18-2.34,2.59-3.57,2.9-2.43.61-2.21-1.63-1.82-2.81a31.91,31.91,0,0,1,2.79-5.29Z" transform="translate(-137.86 -39.14)"/><path class="cls-15" d="M1113.21,385.52a2,2,0,0,1,1.24-1.19,1.79,1.79,0,0,1,1.56.68c2.07,5.68,4.57,11.27,5.87,17.13.91,4.14-2.56,6.92-7.1,6.92-3.93,0-4.83-1.22-4.83-6.53" transform="translate(-137.86 -39.14)"/><path class="cls-15" d="M1113.89,314.57c-1.07,1.41-1.84,3.45-3.26,4.09-2.32,1-5.41,1.62-7.05-1.15a61.44,61.44,0,0,1-4.38-9.83,70.38,70.38,0,0,1-2.33-8.36c-.09-.36.83-1.39,1-1.33,6.45,2.27,11.92,5.81,14.85,12.3" transform="translate(-137.86 -39.14)"/><path class="cls-15" d="M1140.34,370.81c-5.6.08-7.29-1.69-7.5-5.87-.22-4.48-.84-8.94-1.16-13.41a16.67,16.67,0,0,1,.49-3.54,11.14,11.14,0,0,1,2.77,1.71c3.07,3.56,6.14,7.13,8.94,10.9,1.79,2.4,1.43,5.25-.23,7.58A12.47,12.47,0,0,1,1140.34,370.81Z" transform="translate(-137.86 -39.14)"/><path class="cls-15" d="M970,175.56c-3-3.26-5.54-7-8.24-10.57a9.36,9.36,0,0,1-.8-1.58,5.14,5.14,0,0,1,1.76.05q8.21,3.58,16.36,7.26c2.68,1.22,3.1,3.62,2.55,6.07-.46,2-1.64,3.72-4.36,2.76" transform="translate(-137.86 -39.14)"/><path class="cls-15" d="M1072.46,238.09c-1.17,1.33-2.11,3.43-3.55,3.85a6,6,0,0,1-7.33-3.28c-1.81-4-2.89-8.36-4.19-12.6-.08-.24.66-1.05,1.07-1.09C1063.11,224.52,1071.73,232.67,1072.46,238.09Z" transform="translate(-137.86 -39.14)"/><path class="cls-15" d="M931.4,124.87c5.61-.16,10.78,1.88,15.46,4.56,1.61.92,1.74,4.51,2.4,6.92.08.28-.71,1-1.22,1.2-3.25,1.14-7.42-.75-9.28-3.8a24,24,0,0,0-3.85-4.53,49,49,0,0,0-4.28-3.39Z" transform="translate(-137.86 -39.14)"/><path class="cls-15" d="M1061.44,279.5c-2.35.82-5.11.58-6.32-2.49-1-2.7-2.13-5.39-3.07-8.13a6.24,6.24,0,0,1,.09-2.18,9.58,9.58,0,0,1,1.95.34c2,.77,4,1.75,6.09,2.4,2.68.86,4.57,2.13,3.8,5.42" transform="translate(-137.86 -39.14)"/><path class="cls-15" d="M1006.86,196.46c-.87,1.72-1.27,3.29-1.76,3.32-1.7.11-3.81.22-5.05-.67-2.08-1.49-3.67-3.7-5.33-5.71a6.29,6.29,0,0,1-.67-2.27,6.62,6.62,0,0,1,2.11-.11,52.46,52.46,0,0,1,7.33,2.43C1004.77,194,1005.69,195.38,1006.86,196.46Z" transform="translate(-137.86 -39.14)"/><path class="cls-15" d="M1024.34,193.06c-3.9,0-8.54-3.5-9.16-6.87a2.41,2.41,0,0,1,1.34-2c2.92-.51,8.54,3.4,9.6,6.15C1027,192.67,1026.25,193.3,1024.34,193.06Z" transform="translate(-137.86 -39.14)"/><path class="cls-15" d="M1028.39,233.91c-.06.12-.48,1.68-.87,1.67-1.46,0-3.6-.11-4.23-1-1.47-2.16-2.26-4.8-3.22-7.28a7.32,7.32,0,0,1-.14-2.21,8.44,8.44,0,0,1,2.5-.07C1024.87,225.64,1028.38,230.5,1028.39,233.91Z" transform="translate(-137.86 -39.14)"/><path class="cls-15" d="M1094,270.93c-.34.51-.8,2-1.47,2.06a4.74,4.74,0,0,1-3.68-.86,44.28,44.28,0,0,1-4.7-6.52,1.77,1.77,0,0,1,.39-1.71C1086.87,262.8,1094,267.78,1094,270.93Z" transform="translate(-137.86 -39.14)"/><path class="cls-15" d="M1105.89,344.07c-2.85,0-6.59-4.27-6.08-7a2,2,0,0,1,1.3-1.21c2.7-.52,7,2.55,7.54,5.23C1109.14,343.58,1108.66,344.1,1105.89,344.07Z" transform="translate(-137.86 -39.14)"/><path class="cls-15" d="M266.27,367.1c-.58,2.74.12,6-2.71,7.2a7.42,7.42,0,0,1-7.92-1.47c-2.75-2.32-2.59-5.36-1.78-8a142.88,142.88,0,0,1,5.63-14,1.93,1.93,0,0,1,1.46-.92,1.83,1.83,0,0,1,1.4,1C263.72,356.27,265,361.69,266.27,367.1Z" transform="translate(-137.86 -39.14)"/><path class="cls-15" d="M262.37,280.38c.19-7.41,4.62-10.8,9.17-14a29.92,29.92,0,0,1,6.16-2.81c.27-.1,1.31.77,1.25.95-1.78,5.6-3.57,11.21-5.56,16.74-1.34,3.74-4.56,4.06-7.82,3.37C262.83,284.09,262,282,262.37,280.38Z" transform="translate(-137.86 -39.14)"/><path class="cls-15" d="M226.28,337.52c-2.22-1.51-4.52-2.23-5-3.57-.79-2.36-1.47-5.72-.36-7.54,2.64-4.32,6.32-8,9.67-11.88.46-.52,1.42-.61,2.14-.91a8.3,8.3,0,0,1,.41,2c-.39,5.74-.46,11.55-1.49,17.18C231.37,334.57,228.37,335.8,226.28,337.52Z" transform="translate(-137.86 -39.14)"/><path class="cls-15" d="M397.27,146c-1.18-1.24-3-2.31-3.08-3.45-.07-2,.39-5.06,1.68-5.76,5.58-3.05,11.54-5.42,17.38-8a1.47,1.47,0,0,1,1.19.11,1.11,1.11,0,0,1,0,1c-4.16,4.71-8.3,9.47-12.62,14C400.93,144.93,399.31,145.16,397.27,146Z" transform="translate(-137.86 -39.14)"/><path class="cls-15" d="M302.53,203c2.1-3,3.39-5.52,5.37-7.33,2.18-2,5-3.37,7.56-4.83.72-.4,1.81-.14,2.73-.18a13.84,13.84,0,0,1-.28,2.25c-1,3.46-2.05,6.92-3.2,10.34-1,2.88-4.9,5.32-7.74,4.3C305.43,207,304.41,205,302.53,203Z" transform="translate(-137.86 -39.14)"/><path class="cls-15" d="M444.62,89.94c-3.31,4.29-6.06,7.88-8.85,11.44-1.34,1.73-7.89,2.6-9.08,1.26-1.59-1.79.61-7.56,3.44-8.66,2.32-.9,4.72-1.6,7.12-2.27S441.84,90.6,444.62,89.94Z" transform="translate(-137.86 -39.14)"/><path class="cls-15" d="M314.93,235.17c2.28-1,4.73-1.62,7-2.69,1.53-.72,2.16-.26,1.72,1.1-1.11,3.43-2.1,7-4,10-.76,1.23-3.91,1.92-5.5,1.4-1.44-.47-2.24-2.91-3.32-4.49" transform="translate(-137.86 -39.14)"/><path class="cls-15" d="M371.55,165.68c-.29-.28-1.81-1-1.84-1.84-.07-1.58-1.32-3.85,1.67-4.62s5.65-2,8.53-2.79c.41-.11,1.66.93,1.64,1.39C381.47,159.55,374.28,165.64,371.55,165.68Z" transform="translate(-137.86 -39.14)"/><path class="cls-15" d="M350.82,158.65c-.16-.06-1.49-.41-1.47-.64.11-1.31.12-3.2.94-3.76a46.45,46.45,0,0,1,8.36-4.44c1.53-.64,2.32.39,1.86,2.1C359.59,155.34,355.15,158.66,350.82,158.65Z" transform="translate(-137.86 -39.14)"/><path class="cls-15" d="M348.76,202c-.59-1-1.36-1.86-1.44-2.72-.28-3,3.14-8,5.93-8.59.84-.18,1.91.72,2.88,1.13-1.29,2.91-2.47,5.88-4,8.68C351.81,201.13,350.42,201.26,348.76,202Z" transform="translate(-137.86 -39.14)"/><path class="cls-15" d="M290.72,228.85c.47.8,1.14,1.55,1,1.74a68.78,68.78,0,0,1-5.73,7.58c-.53.57-2.33,0-3.54-.1.24-1.8-.16-4.31.87-5.26C285.2,231.07,287.94,230.25,290.72,228.85Z" transform="translate(-137.86 -39.14)"/><path class="cls-15" d="M269.19,309.66c-2.57.63-2.42-1.28-2.16-3,.41-2.69,4.81-5.76,7.5-5.21a2.13,2.13,0,0,1,1.3,1.51C276.05,306.05,272.48,309.7,269.19,309.66Z" transform="translate(-137.86 -39.14)"/><path d="M556.78,703.42v-1.25c.89-11.3,1.09-22.71,2.82-33.88,2.36-15.21,4.58-30.64,12-44.49,4.23-7.88,9.65-15,17-20.38,1.14-.85,3-.66,4.61-.94-.08,1.55.36,3.4-.33,4.62-2.92,5.18-6.19,10.16-9.31,15.23a8,8,0,0,0-1.42,2.76c-.17,1.12-.2,2.85.45,3.37a4.2,4.2,0,0,0,3.62.34c4.21-1.88,8.23-4.19,12.42-6.11,4.36-2,10-2.34,12.61.85s1.89,6.22,1.2,9.54A33.43,33.43,0,0,1,603,650.46c-1.18,1.16-3.31,1.4-5,1.92-.15,0-.64-1.09-1-1.68.08-1.57,1.06-2.74,1.83-4a33.44,33.44,0,0,0,4.09-11.3c.58-3.11-.73-4.14-3.78-3.14-5.14,1.69-9.42,4.81-13.42,8.31-2.13,1.87-2.12,3.54-.22,5.79,1.16,1.37,2.55,2.54,3.76,3.88.74.82,1.87,1.5,1.5,2.92a91.07,91.07,0,0,1-9.5-.17c-5-.6-8.58,1.11-9.7,5.9-2.15,9.19-3.93,18.46-5.73,27.73-1.16,6-2.08,12.06-3.11,18.09a8.81,8.81,0,0,1-.81,2.9c-.66.9-1.74,2-2.71,2-.71.06-1.91-1.23-2.21-2.15A14.78,14.78,0,0,1,556.78,703.42Z" transform="translate(-137.86 -39.14)"/><path d="M568.3,739.18l5.23,6.93c1.35,4.31-1,11.31-4.65,13.79-3.16,2.14-8.37.37-10.73-3.66-.48-.81-.92-1.65-1.37-2.47C552.66,747.31,559.88,737.64,568.3,739.18Z" transform="translate(-137.86 -39.14)"/><path class="cls-5" d="M590.76,653.17c-2-2.07-4-4.13-5.91-6.21-2.54-2.69-2.63-5.09.4-7.14a167.15,167.15,0,0,1,14.36-8.65c2.59-1.39,4.85.28,4.37,3.17-1,6-2.87,11.67-7,16.36Z" transform="translate(-137.86 -39.14)"/><path d="M529.57,746.13l3.73-2c5.58.43,8.09,3.94,9,9-.43,1.38-.76,2.8-1.31,4.12-1.59,3.81-5.23,5.61-9.45,4.77-3.49-.69-5.73-3.47-5.15-7.71C526.82,751.49,528.48,748.85,529.57,746.13Z" transform="translate(-137.86 -39.14)"/><path class="cls-16" d="M620.8,637.43c-.82-.31-2.47-.6-2.5-1a5.56,5.56,0,0,1,.82-3.7c2.16-2.53,4.45-4.72,8.41-4.62,3.13.08,3.22,2.15,3.79,4,.7,2.21-.68,3.33-2.66,3.76C626.13,636.42,623.57,636.88,620.8,637.43Z" transform="translate(-137.86 -39.14)"/><path class="cls-16" d="M624.77,639.05c5.42.67,6.5,1.47,5.94,5.37-.15,1-1.41,2.65-2.05,2.6a70.31,70.31,0,0,1-10.39-1.69c-.25-.06-.47-3.11.13-3.51A38.2,38.2,0,0,1,624.77,639.05Z" transform="translate(-137.86 -39.14)"/><path class="cls-16" d="M626,655.85c-.49.89-1.07,2.76-1.59,2.74-1.89-.07-4.07-.3-5.54-1.33a20.14,20.14,0,0,1-4.77-5.36c-1-1.49-1.25-3.76,1.54-3.15a43.31,43.31,0,0,1,9.34,3.59C625.67,652.66,625.65,654.38,626,655.85Z" transform="translate(-137.86 -39.14)"/><path class="cls-15" d="M725.11,846.34c-.06,3.6-4.52,7.81-7.85,8.1-3.93.34-8-2.36-8-6.26.05-6.8.86-13.6,1.43-20.39a15.17,15.17,0,0,1,1-3.9,24.9,24.9,0,0,1,1.7-3.12,19.34,19.34,0,0,1,2,2.89q4.74,10.27,9.3,20.62A6.46,6.46,0,0,1,725.11,846.34Z" transform="translate(-137.86 -39.14)"/><path class="cls-15" d="M668.9,860.18c-4.52,0-6.17-1.72-6.26-6.26-.14-7.16,1.89-13.75,4.94-20.13,1.19-2.5,2.8-2.06,3.65-.24,2.44,5.27,5,10.56,6.54,16.13C679.24,855.06,674.43,860.19,668.9,860.18Z" transform="translate(-137.86 -39.14)"/><path class="cls-15" d="M748,845.79c-.56,2.74.09,6.14-2.86,7-2.13.64-5.05-.36-7.3-1.35-3.38-1.48-3.11-5.05-2.34-7.65,1.49-5,3.78-9.78,5.83-14.61a1.81,1.81,0,0,1,1.53-.76,1.9,1.9,0,0,1,1.3,1.12C745.46,835,746.7,840.38,748,845.79Z" transform="translate(-137.86 -39.14)"/><path class="cls-15" d="M695.16,858.36a6.76,6.76,0,0,1,.06-2.51c.34-.79,1.13-1.9,1.8-2,3.57-.26,3.92,3.14,4.77,5.24.7,1.74,1.63,4.5-1.19,6-2.41,1.32-4,.56-4.76-1.92a43.82,43.82,0,0,1-.91-4.86Z" transform="translate(-137.86 -39.14)"/><path class="cls-15" d="M772.67,818.52a49,49,0,0,1-1.22,6.11c-.25.71-1.58,1.74-2,1.57-.91-.38-2.09-1.33-2.21-2.19a89.07,89.07,0,0,1-.71-9.39c0-.71.4-2,.67-2.06,1,0,2.42,0,2.82.65A39.8,39.8,0,0,1,772.67,818.52Z" transform="translate(-137.86 -39.14)"/><path class="cls-15" d="M660,808c.58-2.1,1.29-4.79,2.12-7.43.07-.2,1.52-.23,1.55-.13,1,3.67,2,7.35,2.62,11.09,0,.26-2.33,1.22-3.63,1.35a3.08,3.08,0,0,1-2.26-1.45C659.94,810.74,660.12,809.64,660,808Z" transform="translate(-137.86 -39.14)"/><path class="cls-15" d="M748.74,814.47c.86-2.48,1.64-4.82,2.5-7.12.16-.43.66-.74,1-1.11a4.49,4.49,0,0,1,.84,1.23,57.09,57.09,0,0,1,1.84,6.87c.18,1.1,0,2.81-.77,3.4a4,4,0,0,1-3.64.45C749.59,817.61,749.37,815.9,748.74,814.47Z" transform="translate(-137.86 -39.14)"/><path class="cls-15" d="M731.43,819.81c.31-1.92-1.13-4.55,2.74-4.31,4.08.25,2.66,3.18,3,5.26.42,2.43-.43,3.77-3.14,3.76C730,824.52,732,821.43,731.43,819.81Z" transform="translate(-137.86 -39.14)"/><path class="cls-15" d="M654.37,828.64c0,5.38-.39,6-3.83,5.36-.67-.12-1.84-1-1.77-1.27a76.44,76.44,0,0,1,3-8.15c.18-.43,1.47-.38,2.25-.54a21,21,0,0,1,.35,2.08C654.42,827,654.37,827.8,654.37,828.64Z" transform="translate(-137.86 -39.14)"/><path class="cls-15" d="M690.78,813.73c.4,3.44.87,6.88,1.16,10.33.25,3-2.11,2.47-3.72,2.2-.54-.09-1.28-1.86-1.12-2.7.66-3.31,1.64-6.56,2.51-9.84Z" transform="translate(-137.86 -39.14)"/><path class="cls-15" d="M717.32,917.5c.26-3.77.49-7.55.81-11.31,0-.48.57-1.31.84-1.3a2.51,2.51,0,0,1,1.73.81c2.5,3.31,5,6.66,7.35,10.07,3.42,4.89.79,10.54-5,11.9-2.51.59-5.29-1.95-5.56-5.08-.14-1.68,0-3.39,0-5.08Z" transform="translate(-137.86 -39.14)"/><path class="cls-15" d="M748.7,881c5.21,2.43,9.51,4.74,14,6.44,2.42.91,2.22,2.24,1.1,3.44-1.63,1.78-2.5,4.46-5.86,4.44-3.74,0-4.65-3.24-6.1-5.22C750.1,887.68,749.74,884.23,748.7,881Z" transform="translate(-137.86 -39.14)"/><path class="cls-15" d="M677.31,898.49a37.43,37.43,0,0,0,0,3.82c.27,2.46-1.27,3.52-3.23,3.66s-4.89,1.16-5.11-2.66c-.09-1.46-1.28-3.53-.69-4.22a63.81,63.81,0,0,1,7.53-6.86c.09-.08,1.36.72,1.41,1.19A50.37,50.37,0,0,1,677.31,898.49Z" transform="translate(-137.86 -39.14)"/><path class="cls-15" d="M693.45,917.21c.92-3,1.75-5.82,2.75-8.6.19-.51,1.12-.74,1.7-1.1a16.73,16.73,0,0,1,.43,1.69c.34,2.34.72,4.69.94,7,.09.94.12,2.5-.37,2.77a7.28,7.28,0,0,1-4,.79C694.37,919.75,694,918.23,693.45,917.21Z" transform="translate(-137.86 -39.14)"/><path class="cls-15" d="M727.55,891.53c2.32,2.1,4.17,3.37,5.47,5.06,1.45,1.89,1.87,4.15-.81,5.55a5.07,5.07,0,0,1-3.25.51c-.41-.1-.55-1.74-.66-2.7C728,897.47,727.85,895,727.55,891.53Z" transform="translate(-137.86 -39.14)"/><path class="cls-15" d="M691.25,895.55c1.45,1.89,2.57,2.69,2.52,3.42-.14,2.23.19,5.25-3.34,5-1-.06-2.89-2-2.72-2.5C688.28,899.74,689.59,898.19,691.25,895.55Z" transform="translate(-137.86 -39.14)"/><path class="cls-15" d="M661.87,882.32c.35.37,2.22.56,2.13.68-1.32,1.82.23,6.81-4.28,6.35-.81-.08-1.92-1.81-2.07-2.89C657.3,883.91,658.91,882.7,661.87,882.32Z" transform="translate(-137.86 -39.14)"/><path class="cls-15" d="M743.35,904.93c3.88.17,7.21,3.61,6.52,6.92-.17.81-1.21,1.43-1.86,2.14a9.3,9.3,0,0,1-1.27-1.63C745.59,910,744.52,907.5,743.35,904.93Z" transform="translate(-137.86 -39.14)"/><path class="cls-15" d="M761.37,868.25a35.55,35.55,0,0,1,4.91,3.62c.76.76.79,2.25,1.14,3.41-1.43-.34-3.36-.21-4.19-1.11-1.25-1.36-1.74-3.43-2.55-5.2Z" transform="translate(-137.86 -39.14)"/><path class="cls-15" d="M712.85,760.17c.88,2.73,1.57,4.62,2.1,6.56,1.47,5.37,4.32,10.34,3.85,16.25-.37,4.56-.87,5.33-5.63,5.2s-7.24-4.57-5.06-8.9A46.88,46.88,0,0,0,711,770.5a47.36,47.36,0,0,0,.7-4.94C712,764.08,712.34,762.61,712.85,760.17Z" transform="translate(-137.86 -39.14)"/><path class="cls-15" d="M695.79,758.84c0,2.12.56,4.45-.15,6.31a13.38,13.38,0,0,1-4.36,5.89c-.95.68-4.21-.08-4.83-1.13-1.11-1.86-2-4.86-1.21-6.64,1.83-4.26,4.59-8.13,7.16-12,.45-.7,1.75-.83,2.66-1.23a10.73,10.73,0,0,1,.69,2.47C695.85,754.59,695.79,756.71,695.79,758.84Z" transform="translate(-137.86 -39.14)"/><path class="cls-15" d="M734.38,741.34c.94,4.69,2.44,9.36,2.65,14.09.18,4.11-3.55,3.46-6.38,3.37.7-2.94,1.56-5.78,2-8.69s.53-5.74.77-8.61Z" transform="translate(-137.86 -39.14)"/><path class="cls-15" d="M678.56,735.77a89.93,89.93,0,0,1-.71,9.39,5.88,5.88,0,0,1-2.46,3.38c-.57.38-2.71-.28-2.89-.86-.46-1.47-1.38-3,.48-4.72C675.07,741.06,676.52,738.46,678.56,735.77Z" transform="translate(-137.86 -39.14)"/><path class="cls-15" d="M759.82,756.69c-1.28,1.38-2.18,2.46-3.23,3.38a2.18,2.18,0,0,1-1.47-1c-.7-3.1-1.26-6.24-1.81-9.38a1.07,1.07,0,0,1,.43-.93c.33-.13,1-.08,1.16.14C756.46,751.3,758,753.72,759.82,756.69Z" transform="translate(-137.86 -39.14)"/><path class="cls-15" d="M716.94,706.62c-2.26.17-3.8-.69-3.29-3.41,1-5.41,2.12-10.8,3.26-16.18,0-.13,1.35-.26,1.46-.06a94.8,94.8,0,0,1,5.47,10.41C725.83,702.38,722.49,706.74,716.94,706.62Z" transform="translate(-137.86 -39.14)"/><path class="cls-15" d="M690.63,703.43c-5,0-6.59-2.52-6.08-7.09a26.18,26.18,0,0,1,4.2-11.83,15.25,15.25,0,0,1,1.17-1.38c.43.53,1.11,1,1.25,1.58,1.17,5.16,2.41,10.31,3.27,15.53C694.93,703.25,692.63,703.6,690.63,703.43Z" transform="translate(-137.86 -39.14)"/><path class="cls-15" d="M741.75,676.89c-.73,3.69-4.41,6.15-6.92,4-1.11-1-.84-3.85-.72-5.84a81,81,0,0,1,1.22-8.88,8.25,8.25,0,0,1,1-2.09c.56.51,1.4.92,1.63,1.56C739.29,669.35,740.5,673.13,741.75,676.89Z" transform="translate(-137.86 -39.14)"/><path class="cls-15" d="M709.34,631.56C710.68,626,711.64,624,713,619c.19-.69,1.6-4.15,2.35-4.68a12.76,12.76,0,0,1,1,1.64c1.78,4.11,3.74,8.15,5.18,12.38.87,2.56,1.2,5.71-1.39,7.56s-6,2.73-8.74.88C710.07,635.88,709.92,633.18,709.34,631.56Z" transform="translate(-137.86 -39.14)"/><path class="cls-15" d="M698.12,624c-.14.8-2.12,2-4.12,1a3.44,3.44,0,0,1-1.09-3.5c1.69-4,4.37-7.54,6.25-11.44C698.69,614.67,698.94,619.41,698.12,624Z" transform="translate(-137.86 -39.14)"/><path class="cls-15" d="M734.23,613.2a9.13,9.13,0,0,1,2.77.8c.73.59.33.63,1.14,1.46a1.84,1.84,0,0,1,0,2.63l-.27.26A1.86,1.86,0,0,1,735,618l-.24-.37" transform="translate(-137.86 -39.14)"/><path class="cls-15" d="M710,553c0,3.81-1.38,9.32-1.55,13.12,0,.76-1,2.06-1.6,2.09a4.11,4.11,0,0,1-2.8-1.3c-2.82-3.15-.53-6.08.77-8.92a18.18,18.18,0,0,1,2.64-3.38C707.81,554.65,709.64,553,710,553Z" transform="translate(-137.86 -39.14)"/><path class="cls-15" d="M734.66,550.31c1.09,3.49,2.55,7,2.93,10.54.25,2.29-3.58,3.31-5.24,1.52-.43-.46-.32-1.42-.46-2.16" transform="translate(-137.86 -39.14)"/><path class="cls-15" d="M732.86,550.74" transform="translate(-137.86 -39.14)"/><path class="cls-15" d="M725.3,576.56c.26.76.26,2.27-.12,2.46a7,7,0,0,1-3.57.66c-.37,0-1-1.44-.91-2.15.32-2.95,1-5.86,1.48-8.79C723.14,571.37,724.42,573.9,725.3,576.56Z" transform="translate(-137.86 -39.14)"/><path class="cls-15" d="M721.09,501.89c2.51,5.13,6.19,9.37,4.08,15.28-.72,2-4.57,3.71-6.4,2.65a1.78,1.78,0,0,1-.49-1.51C719.14,513,720.07,507.77,721.09,501.89Z" transform="translate(-137.86 -39.14)"/><path class="cls-15" d="M709.87,498.59c.41,2.56.89,5.11,1.15,7.69.06.66-.64,1.39-1,2.1-.69-.48-1.73-.82-2-1.46a7.82,7.82,0,0,1-.57-3.83,24.72,24.72,0,0,1,1.57-4.57Z" transform="translate(-137.86 -39.14)"/><path class="cls-15" d="M714.76,466.73c.33-2.18.45-3.74.84-5.23a2.13,2.13,0,0,1,1.43-1.36,2.1,2.1,0,0,1,1.63,1.14,17.84,17.84,0,0,1,.85,4.23c.1,1.24.25,2.76-.34,3.68-.36.56-2.41.65-3.17.15S715,467.31,714.76,466.73Z" transform="translate(-137.86 -39.14)"/><path class="cls-15" d="M707.2,461.64a1.1,1.1,0,0,1,1,.57,9.84,9.84,0,0,1,1.45,3.35,2.41,2.41,0,0,1-.78,1.57,1.09,1.09,0,0,1-1.74-.05,11.93,11.93,0,0,1-1.68-2.84c-.19-.51.38-1.31.83-2.05a1.11,1.11,0,0,1,.89-.55Z" transform="translate(-137.86 -39.14)"/><path class="cls-15" d="M667.34,460.65a35.64,35.64,0,0,1-5.27,3.07c-.32.11-2-2-1.83-2.29a12.7,12.7,0,0,1,3.35-3.8C663.82,457.45,665.39,459.05,667.34,460.65Z" transform="translate(-137.86 -39.14)"/><path class="cls-15" d="M672.83,452.49a36.09,36.09,0,0,1-4.06,3c-.18.1-1.66-1.28-1.55-1.71.43-1.59,0-4.21,2.86-3.83C670.8,450,671.39,451.1,672.83,452.49Z" transform="translate(-137.86 -39.14)"/><path class="cls-15" d="M698.75,432l3.4,3.68c-.92.68-1.76,1.79-2.76,2-1.6.25-3.32-.26-2.9-2.49C696.65,434.31,697.56,433.61,698.75,432Z" transform="translate(-137.86 -39.14)"/></svg>