<?xml version="1.0" encoding="UTF-8"?>
<svg id="Layer_1" xmlns="http://www.w3.org/2000/svg" version="1.1" viewBox="0 0 841.9 595.3">
  <!-- Generator: Adobe Illustrator 29.2.1, SVG Export Plug-In . SVG Version: 2.1.0 Build 116)  -->
  <defs>
    <style>
      .st0 {
        fill: #efc51b;
      }

      .st1 {
        fill: #010101;
      }

      .st2 {
        fill: #e7ce67;
      }

      .st3 {
        fill: #a9872f;
      }

      .st4 {
        fill: #425f2e;
      }

      .st5 {
        fill: #f1f5d7;
      }

      .st6 {
        fill: #fff;
      }

      .st7 {
        fill: #f2e773;
      }

      .st8 {
        fill: #cac135;
      }

      .st9 {
        fill: #d9c15e;
      }

      .st10 {
        fill: #f1f6db;
      }

      .st11 {
        fill: #dfc028;
      }

      .st12 {
        fill: #b58b2e;
      }

      .st13 {
        fill: #b2c936;
      }

      .st14 {
        fill: #57893d;
      }

      .st15 {
        fill: #878c36;
      }
    </style>
  </defs>
  <path class="st1" d="M401.6,6.4c1.5.5,6,2.7,5.1,4.7-.4.9-3.5,3.2-4.5,3.8-8.8,6.3-16.3,10.5-23.3,19.3-4.6,5.8-13,19.9-13.6,27.1-.8,10.8.2,22.6-.3,33.5-.1,32.9,6.2,64.3,16.5,95.2,1.6,4.7,3.3,10.6,6.7,14.3s8.5,5.3,12.2,8.9c1.7,1.7,2.8,3.9,4.6,5.3,2.5-1.6-1.2-5.4-2.2-7.4-4.9-9.7-4.9-21.4-2.5-31.8.4-1.6,1.7-7.1,3.2-7.6,1.3-.4,2.4-.1,3.3.9,1.2,1.3,2.4,5.9,3.8,1.6.6-1.8.6-4,1-5.9.6-2.6,2.5-4.8,2-7.5-.6-3.1-2.9-6.7-3.6-10.5-1.3-6.2-2.4-21.1,3.1-25.4s7.9,1.7,11.5,4.5c6.8,5.4,3.5-3.1,3.5-6.9,0-4.6,6.1-16.6,9-20.3,2.4-3,7.1-4.2,10.6-2.4,1.3.7.8,1.6,1.2,2.7.7,2.1,2,3.9,4.3,4.6,4.7,1.3,8.3-3.7,11.5-6.3,4.7-3.8,11.1-8.2,16.3-11.3,2.5-1.5,5.5-3.6,8.5-1.9.6.4,2.1,1.8,2.1,2.6,0,1.1-2.9,4.9-3.5,6.4-1.1,2.4-2.1,6.4-.9,8.9.7,1.5,5.9,5.4,7.5,6.3,5,2.8,8.6.2,13.7-.1,2.9-.2,6.2-.5,7.7,2.5,1.8,3.5-.4,3.2-2.5,5-4,3.4-3.3,8.6-4.4,13.3-.9,3.9-4.1,8.8,1.1,11,1.5.6,4.1,1.1,5.8,1.1,3.9.2,6.1-1.4,9.7,1.4.5.4,2.9,2.8,3.1,3.3.2.7-.3,1.4-.7,1.8-3.2,3.6-11.3,8.6-13.2,12.8-.7,1.5-.7,2.9,0,4.4,2.7,4.8,10.8,3.4,10.8,10.4,0,3.9-7.1,7.5-6.6,10.5.3,1.7,7.6,6.3,9.1,8.4,1.1,1.5,2.9,6.7,2.8,8.5s-3,3.1-4.2,4.1c-2.6,2.3-5.7,5.4-6.7,8.8-2.1,6.7,3,3.4,5.9,1.2,6.5-5,10.2-17.3,13.2-24.9,14.2-36.4,18.1-68.4,19.4-107.2.4-12.1,1-16.7-4.2-27.9-5.9-12.8-12.8-20.9-23.8-29.6-1.7-1.3-8.9-6.1-9.4-7.4-.7-1.6.8-5.4,2.3-6.1.5-.2,1.7-.4,2.3-.5,14.2-1.3,40.2,9.9,53.3,16.1,21.2,10.1,38.1,20.3,52.8,39,12.2,15.5,21.2,32,30.2,49.5,4.8,9.4,8.7,17.1,12.5,27,3.5,9,7.3,19.1,9.9,28.3,1.3,4.6,1.9,9.3,3.2,13.8v4.7c-.3,1.1-2.4,6.1-3.4,6.1-.7,0-1.7-1.1-2.2-1.7-5-5.8-15-24.4-22.3-25.9-2.7-.6-6.6,3-8.5,4.9-6.5,6.7-5.1,10.6-4,19.2,2.5,19.1,6.2,38.8,10,57.7.8,3.8,1.5,7.6,2.4,11.4,1,3.8,3.2,8.8,3.5,12.5,0,1,.2,6.2,0,6.9-.2.5-.8.7-1.3.6-1.7-.4-6-4.2-7.1-5.6-4.5-5.7-6.5-13-13.6-16.5-2.4-1.2-11.1-4.9-13.4-5.1-4.2-.4-12.6,1.3-15.9,4-8.7,7-7.8,29.4-8.6,39.8-.7,8.6-1.5,17.4-2.8,26-.8,4.9-1.5,13-4.9,16.6-.3.4-3,2.8-3.2,2.9s-.4,0-.7,0c-1-4.7-.1-9.5-.3-14.3-.2-7.2-1.4-14.3-1.1-21.6,0-1.8.6-3.6.6-5.5-.1-3.7-2.5-12.7-3.8-16.4-2.3-6.6-16.4-17.3-22.2-21.7-9.9-7.4-16.7-10.7-29.4-11.5-1,0-3.3-.4-2.7,1,.4.9,2.4,3.2,3.1,4.4,4.6,7.7,7.5,19.6,8.8,28.5,1.7,11.7-3,17-7.2,27-2.1,5-2.1,6.7-3.1,11.9-.8,4.1-2.2,8.1-2.9,12.3-1.8,10.6-1.5,24.7-6.6,34.1-2.2,4.1-4.7,6.5-5.6,11.5s.2,15.6.8,21.2c.7,6.9,4,26,8.7,30.9,3.2,3.3,7.7.1,11.4-.5,10.5-1.7,23.4,8.7,24.4,19.2.1,1.6-.3,1.6-1.7,1.5-6-.6-10.3-4.6-16.9-4.1-3.6.3-14.7,3.9-17,6.5-2.5,2.8.1,5.2-4.2,7.1-1.9.8-3.7,1.2-5.3-.3-2.1-1.9-4.1-5.7-6.3-7.9-3.2-3.1-13.1-8.2-17.5-8.1-5.9.1-8.9,6.8-12.5,7.2-2.5.3-3.5-.5-3.7-2.9-.6-6.1,1.6-15.7,6.5-19.8,2.5-2.1,5.6-2.5,8-4.2,2-1.4.7-2.2-.6-3.4-4.1-3.7-11.5-6.8-11.3-13.2.1-3.8,5.7-8,8-10.8,1.1-1.4,2.3-2.8,1.2-4.5-2.2-3.6-6.8-.2-9.9.6-5.3,1.4-12.6,1.7-17.6-.8-1.3-.7-3.3-2.8-4.7-2.2-1.1.5-1.7,4.8-2.1,6.2-2.5,7.6-8.2,14.1-8.9,22.3-.8,9.7,4.1,9.8,10.2,14.7,3.7,2.9,7.2,8.1,9.7,12.1,3,4.8,5.4,7.7,4.3,13.7-.3,1.8-.7,4.4-2.8,4.7-4.4.6-14.1-6-18.6-7.7-12-4.5-12.4,4.6-20.6,8.8-1.5.8-2.3,1.5-3.5-.2-2.5-3.5-3.1-9.6-7.9-11.2-5.3-1.8-9.6,4.3-13.7,5-1.2.2-6.8,0-7.4-1-1.3-2.1,5.1-7.8,2.1-9.3-1.4-.7-2.8,1.7-4,2.3-2,1-3.2.5-5.1-.4-2.3-1.1-9.3-6.8-11.8-4.9-1.6,1.2,2.1,3.9,2.9,4.9,1.1,1.3,3.9,5.1,4.1,6.6.1,1.1.2,5-.7,5.6-1.1.8-7.6,1.8-9.1,1.7-5.6-.4-8.6-5.8-13.5-7.8-2.8-1.1-5.7-1.2-8.6-2.2-5.5-2-9.9-6.4-16.1-6.5-7.4,0-10,7.8-15.9,10.2-2.6,1.1-11.4,3-11.8-1.3-.2-2.6,2.8-9,4.6-10.9.6-.7,1.4-1,2.1-1.8,1.7-2,2-4.6,1.2-7s-9.1-12.9-11.3-15.2c-5.3-5.7-13.3-5.5-16.5,2-1.4,3.2-4,15.9-4.1,19.4-.1,4.7,1,12.9,1.7,17.7,1,6.5,3.2,9.8,5.4,15.6,4.9,12.9,6.6,21.7,15.8,32.8,21.8,26.2,57.3,31.1,89.5,30.9,12.5,0,25.2-3.2,37.6-4.7,14.6-1.8,29.4-2.3,43.9-4.8,5.3-.9,19.8-4.4,23.6-7.7,1.7-1.4,3.1-3.6,4.8-5.1,2.9-2.5,6.4-4.3,9.3-6.8,1.9-1.6,3.4-3.5,5.4-5.1,1.6-1.3,9.9-6.6,11.5-6.8,3-.4,8.8-.4,11.3,1.4,3.6,2.7-.3,4-.8,7.1-.4,2.2.8,3.7.3,5.5-.5,2.2-2.7,5.8-4.5,7.1-4.1,3.1-7.9.8-11.8,2-2.8.9-7,5.9-9.5,8-4.2,3.6-8.4,6.4-11.9,10.8-4.6,5.7-4.4,8.8-12.4,11.4-5,1.6-11.2-1.4-16.3-2.1-3.5-.4-7.7,1.6-11.1,2.6-4,1.1-9.6,2.1-13.3,3.6-3,1.2-2.1,2.6-3,5.2-.5,1.5-3.2,6-4.3,7.1-.4.4-.9.7-1.5.8-1.8.2-9-2.2-11.4-2.6-5.6-1.1-12.4-2.6-18-3.3-6-.8-13.8,1.7-17.8,6.4-1.6,1.9-2.5,4.6-4.3,6.2-2,1.8-7.2,3.6-9.8,2.9-2.5-.6-9.3-5.5-11.5-7.3-4.5-3.7-4.7-6-11.3-6.4-2.6-.2-9.1-.3-11.2.7-2.6,1.3-5.1,5.7-7.1,7.9-2.8,3.1-6.9,7.3-11.2,4.3-4.1-5.8-8.7-11.3-12.6-17.3-1.5-2.3-1.9-4.7-4.5-6-1.9-1-11.2-4.5-13-4.5-2.4,0-5.4,2-7.7,2.8-2.7,1-6.9,2.7-9.6,2.5-4.4-.4-5.1-1.3-5.7-5.4-.8-5.9,0-12.8-1.5-18.7-.7-2.8-4-5-5.9-7.1-2.1-2.3-4.8-6.8-7.2-8.2-3.2-1.8-5.5-.9-8.8-1.2-1.9-.2-7.2-1.5-8.9-2.4-3.4-1.8-4.2-8.9-3.6-12.3.8-5.5,5.3-10.5,4-16.2-.7-3.1-3-9-5.5-11-4.6-3.8-10-3.7-13.6-9-1.6-2.3-3.8-5.7-2.8-8.5,1.5-4,4.8-6.8,7.4-10,1.7-2.1,2.6-4.3,4.9-6.2.6-.5,2-1.1,2.3-1.5,1-1.6-.4-9.3-.5-11.6s.2-4.7,0-6.9c-.5-4.2-5-10.5-7.9-13.7-2.1-2.4-8-7-8.4-10.1-.6-4.5.6-4.7,4.1-6.3,4.9-2.2,8.5-3.2,13.2-6.1,2.2-1.3,5.4-2.9,6.4-5.2.9-2.1,3.2-9,3.5-11.1,1-6.3-5.5-11.4-7.9-16.9-.5-1.2-2.3-6.9-2.1-7.9s1-1.4,1.7-1.9c3.4-2.4,7.9-4.1,11.6-6.1s10.3-5,10.6-9.6c.3-4.4-3.1-12.4-5.4-16.1s-4.3-4.3-3.7-9.3c.2-2,2.6-2.3,4.4-2.8,4.6-1.3,15.4-3.8,19.8-3.4,1.7.2,4.8,1.9,6,1,.4-.4,2.6-3.7,2.9-4.3,3.1-7-6.3-13.6-3.8-20.1.6-1.6,3.2-4.5,4.6-5.6,3.1-2.4,10.6-1.8,14.6-2.2,2.3-.3,3.5,0,3.7-2.6.6-6.2.3-17.6-2.9-23.1-3.1-5.1-12-7.8-17.7-7.2-2.6.3-12.8,4.2-15,5.7-4.8,3.2-7.1,9.3-10.5,13.6-2.4,3.1-5.8,3.9-9.5,4.5,0-.8-.3-1.5-.3-2.4,0-4.9,4.8-15.6,6.3-21.1,4.3-15.3,8.3-31.6,11.8-47.1,1.3-5.8,3-12.1,3.9-17.9,1.2-7.5,1.2-9.9-3.9-15.6-2-2.2-4.5-5.1-7.8-4.7-6.1.7-16.6,16.9-20.9,21.7-1.9,2.2-4,3.9-7.1,3.4-.8-6.3.9-13.4,2.7-19.5,5.9-19.8,16.1-40.2,26.4-58,13.4-23,30.4-50.5,53.2-65.2,16.3-10.5,35.1-17.9,53.4-24.1l12.9-3.5,8-1.5h10.8ZM363.1,18.3c-6.3,2.1-11.7,4.6-17.5,7.8-.4.2-.8.3-1,.8-1.2.2-4,2-5.2,2.7-6.5,3.7-13.5,7.8-19.7,11.8-31.7,20.5-57.4,66.1-70.3,100.9-1.5,4.1-3.5,9.2-4.6,13.4-.4,1.6-1.2,3.8,1.4,2.7,2.9-1.2,7.1-4.4,10.1-6.1s5.5-3.1,8.9-3.6c4-.6,5.5.6,8,3.5,1.1,1.3,2.3,3.8,3.5,4.9.4.4.7.6,1.3.5l3,7.5c-1.8,7.6-3.1,15.3-4.9,22.9-3.3,13.8-7.7,27.4-10.7,41.3-.7,3.2-1.9,7.8-2,11,0,1.5.1,2.8,1.9,2.2.6-.2,1-.9,1.5-1.2,10.7-6.3,25.9-12.1,37.7-5.1,6,3.5,8,12.7,9.7,19.2.7,2.7.8,5.6,2.1,8.3,2.1,4.5,3.7,1.4,5.7-.3,8.8-7.3,21.2-16.1,31.3-21.4,11.2-5.8,19.4-5,31.6-3.8,1.3.1,5.3,1.6,4.5-1.1-.2-.5-2.3-2.8-2.9-3.8s-1-2-1.4-3.1c-1.1-3.1-1.3-5.1-.8-8.3.1-.9.2-1.5.5-2.4.4-1.6,2.3-5.6,2-6.8,0-.3-3.5-2.9-4.2-3.8-3.8-4.6-6.9-13.5-8.8-19.1-8.5-25.7-12.8-52.7-14-79.7-.4-8.1,0-16.2-.2-24.4-.3-9.5-2-18.9.8-28.2.6-1.8,2.5-5.2,2.8-6.8,1-2.6,2.6-5.2,3.7-7.7.6-1.5,1-3.2,1.7-4.7s2.7-4.7,2.9-6.1c.8-2.2,2.5-3.6,3.7-5.5.9-1.4,3.6-5.8,4.1-7,1.1-2.9-1-4-3.6-4.1-4.4-.1-8.2,1.4-12.3,2.7h0ZM558.9,53.9c.3,1.8,1.5,5.5,2.2,7.3,1,2.8,2.8,5.4,3.3,8.4,0,2.6,1.4,5.6,1.7,8.2.7,7.8-1.3,17.2-1.9,25.2-.8,11.1-.8,21.7-2.2,32.9-3.3,24.8-9.3,50.6-19.8,73.4-2.8,6-6.7,14.5-12.9,17.5-2,.9-7.7,2.3-8.6,4.1-.7,1.4.4,5.4.5,7.1,0,1,0,1.9,0,2.9.1,3-.2,6,0,8.9.3,4.1,2.3,4,6,3.9,17.5-.4,23.4-2.1,38.5,8.2,8.2,5.6,18.2,13.5,25.2,20.5.1.1.1.7.7,1.1,1.3,1,3.6.5,4.7-.6,1.3-1.3,2.3-5.1,3.1-6.9.2-.4,0-.9.1-1.1,1.7-4.2,5.8-14.3,9-16.8,11-8.7,28.6-2.6,39.1,4,1,.6,4,3.1,4.7,3.3.6.2,1.1-.2,1.3-.6s0-4,0-4.9c-1.6-16.2-6.5-33.9-9.3-50.2-1.4-8-2-16.3-3.4-24.1l3.6-8c.3,0,.6-.1.8-.4,1.8-2.4,5.9-8,8.8-8.4,2.2-.3,4.9.5,6.9,1.4,5.7,2.4,10.8,6.9,16.2,10,.8,0,1.4-.7,1.2-1.5-8.5-31.7-21.9-63.9-41-90.7-13.8-19.4-27.5-30-47.2-42.8-3.9-2.5-7.7-5.2-11.7-7.5-1.6-.9-7-4.2-8.5-4.4-1.6-.8-3.3-1.6-5-2.3-2.8-1.1-8.4-3.7-10.2,0-1,2.1-.4,8,0,10.4.6,4.1,2,9.1,4.1,12.7h0ZM480.6,94.9c-.8,0-4.2,2.3-5.1,2.9-2.7,1.8-7.3,4.9-9.5,7.1-5.7,5.7,1.3,6.3,6,6,2.7-.2,7.5-1.2,8.4-4,.6-1.9,1.4-9.2,1.1-11.1,0-.5-.4-.9-.9-.9h0ZM441.8,101.2c-.9,0-5.1,8.3-5.6,9.6-2.2,5-4.9,13.2-2.6,18.5.9,2.1,1.9,1.6,3.5.6,3-1.9,10.2-9.6,11.5-12.9.7-2,.8-3.3-.2-5.2s-2.7-2.5-3.9-4.4c-1.3-2.1-1-4.4-2.7-6.2h0ZM424,221.8c2.9-1.6,7.3-3.3,9.8-5,1.9-1.3,2.1-3.3,2.4-5.4.4-2.8.3-5.7.6-8.5,1.8-16.9,8.3-32.4,27-34.9,4.7-.6,9.1-1,12.4,3,13,15.7,15.2,48.9,16.2,68.7.4,7.3.2,13.8,0,21-.2,7.6.8,16.4,1.4,24.1.6,7.8,3.5,19,5.7,26.7,2,6.9,6.4,12.1,8.1,19.6,2.1,9.5-.3,27.6-2.3,37.4-1.6,7.9-4.2,11.4-7.3,18.1-.7,1.5-1.5,3.2,1.1,2.8,2.9-.5,9.9-4.6,12.5-6.4,8.8-6.2,10.9-11.2,12.6-21.5,2.1-12.8,3.5-25.9,4.7-38.9.6-6.2,6.7-14,8.8-20,2.9-8.5.2-17.8-2.8-25.9-1.9-5.1-5-13.5-10.2-15.8-4-1.8-4.8-.4-5.5,3.4-1,5.4-.5,15.1,2.4,19.9,1.3,2.3,3.2,3.6,4.7,5.5,1.4,1.7,3.3,4.8-.3,5.1-3.8.4-8.9-5-10.5-8.2-3.6-7.3-.9-24.6,0-33,.4-3.5,1.1-6.5.8-10.1s-1.7-7.2-2.2-10.8c-.3-2.6,0-5.5-.3-8-.3-3.2-1.8-6.7-2.2-10.3-2.6-21.8.2-44.1-6.2-65.4-1-3.3-2.5-6.5-3.4-9.9-1.8-6.6-1.6-17.3-7.1-21.9-1.2-1-5.8-3.5-7.3-4-1.9-.6-7.1.9-9.6,1.2-4.2.6-9.3,1.2-13.3.1-3.5-.9-8.9-6.2-10.6-.3-1.1,3.6-.2,5.1-2.7,8.6-3.9,5.5-13.4,11.9-15,18.2-2.4,8.9-.5,12.4-8.4,19.2-2.5,2.1-7,3.8-8.5,6.1-1.4,2.1-4.5,13.1-4.8,15.7-.5,5.5,3.1,7.6,3.6,12.8.3,3.3-.2,10.2-1.3,13.2s-3.8,5.3-4.8,8.2c-.9,2.3-.8,4.8-1.6,7s-3.2,3.5-3.2,6.1c0,2.3,2.1,10.1,5.5,8.5,1.7-.8,1-5.7,1.2-7.3.8-4.5,6.6-6.8,10.2-8.8h0ZM508.5,115.7c-1.2-1.2-5.2.5-5.9,1.9-.5,1.1-.4,3.3-.1,4.5s1.2,4.7,2.7,2.8c.7-.8,3.6-7.3,3.6-8.3,0-.3-.1-.7-.3-.9h0ZM414.5,128.7c-.5.1-.7.6-.9,1.1-1.9,4.4.3,19.5,2.1,24.2,2,5.2,4.1,6.6,8.7,2.9,3.8-3.1,5.6-7.2,6.2-12.1.2-1.6.5-3.8-.3-5.2s-6-3.7-7.8-4.9c-1.1-.8-2.2-1.7-3.2-2.6-1.2-1-3.1-3.9-4.8-3.4h0ZM513,148.3c-2.8.6-1.6,8,.5,7.9,1.1,0,5-3.7,5.6-4.6,2.3-3.6-3.9-3.7-6-3.2ZM464.4,179.8c2.2,1.2,4.4,1.4,6.8.6,5-1.7-.2-5.4-3.2-6.1-1.6-.4-6.2-.6-7.1,1.1-.7,1.3,2.4,3.8,3.5,4.4h0ZM518.2,176.8c-1.5-1.7-4-1.1-4,1.4,0,5.3,6.3,1.1,4-1.4ZM448.3,185.6c-1.1,2.1-4.1,9.2-2.5,11.2,1.3,1.7,3.4-1.3,4.2-2.1,2.9-2.9,10.5-10.7,7.2-15.1-2.9-3.8-7.6,3.7-8.9,5.9h0ZM403.7,184.2c-.5.1-.7.7-.8,1.1-1.5,4.3.9,15.1,2.6,19.5.8,2.2,2.4,7,5.3,3.9,2.2-2.4,3.1-9.8,2.7-12.9-.3-2.4-3-5.7-4.6-7.5-.8-.9-3.8-4.3-5-4h0ZM466.6,190.8c.5,2.2,2,6.7,4.7,7.1,1.4.2,7.6-2.7,8.4-4.1,1-1.7-.1-4.7-1-6.3-1-1.8-1.5-2-3.5-2.2-1.5-.1-6.3.1-7.6.6-2.6.9-1.5,3-1,4.9h0ZM450.5,228.2c1.6-.2,2.2-2,3.2-3.1.8-.9,2.1-2.3,3-3,3-2.3,5.2-1,5.7-5.7.5-5,.4-12.4,0-17.4-.1-1.7-.3-8.1-2.8-7.2-.7.2-3.8,3.1-4.5,3.9-8,8.6-3.5,17.4-4.4,27.7-.1,1.6-.9,3.3-.3,4.8h0ZM516.5,195c-2.2.7-1.3,9.2-1,11.1.2,1.1.8,5.1,1.5,5.7.6.5,1.1.3,1.7,0,1.6-.7,7.6-5.9,8.7-7.4.7-.9.7-1.2-.1-2.1-1.3-1.4-4.6-3-6.3-4.4-1.2-.9-2.7-3.5-4.4-3ZM467.4,209.7c.5,8.3,6,8.9,13.1,7.7,1.2-.2,3.9-.7,4.3-2.1.4-1.5-.9-6.6-1.3-8.4-.3-1.2-1.3-5.7-2.4-6-.4-.1-6.9,1.7-8.3,1.9-1.7.2-4.8-.7-5.3,1.6-.2,1.1-.1,4.1,0,5.3h0ZM441.7,209.4c-.1,2.6,0,4.9,3.4,4.1,1.5-.3,1.9-2.2,1.9-3.5,0-2.6-2.4-9.3-4.5-4.3-.6,1.3-.7,2.4-.8,3.8h0ZM403.2,239.5c-.8-2.9-1.2-5.9-2-8.9-.9-3.5-4.1-14.8-8.1-15.4-2-.3-4,5.7-4.5,7.3-.9,3.1-.9,3.9,1,6.5,2.6,3.7,6.4,6.7,8.1,11,.8.5,4.4-.7,5.5-.4h0ZM443,219.7c-2.4.4-8.7,3.4-11.2,4.6s-8.7,3.7-10.5,5.3c-4.8,4.3,2.4,13.3-7.2,13.8-.8,0-3.9-.3-4-.2-.2.1-2.5,3-2.7,3.4-2.5,3.8-4.5,12.6-5,17.1,0,.6.3,1.1.2,1.6-.5,4.6-4.1,7.8-6.5,11.4,1,9.2,4.1,18.4-.6,27.1-2.2,4.1-7.4,9.3-6.6,14.3.5,3.1,7.1,11,10.1,12,4.3,1.5,9.9-2.8,12.5-5.9,8.8-10.4,4.6-26.9,14-38,4.3-5.1,9-6.1,14.2-9.6s1.6-3.8,1.7-8.6c0-4.2,2.8-8.7,5.4-11.8.9-1,4-3.5,4-4.6.1-2.7-6.2-1.6-7.9-3.1-1.4-1.3-.6-3.6-1.3-5.1-1-2-3.5-1.4-3.2-5.3.2-3.3,4.5-9.5,5.9-13,.8-1.9,2.6-6.3-1.2-5.7h0ZM466.3,228.5c-.5,3-1,6.5-.2,9.5.4,1.3,3.4,3.2,4.5,4,1.9,1.3,5,3.5,7.2,3.9,2.9.4,7.5-1.1,8.5-4.1,1.1-3.5,0-12.6-.6-16.5-.2-1.2-.3-4.8-2-4.7-2.9,1.3-5.7,2.2-8.9,2.5-2.5.2-6.4-.9-7.8,1.9-.6,1.3-.5,2.4-.7,3.6h0ZM453.7,241.8c-3.1,3.6,2.7,4.7,4.9,2.3,1.3-1.4,2-7.3-.7-5.9-.6.3-3.7,3.1-4.2,3.6h0ZM282.9,534.4c9.1,8.7,22.3,18.3,34.2,22.6,4.9,1.8,9.9,2.4,14.8,4,4.5,1.5,8.7,3.5,13.4,4.5,7.9,1.8,14.8,2.1,22.7,1.8,4.1-.2,8.3.2,12.5.3,7.9,0,15.8,0,23.6.3,6.1-2.2,13.2-1.7,19.2-3.5,6.1-1.8,9.5-2.9,16-3.7,17.1-2.1,34-6.3,50.3-11.9,7.6-2.6,18.4-5.8,23.8-11.9.8-.9,4.7-5.8,4.8-6.5,0-.4,0-.5-.4-.4-2.9.9-5.2,3.8-7.3,5.7-7.6,6.4-27.7,10-37.7,11.8-6.3,1.1-9.6,1.7-16.1,2.1-4.2.3-8.3,1.8-12.5,2.2-3.9.4-7.9.1-11.9.6-8.4,1-16.9,3.4-25.5,4.1-5.6.5-10.9,0-16.5-.3-6.1-.4-12.2-.9-18.2-1.4-15.7-1.2-24.7-4.4-38.8-10.5-20.3-8.9-36.7-26.3-44.2-47.1-3.3-9.3-6.7-18.1-8-28-1.7-13.6-1.5-31.1,5.5-43.3,1.2-2.1,3.6-3.9,2.9-6.6-.9-3.6-6-3-6.5-8.4s1.5-6.6,6.4-7.5c8.4-1.5,13.7,3.3,20.8,1.7,5.9-1.4,12.7-8.5,10.1-14.8-1.2-2.8-4.1-4.5-4.3-8.2,0-1.1.5-4,1.8-4.2,2-.3,1.6,1.6,2.2,3,2,4.7,6.5,4.8,7,10.7,1.2,15.2-12.7,24.1-26.7,19.2-4-1.4-6.6-4.2-11.4-1.5-3.6,2.1,1.2,3.4,2.4,4,3,1.5,1.7,6.3,3.1,7.4.4.3,5.4.4,6.8.7,7.7,1.6,14.7,10.3,19.4,16.2,2,2.5,4.3,5.2,4.7,8.6.3,2.6-.9,4.1,2.3,5.3,5.6,2,13.8.8,19.8,2.3,3.7.9,6.6,3.2,10,4.7,2.6,1.1,8.4,3.1,11.1,2.7,5.1-.8-3.6-7.7-4.4-8.8-1.9-2.9,2.2-3.3,4.3-2.9,3.2.6,3.6,3.5,7.4,1,5.1-3.3,2.4-6.9-1.8-9-8.7-4.4-16.1-4.9-25.6-4.8-1.5,0-4.9-.5-6-.3-1.9-.6-4-.9-5.8-1.8-1.1-.6-4-2.8-4.7-3.7-3.9-5.2-.6-11.1,3.7-14.6,3.5-2.9,8.1-3.9,12.1-5.9,7.4-3.6,13.9-8.5,18.7-15.2,6.1-8.5,6.5-14.4,4.6-24.6-1.6-8.5-5.9-12.7-5.1-22.2.2-2.7,2.4-7.3,1.9-9.4-.2-.7-4.1-5.8-4.9-6.7-4.8-5.2-7.5-2.6-12.9-4.6-1.5-.6-2.9-1.7-.8-2.7s10-1.1,12.4-.9c3.1.4,4.9,2.8,6.8,5,2.9,3.3,10.3,11.4,11.9,15.1,1.3,3,1,7.1-3.3,6.1-1.6-.4-5.3-4.1-5.6-.8-.4,3.7,2.5,9.4,3.7,12.9,2.9,8.4,4.2,15.5,2.6,24.5-.4,2.1-2.1,6.9-1.4,8.6.4.9,2.1,1.5,3.1,1.6,8.6,1,17.2-1.7,25.7-2.5,2.9-.2,6,0,8.8-.3,10.9-1,4.6-11.2,3.6-17.6-.4-2.4-1-11.2.8-12.7,1.1-.9,2.1,0,2.5,1.1.8,2.3,1,5.7,1.6,8.3,1.9,7,6.1,12.4,3.6,20.1-1.1,3.3-4.5,7.6-4.5,11s3.3,7,4.8,10.1c2.3,4.9,1.9,8.6,1.5,13.8-.1,1.4-.4,3-.5,4.4-.4,3.3-.5,5.9-1.9,9-1.5,3.4-4.5,6-6,9.5-.5,2.2,4,6.4,6.1,6.6,1.7.1,3.8-1.9,5.6-2.3,3.8-.7,5.3,1.2,8.6,2,3.9.9,11.5,1,14.8-1.5,6.9-5.4-5-10-8.4-12.6-3.7-2.8-4.5-6.2-4.7-10.6,0-1.5,0-3.2,0-4.7.5-9.7,4.5-13,7.7-21.2,1.1-2.8,3.6-9.9,3.4-12.7-.3-3.5-2.6-4.4-4.6-6.5-3.1-3.2-6.4-6.9-7.6-11.4-3.2-11.9-1.5-32,.3-44.4,2.2-14.5,7.5-28,9.4-42.5.2-1.5.5-3.4.5-4.8.4-10.3-8.5-2.5-12.8,0-2.3,1.3-4.2,1.5-6.1,3.5-7.4,8-6.4,22.9-10.4,32.6-3.6,8.8-13.3,18-23.5,16-3.9-.8-12.5-9.3-14-13-.9-2.4-1.2-6.3-1-8.9.7-7.6,8.8-12.3,9.4-20,.4-4.4-.7-8.8-1.4-13.1-3.5,2.6-6.6,5.5-10.9,6.9-8.2,2.7-22.8-.2-30.3-4.3-4.4-2.4-7.8-6-10.8-10,3.4-.4,7.2.2,10.6-.5,6.2-1.3,17.5-4,21.6-9.1s3.9-10.8,8.3-15.8c3.2-3.6,7.5-5.9,12-7.5,0-.5-.9-.5-1.2-.5-2.1,0-4.9.9-7.2,1.1-15.5,1.3-20.5.2-34.1,9.1-6.8,4.5-21.8,13.8-24.9,21-2.2,5.1-4.8,13.2-5.1,18.7,0,.6.4,1.3.3,1.9-.5,8.5-2.1,16.9-2.8,25.5-.1,1.8,0,8.7-1,9.8-2.4,2.8-5.2-4.6-5.7-6.1-2.5-7.8-1.6-17.6-2.8-25.7-1-4.2-6.5,2-8,3.5-5.5,5.7-8.7,11.8-13,18.3-3.9,5.9-8.1,11.4-11.4,17.6-6.3,11.8-9.2,24-13.6,36.5-2.4,6.9-5.5,13.9-7.2,21-1.4,6-1.4,13-2.5,19.3-.6,3.5-2.3,7.7-2.6,10.9-.2,1.5.1,3.1,0,4.7-.5,5.7-1.3,9.9-.5,15.7.8,5.4,2.2,10.7,2.9,16.2,1.2,9,1.4,18.1,3.2,27,1.3,6.4,4.7,7.6,7,12.4.8,1.7.5,2.4.8,3.9,1,5,5.1,10.4,7.7,15,.6,1.1,1.1,2.6,1.6,3.6,2.3,3.8,8,9.5,11.3,12.6h0ZM462.4,250c-.5,2.6-.5,5.2-.9,7.8-.3,2-1.5,5-1,6.7,1.1,3.7,6.4,7,10.1,7.3,2.6.2,11.6-2.9,13.4-4.8,2.2-2.3,3-9.1,3.3-12.3.1-1.4.6-3.8-1-4.6-1.1-.6-6.2.6-8,.5-2.9-.1-6.3-1.1-8.7-2.9-1-.7-3.4-3.9-4-4-1.7-.2-2.9,5.1-3.2,6.4h0ZM397.2,244.5c-6,1-13.5,4.3-16.4,10-1.1,2.1-1.4,4.7-2.3,6.8-5.1,11.5-16.5,14.1-27.6,16.6-1,.2-2.2-.1-3.1.5.8,1,2,1,3,1.5,8.3,3.9,21.2,7.8,30,3.9,4.5-2,16.4-12.5,17.6-17.3.3-1,0-2.4,0-3.5.7-6.1,2.5-12.1,5-17.6.1-.2.5-.6,0-.7-4.4,1.6-8.5,3.2-10.4,7.9-2.4,6.1-1.6,9.9-6.9,14.9-.4.4-3,2.6-3.3,2.3.3-1.3,1.8-2.1,2.5-3,3.1-4.1,3.7-10,5.4-14.7,1.2-3.4,3.7-5.4,6.5-7.5h0ZM452.4,258.4c-2.1.4-6.2,7-6,9.2.2,1.9,2.7,2.1,4.2,1.7,2.7-.8,2.8-7.7,3.3-10-.1-.8-.7-1.1-1.5-.9h0ZM456.1,280.5c-.7,4.2-.8,8.5-1.6,12.6,0,.6.2,1.1.5,1.6.8,1.6,6.6,6,8.3,6.9,9.2,4.7,15.5-2.2,22.6-6.5,1.4-.8,2.9-.6,3.2-2.6.4-2.5-1.6-10.6-2.1-13.6-.2-1.3-.1-5.3-1.8-5.5-1-.1-5,1.9-6.5,2.4-4.8,1.4-9.4,1.3-14.1,0-1.8-.5-4.8-2.3-6.5-1.3-1.3.8-1.8,4.7-2.1,6.1h0ZM301.4,277.5c-2,0-8,.7-9.5,1.9s.1,5.1.7,6.7c.4,1,2.1,5.2,2.9,5.4.9.3,2-.8,2.7-1.4,2.1-1.6,9.1-8.5,8.7-11.1,0-.3-.5-1-.8-1.2-.6-.3-3.9-.4-4.8-.3h0ZM452.2,306.7c-.7,2.2-1.3,4.4-1.8,6.6-.9,4.3-2.4,6.8,1,10.1,3.7,3.6,9.9,7.9,14.7,9.6,9,3.1,13,.3,20.4-4.4,1.9-1.2,7.1-4.4,8.3-5.9,1.8-2.1.3-4.2-.1-6.4-.6-2.9-1.2-5.9-1.8-8.9-.4-1.9-.4-3.8-1.2-5.6-.9-2.3-1.6-2.3-3.7-1.1-7.3,4.1-13.7,9.4-22.8,6.6-3.9-1.2-5.1-3.4-8.1-5.1-3.6-2.1-4,1.7-4.8,4.4h0ZM282.1,307.9c-.5-.8-5.7.5-6.8.8-1.3.3-8.1,2.3-8.5,3.1-.6,1,.7,5.8,1.1,7.2.3,1.2,1.6,5.5,2.6,6,.4.2,1.2-.7,1.5-1,2-2.1,4.8-6,6.4-8.5.8-1.2,4.4-6.3,3.6-7.5h0ZM445.3,335c-.3,2-.4,3.5-.9,5.6s-3,7-3,8.4c0,1.5,3.7,6.3,4.8,7.7,7.4,9.9,16.7,16,29.7,12.1,7.5-2.3,23.4-14.7,25.6-22.3,1.1-4,.4-10.1-.5-14.2-.3-1.4-.3-4.3-2.6-3.8-5.6,2.9-11,7.7-16.8,10-8.2,3.3-19.4.1-26.5-4.8-1.5-1-6.3-5.7-7.7-5.6-2.1.2-1.6,4.7-1.8,6,0,.4-.2.7-.3,1h0ZM253.4,363.1c.3.2.9.7,1.2.7.9,0,2.3-4.2,2.6-5.1.5-1.6,1.9-6.3,1.9-7.8,0-.7-.3-1.7-1-1.9s-5.1,1.8-6,2.3c-1.3.7-4,2.3-3.6,3.9.4,1.5,3.8,6.9,5,7.9h0ZM445.3,373.7c2.4,6.7,15.1,19,21.2,22.9,5.6,3.6,12.3,2.3,17.4-1.6,8.6-6.7,15.9-21.3,17-32.1.1-1.2.5-4.5-.8-5.1-.8-.4-2.1.7-2.7,1.1-5.5,3.8-9.6,8.3-15.9,11.5-11.6,6-23,3.8-33-4.2-.7-.5-4.1-4.7-4.6-2.3-.4,2.2.6,7.6,1.4,9.8h0ZM505.6,436.5s-.3.5-.6.7c-2.8,1.4-6,1.9-9,2.9-2.7.9-6.5,1.9-2.9,5.1,2,1.7,5.5,2.1,8.1,3,3.5,1.2,11,5.3,14.2,5.2,1.7,0,3.1-1.3,5-1.4,2.1-.1,3.8.9,5.8,1.1,3.1.3,9.3-.7,11.4-3.1,3.1-3.6-5.6-3-7.2-3.3-5-1.1-7-5.8-8.8-10.2-3-7.5-5.6-17.1-6.6-25.1-.8-5.8-.5-13.6-1.8-19-.2-1-.4-1.9-1.7-1.9l-13,5c-1.1,1.3,0,7.2-.1,9.2-.5,4.9-4,6.6-6.8,9.8-1.6,1.9-2.9,3-1,5.1,3.6,3.9,8.5,6.8,12.2,11.3,1.2,1.5,3,3.3,2.8,5.4ZM244.7,399.7c-1.1-1.1-3.3.9-4.4,1.5-1.9,1-4.9,2.1-6.6,3.1-1.1.7-1.2,1.1-.5,2.3,1.1,1.8,5.3,6.7,6.9,8.3.5.5.9,1.1,1.8.7.7-.4,2.1-6.6,2.4-7.8.4-1.8,1.6-6.7.3-8ZM399.9,401.1c-6.2.2-12.7,1.3-18.9,1-1.5,0-6.8-1-7.8-.3-.5.4-1.2,3.3-1.4,4.1-1.4,4.9-4.5,14.4-3.3,19.2.1.6.7,1.5,1.3,1.8,1.6.5,6.3-2.5,8.3-3.1,6.1-1.7,14.8,1,21.4,1.2,4.9.2,13.9-1.3,18,.5,1.1.5,4.5,3.5,4.8,1,1.1-8.9-4.1-11.1-6.3-17.8-.5-1.5-1-6.7-1.5-7.1-.3-.3-1.6-.6-2.1-.7-3.5-.4-9,0-12.6,0h0ZM352.4,416.3c-1,2.8-.9,9.1,1,11.4,1.3,1.5,5.4,2.1,7.3,2.1,4.3-.1,2.3-1.9,2.1-4.6-.4-4.5,1.1-8.9,1.4-13.3,0-1,.2-1.8-1-1.8-2.3,0-8.5,5.1-10.9,6.2h0ZM343.2,419.9c-1.3.3-5.2,4-5.1,5.6.1,2.6,8.9,7.1,8.5.9-.1-1.4-1.4-7-3.4-6.5h0ZM382.2,428c-2.6.4-5.7,2.5-7.1,4.8,0,.6,4.7,3.5,5.5,3.8,2.8,1.1,2.2-.6,3.8-1.1,4.9-1.5,9.5,8.2,14.1,3.1,1.3-1.4,1.2-4.7,3.4-4.2l11.7,12.1c.3.1.6,0,.9-.1,1.1-.5,6.3-7.4,6.6-8.6.3-1.4-2.2-4.5-3.3-5.5-6.6-6.4-15-3.8-23.1-3.8-3.7,0-9.1-.9-12.6-.5h0ZM402.3,443.1c-.5,0-1.3.8-1.5,1.2-1,1.8.8,3.7,1.5,5.4.5,1.2.9,3,1.3,3.9.1.3.2.5.6.4.3,0,2.4-1.6,2.8-1.9.2-.2,2.1-2.3,2.2-2.5.3-.5.2-1-.3-1.4-1.5-.7-5.2-5.4-6.6-5.2h0ZM556.7,453.1c.1-.2,0-.8-.1-1.1-.6-1.3-9.2-5.6-10.8-5.5-1.1,0-1.9,1.1-1.4,2.2.5,1.2,4.8,1.7,6.3,2.3.9.4,5.4,3,6,2.1h0ZM488.7,447.3c-1.2-.8-1.5,1.2-1,1.6,1,.7,1.9-1.1,1-1.6ZM324.3,456.5c-2-2.4-5.5.5-6.8,2.3-2.5,3.2-1.9,5.6,2.4,3.5,1.4-.7,5.9-4.1,4.4-5.8ZM241.6,456.9c-.4.1-4.4,5.8-5.2,6.8-2.9,3.6-6.9,5.8-.6,9.1,1.8.9,7.4,3.5,8.3.8s.3-12.6-.9-15.3c-.2-.5-.9-1.6-1.6-1.4h0ZM520.4,457.5c-1.2.4-.5,3,.8,3.2,3,.6,1.2-3.9-.8-3.2ZM460.7,458.9c-2.6.7,0,5.2,3,4.9,3.4-.3-1.1-5.4-3-4.9ZM432.5,462.7c1.1-1.1-.3-3.3-1.7-1.9-1.8,1.8.7,3,1.7,1.9ZM379.9,464.5c-1.2-1.3-4.5-3-5.3-.4-1.8,5.8,9,4.4,5.3.4ZM254.1,505.1c-.8,0-1.2.9-1.5,1.5-.6,1.2-3.2,7.3-3.3,8.3,0,2,6.4,3.6,8.1,3.7,1.9.1,4.1.4,3.7-2.1-.2-1.7-4.6-9.4-5.8-10.8-.3-.4-.6-.7-1.2-.7h0ZM538.6,522.8c-1.1.3-.1,2,1,1.2.7-.5,0-1.5-1-1.2ZM296.7,556.7c.6-.6,0-1-.4-1.5-1.1-1.6-7-7.6-8.8-7.2-1.9.5-.9,8.1.4,9.2s7.7.7,8.8-.5h0ZM492.1,555.6c1,1,4.5.1,4-1.7-.5-2-5.7,0-4,1.7ZM438.3,566.8c-.9.1-2.2.5-1.8,1.7.5,1.5,8.7,2.6,9.3.3.1-.4.1-.7-.2-1-1.1-1-5.8-1.1-7.3-.9h0ZM340.7,571.5c-.8-1-6.4-2.8-7.9-3-2.4-.4-5.7-1-3.8,2.4,1,1.8,5.9,8.2,7.8,8.5,2,.3,5.4-6,3.9-7.9h0ZM383.8,574.8c-.9,0-2.4.2-3,.9-.2,1.1,5.4,5.4,6.5,5.6s3-1.8,3.8-2.7c.6-.8,2.2-2.4.8-3-2.6-.3-5.6-.9-8.1-.8h0Z"/>
  <path class="st0" d="M283,534.4c-3.3-3.2-9-8.8-11.3-12.6-.6-1-1-2.5-1.6-3.6-2.6-4.5-6.7-10-7.7-15-.3-1.6,0-2.2-.8-3.9-2.3-4.8-5.7-6-7-12.4-1.8-8.9-2-18-3.2-27-.7-5.5-2.1-10.8-2.9-16.2-.9-5.8,0-10,.5-15.7.1-1.5-.1-3.1,0-4.7.4-3.2,2-7.5,2.6-10.9,1.2-6.3,1.1-13.3,2.5-19.3,1.7-7.1,4.8-14.2,7.2-21,4.3-12.5,7.2-24.7,13.6-36.5,3.3-6.2,7.5-11.8,11.4-17.6,4.3-6.5,7.5-12.5,13-18.3,1.5-1.5,7-7.8,8-3.5,1.2,8.1.3,17.9,2.8,25.7.5,1.5,3.4,8.9,5.7,6.1.9-1.1.8-8,1-9.8.7-8.5,2.3-17,2.8-25.5,0-.6-.4-1.3-.3-1.9.3-5.5,2.9-13.6,5.1-18.7,3.1-7.2,18.1-16.6,24.9-21,13.5-8.9,18.6-7.8,34.1-9.1,2.3-.2,5.1-1,7.2-1.1.3,0,1.2,0,1.2.5-4.5,1.6-8.9,3.8-12,7.5-4.4,5-4.2,10.8-8.3,15.8s-15.4,7.8-21.6,9.1c-3.4.7-7.2,0-10.6.5,3,4,6.4,7.6,10.8,10,7.5,4.1,22.1,7,30.3,4.3,4.3-1.4,7.4-4.3,10.9-6.9.7,4.3,1.8,8.7,1.4,13.1-.6,7.8-8.7,12.4-9.4,20-.7.1-1.2.7-1.8,1.1-4.7,3.6-10,7.5-12.6,13-2-2.2-3.7-4.6-6.8-5-2.4-.3-10.3-.1-12.4.9-2.1,1-.8,2.2.8,2.7,5.4,1.9,8.1-.7,12.9,4.6.8.9,4.8,6,4.9,6.7.5,2.1-1.6,6.7-1.9,9.4-.8,9.5,3.5,13.8,5.1,22.2,2,10.2,1.6,16.2-4.6,24.6-4.2,1.1-7.6,2.4-12,1-14.1-4.5-10.4-15.5-13.9-26.5-6.1-19-29.4-12.2-40.5-1.8-7.2,6.8-9.9,12.3-13.8,21.1-1.2,2.8-3.6,6.2-4.2,9.1-.3,1.4.2,3-.1,4.1-.3,1.1-2.7,4.7-3.4,6.3-5.8,13.3-8.2,31-7.6,45.5.4,9.6.3,15.3-1.3,24.7-1.1,6.6-1.2,11.2.4,17.7,2.1,8.8,6.4,10.2,11.3,16.7,5.3,7.2,5.6,13.7,1.3,21.5h0Z"/>
  <path class="st2" d="M640.8,185.6c1.4,7.8,2,16.1,3.4,24.1,2.8,16.3,7.7,34,9.3,50.2,0,.8.3,4.4,0,4.9s-.8.8-1.3.6c-.7-.2-3.7-2.7-4.7-3.3-10.5-6.6-28.1-12.6-39.1-4-3.2,2.5-7.4,12.6-9,16.8-.6,0-.8.1-1-.5-.2-.9.8-5.2,1-6.5,4-31.9,2.2-65.5-1.9-97.3-3.1-23.2-7.6-46.3-14.2-68.7l1.5-26.3c12.2,14.7,23.5,30.4,33.1,46.9,9.8,16.8,17,32.5,20.8,51.7.7,3.8,1.6,7.6,2.3,11.4h0Z"/>
  <path class="st11" d="M366.7,395c-4.9,6.7-11.3,11.6-18.7,15.2-4,2-8.6,3-12.1,5.9-4.4,3.6-7.7,9.4-3.7,14.6-4.4,1.4-8.7,2.8-11.3,6.9-4.7-5.9-11.7-14.6-19.4-16.2-1.4-.3-6.4-.3-6.8-.7-1.4-1.1-.2-5.9-3.1-7.4-1.3-.6-6.1-2-2.4-4,4.8-2.8,7.3,0,11.4,1.5,14,4.9,27.9-4,26.7-19.2-.5-5.9-5-6-7-10.7-.6-1.4-.2-3.4-2.2-3-1.2.2-1.8,3.1-1.8,4.2.1,3.7,3.1,5.4,4.3,8.2,2.6,6.3-4.2,13.5-10.1,14.8-7.1,1.6-12.4-3.2-20.8-1.7-4.8.9-6.8,2.2-6.4,7.5s5.6,4.8,6.5,8.4c.7,2.7-1.6,4.4-2.9,6.6-7,12.2-7.3,29.7-5.5,43.3,1.2,9.9,4.6,18.7,8,28,7.5,20.8,23.8,38.2,44.2,47.1,14.1,6.2,23.2,9.3,38.8,10.5l-4.1,12.5c-7.9.4-14.9,0-22.7-1.8-4.8-1.1-8.9-3.1-13.4-4.5-4.9-1.6-9.9-2.3-14.8-4-11.9-4.3-25.1-13.9-34.2-22.6,4.4-7.9,4.1-14.4-1.3-21.5-4.8-6.5-9.2-7.8-11.3-16.7-1.5-6.6-1.5-11.1-.4-17.7,1.6-9.4,1.7-15.1,1.3-24.7-.6-14.5,1.8-32.1,7.6-45.5.7-1.6,3.1-5.2,3.4-6.3s-.2-2.6.1-4.1c.6-2.9,2.9-6.4,4.2-9.1,3.9-8.8,6.6-14.3,13.8-21.1,11.1-10.4,34.4-17.2,40.5,1.8,3.5,11-.2,22,13.9,26.5,4.4,1.4,7.8,0,12-1h0Z"/>
  <path class="st2" d="M281,165.1c2-8.2,3.8-16.8,6.7-24.7,5.4-14.4,13.9-28.6,22.7-41.2,10.3-14.9,21.9-29,34.2-42.2-.2,5.1-1.3,10.1-1.9,15.1-.3,2.4-.3,4.8-.6,7.2-1,7.2-3.3,13.6-5.3,20.4-12.1,42-20.8,88.4-21.8,132.3-.2,8,.3,16,.3,23.9l-1.1-.6c-1.7-6.5-3.7-15.7-9.7-19.2-11.8-6.9-27-1.2-37.7,5.1-.5.3-.9,1-1.5,1.2-1.8.6-2-.7-1.9-2.2.2-3.1,1.4-7.8,2-11,3-13.8,7.5-27.5,10.7-41.3,1.8-7.6,3.1-15.3,4.9-22.9h0Z"/>
  <path class="st11" d="M515.5,253.7c-.9,8.4-3.6,25.7,0,33,1.6,3.2,6.6,8.6,10.5,8.2-1.3,8.4-5.1,16.1-7.4,24.3-3.6,12.9-3.6,25.5,1.7,38,.7,1.7,1.8,4,3.8,4.4-1.7,10.4-3.8,15.4-12.6,21.5-2.5,1.8-9.6,5.9-12.5,6.4-2.6.5-1.8-1.3-1.1-2.8,3.1-6.8,5.7-10.3,7.3-18.1,2-9.8,4.3-27.9,2.3-37.4-1.6-7.5-6.1-12.6-8.1-19.6-2.2-7.6-5.1-18.9-5.7-26.7-.6-7.7-1.6-16.5-1.4-24.1.2-7.2.4-13.7,0-21-1-19.8-3.2-53-16.2-68.7-3.3-4-7.6-3.7-12.4-3-18.7,2.6-25.2,18.1-27,34.9-.3,2.8-.2,5.7-.6,8.5-.3,2.1-.5,4.1-2.4,5.4-2.5,1.7-6.9,3.5-9.8,5,.4-3.6,3.2-6.9,4.6-10.2,2.7-6.5.4-17.6,1-25,.2-2.8,1.6-5.6,1.9-8.1.2-1.7-.4-2.6.7-4.2,1.3-2,3-2.2,4.8-3.2s7.1-5,8.4-6.5c1.9-2.2,3.3-5.2,5.3-7.7,5.2-6.5,12-14.6,21.3-13.5,3.5.4,8.3,2.4,10.5,5.2.8,1,2.5,5.1,2.7,5.3.5.4,1.5.3,2.3.5,3.1,1.1,3.7,4.2,5.6,6,1.3,1.2,3.8,2.1,5.4,3.4,4,3.4,4.8,7.5,4.5,12.6-.1,2.1-1.1,5.4-1.1,7.2,0,.8,1,1.7,1.1,3,.4,4.4-.7,8.9-.9,13.3-.3,5.9,0,12.3,0,18.3-.1,15.2,2.7,21.6,11.2,33.6.6.8,1.1,1.5,2,2h0Z"/>
  <path class="st5" d="M661,170.1c-2-.8-4.7-1.7-6.9-1.4-1.1-4.5-2.1-9.1-3.4-13.6-2.9-10.3-7.5-28.4-13-37.1-3.2-5.1-7.3-11.2-11-15.8-11.3-13.9-25.8-29.5-39.5-41-.6-.5-1.4-1.3-2.2-1.2v7.1c0,.1-.5.6-.2,1,21.2,26.3,43.8,56.2,54.4,88.7,2.3,7,2.8,13.3,4.5,20.1.1.5,0,.9.8.8l-3.6,8c-.7-3.8-1.5-7.6-2.3-11.4-3.7-19.2-11-35-20.8-51.7-9.7-16.5-20.9-32.2-33.1-46.9l-1.5,26.3c6.6,22.4,11.1,45.5,14.2,68.7,4.2,31.8,5.9,65.4,1.9,97.3-.2,1.4-1.2,5.6-1,6.5.1.7.4.6,1,.5,0,.2,0,.7-.1,1.1-.7,1.8-1.8,5.6-3.1,6.9-1.1,1.1-3.4,1.5-4.7.6-.6-.4-.6-1-.7-1.1.7,0,.9,0,1.1-.7.7-1.6,1.5-6.7,1.8-8.7,5-27.8,3.6-60.1.6-88.1-2.4-22.9-6.5-45.6-11.9-67.9-.5,0-.3.6-.3,1-.7,18.6.8,38.5-3.1,56.6-.7,3.2-2,5.8-2.9,8.7-3.9,13.2-5.3,24.9-13.1,36.7-2.5,3.8-6.4,9.8-9.7,12.7-6.7,6-11.2,9.7-19.8,12.8-3.4,1.2-7.4,1.8-10.7,2.9-.7.2-1,1.3-1.9,1.3-.2-2.9.1-5.8,0-8.9,1.6-.3,3.7-.8,5.2-1.3,13.5-5.2,22-10.9,29-23.8,5.2-9.7,7.2-20.4,9.2-31.2,3.6-19.3,5.1-38.2,7-57.7,1.4-14.4,3.3-28.8,4.1-43.2.2-3.5-.4-4.1-.8-6.9-.7-4.8-.4-9.8-1-14.5-.4-2.9-2.5-10.6-1.8-12.9,1.2-3.9,5-1.3,7.4-.1,16.5,8.2,28.5,19.3,40.6,33,11.6,13.1,20.3,29.5,27.5,45.3,6.2,13.6,10.9,27.9,13.6,42.7h0Z"/>
  <path class="st5" d="M256.4,152.4l4.9-12.6c6.5-12.6,12-25.7,19.5-37.8,12.4-20.2,26-39.1,46.3-52.1,6.1-3.9,15.8-9.6,22.4-12.2,1.6-.6,3.1-.9,4.4.5.4,3.2-.4,6.4-.7,9.5,0,.4.5-.3.6,0,.1.9,0,2.7,0,3.6-.3,8.6-.5,17.3-.6,26,0,7.2-1.6,14.5-1.9,21.8-.7,18.7.9,38.7,2.8,57.2,1.4,13.4,4.8,25.7,10.2,37.9,4.6,10.4,10.9,20.5,20,27.5-.5,3.2-.3,5.2.8,8.3-6.3-2.1-11-7.6-14.8-12.8-1.4-1.9-2.5-4.2-3.9-6-2.2-2.7-4.2-4.3-5.9-7.7-5.5-11-11.9-23.5-14.6-35.5-1.8-8.3-3.1-16.6-3.7-25.1-.6-8-2.1-15.8-2.8-23.8-.3-3.2-.1-6.4-.3-9.7,0-.3.2-1-.3-1-7.8,28.8-13.4,58.3-16.6,88.1-2,18.1-3.1,36.3-2.2,54.5.2,3.1.1,7.8.9,10.7.2.6.5,1,1,1.3-2,1.7-3.5,4.7-5.7.3-1.3-2.7-1.4-5.6-2.1-8.3l1.1.6c0-8-.5-15.9-.3-23.9,1-43.9,9.7-90.2,21.8-132.3,2-6.9,4.3-13.2,5.3-20.4.3-2.4.3-4.8.6-7.2.7-5,1.7-10,1.9-15.1-12.4,13.2-24,27.3-34.2,42.2-8.7,12.7-17.2,26.8-22.7,41.2-3,7.9-4.7,16.5-6.7,24.7l-3-7.5c1-1.8,1-4.1,1.5-6.1,5.6-23.7,21-47.3,35.4-66.6,7.4-9.9,15.5-19.3,23.6-28.5-4.9,2.7-10.7,3.8-14.9,7.6-11.9,10.8-23.2,22.2-33.2,34.9-2.8,3.5-4.4,8.2-6.6,12.2-2,3.6-4.6,7.4-6.4,11.1-1.2,2.6-2.1,5.9-3.4,8.5-2.1,4.5-4.8,8.8-6.9,13.2-.7,1.5-1.1,3.4-1.9,4.9-3.4.5-5.9,2-8.9,3.6h0Z"/>
  <path class="st0" d="M515.5,253.7c-.9-.4-1.5-1.1-2-2-8.6-12-11.4-18.4-11.2-33.6,0-6-.3-12.4,0-18.3.2-4.4,1.3-8.9.9-13.3-.1-1.3-1-2.2-1.1-3,0-1.8,1-5.1,1.1-7.2.3-5.1-.5-9.2-4.5-12.6-1.6-1.4-4.1-2.2-5.4-3.4-2-1.8-2.5-4.9-5.6-6-.7-.2-1.8-.2-2.3-.5-.2-.2-2-4.3-2.7-5.3-2.2-2.9-7-4.8-10.5-5.2-9.2-1-16.1,7.1-21.3,13.5-2,2.5-3.4,5.5-5.3,7.7-1.3,1.5-6.6,5.4-8.4,6.5s-3.5,1.2-4.8,3.2c-1.1,1.7-.5,2.5-.7,4.2-.3,2.4-1.7,5.2-1.9,8.1-.6,7.4,1.7,18.5-1,25-1.4,3.4-4.1,6.6-4.6,10.2-3.5,1.9-9.4,4.3-10.2,8.8-.3,1.7.5,6.5-1.2,7.3-3.4,1.6-5.5-6.2-5.5-8.5,0-2.7,2.4-3.9,3.2-6.1s.7-4.7,1.6-7c1.1-2.9,3.7-5,4.8-8.2s1.6-10,1.3-13.2c-.5-5.1-4-7.3-3.6-12.8.2-2.6,3.4-13.6,4.8-15.7,1.6-2.4,6-4,8.5-6.1,7.9-6.8,6-10.3,8.4-19.2,1.7-6.2,11.1-12.6,15-18.2,2.5-3.5,1.7-5,2.7-8.6,1.8-5.9,7.1-.7,10.6.3,4.1,1.1,9.1.4,13.3-.1,2.4-.3,7.7-1.8,9.6-1.2,1.5.5,6.1,3,7.3,4,5.5,4.6,5.4,15.3,7.1,21.9.9,3.4,2.4,6.6,3.4,9.9,6.5,21.3,3.6,43.6,6.2,65.4.4,3.6,1.8,7.1,2.2,10.3.3,2.5,0,5.4.3,8,.5,3.7,1.9,7.1,2.2,10.8s-.5,6.6-.8,10.1h0Z"/>
  <path class="st0" d="M590.2,45.1c19.8,12.7,33.4,23.3,47.2,42.8,19.1,26.8,32.5,59,41,90.7.2.8-.4,1.6-1.2,1.5-5.3-3-10.5-7.6-16.2-10-2.7-14.8-7.4-29.1-13.6-42.7-7.2-15.8-15.9-32.2-27.5-45.3-12.1-13.6-24.1-24.8-40.6-33-2.4-1.2-6.2-3.8-7.4.1-.7,2.3,1.5,10,1.8,12.9.6,4.7.3,9.8,1,14.5.4,2.8,1,3.5.8,6.9-.8,14.4-2.7,28.8-4.1,43.2-1.9,19.5-3.4,38.5-7,57.7-2,10.8-3.9,21.5-9.2,31.2-7,12.9-15.5,18.7-29,23.8-1.5.6-3.5,1.1-5.2,1.3,0-1,0-1.9,0-2.9-.1-1.8-1.2-5.7-.5-7.1.9-1.8,6.7-3.2,8.6-4.1,6.2-3,10.2-11.4,12.9-17.5,10.5-22.7,16.6-48.6,19.8-73.4,1.5-11.2,1.4-21.7,2.2-32.9.6-7.9,2.7-17.3,1.9-25.2-.2-2.5-1.7-5.6-1.7-8.2s1.4-8.2,1.7-11.8-.2-6.7.3-10.2c.3-2.5,1.4-8,4.3-8.5,3.2-.5,9.4,1.2,12.6,2.3,2.5.9,4,3.4,6.9,3.5h0Z"/>
  <path class="st11" d="M383.1,314.8c-.2,2.5,0,6.5,1,8.9,1.4,3.7,10.1,12.2,14,13,.4,3.1,2.2,6.4,5.1,7.7,4.2,1.8,11.5,0,15.6-1.8,3.3-1.4,5.2-3.6,7.8-5.9.7,9.7.1,28.3,4.9,36.2,2,3.3,5.6,6.1,9.2,3.3,1.2,4.4,4.5,8.1,7.6,11.4,2,2.1,4.3,3,4.6,6.5.2,2.7-2.3,9.9-3.4,12.7-3.2,8.2-7.2,11.5-7.7,21.2-4.4-1.6-9.3-2.1-13.5.3.4-5.2.8-8.9-1.5-13.8-1.5-3.1-4.8-6.6-4.8-10.1s3.4-7.7,4.5-11c2.5-7.7-1.7-13-3.6-20.1-.7-2.6-.9-6-1.6-8.3-.4-1.2-1.4-2-2.5-1.1-1.9,1.5-1.2,10.3-.8,12.7,1.1,6.4,7.3,16.6-3.6,17.6-2.8.3-5.9,0-8.8.3-8.5.7-17.1,3.5-25.7,2.5-1-.1-2.7-.7-3.1-1.6-.7-1.7,1-6.5,1.4-8.6,1.6-9,.2-16-2.6-24.5-1.2-3.5-4.1-9.2-3.7-12.9.3-3.4,4,.4,5.6.8,4.3,1,4.6-3,3.3-6.1-1.6-3.7-8.9-11.8-11.9-15.1,2.5-5.5,7.9-9.4,12.6-13,.5-.4,1.1-1,1.8-1.1h0Z"/>
  <path class="st9" d="M385,230.1c.4,1.1.9,2.1,1.4,3.1s2.7,3.3,2.9,3.8c.8,2.7-3.1,1.2-4.5,1.1-12.2-1.2-20.4-2-31.6,3.8-10.1,5.3-22.5,14-31.3,21.4-.5-.3-.9-.7-1-1.3-.8-3-.7-7.6-.9-10.7-.9-18.2.3-36.4,2.2-54.5,3.2-29.8,8.8-59.3,16.6-88.1.5,0,.3.6.3,1,.1,3.2,0,6.4.3,9.7.7,7.9,2.1,15.8,2.8,23.8.6,8.4,1.9,16.8,3.7,25.1,2.7,12,9.1,24.5,14.6,35.5,1.7,3.4,3.7,4.9,5.9,7.7,1.5,1.9,2.5,4.1,3.9,6,3.8,5.2,8.5,10.7,14.8,12.8h0Z"/>
  <path class="st9" d="M590.8,282.4c-7-7-17-14.9-25.2-20.5-15.1-10.4-21-8.6-38.5-8.2-3.7,0-5.7.2-6-3.9.9,0,1.1-1.1,1.9-1.3,3.3-1.1,7.2-1.7,10.7-2.9,8.7-3.1,13.2-6.8,19.8-12.8,3.3-2.9,7.2-8.9,9.7-12.7,7.7-11.8,9.1-23.5,13.1-36.7.9-3,2.2-5.5,2.9-8.7,3.9-18.2,2.4-38,3.1-56.6,0-.3-.2-1,.3-1,5.4,22.3,9.5,45,11.9,67.9,2.9,28.1,4.3,60.3-.6,88.1-.3,2-1.1,7.1-1.8,8.7-.3.6-.5.7-1.1.7h0Z"/>
  <path class="st0" d="M344.6,26.9c5.1-.7,13.7.8,15.7,6.3,1.7,4.8,3.3,12.5,2.6,17.5-.2,1.6-2.2,4.9-2.8,6.8-2.9,9.3-1.1,18.7-.8,28.2.3,8.1-.1,16.3.2,24.4,1.3,27.1,5.5,54,14,79.7,1.9,5.7,5,14.6,8.8,19.1.7.9,4.1,3.5,4.2,3.8.4,1.2-1.5,5.2-2,6.8-.2.9-.4,1.5-.5,2.4-9-7-15.4-17.1-20-27.5-5.4-12.3-8.8-24.6-10.2-37.9-1.9-18.6-3.5-38.5-2.8-57.2.3-7.3,1.9-14.6,1.9-21.8,0-8.7.2-17.4.6-26,0-1,.1-2.8,0-3.6,0-.3-.5.3-.6,0,.3-3.1,1.1-6.4.7-9.5-1.2-1.5-2.8-1.1-4.4-.5-6.6,2.6-16.3,8.3-22.4,12.2-20.3,13-33.9,32-46.3,52.1-7.4,12.1-12.9,25.2-19.5,37.8l-4.9,12.6c-3,1.7-7.2,4.9-10.1,6.1-2.5,1-1.8-1.1-1.4-2.7,1.1-4.2,3-9.3,4.6-13.4,12.9-34.8,38.5-80.4,70.3-100.9,6.2-4,13.2-8.1,19.7-11.8,1.2-.7,4-2.6,5.2-2.7h0Z"/>
  <path class="st0" d="M443,219.7c3.8-.6,2,3.7,1.2,5.7-1.4,3.4-5.6,9.6-5.9,13-.3,3.9,2.3,3.3,3.2,5.3.7,1.5-.1,3.8,1.3,5.1,1.7,1.5,8,.5,7.9,3.1,0,1.1-3.1,3.6-4,4.6-2.7,3.1-5.4,7.6-5.4,11.8,0,4.7,3.4,5.2-1.7,8.6s-10,4.5-14.2,9.6c-9.4,11.2-5.2,27.6-14,38-2.6,3.1-8.2,7.4-12.5,5.9-3-1-9.6-8.9-10.1-12-.8-5,4.4-10.2,6.6-14.3,4.7-8.7,1.6-17.9.6-27.1,2.4-3.6,6.1-6.8,6.5-11.4,0-.5-.3-1-.2-1.6.6-4.6,2.5-13.3,5-17.1.3-.4,2.5-3.3,2.7-3.4.2-.1,3.3.2,4,.2,9.5-.5,2.4-9.5,7.2-13.8,1.7-1.6,8-4.2,10.5-5.3s8.8-4.2,11.2-4.6h0ZM420.7,250.3c-.2.1-.8,0-1.3.2-10.2,5.8-13.6,27.2-14.2,37.8,0,1.2-.2,8,.2,8.5.2.3,1.4.3,1.6.1.3-.2.2-1.3.3-1.6,2,.2,2.1-1.9,2.8-3.1.8-1.5.9-1.8,1.5-3.2.3-.7,2.4-2.8,3-3.6,2.6-3.7,5.2-7.4,7.9-11,.5-.7,1-1.5,1.7-2.2,1.8-2.2,3.7-3.7,4.7-6.6.7.1.6-.3.8-.7.5-.9,1-1.9,1.4-2.9.9-1.9,2-4,2.4-6,.8-3.7.9-7.6,1.2-11.4-4.4,1.5-9.1,2.7-13.3,4.9-.4.2-.8.9-.9.9h0ZM406.1,311c-4.2,3.9,2,11.3,5.3,6.8s-1-10.8-5.3-6.8ZM394.9,312.1c-3.3.5-4.5,7.1-.6,7.7,6.2,1,5.4-8.4.6-7.7Z"/>
  <path class="st7" d="M654.1,168.7c-3,.4-7,6.1-8.8,8.4-.2.3-.5.4-.8.4-.7.1-.6-.3-.8-.8-1.7-6.9-2.2-13.1-4.5-20.1-10.6-32.5-33.2-62.4-54.4-88.7-.3-.4.2-.8.2-1v-7c.8,0,1.6.7,2.2,1.2,13.7,11.4,28.3,27.1,39.5,40.9,3.7,4.6,7.8,10.8,11,15.8,5.5,8.7,10.1,26.7,13,37.1,1.3,4.5,2.3,9.1,3.4,13.6h0Z"/>
  <path class="st7" d="M500.9,332.2c.9,4.1,1.7,10.2.5,14.2-2.1,7.6-18,20-25.6,22.3-13,3.9-22.2-2.2-29.7-12.1-1.1-1.4-4.7-6.3-4.8-7.7,0-1.3,2.4-6.4,3-8.4s.6-3.6.9-5.6c1.6,1,3,2.2,4.8,3.1,5.4,2.8,20.2,7.2,26,6.6,6.2-.6,16.6-5.7,21.4-9.6,1.1-.9,1.8-3,3.3-2.9h0Z"/>
  <path class="st7" d="M265.2,148.8c.8-1.5,1.2-3.4,1.9-4.9,2.1-4.4,4.8-8.7,6.9-13.2,1.2-2.7,2.1-5.9,3.4-8.5,1.7-3.7,4.4-7.4,6.4-11.1,2.2-4,3.8-8.7,6.6-12.2,10-12.7,21.2-24,33.2-34.9,4.2-3.8,10-4.9,14.9-7.6-8.2,9.2-16.2,18.6-23.6,28.5-14.5,19.3-29.9,42.9-35.4,66.6-.5,2-.5,4.3-1.5,6.1-.6,0-.9-.2-1.3-.5-1.1-1.1-2.3-3.5-3.5-4.9-2.5-2.9-4-4-8-3.5h0Z"/>
  <path class="st0" d="M524.1,361.5c-2-.4-3.1-2.7-3.8-4.4-5.3-12.6-5.2-25.1-1.7-38,2.3-8.2,6.1-15.9,7.4-24.3,3.5-.3,1.7-3.4.3-5.1-1.6-1.9-3.4-3.2-4.7-5.5-2.8-4.8-3.3-14.5-2.4-19.9.7-3.8,1.5-5.2,5.5-3.4,5.2,2.3,8.3,10.7,10.2,15.8,3,8.1,5.7,17.4,2.8,25.9-2,6-8.2,13.8-8.8,20-1.2,13-2.6,26.1-4.7,38.9h0Z"/>
  <path class="st13" d="M390.5,556.3c5.5.4,10.9.8,16.5.3,8.6-.8,17.1-3.1,25.5-4.1,3.9-.5,7.9-.2,11.9-.6,4.2-.4,8.3-1.9,12.5-2.2,6.5-.5,9.8-1,16.1-2.1,9.9-1.8,30.1-5.4,37.7-11.8,2.2-1.8,4.4-4.8,7.3-5.7.4-.1.5,0,.4.4,0,.7-4.1,5.6-4.8,6.5-5.4,6-16.2,9.3-23.8,11.9-16.4,5.6-33.2,9.8-50.3,11.9-6.5.8-9.9,1.8-16,3.7-6,1.8-13.1,1.3-19.2,3.5-7.9-.2-15.8-.2-23.6-.3.7-3.6,3.2-6.1,6-8.3,1.3-1,3-1.7,4-3h0Z"/>
  <path class="st0" d="M450.3,289.3c-1.8,14.5-7.2,28-9.4,42.5-1.9,12.3-3.6,32.4-.3,44.4-3.7,2.8-7.3,0-9.2-3.3-4.7-8-4.1-26.5-4.9-36.2v-.3c8.1-6.2,6.3-17.5,8.1-26.6,1.8-9.2,6-13.7,13.2-19.1.7-.5,1.6-1.2,2.5-1.3h0Z"/>
  <path class="st14" d="M397.2,244.5c-2.8,2-5.3,4.1-6.5,7.5-1.7,4.7-2.3,10.6-5.4,14.7-.7.9-2.2,1.7-2.5,3,.3.3,2.9-2,3.3-2.3,5.3-5.1,4.5-8.9,6.9-14.9,1.9-4.6,6-6.3,10.4-7.9.4.2,0,.5,0,.7-2.5,5.6-4.3,11.5-5,17.6-.1,1.1.2,2.5,0,3.5-1.2,4.7-13,15.2-17.6,17.3-8.8,3.9-21.7,0-30-3.9-1-.5-2.2-.5-3-1.5.9-.6,2.1-.2,3.1-.5,11.1-2.5,22.6-5.1,27.6-16.6.9-2.1,1.2-4.7,2.3-6.8,2.9-5.6,10.4-9,16.4-10h0ZM382.2,270.3c-.7,0-1-.2-.8.5l.8-.3v-.3Z"/>
  <path class="st3" d="M505.6,436.5c.3-2.1-1.5-3.9-2.8-5.4-3.7-4.5-8.6-7.4-12.2-11.3-2-2.2-.6-3.3,1-5.1,2.8-3.2,6.3-5,6.8-9.8.2-2.1-.9-8,.1-9.2l13-5c1.3,0,1.4.8,1.7,1.9,1.3,5.4,1,13.2,1.8,19,1,8,3.6,17.6,6.6,25.1-.3.5-1,.3-1.5.3-3.7,0-7.4,0-11.1,0-.9,0-2.7-.6-3.4-.3h0Z"/>
  <path class="st7" d="M492.9,307.6c.6,3,1.2,5.9,1.8,8.9.5,2.3,1.9,4.3.1,6.4-1.2,1.4-6.5,4.7-8.3,5.9-7.4,4.6-11.4,7.5-20.4,4.4-4.9-1.7-11.1-6-14.7-9.6-3.4-3.4-1.9-5.8-1-10.1.5-2.2,1.1-4.4,1.8-6.6,1.9,2.1,5,2.7,7.5,3.7,2.9,1.2,5.6,2.6,8.8,3.4,8.9,2.2,14.4-.4,21.9-4.6.9-.5,1.7-1.2,2.6-1.7h0Z"/>
  <path class="st13" d="M325.5,446.2c3.2.6,3.4-.9,5.4-2.4,2.2-1.7,5.5-4,7.9-5.4.5-.3,3.6-2,3.9-2.1,1-.2,4.4.3,6,.3,9.5-.1,16.9.5,25.6,4.8,4.2,2.1,6.9,5.7,1.8,9-3.8,2.5-4.1-.4-7.4-1-2.1-.4-6.1,0-4.3,2.9.7,1.2,9.5,8,4.4,8.8-2.7.4-8.5-1.6-11.1-2.7-3.4-1.5-6.3-3.8-10-4.7-6.1-1.5-14.2-.2-19.8-2.3-3.2-1.2-2-2.6-2.3-5.3h0Z"/>
  <path class="st7" d="M445.3,373.7c1-.2,1.2.6,1.6.8,2.7,1.6,6,2.6,9,3.4,2.3.6,4.7,1.4,7.5,1.6,11.5.8,27.8-5.8,35.5-14.2.7-.7,1.1-1.7,1.9-2.4-1.1,10.8-8.4,25.4-17,32.1-5.1,3.9-11.8,5.2-17.4,1.6-6.1-3.9-18.8-16.2-21.2-22.9h0Z"/>
  <path class="st12" d="M450.3,289.3c-.9,0-1.8.8-2.5,1.3-7.2,5.4-11.4,9.9-13.2,19.1-1.8,9.1,0,20.4-8.1,26.6-.3-3.8-.4-6.8-1.6-10.5-.6-1.7-1.6-4.6-3.4-5.3,4-9.8,3-24.6,10.4-32.6,1.9-2.1,3.9-2.3,6.1-3.5,4.3-2.4,13.2-10.2,12.8,0,0,1.4-.4,3.4-.5,4.8h0Z"/>
  <path class="st13" d="M441.7,432.6c.2,4.4,1,7.8,4.7,10.6,3.5,2.6,15.3,7.2,8.4,12.6-3.3,2.6-10.9,2.5-14.8,1.5-3.3-.8-4.8-2.6-8.6-2-1.9.3-3.9,2.4-5.6,2.3-2.1-.1-6.6-4.3-6.1-6.6,1.5-3.5,4.5-6.1,6-9.5,1.4-3.1,1.5-5.7,1.9-9,4.5,2.5,9.4.2,14.1,0h0Z"/>
  <path class="st7" d="M456.1,280.5c1.4-.3,2.1.9,3.2,1.4,4.5,1.8,16.6,3.7,21,1.6l6.8-4.6c.5,3,2.6,11.1,2.1,13.6-.4,2-1.9,1.7-3.2,2.6-7.1,4.4-13.4,11.2-22.6,6.5-1.7-.9-7.5-5.3-8.3-6.9-.3-.5-.5-1-.5-1.6.8-4.2.9-8.5,1.6-12.6h0Z"/>
  <path class="st15" d="M521.6,436.5c1.8,4.3,3.7,9.1,8.8,10.2,1.6.4,10.2-.3,7.2,3.3-2.1,2.5-8.3,3.4-11.4,3.1-2-.2-3.7-1.2-5.8-1.1-1.9,0-3.3,1.4-5,1.4-3.2,0-10.6-4-14.2-5.2-2.5-.9-6.1-1.2-8.1-3-3.7-3.2.2-4.2,2.9-5.1,3-1,6.2-1.5,9-2.9.3-.1.5-.7.6-.7.7-.3,2.5.3,3.4.3,3.7,0,7.4,0,11.1,0,.5,0,1.2.2,1.5-.3h0Z"/>
  <path class="st15" d="M382.2,428c3.6-.5,8.9.5,12.6.5,8.1,0,16.5-2.6,23.1,3.8,1,1,3.5,4.1,3.3,5.5-.2,1.3-5.5,8.1-6.6,8.6-.3.1-.6.2-.9.1l-11.7-12.1c-2.2-.5-2.1,2.8-3.4,4.2-4.6,5.1-9.2-4.6-14.1-3.1-1.6.5-1.1,2.2-3.8,1.1-.8-.3-5.5-3.2-5.5-3.8,1.3-2.3,4.4-4.4,7.1-4.8h0Z"/>
  <path class="st10" d="M500.9,362.9c-.8.6-1.2,1.6-1.9,2.4-7.8,8.5-24.1,15-35.5,14.2-2.8-.2-5.2-1.1-7.5-1.6-3-.7-6.3-1.8-9-3.4-.4-.2-.6-1-1.6-.8-.8-2.2-1.8-7.6-1.4-9.8.4-2.4,3.9,1.8,4.6,2.3,9.9,8,21.3,10.2,33,4.2,6.2-3.2,10.4-7.7,15.9-11.5.6-.5,1.9-1.5,2.7-1.1,1.4.6,1,3.9.8,5.1Z"/>
  <path class="st7" d="M462.4,250.1c.8,0,.7.8,1.3,1.4,3.1,2.9,13.3,5.4,17.4,5,2-.2,4.3-1.2,6.2-1.7-.2,3.2-1.1,10.1-3.3,12.3-1.8,1.9-10.8,5-13.4,4.8-3.7-.3-9.1-3.6-10.1-7.3-.5-1.8.7-4.7,1-6.7.4-2.6.4-5.3.9-7.8h0Z"/>
  <path class="st5" d="M414.5,128.7c1.7-.5,3.6,2.4,4.8,3.4,1,.9,2.2,1.8,3.2,2.6,1.7,1.2,7,3.6,7.8,4.9s.5,3.6.3,5.2c-.6,4.8-2.4,9-6.2,12.1-4.6,3.7-6.8,2.4-8.7-2.9-1.8-4.7-3.9-19.8-2.1-24.2.2-.4.4-.9.9-1.1h0Z"/>
  <path class="st3" d="M426.5,336.4v.3c-2.5,2.3-4.5,4.6-7.8,5.9-4.1,1.7-11.4,3.6-15.6,1.8-3-1.3-4.7-4.6-5.1-7.7,10.2,2,19.9-7.2,23.5-16,1.8.7,2.8,3.6,3.4,5.3,1.2,3.7,1.3,6.7,1.6,10.5Z"/>
  <path class="st7" d="M466.3,228.5c4.4.9,11,.9,15.2-1,1.4-.6,2.6-1.9,4.1-2.4.6,3.9,1.8,13,.6,16.5-1,3-5.5,4.5-8.5,4.1-2.3-.3-5.3-2.5-7.2-3.9-1.2-.8-4.2-2.7-4.5-4-.8-3-.3-6.5.2-9.5h0Z"/>
  <path class="st10" d="M500.9,332.2c-1.5-.2-2.2,2-3.3,2.9-4.8,3.9-15.2,9-21.4,9.6-5.9.6-20.6-3.8-26-6.6-1.8-.9-3.1-2.1-4.8-3.1,0-.2.2-.5.3-1,.2-1.3-.2-5.8,1.8-6,1.4-.1,6.1,4.5,7.7,5.6,7,4.9,18.2,8,26.5,4.8,5.8-2.3,11.2-7.2,16.8-10,2.2-.5,2.2,2.4,2.6,3.8h0Z"/>
  <path class="st8" d="M363.1,18.3c1.2,1.2,2.6,1.8,3.9,3.2,2.4,2.7,4.6,7,4.1,10.7-.2,1.4-2.2,4.5-2.9,6.1s-1,3.2-1.7,4.7c-1.1,2.5-2.7,5.1-3.7,7.7.7-5-.9-12.7-2.6-17.5-2-5.5-10.6-7-15.7-6.3.2-.5.6-.6,1-.8,5.8-3.1,11.3-5.6,17.5-7.8h0Z"/>
  <path class="st8" d="M570,33.2c1.5.2,6.8,3.4,8.5,4.4,4,2.3,7.8,5,11.7,7.5-2.9,0-4.4-2.5-6.9-3.5-3.2-1.2-9.3-2.8-12.6-2.3-2.9.5-3.9,6-4.3,8.5-.5,3.5,0,6.8-.3,10.2s-1.7,8.4-1.7,11.8c-.5-3-2.3-5.7-3.3-8.4-.7-1.8-1.9-5.5-2.2-7.3-.5-3-.7-12.9.3-15.6,1.6-4.1,6.6-5.8,10.7-5.2h0Z"/>
  <path class="st10" d="M492.9,307.6c-.9.5-1.7,1.2-2.6,1.7-7.5,4.3-13,6.8-21.9,4.6-3.2-.8-5.9-2.2-8.8-3.4-2.5-1-5.6-1.6-7.5-3.7.8-2.6,1.1-6.5,4.8-4.4,3,1.8,4.2,4,8.1,5.1,9.1,2.7,15.5-2.5,22.8-6.6,2.1-1.2,2.8-1.3,3.7,1.1.7,1.8.8,3.7,1.2,5.6h0Z"/>
  <path class="st5" d="M441.8,101.3c1.7,1.8,1.4,4,2.7,6.2,1.1,1.9,3,2.5,3.9,4.4s.9,3.2.2,5.2c-1.2,3.3-8.4,11-11.5,12.9-1.6,1-2.6,1.5-3.5-.6-2.3-5.3.4-13.5,2.6-18.6.6-1.3,4.7-9.6,5.6-9.6h0Z"/>
  <path class="st10" d="M487,278.8l-6.8,4.6c-4.4,2.1-16.4.2-21-1.6-1.1-.5-1.8-1.7-3.2-1.4.2-1.4.8-5.3,2.1-6.1,1.7-1,4.7.8,6.5,1.3,4.8,1.3,9.4,1.4,14.1,0,1.5-.4,5.5-2.5,6.5-2.4,1.7.2,1.6,4.2,1.8,5.5h0Z"/>
  <path class="st0" d="M403.2,239.6c-1.2-.3-4.8,1-5.5.4-1.8-4.3-5.5-7.3-8.1-11-1.9-2.6-1.9-3.4-1-6.5.5-1.6,2.5-7.6,4.5-7.3,4.1.6,7.2,11.9,8.1,15.4.8,3,1.3,6,2,8.9h0Z"/>
  <path class="st5" d="M403.7,184.3c1.2-.4,4.2,3,5,4,1.6,1.8,4.3,5.1,4.6,7.5.5,3.1-.5,10.5-2.7,12.9-2.9,3.2-4.4-1.6-5.3-3.9-1.6-4.4-4-15.2-2.6-19.5.1-.4.4-1,.8-1.1h0Z"/>
  <path class="st3" d="M352.4,416.4c2.4-1,8.6-6.2,10.9-6.2,1.2,0,1,.9,1,1.8-.3,4.4-1.8,8.8-1.4,13.3.2,2.7,2.2,4.5-2.1,4.6-1.9,0-6-.6-7.3-2.1-2-2.3-2-8.6-1-11.4h0Z"/>
  <path class="st8" d="M390.5,556.3c-1,1.4-2.7,2-4,3-2.8,2.2-5.2,4.7-6,8.3-4.1,0-8.4-.5-12.5-.3l4.1-12.5c6.1.5,12.2,1,18.2,1.4h0Z"/>
  <path class="st8" d="M342.7,436.2c-.3,0-3.3,1.8-3.9,2.1-2.4,1.4-5.6,3.7-7.9,5.4-2,1.5-2.2,3.1-5.4,2.4-.4-3.4-2.7-6-4.7-8.6,2.6-4.1,6.9-5.5,11.3-6.9.7.9,3.6,3.2,4.7,3.7,1.8.9,3.9,1.1,5.8,1.8h0Z"/>
  <path class="st5" d="M480.6,94.9c.5,0,.8.4.9.9.4,1.8-.5,9.2-1.1,11.1-1,2.8-5.8,3.8-8.4,4-4.7.4-11.6-.3-6-6,2.2-2.2,6.8-5.3,9.5-7.1.9-.6,4.3-2.9,5.1-2.9h0Z"/>
  <path class="st10" d="M487.3,254.8c-1.9.5-4.3,1.5-6.2,1.7-4.1.4-14.3-2.1-17.4-5-.6-.6-.5-1.4-1.3-1.4.2-1.3,1.5-6.6,3.2-6.4.6,0,3.1,3.3,4,4,2.3,1.8,5.7,2.8,8.7,2.9,1.8,0,6.9-1.1,8-.5,1.6.8,1.1,3.2,1,4.6h0Z"/>
  <path class="st5" d="M282.1,307.9c.8,1.2-2.8,6.3-3.6,7.5-1.7,2.5-4.4,6.4-6.4,8.5-.3.3-1.1,1.2-1.5,1-1-.5-2.3-4.8-2.6-6-.4-1.4-1.7-6.2-1.1-7.2.5-.8,7.2-2.8,8.5-3.1,1.1-.3,6.3-1.5,6.8-.8h0Z"/>
  <path class="st5" d="M301.4,277.5c.9,0,4.2,0,4.8.3.3.1.7.8.8,1.2.4,2.6-6.6,9.6-8.7,11.1-.7.5-1.8,1.6-2.7,1.4-.8-.2-2.5-4.5-2.9-5.4-.6-1.6-2.2-5.5-.7-6.7s7.5-1.8,9.5-1.9h0Z"/>
  <path class="st5" d="M241.6,457c.7-.2,1.4.8,1.6,1.4,1.3,2.7,1.8,12.6.9,15.3s-6.5.1-8.3-.8c-6.4-3.4-2.4-5.5.6-9.1.8-.9,4.8-6.6,5.2-6.8h0Z"/>
  <path class="st7" d="M467.4,209.7c.7,0,1.4.3,2.1.3,2.2,0,5.7-.5,7.9-.9,2-.4,4.2-1.2,6-2.1.4,1.7,1.8,6.9,1.3,8.4-.4,1.3-3.1,1.8-4.3,2.1-7.1,1.2-12.5.6-13.1-7.7h0Z"/>
  <path class="st5" d="M516.6,195.1c1.7-.5,3.2,2,4.4,3,1.8,1.4,5,3.1,6.3,4.4.8.8.8,1.2.1,2.1-1,1.5-7.1,6.6-8.7,7.4-.6.3-1.1.5-1.7,0-.7-.6-1.3-4.6-1.5-5.7-.3-1.9-1.3-10.4,1-11.1Z"/>
  <path class="st13" d="M371.2,32.1c.5-3.7-1.7-8-4.1-10.7-1.2-1.4-2.6-1.9-3.9-3.2,4-1.4,7.9-2.9,12.3-2.7,2.6,0,4.7,1.1,3.6,4-.5,1.2-3.2,5.6-4.1,7-1.2,1.9-3,3.3-3.7,5.6Z"/>
  <path class="st13" d="M570,33.2c-4.1-.6-9.2,1.1-10.7,5.2-1,2.7-.9,12.6-.3,15.6-2.1-3.6-3.4-8.5-4.1-12.7-.4-2.4-1-8.3,0-10.4,1.8-3.8,7.4-1.2,10.2,0,1.7.7,3.4,1.5,5,2.3h0Z"/>
  <path class="st5" d="M244.7,399.8c1.3,1.3,0,6.3-.3,8-.2,1.2-1.7,7.5-2.4,7.8-.9.5-1.3-.1-1.8-.7-1.6-1.6-5.8-6.5-6.9-8.3-.7-1.2-.6-1.5.5-2.3,1.6-1,4.6-2.1,6.6-3.1,1.1-.5,3.3-2.6,4.4-1.5Z"/>
  <path class="st10" d="M485.7,225.2c-1.5.4-2.8,1.7-4.1,2.4-4.2,1.8-10.8,1.9-15.2,1,.2-1.2.1-2.3.7-3.6,1.3-2.8,5.2-1.8,7.8-1.9,3.2-.2,6-1.1,8.9-2.5,1.7-.2,1.8,3.5,2,4.7h0Z"/>
  <path class="st10" d="M483.5,206.9c-1.9.9-4,1.7-6,2.1-2.2.4-5.7.9-7.9.9-.7,0-1.4-.2-2.1-.3,0-1.2-.2-4.2,0-5.3.5-2.3,3.6-1.4,5.3-1.6,1.4-.2,7.8-2,8.3-1.9,1.1.3,2.1,4.8,2.4,6h0Z"/>
  <path class="st5" d="M254.1,505.1c.5,0,.8.3,1.2.7,1.2,1.4,5.6,9.1,5.8,10.8.4,2.5-1.8,2.2-3.7,2.1-1.7-.1-8.1-1.7-8.1-3.7,0-1,2.6-7.1,3.3-8.3.3-.6.8-1.4,1.5-1.5h0Z"/>
  <path class="st5" d="M253.4,363.1c-1.2-1-4.6-6.5-5-7.9-.4-1.6,2.3-3.2,3.6-3.9.9-.5,5.2-2.5,6-2.3s1.1,1.2,1,1.9c0,1.5-1.4,6.1-1.9,7.8-.3.9-1.8,5.1-2.6,5.1-.3,0-.9-.4-1.2-.7h0Z"/>
  <path class="st7" d="M478.8,187.6c.9,1.6,1.9,4.6,1,6.3-.8,1.4-7,4.2-8.4,4.1-2.6-.4-4.2-4.9-4.7-7.1l12.2-3.3h0Z"/>
  <path class="st7" d="M450,194.7c-1-2.9-.3-6.3-1.7-9.1,1.2-2.3,5.9-9.8,8.9-5.9,3.3,4.3-4.3,12.2-7.2,15.1Z"/>
  <path class="st8" d="M441.7,427.9c0,1.5,0,3.2,0,4.7-4.7.2-9.6,2.5-14.1,0,.2-1.4.5-3.1.5-4.4,4.2-2.4,9.1-1.9,13.5-.3h0Z"/>
  <path class="st5" d="M340.7,571.5c1.5,1.9-1.8,8.2-3.9,7.9-1.9-.3-6.8-6.8-7.8-8.5-1.9-3.4,1.4-2.8,3.8-2.4,1.4.3,7.1,2,7.9,3h0Z"/>
  <path class="st5" d="M296.7,556.7c-1.1,1.2-7.5,1.7-8.8.5s-2.3-8.7-.4-9.2c1.8-.5,7.7,5.6,8.8,7.2.4.5.9.9.4,1.5h0Z"/>
  <path class="st6" d="M343.2,419.9c2-.5,3.3,5.1,3.4,6.5"/>
  <path class="st3" d="M452.4,258.4c.8-.1,1.3.2,1.5.9-.5,2.3-.6,9.1-3.3,10-1.5.5-4,.2-4.2-1.7-.2-2.1,3.9-8.8,6-9.2h0Z"/>
  <path class="st14" d="M383.8,574.9c2.6-.1,5.6.5,8.1.8,1.5.6-.1,2.2-.8,3-.8.9-2.6,2.9-3.8,2.7s-6.8-4.5-6.5-5.6c.5-.7,2.1-.9,3-.9h0Z"/>
  <path class="st5" d="M513,148.3c2.1-.5,8.3-.4,6,3.2-.6,1-4.5,4.6-5.6,4.6-2.1.1-3.3-7.3-.5-7.9Z"/>
  <path class="st10" d="M478.8,187.6l-12.2,3.3c-.5-1.9-1.6-4,1-4.9,1.3-.4,6.1-.7,7.6-.6,2,.2,2.5.4,3.5,2.2h0Z"/>
  <path class="st5" d="M508.5,115.7c.2.2.3.6.3.9,0,.9-2.9,7.4-3.6,8.3-1.5,1.9-2.5-1.5-2.7-2.8s-.4-3.4.1-4.5c.7-1.4,4.7-3.1,5.9-1.9h0Z"/>
  <path class="st7" d="M464.4,179.8c.6-2.2,2.6-3.6,3.6-5.5,3,.6,8.2,4.4,3.2,6.1-2.4.8-4.6.6-6.8-.6Z"/>
  <path class="st14" d="M324.4,456.5c1.4,1.6-3.1,5.1-4.4,5.8-4.3,2.1-4.9-.3-2.4-3.5,1.4-1.7,4.8-4.6,6.8-2.3Z"/>
  <path class="st3" d="M453.7,241.9c.5-.6,3.6-3.3,4.2-3.6,2.7-1.4,1.9,4.5.7,5.9-2.1,2.4-8,1.4-4.9-2.3h0Z"/>
  <path class="st10" d="M450,194.7c-.8.8-2.9,3.8-4.2,2.1-1.6-2,1.4-9.1,2.5-11.2,1.4,2.9.7,6.2,1.7,9.1h0Z"/>
  <path class="st4" d="M556.7,453.1c-.6.9-5.1-1.8-6-2.1-1.5-.6-5.8-1.1-6.3-2.3-.5-1.1.3-2.1,1.4-2.2,1.5-.1,10.1,4.2,10.8,5.5.1.3.3.9.1,1.1h0Z"/>
  <path class="st14" d="M438.3,566.8c1.5-.2,6.2-.2,7.3.9.3.3.4.6.2,1-.7,2.3-8.9,1.2-9.3-.3-.4-1.2,1-1.5,1.8-1.7h0Z"/>
  <path class="st14" d="M379.9,464.5c3.6,4-7.1,5.4-5.3-.4.8-2.6,4.1-.9,5.3.4Z"/>
  <path class="st10" d="M468,174.3c-1,2-3,3.3-3.6,5.5-1.1-.6-4.1-3.1-3.5-4.4.8-1.7,5.5-1.4,7.1-1.1h0Z"/>
  <path class="st7" d="M447,210c-1.8.2-3.5-.5-5.2-.6,0-1.4.2-2.4.8-3.8,2.1-5,4.5,1.8,4.5,4.3h0Z"/>
  <path class="st10" d="M447,210c0,1.3-.4,3.2-1.9,3.5-3.3.8-3.5-1.5-3.4-4.1,1.8,0,3.5.8,5.2.6h0Z"/>
  <path class="st14" d="M460.7,458.9c1.8-.5,6.3,4.6,3,4.9-3,.3-5.6-4.2-3-4.9Z"/>
  <path class="st5" d="M518.2,176.9c2.3,2.5-4,6.8-4,1.4,0-2.5,2.5-3.1,4-1.4Z"/>
  <path class="st14" d="M492.1,555.6c-1.7-1.6,3.5-3.6,4-1.7.5,1.8-3,2.7-4,1.7Z"/>
  <path class="st4" d="M520.4,457.5c2-.6,3.9,3.9.8,3.2-1.4-.3-2.1-2.8-.8-3.2Z"/>
  <path class="st14" d="M432.5,462.7c-1.1,1.1-3.5-.1-1.7-1.9,1.5-1.5,2.9.7,1.7,1.9Z"/>
  <path class="st4" d="M488.7,447.3c.8.5,0,2.3-1,1.6-.5-.4-.2-2.4,1-1.6Z"/>
  <path class="st14" d="M538.7,522.8c1-.3,1.7.7,1,1.2-1.1.8-2-.9-1-1.2Z"/>
  <path class="st1" d="M420.7,250.3c.6.2.6.7.5,1.2-.2,1.7-4.2,6.3-5,8.7-.3,1-.4,2.1,1.2,1.9,1.4-.2,4.6-2.6,6.3-3.1,5.5-1.8,6.8,1.9,5.2,6.5-1,3-2.9,4.5-4.7,6.6h-1.9l.3-.8c1.3-1.1,3.3-5.9,3-7.6-.4-2.5-5.4.8-6.5,1.5-4.6,3.4-2.3,3.7.6,7.1-1.4.2-2.4,0-3.9,0-1.6,0-2.7-.3-3.9,1.2-2.5,6.9-2.9,14.5-4.7,21.7,0,.3,0,1.4-.3,1.6-.2.1-1.5.1-1.6-.1-.4-.6-.3-7.3-.2-8.5.6-10.7,4-32.1,14.2-37.8.5-.3,1.1-.1,1.3-.2h0Z"/>
  <path class="st7" d="M416,272.5c1,2.9,4.2,2.4,6.6,1.9-2.7,3.6-5.2,7.4-7.9,11-.6.8-2.7,2.9-3,3.6-.6,1.5-.7,1.7-1.5,3.2-.7,1.2-.8,3.4-2.8,3.1,1.8-7.2,2.2-14.8,4.7-21.7,1.2-1.6,2.3-1.3,3.9-1.2h0Z"/>
  <path class="st7" d="M416.2,260.3c.6-.7,1.5-.9,2.2-1.5,4.1-3.7,7.4-6.2,12-9.2.3-.2,2-1.3,2.1-1.1,0,1.1.3,2.1.3,3.2,0,1.6-.7,7.1-1.1,8.5,0,.2-1.4,1.1-.5,1.9-.5,1-.9,1.9-1.4,2.9-.2.4-.1.9-.8.7,1.5-4.6.2-8.3-5.2-6.5-1.7.5-4.9,2.9-6.3,3.1-1.5.2-1.5-.9-1.2-1.9h0Z"/>
  <path class="st5" d="M420.7,250.3c0,0,.5-.7.9-.9,4.1-2.2,8.9-3.4,13.3-4.9-.2,3.8-.4,7.7-1.2,11.4-.5,2-1.5,4.2-2.4,6-.9-.7.5-1.6.5-1.9.5-1.4,1.1-6.9,1.1-8.5,0-1.1-.4-2.1-.3-3.2-.1-.2-1.8.9-2.1,1.1-4.6,3.1-7.9,5.5-12,9.2-.7.6-1.6.9-2.2,1.5.7-2.4,4.8-7,5-8.7,0-.5,0-1-.5-1.2h0Z"/>
  <path class="st1" d="M406.1,311c4.3-4,8.7,2.1,5.3,6.8s-9.5-2.9-5.3-6.8Z"/>
  <path class="st1" d="M394.9,312.1c4.8-.7,5.5,8.6-.6,7.7-3.8-.6-2.7-7.2.6-7.7Z"/>
  <path class="st5" d="M422.6,271.4l-.3.8h1.9c-.6.7-1.1,1.5-1.7,2.2-2.4.5-5.6.9-6.6-1.9,1.5,0,2.5.2,3.9,0,1-.2,1.9-.4,2.8-1.1h0Z"/>
  <path class="st1" d="M382.2,270.3v.3l-.8.3c-.1-.7.2-.6.8-.5Z"/>
  <path class="st14" d="M422.6,271.4c-.9.7-1.7.9-2.8,1.1-3-3.5-5.3-3.8-.6-7.1,1.1-.8,6.1-4.1,6.5-1.5.2,1.7-1.7,6.5-3,7.6h0Z"/>
</svg>