<?xml version="1.0" encoding="UTF-8"?>
<svg id="Layer_1" xmlns="http://www.w3.org/2000/svg" version="1.1" viewBox="0 0 841.89 595.28">
  <!-- Generator: Adobe Illustrator 29.2.1, SVG Export Plug-In . SVG Version: 2.1.0 Build 116)  -->
  <defs>
    <style>
      .st0 {
        fill: #a7852e;
      }

      .st1 {
        fill: #efe472;
      }

      .st2 {
        fill: #3f5a2c;
      }

      .st3 {
        fill: #b4892d;
      }

      .st4 {
        fill: #858a36;
      }

      .st5 {
        fill: #0f0e0a;
      }

      .st6 {
        fill: #afc535;
      }

      .st7 {
        fill: #e6ce67;
      }

      .st8 {
        fill: #ddbf27;
      }

      .st9 {
        fill: #d9c15e;
      }

      .st10 {
        fill: #55853c;
      }

      .st11 {
        fill: #e9ecd0;
      }

      .st12 {
        fill: #c7be34;
      }

      .st13 {
        fill: #f0f4d4;
      }

      .st14 {
        fill: #ecc31a;
      }
    </style>
  </defs>
  <path class="st5" d="M528.88,47.27c4.23,0,6.14,2.28,4.44,5.93-.64,1.39-16.08,11.26-18.97,13.67-9.9,8.3-24.23,27.52-25.26,40.62-2.44,31.01.66,71.53,7.33,101.92,2.19,10,11.12,42.08,16.71,49.17,4.94,6.26,14.46,8.18,18.42,16.01,3.68.79-1.89-6.68-2.19-7.31-5-10.77-5.29-23.85-2.46-35.31.87-3.5,1.52-8.82,6.33-7.13,1.11.39,2.47,5.15,3.94,4.06.43-.32,1.74-7.51,2.09-8.9.4-1.61,1.81-4.07,1.96-5.19.24-1.78-2.76-7.56-3.4-10-1.85-7-2.47-15.91-1.17-23.04.93-5.1,3.59-9.93,9.6-8.54,3.71.86,6.37,8.31,11.1,7.59-.09-4.3-1.12-8.13-.32-12.49.59-3.2,8.06-17.93,10.44-19.83,2.16-1.72,8.67-2.22,10.87-.95.56.32.44,6.93,5.46,7.72,5.44.86,11.65-6.7,16.1-9.95,3.07-2.24,14.53-10.37,17.38-11.11,2.45-.63,7.64-.33,7.72,2.96s-7.33,8.46-5.06,15.78c.78,2.51,9.36,8.35,12.05,8.74,4.5.65,16.72-4.91,19.18.97,1.99,4.77-.9,3.73-3.33,6.26-3.24,3.39-3.31,9.66-4.24,14.16-.84,4.07-4.08,7.77.79,10.7,5.13,3.09,10.18.42,14.47,1.56,1.99.53,7.51,4.77,5.35,7.17-2.97,3.35-14.9,11.82-14.9,15.99,0,6.9,12.51,5.41,12.4,13.66-.06,4.53-7.64,8.47-6.96,11.14.55,2.16,7.49,6.24,9.1,8.17,1.69,2.02,4.27,9.54,2.99,11.83-.3.53-3.79,2.65-4.76,3.55-3.42,3.2-7.24,7.51-6.81,12.48,9.78-1.33,13.66-12.06,17.06-20.03,14.9-34.96,21.61-68.09,23.91-106.06.58-9.48,2.31-29.88.14-38.18-3.53-13.52-14.06-28.67-24.49-37.83-2.48-2.18-14.25-10.12-15.01-11.71-1.53-3.21,1.19-7.02,4.67-7.51,13.07-1.87,42.22,10.13,54.65,15.86,12.86,5.94,28.02,13.91,39.31,22.41,27.52,20.74,54.94,73.44,67.12,105.58,4.55,11.99,11.66,29.89,12.45,42.45.1,1.59.15,3.79,0,5.34-.2,2.1-1.64,7.57-4.15,6.23-5.94-5.65-17.52-27.97-25.38-29.27-4.09-.68-12.88,8.43-13.66,12.2-.44,2.12-.28,6.47-.13,8.76,1.51,22.13,8.28,53.69,13.34,75.69.61,2.65,4.46,13.51,4.46,14.53v9.5c0,2.64-6.11-2.03-6.84-2.66-6.7-5.81-8.4-15.84-17.09-20.3-5.76-2.96-12.62-5.71-19.09-5.22-14.74,1.1-18.1,9.58-19.82,22.91-2.5,19.45-1.41,39.52-5.69,59-1.24,5.63-2.65,11.39-8.62,13.63-1.22-6.71-.33-13.66-.6-20.47-.14-3.45-1.13-7.84-1.21-11.26-.12-4.99,1.08-10.08.61-14.86-.35-3.65-3.56-16.04-5.44-18.9-4.54-6.93-28.32-25.71-36.11-28.58-2.53-.93-18.95-4.34-20.17-3.27l6.44,11.65c3.21,7.6,7.32,24.51,6.6,32.55-.65,7.28-5.16,13.5-7.81,20.08-6.24,15.52-6.54,33.58-9.48,49.87-2.13,11.8-10.78,20.37-10.63,30.96.16,11.48,2.95,37.06,8.24,46.99,5.1,9.58,10.17,2.15,18.22,2.54,7.73.37,17.69,7.88,20.75,14.87.79,1.8,3.46,8.14.13,8.17-4.21.04-10.77-4.2-15.63-4.55s-16.57,3.16-20.37,6.19c-3.25,2.6-.26,7.73-7,9.06-4.68.93-8-6.82-11.04-9.77-3.38-3.28-13.82-8.61-18.43-8.46-6.58.21-9.93,8.2-14.9,7.71-4.48-.44-2.5-10.94-1.65-14.18,2.5-9.53,7.53-11.64,15.61-15.86-3.88-6.53-17.24-9.84-13.2-19.72,1.4-3.42,10.43-9.45,9.56-12.77-1.32-4.99-9.79-.03-12.83.6-5.05,1.06-11.07,1.01-15.89-1.02-1.99-.84-5.25-4.53-6.71-1.99-.93,1.64-1.77,6.54-2.79,9.07-3.65,9.01-9.49,14.85-7.94,25.78.75,5.26,7.88,7.88,11.5,11.05,5.42,4.74,15.29,19.01,14.4,26.25-1.03,8.28-4.97,6.56-10.93,4.12-6.4-2.63-12.13-7.77-19.5-7.25-6.03.42-7.67,5.44-12.2,8.58-1.21.84-4.11,3-5.47,2.65-3.62-.92-3.82-16.3-14.64-12.67-5.94,1.99-7.29,6.33-15,4.88s3.03-7.56-.75-11.13c-1.41-.3-3.14,5.03-9,2.47-4.24-1.85-7.57-6.41-12.95-5.45-2.11.29,3.5,5.2,3.84,5.65,1.11,1.47,3.69,5.03,4.03,6.65,1.26,6.03-1.56,7.05-6.84,7.73-10.43,1.33-11.18-5.38-18.73-8.27-3.57-1.37-7.27-1.51-11.08-3.16-6.48-2.81-13.37-9.06-20.98-4.34-7.05,4.37-10.28,12.91-21.34,10.46-5.49-1.22-1.16-10.16.86-13.13,2.29-3.36,5.86-4.13,5.13-9.43-.44-3.19-8.63-13.38-11.18-16.17-1.27-1.39-3.15-3.82-5.02-3.93-5.54-.33-15.66,4.39-21.21,6.15-2.6.83-5.07.76-7.48,1.42-6.94,1.93-16.32,7.88-23.7,10.72-21.03,8.1-44.07,13.22-66.01,18.26-9.45,2.17-19.73,1.7-29.4,2.05-38.74,1.38-78.31,1.95-116.86,2.43-28.56.36-53.86-2.61-81.92-4.77-9.45-.73-18.97-.32-28.41-1.27-7.59-.76-31.84-3.61-37.13-7.38-7.34-5.24-.09-5.68,2.15-8.15,4.06-4.47-.12-12.59,10.43-10.95,1.82.28,8.1,2.97,9.55,4.09,1.73,1.33,1.96,3.46,4.63,4.27,3.56,1.09,16.43.41,19.46-1.71,5.04-3.53,3.69-15.12,14.82-8.24,2.03,1.25,7.06,6.93,8.17,7.26,2.17.64,13.37.11,15.77-.6,4.13-1.22-2.95-10.57,2.58-13.44.8-.42,1.26-.69,2.24-.65,2.14.09,12.2,4.76,14.81,6,5.6,2.66,12.4,8.19,18.49,7.63,6.86-.63,5.74-13.96,10.96-16.33,5.64-2.56,15.93,5.19,20.2,8.89,1.14.99,1.94,2.9,3.09,3.44,2.29,1.07,12.71,1.33,13.14-2.66.53-12.16-4.53-24.34,12.42-15.18,3.87,2.09,8.26,5.14,11.88,7.71,1.41,1,5.05,4.6,5.76,4.92,2.25,1.02,9.92-.28,10.96-2.67,1.35-3.09.61-17.03,4.26-18.29,7.55-2.62,18.73,14.43,23,14.69,1.47.09,12.13-2.2,12.86-3.16s.79-9.58,1.41-12.24c2.15-9.21,5.84-8.36,13.38-4.44,6.61,3.43,9.9,10.32,18.05,9.17.65-.09,2.42-.73,2.88-1.11,3.74-3.08-.71-19.94,3.8-21.29,1.31-.39,5.41-.24,6.94-.05,4.52.56,12.36,5.34,16.56,7.77,4.77,2.75,3.05,4.73,9.33,1.97,1.89-.83,6.72-3.4,7.1-5.38,1.2-6.33-7.43-20.76-5.03-25.8.27-.58,1.42-1.31,2.05-1.51,3.66-1.15,14.99,2.85,19.98,3.21,3.43.25,6.5.87,7.23-3.34s-6.37-11.46-8.31-15.76c-.91-2.01-2.75-7.52-2.16-9.49.83-2.73,21.01-10,24.23-14.96s-1.63-15.46-4.26-20.08c-1.83-3.22-6.95-7.45-4.1-11.88,1.23-1.91,22.63-5.96,25.71-5.58,1.67.21,6.38,1.36,6.38,1.36,2.04-1.27,3.78-6.48,3.6-8.96-.63-8.73-10.56-13.29-.95-22.25,5.99-5.59,14.6-1.64,20.05-4.14,1.56-.71,1.21-12.87,1.03-15.12-.92-12.08-5.79-17.98-18.15-19.23-5.22-.53-18.42,4.24-22.19,7.95-4.91,4.83-7.42,13.9-13.92,16.35-6.03,2.27-6.51.83-5.28-5.28,1.24-6.15,5.27-15.17,7.16-21.92,4.26-15.19,8.26-31.6,11.75-47.01,1.55-6.83,5.62-21.3,5.04-27.61-.33-3.63-6.17-11.07-9.17-12.79-5.02-2.88-10.54,3.15-13.69,6.55-3.84,4.16-12.84,18.42-17.34,19.45-.98.23-2.06.31-3.04.06-2.18-1.36,1.65-17.34,2.46-20.22,10.29-36.47,43.26-94.82,70.44-121.25,17.83-17.33,67.99-40.11,92.58-42.43.86-.08,2.23-.25,3.1-.25l11.74-.34ZM398.33,217.01c.67,3.12-1.86,13.39-2.66,17.22-3.76,17.81-9.84,35.12-13.55,52.92-.41,1.98-2.45,11.47-2.13,12.56.23.81,1.11,1.24,1.92.89,10.14-7.47,23.53-12.21,36.13-9.23s13.25,12.53,16.49,23.57c.74,2.51,1.76,11.66,5.51,10.59,1.2-.34,1.57-1.78,2.2-2.28,11.58-9.28,34.27-26.77,48.94-27.92,7.79-.61,15.73.63,23.46,1.21-.33-3.42-3.54-5.88-4.75-9.49-1.09-3.26-1.25-5.58-.59-8.9.37-1.87,3.03-8.27,2.86-9.13-.11-.57-3.69-3.13-4.63-4.24-4.82-5.74-8.41-17.07-10.71-24.31-12.07-37.95-14.33-77.35-14.85-116.91-.09-6.99-.42-14.36,1.49-21.11.84-2.95,2.94-5.93,3.28-8.89,3.8-6.12,5.81-13.11,8.9-19.59,2.34-3.42,6.37-8.25,7.84-12.03,3.46-8.89-12.91-2.7-16.15-1.62-6.76,2.26-13.74,4.61-19.58,8.9-2.73.38-23.47,13.29-27.25,15.78-25.15,16.56-43.83,43.46-57.92,69.67-9.42,17.52-17.84,36.57-22.83,55.8,1.31,1.3,11.23-6.18,13.05-7.12,3.13-1.61,5.99-2.63,9.49-2.97.43-.04.83-.54,1.9-.46,5.13.37,7.1,5.13,9.71,8.75M696.83,97.71c.73,5.95,4.93,12.55,6.53,18.4.1,2.86,1.03,4.56,1.19,6.82.81,11.09-1.6,22.24-2.37,33.25-1.77,25.03-3.21,46-9.55,70.58-3.2,12.4-14.98,48.83-24.92,55.8-2.44,1.71-10.63,3.78-11.54,5.67-.98,2.02.21,7.96.3,10.69.1,3.17-.23,6.64,0,9.5.15,1.9.31,3.69,2.69,4.14,5.53,1.04,13.91-.97,20.16-.57,21.05,1.34,36.53,19.04,51.93,31.45.59.48.57,1.64,2.09,1.79,4.92.48,5.45-6.3,6.81-9.5,4.83-11.3,6.55-20.78,20.64-22.39,10.4-1.19,19.25,1.57,28.2,6.48,1.45.8,8.5,6.06,9.32,5.22-.02-1.85.1-3.71-.07-5.56-1.65-17.79-7.3-38.1-10.42-56.05-1.41-8.11-1.83-16.38-3.15-24.44,1.75-1.82,2.31-5.82,3.56-7.72.8-1.2,6.41-7.01,7.7-8.03.42-.34,2.81-2.02,2.99-2.06,1.83-.43,5.88,1.01,7.71,1.78,5.79,2.43,11.64,7.27,16.98,10.63.58.21,1.24-.46,1.37-.92.3-1.04-3.96-14.79-4.69-17.15-11.97-38.71-37.39-88.48-70.1-113.29-5.79-4.39-17.94-12.99-24.27-15.79-3.62-2.64-13.12-9.53-17.21-10.09-13.51-7.46-18.69-7.49-15.85,9.62.63,3.79,1.7,8.62,3.98,11.75ZM613.74,142.82c-1.03-.13-1.85.07-2.8.47-2.3.95-12.67,8.66-14.32,10.61-4.97,5.85,2.94,5.93,7.35,5.57,11.49-.94,9.42-7.21,9.77-16.64ZM571.31,149.36c-5.33,7.02-12.2,20.86-8.91,29.67.64,1.71,1.47,2.27,3.25,1.46,3.44-1.56,12.71-12.04,13.3-15.83.75-4.82-2.29-5.26-4.3-7.98-1.64-2.23-1.52-5.29-3.35-7.32ZM552.62,278.14c3.3-1.86,10.47-4.12,11.81-7.48,1.69-4.25,1.2-12.13,1.92-17.07,2.39-16.43,10.72-31.14,28.77-32.95,10.8-1.08,12.71,1.41,17.54,10.21,11.42,20.82,12.49,54.37,12.93,77.88.42,22.65.7,43.49,7.45,65.55,2.15,7.02,6.69,12.89,8.42,20.06,2.85,11.82-.47,39.09-4.72,50.72-.81,2.22-6,11.67-5.78,12.58.11.45.76.89,1.37.83,1.27-.12,8.15-3.66,9.71-4.56,11.87-6.85,15.13-12.5,17.4-25.62,2.46-14.2,3.05-29.48,5.48-43.48,1.46-8.38,9.89-16.56,10.56-26.23.59-8.41-7.01-34.1-15.05-37.81-4.36-2.01-5.52-.41-6.18,4.11-.87,6.04-.31,15.37,2.7,20.73,1.85,3.29,7.72,7.03,6.56,10.51-.34,1.02-1.56.8-1.7.95-4.83.06-9.91-5.17-11.71-9.36-3.57-8.32-.33-26.88.43-36.34,1.24-15.35-3.28-29.16-4.74-44.22-1.91-19.68-.03-39.73-4.34-59.16-1.29-5.8-3.62-10.77-5.12-16.24-2-7.28-2.21-20.27-8.05-25.19-1.13-.95-7.19-4.4-8.46-4.64-2.38-.46-12.24,2.09-15.88,2.26-3.27.15-6.04.12-9.18-.9-2.74-.9-4.71-3.29-8.01-2.65-3.08.59-2.43,5.17-3.1,7.6-2.09,7.63-13.48,13.64-17.03,20.95-2.61,5.36-1.76,12.13-4.73,17.23-3.21,5.51-8.56,7.46-12.81,10.93-2.96,2.42-7.21,16.29-7.2,20.15,0,3.56,2.24,5.31,3.2,8.12,1.83,5.38.89,16.08-1.85,21.07-3.51,6.37-3.14,6.24-5.42,12.98-1.07,3.17-3.87,4.14-3.63,8.25.11,1.86,1.87,6.94,3.59,7.73,4.41,2.04,3.22-5.93,3.59-8.28.62-4,7.93-7.36,11.24-9.23ZM637.49,174.87c2.14,1.47,5.61-7.56,5.36-9.18-.48-3.16-5.92-.44-6.44,1.28-.4,1.32.27,7.34,1.08,7.9ZM542.32,178.52c-.69.13-1.16.93-1.41,1.56-1.88,4.76.58,23.25,3.28,27.86,5.34,9.11,13.69-4.19,14.8-10.37,1.87-10.35-3.01-8.3-9.54-13.3-1.57-1.21-5.56-6.04-7.14-5.75ZM647.03,208.05c1.7,1.19,7.67-5.06,7.68-6.17.02-2.83-7.24-2.7-8.38-1.25-1.06,1.35-.14,6.83.7,7.42ZM599.5,227.69c-1.7-.41-6.69-.77-7.69.62-1.27,1.77,2.32,4.05,3.54,4.72,8.63,4.75,14.03-2.97,4.15-5.34ZM649.5,234.06c2.03,2.43,6.05-2.68,2.82-4.3-2.99-1.5-4.26,2.56-2.82,4.3ZM578.73,239.56c-.08.15-.73.38-1.04,1.02-.92,1.93-3.87,9.82-1.97,11.2,1.86.98,4.07-.83,4.2-2.71,1.34.05,1.58-.82,2.26-1.59,1.29-1.46,5.01-5.94,5.58-7.48.69-1.84,1.24-6.76-1.15-7.45-4.06-1.18-6.43,4.4-7.88,7.02ZM530.39,238.38c-2.64.74-.54,13.09-.05,15.45.55,2.63,2.43,8.86,3.95,10.89.63.84.73,1.05,1.87.88,4.25-.63,5.2-12.79,4.46-16.12-.49-2.18-8.21-11.67-10.24-11.1ZM598.32,245.5c.7,2.35,1.11,6.89,4.5,7.1,1.99.12,8.08-2.36,9.04-3.96,1.19-1.97-.09-4.85-1.08-6.7-.58-1.09-.13-1.99-2.09-2.36-2.28-.43-10.67-.46-11.46,2.18-.7,2.35.83,2.85,1.09,3.74ZM580.52,285.26c2.83-.97,3.99-4.24,6.58-6.18,2.16-1.62,4.97-1.93,5.87-4.22,1.42-3.64.75-21.53-.13-25.95-.15-.74-.64-2.63-1.38-2.8-1.24-.28-6.18,4.76-7.09,5.91-5.63,7.11-3.31,13.1-3.23,21.05.04,4.12-.32,8.11-.62,12.19ZM651.77,268.01c1.89,1.29,11.86-7.52,11.86-9.16,0-.71-.43-1.1-1-1.4-2.2-.41-9.67-7.82-10.61-7.82-2.65-.02-2.12,7.44-1.99,9.16.08,1.11,1.36,8.97,1.75,9.23ZM598.91,265.68c.67,8.14,5.4,9.1,12.7,8.25s6.22-2.85,4.96-9.01c-.19-.92-1-1.47-1.04-1.61-.39-1.53-.11-7.02-2.62-7.1-1.39-.04-4.82,1.38-6.64,1.69-6.61,1.15-8.15-1.76-7.36,7.78ZM571.02,265.08c-.36,7.16,5.9,5.67,5.93.59,0-1.05-.91-3.79-1.45-4.78-2.58-4.75-4.36,1.69-4.48,4.19ZM529.48,297.73c-.15-5.51-4.58-23.51-9.51-25.82-3.11-1.45-5.49,5.65-6.11,8.12-1.64,6.47,8.22,12.14,10.28,18.03l5.35-.33ZM574.5,276.44c-1.28-.81-7.51,2.08-9.22,2.79-3.41,1.4-13.13,5.53-15.6,7.54-5.6,4.57,1.72,13.54-7,14.96-5.51.9-6.03-.83-9.05,5.19-3.23,6.45-3.28,12.2-4.31,18.84-.82,5.25-4.45,7.76-6.96,12.04,1.31,10.47,4.31,19.97-1.07,29.78-3.3,6.01-9.39,10.3-5.12,17.95,2.28,4.08,7.83,10.22,12.87,9.4,18.41-3.02,14.53-33.13,23.1-45.16,5.82-8.16,12.13-8.09,18.27-13.18,2.43-2.02.28-6.73.61-10.08.41-4.1,2.9-7.55,5.36-10.66,1.01-1.28,4-3.38,4.16-4.79.36-3.12-4.65-2.31-6.58-2.91-3.42-1.07-1.81-4.24-2.95-6.4-.37-.7-1.68-1.06-2.38-1.92-2.14-2.67-.77-5.19.32-8.02.95-2.46,8.05-13.78,5.55-15.37ZM618.49,282.3c-.15-.86-.95-4.67-1.56-4.8-3.42.68-6.59,1.88-10.09,2.34-6.96.92-7.88-2.24-9.12,6.01-.03.17-.55.65-.62,1.44-.2,2.24-.37,8.19.95,9.81.79.97,8.26,5.88,9.62,6.4,4.36,1.68,9.92.37,11.38-4.33,1.03-3.3.11-13.16-.56-16.88ZM582.89,303.06c.48.71,4.49.82,5.68.05,2.21-1.43,3.26-7.96.05-7.08-.89.25-6.52,5.86-5.73,7.03ZM508.11,378.44c.6-6.17,4.89-9.67,7.6-14.66,3.84-7.06,2.65-12.76,1.3-20.36-.58-.63-5.69,3.83-6.61,4.37-12.93,7.54-37.7,1.86-47.1-9.7-.8-.98-2-2.26-2.07-3.57h10.98c.74,0,12.64-3.51,14.25-4.15,15.77-6.19,10.6-18.21,21.69-26.38l8.27-4.48c-14.28,1.17-26.87.18-39.71,7.46-9.03,5.12-28.24,17.97-32.11,27.24-5.27,12.64-5.57,28.37-7.1,42.16-.3,2.72-.42,15.65-1.75,16.67-2.63.97-4.05-2.15-4.9-4.09-3.59-8.21-2.65-18.07-3.45-26.81-.63-6.82-2.4-6.1-6.83-2.1-8,7.22-18.32,24.3-24.27,33.89-15.37,24.82-15.45,50.86-36.24,73.55-10.51,11.47-33.09,23.71-48.25,27.12-5.58,1.25-11.83,1.1-17,2.58-2.77.79-6.22,3.57-8.49,4-1.97.38-4.95-.21-7.87.12-15.55,1.77-31.47,6.07-46.88,8.9-3.95.73-7.92,1.68-11.87,2.37-48.01,8.44-95.88,9.34-144.52,10.66l-30.53,2.4c-.34,1.4.53,1.35,1.63,1.61,2.96.68,8.02,1.15,11.13,1.35,53.77,3.5,107.12,5.27,161.11,4.16,3.74-.08,7.77-.51,11.28-.59,16.55-.42,33.04-.21,49.58-1.16,27.48-1.59,63.73-9.54,89.28-19.92,7.8-3.17,17.73-9.57,24.94-11.86,2.45-.78,14.68-2.1,15.42-2.68-1.1-2.03-.16-4.28-1.04-6.37-1.29-3.08-5.46-3.09-6.39-6.67-2.25-8.66,3.11-10.64,10.69-10.74s11.79,4.92,20.06,1.7c3.99-1.55,9.1-7.05,9.35-11.47.28-4.93-4.85-7.14-5.24-12.02-.11-1.44.19-4.73,1.95-4.91,2.53-.26,1.83,2.2,2.75,3.82,1.96,3.45,6.39,5.02,7,9.02,2.44,15.81-9.93,26.12-25.12,23.34-5.8-1.06-11.78-6.97-16.96-.83.98,2.09,4.27,2.11,5.35,3.53,1.27,1.67.8,6.25,2.33,7.16,1.08.64,5.21.22,7.16.55,7.28,1.24,16.41,11.19,20.74,16.95,1.04,1.39,3.49,4.88,4.03,6.36.99,2.73.23,4.89,1.31,7.29.34,1.47,3.29,1.92,4.61,2.21,5.69,1.25,12.21.54,17.97,1.62,5.23.98,19.81,10.71,24.32,7.77,3.8-2.47-10.58-11.02-4.47-12.19,5.6-1.07,7.64,4.67,12.19.32,7.71-7.36-10.68-12.06-15.45-13.09-6.57-1.42-11.74-1.53-18.4-.88-2.75-.99-5.63-.67-8.45-1.93-1.25-.56-5.03-3.57-5.79-4.59-4.87-6.5.95-14.4,6.93-17.7,12.77-7.06,19.37-6.71,29.27-19.69,16.76-21.97-1.49-31.77.6-52.52.26-2.56,2.15-6.07,1.78-8.28-.57-3.37-8.6-10.81-12.31-11.46-2.23-.39-9.48.44-8.49-3.32.39-1.48,11.95-1.74,13.9-1.5,4.21.51,4.38,2.1,6.89,4.68,3.58,3.67,13.76,14.68,14.21,19.36.32,3.35-.85,4.95-4.28,4.25-2.05-.42-3.45-2.76-5.77-2.24-.56,7.31,3.92,13.85,5.64,20.77,1.36,5.45,1.93,11.9,1.47,17.5-.22,2.63-2.77,10.75-2.09,12.17,1.21,2.52,10.95,2,13.7,1.81,4.84-.33,9.94-1.82,14.82-2.39,4.09-.49,9.12-.11,13-.65,10.46-1.47,2.85-14.7,2.2-21.09-.2-1.97-.92-14.41,3.53-11.25.57.41,2.1,9.22,2.63,11.02,2.16,7.4,6.14,12.62,3.55,20.77-1.67,5.27-6.69,9.08-3.96,15.25,4.42,10.03,6.75,8.3,6.05,21.55-.07,1.33-.41,3.84-.59,5.34-.34,2.81-.7,6.06-1.67,8.72-2.05,5.61-10.17,10.05-4.56,15.61,4.75,4.71,5.78.95,9.62.14,4.76-1,6.69,1.22,10.7,2.09,3.4.73,10.59.65,13.62-.92,10.58-5.46-3.88-11.3-7.5-14.11-4.04-3.14-5.03-6.58-5.38-11.53-.11-1.62-.11-3.72,0-5.34.84-12.14,8.5-19.86,11.1-31.33,2.24-9.88-2.72-9.1-7.79-15.61-1.57-2.01-3.86-5.86-4.5-8.26-8.05-30.06,6.36-64,10.09-93.18.22-1.69,1.21-4.51,1.19-6.24-.03-5.1-2.45-5.18-6.53-3.55-1.2.48-13.09,7.16-13.65,7.71-7.99,7.84-7.2,26.03-11.27,35.91-3.64,8.81-14.78,18.63-24.92,17.21-4.5-.63-14.66-10.99-15.87-15.29-.62-2.2-.97-6.18-.75-8.45ZM593.57,309c-.45,2.24-2.49,13.63-2.27,14.98.86,5.33,9.2,8.8,14.17,7.89,1.74-.32,9.95-3.58,11.05-4.68,2.71-2.7,2.89-9.28,3.17-12.86.01-.19.64-.91.66-2.04.1-5.87-5.5-2.67-9.26-2.72-2.57-.03-7.02-1.24-9.16-2.71-1.22-.84-4.45-4.83-5.12-4.98-1.99-.45-2.99,5.92-3.22,7.1ZM509.89,328c3.82-5.17,4.18-11.9,6.61-17.43,1.39-3.17,3.77-4.67,5.57-7.48-6.03,1.86-12.72,4.31-15.96,10.14-1.42,2.56-1.86,5.71-3.04,8.24-3.43,7.37-9.55,11.77-17.19,14.26-2.17.71-14.79,2.99-15.15,3.84,8.91,4,21.67,9.09,31.47,6.54,6.41-1.67,14.67-8.82,18.63-14.01,4.95-6.51,3.3-8.7,4.78-16,.59-2.93,1.8-6.26,2.66-9.21.35-1.19,2.6-3.86-.14-3.11-11.6,3.17-8.49,12.67-13.23,20.01-1.07,1.66-2.95,2.92-4.4,4.21h-.59ZM584.07,317.9c-2.75-2.74-12.96,13.65-3.99,11.76,3.64-.77,3.87-8.68,3.99-11.76ZM619.68,340.46c-.51-2.49.9-7.56-3.58-6.26-6.47,1.87-8.31,4.06-16.14,3.13-3.14-.37-7.32-2.64-9.67-2.72-3.47-.11-2.87,4.92-3.25,7.04-.7,3.88-2.76,11.74-1.33,15.28.59,1.46,7.19,6.38,8.85,7.17,10.85,5.17,18.39-4.02,27.2-8.79,1.34-2.21-1.49-11.95-2.08-14.85ZM426.22,338.68c-3.18-.52-14.13-.39-16.09,2.04-1.1,1.37,1.72,8.74,2.7,10.46,1.78,3.14,2.15,2.62,4.76.54,3.45-2.73,9.26-8.41,8.63-13.04ZM626.21,370.73c-.39-1.8-1.04-7.54-3.27-7.75-1.49-.14-9.55,5.24-12.17,6.25-5.55,2.14-10.98,3.09-16.61.61-6.43-2.83-8.38-10.98-11.87.3-.89,2.86-3.38,11.97-2.86,14.4.36,1.67,4.58,5.1,6.14,6.35,6.96,5.59,16.43,10.9,25.43,7.06,2.63-1.12,15.5-9.19,16.99-11.06.61-.77,1.21-1.71,1.18-2.74-1.75-4.31-1.98-8.95-2.96-13.42ZM396.42,370.89c-1.81.19-11.97,2.88-12.64,3.98-1.14,1.89,2.15,13.94,3.58,14.26,1.65.37,11.89-14.22,12.49-16.6s-1.95-1.8-3.43-1.64ZM575.17,400.4c-.41,2.39-.81,4.79-1.48,7.13-.58,2.03-2.74,5.74-2.72,7.42.02,1.55,3.2,5.41,4.31,7,14.63,20.93,31.92,19.09,49.75,3.08,9.71-8.72,12.94-14.16,9.49-27.61-.48-1.86.18-4.7-3.12-4.05-6.95,3.29-14.39,10.8-22.17,11.7-8.8,1.03-17.65-2.24-24.76-7.16-2.47-1.71-4.4-4.95-7.76-5.28-1.96,2.28-1.13,5.37-1.54,7.75ZM375.19,415.24c-2.41-.68-10.66,3.28-11.2,5.17s4.52,9.86,6.19,10.24c.78.17,1.02-.42,1.37-.94,1.08-1.61,4.48-13.61,3.63-14.47ZM575.77,441.95c3.36,8.15,12.89,17.68,20.23,22.8,19.79,13.79,36.41-17.99,38.52-34.07.18-1.38,1.01-6.69-1.4-6.47-1.08.1-11.58,9.03-13.85,10.51-10.79,7.03-21.97,9.63-34.02,3.39-2.36-1.22-10.29-8.15-10.96-8.02-1.68.33-.38,7.59-.04,8.93.36,1.47,1.17,2.09,1.52,2.93ZM348.51,463.89c1.67,1.2,12.64-8.87,9.5-10.99-.85-.58-10.44-.88-12.49-2.04-.59.63,2.45,12.64,2.99,13.03ZM637.48,463.31c-1.57.59-4.82.67-5.64,2.37-1.26,2.63,1.37,7.85-.6,12.47-1.27,2.99-8.75,7.94-8.49,10.89.19,2.1,8.36,7.95,10.28,9.87,2.44,2.45,6.63,6.66,6.81,10.11-.6.13-1.47,1.21-2.37,1.48-1.66.5-12.04,3.38-12.41,3.91-.93,1.33,1.24,3.64,2.35,4.37,4.46,2.93,15.97,4.67,21.19,7.91,2.87.44,4.46-1.13,7.58-1.09,2.74.04,5,1.27,7.7,1.27s11.42-2.33,10.34-5.63c-2.31-1.67-5.88-.76-8.98-1.72-4-1.23-7.23-6.79-8.77-10.51-2.4-5.81-3.21-13.69-5.93-19.59l-2.81-28.34c-.2-.36-.4-.86-.74-1.07-1.05-.64-7.76,2.65-9.5,3.3ZM550.25,498.93c1.87-7.87-3.87-12.42-6.22-18.41-.87-2.22-1.3-8.52-2.67-9.2l-43.86.36c-1.57,8.62-6.96,17.85-4.14,26.57,4.16.69,6.92-2.72,11.06-3.33,6.05-.89,11.72,1.22,17.65,1.62,6.68.45,14.95-.85,21.31.06,2.72.39,4.14,2.67,6.87,2.32ZM307.37,473.49c-2.61.7-2.22,11.65-.02,12.32,1.96.59,13.95-2.82,14.43-4.99.23-1.02-.81-1.17-1.45-1.51-2.54-1.34-10.74-6.41-12.96-5.82ZM487.93,480.53c-.76-.79-12.34,6.26-12.76,7.12-.98,2.01-.39,9.99,1.21,11.85,1.87,2.18,8.24,2.7,10.93,1.78-1.61-7.05.49-13.73.61-20.74ZM268.96,494.77c2.04.51,12.91-1.05,12.42-3.78-.25-1.37-8.11-7.3-9.66-6.86-1.86.54-3.18,8.66-2.76,10.64ZM465.24,491.3c-1.37.28-4.8,3.62-5.1,5.1-.63,3.12,5.31,5.68,7.84,4.83,2.31-.77.43-10.58-2.74-9.93ZM227.42,501.89c4.25.04,15.01,1.04,8.6-5.33s-7.52-.88-8.6,5.33ZM201.31,507.23c1.26-1.63-8.85-7.42-10.54-7.61-3.4-.38-1.93,8.35-.76,9.12,2.07,1.36,8.86-.86,11.3-1.51ZM545.88,504.48c-.91-.91-3.93-2.96-5.13-3.48-6.26-2.66-19.59-.82-27.03-.86-3.85-.02-5.17-1.36-9.37.66-.99.47-4.81,3.26-4.55,4.33.11.46,5.51,3.76,6.28,3.88,2.26.36,2.93-1.06,4.69-1.24,4.9-.49,8.9,7.85,13.67,3.63,1.74-1.54,1.63-5.58,4.62-4.68,1.49.45,8.37,10.39,10.76,11.82s3.49-.42,5.06-2.13c4.15-4.52,5.77-7.16.99-11.94ZM146.12,512.58c1.35.09,11.28.28,10.68-2.07-.16-.65-6.16-4.62-7.41-4.49-1.76.18-3.83,4.73-3.27,6.56ZM104.37,510.85c-3.36,1,1.07,4.46,4.66,4.15,5.62-.49-2.18-4.89-4.66-4.15ZM70.16,514.36c-1.46-.37-3.22-1.38-3.55.87,1.51,2.15,3.81,2.12,3.55-.87ZM22.99,516.14c-1.4.31-.88,2.69.58,2.37s.88-2.69-.58-2.37ZM529.18,516.12c-5.14-.07,1.23,9.08.89,11.3,1.74.76,6.66-3.93,6.48-4.96M694.45,526.82c1.69-1.71-6.46-5.43-7.5-5.85-2.82-1.12-7.72-2.6-4.34,1.97,2.04-.51,11.27,4.45,11.85,3.87ZM622.05,522.07c.64-.57-1.21-2.41-1.77-1.77-.9,1.02.77,2.67,1.77,1.77ZM442.64,529.33c-2.53.21-8.09,6.3-5.75,7.9,2.15,1.48,9.42-4.68,8.66-6.27-.31-.65-2.07-1.7-2.91-1.63ZM655.37,534.44c1.67,2.68,5.46-2.61-.09-2.87.12.81-.29,2.27.09,2.87ZM595.94,538.09c1.4-1.39-3.76-6.81-5.06-4.77-2.2,3.45,4.02,5.8,5.06,4.77ZM561.52,534.54c-1.24-1.11-4.06,2.45-2.07,2.96,2.2.56,2.47-2.6,2.07-2.96ZM504.97,538.86c-1.21-1.42-4.81-3.05-5.63-.35-1.94,6.36,9.33,4.71,5.63.35Z"/>
  <path class="st9" d="M835.69,249.65h-.59c.15-1.56.1-3.75,0-5.34h.59v5.34Z"/>
  <path class="st9" d="M516.42,47.27"/>
  <path class="st9" d="M514.05,47.86"/>
  <path class="st14" d="M278.46,501.3c2.91-.33,6.33-1.32,8.3-1.69,2.26-.43,5.28-1.64,8.05-2.43,5.17-1.48,11.42-1.33,17-2.58,15.16-3.41,37.74-15.65,48.25-27.12,20.79-22.69,20.87-48.73,36.24-73.55,5.94-9.6,16.27-26.67,24.27-33.89,4.43-3.99,6.2-4.72,6.83,2.1.8,8.74-.14,18.6,3.45,26.81.85,1.94,2.27,5.06,4.9,4.09,1.33-1.01,1.44-13.94,1.75-16.67,1.54-13.78,1.84-29.51,7.1-42.16,3.86-9.27,23.08-22.12,32.11-27.24,12.83-7.28,25.43-6.29,39.71-7.46l-8.27,4.48c-11.08,8.18-5.92,20.19-21.69,26.38-1.61.63-13.51,4.15-14.25,4.15h-10.98c.07,1.31,1.27,2.59,2.07,3.57,9.4,11.56,34.18,17.24,47.1,9.7.92-.53,6.02-4.99,6.61-4.37,1.35,7.59,2.54,13.3-1.3,20.36-2.71,4.98-7,8.49-7.6,14.66l-8.32,6.22-7.71,8.02c-2.52-2.58-2.69-4.17-6.89-4.68-1.95-.24-13.51.01-13.9,1.5-.99,3.76,6.26,2.93,8.49,3.32,3.72.66,11.75,8.09,12.31,11.46.37,2.21-1.52,5.72-1.78,8.28-2.09,20.75,16.16,30.55-.6,52.52-5,.62-7.26,1.8-12.34.17-18.55-5.93-7.61-27.74-20.7-37.46-10.66-7.92-26.69-1.58-35.81,6.12-2.83,2.39-4.77,5.57-7.4,8.03-3.7,3.48-7.85,6.19-11.3,10.07-8.94,10.07-13.2,27.17-26.16,33.18-4.18,1.94-9.5.21-14.2.63-6.86.61-10.94,6.98-15.69,11.01-13.09,11.12-38.17,14.91-54.74,12-4.39-.77-11.85-2.64-12.92-7.55Z"/>
  <path class="st8" d="M489.72,465.1c-9.9,12.98-16.5,12.63-29.27,19.69-5.98,3.3-11.8,11.2-6.93,17.7-4.47,2.01-8.87,2.85-11.87,7.12-4.33-5.76-13.46-15.71-20.74-16.95-1.95-.33-6.09.09-7.16-.55-1.53-.91-1.06-5.5-2.33-7.16-1.08-1.42-4.37-1.44-5.35-3.53,5.17-6.14,11.16-.24,16.96.83,15.19,2.78,27.56-7.53,25.12-23.34-.62-4-5.05-5.57-7-9.02-.92-1.62-.22-4.08-2.75-3.82-1.76.18-2.07,3.47-1.95,4.91.39,4.88,5.52,7.09,5.24,12.02-.25,4.42-5.36,9.92-9.35,11.47-8.27,3.21-12.45-1.8-20.06-1.7s-12.94,2.09-10.69,10.74c.93,3.57,5.1,3.59,6.39,6.67.88,2.09-.05,4.34,1.04,6.37-.75.58-12.98,1.91-15.42,2.68-7.21,2.28-17.14,8.69-24.94,11.86-25.55,10.37-61.8,18.33-89.28,19.92-16.54.96-33.03.75-49.58,1.16,1.12-7.27,2.17-14.56,1.78-21.96,15.41-2.83,31.33-7.13,46.88-8.9,1.07,4.92,8.53,6.78,12.92,7.55,16.57,2.91,41.65-.88,54.74-12,4.75-4.03,8.84-10.4,15.69-11.01,4.71-.42,10.02,1.31,14.2-.63,12.97-6.02,17.23-23.11,26.16-33.18,3.44-3.88,7.6-6.59,11.3-10.07,2.63-2.47,4.56-5.64,7.4-8.03,9.12-7.7,25.15-14.04,35.81-6.12,13.09,9.72,2.15,31.53,20.7,37.46,5.08,1.62,7.34.45,12.34-.17Z"/>
  <path class="st7" d="M784.65,238.97c1.32,8.07,1.75,16.33,3.15,24.44,3.12,17.95,8.76,38.26,10.42,56.05.17,1.85.06,3.71.07,5.56-.82.84-7.86-4.42-9.32-5.22-8.95-4.91-17.8-7.67-28.2-6.48-14.08,1.61-15.81,11.09-20.64,22.39-1.52-.5-.93-1.19-.83-2.25.98-10.02,2.83-19.95,3.23-30.07,2.03-51.5-6.33-104.84-19.62-154.36l1.8-26.98c11.48,13.33,21.87,27.78,31.1,42.78,15.27,24.83,24.07,45.07,28.83,74.14Z"/>
  <path class="st7" d="M398.33,217.01c2.86-4.09,2.8-9.88,4.08-14.62,6.9-25.59,23.58-50.54,39.6-71.38,7.8-10.15,16.08-20.12,25.15-29.14-1.53,9.63-2,19.53-3.83,29.1-2.79,14.62-8.93,30.2-12.49,45.08-8.54,35.66-13.92,73.99-15.13,110.69-.29,8.83.35,17.69,0,26.15-.05,1.14.61,2.38-1.19,2.05-3.25-11.03-3.47-20.49-16.49-23.57s-25.99,1.77-36.13,9.23c-.82.35-1.69-.09-1.92-.89-.32-1.09,1.72-10.58,2.13-12.56,3.71-17.8,9.79-35.11,13.55-52.92.81-3.83,3.33-14.1,2.66-17.22Z"/>
  <path class="st8" d="M650.54,311.38c-.77,9.46-4,28.02-.43,36.34,1.79,4.19,6.88,9.42,11.71,9.36-1.17,1.2-9.11,28.67-9.8,32.04-2.19,10.66-.96,24.05,3.26,34.14.83,1.98,1.64,4.65,4.17,5.03-2.27,13.12-5.54,18.78-17.4,25.62-1.56.9-8.44,4.44-9.71,4.56-.61.06-1.25-.38-1.37-.83-.23-.91,4.97-10.37,5.78-12.58,4.25-11.62,7.57-38.9,4.72-50.72-1.73-7.17-6.28-13.04-8.42-20.06-6.74-22.07-7.02-42.9-7.45-65.55-.44-23.51-1.51-57.05-12.93-77.88-4.83-8.8-6.74-11.3-17.54-10.21-18.05,1.81-26.38,16.51-28.77,32.95-.72,4.95-.23,12.82-1.92,17.07-1.33,3.36-8.51,5.62-11.81,7.48.08-3.87,3.16-7.16,4.44-10.69,2.97-8.14.2-17.1.91-25.8.38-4.69,2.3-9.49,3.03-14.18,1.28-2.52,3.75-2.25,5.48-3.42,7.97-5.39,9.06-8.69,14.64-15.63,7.41-9.21,18.39-19.7,30.8-11.26,3.47,2.36,4.68,7.18,5.98,8.26.72.6,2.6.68,3.85,1.49,2.11,1.36,2.94,4.2,4.49,5.6,1.67,1.51,4.86,2.57,6.81,4.47,6.12,5.96,3.17,11.69,3.19,18.71,0,2.11.69,3.93.67,5.92-.22,23.6-5.77,49.22,10.97,68.56.81.94,1.33,1.36,2.65,1.21Z"/>
  <path class="st13" d="M806.61,222.94c-1.83-.77-5.89-2.21-7.71-1.78-4.23-14.89-7.61-31.35-13.37-45.68-8.02-19.99-41.67-56.35-59.03-69.76-.6-.46-.75-1.14-1.79-.88v8.61c0,1.01,11.01,13.56,12.7,15.79,22.7,30.01,44.97,64.12,50.8,102.02-1.26,1.89-1.82,5.9-3.56,7.72-4.76-29.07-13.56-49.31-28.83-74.14-9.23-15-19.61-29.45-31.1-42.78l-1.8,26.98c13.29,49.52,21.65,102.86,19.62,154.36-.4,10.12-2.24,20.05-3.23,30.07-.1,1.06-.7,1.75.83,2.25-1.37,3.2-1.89,9.98-6.81,9.5-1.52-.15-1.5-1.31-2.09-1.79,1.68.35,1.12-.83,1.36-1.87,7.55-32.23,5.73-71.79,2.19-104.66-2.55-23.68-6.98-47.21-12.46-70.33-1.03-.14-.56,1.35-.59,2.07-.77,19.85,1.22,42.44-3.73,61.56-6.59,25.45-13.73,52.66-36.67,68.37-7.46,5.11-16.74,6.31-24.87,9.85-.23-2.86.1-6.33,0-9.5,5.43-1.26,12.48-3.98,17.43-6.6,23.68-12.54,28.28-46.35,31.74-70.34,3.12-21.65,5.36-45.14,7.2-66.99,1.44-17,1.9-30.99-.07-48-.44-3.76-5.34-17.12,1.85-15.53,2.28.5,8.67,4.21,11.08,5.56,20.92,11.76,41.54,34.95,53.71,55.49,12.71,21.47,22.01,46.02,27.2,70.43Z"/>
  <path class="st13" d="M509.3,278.14c-.66,3.32-.5,5.64.59,8.9-1.2.14-1.96-.39-2.93-.92-15.23-8.35-34.34-46.94-38.32-63.76-4.47-18.85-6.67-42.62-7.41-62.03-.03-.72.45-2.21-.59-2.07-8.42,30.73-14.46,62.31-17.8,94.07-2.03,19.24-3.45,40.64-2.4,59.96.19,3.46.84,7.61,1.81,10.96-.63.51-1,1.94-2.2,2.28-3.75,1.07-4.77-8.08-5.51-10.59,1.8.33,1.14-.91,1.19-2.05.35-8.46-.3-17.32,0-26.15,1.21-36.7,6.59-75.03,15.13-110.69,3.56-14.88,9.7-30.46,12.49-45.08,1.83-9.58,2.3-19.48,3.83-29.1-9.07,9.02-17.35,18.99-25.15,29.14-16.02,20.84-32.7,45.78-39.6,71.38-1.28,4.74-1.22,10.53-4.08,14.62-.24-1.1-2.48-7.16-2.97-7.72,1.1-.6.97-1.67,1.18-2.68,6.68-31.88,28.41-62.88,48.68-87.82,3.98-4.9,9.41-10.01,13.04-14.86.34-.45,1.21-1.51.9-2.06-3.06,1.78-6.96,2.62-10.02,4.22-5.56,2.89-22.94,20.06-27.97,25.44-14.06,15.03-21.3,31.31-30.04,49.48-3.02,6.29-7.25,12.65-8.82,19.37-3.51.34-6.36,1.36-9.49,2.97,2.39-6.3,4.76-12.68,7.61-18.8,15.44-33.18,37.05-71.05,68.63-91.02,3.59-2.27,22.1-12.96,24.96-13.09,4.97-.23,2.69,4.12,2.63,6.85-.18,7.92.26,15.87.05,23.79-.56,21.09-3.25,41.42-2.42,62.91,1.31,33.92,6.11,78.56,32.65,102.66.74.67,1.21,1.49,2.38,1.47Z"/>
  <path class="st14" d="M650.54,311.38c-1.32.15-1.84-.26-2.65-1.21-16.74-19.34-11.19-44.96-10.97-68.56.02-1.98-.66-3.8-.67-5.92-.03-7.02,2.93-12.75-3.19-18.71-1.95-1.9-5.14-2.95-6.81-4.47-1.55-1.4-2.38-4.24-4.49-5.6-1.25-.81-3.14-.89-3.85-1.49-1.3-1.08-2.51-5.9-5.98-8.26-12.42-8.44-23.4,2.04-30.8,11.26-5.58,6.93-6.67,10.24-14.64,15.63-1.73,1.17-4.2.9-5.48,3.42-.73,4.69-2.65,9.49-3.03,14.18-.71,8.7,2.07,17.66-.91,25.8-1.29,3.53-4.36,6.82-4.44,10.69-3.31,1.87-10.63,5.23-11.24,9.23-.36,2.35.82,10.31-3.59,8.28-1.72-.8-3.48-5.87-3.59-7.73-.24-4.12,2.55-5.08,3.63-8.25,2.27-6.74,1.9-6.61,5.42-12.98,2.75-4.99,3.68-15.69,1.85-21.07-.95-2.81-3.19-4.56-3.2-8.12,0-3.86,4.24-17.73,7.2-20.15,4.25-3.48,9.6-5.42,12.81-10.93,2.97-5.1,2.12-11.86,4.73-17.23,3.56-7.31,14.94-13.32,17.03-20.95.67-2.43.01-7.01,3.1-7.6,3.3-.64,5.26,1.75,8.01,2.65,3.13,1.02,5.91,1.05,9.18.9,3.64-.17,13.49-2.72,15.88-2.26,1.27.24,7.33,3.69,8.46,4.64,5.84,4.92,6.05,17.91,8.05,25.19,1.5,5.48,3.83,10.44,5.12,16.24,4.32,19.43,2.44,39.48,4.34,59.16,1.46,15.07,5.98,28.87,4.74,44.22Z"/>
  <path class="st14" d="M725.9,86.44c6.33,2.8,18.48,11.4,24.27,15.79,32.71,24.81,58.13,74.58,70.1,113.29.73,2.35,4.99,16.1,4.69,17.15-.13.46-.79,1.13-1.37.92-5.34-3.36-11.19-8.2-16.98-10.63-5.19-24.42-14.48-48.97-27.2-70.43-12.17-20.55-32.79-43.73-53.71-55.49-2.41-1.35-8.81-5.06-11.08-5.56-7.19-1.59-2.28,11.77-1.85,15.53,1.97,17.01,1.5,31,.07,48-1.85,21.84-4.08,45.33-7.2,66.99-3.46,23.99-8.05,57.81-31.74,70.34-4.95,2.62-12,5.34-17.43,6.6-.09-2.73-1.28-8.66-.3-10.69.91-1.89,9.1-3.96,11.54-5.67,9.94-6.97,21.72-43.4,24.92-55.8,6.34-24.58,7.78-45.54,9.55-70.58.78-11.01,3.18-22.15,2.37-33.25-.17-2.26-1.09-3.96-1.19-6.82-.15-4.18.91-7.64,1.18-11.58.36-5.25-.5-16.09,2.71-20.44,2.51-3.41,15.24.83,18.66,2.35Z"/>
  <path class="st8" d="M524.73,402.18c1.98,14.92,24.01,7.59,30.26-.59.92,10.6-.52,32.45,6.04,40.55,2.16,2.67,5.67,4.64,8.8,2.18.64,2.4,2.93,6.24,4.5,8.26,5.07,6.51,10.03,5.72,7.79,15.61-2.6,11.48-10.27,19.19-11.1,31.33-4.76-1.63-9.47-1.63-14.24,0,.7-13.25-1.62-11.52-6.05-21.55-2.72-6.17,2.29-9.98,3.96-15.25,2.59-8.15-1.39-13.37-3.55-20.77-.53-1.8-2.06-10.61-2.63-11.02-4.45-3.16-3.73,9.28-3.53,11.25.65,6.39,8.26,19.62-2.2,21.09-3.87.54-8.91.17-13,.65-4.88.58-9.97,2.06-14.82,2.39-2.74.19-12.49.71-13.7-1.81-.68-1.42,1.87-9.54,2.09-12.17.46-5.61-.11-12.05-1.47-17.5-1.72-6.92-6.2-13.46-5.64-20.77,2.33-.52,3.72,1.82,5.77,2.24,3.43.7,4.61-.9,4.28-4.25-.45-4.68-10.63-15.69-14.21-19.36l7.71-8.02,8.32-6.22c-.22,2.27.13,6.26.75,8.45,1.21,4.3,11.37,14.66,15.87,15.29Z"/>
  <path class="st9" d="M509.89,287.04c1.21,3.62,4.42,6.07,4.75,9.49-7.73-.58-15.67-1.82-23.46-1.21-14.67,1.15-37.36,18.63-48.94,27.92-.96-3.34-1.62-7.5-1.81-10.96-1.04-19.32.37-40.72,2.4-59.96,3.35-31.76,9.39-63.34,17.8-94.07,1.03-.14.56,1.35.59,2.07.74,19.42,2.94,43.18,7.41,62.03,3.99,16.82,23.09,55.41,38.32,63.76.97.53,1.73,1.06,2.93.92Z"/>
  <path class="st9" d="M656.47,308.41c8.13-3.54,17.42-4.74,24.87-9.85,22.95-15.71,30.08-42.92,36.67-68.37,4.95-19.12,2.96-41.71,3.73-61.56.03-.72-.45-2.21.59-2.07,5.48,23.13,9.92,46.65,12.46,70.33,3.54,32.87,5.36,72.43-2.19,104.66-.24,1.05.32,2.22-1.36,1.87-15.4-12.41-30.89-30.11-51.93-31.45-6.24-.4-14.62,1.61-20.16.57-2.38-.45-2.53-2.24-2.69-4.14Z"/>
  <path class="st14" d="M467.76,69.23c5.48-.76,13.89,1.21,16.05,6.8,1.76,4.54,3.48,12.76,2.94,17.54-.34,2.96-2.44,5.94-3.28,8.89-1.91,6.75-1.59,14.12-1.49,21.11.52,39.55,2.78,78.96,14.85,116.91,2.3,7.24,5.89,18.57,10.71,24.31.94,1.11,4.51,3.68,4.63,4.24.17.86-2.49,7.26-2.86,9.13-1.17.01-1.65-.8-2.38-1.47-26.55-24.11-31.34-68.75-32.65-102.66-.83-21.49,1.87-41.82,2.42-62.91.21-7.92-.23-15.87-.05-23.79.06-2.73,2.34-7.08-2.63-6.85-2.85.13-21.36,10.82-24.96,13.09-31.58,19.96-53.19,57.83-68.63,91.02-2.85,6.12-5.22,12.5-7.61,18.8-1.82.94-11.74,8.42-13.05,7.12,5-19.23,13.41-38.28,22.83-55.8,14.09-26.21,32.78-53.11,57.92-69.67,3.78-2.49,24.52-15.4,27.25-15.78Z"/>
  <path class="st14" d="M574.5,276.44c2.5,1.59-4.6,12.9-5.55,15.37-1.09,2.83-2.46,5.35-.32,8.02.69.87,2.01,1.23,2.38,1.92,1.14,2.16-.47,5.32,2.95,6.4,1.93.61,6.94-.21,6.58,2.91-.16,1.41-3.15,3.51-4.16,4.79-2.46,3.11-4.95,6.56-5.36,10.66-.33,3.34,1.82,8.06-.61,10.08-6.14,5.09-12.46,5.02-18.27,13.18-8.57,12.03-4.69,42.14-23.1,45.16-5.04.83-10.59-5.32-12.87-9.4-4.28-7.65,1.82-11.93,5.12-17.95,5.38-9.81,2.38-19.31,1.07-29.78,2.51-4.28,6.14-6.79,6.96-12.04,1.04-6.64,1.08-12.38,4.31-18.84,3.02-6.02,3.54-4.3,9.05-5.19,8.72-1.42,1.4-10.39,7-14.96,2.47-2.02,12.19-6.15,15.6-7.54,1.72-.7,7.95-3.6,9.22-2.79ZM549.06,309c-.37.21-1.63.01-2.58.66-8.82,6.07-11.76,19.51-13.28,29.47-.44,2.92-2.42,18.84-.79,20.05,1.92,1.42,1.66-.69,2.4-1.51,5.12-5.71,10.54-15.85,15.43-22.55.53-.73,1.23-1.62,1.78-2.37,1.95-2.66,3.75-3.74,5.93-7.72,1.38-2.5,2.42-3.45,2.97-6.53,2.97-4.31,2.07-10.43,2.96-15.43-.47-.51-11.69,3.56-13.22,4.3-1.07.51-1.41,1.52-1.61,1.63ZM534.65,373.23c-4.02.91-4.14,6.3-1.33,8.79,6.47,5.71,10.74-10.91,1.33-8.79ZM524,383.05c3.01-3.01.22-9.71-4.62-7.29-1.76.88-2.24,5.43-1.22,7.03.83,1.31,4.81,1.28,5.84.25Z"/>
  <path class="st6" d="M219.71,512.58c3.29,6.97,2.88,13.65-1.19,20.18-53.99,1.11-107.34-.66-161.11-4.16-3.12-.2-8.17-.67-11.13-1.35-1.1-.25-1.96-.21-1.63-1.61l30.53-2.4c48.65-1.32,96.52-2.22,144.52-10.66Z"/>
  <path class="st1" d="M798.9,221.16c-.18.04-2.56,1.73-2.99,2.06-1.28,1.02-6.9,6.83-7.7,8.03-5.83-37.9-28.1-72.01-50.8-102.02-1.68-2.23-12.7-14.78-12.7-15.79v-8.61c1.03-.26,1.19.42,1.79.88,17.36,13.41,51,49.77,59.03,69.76,5.75,14.34,9.14,30.79,13.37,45.68Z"/>
  <path class="st1" d="M634.51,397.44c3.46,13.45.22,18.89-9.49,27.61-17.82,16-35.12,17.85-49.75-3.08-1.11-1.59-4.29-5.45-4.31-7-.02-1.69,2.14-5.39,2.72-7.42.67-2.34,1.07-4.74,1.48-7.13,7.77,4.76,19.21,8.95,28.35,9.92,7.29.78,17.15-3.42,23.37-7.16,2.75-1.66,4.98-3.99,7.63-5.73Z"/>
  <path class="st1" d="M395.36,209.29c-.09-.1-1.04-.05-1.45-.61-2.62-3.63-4.58-8.38-9.71-8.75-1.06-.08-1.47.42-1.9.46,1.57-6.73,5.8-13.09,8.82-19.37,8.74-18.17,15.98-34.45,30.04-49.48,5.03-5.38,22.41-22.55,27.97-25.44,3.06-1.59,6.96-2.43,10.02-4.22.3.55-.57,1.61-.9,2.06-3.63,4.84-9.05,9.96-13.04,14.86-20.27,24.94-42,55.93-48.68,87.82-.21,1.01-.08,2.08-1.18,2.68Z"/>
  <path class="st14" d="M659.44,428.3c-2.52-.38-3.34-3.05-4.17-5.03-4.22-10.1-5.45-23.48-3.26-34.14.69-3.37,8.63-30.84,9.8-32.04.14-.15,1.36.06,1.7-.95,1.16-3.48-4.71-7.21-6.56-10.51-3.01-5.36-3.57-14.69-2.7-20.73.66-4.53,1.82-6.13,6.18-4.11,8.04,3.71,15.64,29.4,15.05,37.81-.67,9.67-9.1,17.85-10.56,26.23-2.43,14-3.03,29.28-5.48,43.48Z"/>
  <path class="st14" d="M569.83,444.32c-3.13,2.46-6.63.49-8.8-2.18-6.56-8.1-5.12-29.95-6.04-40.55-.02-.2.02-.4,0-.59,8.69-6.2,6.63-18.59,8.48-28.02,1.94-9.86,7.81-17.01,16.44-21.84-3.73,29.18-18.14,63.12-10.09,93.18Z"/>
  <path class="st10" d="M509.89,328l-1.13.37-2.13,2.61c1.77-.31,2.78-2.03,3.85-2.98,1.45-1.29,3.33-2.55,4.4-4.21,4.74-7.34,1.63-16.84,13.23-20.01,2.74-.75.49,1.92.14,3.11-.86,2.95-2.07,6.28-2.66,9.21-1.48,7.3.18,9.49-4.78,16-3.95,5.2-12.21,12.35-18.63,14.01-9.8,2.55-22.56-2.54-31.47-6.54.36-.85,12.98-3.14,15.15-3.84,7.64-2.49,13.76-6.89,17.19-14.26,1.18-2.53,1.61-5.68,3.04-8.24,3.24-5.84,9.93-8.29,15.96-10.14-1.8,2.82-4.17,4.31-5.57,7.48-2.43,5.53-2.79,12.27-6.61,17.43Z"/>
  <path class="st1" d="M626.21,370.73c.98,4.47,1.21,9.11,2.96,13.42.03,1.03-.56,1.98-1.18,2.74-1.49,1.87-14.37,9.94-16.99,11.06-8.99,3.84-18.47-1.47-25.43-7.06-1.56-1.25-5.78-4.68-6.14-6.35-.52-2.44,1.97-11.54,2.86-14.4,10.41,5.17,20.78,10.52,32.65,6.83,3.45-1.07,7.75-4.8,11.27-6.24Z"/>
  <path class="st6" d="M446.99,523.26c-.12-.51-.15-4.01,0-4.15.11-.1,1.96.13,2.96-.3,3.45-1.51,8.91-7.89,13.22-9.33,1.86-.62,2.91-.29,4.59-.45,6.66-.65,11.83-.54,18.4.88,4.77,1.03,23.16,5.73,15.45,13.09-4.55,4.35-6.59-1.39-12.19-.32-6.11,1.17,8.27,9.71,4.47,12.19-4.51,2.94-19.09-6.79-24.32-7.77-5.76-1.08-12.28-.37-17.97-1.62-1.32-.29-4.28-.74-4.61-2.21Z"/>
  <path class="st1" d="M575.77,441.95c3.19,1.36,6.9,3.41,10.21,4.33,17.13,4.77,36.87-2.83,48.54-15.61-2.11,16.08-18.73,47.86-38.52,34.07-7.34-5.11-16.87-14.65-20.23-22.8Z"/>
  <path class="st3" d="M549.65,384.97c4.08-9.88,3.28-28.07,11.27-35.91.56-.55,12.45-7.23,13.65-7.71,4.08-1.63,6.5-1.55,6.53,3.55.01,1.73-.98,4.55-1.19,6.24-8.63,4.83-14.5,11.98-16.44,21.84-1.85,9.43.21,21.82-8.48,28.02-.46-4.93-.97-10.24-3.56-14.58-.47-.79-.55-1.72-1.78-1.45Z"/>
  <path class="st6" d="M571.02,504.86c.35,4.95,1.34,8.4,5.38,11.53,3.61,2.8,18.08,8.65,7.5,14.11-3.03,1.56-10.22,1.65-13.62.92-4.01-.86-5.94-3.09-10.7-2.09-3.85.81-4.87,4.56-9.62-.14-5.62-5.56,2.51-10.01,4.56-15.61.97-2.66,1.33-5.9,1.67-8.72,4.95,2.57,9.72-.03,14.84,0Z"/>
  <path class="st0" d="M637.48,463.31c-.34,10.12,1.15,23.83,13.06,26.11,2.73,5.9,3.53,13.78,5.93,19.59-4.71.71-12.31-.96-16.62,0-.18-3.45-4.37-7.66-6.81-10.11-1.92-1.92-10.09-7.77-10.28-9.87-.27-2.94,7.21-7.9,8.49-10.89,1.96-4.61-.66-9.83.6-12.47.81-1.7,4.07-1.78,5.64-2.37Z"/>
  <path class="st1" d="M619.68,340.46c.59,2.89,3.42,12.63,2.08,14.85-8.8,4.77-16.34,13.96-27.2,8.79-1.67-.79-8.26-5.71-8.85-7.17-1.43-3.54.63-11.4,1.33-15.28,7.12,2.72,18,5.99,25.35,3.1,2.45-.96,4.52-3.68,7.29-4.28Z"/>
  <path class="st4" d="M656.47,509.01c1.54,3.72,4.77,9.28,8.77,10.51,3.11.96,6.67.05,8.98,1.72,1.08,3.3-7.71,5.63-10.34,5.63s-4.96-1.24-7.7-1.27c-3.11-.04-4.7,1.53-7.58,1.09-5.22-3.24-16.73-4.98-21.19-7.91-1.11-.73-3.28-3.04-2.35-4.37.37-.53,10.75-3.41,12.41-3.91.9-.27,1.77-1.35,2.37-1.48,4.3-.96,11.91.71,16.62,0Z"/>
  <path class="st4" d="M545.88,504.48c4.78,4.78,3.15,7.42-.99,11.94-1.57,1.71-2.6,3.6-5.06,2.13s-9.27-11.37-10.76-11.82c-2.99-.9-2.88,3.14-4.62,4.68-4.77,4.23-8.78-4.12-13.67-3.63-1.77.18-2.43,1.6-4.69,1.24-.77-.12-6.16-3.42-6.28-3.88-.26-1.07,3.56-3.86,4.55-4.33,4.2-2.02,5.52-.69,9.37-.66,7.44.04,20.77-1.8,27.03.86,1.2.51,4.22,2.56,5.13,3.48Z"/>
  <path class="st11" d="M634.51,430.67c-11.68,12.78-31.41,20.38-48.54,15.61-3.3-.92-7.01-2.98-10.21-4.33-.35-.85-1.15-1.46-1.52-2.93-.33-1.35-1.64-8.61.04-8.93.67-.13,8.6,6.8,10.96,8.02,12.05,6.25,23.23,3.65,34.02-3.39,2.27-1.48,12.76-10.41,13.85-10.51,2.4-.22,1.58,5.08,1.4,6.47Z"/>
  <path class="st1" d="M619.68,314.34c-.28,3.57-.46,10.16-3.17,12.86-1.1,1.09-9.31,4.36-11.05,4.68-4.97.91-13.31-2.56-14.17-7.89-.22-1.35,1.82-12.75,2.27-14.98,6.37,6.42,17.68,7.7,26.11,5.34Z"/>
  <path class="st11" d="M542.32,178.52c1.58-.29,5.57,4.54,7.14,5.75,6.53,5,11.4,2.96,9.54,13.3-1.11,6.18-9.47,19.47-14.8,10.37-2.7-4.61-5.17-23.1-3.28-27.86.25-.62.72-1.43,1.41-1.56Z"/>
  <path class="st0" d="M549.65,384.97c1.23-.27,1.31.66,1.78,1.45,2.59,4.33,3.09,9.64,3.56,14.58.02.2-.02.4,0,.59-6.26,8.19-28.28,15.52-30.26.59,10.15,1.42,21.29-8.4,24.92-17.21Z"/>
  <path class="st13" d="M634.51,397.44c-2.65,1.74-4.88,4.07-7.63,5.73-6.22,3.75-16.08,7.94-23.37,7.16-9.14-.97-20.58-5.16-28.35-9.92.41-2.39-.43-5.48,1.54-7.75,3.37.33,5.3,3.57,7.76,5.28,7.11,4.92,15.96,8.19,24.76,7.16,7.78-.91,15.22-8.42,22.17-11.7,3.3-.65,2.64,2.19,3.12,4.05Z"/>
  <path class="st1" d="M618.49,282.3c.67,3.72,1.59,13.58.56,16.88-1.47,4.69-7.02,6.01-11.38,4.33-1.36-.53-8.83-5.43-9.62-6.4-1.32-1.62-1.14-7.57-.95-9.81.07-.79.59-1.26.62-1.44,7.17,1.47,14.59.35,20.77-3.56Z"/>
  <path class="st12" d="M487.34,60.32c4.28,3.44,8.2,7.92,8.31,13.65-3.09,6.47-5.1,13.47-8.9,19.59.54-4.78-1.18-12.99-2.94-17.54-2.16-5.59-10.57-7.56-16.05-6.8,5.85-4.29,12.83-6.65,19.58-8.9Z"/>
  <path class="st13" d="M626.21,370.73c-3.51,1.45-7.81,5.17-11.27,6.24-11.87,3.69-22.24-1.67-32.65-6.83,3.49-11.27,5.44-3.13,11.87-.3,5.63,2.48,11.06,1.53,16.61-.61,2.62-1.01,10.68-6.39,12.17-6.25,2.23.21,2.88,5.95,3.27,7.75Z"/>
  <path class="st12" d="M708.69,76.35c4.09.56,13.59,7.45,17.21,10.09-3.42-1.51-16.16-5.75-18.66-2.35-3.2,4.35-2.35,15.19-2.71,20.44-.27,3.94-1.33,7.4-1.18,11.58-1.6-5.85-5.8-12.45-6.53-18.4-.37-3.03-.38-10.92-.01-13.96.7-5.83,6.65-8.12,11.88-7.41Z"/>
  <path class="st11" d="M571.31,149.36c1.83,2.03,1.7,5.09,3.35,7.32,2.01,2.72,5.04,3.16,4.3,7.98-.59,3.8-9.86,14.27-13.3,15.83-1.78.81-2.61.25-3.25-1.46-3.29-8.81,3.58-22.65,8.91-29.67Z"/>
  <path class="st3" d="M650.54,489.43c-11.91-2.28-13.39-16-13.06-26.11,1.74-.65,8.45-3.94,9.5-3.3.34.21.54.71.74,1.07l2.81,28.34Z"/>
  <path class="st13" d="M619.68,340.46c-2.77.61-4.84,3.32-7.29,4.28-7.35,2.89-18.24-.38-25.35-3.1.38-2.12-.22-7.15,3.25-7.04,2.35.08,6.54,2.35,9.67,2.72,7.83.93,9.67-1.26,16.14-3.13,4.47-1.3,3.07,3.77,3.58,6.26Z"/>
  <path class="st14" d="M529.48,297.73l-5.35.33c-2.06-5.89-11.91-11.56-10.28-18.03.62-2.47,3.01-9.57,6.11-8.12,4.93,2.3,9.36,20.31,9.51,25.82Z"/>
  <path class="st12" d="M231.58,510.2c.39,7.4-.66,14.69-1.78,21.96-3.5.09-7.53.52-11.28.59,4.07-6.53,4.48-13.21,1.19-20.18,3.95-.69,7.92-1.65,11.87-2.37Z"/>
  <path class="st11" d="M530.39,238.38c2.03-.57,9.75,8.92,10.24,11.1.74,3.32-.21,15.48-4.46,16.12-1.14.17-1.25-.05-1.87-.88-1.52-2.03-3.39-8.26-3.95-10.89-.5-2.35-2.59-14.71.05-15.45Z"/>
  <path class="st0" d="M487.93,480.53c-.12,7.02-2.22,13.69-.61,20.74-2.69.92-9.06.4-10.93-1.78-1.61-1.86-2.19-9.84-1.21-11.85.42-.86,12-7.91,12.76-7.12Z"/>
  <path class="st12" d="M467.76,509.01c-1.68.16-2.74-.17-4.59.45-4.32,1.44-9.77,7.82-13.22,9.33-1,.44-2.85.2-2.96.3-.15.14-.11,3.65,0,4.15-1.08-2.4-.32-4.56-1.31-7.29-.53-1.47-2.98-4.97-4.03-6.36,3-4.27,7.4-5.12,11.87-7.12.77,1.02,4.54,4.03,5.79,4.59,2.82,1.27,5.7.94,8.45,1.93Z"/>
  <path class="st11" d="M613.74,142.82c-.35,9.43,1.73,15.7-9.77,16.64-4.41.36-12.32.28-7.35-5.57,1.65-1.94,12.02-9.65,14.32-10.61.95-.39,1.76-.6,2.8-.47Z"/>
  <path class="st11" d="M593.57,309c.24-1.18,1.24-7.55,3.22-7.1.68.15,3.9,4.14,5.12,4.98,2.15,1.47,6.6,2.68,9.16,2.71,3.76.04,9.37-3.15,9.26,2.72-.02,1.12-.65,1.85-.66,2.04-8.43,2.36-19.74,1.08-26.11-5.34Z"/>
  <path class="st11" d="M396.42,370.89c1.48-.15,4.04-.75,3.43,1.64s-10.84,16.97-12.49,16.6c-1.43-.32-4.72-12.37-3.58-14.26.67-1.1,10.83-3.79,12.64-3.98Z"/>
  <path class="st11" d="M426.22,338.68c.63,4.63-5.18,10.31-8.63,13.04-2.61,2.07-2.98,2.59-4.76-.54-.98-1.72-3.8-9.09-2.7-10.46,1.96-2.42,12.91-2.56,16.09-2.04Z"/>
  <path class="st11" d="M651.77,268.01c-.39-.27-1.67-8.12-1.75-9.23-.12-1.72-.65-9.18,1.99-9.16.94,0,8.41,7.41,10.61,7.82.58.3,1,.69,1,1.4,0,1.64-9.97,10.45-11.86,9.16Z"/>
  <path class="st1" d="M615.53,263.3c.04.14.85.69,1.04,1.61,1.27,6.16,2.17,8.18-4.96,9.01s-12.02-.11-12.7-8.25c5.72.33,11.2-.87,16.62-2.37Z"/>
  <path class="st6" d="M708.69,76.35c-5.23-.71-11.18,1.57-11.88,7.41-.36,3.04-.36,10.93.01,13.96-2.28-3.13-3.35-7.96-3.98-11.75-2.85-17.1,2.34-17.08,15.85-9.62Z"/>
  <path class="st6" d="M495.65,73.97c-.11-5.73-4.03-10.21-8.31-13.65,3.24-1.08,19.61-7.27,16.15,1.62-1.47,3.79-5.5,8.61-7.84,12.03Z"/>
  <path class="st11" d="M307.37,473.49c2.21-.59,10.42,4.48,12.96,5.82.64.34,1.68.48,1.45,1.51-.48,2.18-12.47,5.59-14.43,4.99-2.2-.67-2.58-11.62.02-12.32Z"/>
  <path class="st13" d="M597.72,285.86c1.24-8.26,2.17-5.09,9.12-6.01,3.5-.47,6.66-1.66,10.09-2.34.61.12,1.41,3.93,1.56,4.8-6.18,3.91-13.6,5.03-20.77,3.56Z"/>
  <path class="st13" d="M615.53,263.3c-5.42,1.51-10.9,2.7-16.62,2.37-.79-9.54.75-6.62,7.36-7.78,1.82-.32,5.25-1.73,6.64-1.69,2.52.07,2.23,5.57,2.62,7.1Z"/>
  <path class="st11" d="M375.19,415.24c.84.85-2.55,12.85-3.63,14.47-.35.52-.59,1.11-1.37.94-1.67-.37-6.74-8.32-6.19-10.24s8.79-5.85,11.2-5.17Z"/>
  <path class="st11" d="M348.51,463.89c-.54-.39-3.58-12.41-2.99-13.03,2.05,1.16,11.64,1.46,12.49,2.04,3.14,2.13-7.83,12.19-9.5,10.99Z"/>
  <path class="st1" d="M610.78,241.94c.99,1.85,2.27,4.73,1.08,6.7-.96,1.6-7.05,4.08-9.04,3.96-3.39-.21-3.8-4.75-4.5-7.1l12.46-3.56Z"/>
  <path class="st1" d="M579.92,249.06c.17-2.47-1.26-6.78-1.19-9.5,1.46-2.62,3.83-8.2,7.88-7.02,2.39.69,1.84,5.62,1.15,7.45-.58,1.53-4.3,6.02-5.58,7.48-.68.77-.92,1.65-2.26,1.59Z"/>
  <path class="st12" d="M571.02,499.52c-.11,1.62-.11,3.73,0,5.34-5.12-.03-9.89,2.57-14.84,0,.18-1.5.52-4.01.59-5.34,4.78-1.63,9.48-1.63,14.24,0Z"/>
  <path class="st11" d="M268.96,494.77c-.42-1.98.9-10.1,2.76-10.64,1.55-.45,9.41,5.48,9.66,6.86.49,2.73-10.38,4.29-12.42,3.78Z"/>
  <path class="st10" d="M201.31,507.23c-2.44.65-9.23,2.87-11.3,1.51-1.16-.77-2.64-9.5.76-9.12,1.68.19,11.79,5.97,10.54,7.61Z"/>
  <path class="st11" d="M227.42,501.89c1.08-6.21,2.44-11.45,8.6-5.33s-4.34,5.37-8.6,5.33Z"/>
  <path class="st0" d="M584.07,317.9c-.13,3.08-.35,11-3.99,11.76-8.97,1.89,1.24-14.5,3.99-11.76Z"/>
  <path class="st11" d="M647.03,208.05c-.84-.59-1.76-6.07-.7-7.42,1.14-1.45,8.4-1.58,8.38,1.25,0,1.11-5.98,7.37-7.68,6.17Z"/>
  <path class="st11" d="M610.78,241.94l-12.46,3.56c-.27-.89-1.79-1.39-1.09-3.74.79-2.64,9.18-2.62,11.46-2.18,1.96.37,1.51,1.27,2.09,2.36Z"/>
  <path class="st11" d="M637.49,174.87c-.81-.55-1.48-6.57-1.08-7.9.52-1.72,5.96-4.44,6.44-1.28.25,1.62-3.22,10.65-5.36,9.18Z"/>
  <path class="st10" d="M146.12,512.58c-.56-1.83,1.51-6.39,3.27-6.56,1.26-.13,7.25,3.85,7.41,4.49.6,2.35-9.33,2.16-10.68,2.07Z"/>
  <path class="st10" d="M442.64,529.33c.83-.07,2.59.98,2.91,1.63.76,1.59-6.5,7.75-8.66,6.27-2.34-1.6,3.22-7.69,5.75-7.9Z"/>
  <path class="st1" d="M595.35,233.03l4.15-5.34c9.88,2.37,4.48,10.09-4.15,5.34Z"/>
  <path class="st11" d="M579.92,249.06c-.13,1.89-2.34,3.69-4.2,2.71-1.9-1.38,1.05-9.26,1.97-11.2.31-.64.96-.87,1.04-1.02-.07,2.72,1.36,7.03,1.19,9.5Z"/>
  <path class="st0" d="M582.89,303.06c-.79-1.17,4.84-6.78,5.73-7.03,3.2-.89,2.16,5.64-.05,7.08-1.19.77-5.2.66-5.68-.05Z"/>
  <path class="st2" d="M694.45,526.82c-.57.58-9.8-4.38-11.85-3.87-3.38-4.57,1.52-3.1,4.34-1.97,1.04.41,9.19,4.14,7.5,5.85Z"/>
  <path class="st10" d="M504.97,538.86c3.7,4.37-7.57,6.02-5.63-.35.82-2.7,4.43-1.08,5.63.35Z"/>
  <path class="st11" d="M599.5,227.69l-4.15,5.34c-1.21-.67-4.81-2.95-3.54-4.72,1-1.39,5.99-1.03,7.69-.62Z"/>
  <path class="st1" d="M576.95,265.68l-5.93-.59c.13-2.5,1.9-8.94,4.48-4.19.54.99,1.46,3.73,1.45,4.78Z"/>
  <path class="st10" d="M104.37,510.85c2.49-.74,10.28,3.66,4.66,4.15-3.6.31-8.02-3.14-4.66-4.15Z"/>
  <path class="st11" d="M576.95,265.68c-.03,5.08-6.29,6.57-5.93-.59l5.93.59Z"/>
  <path class="st10" d="M595.94,538.09c-1.04,1.03-7.26-1.32-5.06-4.77,1.3-2.04,6.46,3.37,5.06,4.77Z"/>
  <path class="st11" d="M649.5,234.06c-1.45-1.74-.17-5.81,2.82-4.3,3.23,1.63-.79,6.74-2.82,4.3Z"/>
  <path class="st2" d="M655.37,534.44c-.37-.6.03-2.06-.09-2.87,5.55.26,1.76,5.54.09,2.87Z"/>
  <path class="st10" d="M70.16,514.36c.26,2.99-2.05,3.02-3.55.87.33-2.25,2.09-1.25,3.55-.87Z"/>
  <path class="st10" d="M561.52,534.54c.4.36.14,3.52-2.07,2.96-1.99-.51.83-4.07,2.07-2.96Z"/>
  <path class="st2" d="M22.99,516.14c1.45-.32,1.98,2.06.58,2.37s-1.98-2.06-.58-2.37Z"/>
  <path class="st2" d="M509.89,328h.59c-1.07.95-2.07,2.67-3.85,2.98l2.13-2.61,1.13-.37Z"/>
  <path class="st2" d="M622.05,522.07c-1,.89-2.67-.76-1.77-1.77.56-.64,2.41,1.21,1.77,1.77Z"/>
  <path class="st5" d="M549.06,309c.32,3.83-3.37,6.68-4.75,10.09-.32.79-.81,1.39-.59,2.37,1.62,1.58,16.5-10.84,14.24,3.56-2.18,3.97-3.98,5.06-5.93,7.72-.38-.05-.84.08-1.19,0,.95-3.31,3.1-5.52,2.99-9.2-.06-2.09-4.06-.05-4.96.4-5.06,2.56-6.34,5.49-1,8.79-1.45.06-2.6-.03-4.15,0-2.38.04-3.73.33-4.79,2.63-2.54,5.52-2.67,16.12-4.11,22.3-.74.83-.48,2.93-2.4,1.51-1.64-1.21.34-17.12.79-20.05,1.52-9.96,4.46-23.4,13.28-29.47.95-.65,2.22-.46,2.58-.66Z"/>
  <path class="st1" d="M543.72,332.74c.39,3.36,3.98,2.24,6.53,2.37-4.89,6.71-10.31,16.85-15.43,22.55,1.45-6.18,1.57-16.78,4.11-22.3,1.06-2.3,2.41-2.59,4.79-2.63Z"/>
  <path class="st1" d="M544.31,319.09l16.33-11.86c1.21-.16.77.05.88.87.31,2.28-.17,8.02-.59,10.4-.55,3.08-1.59,4.03-2.97,6.53,2.26-14.41-12.62-1.98-14.24-3.56-.22-.98.27-1.58.59-2.37Z"/>
  <path class="st11" d="M549.06,309c.2-.12.55-1.12,1.61-1.63,1.52-.73,12.74-4.81,13.22-4.3-.89,5,0,11.11-2.96,15.43.42-2.38.9-8.12.59-10.4-.11-.82.33-1.03-.88-.87l-16.33,11.86c1.38-3.41,5.07-6.26,4.75-10.09Z"/>
  <path class="st5" d="M534.65,373.23c9.41-2.13,5.14,14.5-1.33,8.79-2.81-2.48-2.69-7.88,1.33-8.79Z"/>
  <path class="st5" d="M524,383.05c-1.03,1.03-5.01,1.06-5.84-.25-1.02-1.6-.53-6.15,1.22-7.03,4.83-2.42,7.62,4.27,4.62,7.29Z"/>
  <path class="st11" d="M550.84,332.74c.35.08.81-.05,1.19,0-.55.75-1.25,1.65-1.78,2.37-2.55-.13-6.13.98-6.53-2.37,1.55-.03,2.71.06,4.15,0s1.17-.4,2.97,0Z"/>
  <path class="st10" d="M547.87,332.74c-5.35-3.3-4.06-6.23,1-8.79.89-.45,4.89-2.5,4.96-.4.11,3.68-2.04,5.88-2.99,9.2-1.8-.4-1.56-.06-2.97,0Z"/>
</svg>